M48
; DRILL file {KiCad 8.0.4} date 2024-08-09T00:15:12+0200
; FORMAT={-:-/ absolute / inch / decimal}
; #@! TF.CreationDate,2024-08-09T00:15:12+02:00
; #@! TF.GenerationSoftware,Kicad,Pcbnew,8.0.4
; #@! TF.FileFunction,Plated,1,4,PTH
FMAT,2
INCH
; #@! TA.AperFunction,Plated,PTH,ViaDrill
T1C0.0118
; #@! TA.AperFunction,Plated,PTH,ComponentDrill
T2C0.0236
; #@! TA.AperFunction,Plated,PTH,ComponentDrill
T3C0.0315
; #@! TA.AperFunction,Plated,PTH,ComponentDrill
T4C0.0394
; #@! TA.AperFunction,Plated,PTH,ComponentDrill
T5C0.1614
%
G90
G05
T1
X4.3307Y-2.7559
X4.3307Y-2.9528
X4.5276Y-2.7559
X4.5276Y-2.9528
X4.5276Y-3.2559
X4.5551Y-2.0039
X4.5551Y-2.0591
X4.5551Y-2.1142
X4.5551Y-2.1693
X4.5551Y-2.2244
X4.5669Y-3.5039
X4.622Y-3.4488
X4.626Y-3.2559
X4.685Y-3.6417
X4.7244Y-2.7559
X4.7283Y-3.2559
X4.7913Y-1.9331
X4.7913Y-2.0748
X4.7913Y-2.1378
X4.7913Y-2.189
X4.8268Y-3.2559
X4.8425Y-3.5039
X4.8425Y-3.6417
X4.9016Y-1.9803
X4.9213Y-3.2559
X5.0Y-3.6417
X5.0079Y-2.0354
X5.0315Y-2.1299
X5.1181Y-2.1299
X5.126Y-2.5354
X5.126Y-3.2559
X5.1575Y-3.5039
X5.1575Y-3.6417
X5.2283Y-2.5354
X5.2283Y-3.2559
X5.315Y-3.6417
X5.3189Y-2.2913
X5.3268Y-2.5354
X5.3268Y-3.2559
X5.4213Y-2.2913
X5.4252Y-3.2559
X5.4291Y-2.5354
X5.4724Y-3.5039
X5.4724Y-3.6417
X5.5276Y-2.3661
X5.5276Y-2.5354
X5.5276Y-3.2559
X5.626Y-2.2913
X5.626Y-2.5354
X5.626Y-3.2559
X5.6299Y-3.4528
X5.6299Y-3.6417
X5.7244Y-3.2559
X5.752Y-3.5039
X5.8268Y-2.2913
X5.8268Y-2.5354
X5.8268Y-2.7559
X5.8268Y-2.9528
X5.8268Y-3.2559
X6.0236Y-2.7559
X6.0236Y-2.9528
T2
X4.1644Y-2.126
X4.1644Y-3.6614
X4.2016Y-2.0362
X4.2016Y-2.2158
X4.2016Y-3.5716
X4.2016Y-3.7512
X4.2913Y-1.999
X4.2913Y-2.253
X4.2913Y-3.5344
X4.2913Y-3.7884
X4.3811Y-2.0362
X4.3811Y-2.2158
X4.3811Y-3.5716
X4.3811Y-3.7512
X4.4183Y-2.126
X4.4183Y-3.6614
X5.8967Y-2.126
X5.8967Y-3.6614
X5.9338Y-2.0362
X5.9338Y-2.2158
X5.9338Y-3.5716
X5.9338Y-3.7512
X6.0236Y-1.999
X6.0236Y-2.253
X6.0236Y-3.5344
X6.0236Y-3.7884
X6.1134Y-2.0362
X6.1134Y-2.2158
X6.1134Y-3.5716
X6.1134Y-3.7512
X6.1506Y-2.126
X6.1506Y-3.6614
T3
X5.0787Y-2.0079
X5.0787Y-2.0866
X5.1575Y-2.0079
X5.1575Y-2.0866
X5.2362Y-2.0079
X5.2362Y-2.0866
X5.315Y-2.0079
X5.315Y-2.0866
X5.3937Y-2.0079
X5.3937Y-2.0866
X5.4724Y-2.0079
X5.4724Y-2.0866
X5.5512Y-2.0079
X5.5512Y-2.0866
X5.6299Y-2.0079
X5.6299Y-2.0866
T4
X4.3268Y-2.4449
X4.3268Y-3.3504
X4.4268Y-2.4449
X4.4268Y-3.3504
X4.5268Y-2.4449
X4.5268Y-3.3504
X4.6268Y-2.4449
X4.6268Y-3.3504
X4.7268Y-2.4449
X4.7268Y-3.3504
X4.8268Y-2.4449
X4.8268Y-3.3504
X4.9268Y-2.4449
X4.9268Y-3.3504
X5.0268Y-2.4449
X5.0268Y-3.3504
X5.1268Y-2.4449
X5.1268Y-3.3504
X5.2268Y-2.4449
X5.2268Y-3.3504
X5.3268Y-2.4449
X5.3268Y-3.3504
X5.4268Y-2.4449
X5.4268Y-3.3504
X5.5268Y-2.4449
X5.5268Y-3.3504
X5.6268Y-2.4449
X5.6268Y-3.3504
X5.7268Y-2.4449
X5.7268Y-3.3504
X5.8268Y-2.4449
X5.8268Y-3.3504
T5
X4.2913Y-2.126
X4.2913Y-3.6614
X6.0236Y-2.126
X6.0236Y-3.6614
M30
