%TF.GenerationSoftware,KiCad,Pcbnew,8.0.4*%
%TF.CreationDate,2024-08-09T00:15:22+02:00*%
%TF.ProjectId,ELE0124CL_control,454c4530-3132-4344-934c-5f636f6e7472,rev?*%
%TF.SameCoordinates,Original*%
%TF.FileFunction,Legend,Bot*%
%TF.FilePolarity,Positive*%
%FSLAX46Y46*%
G04 Gerber Fmt 4.6, Leading zero omitted, Abs format (unit mm)*
G04 Created by KiCad (PCBNEW 8.0.4) date 2024-08-09 00:15:22*
%MOMM*%
%LPD*%
G01*
G04 APERTURE LIST*
%ADD10C,0.150000*%
%ADD11C,0.000000*%
G04 APERTURE END LIST*
D10*
G36*
X131935222Y-79194029D02*
G01*
X131956104Y-79214911D01*
X131985074Y-79272850D01*
X132018935Y-79408292D01*
X132018935Y-79580297D01*
X131985074Y-79715738D01*
X131956104Y-79773677D01*
X131935221Y-79794561D01*
X131885753Y-79819295D01*
X131844973Y-79819295D01*
X131795504Y-79794561D01*
X131774621Y-79773677D01*
X131745651Y-79715738D01*
X131711792Y-79580299D01*
X131711792Y-79408290D01*
X131745651Y-79272851D01*
X131774621Y-79214911D01*
X131795503Y-79194029D01*
X131844973Y-79169295D01*
X131885753Y-79169295D01*
X131935222Y-79194029D01*
G37*
G36*
X134314967Y-80058184D02*
G01*
X127664819Y-80058184D01*
X127664819Y-79879663D01*
X127753708Y-79879663D01*
X127753708Y-79908927D01*
X127764907Y-79935963D01*
X127785599Y-79956655D01*
X127812635Y-79967854D01*
X127827267Y-79969295D01*
X128208219Y-79969295D01*
X128222851Y-79967854D01*
X128249887Y-79956655D01*
X128270579Y-79935963D01*
X128281778Y-79908927D01*
X128283219Y-79894295D01*
X128283219Y-79155853D01*
X128477517Y-79155853D01*
X128477517Y-79185115D01*
X128488715Y-79212152D01*
X128509408Y-79232845D01*
X128536444Y-79244044D01*
X128565706Y-79244044D01*
X128592743Y-79232846D01*
X128604108Y-79223519D01*
X128629685Y-79197942D01*
X128715627Y-79169295D01*
X128767478Y-79169295D01*
X128853420Y-79197942D01*
X128908484Y-79253006D01*
X128937454Y-79310945D01*
X128971315Y-79446387D01*
X128971315Y-79542202D01*
X128937454Y-79677643D01*
X128908484Y-79735582D01*
X128853419Y-79790648D01*
X128767478Y-79819295D01*
X128715627Y-79819295D01*
X128629686Y-79790648D01*
X128604109Y-79765071D01*
X128592744Y-79755744D01*
X128565707Y-79744545D01*
X128536445Y-79744545D01*
X128509408Y-79755744D01*
X128488716Y-79776436D01*
X128477517Y-79803473D01*
X128477517Y-79832735D01*
X128488716Y-79859772D01*
X128498043Y-79871137D01*
X128536139Y-79909233D01*
X128547504Y-79918561D01*
X128549994Y-79919592D01*
X128552029Y-79921357D01*
X128565455Y-79927351D01*
X128679740Y-79965446D01*
X128686993Y-79967095D01*
X128688825Y-79967854D01*
X128691479Y-79968115D01*
X128694077Y-79968706D01*
X128696051Y-79968565D01*
X128703457Y-79969295D01*
X128779648Y-79969295D01*
X128787053Y-79968565D01*
X128789028Y-79968706D01*
X128791625Y-79968115D01*
X128794280Y-79967854D01*
X128796111Y-79967095D01*
X128803365Y-79965446D01*
X128917651Y-79927351D01*
X128931076Y-79921357D01*
X128933111Y-79919591D01*
X128935602Y-79918560D01*
X128946967Y-79909233D01*
X129023158Y-79833041D01*
X129027875Y-79827292D01*
X129029374Y-79825993D01*
X129030795Y-79823734D01*
X129032485Y-79821676D01*
X129033242Y-79819846D01*
X129037206Y-79813550D01*
X129075301Y-79737360D01*
X129075710Y-79736290D01*
X129076033Y-79735855D01*
X129078231Y-79729703D01*
X129080556Y-79723628D01*
X129080594Y-79723089D01*
X129080980Y-79722010D01*
X129108234Y-79612996D01*
X129239422Y-79612996D01*
X129239422Y-79642260D01*
X129250621Y-79669296D01*
X129271313Y-79689988D01*
X129298349Y-79701187D01*
X129312981Y-79702628D01*
X129352267Y-79702628D01*
X129352267Y-79894295D01*
X129353708Y-79908927D01*
X129364907Y-79935963D01*
X129385599Y-79956655D01*
X129412635Y-79967854D01*
X129441899Y-79967854D01*
X129468935Y-79956655D01*
X129489627Y-79935963D01*
X129500826Y-79908927D01*
X129502267Y-79894295D01*
X129502267Y-79702628D01*
X129808220Y-79702628D01*
X129815625Y-79701898D01*
X129817600Y-79702039D01*
X129819025Y-79701563D01*
X129822852Y-79701187D01*
X129833959Y-79696586D01*
X129845363Y-79692785D01*
X129847399Y-79691018D01*
X129849888Y-79689988D01*
X129858387Y-79681488D01*
X129867470Y-79673611D01*
X129868674Y-79671201D01*
X129870580Y-79669296D01*
X129875182Y-79658184D01*
X129880556Y-79647437D01*
X129880746Y-79644751D01*
X129881779Y-79642260D01*
X129881779Y-79630232D01*
X129882631Y-79618247D01*
X129881779Y-79614500D01*
X129881779Y-79612996D01*
X129881020Y-79611165D01*
X129879371Y-79603911D01*
X129760292Y-79246676D01*
X130037982Y-79246676D01*
X130037982Y-79322866D01*
X130038711Y-79330271D01*
X130038571Y-79332246D01*
X130039161Y-79334843D01*
X130039423Y-79337498D01*
X130040181Y-79339329D01*
X130041831Y-79346583D01*
X130079926Y-79460869D01*
X130085920Y-79474294D01*
X130087685Y-79476329D01*
X130088717Y-79478820D01*
X130098044Y-79490185D01*
X130427154Y-79819295D01*
X130112982Y-79819295D01*
X130098350Y-79820736D01*
X130071314Y-79831935D01*
X130050622Y-79852627D01*
X130039423Y-79879663D01*
X130039423Y-79908927D01*
X130050622Y-79935963D01*
X130071314Y-79956655D01*
X130098350Y-79967854D01*
X130112982Y-79969295D01*
X130608220Y-79969295D01*
X130622852Y-79967854D01*
X130649888Y-79956656D01*
X130670581Y-79935963D01*
X130681779Y-79908927D01*
X130681779Y-79879664D01*
X130681779Y-79879663D01*
X130801328Y-79879663D01*
X130801328Y-79908927D01*
X130812527Y-79935963D01*
X130833219Y-79956655D01*
X130860255Y-79967854D01*
X130874887Y-79969295D01*
X131332030Y-79969295D01*
X131346662Y-79967854D01*
X131373698Y-79956655D01*
X131394390Y-79935963D01*
X131405589Y-79908927D01*
X131405589Y-79879663D01*
X131394390Y-79852627D01*
X131373698Y-79831935D01*
X131346662Y-79820736D01*
X131332030Y-79819295D01*
X131178458Y-79819295D01*
X131178458Y-79399057D01*
X131561792Y-79399057D01*
X131561792Y-79589533D01*
X131562043Y-79592086D01*
X131561881Y-79593178D01*
X131562689Y-79598650D01*
X131563233Y-79604165D01*
X131563656Y-79605186D01*
X131564031Y-79607723D01*
X131602126Y-79760104D01*
X131602511Y-79761183D01*
X131602550Y-79761723D01*
X131604877Y-79767804D01*
X131607073Y-79773950D01*
X131607395Y-79774385D01*
X131607805Y-79775455D01*
X131645900Y-79851645D01*
X131649863Y-79857941D01*
X131650621Y-79859771D01*
X131652310Y-79861829D01*
X131653732Y-79864088D01*
X131655230Y-79865387D01*
X131659948Y-79871136D01*
X131698043Y-79909232D01*
X131703794Y-79913952D01*
X131705093Y-79915450D01*
X131707348Y-79916869D01*
X131709408Y-79918560D01*
X131711238Y-79919318D01*
X131717536Y-79923282D01*
X131793727Y-79961377D01*
X131807459Y-79966632D01*
X131810146Y-79966822D01*
X131812636Y-79967854D01*
X131827268Y-79969295D01*
X131903458Y-79969295D01*
X131918090Y-79967854D01*
X131920579Y-79966822D01*
X131923267Y-79966632D01*
X131936999Y-79961377D01*
X132013190Y-79923282D01*
X132019489Y-79919317D01*
X132021317Y-79918560D01*
X132023373Y-79916872D01*
X132025633Y-79915450D01*
X132026933Y-79913950D01*
X132032683Y-79909232D01*
X132070778Y-79871136D01*
X132075495Y-79865387D01*
X132076994Y-79864088D01*
X132078415Y-79861829D01*
X132080105Y-79859771D01*
X132080862Y-79857941D01*
X132084826Y-79851645D01*
X132122921Y-79775455D01*
X132123330Y-79774385D01*
X132123653Y-79773950D01*
X132125851Y-79767798D01*
X132128176Y-79761723D01*
X132128214Y-79761184D01*
X132128600Y-79760105D01*
X132166696Y-79607723D01*
X132167071Y-79605186D01*
X132167494Y-79604165D01*
X132168036Y-79598652D01*
X132168846Y-79593179D01*
X132168683Y-79592086D01*
X132168935Y-79589533D01*
X132168935Y-79399057D01*
X132168683Y-79396503D01*
X132168846Y-79395411D01*
X132168036Y-79389937D01*
X132167494Y-79384425D01*
X132167071Y-79383403D01*
X132166696Y-79380867D01*
X132128600Y-79228485D01*
X132128214Y-79227405D01*
X132128176Y-79226867D01*
X132125851Y-79220791D01*
X132123653Y-79214640D01*
X132123330Y-79214204D01*
X132122921Y-79213135D01*
X132084826Y-79136944D01*
X132080861Y-79130644D01*
X132080104Y-79128817D01*
X132078415Y-79126760D01*
X132076994Y-79124501D01*
X132075495Y-79123201D01*
X132070777Y-79117452D01*
X132032988Y-79079663D01*
X132325138Y-79079663D01*
X132325138Y-79108927D01*
X132336337Y-79135963D01*
X132357029Y-79156655D01*
X132384065Y-79167854D01*
X132398697Y-79169295D01*
X132704649Y-79169295D01*
X132704649Y-79400247D01*
X132512983Y-79400247D01*
X132498351Y-79401688D01*
X132471315Y-79412887D01*
X132450623Y-79433579D01*
X132439424Y-79460615D01*
X132439424Y-79489879D01*
X132450623Y-79516915D01*
X132471315Y-79537607D01*
X132498351Y-79548806D01*
X132512983Y-79550247D01*
X132704649Y-79550247D01*
X132704649Y-79819295D01*
X132398697Y-79819295D01*
X132384065Y-79820736D01*
X132357029Y-79831935D01*
X132336337Y-79852627D01*
X132325138Y-79879663D01*
X132325138Y-79908927D01*
X132336337Y-79935963D01*
X132357029Y-79956655D01*
X132384065Y-79967854D01*
X132398697Y-79969295D01*
X132779649Y-79969295D01*
X132794281Y-79967854D01*
X132821317Y-79956655D01*
X132842009Y-79935963D01*
X132853208Y-79908927D01*
X132854649Y-79894295D01*
X132854649Y-79879663D01*
X132972757Y-79879663D01*
X132972757Y-79908927D01*
X132983956Y-79935963D01*
X133004648Y-79956655D01*
X133031684Y-79967854D01*
X133046316Y-79969295D01*
X133427268Y-79969295D01*
X133441900Y-79967854D01*
X133468936Y-79956655D01*
X133489628Y-79935963D01*
X133500827Y-79908927D01*
X133502268Y-79894295D01*
X133502268Y-79094295D01*
X133500827Y-79079663D01*
X133696567Y-79079663D01*
X133696567Y-79108927D01*
X133707766Y-79135963D01*
X133728458Y-79156655D01*
X133755494Y-79167854D01*
X133770126Y-79169295D01*
X134076078Y-79169295D01*
X134076078Y-79400247D01*
X133884412Y-79400247D01*
X133869780Y-79401688D01*
X133842744Y-79412887D01*
X133822052Y-79433579D01*
X133810853Y-79460615D01*
X133810853Y-79489879D01*
X133822052Y-79516915D01*
X133842744Y-79537607D01*
X133869780Y-79548806D01*
X133884412Y-79550247D01*
X134076078Y-79550247D01*
X134076078Y-79819295D01*
X133770126Y-79819295D01*
X133755494Y-79820736D01*
X133728458Y-79831935D01*
X133707766Y-79852627D01*
X133696567Y-79879663D01*
X133696567Y-79908927D01*
X133707766Y-79935963D01*
X133728458Y-79956655D01*
X133755494Y-79967854D01*
X133770126Y-79969295D01*
X134151078Y-79969295D01*
X134165710Y-79967854D01*
X134192746Y-79956655D01*
X134213438Y-79935963D01*
X134224637Y-79908927D01*
X134226078Y-79894295D01*
X134226078Y-79094295D01*
X134224637Y-79079663D01*
X134213438Y-79052627D01*
X134192746Y-79031935D01*
X134165710Y-79020736D01*
X134151078Y-79019295D01*
X133770126Y-79019295D01*
X133755494Y-79020736D01*
X133728458Y-79031935D01*
X133707766Y-79052627D01*
X133696567Y-79079663D01*
X133500827Y-79079663D01*
X133489628Y-79052627D01*
X133468936Y-79031935D01*
X133441900Y-79020736D01*
X133412636Y-79020736D01*
X133385600Y-79031935D01*
X133364908Y-79052627D01*
X133353709Y-79079663D01*
X133352268Y-79094295D01*
X133352268Y-79819295D01*
X133046316Y-79819295D01*
X133031684Y-79820736D01*
X133004648Y-79831935D01*
X132983956Y-79852627D01*
X132972757Y-79879663D01*
X132854649Y-79879663D01*
X132854649Y-79094295D01*
X132853208Y-79079663D01*
X132842009Y-79052627D01*
X132821317Y-79031935D01*
X132794281Y-79020736D01*
X132779649Y-79019295D01*
X132398697Y-79019295D01*
X132384065Y-79020736D01*
X132357029Y-79031935D01*
X132336337Y-79052627D01*
X132325138Y-79079663D01*
X132032988Y-79079663D01*
X132032682Y-79079357D01*
X132026932Y-79074638D01*
X132025633Y-79073140D01*
X132023373Y-79071718D01*
X132021317Y-79070030D01*
X132019489Y-79069272D01*
X132013190Y-79065308D01*
X131936999Y-79027213D01*
X131923267Y-79021958D01*
X131920579Y-79021767D01*
X131918090Y-79020736D01*
X131903458Y-79019295D01*
X131827268Y-79019295D01*
X131812636Y-79020736D01*
X131810146Y-79021767D01*
X131807459Y-79021958D01*
X131793727Y-79027213D01*
X131717536Y-79065308D01*
X131711236Y-79069272D01*
X131709409Y-79070030D01*
X131707352Y-79071718D01*
X131705093Y-79073140D01*
X131703793Y-79074638D01*
X131698044Y-79079357D01*
X131659949Y-79117452D01*
X131655230Y-79123201D01*
X131653732Y-79124501D01*
X131652310Y-79126760D01*
X131650622Y-79128817D01*
X131649864Y-79130644D01*
X131645900Y-79136944D01*
X131607805Y-79213135D01*
X131607395Y-79214204D01*
X131607073Y-79214640D01*
X131604877Y-79220785D01*
X131602550Y-79226867D01*
X131602511Y-79227406D01*
X131602126Y-79228486D01*
X131564031Y-79380867D01*
X131563656Y-79383403D01*
X131563233Y-79384425D01*
X131562689Y-79389939D01*
X131561881Y-79395412D01*
X131562043Y-79396503D01*
X131561792Y-79399057D01*
X131178458Y-79399057D01*
X131178458Y-79313455D01*
X131202806Y-79337804D01*
X131208555Y-79342522D01*
X131209855Y-79344021D01*
X131212114Y-79345442D01*
X131214171Y-79347131D01*
X131215998Y-79347888D01*
X131222298Y-79351853D01*
X131298489Y-79389948D01*
X131312221Y-79395203D01*
X131341411Y-79397277D01*
X131369172Y-79388023D01*
X131391280Y-79368850D01*
X131404367Y-79342675D01*
X131406441Y-79313485D01*
X131397187Y-79285724D01*
X131378014Y-79263616D01*
X131365571Y-79255784D01*
X131300266Y-79223131D01*
X131237934Y-79160800D01*
X131165862Y-79052692D01*
X131165827Y-79052649D01*
X131165818Y-79052627D01*
X131165766Y-79052575D01*
X131156546Y-79041317D01*
X131150376Y-79037185D01*
X131145126Y-79031935D01*
X131138336Y-79029122D01*
X131132231Y-79025034D01*
X131124950Y-79023577D01*
X131118090Y-79020736D01*
X131110741Y-79020736D01*
X131103536Y-79019295D01*
X131096252Y-79020736D01*
X131088826Y-79020736D01*
X131082037Y-79023547D01*
X131074829Y-79024974D01*
X131068650Y-79029093D01*
X131061790Y-79031935D01*
X131056594Y-79037130D01*
X131050480Y-79041207D01*
X131046348Y-79047376D01*
X131041098Y-79052627D01*
X131038285Y-79059416D01*
X131034197Y-79065522D01*
X131032740Y-79072802D01*
X131029899Y-79079663D01*
X131028473Y-79094141D01*
X131028458Y-79094217D01*
X131028463Y-79094242D01*
X131028458Y-79094295D01*
X131028458Y-79819295D01*
X130874887Y-79819295D01*
X130860255Y-79820736D01*
X130833219Y-79831935D01*
X130812527Y-79852627D01*
X130801328Y-79879663D01*
X130681779Y-79879663D01*
X130680822Y-79877354D01*
X130675946Y-79865581D01*
X130670581Y-79852627D01*
X130661253Y-79841262D01*
X130216629Y-79396638D01*
X130187982Y-79310696D01*
X130187982Y-79264380D01*
X130212716Y-79214911D01*
X130233598Y-79194029D01*
X130283068Y-79169295D01*
X130438134Y-79169295D01*
X130487602Y-79194029D01*
X130517093Y-79223519D01*
X130528458Y-79232846D01*
X130555494Y-79244044D01*
X130584757Y-79244044D01*
X130611793Y-79232845D01*
X130632486Y-79212152D01*
X130643684Y-79185115D01*
X130643684Y-79155852D01*
X130632485Y-79128816D01*
X130623157Y-79117451D01*
X130585061Y-79079356D01*
X130579312Y-79074638D01*
X130578013Y-79073140D01*
X130575754Y-79071718D01*
X130573696Y-79070029D01*
X130571866Y-79069271D01*
X130565570Y-79065308D01*
X130489380Y-79027213D01*
X130475648Y-79021958D01*
X130472960Y-79021767D01*
X130470471Y-79020736D01*
X130455839Y-79019295D01*
X130265363Y-79019295D01*
X130250731Y-79020736D01*
X130248241Y-79021767D01*
X130245554Y-79021958D01*
X130231822Y-79027213D01*
X130155631Y-79065308D01*
X130149331Y-79069272D01*
X130147504Y-79070030D01*
X130145447Y-79071718D01*
X130143188Y-79073140D01*
X130141888Y-79074638D01*
X130136139Y-79079357D01*
X130098044Y-79117452D01*
X130093325Y-79123201D01*
X130091827Y-79124501D01*
X130090405Y-79126760D01*
X130088717Y-79128817D01*
X130087959Y-79130644D01*
X130083995Y-79136944D01*
X130045900Y-79213135D01*
X130040645Y-79226867D01*
X130040454Y-79229554D01*
X130039423Y-79232044D01*
X130037982Y-79246676D01*
X129760292Y-79246676D01*
X129688894Y-79032483D01*
X129682900Y-79019057D01*
X129663726Y-78996950D01*
X129637553Y-78983863D01*
X129608363Y-78981789D01*
X129580600Y-78991043D01*
X129558493Y-79010217D01*
X129545406Y-79036390D01*
X129543332Y-79065580D01*
X129546592Y-79079917D01*
X129704163Y-79552628D01*
X129502267Y-79552628D01*
X129502267Y-79360961D01*
X129500826Y-79346329D01*
X129489627Y-79319293D01*
X129468935Y-79298601D01*
X129441899Y-79287402D01*
X129412635Y-79287402D01*
X129385599Y-79298601D01*
X129364907Y-79319293D01*
X129353708Y-79346329D01*
X129352267Y-79360961D01*
X129352267Y-79552628D01*
X129312981Y-79552628D01*
X129298349Y-79554069D01*
X129271313Y-79565268D01*
X129250621Y-79585960D01*
X129239422Y-79612996D01*
X129108234Y-79612996D01*
X129119076Y-79569628D01*
X129119451Y-79567091D01*
X129119874Y-79566070D01*
X129120416Y-79560557D01*
X129121226Y-79555084D01*
X129121063Y-79553991D01*
X129121315Y-79551438D01*
X129121315Y-79437152D01*
X129121063Y-79434598D01*
X129121226Y-79433506D01*
X129120416Y-79428032D01*
X129119874Y-79422520D01*
X129119451Y-79421498D01*
X129119076Y-79418962D01*
X129080980Y-79266580D01*
X129080594Y-79265500D01*
X129080556Y-79264962D01*
X129078231Y-79258886D01*
X129076033Y-79252735D01*
X129075710Y-79252299D01*
X129075301Y-79251230D01*
X129037206Y-79175039D01*
X129033243Y-79168744D01*
X129032485Y-79166912D01*
X129030793Y-79164850D01*
X129029374Y-79162596D01*
X129027877Y-79161297D01*
X129023157Y-79155547D01*
X128946967Y-79079357D01*
X128935602Y-79070030D01*
X128933111Y-79068998D01*
X128931076Y-79067233D01*
X128917651Y-79061239D01*
X128803365Y-79023144D01*
X128796111Y-79021494D01*
X128794280Y-79020736D01*
X128791625Y-79020474D01*
X128789028Y-79019884D01*
X128787053Y-79020024D01*
X128779648Y-79019295D01*
X128703457Y-79019295D01*
X128696051Y-79020024D01*
X128694077Y-79019884D01*
X128691479Y-79020474D01*
X128688825Y-79020736D01*
X128686993Y-79021494D01*
X128679740Y-79023144D01*
X128565455Y-79061239D01*
X128552029Y-79067233D01*
X128549993Y-79068998D01*
X128547505Y-79070029D01*
X128536140Y-79079356D01*
X128498044Y-79117451D01*
X128488716Y-79128817D01*
X128477517Y-79155853D01*
X128283219Y-79155853D01*
X128283219Y-79094295D01*
X128281778Y-79079663D01*
X128270579Y-79052627D01*
X128249887Y-79031935D01*
X128222851Y-79020736D01*
X128193587Y-79020736D01*
X128166551Y-79031935D01*
X128145859Y-79052627D01*
X128134660Y-79079663D01*
X128133219Y-79094295D01*
X128133219Y-79819295D01*
X127827267Y-79819295D01*
X127812635Y-79820736D01*
X127785599Y-79831935D01*
X127764907Y-79852627D01*
X127753708Y-79879663D01*
X127664819Y-79879663D01*
X127664819Y-78892900D01*
X134314967Y-78892900D01*
X134314967Y-80058184D01*
G37*
D11*
%TO.C,G\u002A\u002A\u002A*%
G36*
X132002632Y-68602018D02*
G01*
X132304890Y-68677217D01*
X132680406Y-68795448D01*
X133037170Y-68937571D01*
X133377272Y-69104638D01*
X133702804Y-69297700D01*
X134015854Y-69517806D01*
X134318514Y-69766007D01*
X134456223Y-69892037D01*
X134727250Y-70171138D01*
X134974298Y-70469725D01*
X135196656Y-70786409D01*
X135393610Y-71119803D01*
X135564449Y-71468520D01*
X135708460Y-71831171D01*
X135824932Y-72206369D01*
X135913152Y-72592726D01*
X135972408Y-72988854D01*
X135974416Y-73008240D01*
X135981845Y-73109964D01*
X135987080Y-73233695D01*
X135990121Y-73371807D01*
X135990967Y-73516673D01*
X135989619Y-73660666D01*
X135986076Y-73796160D01*
X135980339Y-73915529D01*
X135972408Y-74011145D01*
X135916092Y-74393923D01*
X135828798Y-74783253D01*
X135712512Y-75160522D01*
X135567154Y-75525988D01*
X135392643Y-75879913D01*
X135261446Y-76107324D01*
X135043033Y-76434911D01*
X134801552Y-76742209D01*
X134538302Y-77028213D01*
X134254584Y-77291919D01*
X133951699Y-77532322D01*
X133630949Y-77748418D01*
X133293632Y-77939201D01*
X132941050Y-78103667D01*
X132574504Y-78240811D01*
X132195294Y-78349630D01*
X132159821Y-78358307D01*
X132080077Y-78377733D01*
X132011951Y-78394219D01*
X131961752Y-78406242D01*
X131935790Y-78412279D01*
X131916358Y-78416349D01*
X131892350Y-78420900D01*
X131892000Y-78420701D01*
X131889462Y-78402213D01*
X131887337Y-78356127D01*
X131885669Y-78285861D01*
X131884504Y-78194836D01*
X131883889Y-78086470D01*
X131883867Y-77964184D01*
X131884486Y-77831396D01*
X131888607Y-77240068D01*
X132073428Y-77186945D01*
X132357784Y-77092492D01*
X132666206Y-76959762D01*
X132960617Y-76800673D01*
X133239436Y-76616859D01*
X133501083Y-76409953D01*
X133743978Y-76181590D01*
X133966540Y-75933403D01*
X134167188Y-75667026D01*
X134344343Y-75384092D01*
X134496423Y-75086236D01*
X134621848Y-74775090D01*
X134719037Y-74452289D01*
X134743140Y-74353457D01*
X134773383Y-74214666D01*
X134796008Y-74085382D01*
X134811960Y-73957439D01*
X134822185Y-73822672D01*
X134827627Y-73672914D01*
X134829231Y-73500000D01*
X134828581Y-73384922D01*
X134824599Y-73227940D01*
X134816166Y-73088825D01*
X134802339Y-72959410D01*
X134782171Y-72831530D01*
X134754719Y-72697019D01*
X134719037Y-72547711D01*
X134658165Y-72333827D01*
X134542039Y-72018934D01*
X134398214Y-71715519D01*
X134228313Y-71425613D01*
X134033957Y-71151247D01*
X133816767Y-70894455D01*
X133578365Y-70657266D01*
X133320373Y-70441712D01*
X133044413Y-70249826D01*
X132752106Y-70083638D01*
X132644659Y-70031302D01*
X132499153Y-69966396D01*
X132351677Y-69906438D01*
X132211810Y-69855284D01*
X132089133Y-69816791D01*
X131959381Y-69780660D01*
X131959381Y-69186532D01*
X131959381Y-68592404D01*
X132002632Y-68602018D01*
G37*
G36*
X129840489Y-68640609D02*
G01*
X129843106Y-68660051D01*
X129845507Y-68707026D01*
X129847624Y-68778110D01*
X129849388Y-68869880D01*
X129850732Y-68978913D01*
X129851588Y-69101787D01*
X129851889Y-69235078D01*
X129851889Y-69829971D01*
X129690681Y-69888961D01*
X129665066Y-69898439D01*
X129351335Y-70032154D01*
X129052517Y-70192242D01*
X128770109Y-70377055D01*
X128505605Y-70584943D01*
X128260500Y-70814257D01*
X128036289Y-71063347D01*
X127834467Y-71330563D01*
X127656528Y-71614257D01*
X127503968Y-71912780D01*
X127378282Y-72224481D01*
X127280963Y-72547711D01*
X127256861Y-72646543D01*
X127226618Y-72785334D01*
X127203993Y-72914617D01*
X127188040Y-73042560D01*
X127177815Y-73177328D01*
X127172373Y-73327086D01*
X127170769Y-73500000D01*
X127171419Y-73615078D01*
X127175402Y-73772059D01*
X127183834Y-73911175D01*
X127197662Y-74040590D01*
X127217829Y-74168470D01*
X127245281Y-74302981D01*
X127280963Y-74452289D01*
X127332603Y-74636836D01*
X127446130Y-74953118D01*
X127587320Y-75257469D01*
X127754613Y-75548087D01*
X127946449Y-75823170D01*
X128161269Y-76080915D01*
X128397513Y-76319520D01*
X128653622Y-76537182D01*
X128928037Y-76732099D01*
X129219196Y-76902467D01*
X129525542Y-77046485D01*
X129631703Y-77090601D01*
X129631703Y-77693752D01*
X129631701Y-77713265D01*
X129631535Y-77865485D01*
X129631018Y-77989359D01*
X129630044Y-78087675D01*
X129628508Y-78163218D01*
X129626302Y-78218777D01*
X129623320Y-78257138D01*
X129619455Y-78281088D01*
X129614601Y-78293414D01*
X129608652Y-78296904D01*
X129600979Y-78295780D01*
X129565716Y-78286395D01*
X129510053Y-78269227D01*
X129440231Y-78246380D01*
X129362490Y-78219958D01*
X129283070Y-78192064D01*
X129208209Y-78164803D01*
X129144149Y-78140279D01*
X128924280Y-78046047D01*
X128606710Y-77885798D01*
X128296978Y-77701447D01*
X128001994Y-77497208D01*
X127728669Y-77277293D01*
X127566927Y-77130466D01*
X127289958Y-76846840D01*
X127038124Y-76544885D01*
X126812003Y-76225711D01*
X126612173Y-75890426D01*
X126439211Y-75540139D01*
X126293695Y-75175959D01*
X126176201Y-74798994D01*
X126087308Y-74410353D01*
X126027593Y-74011145D01*
X126025584Y-73991760D01*
X126018155Y-73890036D01*
X126012920Y-73766304D01*
X126009880Y-73628193D01*
X126009034Y-73483327D01*
X126010382Y-73339334D01*
X126013925Y-73203840D01*
X126019661Y-73084471D01*
X126027593Y-72988854D01*
X126082900Y-72612913D01*
X126170251Y-72222558D01*
X126286639Y-71843383D01*
X126431747Y-71476290D01*
X126605256Y-71122177D01*
X126806850Y-70781944D01*
X126866765Y-70691564D01*
X127099551Y-70376258D01*
X127355409Y-70081437D01*
X127632799Y-69808231D01*
X127930183Y-69557767D01*
X128246022Y-69331176D01*
X128578778Y-69129587D01*
X128926912Y-68954128D01*
X129288885Y-68805928D01*
X129663158Y-68686117D01*
X129718806Y-68670883D01*
X129778289Y-68655070D01*
X129820963Y-68644287D01*
X129840093Y-68640278D01*
X129840489Y-68640609D01*
G37*
G36*
X131366531Y-68337858D02*
G01*
X131385941Y-68352018D01*
X131399317Y-68388545D01*
X131401389Y-68395638D01*
X131414578Y-68432359D01*
X131425652Y-68451455D01*
X131426025Y-68451928D01*
X131433428Y-68471861D01*
X131448140Y-68518136D01*
X131469160Y-68587248D01*
X131495486Y-68675691D01*
X131526117Y-68779960D01*
X131560053Y-68896551D01*
X131596291Y-69021957D01*
X131633831Y-69152674D01*
X131671671Y-69285197D01*
X131708810Y-69416019D01*
X131744247Y-69541636D01*
X131776980Y-69658543D01*
X131806009Y-69763234D01*
X131830332Y-69852205D01*
X131848947Y-69921949D01*
X131860854Y-69968962D01*
X131865052Y-69989738D01*
X131865078Y-69990053D01*
X131869986Y-70010091D01*
X131883071Y-70058668D01*
X131903886Y-70134203D01*
X131931984Y-70235117D01*
X131966919Y-70359829D01*
X132008244Y-70506759D01*
X132055512Y-70674329D01*
X132108276Y-70860957D01*
X132166091Y-71065064D01*
X132228509Y-71285070D01*
X132295084Y-71519396D01*
X132365369Y-71766460D01*
X132438917Y-72024684D01*
X132515283Y-72292488D01*
X132594018Y-72568290D01*
X133322948Y-75120234D01*
X133195561Y-75051878D01*
X133090327Y-74995626D01*
X132968040Y-74930644D01*
X132832181Y-74858761D01*
X132685051Y-74781174D01*
X132528951Y-74699081D01*
X132366180Y-74613678D01*
X132199040Y-74526161D01*
X132029832Y-74437729D01*
X131860855Y-74349578D01*
X131694410Y-74262904D01*
X131532798Y-74178904D01*
X131378320Y-74098776D01*
X131233276Y-74023717D01*
X131099966Y-73954922D01*
X130980692Y-73893590D01*
X130877754Y-73840917D01*
X130793452Y-73798099D01*
X130730087Y-73766334D01*
X130689959Y-73746819D01*
X130675370Y-73740750D01*
X130675781Y-73751482D01*
X130680293Y-73790760D01*
X130688872Y-73856227D01*
X130701109Y-73945156D01*
X130716594Y-74054822D01*
X130734918Y-74182501D01*
X130755673Y-74325466D01*
X130778450Y-74480992D01*
X130802840Y-74646354D01*
X130828433Y-74818827D01*
X130854821Y-74995685D01*
X130881595Y-75174203D01*
X130908345Y-75351655D01*
X130934664Y-75525317D01*
X130960142Y-75692462D01*
X130984369Y-75850365D01*
X131006938Y-75996302D01*
X131027439Y-76127546D01*
X131045463Y-76241373D01*
X131060601Y-76335056D01*
X131072444Y-76405871D01*
X131080584Y-76451093D01*
X131084610Y-76467995D01*
X131084700Y-76468069D01*
X131103092Y-76469651D01*
X131148606Y-76469576D01*
X131217084Y-76467967D01*
X131304368Y-76464947D01*
X131406301Y-76460640D01*
X131518724Y-76455168D01*
X131523897Y-76454901D01*
X131635329Y-76449562D01*
X131735560Y-76445510D01*
X131820551Y-76442848D01*
X131886259Y-76441681D01*
X131928646Y-76442111D01*
X131943670Y-76444242D01*
X131940733Y-76453598D01*
X131927196Y-76488065D01*
X131904558Y-76542781D01*
X131874914Y-76612700D01*
X131840363Y-76692776D01*
X131817053Y-76746814D01*
X131784446Y-76824041D01*
X131757717Y-76889337D01*
X131739147Y-76937090D01*
X131731018Y-76961689D01*
X131725755Y-76976452D01*
X131708805Y-77018378D01*
X131681316Y-77084241D01*
X131644424Y-77171390D01*
X131599259Y-77277171D01*
X131546957Y-77398932D01*
X131488649Y-77534022D01*
X131425469Y-77679786D01*
X131358551Y-77833572D01*
X131271719Y-78031954D01*
X131195064Y-78205348D01*
X131129917Y-78350667D01*
X131076043Y-78468418D01*
X131033205Y-78559112D01*
X131001167Y-78623256D01*
X130979692Y-78661360D01*
X130968545Y-78673932D01*
X130958204Y-78663628D01*
X130931026Y-78630175D01*
X130889089Y-78576026D01*
X130834253Y-78503732D01*
X130768379Y-78415846D01*
X130693327Y-78314920D01*
X130610957Y-78203505D01*
X130523129Y-78084153D01*
X130431704Y-77959418D01*
X130338541Y-77831851D01*
X130245502Y-77704003D01*
X130154445Y-77578428D01*
X130067232Y-77457677D01*
X129985723Y-77344302D01*
X129911777Y-77240855D01*
X129847256Y-77149889D01*
X129794019Y-77073955D01*
X129753926Y-77015606D01*
X129728838Y-76977394D01*
X129720615Y-76961870D01*
X129712794Y-76947004D01*
X129689205Y-76910833D01*
X129652688Y-76857552D01*
X129606092Y-76791317D01*
X129552266Y-76716285D01*
X129381505Y-76480371D01*
X129746449Y-76470674D01*
X129779832Y-76469798D01*
X129898153Y-76466837D01*
X130015705Y-76464097D01*
X130124819Y-76461746D01*
X130217827Y-76459951D01*
X130287061Y-76458879D01*
X130462728Y-76456780D01*
X130448404Y-76405665D01*
X130442308Y-76385317D01*
X130427465Y-76336531D01*
X130404424Y-76261098D01*
X130373711Y-76160738D01*
X130335855Y-76037172D01*
X130291383Y-75892117D01*
X130240822Y-75727295D01*
X130184701Y-75544424D01*
X130123547Y-75345225D01*
X130057887Y-75131417D01*
X129988250Y-74904720D01*
X129915163Y-74666853D01*
X129839153Y-74419536D01*
X129760748Y-74164489D01*
X129758800Y-74158152D01*
X129680774Y-73904294D01*
X129605368Y-73658825D01*
X129533093Y-73423413D01*
X129464458Y-73199723D01*
X129399974Y-72989425D01*
X129340151Y-72794185D01*
X129285499Y-72615670D01*
X129236529Y-72455548D01*
X129193750Y-72315486D01*
X129157672Y-72197151D01*
X129128807Y-72102210D01*
X129107663Y-72032331D01*
X129094752Y-71989181D01*
X129090584Y-71974427D01*
X129091174Y-71974628D01*
X129108724Y-71984353D01*
X129145176Y-72005778D01*
X129193656Y-72034871D01*
X129232757Y-72058398D01*
X129300959Y-72099154D01*
X129388682Y-72151371D01*
X129493599Y-72213676D01*
X129613378Y-72284694D01*
X129745690Y-72363051D01*
X129888206Y-72447372D01*
X130038597Y-72536285D01*
X130194532Y-72628413D01*
X130353683Y-72722384D01*
X130513719Y-72816822D01*
X130672311Y-72910354D01*
X130827130Y-73001606D01*
X130975846Y-73089203D01*
X131116130Y-73171772D01*
X131245652Y-73247937D01*
X131362083Y-73316325D01*
X131463092Y-73375562D01*
X131546352Y-73424273D01*
X131609531Y-73461084D01*
X131650300Y-73484621D01*
X131666331Y-73493510D01*
X131671407Y-73494179D01*
X131675700Y-73483673D01*
X131670769Y-73454191D01*
X131655881Y-73402289D01*
X131630301Y-73324524D01*
X131610032Y-73265272D01*
X131579147Y-73175891D01*
X131540759Y-73065469D01*
X131495683Y-72936312D01*
X131444733Y-72790726D01*
X131388725Y-72631016D01*
X131328474Y-72459488D01*
X131264794Y-72278446D01*
X131198499Y-72090196D01*
X131130405Y-71897043D01*
X131061327Y-71701294D01*
X130992078Y-71505253D01*
X130923475Y-71311225D01*
X130856332Y-71121517D01*
X130791463Y-70938433D01*
X130729683Y-70764279D01*
X130671808Y-70601360D01*
X130618651Y-70451981D01*
X130571028Y-70318449D01*
X130529753Y-70203068D01*
X130495642Y-70108143D01*
X130469509Y-70035981D01*
X130452168Y-69988886D01*
X130444435Y-69969164D01*
X130435064Y-69947344D01*
X130416229Y-69898516D01*
X130390071Y-69827883D01*
X130357781Y-69738874D01*
X130320554Y-69634919D01*
X130279581Y-69519445D01*
X130236056Y-69395881D01*
X130191170Y-69267657D01*
X130146118Y-69138202D01*
X130102091Y-69010942D01*
X130060283Y-68889309D01*
X130021886Y-68776730D01*
X129988092Y-68676634D01*
X129960095Y-68592449D01*
X129939088Y-68527606D01*
X129926262Y-68485531D01*
X129922811Y-68469655D01*
X129922998Y-68469498D01*
X129942390Y-68465253D01*
X129986539Y-68460076D01*
X130049072Y-68454606D01*
X130123614Y-68449483D01*
X130131206Y-68449011D01*
X130201406Y-68443933D01*
X130295939Y-68436207D01*
X130408711Y-68426375D01*
X130533632Y-68414980D01*
X130664606Y-68402564D01*
X130795542Y-68389669D01*
X130839125Y-68385296D01*
X130958982Y-68373329D01*
X131069424Y-68362392D01*
X131166073Y-68352910D01*
X131244554Y-68345313D01*
X131300492Y-68340027D01*
X131329510Y-68337480D01*
X131366531Y-68337858D01*
G37*
%TD*%
M02*
