%TF.GenerationSoftware,KiCad,Pcbnew,8.0.4*%
%TF.CreationDate,2024-08-09T00:15:22+02:00*%
%TF.ProjectId,ELE0124CL_control,454c4530-3132-4344-934c-5f636f6e7472,rev?*%
%TF.SameCoordinates,Original*%
%TF.FileFunction,Soldermask,Bot*%
%TF.FilePolarity,Negative*%
%FSLAX46Y46*%
G04 Gerber Fmt 4.6, Leading zero omitted, Abs format (unit mm)*
G04 Created by KiCad (PCBNEW 8.0.4) date 2024-08-09 00:15:22*
%MOMM*%
%LPD*%
G01*
G04 APERTURE LIST*
G04 Aperture macros list*
%AMRoundRect*
0 Rectangle with rounded corners*
0 $1 Rounding radius*
0 $2 $3 $4 $5 $6 $7 $8 $9 X,Y pos of 4 corners*
0 Add a 4 corners polygon primitive as box body*
4,1,4,$2,$3,$4,$5,$6,$7,$8,$9,$2,$3,0*
0 Add four circle primitives for the rounded corners*
1,1,$1+$1,$2,$3*
1,1,$1+$1,$4,$5*
1,1,$1+$1,$6,$7*
1,1,$1+$1,$8,$9*
0 Add four rect primitives between the rounded corners*
20,1,$1+$1,$2,$3,$4,$5,0*
20,1,$1+$1,$4,$5,$6,$7,0*
20,1,$1+$1,$6,$7,$8,$9,0*
20,1,$1+$1,$8,$9,$2,$3,0*%
G04 Aperture macros list end*
%ADD10C,1.200000*%
%ADD11C,8.600000*%
%ADD12RoundRect,0.043333X-0.606667X0.706667X-0.606667X-0.706667X0.606667X-0.706667X0.606667X0.706667X0*%
%ADD13O,1.300000X1.500000*%
%ADD14RoundRect,0.052941X0.847059X-0.947059X0.847059X0.947059X-0.847059X0.947059X-0.847059X-0.947059X0*%
%ADD15O,1.800000X2.000000*%
G04 APERTURE END LIST*
D10*
%TO.C,REF\u002A\u002A*%
X149775000Y-93000000D03*
X150719581Y-90719581D03*
X150719581Y-95280419D03*
X153000000Y-89775000D03*
D11*
X153000000Y-93000000D03*
D10*
X153000000Y-96225000D03*
X155280419Y-90719581D03*
X155280419Y-95280419D03*
X156225000Y-93000000D03*
%TD*%
%TO.C,REF\u002A\u002A*%
X149775000Y-54000000D03*
X150719581Y-51719581D03*
X150719581Y-56280419D03*
X153000000Y-50775000D03*
D11*
X153000000Y-54000000D03*
D10*
X153000000Y-57225000D03*
X155280419Y-51719581D03*
X155280419Y-56280419D03*
X156225000Y-54000000D03*
%TD*%
%TO.C,REF\u002A\u002A*%
X105775000Y-93000000D03*
X106719581Y-90719581D03*
X106719581Y-95280419D03*
X109000000Y-89775000D03*
D11*
X109000000Y-93000000D03*
D10*
X109000000Y-96225000D03*
X111280419Y-90719581D03*
X111280419Y-95280419D03*
X112225000Y-93000000D03*
%TD*%
%TO.C,REF\u002A\u002A*%
X105775000Y-54000000D03*
X106719581Y-51719581D03*
X106719581Y-56280419D03*
X109000000Y-50775000D03*
D11*
X109000000Y-54000000D03*
D10*
X109000000Y-57225000D03*
X111280419Y-51719581D03*
X111280419Y-56280419D03*
X112225000Y-54000000D03*
%TD*%
D12*
%TO.C,J2*%
X143000000Y-51000000D03*
D13*
X143000000Y-53000000D03*
X141000000Y-51000000D03*
X141000000Y-53000000D03*
X139000000Y-51000000D03*
X139000000Y-53000000D03*
X137000000Y-51000000D03*
X137000000Y-53000000D03*
X135000000Y-51000000D03*
X135000000Y-53000000D03*
X133000000Y-51000000D03*
X133000000Y-53000000D03*
X131000000Y-51000000D03*
X131000000Y-53000000D03*
X129000000Y-51000000D03*
X129000000Y-53000000D03*
%TD*%
D14*
%TO.C,J1*%
X109900000Y-85100000D03*
D15*
X112440000Y-85100000D03*
X114980000Y-85100000D03*
X117520000Y-85100000D03*
X120060000Y-85100000D03*
X122600000Y-85100000D03*
X125140000Y-85100000D03*
X127680000Y-85100000D03*
X130220000Y-85100000D03*
X132760000Y-85100000D03*
X135300000Y-85100000D03*
X137840000Y-85100000D03*
X140380000Y-85100000D03*
X142920000Y-85100000D03*
X145460000Y-85100000D03*
X148000000Y-85100000D03*
%TD*%
D14*
%TO.C,J3*%
X109900000Y-62100000D03*
D15*
X112440000Y-62100000D03*
X114980000Y-62100000D03*
X117520000Y-62100000D03*
X120060000Y-62100000D03*
X122600000Y-62100000D03*
X125140000Y-62100000D03*
X127680000Y-62100000D03*
X130220000Y-62100000D03*
X132760000Y-62100000D03*
X135300000Y-62100000D03*
X137840000Y-62100000D03*
X140380000Y-62100000D03*
X142920000Y-62100000D03*
X145460000Y-62100000D03*
X148000000Y-62100000D03*
%TD*%
M02*
