%TF.GenerationSoftware,KiCad,Pcbnew,8.0.4*%
%TF.CreationDate,2024-08-09T00:15:22+02:00*%
%TF.ProjectId,ELE0124CL_control,454c4530-3132-4344-934c-5f636f6e7472,rev?*%
%TF.SameCoordinates,Original*%
%TF.FileFunction,Legend,Top*%
%TF.FilePolarity,Positive*%
%FSLAX46Y46*%
G04 Gerber Fmt 4.6, Leading zero omitted, Abs format (unit mm)*
G04 Created by KiCad (PCBNEW 8.0.4) date 2024-08-09 00:15:22*
%MOMM*%
%LPD*%
G01*
G04 APERTURE LIST*
%ADD10C,0.150000*%
%ADD11C,0.120000*%
G04 APERTURE END LIST*
D10*
X152000000Y-64000000D02*
X158000000Y-64000000D01*
X158000000Y-71000000D01*
X152000000Y-71000000D01*
X152000000Y-64000000D01*
X109000000Y-65000000D02*
X126000000Y-65000000D01*
X126000000Y-82000000D01*
X109000000Y-82000000D01*
X109000000Y-65000000D01*
X104000000Y-60600000D02*
X158000000Y-60600000D01*
X158000000Y-86600000D01*
X104000000Y-86600000D01*
X104000000Y-60600000D01*
X152000000Y-76000000D02*
X158000000Y-76000000D01*
X158000000Y-83000000D01*
X152000000Y-83000000D01*
X152000000Y-76000000D01*
G36*
X140025685Y-56294029D02*
G01*
X140078580Y-56346923D01*
X140109398Y-56470194D01*
X140109398Y-56718394D01*
X140078580Y-56841665D01*
X140025685Y-56894561D01*
X139976217Y-56919295D01*
X139859246Y-56919295D01*
X139809777Y-56894560D01*
X139756882Y-56841665D01*
X139726064Y-56718392D01*
X139726064Y-56470196D01*
X139756882Y-56346923D01*
X139809776Y-56294029D01*
X139859246Y-56269295D01*
X139976217Y-56269295D01*
X140025685Y-56294029D01*
G37*
G36*
X142501876Y-56294029D02*
G01*
X142522759Y-56314912D01*
X142547494Y-56364381D01*
X142547494Y-56443255D01*
X142522759Y-56492724D01*
X142501876Y-56513608D01*
X142452408Y-56538342D01*
X142240351Y-56538342D01*
X142240351Y-56269295D01*
X142452408Y-56269295D01*
X142501876Y-56294029D01*
G37*
G36*
X139225685Y-56294029D02*
G01*
X139246568Y-56314912D01*
X139271303Y-56364381D01*
X139271303Y-56443255D01*
X139246568Y-56492724D01*
X139225685Y-56513608D01*
X139176217Y-56538342D01*
X138964160Y-56538342D01*
X138964160Y-56269295D01*
X139176217Y-56269295D01*
X139225685Y-56294029D01*
G37*
G36*
X146062462Y-57158184D02*
G01*
X138725271Y-57158184D01*
X138725271Y-56194295D01*
X138814160Y-56194295D01*
X138814160Y-56994295D01*
X138815601Y-57008927D01*
X138826800Y-57035963D01*
X138847492Y-57056655D01*
X138874528Y-57067854D01*
X138903792Y-57067854D01*
X138930828Y-57056655D01*
X138951520Y-57035963D01*
X138962719Y-57008927D01*
X138964160Y-56994295D01*
X138964160Y-56688342D01*
X139193922Y-56688342D01*
X139208554Y-56686901D01*
X139211043Y-56685869D01*
X139213731Y-56685679D01*
X139227463Y-56680424D01*
X139303653Y-56642329D01*
X139309952Y-56638364D01*
X139311780Y-56637607D01*
X139313836Y-56635918D01*
X139316096Y-56634497D01*
X139317395Y-56632998D01*
X139323145Y-56628280D01*
X139361240Y-56590185D01*
X139365960Y-56584432D01*
X139367456Y-56583136D01*
X139368875Y-56580881D01*
X139370567Y-56578820D01*
X139371325Y-56576989D01*
X139375289Y-56570693D01*
X139413385Y-56494503D01*
X139418640Y-56480771D01*
X139418831Y-56478081D01*
X139419862Y-56475593D01*
X139421303Y-56460961D01*
X139576064Y-56460961D01*
X139576064Y-56727628D01*
X139576315Y-56730181D01*
X139576153Y-56731274D01*
X139576962Y-56736748D01*
X139577505Y-56742260D01*
X139577927Y-56743280D01*
X139578303Y-56745819D01*
X139616399Y-56898200D01*
X139621346Y-56912045D01*
X139624665Y-56916525D01*
X139626799Y-56921676D01*
X139636127Y-56933042D01*
X139712317Y-57009233D01*
X139718066Y-57013951D01*
X139719366Y-57015450D01*
X139721625Y-57016871D01*
X139723682Y-57018560D01*
X139725509Y-57019317D01*
X139731809Y-57023282D01*
X139808000Y-57061377D01*
X139821732Y-57066632D01*
X139824419Y-57066822D01*
X139826909Y-57067854D01*
X139841541Y-57069295D01*
X139993922Y-57069295D01*
X140008554Y-57067854D01*
X140011043Y-57066822D01*
X140013731Y-57066632D01*
X140027463Y-57061377D01*
X140103653Y-57023282D01*
X140109952Y-57019317D01*
X140111780Y-57018560D01*
X140113836Y-57016871D01*
X140116096Y-57015450D01*
X140117395Y-57013951D01*
X140123145Y-57009233D01*
X140199336Y-56933042D01*
X140208663Y-56921677D01*
X140210796Y-56916525D01*
X140214117Y-56912045D01*
X140219064Y-56898199D01*
X140257159Y-56745818D01*
X140257534Y-56743280D01*
X140257957Y-56742260D01*
X140258498Y-56736757D01*
X140259310Y-56731273D01*
X140259146Y-56730177D01*
X140259398Y-56727628D01*
X140259398Y-56460961D01*
X140259146Y-56458411D01*
X140259310Y-56457316D01*
X140258498Y-56451831D01*
X140257957Y-56446329D01*
X140257534Y-56445308D01*
X140257159Y-56442771D01*
X140219064Y-56290390D01*
X140214117Y-56276544D01*
X140210796Y-56272063D01*
X140208663Y-56266912D01*
X140199336Y-56255547D01*
X140140887Y-56197099D01*
X140376116Y-56197099D01*
X140378104Y-56211667D01*
X140568580Y-57011666D01*
X140570309Y-57016685D01*
X140570549Y-57018488D01*
X140571491Y-57020116D01*
X140573370Y-57025567D01*
X140579756Y-57034391D01*
X140585211Y-57043813D01*
X140588268Y-57046153D01*
X140590527Y-57049274D01*
X140599802Y-57054981D01*
X140608449Y-57061600D01*
X140612169Y-57062592D01*
X140615449Y-57064610D01*
X140626203Y-57066334D01*
X140636725Y-57069140D01*
X140640540Y-57068633D01*
X140644344Y-57069243D01*
X140654938Y-57066720D01*
X140665733Y-57065286D01*
X140669066Y-57063355D01*
X140672812Y-57062464D01*
X140681632Y-57056081D01*
X140691058Y-57050624D01*
X140693398Y-57047566D01*
X140696519Y-57045308D01*
X140702226Y-57036032D01*
X140708845Y-57027386D01*
X140710870Y-57021986D01*
X140711855Y-57020386D01*
X140712142Y-57018594D01*
X140714008Y-57013620D01*
X140793920Y-56713945D01*
X140873834Y-57013620D01*
X140875699Y-57018595D01*
X140875987Y-57020386D01*
X140876971Y-57021985D01*
X140878997Y-57027387D01*
X140885617Y-57036035D01*
X140891323Y-57045308D01*
X140894443Y-57047566D01*
X140896784Y-57050624D01*
X140906205Y-57056078D01*
X140915030Y-57062465D01*
X140918777Y-57063357D01*
X140922109Y-57065286D01*
X140932902Y-57066720D01*
X140943498Y-57069243D01*
X140947299Y-57068633D01*
X140951118Y-57069141D01*
X140961649Y-57066332D01*
X140972393Y-57064610D01*
X140975669Y-57062594D01*
X140979393Y-57061601D01*
X140988045Y-57054977D01*
X140997315Y-57049274D01*
X140999571Y-57046155D01*
X141002631Y-57043814D01*
X141008088Y-57034387D01*
X141014472Y-57025567D01*
X141016349Y-57020118D01*
X141017293Y-57018489D01*
X141017532Y-57016685D01*
X141019262Y-57011667D01*
X141209739Y-56211667D01*
X141211727Y-56197099D01*
X141211277Y-56194295D01*
X141366541Y-56194295D01*
X141366541Y-56994295D01*
X141367982Y-57008927D01*
X141379181Y-57035963D01*
X141399873Y-57056655D01*
X141426909Y-57067854D01*
X141441541Y-57069295D01*
X141822493Y-57069295D01*
X141837125Y-57067854D01*
X141864161Y-57056655D01*
X141884853Y-57035963D01*
X141896052Y-57008927D01*
X141896052Y-56979663D01*
X141884853Y-56952627D01*
X141864161Y-56931935D01*
X141837125Y-56920736D01*
X141822493Y-56919295D01*
X141516541Y-56919295D01*
X141516541Y-56650247D01*
X141708207Y-56650247D01*
X141722839Y-56648806D01*
X141749875Y-56637607D01*
X141770567Y-56616915D01*
X141781766Y-56589879D01*
X141781766Y-56560615D01*
X141770567Y-56533579D01*
X141749875Y-56512887D01*
X141722839Y-56501688D01*
X141708207Y-56500247D01*
X141516541Y-56500247D01*
X141516541Y-56269295D01*
X141822493Y-56269295D01*
X141837125Y-56267854D01*
X141864161Y-56256655D01*
X141884853Y-56235963D01*
X141896052Y-56208927D01*
X141896052Y-56194295D01*
X142090351Y-56194295D01*
X142090351Y-56994295D01*
X142091792Y-57008927D01*
X142102991Y-57035963D01*
X142123683Y-57056655D01*
X142150719Y-57067854D01*
X142179983Y-57067854D01*
X142207019Y-57056655D01*
X142227711Y-57035963D01*
X142238910Y-57008927D01*
X142240351Y-56994295D01*
X142240351Y-56688342D01*
X142316778Y-56688342D01*
X142561051Y-57037304D01*
X142570623Y-57048465D01*
X142595302Y-57064192D01*
X142624119Y-57069277D01*
X142652690Y-57062948D01*
X142676664Y-57046166D01*
X142692391Y-57021487D01*
X142697476Y-56992669D01*
X142691147Y-56964098D01*
X142683936Y-56951285D01*
X142496302Y-56683237D01*
X142503654Y-56680424D01*
X142579844Y-56642329D01*
X142586143Y-56638364D01*
X142587971Y-56637607D01*
X142590027Y-56635918D01*
X142592287Y-56634497D01*
X142593586Y-56632998D01*
X142599336Y-56628280D01*
X142637431Y-56590185D01*
X142642151Y-56584432D01*
X142643647Y-56583136D01*
X142645066Y-56580881D01*
X142646758Y-56578820D01*
X142647516Y-56576989D01*
X142651480Y-56570693D01*
X142689576Y-56494503D01*
X142694831Y-56480771D01*
X142695022Y-56478081D01*
X142696053Y-56475593D01*
X142697494Y-56460961D01*
X142697494Y-56346676D01*
X142696053Y-56332044D01*
X142695022Y-56329555D01*
X142694831Y-56326866D01*
X142689576Y-56313134D01*
X142651480Y-56236944D01*
X142647516Y-56230647D01*
X142646758Y-56228817D01*
X142645066Y-56226755D01*
X142643647Y-56224501D01*
X142642151Y-56223204D01*
X142637431Y-56217452D01*
X142614274Y-56194295D01*
X143499875Y-56194295D01*
X143499875Y-56994295D01*
X143501316Y-57008927D01*
X143512515Y-57035963D01*
X143533207Y-57056655D01*
X143560243Y-57067854D01*
X143574875Y-57069295D01*
X143955827Y-57069295D01*
X143970459Y-57067854D01*
X143997495Y-57056655D01*
X144018187Y-57035963D01*
X144029386Y-57008927D01*
X144029386Y-56979663D01*
X144018187Y-56952627D01*
X143997495Y-56931935D01*
X143970459Y-56920736D01*
X143955827Y-56919295D01*
X143649875Y-56919295D01*
X143649875Y-56194295D01*
X144147494Y-56194295D01*
X144147494Y-56994295D01*
X144148935Y-57008927D01*
X144160134Y-57035963D01*
X144180826Y-57056655D01*
X144207862Y-57067854D01*
X144237126Y-57067854D01*
X144264162Y-57056655D01*
X144284854Y-57035963D01*
X144296053Y-57008927D01*
X144297494Y-56994295D01*
X144297494Y-56194295D01*
X144528446Y-56194295D01*
X144528446Y-56994295D01*
X144529887Y-57008927D01*
X144541086Y-57035963D01*
X144561778Y-57056655D01*
X144588814Y-57067854D01*
X144618078Y-57067854D01*
X144645114Y-57056655D01*
X144665806Y-57035963D01*
X144677005Y-57008927D01*
X144678446Y-56994295D01*
X144678446Y-56476711D01*
X144995471Y-57031505D01*
X144997659Y-57034588D01*
X144998229Y-57035963D01*
X144999628Y-57037362D01*
X145003981Y-57043495D01*
X145011869Y-57049603D01*
X145018921Y-57056655D01*
X145023339Y-57058485D01*
X145027119Y-57061412D01*
X145036740Y-57064036D01*
X145045957Y-57067854D01*
X145050738Y-57067854D01*
X145055350Y-57069112D01*
X145065247Y-57067854D01*
X145075221Y-57067854D01*
X145079636Y-57066024D01*
X145084380Y-57065422D01*
X145093044Y-57060471D01*
X145102257Y-57056655D01*
X145105635Y-57053276D01*
X145109789Y-57050903D01*
X145115898Y-57043013D01*
X145122949Y-57035963D01*
X145124778Y-57031546D01*
X145127706Y-57027766D01*
X145130330Y-57018142D01*
X145134148Y-57008927D01*
X145134884Y-57001444D01*
X145135406Y-56999534D01*
X145135218Y-56998058D01*
X145135589Y-56994295D01*
X145135589Y-56194295D01*
X145366541Y-56194295D01*
X145366541Y-56994295D01*
X145367982Y-57008927D01*
X145379181Y-57035963D01*
X145399873Y-57056655D01*
X145426909Y-57067854D01*
X145456173Y-57067854D01*
X145483209Y-57056655D01*
X145503901Y-57035963D01*
X145515100Y-57008927D01*
X145516541Y-56994295D01*
X145516541Y-56682504D01*
X145547711Y-56651333D01*
X145838684Y-57039295D01*
X145848616Y-57050136D01*
X145873797Y-57065045D01*
X145902766Y-57069184D01*
X145931114Y-57061921D01*
X145954525Y-57044363D01*
X145969434Y-57019182D01*
X145973573Y-56990213D01*
X145966310Y-56961865D01*
X145958684Y-56949295D01*
X145654854Y-56544190D01*
X145951717Y-56247328D01*
X145961045Y-56235963D01*
X145972243Y-56208926D01*
X145972243Y-56179663D01*
X145961045Y-56152627D01*
X145940352Y-56131934D01*
X145913316Y-56120736D01*
X145884053Y-56120736D01*
X145857016Y-56131934D01*
X145845651Y-56141262D01*
X145516541Y-56470372D01*
X145516541Y-56194295D01*
X145515100Y-56179663D01*
X145503901Y-56152627D01*
X145483209Y-56131935D01*
X145456173Y-56120736D01*
X145426909Y-56120736D01*
X145399873Y-56131935D01*
X145379181Y-56152627D01*
X145367982Y-56179663D01*
X145366541Y-56194295D01*
X145135589Y-56194295D01*
X145134148Y-56179663D01*
X145122949Y-56152627D01*
X145102257Y-56131935D01*
X145075221Y-56120736D01*
X145045957Y-56120736D01*
X145018921Y-56131935D01*
X144998229Y-56152627D01*
X144987030Y-56179663D01*
X144985589Y-56194295D01*
X144985589Y-56711878D01*
X144668564Y-56157085D01*
X144666375Y-56154001D01*
X144665806Y-56152627D01*
X144664406Y-56151227D01*
X144660054Y-56145095D01*
X144652164Y-56138985D01*
X144645114Y-56131935D01*
X144640697Y-56130105D01*
X144636917Y-56127178D01*
X144627293Y-56124553D01*
X144618078Y-56120736D01*
X144613297Y-56120736D01*
X144608685Y-56119478D01*
X144598788Y-56120736D01*
X144588814Y-56120736D01*
X144584398Y-56122565D01*
X144579655Y-56123168D01*
X144570990Y-56128118D01*
X144561778Y-56131935D01*
X144558399Y-56135313D01*
X144554246Y-56137687D01*
X144548136Y-56145576D01*
X144541086Y-56152627D01*
X144539256Y-56157043D01*
X144536329Y-56160824D01*
X144533704Y-56170447D01*
X144529887Y-56179663D01*
X144529150Y-56187145D01*
X144528629Y-56189056D01*
X144528816Y-56190531D01*
X144528446Y-56194295D01*
X144297494Y-56194295D01*
X144296053Y-56179663D01*
X144284854Y-56152627D01*
X144264162Y-56131935D01*
X144237126Y-56120736D01*
X144207862Y-56120736D01*
X144180826Y-56131935D01*
X144160134Y-56152627D01*
X144148935Y-56179663D01*
X144147494Y-56194295D01*
X143649875Y-56194295D01*
X143648434Y-56179663D01*
X143637235Y-56152627D01*
X143616543Y-56131935D01*
X143589507Y-56120736D01*
X143560243Y-56120736D01*
X143533207Y-56131935D01*
X143512515Y-56152627D01*
X143501316Y-56179663D01*
X143499875Y-56194295D01*
X142614274Y-56194295D01*
X142599336Y-56179357D01*
X142593586Y-56174638D01*
X142592287Y-56173140D01*
X142590027Y-56171718D01*
X142587971Y-56170030D01*
X142586143Y-56169272D01*
X142579844Y-56165308D01*
X142503654Y-56127213D01*
X142489922Y-56121958D01*
X142487234Y-56121767D01*
X142484745Y-56120736D01*
X142470113Y-56119295D01*
X142165351Y-56119295D01*
X142150719Y-56120736D01*
X142123683Y-56131935D01*
X142102991Y-56152627D01*
X142091792Y-56179663D01*
X142090351Y-56194295D01*
X141896052Y-56194295D01*
X141896052Y-56179663D01*
X141884853Y-56152627D01*
X141864161Y-56131935D01*
X141837125Y-56120736D01*
X141822493Y-56119295D01*
X141441541Y-56119295D01*
X141426909Y-56120736D01*
X141399873Y-56131935D01*
X141379181Y-56152627D01*
X141367982Y-56179663D01*
X141366541Y-56194295D01*
X141211277Y-56194295D01*
X141207094Y-56168204D01*
X141191758Y-56143282D01*
X141168051Y-56126126D01*
X141139583Y-56119348D01*
X141110688Y-56123980D01*
X141085766Y-56139317D01*
X141068609Y-56163023D01*
X141063818Y-56176924D01*
X140942185Y-56687779D01*
X140866389Y-56403541D01*
X140865103Y-56400113D01*
X140864912Y-56398672D01*
X140863920Y-56396959D01*
X140861226Y-56389775D01*
X140855212Y-56381918D01*
X140850250Y-56373347D01*
X140846390Y-56370392D01*
X140843439Y-56366537D01*
X140834876Y-56361579D01*
X140827012Y-56355560D01*
X140822315Y-56354307D01*
X140818114Y-56351875D01*
X140808307Y-56350572D01*
X140798737Y-56348020D01*
X140793918Y-56348660D01*
X140789106Y-56348021D01*
X140779545Y-56350570D01*
X140769728Y-56351875D01*
X140765522Y-56354309D01*
X140760830Y-56355561D01*
X140752970Y-56361576D01*
X140744403Y-56366537D01*
X140741449Y-56370395D01*
X140737592Y-56373348D01*
X140732633Y-56381913D01*
X140726616Y-56389774D01*
X140723919Y-56396963D01*
X140722930Y-56398673D01*
X140722738Y-56400112D01*
X140721453Y-56403541D01*
X140645656Y-56687778D01*
X140524024Y-56176923D01*
X140519234Y-56163023D01*
X140502077Y-56139316D01*
X140477155Y-56123980D01*
X140448260Y-56119347D01*
X140419792Y-56126125D01*
X140396085Y-56143282D01*
X140380749Y-56168204D01*
X140376116Y-56197099D01*
X140140887Y-56197099D01*
X140123145Y-56179357D01*
X140117395Y-56174638D01*
X140116096Y-56173140D01*
X140113837Y-56171718D01*
X140111779Y-56170029D01*
X140109949Y-56169271D01*
X140103653Y-56165308D01*
X140027463Y-56127213D01*
X140013731Y-56121958D01*
X140011043Y-56121767D01*
X140008554Y-56120736D01*
X139993922Y-56119295D01*
X139841541Y-56119295D01*
X139826909Y-56120736D01*
X139824419Y-56121767D01*
X139821732Y-56121958D01*
X139808000Y-56127213D01*
X139731809Y-56165308D01*
X139725514Y-56169270D01*
X139723682Y-56170029D01*
X139721620Y-56171720D01*
X139719366Y-56173140D01*
X139718067Y-56174636D01*
X139712317Y-56179357D01*
X139636127Y-56255547D01*
X139626800Y-56266912D01*
X139624666Y-56272062D01*
X139621346Y-56276544D01*
X139616399Y-56290389D01*
X139578303Y-56442770D01*
X139577927Y-56445308D01*
X139577505Y-56446329D01*
X139576962Y-56451840D01*
X139576153Y-56457315D01*
X139576315Y-56458407D01*
X139576064Y-56460961D01*
X139421303Y-56460961D01*
X139421303Y-56346676D01*
X139419862Y-56332044D01*
X139418831Y-56329555D01*
X139418640Y-56326866D01*
X139413385Y-56313134D01*
X139375289Y-56236944D01*
X139371325Y-56230647D01*
X139370567Y-56228817D01*
X139368875Y-56226755D01*
X139367456Y-56224501D01*
X139365960Y-56223204D01*
X139361240Y-56217452D01*
X139323145Y-56179357D01*
X139317395Y-56174638D01*
X139316096Y-56173140D01*
X139313836Y-56171718D01*
X139311780Y-56170030D01*
X139309952Y-56169272D01*
X139303653Y-56165308D01*
X139227463Y-56127213D01*
X139213731Y-56121958D01*
X139211043Y-56121767D01*
X139208554Y-56120736D01*
X139193922Y-56119295D01*
X138889160Y-56119295D01*
X138874528Y-56120736D01*
X138847492Y-56131935D01*
X138826800Y-56152627D01*
X138815601Y-56179663D01*
X138814160Y-56194295D01*
X138725271Y-56194295D01*
X138725271Y-56030406D01*
X146062462Y-56030406D01*
X146062462Y-57158184D01*
G37*
G36*
X127392725Y-77398431D02*
G01*
X127413608Y-77419314D01*
X127438342Y-77468782D01*
X127438342Y-77680839D01*
X127169295Y-77680839D01*
X127169295Y-77468782D01*
X127194029Y-77419314D01*
X127214912Y-77398430D01*
X127264381Y-77373696D01*
X127343256Y-77373696D01*
X127392725Y-77398431D01*
G37*
G36*
X127773677Y-73322240D02*
G01*
X127794561Y-73343123D01*
X127819295Y-73392591D01*
X127819295Y-73509563D01*
X127794561Y-73559030D01*
X127773676Y-73579914D01*
X127724208Y-73604649D01*
X127569143Y-73604649D01*
X127519674Y-73579914D01*
X127498791Y-73559031D01*
X127474057Y-73509563D01*
X127474057Y-73392591D01*
X127498791Y-73343122D01*
X127519673Y-73322240D01*
X127569143Y-73297506D01*
X127724209Y-73297506D01*
X127773677Y-73322240D01*
G37*
G36*
X127677642Y-71921841D02*
G01*
X127735582Y-71950811D01*
X127790648Y-72005876D01*
X127819295Y-72091817D01*
X127819295Y-72195124D01*
X127169295Y-72195124D01*
X127169295Y-72091817D01*
X127197942Y-72005875D01*
X127253006Y-71950811D01*
X127310945Y-71921841D01*
X127446387Y-71887981D01*
X127542203Y-71887981D01*
X127677642Y-71921841D01*
G37*
G36*
X128058184Y-79405443D02*
G01*
X126930406Y-79405443D01*
X126930406Y-78860602D01*
X127019295Y-78860602D01*
X127019295Y-79241554D01*
X127020736Y-79256186D01*
X127031935Y-79283222D01*
X127052627Y-79303914D01*
X127079663Y-79315113D01*
X127094295Y-79316554D01*
X127894295Y-79316554D01*
X127908927Y-79315113D01*
X127935963Y-79303914D01*
X127956655Y-79283222D01*
X127967854Y-79256186D01*
X127969295Y-79241554D01*
X127969295Y-78860602D01*
X127967854Y-78845970D01*
X127956655Y-78818934D01*
X127935963Y-78798242D01*
X127908927Y-78787043D01*
X127879663Y-78787043D01*
X127852627Y-78798242D01*
X127831935Y-78818934D01*
X127820736Y-78845970D01*
X127819295Y-78860602D01*
X127819295Y-79166554D01*
X127550247Y-79166554D01*
X127550247Y-78974888D01*
X127548806Y-78960256D01*
X127537607Y-78933220D01*
X127516915Y-78912528D01*
X127489879Y-78901329D01*
X127460615Y-78901329D01*
X127433579Y-78912528D01*
X127412887Y-78933220D01*
X127401688Y-78960256D01*
X127400247Y-78974888D01*
X127400247Y-79166554D01*
X127169295Y-79166554D01*
X127169295Y-78860602D01*
X127167854Y-78845970D01*
X127156655Y-78818934D01*
X127135963Y-78798242D01*
X127108927Y-78787043D01*
X127079663Y-78787043D01*
X127052627Y-78798242D01*
X127031935Y-78818934D01*
X127020736Y-78845970D01*
X127019295Y-78860602D01*
X126930406Y-78860602D01*
X126930406Y-78212982D01*
X127019295Y-78212982D01*
X127019295Y-78403459D01*
X127020736Y-78418091D01*
X127021767Y-78420580D01*
X127021958Y-78423268D01*
X127027213Y-78437000D01*
X127065308Y-78513190D01*
X127069272Y-78519489D01*
X127070030Y-78521317D01*
X127071718Y-78523373D01*
X127073140Y-78525633D01*
X127074638Y-78526932D01*
X127079357Y-78532682D01*
X127117452Y-78570777D01*
X127123204Y-78575497D01*
X127124501Y-78576993D01*
X127126755Y-78578412D01*
X127128817Y-78580104D01*
X127130647Y-78580862D01*
X127136944Y-78584826D01*
X127213134Y-78622922D01*
X127226866Y-78628177D01*
X127229555Y-78628368D01*
X127232044Y-78629399D01*
X127246676Y-78630840D01*
X127322866Y-78630840D01*
X127337498Y-78629399D01*
X127339986Y-78628368D01*
X127342676Y-78628177D01*
X127356407Y-78622922D01*
X127432598Y-78584826D01*
X127438894Y-78580862D01*
X127440725Y-78580104D01*
X127442786Y-78578412D01*
X127445041Y-78576993D01*
X127446337Y-78575497D01*
X127452090Y-78570777D01*
X127490185Y-78532682D01*
X127494903Y-78526932D01*
X127496402Y-78525633D01*
X127497823Y-78523373D01*
X127499512Y-78521317D01*
X127500269Y-78519489D01*
X127504234Y-78513190D01*
X127542329Y-78437000D01*
X127542738Y-78435930D01*
X127543061Y-78435495D01*
X127545256Y-78429349D01*
X127547584Y-78423268D01*
X127547622Y-78422728D01*
X127548008Y-78421649D01*
X127584106Y-78277254D01*
X127613077Y-78219313D01*
X127633960Y-78198431D01*
X127683428Y-78173697D01*
X127724209Y-78173697D01*
X127773677Y-78198431D01*
X127794561Y-78219314D01*
X127819295Y-78268782D01*
X127819295Y-78429384D01*
X127785049Y-78532123D01*
X127781789Y-78546460D01*
X127783864Y-78575650D01*
X127796950Y-78601823D01*
X127819058Y-78620997D01*
X127846820Y-78630251D01*
X127876010Y-78628176D01*
X127902183Y-78615090D01*
X127921357Y-78592982D01*
X127927351Y-78579557D01*
X127965446Y-78465271D01*
X127967095Y-78458017D01*
X127967854Y-78456186D01*
X127968115Y-78453531D01*
X127968706Y-78450934D01*
X127968565Y-78448959D01*
X127969295Y-78441554D01*
X127969295Y-78251078D01*
X127967854Y-78236446D01*
X127966822Y-78233956D01*
X127966632Y-78231269D01*
X127961377Y-78217537D01*
X127923282Y-78141346D01*
X127919318Y-78135048D01*
X127918560Y-78133218D01*
X127916869Y-78131158D01*
X127915450Y-78128903D01*
X127913952Y-78127604D01*
X127909232Y-78121853D01*
X127871136Y-78083758D01*
X127865387Y-78079040D01*
X127864088Y-78077542D01*
X127861829Y-78076120D01*
X127859771Y-78074431D01*
X127857941Y-78073673D01*
X127851645Y-78069710D01*
X127775455Y-78031615D01*
X127761723Y-78026360D01*
X127759035Y-78026169D01*
X127756546Y-78025138D01*
X127741914Y-78023697D01*
X127665723Y-78023697D01*
X127651091Y-78025138D01*
X127648601Y-78026169D01*
X127645914Y-78026360D01*
X127632182Y-78031615D01*
X127555992Y-78069710D01*
X127549692Y-78073674D01*
X127547865Y-78074432D01*
X127545808Y-78076120D01*
X127543549Y-78077542D01*
X127542249Y-78079040D01*
X127536500Y-78083759D01*
X127498405Y-78121854D01*
X127493684Y-78127606D01*
X127492189Y-78128903D01*
X127490769Y-78131157D01*
X127489078Y-78133219D01*
X127488319Y-78135049D01*
X127484356Y-78141346D01*
X127446260Y-78217537D01*
X127445850Y-78218606D01*
X127445528Y-78219042D01*
X127443335Y-78225178D01*
X127441005Y-78231268D01*
X127440966Y-78231808D01*
X127440581Y-78232888D01*
X127404482Y-78377283D01*
X127375513Y-78435222D01*
X127354630Y-78456104D01*
X127305161Y-78480840D01*
X127264381Y-78480840D01*
X127214912Y-78456105D01*
X127194029Y-78435222D01*
X127169295Y-78385754D01*
X127169295Y-78225152D01*
X127203541Y-78122414D01*
X127206801Y-78108077D01*
X127204726Y-78078887D01*
X127191640Y-78052714D01*
X127169533Y-78033540D01*
X127141770Y-78024286D01*
X127112580Y-78026361D01*
X127086407Y-78039447D01*
X127067233Y-78061554D01*
X127061239Y-78074980D01*
X127023144Y-78189265D01*
X127021494Y-78196518D01*
X127020736Y-78198350D01*
X127020474Y-78201004D01*
X127019884Y-78203602D01*
X127020024Y-78205576D01*
X127019295Y-78212982D01*
X126930406Y-78212982D01*
X126930406Y-77451077D01*
X127019295Y-77451077D01*
X127019295Y-77755839D01*
X127020736Y-77770471D01*
X127031935Y-77797507D01*
X127052627Y-77818199D01*
X127079663Y-77829398D01*
X127094295Y-77830839D01*
X127894295Y-77830839D01*
X127908927Y-77829398D01*
X127935963Y-77818199D01*
X127956655Y-77797507D01*
X127967854Y-77770471D01*
X127967854Y-77741207D01*
X127956655Y-77714171D01*
X127935963Y-77693479D01*
X127908927Y-77682280D01*
X127894295Y-77680839D01*
X127588342Y-77680839D01*
X127588342Y-77451077D01*
X127586901Y-77436445D01*
X127585869Y-77433955D01*
X127585679Y-77431268D01*
X127580424Y-77417536D01*
X127542329Y-77341346D01*
X127538364Y-77335046D01*
X127537607Y-77333219D01*
X127535918Y-77331162D01*
X127534497Y-77328903D01*
X127532998Y-77327603D01*
X127528280Y-77321854D01*
X127490185Y-77283759D01*
X127484432Y-77279038D01*
X127483136Y-77277543D01*
X127480881Y-77276123D01*
X127478820Y-77274432D01*
X127476989Y-77273673D01*
X127470693Y-77269710D01*
X127394502Y-77231614D01*
X127380771Y-77226359D01*
X127378081Y-77226167D01*
X127375593Y-77225137D01*
X127360961Y-77223696D01*
X127246676Y-77223696D01*
X127232044Y-77225137D01*
X127229555Y-77226167D01*
X127226866Y-77226359D01*
X127213134Y-77231614D01*
X127136944Y-77269710D01*
X127130647Y-77273673D01*
X127128817Y-77274432D01*
X127126755Y-77276123D01*
X127124501Y-77277543D01*
X127123204Y-77279038D01*
X127117452Y-77283759D01*
X127079357Y-77321854D01*
X127074638Y-77327603D01*
X127073140Y-77328903D01*
X127071718Y-77331162D01*
X127070030Y-77333219D01*
X127069272Y-77335046D01*
X127065308Y-77341346D01*
X127027213Y-77417536D01*
X127021958Y-77431268D01*
X127021767Y-77433955D01*
X127020736Y-77436445D01*
X127019295Y-77451077D01*
X126930406Y-77451077D01*
X126930406Y-76536792D01*
X127019295Y-76536792D01*
X127019295Y-77032030D01*
X127020736Y-77046662D01*
X127031935Y-77073698D01*
X127052627Y-77094390D01*
X127079663Y-77105589D01*
X127108927Y-77105589D01*
X127135963Y-77094390D01*
X127156655Y-77073698D01*
X127167854Y-77046662D01*
X127169295Y-77032030D01*
X127169295Y-76702074D01*
X127349670Y-76859902D01*
X127355993Y-76864422D01*
X127357389Y-76865818D01*
X127358712Y-76866366D01*
X127361630Y-76868452D01*
X127373173Y-76872356D01*
X127384425Y-76877017D01*
X127386953Y-76877017D01*
X127389351Y-76877828D01*
X127401514Y-76877017D01*
X127413689Y-76877017D01*
X127416025Y-76876049D01*
X127418550Y-76875881D01*
X127429477Y-76870476D01*
X127440725Y-76865818D01*
X127442511Y-76864031D01*
X127444781Y-76862909D01*
X127452806Y-76853736D01*
X127461417Y-76845126D01*
X127462385Y-76842789D01*
X127464051Y-76840885D01*
X127467955Y-76829341D01*
X127472616Y-76818090D01*
X127472967Y-76814523D01*
X127473427Y-76813164D01*
X127473295Y-76811190D01*
X127474057Y-76803458D01*
X127474057Y-76706877D01*
X127498791Y-76657408D01*
X127519673Y-76636526D01*
X127569143Y-76611792D01*
X127724209Y-76611792D01*
X127773677Y-76636526D01*
X127794561Y-76657409D01*
X127819295Y-76706877D01*
X127819295Y-76900039D01*
X127794561Y-76949507D01*
X127765072Y-76978996D01*
X127755744Y-76990362D01*
X127744545Y-77017398D01*
X127744545Y-77046660D01*
X127755743Y-77073697D01*
X127776436Y-77094390D01*
X127803472Y-77105589D01*
X127832734Y-77105589D01*
X127859771Y-77094391D01*
X127871136Y-77085064D01*
X127909232Y-77046969D01*
X127913952Y-77041217D01*
X127915450Y-77039919D01*
X127916869Y-77037663D01*
X127918560Y-77035604D01*
X127919318Y-77033773D01*
X127923282Y-77027476D01*
X127961377Y-76951285D01*
X127966632Y-76937553D01*
X127966822Y-76934865D01*
X127967854Y-76932376D01*
X127969295Y-76917744D01*
X127969295Y-76689173D01*
X127967854Y-76674541D01*
X127966822Y-76672051D01*
X127966632Y-76669364D01*
X127961377Y-76655632D01*
X127923282Y-76579441D01*
X127919318Y-76573143D01*
X127918560Y-76571313D01*
X127916869Y-76569253D01*
X127915450Y-76566998D01*
X127913952Y-76565699D01*
X127909232Y-76559948D01*
X127871136Y-76521853D01*
X127865387Y-76517135D01*
X127864088Y-76515637D01*
X127861829Y-76514215D01*
X127859771Y-76512526D01*
X127857941Y-76511768D01*
X127851645Y-76507805D01*
X127775455Y-76469710D01*
X127761723Y-76464455D01*
X127759035Y-76464264D01*
X127756546Y-76463233D01*
X127741914Y-76461792D01*
X127551438Y-76461792D01*
X127536806Y-76463233D01*
X127534316Y-76464264D01*
X127531629Y-76464455D01*
X127517897Y-76469710D01*
X127441706Y-76507805D01*
X127435406Y-76511769D01*
X127433579Y-76512527D01*
X127431522Y-76514215D01*
X127429263Y-76515637D01*
X127427963Y-76517135D01*
X127422214Y-76521854D01*
X127384119Y-76559949D01*
X127379400Y-76565698D01*
X127377902Y-76566998D01*
X127376480Y-76569257D01*
X127374792Y-76571314D01*
X127374034Y-76573141D01*
X127370070Y-76579441D01*
X127335636Y-76648308D01*
X127143683Y-76480349D01*
X127137358Y-76475827D01*
X127135963Y-76474432D01*
X127134639Y-76473883D01*
X127131722Y-76471798D01*
X127120184Y-76467896D01*
X127108927Y-76463233D01*
X127106396Y-76463233D01*
X127104001Y-76462423D01*
X127091848Y-76463233D01*
X127079663Y-76463233D01*
X127077326Y-76464200D01*
X127074803Y-76464369D01*
X127063877Y-76469771D01*
X127052627Y-76474432D01*
X127050840Y-76476218D01*
X127048571Y-76477341D01*
X127040545Y-76486513D01*
X127031935Y-76495124D01*
X127030966Y-76497460D01*
X127029301Y-76499365D01*
X127025399Y-76510902D01*
X127020736Y-76522160D01*
X127020384Y-76525730D01*
X127019926Y-76527086D01*
X127020057Y-76529053D01*
X127019295Y-76536792D01*
X126930406Y-76536792D01*
X126930406Y-75927268D01*
X127019295Y-75927268D01*
X127019295Y-76117744D01*
X127020736Y-76132376D01*
X127021767Y-76134865D01*
X127021958Y-76137553D01*
X127027213Y-76151285D01*
X127065308Y-76227475D01*
X127069271Y-76233771D01*
X127070029Y-76235601D01*
X127071718Y-76237659D01*
X127073140Y-76239918D01*
X127074638Y-76241217D01*
X127079356Y-76246966D01*
X127117451Y-76285062D01*
X127128816Y-76294390D01*
X127155852Y-76305589D01*
X127185115Y-76305589D01*
X127212152Y-76294391D01*
X127232845Y-76273698D01*
X127244044Y-76246662D01*
X127244044Y-76217399D01*
X127232846Y-76190363D01*
X127223519Y-76178998D01*
X127194029Y-76149507D01*
X127169295Y-76100039D01*
X127169295Y-75944972D01*
X127194029Y-75895503D01*
X127214911Y-75874621D01*
X127264381Y-75849887D01*
X127310696Y-75849887D01*
X127396638Y-75878534D01*
X127841262Y-76323158D01*
X127852627Y-76332486D01*
X127871744Y-76340404D01*
X127879663Y-76343684D01*
X127879664Y-76343684D01*
X127908927Y-76343684D01*
X127935963Y-76332486D01*
X127956656Y-76311793D01*
X127967854Y-76284757D01*
X127969295Y-76270125D01*
X127969295Y-75774887D01*
X127967854Y-75760255D01*
X127956655Y-75733219D01*
X127935963Y-75712527D01*
X127908927Y-75701328D01*
X127879663Y-75701328D01*
X127852627Y-75712527D01*
X127831935Y-75733219D01*
X127820736Y-75760255D01*
X127819295Y-75774887D01*
X127819295Y-76089059D01*
X127490185Y-75759949D01*
X127478820Y-75750622D01*
X127476329Y-75749590D01*
X127474294Y-75747825D01*
X127460869Y-75741831D01*
X127346583Y-75703736D01*
X127339329Y-75702086D01*
X127337498Y-75701328D01*
X127334843Y-75701066D01*
X127332246Y-75700476D01*
X127330271Y-75700616D01*
X127322866Y-75699887D01*
X127246676Y-75699887D01*
X127232044Y-75701328D01*
X127229554Y-75702359D01*
X127226867Y-75702550D01*
X127213135Y-75707805D01*
X127136944Y-75745900D01*
X127130644Y-75749864D01*
X127128817Y-75750622D01*
X127126760Y-75752310D01*
X127124501Y-75753732D01*
X127123201Y-75755230D01*
X127117452Y-75759949D01*
X127079357Y-75798044D01*
X127074638Y-75803793D01*
X127073140Y-75805093D01*
X127071718Y-75807352D01*
X127070030Y-75809409D01*
X127069272Y-75811236D01*
X127065308Y-75817536D01*
X127027213Y-75893727D01*
X127021958Y-75907459D01*
X127021767Y-75910146D01*
X127020736Y-75912636D01*
X127019295Y-75927268D01*
X126930406Y-75927268D01*
X126930406Y-74822506D01*
X127514533Y-74822506D01*
X127514533Y-75432029D01*
X127515974Y-75446661D01*
X127527173Y-75473697D01*
X127547865Y-75494389D01*
X127574901Y-75505588D01*
X127604165Y-75505588D01*
X127631201Y-75494389D01*
X127651893Y-75473697D01*
X127663092Y-75446661D01*
X127664533Y-75432029D01*
X127664533Y-74822506D01*
X127663092Y-74807874D01*
X127651893Y-74780838D01*
X127631201Y-74760146D01*
X127604165Y-74748947D01*
X127574901Y-74748947D01*
X127547865Y-74760146D01*
X127527173Y-74780838D01*
X127515974Y-74807874D01*
X127514533Y-74822506D01*
X126930406Y-74822506D01*
X126930406Y-74136791D01*
X127019295Y-74136791D01*
X127019295Y-74212982D01*
X127020024Y-74220387D01*
X127019884Y-74222362D01*
X127020474Y-74224959D01*
X127020736Y-74227614D01*
X127021494Y-74229445D01*
X127023144Y-74236699D01*
X127061239Y-74350985D01*
X127067233Y-74364410D01*
X127068998Y-74366445D01*
X127070030Y-74368936D01*
X127079357Y-74380301D01*
X127155547Y-74456491D01*
X127161297Y-74461211D01*
X127162596Y-74462708D01*
X127164850Y-74464127D01*
X127166912Y-74465819D01*
X127168744Y-74466577D01*
X127175039Y-74470540D01*
X127251230Y-74508635D01*
X127252299Y-74509044D01*
X127252735Y-74509367D01*
X127258886Y-74511565D01*
X127264962Y-74513890D01*
X127265500Y-74513928D01*
X127266580Y-74514314D01*
X127418962Y-74552410D01*
X127421498Y-74552785D01*
X127422520Y-74553208D01*
X127428032Y-74553750D01*
X127433506Y-74554560D01*
X127434598Y-74554397D01*
X127437152Y-74554649D01*
X127551438Y-74554649D01*
X127553991Y-74554397D01*
X127555084Y-74554560D01*
X127560558Y-74553750D01*
X127566070Y-74553208D01*
X127567090Y-74552785D01*
X127569629Y-74552410D01*
X127722010Y-74514314D01*
X127723089Y-74513928D01*
X127723628Y-74513890D01*
X127729703Y-74511565D01*
X127735855Y-74509367D01*
X127736290Y-74509044D01*
X127737360Y-74508635D01*
X127813550Y-74470540D01*
X127819846Y-74466576D01*
X127821676Y-74465819D01*
X127823734Y-74464129D01*
X127825993Y-74462708D01*
X127827292Y-74461209D01*
X127833042Y-74456491D01*
X127909233Y-74380301D01*
X127918560Y-74368936D01*
X127919591Y-74366445D01*
X127921357Y-74364410D01*
X127927351Y-74350985D01*
X127965446Y-74236699D01*
X127967095Y-74229445D01*
X127967854Y-74227614D01*
X127968115Y-74224959D01*
X127968706Y-74222362D01*
X127968565Y-74220387D01*
X127969295Y-74212982D01*
X127969295Y-74136791D01*
X127968565Y-74129385D01*
X127968706Y-74127411D01*
X127968115Y-74124813D01*
X127967854Y-74122159D01*
X127967095Y-74120327D01*
X127965446Y-74113074D01*
X127927351Y-73998789D01*
X127921357Y-73985363D01*
X127919592Y-73983328D01*
X127918561Y-73980838D01*
X127909233Y-73969473D01*
X127871137Y-73931377D01*
X127859772Y-73922050D01*
X127832735Y-73910851D01*
X127803473Y-73910851D01*
X127776436Y-73922050D01*
X127755744Y-73942742D01*
X127744545Y-73969779D01*
X127744545Y-73999041D01*
X127755744Y-74026078D01*
X127765071Y-74037443D01*
X127790648Y-74063020D01*
X127819295Y-74148961D01*
X127819295Y-74200812D01*
X127790648Y-74286753D01*
X127735582Y-74341818D01*
X127677642Y-74370788D01*
X127542203Y-74404649D01*
X127446387Y-74404649D01*
X127310945Y-74370788D01*
X127253006Y-74341818D01*
X127197942Y-74286754D01*
X127169295Y-74200812D01*
X127169295Y-74148961D01*
X127197942Y-74063019D01*
X127223519Y-74037442D01*
X127232846Y-74026077D01*
X127244044Y-73999041D01*
X127244044Y-73969778D01*
X127232845Y-73942742D01*
X127212152Y-73922049D01*
X127185115Y-73910851D01*
X127155852Y-73910851D01*
X127128816Y-73922050D01*
X127117451Y-73931378D01*
X127079356Y-73969474D01*
X127070029Y-73980839D01*
X127068998Y-73983327D01*
X127067233Y-73985363D01*
X127061239Y-73998789D01*
X127023144Y-74113074D01*
X127021494Y-74120327D01*
X127020736Y-74122159D01*
X127020474Y-74124813D01*
X127019884Y-74127411D01*
X127020024Y-74129385D01*
X127019295Y-74136791D01*
X126930406Y-74136791D01*
X126930406Y-73298696D01*
X127019295Y-73298696D01*
X127019295Y-73451077D01*
X127020736Y-73465709D01*
X127021767Y-73468198D01*
X127021958Y-73470886D01*
X127027213Y-73484618D01*
X127065308Y-73560809D01*
X127069272Y-73567108D01*
X127070030Y-73568936D01*
X127071718Y-73570992D01*
X127073140Y-73573252D01*
X127074638Y-73574551D01*
X127079357Y-73580301D01*
X127117452Y-73618396D01*
X127117490Y-73618427D01*
X127117507Y-73618452D01*
X127123383Y-73623264D01*
X127128817Y-73627723D01*
X127128841Y-73627733D01*
X127128883Y-73627767D01*
X127243168Y-73703957D01*
X127251246Y-73708263D01*
X127252735Y-73709367D01*
X127254494Y-73709995D01*
X127256142Y-73710874D01*
X127257957Y-73711233D01*
X127266580Y-73714314D01*
X127418962Y-73752410D01*
X127421498Y-73752785D01*
X127422520Y-73753208D01*
X127428032Y-73753750D01*
X127433506Y-73754560D01*
X127434598Y-73754397D01*
X127437152Y-73754649D01*
X127741914Y-73754649D01*
X127756546Y-73753208D01*
X127759034Y-73752177D01*
X127761724Y-73751986D01*
X127775456Y-73746731D01*
X127851645Y-73708635D01*
X127857939Y-73704672D01*
X127859771Y-73703914D01*
X127861834Y-73702220D01*
X127864088Y-73700802D01*
X127865384Y-73699307D01*
X127871136Y-73694587D01*
X127909232Y-73656492D01*
X127913952Y-73650740D01*
X127915450Y-73649442D01*
X127916869Y-73647186D01*
X127918560Y-73645127D01*
X127919318Y-73643296D01*
X127923282Y-73636999D01*
X127961377Y-73560809D01*
X127966632Y-73547077D01*
X127966822Y-73544389D01*
X127967854Y-73541900D01*
X127969295Y-73527268D01*
X127969295Y-73374887D01*
X127967854Y-73360255D01*
X127966822Y-73357765D01*
X127966632Y-73355078D01*
X127961377Y-73341346D01*
X127923282Y-73265155D01*
X127919318Y-73258857D01*
X127918560Y-73257027D01*
X127916869Y-73254967D01*
X127915450Y-73252712D01*
X127913952Y-73251413D01*
X127909232Y-73245662D01*
X127871136Y-73207567D01*
X127865387Y-73202849D01*
X127864088Y-73201351D01*
X127861829Y-73199929D01*
X127859771Y-73198240D01*
X127857941Y-73197482D01*
X127851645Y-73193519D01*
X127775455Y-73155424D01*
X127761723Y-73150169D01*
X127759035Y-73149978D01*
X127756546Y-73148947D01*
X127741914Y-73147506D01*
X127551438Y-73147506D01*
X127536806Y-73148947D01*
X127534316Y-73149978D01*
X127531629Y-73150169D01*
X127517897Y-73155424D01*
X127441706Y-73193519D01*
X127435406Y-73197483D01*
X127433579Y-73198241D01*
X127431522Y-73199929D01*
X127429263Y-73201351D01*
X127427963Y-73202849D01*
X127422214Y-73207568D01*
X127384119Y-73245663D01*
X127379400Y-73251412D01*
X127377902Y-73252712D01*
X127376480Y-73254971D01*
X127374792Y-73257028D01*
X127374034Y-73258855D01*
X127370070Y-73265155D01*
X127331975Y-73341346D01*
X127326720Y-73355078D01*
X127326529Y-73357765D01*
X127325498Y-73360255D01*
X127324057Y-73374887D01*
X127324057Y-73527268D01*
X127325498Y-73541900D01*
X127326529Y-73544389D01*
X127326720Y-73547077D01*
X127331975Y-73560809D01*
X127340681Y-73578222D01*
X127315562Y-73571942D01*
X127218266Y-73507078D01*
X127194029Y-73482841D01*
X127169295Y-73433372D01*
X127169295Y-73298696D01*
X127167854Y-73284064D01*
X127156655Y-73257028D01*
X127135963Y-73236336D01*
X127108927Y-73225137D01*
X127079663Y-73225137D01*
X127052627Y-73236336D01*
X127031935Y-73257028D01*
X127020736Y-73284064D01*
X127019295Y-73298696D01*
X126930406Y-73298696D01*
X126930406Y-72079648D01*
X127019295Y-72079648D01*
X127019295Y-72270124D01*
X127020736Y-72284756D01*
X127031935Y-72311792D01*
X127052627Y-72332484D01*
X127079663Y-72343683D01*
X127094295Y-72345124D01*
X127894295Y-72345124D01*
X127908927Y-72343683D01*
X127935963Y-72332484D01*
X127956655Y-72311792D01*
X127967854Y-72284756D01*
X127969295Y-72270124D01*
X127969295Y-72079648D01*
X127968565Y-72072242D01*
X127968706Y-72070268D01*
X127968115Y-72067670D01*
X127967854Y-72065016D01*
X127967095Y-72063184D01*
X127965446Y-72055931D01*
X127927351Y-71941645D01*
X127921357Y-71928220D01*
X127919591Y-71926184D01*
X127918560Y-71923694D01*
X127909233Y-71912329D01*
X127833042Y-71836139D01*
X127827292Y-71831420D01*
X127825993Y-71829922D01*
X127823734Y-71828500D01*
X127821676Y-71826811D01*
X127819846Y-71826053D01*
X127813550Y-71822090D01*
X127737360Y-71783995D01*
X127736290Y-71783585D01*
X127735855Y-71783263D01*
X127729703Y-71781064D01*
X127723628Y-71778740D01*
X127723089Y-71778701D01*
X127722010Y-71778316D01*
X127569629Y-71740220D01*
X127567090Y-71739844D01*
X127566070Y-71739422D01*
X127560558Y-71738879D01*
X127555084Y-71738070D01*
X127553991Y-71738232D01*
X127551438Y-71737981D01*
X127437152Y-71737981D01*
X127434598Y-71738232D01*
X127433506Y-71738070D01*
X127428032Y-71738879D01*
X127422520Y-71739422D01*
X127421498Y-71739844D01*
X127418962Y-71740220D01*
X127266580Y-71778316D01*
X127265500Y-71778701D01*
X127264962Y-71778740D01*
X127258886Y-71781064D01*
X127252735Y-71783263D01*
X127252299Y-71783585D01*
X127251230Y-71783995D01*
X127175039Y-71822090D01*
X127168744Y-71826052D01*
X127166912Y-71826811D01*
X127164850Y-71828502D01*
X127162596Y-71829922D01*
X127161297Y-71831418D01*
X127155547Y-71836139D01*
X127079357Y-71912329D01*
X127070030Y-71923694D01*
X127068998Y-71926184D01*
X127067233Y-71928220D01*
X127061239Y-71941645D01*
X127023144Y-72055931D01*
X127021494Y-72063184D01*
X127020736Y-72065016D01*
X127020474Y-72067670D01*
X127019884Y-72070268D01*
X127020024Y-72072242D01*
X127019295Y-72079648D01*
X126930406Y-72079648D01*
X126930406Y-71089172D01*
X127019295Y-71089172D01*
X127019295Y-71470124D01*
X127020736Y-71484756D01*
X127031935Y-71511792D01*
X127052627Y-71532484D01*
X127079663Y-71543683D01*
X127094295Y-71545124D01*
X127894295Y-71545124D01*
X127908927Y-71543683D01*
X127935963Y-71532484D01*
X127956655Y-71511792D01*
X127967854Y-71484756D01*
X127969295Y-71470124D01*
X127969295Y-71089172D01*
X127967854Y-71074540D01*
X127956655Y-71047504D01*
X127935963Y-71026812D01*
X127908927Y-71015613D01*
X127879663Y-71015613D01*
X127852627Y-71026812D01*
X127831935Y-71047504D01*
X127820736Y-71074540D01*
X127819295Y-71089172D01*
X127819295Y-71395124D01*
X127550247Y-71395124D01*
X127550247Y-71203458D01*
X127548806Y-71188826D01*
X127537607Y-71161790D01*
X127516915Y-71141098D01*
X127489879Y-71129899D01*
X127460615Y-71129899D01*
X127433579Y-71141098D01*
X127412887Y-71161790D01*
X127401688Y-71188826D01*
X127400247Y-71203458D01*
X127400247Y-71395124D01*
X127169295Y-71395124D01*
X127169295Y-71089172D01*
X127167854Y-71074540D01*
X127156655Y-71047504D01*
X127135963Y-71026812D01*
X127108927Y-71015613D01*
X127079663Y-71015613D01*
X127052627Y-71026812D01*
X127031935Y-71047504D01*
X127020736Y-71074540D01*
X127019295Y-71089172D01*
X126930406Y-71089172D01*
X126930406Y-70317887D01*
X127019884Y-70317887D01*
X127021959Y-70347077D01*
X127035045Y-70373250D01*
X127057153Y-70392424D01*
X127070578Y-70398418D01*
X127657124Y-70593933D01*
X127070578Y-70789449D01*
X127057152Y-70795443D01*
X127035045Y-70814617D01*
X127021959Y-70840790D01*
X127019884Y-70869980D01*
X127029138Y-70897743D01*
X127048312Y-70919850D01*
X127074485Y-70932936D01*
X127103675Y-70935011D01*
X127118012Y-70931751D01*
X127918012Y-70665084D01*
X127931437Y-70659090D01*
X127935482Y-70655581D01*
X127940279Y-70653183D01*
X127946443Y-70646074D01*
X127953545Y-70639916D01*
X127955940Y-70635124D01*
X127959452Y-70631076D01*
X127962426Y-70622152D01*
X127966631Y-70613743D01*
X127967010Y-70608398D01*
X127968706Y-70603313D01*
X127968039Y-70593930D01*
X127968706Y-70584553D01*
X127967011Y-70579470D01*
X127966632Y-70574123D01*
X127962425Y-70565709D01*
X127959452Y-70556790D01*
X127955941Y-70552742D01*
X127953545Y-70547950D01*
X127946440Y-70541787D01*
X127940278Y-70534683D01*
X127935486Y-70532287D01*
X127931438Y-70528776D01*
X127918012Y-70522782D01*
X127118012Y-70256116D01*
X127103675Y-70252856D01*
X127074485Y-70254931D01*
X127048312Y-70268017D01*
X127029138Y-70290125D01*
X127019884Y-70317887D01*
X126930406Y-70317887D01*
X126930406Y-69588826D01*
X127020736Y-69588826D01*
X127020736Y-69618088D01*
X127031935Y-69645125D01*
X127041262Y-69656490D01*
X127370372Y-69985600D01*
X127094295Y-69985600D01*
X127079663Y-69987041D01*
X127052627Y-69998240D01*
X127031935Y-70018932D01*
X127020736Y-70045968D01*
X127020736Y-70075232D01*
X127031935Y-70102268D01*
X127052627Y-70122960D01*
X127079663Y-70134159D01*
X127094295Y-70135600D01*
X127894295Y-70135600D01*
X127908927Y-70134159D01*
X127935963Y-70122960D01*
X127956655Y-70102268D01*
X127967854Y-70075232D01*
X127967854Y-70045968D01*
X127956655Y-70018932D01*
X127935963Y-69998240D01*
X127908927Y-69987041D01*
X127894295Y-69985600D01*
X127582504Y-69985600D01*
X127551333Y-69954429D01*
X127939295Y-69663457D01*
X127950136Y-69653525D01*
X127965045Y-69628344D01*
X127969184Y-69599375D01*
X127961921Y-69571027D01*
X127944363Y-69547616D01*
X127919182Y-69532707D01*
X127890213Y-69528568D01*
X127861865Y-69535831D01*
X127849295Y-69543457D01*
X127444190Y-69847286D01*
X127147328Y-69550424D01*
X127135963Y-69541097D01*
X127108926Y-69529898D01*
X127079664Y-69529898D01*
X127052627Y-69541097D01*
X127031935Y-69561789D01*
X127020736Y-69588826D01*
X126930406Y-69588826D01*
X126930406Y-69245968D01*
X127020736Y-69245968D01*
X127020736Y-69275232D01*
X127031935Y-69302268D01*
X127052627Y-69322960D01*
X127079663Y-69334159D01*
X127094295Y-69335600D01*
X127894295Y-69335600D01*
X127908927Y-69334159D01*
X127935963Y-69322960D01*
X127956655Y-69302268D01*
X127967854Y-69275232D01*
X127967854Y-69245968D01*
X127956655Y-69218932D01*
X127935963Y-69198240D01*
X127908927Y-69187041D01*
X127894295Y-69185600D01*
X127094295Y-69185600D01*
X127079663Y-69187041D01*
X127052627Y-69198240D01*
X127031935Y-69218932D01*
X127020736Y-69245968D01*
X126930406Y-69245968D01*
X126930406Y-68536791D01*
X127019295Y-68536791D01*
X127019295Y-68993934D01*
X127020736Y-69008566D01*
X127031935Y-69035602D01*
X127052627Y-69056294D01*
X127079663Y-69067493D01*
X127108927Y-69067493D01*
X127135963Y-69056294D01*
X127156655Y-69035602D01*
X127167854Y-69008566D01*
X127169295Y-68993934D01*
X127169295Y-68840363D01*
X127894295Y-68840363D01*
X127908927Y-68838922D01*
X127935963Y-68827723D01*
X127956655Y-68807031D01*
X127967854Y-68779995D01*
X127967854Y-68750731D01*
X127956655Y-68723695D01*
X127935963Y-68703003D01*
X127908927Y-68691804D01*
X127894295Y-68690363D01*
X127169295Y-68690363D01*
X127169295Y-68536791D01*
X127167854Y-68522159D01*
X127156655Y-68495123D01*
X127135963Y-68474431D01*
X127108927Y-68463232D01*
X127079663Y-68463232D01*
X127052627Y-68474431D01*
X127031935Y-68495123D01*
X127020736Y-68522159D01*
X127019295Y-68536791D01*
X126930406Y-68536791D01*
X126930406Y-67965362D01*
X127019295Y-67965362D01*
X127019295Y-68041553D01*
X127020024Y-68048958D01*
X127019884Y-68050933D01*
X127020474Y-68053530D01*
X127020736Y-68056185D01*
X127021494Y-68058016D01*
X127023144Y-68065270D01*
X127061239Y-68179556D01*
X127067233Y-68192981D01*
X127068998Y-68195016D01*
X127070030Y-68197507D01*
X127079357Y-68208872D01*
X127155547Y-68285062D01*
X127161297Y-68289782D01*
X127162596Y-68291279D01*
X127164850Y-68292698D01*
X127166912Y-68294390D01*
X127168744Y-68295148D01*
X127175039Y-68299111D01*
X127251230Y-68337206D01*
X127252299Y-68337615D01*
X127252735Y-68337938D01*
X127258886Y-68340136D01*
X127264962Y-68342461D01*
X127265500Y-68342499D01*
X127266580Y-68342885D01*
X127418962Y-68380981D01*
X127421498Y-68381356D01*
X127422520Y-68381779D01*
X127428032Y-68382321D01*
X127433506Y-68383131D01*
X127434598Y-68382968D01*
X127437152Y-68383220D01*
X127551438Y-68383220D01*
X127553991Y-68382968D01*
X127555084Y-68383131D01*
X127560558Y-68382321D01*
X127566070Y-68381779D01*
X127567090Y-68381356D01*
X127569629Y-68380981D01*
X127722010Y-68342885D01*
X127723089Y-68342499D01*
X127723628Y-68342461D01*
X127729703Y-68340136D01*
X127735855Y-68337938D01*
X127736290Y-68337615D01*
X127737360Y-68337206D01*
X127813550Y-68299111D01*
X127819846Y-68295147D01*
X127821676Y-68294390D01*
X127823734Y-68292700D01*
X127825993Y-68291279D01*
X127827292Y-68289780D01*
X127833042Y-68285062D01*
X127909233Y-68208872D01*
X127918560Y-68197507D01*
X127919591Y-68195016D01*
X127921357Y-68192981D01*
X127927351Y-68179556D01*
X127965446Y-68065270D01*
X127967095Y-68058016D01*
X127967854Y-68056185D01*
X127968115Y-68053530D01*
X127968706Y-68050933D01*
X127968565Y-68048958D01*
X127969295Y-68041553D01*
X127969295Y-67965362D01*
X127968565Y-67957956D01*
X127968706Y-67955982D01*
X127968115Y-67953384D01*
X127967854Y-67950730D01*
X127967095Y-67948898D01*
X127965446Y-67941645D01*
X127927351Y-67827360D01*
X127921357Y-67813934D01*
X127919592Y-67811899D01*
X127918561Y-67809409D01*
X127909233Y-67798044D01*
X127871137Y-67759948D01*
X127859772Y-67750621D01*
X127832735Y-67739422D01*
X127803473Y-67739422D01*
X127776436Y-67750621D01*
X127755744Y-67771313D01*
X127744545Y-67798350D01*
X127744545Y-67827612D01*
X127755744Y-67854649D01*
X127765071Y-67866014D01*
X127790648Y-67891591D01*
X127819295Y-67977532D01*
X127819295Y-68029383D01*
X127790648Y-68115324D01*
X127735582Y-68170389D01*
X127677642Y-68199359D01*
X127542203Y-68233220D01*
X127446387Y-68233220D01*
X127310945Y-68199359D01*
X127253006Y-68170389D01*
X127197942Y-68115325D01*
X127169295Y-68029383D01*
X127169295Y-67977532D01*
X127197942Y-67891590D01*
X127223519Y-67866013D01*
X127232846Y-67854648D01*
X127244044Y-67827612D01*
X127244044Y-67798349D01*
X127232845Y-67771313D01*
X127212152Y-67750620D01*
X127185115Y-67739422D01*
X127155852Y-67739422D01*
X127128816Y-67750621D01*
X127117451Y-67759949D01*
X127079356Y-67798045D01*
X127070029Y-67809410D01*
X127068998Y-67811898D01*
X127067233Y-67813934D01*
X127061239Y-67827360D01*
X127023144Y-67941645D01*
X127021494Y-67948898D01*
X127020736Y-67950730D01*
X127020474Y-67953384D01*
X127019884Y-67955982D01*
X127020024Y-67957956D01*
X127019295Y-67965362D01*
X126930406Y-67965362D01*
X126930406Y-67650533D01*
X128058184Y-67650533D01*
X128058184Y-79405443D01*
G37*
X132262295Y-93533332D02*
X131881342Y-93799999D01*
X132262295Y-93990475D02*
X131462295Y-93990475D01*
X131462295Y-93990475D02*
X131462295Y-93685713D01*
X131462295Y-93685713D02*
X131500390Y-93609523D01*
X131500390Y-93609523D02*
X131538485Y-93571428D01*
X131538485Y-93571428D02*
X131614676Y-93533332D01*
X131614676Y-93533332D02*
X131728961Y-93533332D01*
X131728961Y-93533332D02*
X131805152Y-93571428D01*
X131805152Y-93571428D02*
X131843247Y-93609523D01*
X131843247Y-93609523D02*
X131881342Y-93685713D01*
X131881342Y-93685713D02*
X131881342Y-93990475D01*
X132262295Y-92771428D02*
X132262295Y-93228571D01*
X132262295Y-92999999D02*
X131462295Y-92999999D01*
X131462295Y-92999999D02*
X131576580Y-93076190D01*
X131576580Y-93076190D02*
X131652771Y-93152380D01*
X131652771Y-93152380D02*
X131690866Y-93228571D01*
X134286104Y-93533332D02*
X134324200Y-93571428D01*
X134324200Y-93571428D02*
X134362295Y-93685713D01*
X134362295Y-93685713D02*
X134362295Y-93761904D01*
X134362295Y-93761904D02*
X134324200Y-93876190D01*
X134324200Y-93876190D02*
X134248009Y-93952380D01*
X134248009Y-93952380D02*
X134171819Y-93990475D01*
X134171819Y-93990475D02*
X134019438Y-94028571D01*
X134019438Y-94028571D02*
X133905152Y-94028571D01*
X133905152Y-94028571D02*
X133752771Y-93990475D01*
X133752771Y-93990475D02*
X133676580Y-93952380D01*
X133676580Y-93952380D02*
X133600390Y-93876190D01*
X133600390Y-93876190D02*
X133562295Y-93761904D01*
X133562295Y-93761904D02*
X133562295Y-93685713D01*
X133562295Y-93685713D02*
X133600390Y-93571428D01*
X133600390Y-93571428D02*
X133638485Y-93533332D01*
X133638485Y-93228571D02*
X133600390Y-93190475D01*
X133600390Y-93190475D02*
X133562295Y-93114285D01*
X133562295Y-93114285D02*
X133562295Y-92923809D01*
X133562295Y-92923809D02*
X133600390Y-92847618D01*
X133600390Y-92847618D02*
X133638485Y-92809523D01*
X133638485Y-92809523D02*
X133714676Y-92771428D01*
X133714676Y-92771428D02*
X133790866Y-92771428D01*
X133790866Y-92771428D02*
X133905152Y-92809523D01*
X133905152Y-92809523D02*
X134362295Y-93266666D01*
X134362295Y-93266666D02*
X134362295Y-92771428D01*
X138286104Y-93533332D02*
X138324200Y-93571428D01*
X138324200Y-93571428D02*
X138362295Y-93685713D01*
X138362295Y-93685713D02*
X138362295Y-93761904D01*
X138362295Y-93761904D02*
X138324200Y-93876190D01*
X138324200Y-93876190D02*
X138248009Y-93952380D01*
X138248009Y-93952380D02*
X138171819Y-93990475D01*
X138171819Y-93990475D02*
X138019438Y-94028571D01*
X138019438Y-94028571D02*
X137905152Y-94028571D01*
X137905152Y-94028571D02*
X137752771Y-93990475D01*
X137752771Y-93990475D02*
X137676580Y-93952380D01*
X137676580Y-93952380D02*
X137600390Y-93876190D01*
X137600390Y-93876190D02*
X137562295Y-93761904D01*
X137562295Y-93761904D02*
X137562295Y-93685713D01*
X137562295Y-93685713D02*
X137600390Y-93571428D01*
X137600390Y-93571428D02*
X137638485Y-93533332D01*
X137562295Y-93266666D02*
X137562295Y-92771428D01*
X137562295Y-92771428D02*
X137867057Y-93038094D01*
X137867057Y-93038094D02*
X137867057Y-92923809D01*
X137867057Y-92923809D02*
X137905152Y-92847618D01*
X137905152Y-92847618D02*
X137943247Y-92809523D01*
X137943247Y-92809523D02*
X138019438Y-92771428D01*
X138019438Y-92771428D02*
X138209914Y-92771428D01*
X138209914Y-92771428D02*
X138286104Y-92809523D01*
X138286104Y-92809523D02*
X138324200Y-92847618D01*
X138324200Y-92847618D02*
X138362295Y-92923809D01*
X138362295Y-92923809D02*
X138362295Y-93152380D01*
X138362295Y-93152380D02*
X138324200Y-93228571D01*
X138324200Y-93228571D02*
X138286104Y-93266666D01*
X128362295Y-93533332D02*
X127981342Y-93799999D01*
X128362295Y-93990475D02*
X127562295Y-93990475D01*
X127562295Y-93990475D02*
X127562295Y-93685713D01*
X127562295Y-93685713D02*
X127600390Y-93609523D01*
X127600390Y-93609523D02*
X127638485Y-93571428D01*
X127638485Y-93571428D02*
X127714676Y-93533332D01*
X127714676Y-93533332D02*
X127828961Y-93533332D01*
X127828961Y-93533332D02*
X127905152Y-93571428D01*
X127905152Y-93571428D02*
X127943247Y-93609523D01*
X127943247Y-93609523D02*
X127981342Y-93685713D01*
X127981342Y-93685713D02*
X127981342Y-93990475D01*
X127562295Y-93266666D02*
X127562295Y-92733332D01*
X127562295Y-92733332D02*
X128362295Y-93076190D01*
X144362295Y-93533332D02*
X143981342Y-93799999D01*
X144362295Y-93990475D02*
X143562295Y-93990475D01*
X143562295Y-93990475D02*
X143562295Y-93685713D01*
X143562295Y-93685713D02*
X143600390Y-93609523D01*
X143600390Y-93609523D02*
X143638485Y-93571428D01*
X143638485Y-93571428D02*
X143714676Y-93533332D01*
X143714676Y-93533332D02*
X143828961Y-93533332D01*
X143828961Y-93533332D02*
X143905152Y-93571428D01*
X143905152Y-93571428D02*
X143943247Y-93609523D01*
X143943247Y-93609523D02*
X143981342Y-93685713D01*
X143981342Y-93685713D02*
X143981342Y-93990475D01*
X143828961Y-92847618D02*
X144362295Y-92847618D01*
X143524200Y-93038094D02*
X144095628Y-93228571D01*
X144095628Y-93228571D02*
X144095628Y-92733332D01*
X118286104Y-93333332D02*
X118324200Y-93371428D01*
X118324200Y-93371428D02*
X118362295Y-93485713D01*
X118362295Y-93485713D02*
X118362295Y-93561904D01*
X118362295Y-93561904D02*
X118324200Y-93676190D01*
X118324200Y-93676190D02*
X118248009Y-93752380D01*
X118248009Y-93752380D02*
X118171819Y-93790475D01*
X118171819Y-93790475D02*
X118019438Y-93828571D01*
X118019438Y-93828571D02*
X117905152Y-93828571D01*
X117905152Y-93828571D02*
X117752771Y-93790475D01*
X117752771Y-93790475D02*
X117676580Y-93752380D01*
X117676580Y-93752380D02*
X117600390Y-93676190D01*
X117600390Y-93676190D02*
X117562295Y-93561904D01*
X117562295Y-93561904D02*
X117562295Y-93485713D01*
X117562295Y-93485713D02*
X117600390Y-93371428D01*
X117600390Y-93371428D02*
X117638485Y-93333332D01*
X117562295Y-92609523D02*
X117562295Y-92990475D01*
X117562295Y-92990475D02*
X117943247Y-93028571D01*
X117943247Y-93028571D02*
X117905152Y-92990475D01*
X117905152Y-92990475D02*
X117867057Y-92914285D01*
X117867057Y-92914285D02*
X117867057Y-92723809D01*
X117867057Y-92723809D02*
X117905152Y-92647618D01*
X117905152Y-92647618D02*
X117943247Y-92609523D01*
X117943247Y-92609523D02*
X118019438Y-92571428D01*
X118019438Y-92571428D02*
X118209914Y-92571428D01*
X118209914Y-92571428D02*
X118286104Y-92609523D01*
X118286104Y-92609523D02*
X118324200Y-92647618D01*
X118324200Y-92647618D02*
X118362295Y-92723809D01*
X118362295Y-92723809D02*
X118362295Y-92914285D01*
X118362295Y-92914285D02*
X118324200Y-92990475D01*
X118324200Y-92990475D02*
X118286104Y-93028571D01*
X122286104Y-93433332D02*
X122324200Y-93471428D01*
X122324200Y-93471428D02*
X122362295Y-93585713D01*
X122362295Y-93585713D02*
X122362295Y-93661904D01*
X122362295Y-93661904D02*
X122324200Y-93776190D01*
X122324200Y-93776190D02*
X122248009Y-93852380D01*
X122248009Y-93852380D02*
X122171819Y-93890475D01*
X122171819Y-93890475D02*
X122019438Y-93928571D01*
X122019438Y-93928571D02*
X121905152Y-93928571D01*
X121905152Y-93928571D02*
X121752771Y-93890475D01*
X121752771Y-93890475D02*
X121676580Y-93852380D01*
X121676580Y-93852380D02*
X121600390Y-93776190D01*
X121600390Y-93776190D02*
X121562295Y-93661904D01*
X121562295Y-93661904D02*
X121562295Y-93585713D01*
X121562295Y-93585713D02*
X121600390Y-93471428D01*
X121600390Y-93471428D02*
X121638485Y-93433332D01*
X121562295Y-92747618D02*
X121562295Y-92899999D01*
X121562295Y-92899999D02*
X121600390Y-92976190D01*
X121600390Y-92976190D02*
X121638485Y-93014285D01*
X121638485Y-93014285D02*
X121752771Y-93090475D01*
X121752771Y-93090475D02*
X121905152Y-93128571D01*
X121905152Y-93128571D02*
X122209914Y-93128571D01*
X122209914Y-93128571D02*
X122286104Y-93090475D01*
X122286104Y-93090475D02*
X122324200Y-93052380D01*
X122324200Y-93052380D02*
X122362295Y-92976190D01*
X122362295Y-92976190D02*
X122362295Y-92823809D01*
X122362295Y-92823809D02*
X122324200Y-92747618D01*
X122324200Y-92747618D02*
X122286104Y-92709523D01*
X122286104Y-92709523D02*
X122209914Y-92671428D01*
X122209914Y-92671428D02*
X122019438Y-92671428D01*
X122019438Y-92671428D02*
X121943247Y-92709523D01*
X121943247Y-92709523D02*
X121905152Y-92747618D01*
X121905152Y-92747618D02*
X121867057Y-92823809D01*
X121867057Y-92823809D02*
X121867057Y-92976190D01*
X121867057Y-92976190D02*
X121905152Y-93052380D01*
X121905152Y-93052380D02*
X121943247Y-93090475D01*
X121943247Y-93090475D02*
X122019438Y-93128571D01*
X126286104Y-93533332D02*
X126324200Y-93571428D01*
X126324200Y-93571428D02*
X126362295Y-93685713D01*
X126362295Y-93685713D02*
X126362295Y-93761904D01*
X126362295Y-93761904D02*
X126324200Y-93876190D01*
X126324200Y-93876190D02*
X126248009Y-93952380D01*
X126248009Y-93952380D02*
X126171819Y-93990475D01*
X126171819Y-93990475D02*
X126019438Y-94028571D01*
X126019438Y-94028571D02*
X125905152Y-94028571D01*
X125905152Y-94028571D02*
X125752771Y-93990475D01*
X125752771Y-93990475D02*
X125676580Y-93952380D01*
X125676580Y-93952380D02*
X125600390Y-93876190D01*
X125600390Y-93876190D02*
X125562295Y-93761904D01*
X125562295Y-93761904D02*
X125562295Y-93685713D01*
X125562295Y-93685713D02*
X125600390Y-93571428D01*
X125600390Y-93571428D02*
X125638485Y-93533332D01*
X125562295Y-93266666D02*
X125562295Y-92733332D01*
X125562295Y-92733332D02*
X126362295Y-93076190D01*
X146733333Y-48062295D02*
X146733333Y-48633723D01*
X146733333Y-48633723D02*
X146695238Y-48748009D01*
X146695238Y-48748009D02*
X146619047Y-48824200D01*
X146619047Y-48824200D02*
X146504762Y-48862295D01*
X146504762Y-48862295D02*
X146428571Y-48862295D01*
X147076190Y-48138485D02*
X147114286Y-48100390D01*
X147114286Y-48100390D02*
X147190476Y-48062295D01*
X147190476Y-48062295D02*
X147380952Y-48062295D01*
X147380952Y-48062295D02*
X147457143Y-48100390D01*
X147457143Y-48100390D02*
X147495238Y-48138485D01*
X147495238Y-48138485D02*
X147533333Y-48214676D01*
X147533333Y-48214676D02*
X147533333Y-48290866D01*
X147533333Y-48290866D02*
X147495238Y-48405152D01*
X147495238Y-48405152D02*
X147038095Y-48862295D01*
X147038095Y-48862295D02*
X147533333Y-48862295D01*
X116490476Y-49862295D02*
X116490476Y-50509914D01*
X116490476Y-50509914D02*
X116528571Y-50586104D01*
X116528571Y-50586104D02*
X116566666Y-50624200D01*
X116566666Y-50624200D02*
X116642857Y-50662295D01*
X116642857Y-50662295D02*
X116795238Y-50662295D01*
X116795238Y-50662295D02*
X116871428Y-50624200D01*
X116871428Y-50624200D02*
X116909523Y-50586104D01*
X116909523Y-50586104D02*
X116947619Y-50509914D01*
X116947619Y-50509914D02*
X116947619Y-49862295D01*
X117747618Y-50662295D02*
X117290475Y-50662295D01*
X117519047Y-50662295D02*
X117519047Y-49862295D01*
X117519047Y-49862295D02*
X117442856Y-49976580D01*
X117442856Y-49976580D02*
X117366666Y-50052771D01*
X117366666Y-50052771D02*
X117290475Y-50090866D01*
X150713333Y-84562295D02*
X150713333Y-85133723D01*
X150713333Y-85133723D02*
X150675238Y-85248009D01*
X150675238Y-85248009D02*
X150599047Y-85324200D01*
X150599047Y-85324200D02*
X150484762Y-85362295D01*
X150484762Y-85362295D02*
X150408571Y-85362295D01*
X151513333Y-85362295D02*
X151056190Y-85362295D01*
X151284762Y-85362295D02*
X151284762Y-84562295D01*
X151284762Y-84562295D02*
X151208571Y-84676580D01*
X151208571Y-84676580D02*
X151132381Y-84752771D01*
X151132381Y-84752771D02*
X151056190Y-84790866D01*
X120066667Y-50486104D02*
X120028571Y-50524200D01*
X120028571Y-50524200D02*
X119914286Y-50562295D01*
X119914286Y-50562295D02*
X119838095Y-50562295D01*
X119838095Y-50562295D02*
X119723809Y-50524200D01*
X119723809Y-50524200D02*
X119647619Y-50448009D01*
X119647619Y-50448009D02*
X119609524Y-50371819D01*
X119609524Y-50371819D02*
X119571428Y-50219438D01*
X119571428Y-50219438D02*
X119571428Y-50105152D01*
X119571428Y-50105152D02*
X119609524Y-49952771D01*
X119609524Y-49952771D02*
X119647619Y-49876580D01*
X119647619Y-49876580D02*
X119723809Y-49800390D01*
X119723809Y-49800390D02*
X119838095Y-49762295D01*
X119838095Y-49762295D02*
X119914286Y-49762295D01*
X119914286Y-49762295D02*
X120028571Y-49800390D01*
X120028571Y-49800390D02*
X120066667Y-49838485D01*
X120523809Y-50105152D02*
X120447619Y-50067057D01*
X120447619Y-50067057D02*
X120409524Y-50028961D01*
X120409524Y-50028961D02*
X120371428Y-49952771D01*
X120371428Y-49952771D02*
X120371428Y-49914676D01*
X120371428Y-49914676D02*
X120409524Y-49838485D01*
X120409524Y-49838485D02*
X120447619Y-49800390D01*
X120447619Y-49800390D02*
X120523809Y-49762295D01*
X120523809Y-49762295D02*
X120676190Y-49762295D01*
X120676190Y-49762295D02*
X120752381Y-49800390D01*
X120752381Y-49800390D02*
X120790476Y-49838485D01*
X120790476Y-49838485D02*
X120828571Y-49914676D01*
X120828571Y-49914676D02*
X120828571Y-49952771D01*
X120828571Y-49952771D02*
X120790476Y-50028961D01*
X120790476Y-50028961D02*
X120752381Y-50067057D01*
X120752381Y-50067057D02*
X120676190Y-50105152D01*
X120676190Y-50105152D02*
X120523809Y-50105152D01*
X120523809Y-50105152D02*
X120447619Y-50143247D01*
X120447619Y-50143247D02*
X120409524Y-50181342D01*
X120409524Y-50181342D02*
X120371428Y-50257533D01*
X120371428Y-50257533D02*
X120371428Y-50409914D01*
X120371428Y-50409914D02*
X120409524Y-50486104D01*
X120409524Y-50486104D02*
X120447619Y-50524200D01*
X120447619Y-50524200D02*
X120523809Y-50562295D01*
X120523809Y-50562295D02*
X120676190Y-50562295D01*
X120676190Y-50562295D02*
X120752381Y-50524200D01*
X120752381Y-50524200D02*
X120790476Y-50486104D01*
X120790476Y-50486104D02*
X120828571Y-50409914D01*
X120828571Y-50409914D02*
X120828571Y-50257533D01*
X120828571Y-50257533D02*
X120790476Y-50181342D01*
X120790476Y-50181342D02*
X120752381Y-50143247D01*
X120752381Y-50143247D02*
X120676190Y-50105152D01*
X150733333Y-61562295D02*
X150733333Y-62133723D01*
X150733333Y-62133723D02*
X150695238Y-62248009D01*
X150695238Y-62248009D02*
X150619047Y-62324200D01*
X150619047Y-62324200D02*
X150504762Y-62362295D01*
X150504762Y-62362295D02*
X150428571Y-62362295D01*
X151038095Y-61562295D02*
X151533333Y-61562295D01*
X151533333Y-61562295D02*
X151266667Y-61867057D01*
X151266667Y-61867057D02*
X151380952Y-61867057D01*
X151380952Y-61867057D02*
X151457143Y-61905152D01*
X151457143Y-61905152D02*
X151495238Y-61943247D01*
X151495238Y-61943247D02*
X151533333Y-62019438D01*
X151533333Y-62019438D02*
X151533333Y-62209914D01*
X151533333Y-62209914D02*
X151495238Y-62286104D01*
X151495238Y-62286104D02*
X151457143Y-62324200D01*
X151457143Y-62324200D02*
X151380952Y-62362295D01*
X151380952Y-62362295D02*
X151152381Y-62362295D01*
X151152381Y-62362295D02*
X151076190Y-62324200D01*
X151076190Y-62324200D02*
X151038095Y-62286104D01*
X130286104Y-93533332D02*
X130324200Y-93571428D01*
X130324200Y-93571428D02*
X130362295Y-93685713D01*
X130362295Y-93685713D02*
X130362295Y-93761904D01*
X130362295Y-93761904D02*
X130324200Y-93876190D01*
X130324200Y-93876190D02*
X130248009Y-93952380D01*
X130248009Y-93952380D02*
X130171819Y-93990475D01*
X130171819Y-93990475D02*
X130019438Y-94028571D01*
X130019438Y-94028571D02*
X129905152Y-94028571D01*
X129905152Y-94028571D02*
X129752771Y-93990475D01*
X129752771Y-93990475D02*
X129676580Y-93952380D01*
X129676580Y-93952380D02*
X129600390Y-93876190D01*
X129600390Y-93876190D02*
X129562295Y-93761904D01*
X129562295Y-93761904D02*
X129562295Y-93685713D01*
X129562295Y-93685713D02*
X129600390Y-93571428D01*
X129600390Y-93571428D02*
X129638485Y-93533332D01*
X130362295Y-92771428D02*
X130362295Y-93228571D01*
X130362295Y-92999999D02*
X129562295Y-92999999D01*
X129562295Y-92999999D02*
X129676580Y-93076190D01*
X129676580Y-93076190D02*
X129752771Y-93152380D01*
X129752771Y-93152380D02*
X129790866Y-93228571D01*
X124362295Y-93533332D02*
X123981342Y-93799999D01*
X124362295Y-93990475D02*
X123562295Y-93990475D01*
X123562295Y-93990475D02*
X123562295Y-93685713D01*
X123562295Y-93685713D02*
X123600390Y-93609523D01*
X123600390Y-93609523D02*
X123638485Y-93571428D01*
X123638485Y-93571428D02*
X123714676Y-93533332D01*
X123714676Y-93533332D02*
X123828961Y-93533332D01*
X123828961Y-93533332D02*
X123905152Y-93571428D01*
X123905152Y-93571428D02*
X123943247Y-93609523D01*
X123943247Y-93609523D02*
X123981342Y-93685713D01*
X123981342Y-93685713D02*
X123981342Y-93990475D01*
X123562295Y-92847618D02*
X123562295Y-92999999D01*
X123562295Y-92999999D02*
X123600390Y-93076190D01*
X123600390Y-93076190D02*
X123638485Y-93114285D01*
X123638485Y-93114285D02*
X123752771Y-93190475D01*
X123752771Y-93190475D02*
X123905152Y-93228571D01*
X123905152Y-93228571D02*
X124209914Y-93228571D01*
X124209914Y-93228571D02*
X124286104Y-93190475D01*
X124286104Y-93190475D02*
X124324200Y-93152380D01*
X124324200Y-93152380D02*
X124362295Y-93076190D01*
X124362295Y-93076190D02*
X124362295Y-92923809D01*
X124362295Y-92923809D02*
X124324200Y-92847618D01*
X124324200Y-92847618D02*
X124286104Y-92809523D01*
X124286104Y-92809523D02*
X124209914Y-92771428D01*
X124209914Y-92771428D02*
X124019438Y-92771428D01*
X124019438Y-92771428D02*
X123943247Y-92809523D01*
X123943247Y-92809523D02*
X123905152Y-92847618D01*
X123905152Y-92847618D02*
X123867057Y-92923809D01*
X123867057Y-92923809D02*
X123867057Y-93076190D01*
X123867057Y-93076190D02*
X123905152Y-93152380D01*
X123905152Y-93152380D02*
X123943247Y-93190475D01*
X123943247Y-93190475D02*
X124019438Y-93228571D01*
X136362295Y-93533332D02*
X135981342Y-93799999D01*
X136362295Y-93990475D02*
X135562295Y-93990475D01*
X135562295Y-93990475D02*
X135562295Y-93685713D01*
X135562295Y-93685713D02*
X135600390Y-93609523D01*
X135600390Y-93609523D02*
X135638485Y-93571428D01*
X135638485Y-93571428D02*
X135714676Y-93533332D01*
X135714676Y-93533332D02*
X135828961Y-93533332D01*
X135828961Y-93533332D02*
X135905152Y-93571428D01*
X135905152Y-93571428D02*
X135943247Y-93609523D01*
X135943247Y-93609523D02*
X135981342Y-93685713D01*
X135981342Y-93685713D02*
X135981342Y-93990475D01*
X135638485Y-93228571D02*
X135600390Y-93190475D01*
X135600390Y-93190475D02*
X135562295Y-93114285D01*
X135562295Y-93114285D02*
X135562295Y-92923809D01*
X135562295Y-92923809D02*
X135600390Y-92847618D01*
X135600390Y-92847618D02*
X135638485Y-92809523D01*
X135638485Y-92809523D02*
X135714676Y-92771428D01*
X135714676Y-92771428D02*
X135790866Y-92771428D01*
X135790866Y-92771428D02*
X135905152Y-92809523D01*
X135905152Y-92809523D02*
X136362295Y-93266666D01*
X136362295Y-93266666D02*
X136362295Y-92771428D01*
X140362295Y-93533332D02*
X139981342Y-93799999D01*
X140362295Y-93990475D02*
X139562295Y-93990475D01*
X139562295Y-93990475D02*
X139562295Y-93685713D01*
X139562295Y-93685713D02*
X139600390Y-93609523D01*
X139600390Y-93609523D02*
X139638485Y-93571428D01*
X139638485Y-93571428D02*
X139714676Y-93533332D01*
X139714676Y-93533332D02*
X139828961Y-93533332D01*
X139828961Y-93533332D02*
X139905152Y-93571428D01*
X139905152Y-93571428D02*
X139943247Y-93609523D01*
X139943247Y-93609523D02*
X139981342Y-93685713D01*
X139981342Y-93685713D02*
X139981342Y-93990475D01*
X139562295Y-93266666D02*
X139562295Y-92771428D01*
X139562295Y-92771428D02*
X139867057Y-93038094D01*
X139867057Y-93038094D02*
X139867057Y-92923809D01*
X139867057Y-92923809D02*
X139905152Y-92847618D01*
X139905152Y-92847618D02*
X139943247Y-92809523D01*
X139943247Y-92809523D02*
X140019438Y-92771428D01*
X140019438Y-92771428D02*
X140209914Y-92771428D01*
X140209914Y-92771428D02*
X140286104Y-92809523D01*
X140286104Y-92809523D02*
X140324200Y-92847618D01*
X140324200Y-92847618D02*
X140362295Y-92923809D01*
X140362295Y-92923809D02*
X140362295Y-93152380D01*
X140362295Y-93152380D02*
X140324200Y-93228571D01*
X140324200Y-93228571D02*
X140286104Y-93266666D01*
X120362295Y-93333332D02*
X119981342Y-93599999D01*
X120362295Y-93790475D02*
X119562295Y-93790475D01*
X119562295Y-93790475D02*
X119562295Y-93485713D01*
X119562295Y-93485713D02*
X119600390Y-93409523D01*
X119600390Y-93409523D02*
X119638485Y-93371428D01*
X119638485Y-93371428D02*
X119714676Y-93333332D01*
X119714676Y-93333332D02*
X119828961Y-93333332D01*
X119828961Y-93333332D02*
X119905152Y-93371428D01*
X119905152Y-93371428D02*
X119943247Y-93409523D01*
X119943247Y-93409523D02*
X119981342Y-93485713D01*
X119981342Y-93485713D02*
X119981342Y-93790475D01*
X119562295Y-92609523D02*
X119562295Y-92990475D01*
X119562295Y-92990475D02*
X119943247Y-93028571D01*
X119943247Y-93028571D02*
X119905152Y-92990475D01*
X119905152Y-92990475D02*
X119867057Y-92914285D01*
X119867057Y-92914285D02*
X119867057Y-92723809D01*
X119867057Y-92723809D02*
X119905152Y-92647618D01*
X119905152Y-92647618D02*
X119943247Y-92609523D01*
X119943247Y-92609523D02*
X120019438Y-92571428D01*
X120019438Y-92571428D02*
X120209914Y-92571428D01*
X120209914Y-92571428D02*
X120286104Y-92609523D01*
X120286104Y-92609523D02*
X120324200Y-92647618D01*
X120324200Y-92647618D02*
X120362295Y-92723809D01*
X120362295Y-92723809D02*
X120362295Y-92914285D01*
X120362295Y-92914285D02*
X120324200Y-92990475D01*
X120324200Y-92990475D02*
X120286104Y-93028571D01*
X142286104Y-93533332D02*
X142324200Y-93571428D01*
X142324200Y-93571428D02*
X142362295Y-93685713D01*
X142362295Y-93685713D02*
X142362295Y-93761904D01*
X142362295Y-93761904D02*
X142324200Y-93876190D01*
X142324200Y-93876190D02*
X142248009Y-93952380D01*
X142248009Y-93952380D02*
X142171819Y-93990475D01*
X142171819Y-93990475D02*
X142019438Y-94028571D01*
X142019438Y-94028571D02*
X141905152Y-94028571D01*
X141905152Y-94028571D02*
X141752771Y-93990475D01*
X141752771Y-93990475D02*
X141676580Y-93952380D01*
X141676580Y-93952380D02*
X141600390Y-93876190D01*
X141600390Y-93876190D02*
X141562295Y-93761904D01*
X141562295Y-93761904D02*
X141562295Y-93685713D01*
X141562295Y-93685713D02*
X141600390Y-93571428D01*
X141600390Y-93571428D02*
X141638485Y-93533332D01*
X141828961Y-92847618D02*
X142362295Y-92847618D01*
X141524200Y-93038094D02*
X142095628Y-93228571D01*
X142095628Y-93228571D02*
X142095628Y-92733332D01*
%TO.C,REF\u002A\u002A*%
X157800000Y-93000000D02*
G75*
G02*
X148200000Y-93000000I-4800000J0D01*
G01*
X148200000Y-93000000D02*
G75*
G02*
X157800000Y-93000000I4800000J0D01*
G01*
D11*
%TO.C,R1*%
X131400000Y-90562742D02*
X131400000Y-91037258D01*
X132600000Y-90562742D02*
X132600000Y-91037258D01*
%TO.C,C2*%
X133400000Y-90562742D02*
X133400000Y-91037258D01*
X134600000Y-90562742D02*
X134600000Y-91037258D01*
D10*
%TO.C,REF\u002A\u002A*%
X157800000Y-54000000D02*
G75*
G02*
X148200000Y-54000000I-4800000J0D01*
G01*
X148200000Y-54000000D02*
G75*
G02*
X157800000Y-54000000I4800000J0D01*
G01*
X113800000Y-93000000D02*
G75*
G02*
X104200000Y-93000000I-4800000J0D01*
G01*
X104200000Y-93000000D02*
G75*
G02*
X113800000Y-93000000I4800000J0D01*
G01*
X113800000Y-54000000D02*
G75*
G02*
X104200000Y-54000000I-4800000J0D01*
G01*
X104200000Y-54000000D02*
G75*
G02*
X113800000Y-54000000I4800000J0D01*
G01*
D11*
%TO.C,C3*%
X137400000Y-90562742D02*
X137400000Y-91037258D01*
X138600000Y-90562742D02*
X138600000Y-91037258D01*
%TO.C,R7*%
X127400000Y-90562742D02*
X127400000Y-91037258D01*
X128600000Y-90562742D02*
X128600000Y-91037258D01*
%TO.C,R4*%
X143400000Y-90562742D02*
X143400000Y-91037258D01*
X144600000Y-90562742D02*
X144600000Y-91037258D01*
%TO.C,C5*%
X117400000Y-90562742D02*
X117400000Y-91037258D01*
X118600000Y-90562742D02*
X118600000Y-91037258D01*
%TO.C,C6*%
X121400000Y-90562742D02*
X121400000Y-91037258D01*
X122600000Y-90562742D02*
X122600000Y-91037258D01*
%TO.C,C7*%
X125400000Y-90562742D02*
X125400000Y-91037258D01*
X126600000Y-90562742D02*
X126600000Y-91037258D01*
%TO.C,J2*%
X126000000Y-48000000D02*
X126000000Y-56000000D01*
X126000000Y-56000000D02*
X146000000Y-56000000D01*
X146000000Y-48000000D02*
X126000000Y-48000000D01*
X146000000Y-56000000D02*
X146000000Y-48000000D01*
D10*
%TO.C,U1*%
X118100000Y-56700000D02*
X122100000Y-56700000D01*
X122100000Y-51300000D02*
X116500000Y-51300000D01*
D11*
%TO.C,J1*%
X108400000Y-83600000D02*
X149500000Y-83600000D01*
X108400000Y-86600000D02*
X108400000Y-83600000D01*
X108400000Y-86600000D02*
X149500000Y-86600000D01*
X149500000Y-86600000D02*
X149500000Y-83600000D01*
%TO.C,C8*%
X122837258Y-49600000D02*
X122362742Y-49600000D01*
X122837258Y-50800000D02*
X122362742Y-50800000D01*
%TO.C,J3*%
X108400000Y-60600000D02*
X149500000Y-60600000D01*
X108400000Y-63600000D02*
X108400000Y-60600000D01*
X108400000Y-63600000D02*
X149500000Y-63600000D01*
X149500000Y-63600000D02*
X149500000Y-60600000D01*
%TO.C,C1*%
X129400000Y-90562742D02*
X129400000Y-91037258D01*
X130600000Y-90562742D02*
X130600000Y-91037258D01*
%TO.C,R6*%
X123400000Y-90562742D02*
X123400000Y-91037258D01*
X124600000Y-90562742D02*
X124600000Y-91037258D01*
%TO.C,R2*%
X135400000Y-90562742D02*
X135400000Y-91037258D01*
X136600000Y-90562742D02*
X136600000Y-91037258D01*
%TO.C,R3*%
X139400000Y-90562742D02*
X139400000Y-91037258D01*
X140600000Y-90562742D02*
X140600000Y-91037258D01*
%TO.C,R5*%
X119400000Y-90562742D02*
X119400000Y-91037258D01*
X120600000Y-90562742D02*
X120600000Y-91037258D01*
%TO.C,C4*%
X141400000Y-90562742D02*
X141400000Y-91037258D01*
X142600000Y-90562742D02*
X142600000Y-91037258D01*
%TD*%
M02*
