%TF.GenerationSoftware,KiCad,Pcbnew,8.0.4*%
%TF.CreationDate,2024-08-09T00:15:22+02:00*%
%TF.ProjectId,ELE0124CL_control,454c4530-3132-4344-934c-5f636f6e7472,rev?*%
%TF.SameCoordinates,Original*%
%TF.FileFunction,Copper,L4,Bot*%
%TF.FilePolarity,Positive*%
%FSLAX46Y46*%
G04 Gerber Fmt 4.6, Leading zero omitted, Abs format (unit mm)*
G04 Created by KiCad (PCBNEW 8.0.4) date 2024-08-09 00:15:22*
%MOMM*%
%LPD*%
G01*
G04 APERTURE LIST*
G04 Aperture macros list*
%AMRoundRect*
0 Rectangle with rounded corners*
0 $1 Rounding radius*
0 $2 $3 $4 $5 $6 $7 $8 $9 X,Y pos of 4 corners*
0 Add a 4 corners polygon primitive as box body*
4,1,4,$2,$3,$4,$5,$6,$7,$8,$9,$2,$3,0*
0 Add four circle primitives for the rounded corners*
1,1,$1+$1,$2,$3*
1,1,$1+$1,$4,$5*
1,1,$1+$1,$6,$7*
1,1,$1+$1,$8,$9*
0 Add four rect primitives between the rounded corners*
20,1,$1+$1,$2,$3,$4,$5,0*
20,1,$1+$1,$4,$5,$6,$7,0*
20,1,$1+$1,$6,$7,$8,$9,0*
20,1,$1+$1,$8,$9,$2,$3,0*%
G04 Aperture macros list end*
%TA.AperFunction,ComponentPad*%
%ADD10C,1.200000*%
%TD*%
%TA.AperFunction,ComponentPad*%
%ADD11C,8.600000*%
%TD*%
%TA.AperFunction,ComponentPad*%
%ADD12RoundRect,0.043333X-0.606667X0.706667X-0.606667X-0.706667X0.606667X-0.706667X0.606667X0.706667X0*%
%TD*%
%TA.AperFunction,ComponentPad*%
%ADD13O,1.300000X1.500000*%
%TD*%
%TA.AperFunction,ComponentPad*%
%ADD14RoundRect,0.052941X0.847059X-0.947059X0.847059X0.947059X-0.847059X0.947059X-0.847059X-0.947059X0*%
%TD*%
%TA.AperFunction,ComponentPad*%
%ADD15O,1.800000X2.000000*%
%TD*%
%TA.AperFunction,ViaPad*%
%ADD16C,0.600000*%
%TD*%
%TA.AperFunction,Conductor*%
%ADD17C,0.200000*%
%TD*%
G04 APERTURE END LIST*
D10*
%TO.P,REF\u002A\u002A,1*%
%TO.N,N/C*%
X149775000Y-93000000D03*
X150719581Y-90719581D03*
X150719581Y-95280419D03*
X153000000Y-89775000D03*
D11*
X153000000Y-93000000D03*
D10*
X153000000Y-96225000D03*
X155280419Y-90719581D03*
X155280419Y-95280419D03*
X156225000Y-93000000D03*
%TD*%
%TO.P,REF\u002A\u002A,1*%
%TO.N,N/C*%
X149775000Y-54000000D03*
X150719581Y-51719581D03*
X150719581Y-56280419D03*
X153000000Y-50775000D03*
D11*
X153000000Y-54000000D03*
D10*
X153000000Y-57225000D03*
X155280419Y-51719581D03*
X155280419Y-56280419D03*
X156225000Y-54000000D03*
%TD*%
%TO.P,REF\u002A\u002A,1*%
%TO.N,N/C*%
X105775000Y-93000000D03*
X106719581Y-90719581D03*
X106719581Y-95280419D03*
X109000000Y-89775000D03*
D11*
X109000000Y-93000000D03*
D10*
X109000000Y-96225000D03*
X111280419Y-90719581D03*
X111280419Y-95280419D03*
X112225000Y-93000000D03*
%TD*%
%TO.P,REF\u002A\u002A,1*%
%TO.N,N/C*%
X105775000Y-54000000D03*
X106719581Y-51719581D03*
X106719581Y-56280419D03*
X109000000Y-50775000D03*
D11*
X109000000Y-54000000D03*
D10*
X109000000Y-57225000D03*
X111280419Y-51719581D03*
X111280419Y-56280419D03*
X112225000Y-54000000D03*
%TD*%
D12*
%TO.P,J2,1,Pin_1*%
%TO.N,/ADC_3*%
X143000000Y-51000000D03*
D13*
%TO.P,J2,2,Pin_2*%
%TO.N,/ADC_2*%
X143000000Y-53000000D03*
%TO.P,J2,3,Pin_3*%
%TO.N,/ADC_1*%
X141000000Y-51000000D03*
%TO.P,J2,4,Pin_4*%
%TO.N,/ADC_0*%
X141000000Y-53000000D03*
%TO.P,J2,5,Pin_5*%
%TO.N,/ADC_6*%
X139000000Y-51000000D03*
%TO.P,J2,6,Pin_6*%
%TO.N,/ADC_5*%
X139000000Y-53000000D03*
%TO.P,J2,7,Pin_7*%
%TO.N,/ADC_4*%
X137000000Y-51000000D03*
%TO.P,J2,8,Pin_8*%
%TO.N,+3V3*%
X137000000Y-53000000D03*
%TO.P,J2,9,Pin_9*%
%TO.N,/RESET*%
X135000000Y-51000000D03*
%TO.P,J2,10,Pin_10*%
%TO.N,+5V*%
X135000000Y-53000000D03*
%TO.P,J2,11,Pin_11*%
%TO.N,GND*%
X133000000Y-51000000D03*
%TO.P,J2,12,Pin_12*%
X133000000Y-53000000D03*
%TO.P,J2,13,Pin_13*%
%TO.N,/PWM_H2*%
X131000000Y-51000000D03*
%TO.P,J2,14,Pin_14*%
%TO.N,/PWM_L2*%
X131000000Y-53000000D03*
%TO.P,J2,15,Pin_15*%
%TO.N,/PWM_L1*%
X129000000Y-51000000D03*
%TO.P,J2,16,Pin_16*%
%TO.N,/PWM_H1*%
X129000000Y-53000000D03*
%TD*%
D14*
%TO.P,J1,1,Pin_1*%
%TO.N,+3V3*%
X109900000Y-85100000D03*
D15*
%TO.P,J1,2,Pin_2*%
%TO.N,/RESET_IN*%
X112440000Y-85100000D03*
%TO.P,J1,3,Pin_3*%
%TO.N,/ADC_IN_4*%
X114980000Y-85100000D03*
%TO.P,J1,4,Pin_4*%
%TO.N,/ADC_IN_5*%
X117520000Y-85100000D03*
%TO.P,J1,5,Pin_5*%
%TO.N,/ADC_IN_6*%
X120060000Y-85100000D03*
%TO.P,J1,6,Pin_6*%
%TO.N,unconnected-(J1-Pin_6-Pad6)*%
X122600000Y-85100000D03*
%TO.P,J1,7,Pin_7*%
%TO.N,/ADC_IN_0*%
X125140000Y-85100000D03*
%TO.P,J1,8,Pin_8*%
%TO.N,/ADC_IN_1*%
X127680000Y-85100000D03*
%TO.P,J1,9,Pin_9*%
%TO.N,unconnected-(J1-Pin_9-Pad9)*%
X130220000Y-85100000D03*
%TO.P,J1,10,Pin_10*%
%TO.N,unconnected-(J1-Pin_10-Pad10)*%
X132760000Y-85100000D03*
%TO.P,J1,11,Pin_11*%
%TO.N,unconnected-(J1-Pin_11-Pad11)*%
X135300000Y-85100000D03*
%TO.P,J1,12,Pin_12*%
%TO.N,/ADC_IN_2*%
X137840000Y-85100000D03*
%TO.P,J1,13,Pin_13*%
%TO.N,/ADC_IN_3*%
X140380000Y-85100000D03*
%TO.P,J1,14,Pin_14*%
%TO.N,+5V*%
X142920000Y-85100000D03*
%TO.P,J1,15,Pin_15*%
%TO.N,GND*%
X145460000Y-85100000D03*
%TO.P,J1,16,Pin_16*%
%TO.N,unconnected-(J1-Pin_16-Pad16)*%
X148000000Y-85100000D03*
%TD*%
D14*
%TO.P,J3,1,Pin_1*%
%TO.N,GND*%
X109900000Y-62100000D03*
D15*
%TO.P,J3,2,Pin_2*%
%TO.N,unconnected-(J3-Pin_2-Pad2)*%
X112440000Y-62100000D03*
%TO.P,J3,3,Pin_3*%
%TO.N,unconnected-(J3-Pin_3-Pad3)*%
X114980000Y-62100000D03*
%TO.P,J3,4,Pin_4*%
%TO.N,unconnected-(J3-Pin_4-Pad4)*%
X117520000Y-62100000D03*
%TO.P,J3,5,Pin_5*%
%TO.N,unconnected-(J3-Pin_5-Pad5)*%
X120060000Y-62100000D03*
%TO.P,J3,6,Pin_6*%
%TO.N,unconnected-(J3-Pin_6-Pad6)*%
X122600000Y-62100000D03*
%TO.P,J3,7,Pin_7*%
%TO.N,/PWM_IN_L2*%
X125140000Y-62100000D03*
%TO.P,J3,8,Pin_8*%
%TO.N,/PWM_IN_H1*%
X127680000Y-62100000D03*
%TO.P,J3,9,Pin_9*%
%TO.N,/PWM_IN_L1*%
X130220000Y-62100000D03*
%TO.P,J3,10,Pin_10*%
%TO.N,/PWM_IN_H2*%
X132760000Y-62100000D03*
%TO.P,J3,11,Pin_11*%
%TO.N,unconnected-(J3-Pin_11-Pad11)*%
X135300000Y-62100000D03*
%TO.P,J3,12,Pin_12*%
%TO.N,GND*%
X137840000Y-62100000D03*
%TO.P,J3,13,Pin_13*%
%TO.N,unconnected-(J3-Pin_13-Pad13)*%
X140380000Y-62100000D03*
%TO.P,J3,14,Pin_14*%
%TO.N,unconnected-(J3-Pin_14-Pad14)*%
X142920000Y-62100000D03*
%TO.P,J3,15,Pin_15*%
%TO.N,GND*%
X145460000Y-62100000D03*
%TO.P,J3,16,Pin_16*%
%TO.N,unconnected-(J3-Pin_16-Pad16)*%
X148000000Y-62100000D03*
%TD*%
D16*
%TO.N,GND*%
X121700000Y-52700000D03*
X130000000Y-54100000D03*
X127200000Y-51700000D03*
X115700000Y-56500000D03*
X148000000Y-70000000D03*
X122600000Y-82700000D03*
X132800000Y-64400000D03*
X142900000Y-82700000D03*
X117500000Y-82700000D03*
X145400000Y-82700000D03*
X135300000Y-82700000D03*
X125000000Y-82700000D03*
X139000000Y-89000000D03*
X117400000Y-87600000D03*
X115700000Y-50900000D03*
X148000000Y-82700000D03*
X137900000Y-64400000D03*
X116000000Y-89000000D03*
X137800000Y-82700000D03*
X148000000Y-75000000D03*
X119000000Y-92500000D03*
X110000000Y-75000000D03*
X123000000Y-92500000D03*
X130200000Y-82700000D03*
X130200000Y-64400000D03*
X131000000Y-89000000D03*
X148000000Y-64400000D03*
X143000000Y-87700000D03*
X123000000Y-89000000D03*
X140400000Y-64400000D03*
X135300000Y-64400000D03*
X142900000Y-58200000D03*
X146100000Y-89000000D03*
X153000000Y-70000000D03*
X127000000Y-92500000D03*
X137700000Y-58200000D03*
X132800000Y-82700000D03*
X135000000Y-92500000D03*
X115000000Y-70000000D03*
X121700000Y-49100000D03*
X120100000Y-82700000D03*
X140400000Y-60100000D03*
X143000000Y-92500000D03*
X148000000Y-58200000D03*
X110000000Y-70000000D03*
X120000000Y-70000000D03*
X115000000Y-75000000D03*
X153000000Y-75000000D03*
X142900000Y-64400000D03*
X127800000Y-54100000D03*
X131000000Y-92500000D03*
X139000000Y-92500000D03*
X115000000Y-82700000D03*
X135100000Y-58200000D03*
X140400000Y-82700000D03*
%TO.N,+5V*%
X124500000Y-50300000D03*
%TO.N,/PWM_IN_H2*%
X121700000Y-55600000D03*
%TO.N,/PWM_IN_L2*%
X115700000Y-55100000D03*
%TO.N,/PWM_IN_L1*%
X115700000Y-52300000D03*
%TO.N,/PWM_IN_H1*%
X115700000Y-53700000D03*
%TO.N,/RESET_IN*%
X121700000Y-54300000D03*
%TD*%
D17*
%TO.N,/PWM_IN_H2*%
X126250000Y-55600000D02*
X121700000Y-55600000D01*
X132760000Y-62100000D02*
X132750000Y-62100000D01*
X132750000Y-62100000D02*
X126250000Y-55600000D01*
%TO.N,/PWM_IN_L2*%
X115700000Y-55100000D02*
X119650000Y-59050000D01*
X119700000Y-59050000D02*
X122090000Y-59050000D01*
X119650000Y-59050000D02*
X119700000Y-59050000D01*
X122090000Y-59050000D02*
X125140000Y-62100000D01*
%TO.N,/PWM_IN_L1*%
X125020000Y-56900000D02*
X130220000Y-62100000D01*
X115700000Y-52300000D02*
X116700000Y-52300000D01*
X121300000Y-56900000D02*
X125020000Y-56900000D01*
X116700000Y-52300000D02*
X121300000Y-56900000D01*
%TO.N,/PWM_IN_H1*%
X123530000Y-57950000D02*
X127680000Y-62100000D01*
X116200000Y-53700000D02*
X120450000Y-57950000D01*
X120450000Y-57950000D02*
X123530000Y-57950000D01*
X115700000Y-53700000D02*
X116200000Y-53700000D01*
%TO.N,/RESET_IN*%
X112440000Y-64960000D02*
X113700000Y-63700000D01*
X117100000Y-49700000D02*
X121700000Y-54300000D01*
X114600000Y-58000000D02*
X114600000Y-50500000D01*
X113700000Y-63700000D02*
X113700000Y-58900000D01*
X114600000Y-50500000D02*
X115400000Y-49700000D01*
X112440000Y-85100000D02*
X112440000Y-64960000D01*
X115400000Y-49700000D02*
X117100000Y-49700000D01*
X113700000Y-58900000D02*
X114600000Y-58000000D01*
%TD*%
%TA.AperFunction,Conductor*%
%TO.N,GND*%
G36*
X152924753Y-48525501D02*
G01*
X152930816Y-48525501D01*
X152997963Y-48525501D01*
X153002054Y-48525586D01*
X153447988Y-48544029D01*
X153456126Y-48544703D01*
X153897005Y-48599659D01*
X153897013Y-48599660D01*
X153905082Y-48601006D01*
X154339915Y-48692181D01*
X154347827Y-48694185D01*
X154773633Y-48820953D01*
X154773643Y-48820956D01*
X154781360Y-48823604D01*
X155195293Y-48985121D01*
X155202730Y-48988384D01*
X155601904Y-49183528D01*
X155609092Y-49187419D01*
X155990746Y-49414835D01*
X155997596Y-49419310D01*
X156359176Y-49677473D01*
X156365633Y-49682499D01*
X156704647Y-49969629D01*
X156710667Y-49975170D01*
X157024829Y-50289332D01*
X157030370Y-50295352D01*
X157317500Y-50634366D01*
X157322526Y-50640823D01*
X157580689Y-51002403D01*
X157585164Y-51009253D01*
X157812580Y-51390907D01*
X157816475Y-51398103D01*
X158011610Y-51797258D01*
X158014882Y-51804718D01*
X158176387Y-52218617D01*
X158179043Y-52226356D01*
X158305811Y-52652162D01*
X158307820Y-52660094D01*
X158398992Y-53094916D01*
X158400339Y-53102986D01*
X158455295Y-53543865D01*
X158455970Y-53552020D01*
X158474414Y-53997945D01*
X158474499Y-54002036D01*
X158474499Y-54077158D01*
X158474500Y-54077171D01*
X158474500Y-92924736D01*
X158474499Y-92924754D01*
X158474499Y-92997963D01*
X158474414Y-93002054D01*
X158455970Y-93447979D01*
X158455295Y-93456134D01*
X158400339Y-93897013D01*
X158398992Y-93905083D01*
X158307820Y-94339905D01*
X158305811Y-94347837D01*
X158179043Y-94773643D01*
X158176387Y-94781381D01*
X158014887Y-95195270D01*
X158011606Y-95202750D01*
X157978567Y-95270334D01*
X157816475Y-95601896D01*
X157812580Y-95609092D01*
X157585164Y-95990746D01*
X157580689Y-95997596D01*
X157322526Y-96359176D01*
X157317500Y-96365633D01*
X157030370Y-96704647D01*
X157024829Y-96710667D01*
X156710667Y-97024829D01*
X156704647Y-97030370D01*
X156365633Y-97317500D01*
X156359176Y-97322526D01*
X155997596Y-97580689D01*
X155990746Y-97585164D01*
X155609092Y-97812580D01*
X155601896Y-97816475D01*
X155202753Y-98011605D01*
X155195272Y-98014886D01*
X154781382Y-98176387D01*
X154773643Y-98179043D01*
X154347837Y-98305811D01*
X154339905Y-98307820D01*
X153905083Y-98398992D01*
X153897013Y-98400339D01*
X153456134Y-98455295D01*
X153447979Y-98455970D01*
X153002054Y-98474414D01*
X152997963Y-98474499D01*
X152924753Y-98474499D01*
X152924737Y-98474500D01*
X109002036Y-98474500D01*
X108997945Y-98474415D01*
X108552019Y-98455971D01*
X108543864Y-98455296D01*
X108102985Y-98400340D01*
X108094915Y-98398993D01*
X107660093Y-98307821D01*
X107652160Y-98305812D01*
X107226365Y-98179046D01*
X107218627Y-98176390D01*
X106804729Y-98014888D01*
X106797245Y-98011605D01*
X106398100Y-97816475D01*
X106390906Y-97812581D01*
X106009252Y-97585165D01*
X106002402Y-97580690D01*
X105640823Y-97322527D01*
X105634367Y-97317501D01*
X105295352Y-97030371D01*
X105289331Y-97024830D01*
X104975169Y-96710668D01*
X104969628Y-96704647D01*
X104682498Y-96365632D01*
X104677472Y-96359176D01*
X104419309Y-95997597D01*
X104414834Y-95990747D01*
X104187418Y-95609093D01*
X104183523Y-95601897D01*
X104183523Y-95601896D01*
X103988389Y-95202743D01*
X103985116Y-95195281D01*
X103823609Y-94781372D01*
X103820953Y-94773634D01*
X103782829Y-94645579D01*
X103694182Y-94347822D01*
X103692178Y-94339906D01*
X103678601Y-94275156D01*
X103601005Y-93905083D01*
X103599659Y-93897014D01*
X103592184Y-93837045D01*
X103544702Y-93456127D01*
X103544028Y-93447980D01*
X103542883Y-93420305D01*
X103525585Y-93002054D01*
X103525542Y-92999992D01*
X104444639Y-92999992D01*
X104444639Y-93000007D01*
X104464069Y-93420305D01*
X104464070Y-93420310D01*
X104522203Y-93837047D01*
X104522204Y-93837052D01*
X104618535Y-94246629D01*
X104752249Y-94645579D01*
X104922207Y-95030498D01*
X105126951Y-95398085D01*
X105364736Y-95745209D01*
X105364741Y-95745215D01*
X105633540Y-96068918D01*
X105633543Y-96068921D01*
X105633548Y-96068927D01*
X105931073Y-96366452D01*
X106254782Y-96635257D01*
X106254786Y-96635260D01*
X106254790Y-96635263D01*
X106601914Y-96873048D01*
X106874414Y-97024829D01*
X106969501Y-97077792D01*
X107354414Y-97247748D01*
X107753366Y-97381463D01*
X108162955Y-97477797D01*
X108579684Y-97535929D01*
X108579690Y-97535929D01*
X108579694Y-97535930D01*
X108999992Y-97555361D01*
X109000000Y-97555361D01*
X109000008Y-97555361D01*
X109420305Y-97535930D01*
X109420308Y-97535929D01*
X109420316Y-97535929D01*
X109837045Y-97477797D01*
X110246634Y-97381463D01*
X110645586Y-97247748D01*
X111030499Y-97077792D01*
X111398089Y-96873046D01*
X111745218Y-96635257D01*
X112068927Y-96366452D01*
X112366452Y-96068927D01*
X112635257Y-95745218D01*
X112873046Y-95398089D01*
X113077792Y-95030499D01*
X113247748Y-94645586D01*
X113381463Y-94246634D01*
X113477797Y-93837045D01*
X113535929Y-93420316D01*
X113543516Y-93256225D01*
X113555361Y-93000007D01*
X113555361Y-92999992D01*
X148444639Y-92999992D01*
X148444639Y-93000007D01*
X148464069Y-93420305D01*
X148464070Y-93420310D01*
X148522203Y-93837047D01*
X148522204Y-93837052D01*
X148618535Y-94246629D01*
X148752249Y-94645579D01*
X148922207Y-95030498D01*
X149126951Y-95398085D01*
X149364736Y-95745209D01*
X149364741Y-95745215D01*
X149633540Y-96068918D01*
X149633543Y-96068921D01*
X149633548Y-96068927D01*
X149931073Y-96366452D01*
X150254782Y-96635257D01*
X150254786Y-96635260D01*
X150254790Y-96635263D01*
X150601914Y-96873048D01*
X150874414Y-97024829D01*
X150969501Y-97077792D01*
X151354414Y-97247748D01*
X151753366Y-97381463D01*
X152162955Y-97477797D01*
X152579684Y-97535929D01*
X152579690Y-97535929D01*
X152579694Y-97535930D01*
X152999992Y-97555361D01*
X153000000Y-97555361D01*
X153000008Y-97555361D01*
X153420305Y-97535930D01*
X153420308Y-97535929D01*
X153420316Y-97535929D01*
X153837045Y-97477797D01*
X154246634Y-97381463D01*
X154645586Y-97247748D01*
X155030499Y-97077792D01*
X155398089Y-96873046D01*
X155745218Y-96635257D01*
X156068927Y-96366452D01*
X156366452Y-96068927D01*
X156635257Y-95745218D01*
X156873046Y-95398089D01*
X157077792Y-95030499D01*
X157247748Y-94645586D01*
X157381463Y-94246634D01*
X157477797Y-93837045D01*
X157535929Y-93420316D01*
X157543516Y-93256225D01*
X157555361Y-93000007D01*
X157555361Y-92999992D01*
X157535930Y-92579694D01*
X157535929Y-92579689D01*
X157535929Y-92579684D01*
X157477797Y-92162955D01*
X157381463Y-91753366D01*
X157247748Y-91354414D01*
X157077792Y-90969501D01*
X156873046Y-90601911D01*
X156850279Y-90568676D01*
X156635263Y-90254790D01*
X156635258Y-90254784D01*
X156635257Y-90254782D01*
X156366452Y-89931073D01*
X156068927Y-89633548D01*
X156068921Y-89633543D01*
X156068918Y-89633540D01*
X155901450Y-89494477D01*
X155745218Y-89364743D01*
X155745214Y-89364740D01*
X155745209Y-89364736D01*
X155398085Y-89126951D01*
X155030498Y-88922207D01*
X154645579Y-88752249D01*
X154246629Y-88618535D01*
X153837052Y-88522204D01*
X153837047Y-88522203D01*
X153420310Y-88464070D01*
X153420305Y-88464069D01*
X153000008Y-88444639D01*
X152999992Y-88444639D01*
X152579694Y-88464069D01*
X152579689Y-88464070D01*
X152162952Y-88522203D01*
X152162947Y-88522204D01*
X151753370Y-88618535D01*
X151354420Y-88752249D01*
X150969501Y-88922207D01*
X150601914Y-89126951D01*
X150254790Y-89364736D01*
X150254784Y-89364741D01*
X149931081Y-89633540D01*
X149633540Y-89931081D01*
X149364741Y-90254784D01*
X149364736Y-90254790D01*
X149126951Y-90601914D01*
X148922207Y-90969501D01*
X148752249Y-91354420D01*
X148618535Y-91753370D01*
X148522204Y-92162947D01*
X148522203Y-92162952D01*
X148464070Y-92579689D01*
X148464069Y-92579694D01*
X148444639Y-92999992D01*
X113555361Y-92999992D01*
X113535930Y-92579694D01*
X113535929Y-92579689D01*
X113535929Y-92579684D01*
X113477797Y-92162955D01*
X113381463Y-91753366D01*
X113247748Y-91354414D01*
X113077792Y-90969501D01*
X112873046Y-90601911D01*
X112850279Y-90568676D01*
X112635263Y-90254790D01*
X112635258Y-90254784D01*
X112635257Y-90254782D01*
X112366452Y-89931073D01*
X112068927Y-89633548D01*
X112068921Y-89633543D01*
X112068918Y-89633540D01*
X111901450Y-89494477D01*
X111745218Y-89364743D01*
X111745214Y-89364740D01*
X111745209Y-89364736D01*
X111398085Y-89126951D01*
X111030498Y-88922207D01*
X110645579Y-88752249D01*
X110246629Y-88618535D01*
X109837052Y-88522204D01*
X109837047Y-88522203D01*
X109420310Y-88464070D01*
X109420305Y-88464069D01*
X109000008Y-88444639D01*
X108999992Y-88444639D01*
X108579694Y-88464069D01*
X108579689Y-88464070D01*
X108162952Y-88522203D01*
X108162947Y-88522204D01*
X107753370Y-88618535D01*
X107354420Y-88752249D01*
X106969501Y-88922207D01*
X106601914Y-89126951D01*
X106254790Y-89364736D01*
X106254784Y-89364741D01*
X105931081Y-89633540D01*
X105633540Y-89931081D01*
X105364741Y-90254784D01*
X105364736Y-90254790D01*
X105126951Y-90601914D01*
X104922207Y-90969501D01*
X104752249Y-91354420D01*
X104618535Y-91753370D01*
X104522204Y-92162947D01*
X104522203Y-92162952D01*
X104464070Y-92579689D01*
X104464069Y-92579694D01*
X104444639Y-92999992D01*
X103525542Y-92999992D01*
X103525500Y-92997964D01*
X103525500Y-84107636D01*
X108749500Y-84107636D01*
X108749500Y-86092357D01*
X108749501Y-86092360D01*
X108750112Y-86097632D01*
X108752443Y-86117734D01*
X108778033Y-86175691D01*
X108798267Y-86221515D01*
X108878485Y-86301733D01*
X108982265Y-86347556D01*
X109007639Y-86350500D01*
X110792360Y-86350499D01*
X110817735Y-86347556D01*
X110921515Y-86301733D01*
X111001733Y-86221515D01*
X111047556Y-86117735D01*
X111050500Y-86092361D01*
X111050499Y-84107640D01*
X111047556Y-84082265D01*
X111001733Y-83978485D01*
X110921515Y-83898267D01*
X110817735Y-83852444D01*
X110817734Y-83852443D01*
X110817732Y-83852443D01*
X110792363Y-83849500D01*
X109007642Y-83849500D01*
X109007641Y-83849500D01*
X109007640Y-83849501D01*
X109005003Y-83849806D01*
X108982265Y-83852443D01*
X108878485Y-83898267D01*
X108798267Y-83978485D01*
X108752443Y-84082267D01*
X108749500Y-84107636D01*
X103525500Y-84107636D01*
X103525500Y-61909450D01*
X111289500Y-61909450D01*
X111289500Y-62290549D01*
X111317828Y-62469406D01*
X111317829Y-62469409D01*
X111373789Y-62641639D01*
X111456004Y-62802994D01*
X111562447Y-62949501D01*
X111690499Y-63077553D01*
X111837006Y-63183996D01*
X111998361Y-63266211D01*
X112170591Y-63322171D01*
X112242136Y-63333502D01*
X112349451Y-63350500D01*
X112349454Y-63350500D01*
X112530549Y-63350500D01*
X112619977Y-63336335D01*
X112709409Y-63322171D01*
X112881639Y-63266211D01*
X113042994Y-63183996D01*
X113189501Y-63077553D01*
X113189504Y-63077549D01*
X113192309Y-63075512D01*
X113250500Y-63056604D01*
X113308690Y-63075511D01*
X113344654Y-63125011D01*
X113349500Y-63155604D01*
X113349500Y-63513810D01*
X113330593Y-63572001D01*
X113320504Y-63583814D01*
X112159530Y-64744788D01*
X112113386Y-64824712D01*
X112089500Y-64913857D01*
X112089500Y-83140702D01*
X112083446Y-83174791D01*
X112036548Y-83302660D01*
X112035818Y-83304587D01*
X111973864Y-83463215D01*
X111973000Y-83465355D01*
X111911521Y-83612545D01*
X111910488Y-83614928D01*
X111849733Y-83750282D01*
X111848499Y-83752924D01*
X111788553Y-83876510D01*
X111787043Y-83879493D01*
X111728248Y-83990933D01*
X111726387Y-83994299D01*
X111668983Y-84093554D01*
X111666674Y-84097348D01*
X111611124Y-84184163D01*
X111608225Y-84188443D01*
X111571911Y-84239155D01*
X111564872Y-84247458D01*
X111564971Y-84247543D01*
X111562446Y-84250498D01*
X111540780Y-84280319D01*
X111537516Y-84284565D01*
X111500788Y-84329755D01*
X111499855Y-84330910D01*
X111499851Y-84330915D01*
X111492669Y-84344699D01*
X111484968Y-84357139D01*
X111456002Y-84397008D01*
X111373788Y-84558362D01*
X111317828Y-84730593D01*
X111289500Y-84909450D01*
X111289500Y-85290549D01*
X111317828Y-85469406D01*
X111317829Y-85469409D01*
X111373789Y-85641639D01*
X111456004Y-85802994D01*
X111562447Y-85949501D01*
X111690499Y-86077553D01*
X111837006Y-86183996D01*
X111998361Y-86266211D01*
X112170591Y-86322171D01*
X112242136Y-86333502D01*
X112349451Y-86350500D01*
X112349454Y-86350500D01*
X112530549Y-86350500D01*
X112619977Y-86336335D01*
X112709409Y-86322171D01*
X112881639Y-86266211D01*
X113042994Y-86183996D01*
X113189501Y-86077553D01*
X113317553Y-85949501D01*
X113423996Y-85802994D01*
X113506211Y-85641639D01*
X113562171Y-85469409D01*
X113590500Y-85290546D01*
X113590500Y-84909454D01*
X113590500Y-84909450D01*
X113829500Y-84909450D01*
X113829500Y-85290549D01*
X113857828Y-85469406D01*
X113857829Y-85469409D01*
X113913789Y-85641639D01*
X113996004Y-85802994D01*
X114102447Y-85949501D01*
X114230499Y-86077553D01*
X114377006Y-86183996D01*
X114538361Y-86266211D01*
X114710591Y-86322171D01*
X114782136Y-86333502D01*
X114889451Y-86350500D01*
X114889454Y-86350500D01*
X115070549Y-86350500D01*
X115159977Y-86336335D01*
X115249409Y-86322171D01*
X115421639Y-86266211D01*
X115582994Y-86183996D01*
X115729501Y-86077553D01*
X115857553Y-85949501D01*
X115963996Y-85802994D01*
X116046211Y-85641639D01*
X116102171Y-85469409D01*
X116130500Y-85290546D01*
X116130500Y-84909454D01*
X116130500Y-84909450D01*
X116369500Y-84909450D01*
X116369500Y-85290549D01*
X116397828Y-85469406D01*
X116397829Y-85469409D01*
X116453789Y-85641639D01*
X116536004Y-85802994D01*
X116642447Y-85949501D01*
X116770499Y-86077553D01*
X116917006Y-86183996D01*
X117078361Y-86266211D01*
X117250591Y-86322171D01*
X117322136Y-86333502D01*
X117429451Y-86350500D01*
X117429454Y-86350500D01*
X117610549Y-86350500D01*
X117699977Y-86336335D01*
X117789409Y-86322171D01*
X117961639Y-86266211D01*
X118122994Y-86183996D01*
X118269501Y-86077553D01*
X118397553Y-85949501D01*
X118503996Y-85802994D01*
X118586211Y-85641639D01*
X118642171Y-85469409D01*
X118670500Y-85290546D01*
X118670500Y-84909454D01*
X118670500Y-84909450D01*
X118909500Y-84909450D01*
X118909500Y-85290549D01*
X118937828Y-85469406D01*
X118937829Y-85469409D01*
X118993789Y-85641639D01*
X119076004Y-85802994D01*
X119182447Y-85949501D01*
X119310499Y-86077553D01*
X119457006Y-86183996D01*
X119618361Y-86266211D01*
X119790591Y-86322171D01*
X119862136Y-86333502D01*
X119969451Y-86350500D01*
X119969454Y-86350500D01*
X120150549Y-86350500D01*
X120239977Y-86336335D01*
X120329409Y-86322171D01*
X120501639Y-86266211D01*
X120662994Y-86183996D01*
X120809501Y-86077553D01*
X120937553Y-85949501D01*
X121043996Y-85802994D01*
X121126211Y-85641639D01*
X121182171Y-85469409D01*
X121210500Y-85290546D01*
X121210500Y-84909454D01*
X121210500Y-84909450D01*
X121449500Y-84909450D01*
X121449500Y-85290549D01*
X121477828Y-85469406D01*
X121477829Y-85469409D01*
X121533789Y-85641639D01*
X121616004Y-85802994D01*
X121722447Y-85949501D01*
X121850499Y-86077553D01*
X121997006Y-86183996D01*
X122158361Y-86266211D01*
X122330591Y-86322171D01*
X122402136Y-86333502D01*
X122509451Y-86350500D01*
X122509454Y-86350500D01*
X122690549Y-86350500D01*
X122779977Y-86336335D01*
X122869409Y-86322171D01*
X123041639Y-86266211D01*
X123202994Y-86183996D01*
X123349501Y-86077553D01*
X123477553Y-85949501D01*
X123583996Y-85802994D01*
X123666211Y-85641639D01*
X123722171Y-85469409D01*
X123750500Y-85290546D01*
X123750500Y-84909454D01*
X123750500Y-84909450D01*
X123989500Y-84909450D01*
X123989500Y-85290549D01*
X124017828Y-85469406D01*
X124017829Y-85469409D01*
X124073789Y-85641639D01*
X124156004Y-85802994D01*
X124262447Y-85949501D01*
X124390499Y-86077553D01*
X124537006Y-86183996D01*
X124698361Y-86266211D01*
X124870591Y-86322171D01*
X124942136Y-86333502D01*
X125049451Y-86350500D01*
X125049454Y-86350500D01*
X125230549Y-86350500D01*
X125319977Y-86336335D01*
X125409409Y-86322171D01*
X125581639Y-86266211D01*
X125742994Y-86183996D01*
X125889501Y-86077553D01*
X126017553Y-85949501D01*
X126123996Y-85802994D01*
X126206211Y-85641639D01*
X126262171Y-85469409D01*
X126290500Y-85290546D01*
X126290500Y-84909454D01*
X126290500Y-84909450D01*
X126529500Y-84909450D01*
X126529500Y-85290549D01*
X126557828Y-85469406D01*
X126557829Y-85469409D01*
X126613789Y-85641639D01*
X126696004Y-85802994D01*
X126802447Y-85949501D01*
X126930499Y-86077553D01*
X127077006Y-86183996D01*
X127238361Y-86266211D01*
X127410591Y-86322171D01*
X127482136Y-86333502D01*
X127589451Y-86350500D01*
X127589454Y-86350500D01*
X127770549Y-86350500D01*
X127859977Y-86336335D01*
X127949409Y-86322171D01*
X128121639Y-86266211D01*
X128282994Y-86183996D01*
X128429501Y-86077553D01*
X128557553Y-85949501D01*
X128663996Y-85802994D01*
X128746211Y-85641639D01*
X128802171Y-85469409D01*
X128830500Y-85290546D01*
X128830500Y-84909454D01*
X128830500Y-84909450D01*
X129069500Y-84909450D01*
X129069500Y-85290549D01*
X129097828Y-85469406D01*
X129097829Y-85469409D01*
X129153789Y-85641639D01*
X129236004Y-85802994D01*
X129342447Y-85949501D01*
X129470499Y-86077553D01*
X129617006Y-86183996D01*
X129778361Y-86266211D01*
X129950591Y-86322171D01*
X130022136Y-86333502D01*
X130129451Y-86350500D01*
X130129454Y-86350500D01*
X130310549Y-86350500D01*
X130399977Y-86336335D01*
X130489409Y-86322171D01*
X130661639Y-86266211D01*
X130822994Y-86183996D01*
X130969501Y-86077553D01*
X131097553Y-85949501D01*
X131203996Y-85802994D01*
X131286211Y-85641639D01*
X131342171Y-85469409D01*
X131370500Y-85290546D01*
X131370500Y-84909454D01*
X131370500Y-84909450D01*
X131609500Y-84909450D01*
X131609500Y-85290549D01*
X131637828Y-85469406D01*
X131637829Y-85469409D01*
X131693789Y-85641639D01*
X131776004Y-85802994D01*
X131882447Y-85949501D01*
X132010499Y-86077553D01*
X132157006Y-86183996D01*
X132318361Y-86266211D01*
X132490591Y-86322171D01*
X132562136Y-86333502D01*
X132669451Y-86350500D01*
X132669454Y-86350500D01*
X132850549Y-86350500D01*
X132939977Y-86336335D01*
X133029409Y-86322171D01*
X133201639Y-86266211D01*
X133362994Y-86183996D01*
X133509501Y-86077553D01*
X133637553Y-85949501D01*
X133743996Y-85802994D01*
X133826211Y-85641639D01*
X133882171Y-85469409D01*
X133910500Y-85290546D01*
X133910500Y-84909454D01*
X133910500Y-84909450D01*
X134149500Y-84909450D01*
X134149500Y-85290549D01*
X134177828Y-85469406D01*
X134177829Y-85469409D01*
X134233789Y-85641639D01*
X134316004Y-85802994D01*
X134422447Y-85949501D01*
X134550499Y-86077553D01*
X134697006Y-86183996D01*
X134858361Y-86266211D01*
X135030591Y-86322171D01*
X135102136Y-86333502D01*
X135209451Y-86350500D01*
X135209454Y-86350500D01*
X135390549Y-86350500D01*
X135479977Y-86336335D01*
X135569409Y-86322171D01*
X135741639Y-86266211D01*
X135902994Y-86183996D01*
X136049501Y-86077553D01*
X136177553Y-85949501D01*
X136283996Y-85802994D01*
X136366211Y-85641639D01*
X136422171Y-85469409D01*
X136450500Y-85290546D01*
X136450500Y-84909454D01*
X136450500Y-84909450D01*
X136689500Y-84909450D01*
X136689500Y-85290549D01*
X136717828Y-85469406D01*
X136717829Y-85469409D01*
X136773789Y-85641639D01*
X136856004Y-85802994D01*
X136962447Y-85949501D01*
X137090499Y-86077553D01*
X137237006Y-86183996D01*
X137398361Y-86266211D01*
X137570591Y-86322171D01*
X137642136Y-86333502D01*
X137749451Y-86350500D01*
X137749454Y-86350500D01*
X137930549Y-86350500D01*
X138019977Y-86336335D01*
X138109409Y-86322171D01*
X138281639Y-86266211D01*
X138442994Y-86183996D01*
X138589501Y-86077553D01*
X138717553Y-85949501D01*
X138823996Y-85802994D01*
X138906211Y-85641639D01*
X138962171Y-85469409D01*
X138990500Y-85290546D01*
X138990500Y-84909454D01*
X138990500Y-84909450D01*
X139229500Y-84909450D01*
X139229500Y-85290549D01*
X139257828Y-85469406D01*
X139257829Y-85469409D01*
X139313789Y-85641639D01*
X139396004Y-85802994D01*
X139502447Y-85949501D01*
X139630499Y-86077553D01*
X139777006Y-86183996D01*
X139938361Y-86266211D01*
X140110591Y-86322171D01*
X140182136Y-86333502D01*
X140289451Y-86350500D01*
X140289454Y-86350500D01*
X140470549Y-86350500D01*
X140559977Y-86336335D01*
X140649409Y-86322171D01*
X140821639Y-86266211D01*
X140982994Y-86183996D01*
X141129501Y-86077553D01*
X141257553Y-85949501D01*
X141363996Y-85802994D01*
X141446211Y-85641639D01*
X141502171Y-85469409D01*
X141530500Y-85290546D01*
X141530500Y-84909454D01*
X141530500Y-84909450D01*
X141769500Y-84909450D01*
X141769500Y-85290549D01*
X141797828Y-85469406D01*
X141797829Y-85469409D01*
X141853789Y-85641639D01*
X141936004Y-85802994D01*
X142042447Y-85949501D01*
X142170499Y-86077553D01*
X142317006Y-86183996D01*
X142478361Y-86266211D01*
X142650591Y-86322171D01*
X142722136Y-86333502D01*
X142829451Y-86350500D01*
X142829454Y-86350500D01*
X143010549Y-86350500D01*
X143099977Y-86336335D01*
X143189409Y-86322171D01*
X143361639Y-86266211D01*
X143522994Y-86183996D01*
X143669501Y-86077553D01*
X143797553Y-85949501D01*
X143903996Y-85802994D01*
X143986211Y-85641639D01*
X144042171Y-85469409D01*
X144070500Y-85290546D01*
X144070500Y-84909454D01*
X144070500Y-84909450D01*
X146849500Y-84909450D01*
X146849500Y-85290549D01*
X146877828Y-85469406D01*
X146877829Y-85469409D01*
X146933789Y-85641639D01*
X147016004Y-85802994D01*
X147122447Y-85949501D01*
X147250499Y-86077553D01*
X147397006Y-86183996D01*
X147558361Y-86266211D01*
X147730591Y-86322171D01*
X147802136Y-86333502D01*
X147909451Y-86350500D01*
X147909454Y-86350500D01*
X148090549Y-86350500D01*
X148179977Y-86336335D01*
X148269409Y-86322171D01*
X148441639Y-86266211D01*
X148602994Y-86183996D01*
X148749501Y-86077553D01*
X148877553Y-85949501D01*
X148983996Y-85802994D01*
X149066211Y-85641639D01*
X149122171Y-85469409D01*
X149150500Y-85290546D01*
X149150500Y-84909454D01*
X149150500Y-84909450D01*
X149122171Y-84730593D01*
X149122171Y-84730591D01*
X149066211Y-84558361D01*
X148983996Y-84397006D01*
X148877553Y-84250499D01*
X148749501Y-84122447D01*
X148602994Y-84016004D01*
X148602993Y-84016003D01*
X148602991Y-84016002D01*
X148441637Y-83933788D01*
X148269406Y-83877828D01*
X148090549Y-83849500D01*
X148090546Y-83849500D01*
X147909454Y-83849500D01*
X147909451Y-83849500D01*
X147730593Y-83877828D01*
X147558362Y-83933788D01*
X147397008Y-84016002D01*
X147323752Y-84069225D01*
X147250499Y-84122447D01*
X147122447Y-84250499D01*
X147099193Y-84282506D01*
X147016002Y-84397008D01*
X146933788Y-84558362D01*
X146877828Y-84730593D01*
X146849500Y-84909450D01*
X144070500Y-84909450D01*
X144042171Y-84730593D01*
X144042171Y-84730591D01*
X143986211Y-84558361D01*
X143903996Y-84397006D01*
X143797553Y-84250499D01*
X143669501Y-84122447D01*
X143522994Y-84016004D01*
X143522993Y-84016003D01*
X143522991Y-84016002D01*
X143361637Y-83933788D01*
X143189406Y-83877828D01*
X143010549Y-83849500D01*
X143010546Y-83849500D01*
X142829454Y-83849500D01*
X142829451Y-83849500D01*
X142650593Y-83877828D01*
X142478362Y-83933788D01*
X142317008Y-84016002D01*
X142243752Y-84069225D01*
X142170499Y-84122447D01*
X142042447Y-84250499D01*
X142019193Y-84282506D01*
X141936002Y-84397008D01*
X141853788Y-84558362D01*
X141797828Y-84730593D01*
X141769500Y-84909450D01*
X141530500Y-84909450D01*
X141502171Y-84730593D01*
X141502171Y-84730591D01*
X141446211Y-84558361D01*
X141363996Y-84397006D01*
X141257553Y-84250499D01*
X141129501Y-84122447D01*
X140982994Y-84016004D01*
X140982993Y-84016003D01*
X140982991Y-84016002D01*
X140821637Y-83933788D01*
X140649406Y-83877828D01*
X140470549Y-83849500D01*
X140470546Y-83849500D01*
X140289454Y-83849500D01*
X140289451Y-83849500D01*
X140110593Y-83877828D01*
X139938362Y-83933788D01*
X139777008Y-84016002D01*
X139703752Y-84069225D01*
X139630499Y-84122447D01*
X139502447Y-84250499D01*
X139479193Y-84282506D01*
X139396002Y-84397008D01*
X139313788Y-84558362D01*
X139257828Y-84730593D01*
X139229500Y-84909450D01*
X138990500Y-84909450D01*
X138962171Y-84730593D01*
X138962171Y-84730591D01*
X138906211Y-84558361D01*
X138823996Y-84397006D01*
X138717553Y-84250499D01*
X138589501Y-84122447D01*
X138442994Y-84016004D01*
X138442993Y-84016003D01*
X138442991Y-84016002D01*
X138281637Y-83933788D01*
X138109406Y-83877828D01*
X137930549Y-83849500D01*
X137930546Y-83849500D01*
X137749454Y-83849500D01*
X137749451Y-83849500D01*
X137570593Y-83877828D01*
X137398362Y-83933788D01*
X137237008Y-84016002D01*
X137163752Y-84069225D01*
X137090499Y-84122447D01*
X136962447Y-84250499D01*
X136939193Y-84282506D01*
X136856002Y-84397008D01*
X136773788Y-84558362D01*
X136717828Y-84730593D01*
X136689500Y-84909450D01*
X136450500Y-84909450D01*
X136422171Y-84730593D01*
X136422171Y-84730591D01*
X136366211Y-84558361D01*
X136283996Y-84397006D01*
X136177553Y-84250499D01*
X136049501Y-84122447D01*
X135902994Y-84016004D01*
X135902993Y-84016003D01*
X135902991Y-84016002D01*
X135741637Y-83933788D01*
X135569406Y-83877828D01*
X135390549Y-83849500D01*
X135390546Y-83849500D01*
X135209454Y-83849500D01*
X135209451Y-83849500D01*
X135030593Y-83877828D01*
X134858362Y-83933788D01*
X134697008Y-84016002D01*
X134623752Y-84069225D01*
X134550499Y-84122447D01*
X134422447Y-84250499D01*
X134399193Y-84282506D01*
X134316002Y-84397008D01*
X134233788Y-84558362D01*
X134177828Y-84730593D01*
X134149500Y-84909450D01*
X133910500Y-84909450D01*
X133882171Y-84730593D01*
X133882171Y-84730591D01*
X133826211Y-84558361D01*
X133743996Y-84397006D01*
X133637553Y-84250499D01*
X133509501Y-84122447D01*
X133362994Y-84016004D01*
X133362993Y-84016003D01*
X133362991Y-84016002D01*
X133201637Y-83933788D01*
X133029406Y-83877828D01*
X132850549Y-83849500D01*
X132850546Y-83849500D01*
X132669454Y-83849500D01*
X132669451Y-83849500D01*
X132490593Y-83877828D01*
X132318362Y-83933788D01*
X132157008Y-84016002D01*
X132083752Y-84069225D01*
X132010499Y-84122447D01*
X131882447Y-84250499D01*
X131859193Y-84282506D01*
X131776002Y-84397008D01*
X131693788Y-84558362D01*
X131637828Y-84730593D01*
X131609500Y-84909450D01*
X131370500Y-84909450D01*
X131342171Y-84730593D01*
X131342171Y-84730591D01*
X131286211Y-84558361D01*
X131203996Y-84397006D01*
X131097553Y-84250499D01*
X130969501Y-84122447D01*
X130822994Y-84016004D01*
X130822993Y-84016003D01*
X130822991Y-84016002D01*
X130661637Y-83933788D01*
X130489406Y-83877828D01*
X130310549Y-83849500D01*
X130310546Y-83849500D01*
X130129454Y-83849500D01*
X130129451Y-83849500D01*
X129950593Y-83877828D01*
X129778362Y-83933788D01*
X129617008Y-84016002D01*
X129543752Y-84069225D01*
X129470499Y-84122447D01*
X129342447Y-84250499D01*
X129319193Y-84282506D01*
X129236002Y-84397008D01*
X129153788Y-84558362D01*
X129097828Y-84730593D01*
X129069500Y-84909450D01*
X128830500Y-84909450D01*
X128802171Y-84730593D01*
X128802171Y-84730591D01*
X128746211Y-84558361D01*
X128663996Y-84397006D01*
X128557553Y-84250499D01*
X128429501Y-84122447D01*
X128282994Y-84016004D01*
X128282993Y-84016003D01*
X128282991Y-84016002D01*
X128121637Y-83933788D01*
X127949406Y-83877828D01*
X127770549Y-83849500D01*
X127770546Y-83849500D01*
X127589454Y-83849500D01*
X127589451Y-83849500D01*
X127410593Y-83877828D01*
X127238362Y-83933788D01*
X127077008Y-84016002D01*
X127003752Y-84069225D01*
X126930499Y-84122447D01*
X126802447Y-84250499D01*
X126779193Y-84282506D01*
X126696002Y-84397008D01*
X126613788Y-84558362D01*
X126557828Y-84730593D01*
X126529500Y-84909450D01*
X126290500Y-84909450D01*
X126262171Y-84730593D01*
X126262171Y-84730591D01*
X126206211Y-84558361D01*
X126123996Y-84397006D01*
X126017553Y-84250499D01*
X125889501Y-84122447D01*
X125742994Y-84016004D01*
X125742993Y-84016003D01*
X125742991Y-84016002D01*
X125581637Y-83933788D01*
X125409406Y-83877828D01*
X125230549Y-83849500D01*
X125230546Y-83849500D01*
X125049454Y-83849500D01*
X125049451Y-83849500D01*
X124870593Y-83877828D01*
X124698362Y-83933788D01*
X124537008Y-84016002D01*
X124463752Y-84069225D01*
X124390499Y-84122447D01*
X124262447Y-84250499D01*
X124239193Y-84282506D01*
X124156002Y-84397008D01*
X124073788Y-84558362D01*
X124017828Y-84730593D01*
X123989500Y-84909450D01*
X123750500Y-84909450D01*
X123722171Y-84730593D01*
X123722171Y-84730591D01*
X123666211Y-84558361D01*
X123583996Y-84397006D01*
X123477553Y-84250499D01*
X123349501Y-84122447D01*
X123202994Y-84016004D01*
X123202993Y-84016003D01*
X123202991Y-84016002D01*
X123041637Y-83933788D01*
X122869406Y-83877828D01*
X122690549Y-83849500D01*
X122690546Y-83849500D01*
X122509454Y-83849500D01*
X122509451Y-83849500D01*
X122330593Y-83877828D01*
X122158362Y-83933788D01*
X121997008Y-84016002D01*
X121923752Y-84069225D01*
X121850499Y-84122447D01*
X121722447Y-84250499D01*
X121699193Y-84282506D01*
X121616002Y-84397008D01*
X121533788Y-84558362D01*
X121477828Y-84730593D01*
X121449500Y-84909450D01*
X121210500Y-84909450D01*
X121182171Y-84730593D01*
X121182171Y-84730591D01*
X121126211Y-84558361D01*
X121043996Y-84397006D01*
X120937553Y-84250499D01*
X120809501Y-84122447D01*
X120662994Y-84016004D01*
X120662993Y-84016003D01*
X120662991Y-84016002D01*
X120501637Y-83933788D01*
X120329406Y-83877828D01*
X120150549Y-83849500D01*
X120150546Y-83849500D01*
X119969454Y-83849500D01*
X119969451Y-83849500D01*
X119790593Y-83877828D01*
X119618362Y-83933788D01*
X119457008Y-84016002D01*
X119383752Y-84069225D01*
X119310499Y-84122447D01*
X119182447Y-84250499D01*
X119159193Y-84282506D01*
X119076002Y-84397008D01*
X118993788Y-84558362D01*
X118937828Y-84730593D01*
X118909500Y-84909450D01*
X118670500Y-84909450D01*
X118642171Y-84730593D01*
X118642171Y-84730591D01*
X118586211Y-84558361D01*
X118503996Y-84397006D01*
X118397553Y-84250499D01*
X118269501Y-84122447D01*
X118122994Y-84016004D01*
X118122993Y-84016003D01*
X118122991Y-84016002D01*
X117961637Y-83933788D01*
X117789406Y-83877828D01*
X117610549Y-83849500D01*
X117610546Y-83849500D01*
X117429454Y-83849500D01*
X117429451Y-83849500D01*
X117250593Y-83877828D01*
X117078362Y-83933788D01*
X116917008Y-84016002D01*
X116843752Y-84069225D01*
X116770499Y-84122447D01*
X116642447Y-84250499D01*
X116619193Y-84282506D01*
X116536002Y-84397008D01*
X116453788Y-84558362D01*
X116397828Y-84730593D01*
X116369500Y-84909450D01*
X116130500Y-84909450D01*
X116102171Y-84730593D01*
X116102171Y-84730591D01*
X116046211Y-84558361D01*
X115963996Y-84397006D01*
X115857553Y-84250499D01*
X115729501Y-84122447D01*
X115582994Y-84016004D01*
X115582993Y-84016003D01*
X115582991Y-84016002D01*
X115421637Y-83933788D01*
X115249406Y-83877828D01*
X115070549Y-83849500D01*
X115070546Y-83849500D01*
X114889454Y-83849500D01*
X114889451Y-83849500D01*
X114710593Y-83877828D01*
X114538362Y-83933788D01*
X114377008Y-84016002D01*
X114303752Y-84069225D01*
X114230499Y-84122447D01*
X114102447Y-84250499D01*
X114079193Y-84282506D01*
X113996002Y-84397008D01*
X113913788Y-84558362D01*
X113857828Y-84730593D01*
X113829500Y-84909450D01*
X113590500Y-84909450D01*
X113562171Y-84730593D01*
X113562171Y-84730591D01*
X113506211Y-84558361D01*
X113423996Y-84397006D01*
X113394167Y-84355950D01*
X113386733Y-84344018D01*
X113379809Y-84330915D01*
X113379167Y-84329699D01*
X113379166Y-84329698D01*
X113342503Y-84284592D01*
X113339233Y-84280339D01*
X113317556Y-84250503D01*
X113315028Y-84247543D01*
X113315126Y-84247458D01*
X113308075Y-84239144D01*
X113271771Y-84188443D01*
X113268874Y-84184165D01*
X113213337Y-84097369D01*
X113211028Y-84093575D01*
X113153612Y-83994299D01*
X113151751Y-83990933D01*
X113092937Y-83879461D01*
X113091422Y-83876468D01*
X113031508Y-83752946D01*
X113030278Y-83750312D01*
X112969500Y-83614908D01*
X112968467Y-83612526D01*
X112906993Y-83465347D01*
X112906129Y-83463208D01*
X112844147Y-83304508D01*
X112843494Y-83302785D01*
X112796552Y-83174789D01*
X112790500Y-83140705D01*
X112790500Y-65146189D01*
X112809407Y-65087998D01*
X112819490Y-65076191D01*
X113980470Y-63915212D01*
X114026614Y-63835288D01*
X114050500Y-63746144D01*
X114050500Y-63136561D01*
X114069407Y-63078370D01*
X114118907Y-63042406D01*
X114180093Y-63042406D01*
X114219501Y-63066555D01*
X114230499Y-63077553D01*
X114377006Y-63183996D01*
X114538361Y-63266211D01*
X114710591Y-63322171D01*
X114782136Y-63333502D01*
X114889451Y-63350500D01*
X114889454Y-63350500D01*
X115070549Y-63350500D01*
X115159977Y-63336335D01*
X115249409Y-63322171D01*
X115421639Y-63266211D01*
X115582994Y-63183996D01*
X115729501Y-63077553D01*
X115857553Y-62949501D01*
X115963996Y-62802994D01*
X116046211Y-62641639D01*
X116102171Y-62469409D01*
X116130500Y-62290546D01*
X116130500Y-61909454D01*
X116130500Y-61909450D01*
X116369500Y-61909450D01*
X116369500Y-62290549D01*
X116397828Y-62469406D01*
X116397829Y-62469409D01*
X116453789Y-62641639D01*
X116536004Y-62802994D01*
X116642447Y-62949501D01*
X116770499Y-63077553D01*
X116917006Y-63183996D01*
X117078361Y-63266211D01*
X117250591Y-63322171D01*
X117322136Y-63333502D01*
X117429451Y-63350500D01*
X117429454Y-63350500D01*
X117610549Y-63350500D01*
X117699977Y-63336335D01*
X117789409Y-63322171D01*
X117961639Y-63266211D01*
X118122994Y-63183996D01*
X118269501Y-63077553D01*
X118397553Y-62949501D01*
X118503996Y-62802994D01*
X118586211Y-62641639D01*
X118642171Y-62469409D01*
X118670500Y-62290546D01*
X118670500Y-61909454D01*
X118670500Y-61909450D01*
X118909500Y-61909450D01*
X118909500Y-62290549D01*
X118937828Y-62469406D01*
X118937829Y-62469409D01*
X118993789Y-62641639D01*
X119076004Y-62802994D01*
X119182447Y-62949501D01*
X119310499Y-63077553D01*
X119457006Y-63183996D01*
X119618361Y-63266211D01*
X119790591Y-63322171D01*
X119862136Y-63333502D01*
X119969451Y-63350500D01*
X119969454Y-63350500D01*
X120150549Y-63350500D01*
X120239977Y-63336335D01*
X120329409Y-63322171D01*
X120501639Y-63266211D01*
X120662994Y-63183996D01*
X120809501Y-63077553D01*
X120937553Y-62949501D01*
X121043996Y-62802994D01*
X121126211Y-62641639D01*
X121182171Y-62469409D01*
X121210500Y-62290546D01*
X121210500Y-61909454D01*
X121210500Y-61909450D01*
X121182171Y-61730593D01*
X121182171Y-61730591D01*
X121126211Y-61558361D01*
X121043996Y-61397006D01*
X120937553Y-61250499D01*
X120809501Y-61122447D01*
X120662994Y-61016004D01*
X120662993Y-61016003D01*
X120662991Y-61016002D01*
X120501637Y-60933788D01*
X120329406Y-60877828D01*
X120150549Y-60849500D01*
X120150546Y-60849500D01*
X119969454Y-60849500D01*
X119969451Y-60849500D01*
X119790593Y-60877828D01*
X119618362Y-60933788D01*
X119457008Y-61016002D01*
X119384295Y-61068831D01*
X119310499Y-61122447D01*
X119182447Y-61250499D01*
X119130500Y-61321998D01*
X119076002Y-61397008D01*
X118993788Y-61558362D01*
X118937828Y-61730593D01*
X118909500Y-61909450D01*
X118670500Y-61909450D01*
X118642171Y-61730593D01*
X118642171Y-61730591D01*
X118586211Y-61558361D01*
X118503996Y-61397006D01*
X118397553Y-61250499D01*
X118269501Y-61122447D01*
X118122994Y-61016004D01*
X118122993Y-61016003D01*
X118122991Y-61016002D01*
X117961637Y-60933788D01*
X117789406Y-60877828D01*
X117610549Y-60849500D01*
X117610546Y-60849500D01*
X117429454Y-60849500D01*
X117429451Y-60849500D01*
X117250593Y-60877828D01*
X117078362Y-60933788D01*
X116917008Y-61016002D01*
X116844295Y-61068831D01*
X116770499Y-61122447D01*
X116642447Y-61250499D01*
X116590500Y-61321998D01*
X116536002Y-61397008D01*
X116453788Y-61558362D01*
X116397828Y-61730593D01*
X116369500Y-61909450D01*
X116130500Y-61909450D01*
X116102171Y-61730593D01*
X116102171Y-61730591D01*
X116046211Y-61558361D01*
X115963996Y-61397006D01*
X115857553Y-61250499D01*
X115729501Y-61122447D01*
X115582994Y-61016004D01*
X115582993Y-61016003D01*
X115582991Y-61016002D01*
X115421637Y-60933788D01*
X115249406Y-60877828D01*
X115070549Y-60849500D01*
X115070546Y-60849500D01*
X114889454Y-60849500D01*
X114889451Y-60849500D01*
X114710593Y-60877828D01*
X114538362Y-60933788D01*
X114377008Y-61016002D01*
X114304295Y-61068831D01*
X114230499Y-61122447D01*
X114219501Y-61133444D01*
X114164987Y-61161220D01*
X114104555Y-61151649D01*
X114061290Y-61108384D01*
X114050500Y-61063439D01*
X114050500Y-59086189D01*
X114069407Y-59027998D01*
X114079490Y-59016191D01*
X114880470Y-58215212D01*
X114926614Y-58135288D01*
X114940011Y-58085288D01*
X114950500Y-58046144D01*
X114950500Y-55134972D01*
X114960470Y-55104285D01*
X114950500Y-55065027D01*
X114950500Y-53734972D01*
X114960470Y-53704285D01*
X114950500Y-53665027D01*
X114950500Y-52334972D01*
X114960470Y-52304285D01*
X114958883Y-52298035D01*
X115138072Y-52298035D01*
X115147653Y-52322050D01*
X115163669Y-52443708D01*
X115163670Y-52443709D01*
X115219139Y-52577625D01*
X115307379Y-52692621D01*
X115422375Y-52780861D01*
X115556291Y-52836330D01*
X115700000Y-52855250D01*
X115843709Y-52836330D01*
X115843712Y-52836328D01*
X115843715Y-52836328D01*
X115896075Y-52814639D01*
X115911840Y-52809605D01*
X115930339Y-52805365D01*
X115983666Y-52781442D01*
X115990313Y-52778344D01*
X115990692Y-52778160D01*
X115990924Y-52778049D01*
X115994025Y-52776493D01*
X115997561Y-52774720D01*
X116049722Y-52747599D01*
X116054932Y-52744813D01*
X116055405Y-52744553D01*
X116060520Y-52741665D01*
X116104102Y-52716387D01*
X116104183Y-52716338D01*
X116104239Y-52716307D01*
X116105945Y-52715306D01*
X116105958Y-52715297D01*
X116106042Y-52715249D01*
X116106238Y-52715133D01*
X116108579Y-52713731D01*
X116143473Y-52692571D01*
X116145190Y-52691556D01*
X116166668Y-52679186D01*
X116172831Y-52675922D01*
X116180571Y-52672167D01*
X116190462Y-52668017D01*
X116192402Y-52667323D01*
X116203735Y-52664026D01*
X116204566Y-52663836D01*
X116211369Y-52662291D01*
X116221773Y-52660504D01*
X116245063Y-52657781D01*
X116253273Y-52657168D01*
X116297054Y-52655734D01*
X116306649Y-52653578D01*
X116309646Y-52652906D01*
X116331340Y-52650500D01*
X116513810Y-52650500D01*
X116572001Y-52669407D01*
X116583814Y-52679496D01*
X121019531Y-57115212D01*
X121019530Y-57115212D01*
X121084787Y-57180468D01*
X121084789Y-57180470D01*
X121133702Y-57208710D01*
X121164712Y-57226614D01*
X121253856Y-57250500D01*
X124833810Y-57250500D01*
X124892001Y-57269407D01*
X124903814Y-57279496D01*
X128611071Y-60986753D01*
X128629248Y-61011756D01*
X128655621Y-61063439D01*
X128657353Y-61066832D01*
X128659295Y-61070860D01*
X128667863Y-61089707D01*
X128674733Y-61150505D01*
X128644555Y-61203730D01*
X128588855Y-61229052D01*
X128528909Y-61216798D01*
X128507739Y-61200685D01*
X128429501Y-61122447D01*
X128282994Y-61016004D01*
X128282993Y-61016003D01*
X128282991Y-61016002D01*
X128121637Y-60933788D01*
X127949406Y-60877828D01*
X127770549Y-60849500D01*
X127770546Y-60849500D01*
X127589454Y-60849500D01*
X127589451Y-60849500D01*
X127514474Y-60861375D01*
X127490426Y-60862223D01*
X127480633Y-60861373D01*
X127480621Y-60861371D01*
X127480621Y-60861372D01*
X127466591Y-60860154D01*
X127459065Y-60859209D01*
X127414206Y-60851821D01*
X127414204Y-60851820D01*
X127414204Y-60851821D01*
X127344014Y-60840259D01*
X127336766Y-60838784D01*
X127317461Y-60834101D01*
X127317442Y-60834096D01*
X127220531Y-60810583D01*
X127213655Y-60808649D01*
X127095960Y-60770923D01*
X127089533Y-60768616D01*
X126970124Y-60721035D01*
X126964193Y-60718444D01*
X126842966Y-60660695D01*
X126837560Y-60657912D01*
X126770087Y-60620512D01*
X126770062Y-60620498D01*
X126714492Y-60589696D01*
X126709584Y-60586788D01*
X126694456Y-60577224D01*
X126694456Y-60577223D01*
X126590800Y-60511692D01*
X126573698Y-60498016D01*
X125161871Y-59086189D01*
X123745212Y-57669530D01*
X123665288Y-57623386D01*
X123576144Y-57599500D01*
X123576142Y-57599500D01*
X120636190Y-57599500D01*
X120577999Y-57580593D01*
X120566186Y-57570504D01*
X116530801Y-53535119D01*
X116519783Y-53522003D01*
X116509212Y-53506947D01*
X116493757Y-53492189D01*
X116493756Y-53492188D01*
X116459659Y-53459629D01*
X116453752Y-53454164D01*
X116453250Y-53453714D01*
X116447647Y-53448836D01*
X116430586Y-53434414D01*
X116424503Y-53428820D01*
X116415214Y-53419531D01*
X116414019Y-53418615D01*
X116401408Y-53409751D01*
X116397547Y-53406487D01*
X116397534Y-53406476D01*
X116389587Y-53400027D01*
X116388888Y-53399482D01*
X116380408Y-53393154D01*
X116351369Y-53372404D01*
X116351312Y-53372365D01*
X116335831Y-53361304D01*
X116325473Y-53354280D01*
X116324518Y-53353666D01*
X116314032Y-53347276D01*
X116314011Y-53347263D01*
X116272521Y-53323324D01*
X116261797Y-53317473D01*
X116260803Y-53316961D01*
X116249588Y-53311526D01*
X116237123Y-53305856D01*
X116237121Y-53305855D01*
X116208482Y-53292826D01*
X116208445Y-53292809D01*
X116199554Y-53288967D01*
X116198792Y-53288655D01*
X116196776Y-53287870D01*
X116190359Y-53285372D01*
X116146995Y-53269368D01*
X116142444Y-53267737D01*
X116142436Y-53267734D01*
X116142085Y-53267612D01*
X116137808Y-53266167D01*
X116135454Y-53265395D01*
X116093759Y-53251726D01*
X116093621Y-53251673D01*
X116088974Y-53250157D01*
X116088862Y-53250120D01*
X116086946Y-53249492D01*
X116086838Y-53249460D01*
X116038006Y-53233533D01*
X116035860Y-53232806D01*
X115981390Y-53213650D01*
X115978093Y-53212424D01*
X115918735Y-53189148D01*
X115904557Y-53186525D01*
X115884682Y-53180641D01*
X115843714Y-53163671D01*
X115843705Y-53163669D01*
X115700000Y-53144750D01*
X115556291Y-53163669D01*
X115556290Y-53163670D01*
X115422378Y-53219137D01*
X115422374Y-53219139D01*
X115307381Y-53307377D01*
X115307377Y-53307381D01*
X115219139Y-53422374D01*
X115219137Y-53422378D01*
X115163670Y-53556290D01*
X115163669Y-53556291D01*
X115147653Y-53677949D01*
X115138072Y-53698035D01*
X115147653Y-53722050D01*
X115163669Y-53843708D01*
X115163670Y-53843709D01*
X115214279Y-53965893D01*
X115219139Y-53977625D01*
X115307379Y-54092621D01*
X115422375Y-54180861D01*
X115556291Y-54236330D01*
X115700000Y-54255250D01*
X115843709Y-54236330D01*
X115909407Y-54209116D01*
X115920653Y-54205234D01*
X115941434Y-54199434D01*
X115982243Y-54178779D01*
X115996876Y-54170762D01*
X115998182Y-54169990D01*
X116012083Y-54161156D01*
X116035524Y-54145175D01*
X116094252Y-54128021D01*
X116151851Y-54148663D01*
X116161291Y-54156973D01*
X120234788Y-58230470D01*
X120314712Y-58276614D01*
X120403856Y-58300500D01*
X120403857Y-58300500D01*
X120496144Y-58300500D01*
X123343810Y-58300500D01*
X123402001Y-58319407D01*
X123413814Y-58329496D01*
X126071070Y-60986751D01*
X126089248Y-61011756D01*
X126115621Y-61063439D01*
X126117353Y-61066832D01*
X126119295Y-61070860D01*
X126127863Y-61089707D01*
X126134733Y-61150505D01*
X126104555Y-61203730D01*
X126048855Y-61229052D01*
X125988909Y-61216798D01*
X125967739Y-61200685D01*
X125889501Y-61122447D01*
X125742994Y-61016004D01*
X125742993Y-61016003D01*
X125742991Y-61016002D01*
X125581637Y-60933788D01*
X125409406Y-60877828D01*
X125230549Y-60849500D01*
X125230546Y-60849500D01*
X125049454Y-60849500D01*
X125049451Y-60849500D01*
X124974474Y-60861375D01*
X124950426Y-60862223D01*
X124940633Y-60861373D01*
X124940621Y-60861371D01*
X124940621Y-60861372D01*
X124926591Y-60860154D01*
X124919065Y-60859209D01*
X124874206Y-60851821D01*
X124874204Y-60851820D01*
X124874204Y-60851821D01*
X124804014Y-60840259D01*
X124796766Y-60838784D01*
X124777461Y-60834101D01*
X124777442Y-60834096D01*
X124680531Y-60810583D01*
X124673655Y-60808649D01*
X124555960Y-60770923D01*
X124549533Y-60768616D01*
X124430124Y-60721035D01*
X124424193Y-60718444D01*
X124302966Y-60660695D01*
X124297560Y-60657912D01*
X124230087Y-60620512D01*
X124230062Y-60620498D01*
X124174492Y-60589696D01*
X124169584Y-60586788D01*
X124154456Y-60577224D01*
X124154456Y-60577223D01*
X124050800Y-60511692D01*
X124033698Y-60498016D01*
X124033696Y-60498014D01*
X122305212Y-58769530D01*
X122225288Y-58723386D01*
X122136144Y-58699500D01*
X122136142Y-58699500D01*
X119836190Y-58699500D01*
X119777999Y-58680593D01*
X119766186Y-58670504D01*
X116393944Y-55298262D01*
X116379874Y-55280532D01*
X116373725Y-55270642D01*
X116373722Y-55270638D01*
X116359521Y-55255475D01*
X116343782Y-55238669D01*
X116338400Y-55232417D01*
X116323881Y-55214054D01*
X116317780Y-55205425D01*
X116313599Y-55198784D01*
X116307895Y-55188393D01*
X116307025Y-55186555D01*
X116302978Y-55176653D01*
X116300164Y-55168541D01*
X116298108Y-55161848D01*
X116291685Y-55137964D01*
X116291134Y-55135819D01*
X116285670Y-55113524D01*
X116285669Y-55113523D01*
X116281458Y-55096337D01*
X116280705Y-55093343D01*
X116280648Y-55093122D01*
X116280630Y-55093051D01*
X116280127Y-55091134D01*
X116267237Y-55042645D01*
X116265738Y-55037245D01*
X116265726Y-55037201D01*
X116265576Y-55036683D01*
X116263795Y-55030800D01*
X116246086Y-54974730D01*
X116243758Y-54967714D01*
X116243536Y-54967076D01*
X116241015Y-54960154D01*
X116220223Y-54905528D01*
X116218892Y-54902107D01*
X116218780Y-54901825D01*
X116218779Y-54901824D01*
X116218745Y-54901737D01*
X116217684Y-54899110D01*
X116217682Y-54899104D01*
X116209577Y-54886891D01*
X116200603Y-54870039D01*
X116180861Y-54822375D01*
X116092621Y-54707379D01*
X115977625Y-54619139D01*
X115977621Y-54619137D01*
X115843709Y-54563670D01*
X115843708Y-54563669D01*
X115700000Y-54544750D01*
X115556291Y-54563669D01*
X115556290Y-54563670D01*
X115422378Y-54619137D01*
X115422374Y-54619139D01*
X115307381Y-54707377D01*
X115307377Y-54707381D01*
X115219139Y-54822374D01*
X115219137Y-54822378D01*
X115163670Y-54956290D01*
X115163669Y-54956291D01*
X115147653Y-55077949D01*
X115138072Y-55098035D01*
X115147653Y-55122050D01*
X115163669Y-55243708D01*
X115163670Y-55243709D01*
X115196253Y-55322374D01*
X115219139Y-55377625D01*
X115307379Y-55492621D01*
X115307383Y-55492624D01*
X115307384Y-55492625D01*
X115422374Y-55580860D01*
X115422377Y-55580862D01*
X115474737Y-55602549D01*
X115489447Y-55610139D01*
X115505528Y-55620223D01*
X115505530Y-55620223D01*
X115505532Y-55620225D01*
X115528376Y-55628919D01*
X115560154Y-55641015D01*
X115564585Y-55642628D01*
X115567023Y-55643517D01*
X115567041Y-55643523D01*
X115567076Y-55643536D01*
X115567714Y-55643758D01*
X115574730Y-55646086D01*
X115574748Y-55646091D01*
X115574752Y-55646093D01*
X115630729Y-55663773D01*
X115630761Y-55663782D01*
X115630800Y-55663795D01*
X115636683Y-55665576D01*
X115637201Y-55665726D01*
X115642630Y-55667233D01*
X115691294Y-55680169D01*
X115693122Y-55680648D01*
X115693343Y-55680705D01*
X115696337Y-55681458D01*
X115713528Y-55685671D01*
X115713528Y-55685670D01*
X115729682Y-55689629D01*
X115735883Y-55691149D01*
X115737954Y-55691681D01*
X115739204Y-55692018D01*
X115739211Y-55692019D01*
X115739603Y-55692124D01*
X115742066Y-55692788D01*
X115742093Y-55692794D01*
X115760289Y-55697688D01*
X115761838Y-55698105D01*
X115768544Y-55700166D01*
X115776635Y-55702971D01*
X115786552Y-55707023D01*
X115788405Y-55707900D01*
X115798796Y-55713606D01*
X115805416Y-55717775D01*
X115814060Y-55723887D01*
X115832414Y-55738398D01*
X115838686Y-55743798D01*
X115870640Y-55773723D01*
X115870642Y-55773725D01*
X115881538Y-55780624D01*
X115898581Y-55794263D01*
X119434788Y-59330470D01*
X119514712Y-59376614D01*
X119603856Y-59400500D01*
X119603857Y-59400500D01*
X119653856Y-59400500D01*
X121903810Y-59400500D01*
X121962001Y-59419407D01*
X121973814Y-59429496D01*
X123531070Y-60986752D01*
X123549248Y-61011757D01*
X123577353Y-61066833D01*
X123579294Y-61070859D01*
X123587862Y-61089705D01*
X123594734Y-61150503D01*
X123564556Y-61203729D01*
X123508857Y-61229052D01*
X123448911Y-61216799D01*
X123427739Y-61200685D01*
X123349501Y-61122447D01*
X123202994Y-61016004D01*
X123202993Y-61016003D01*
X123202991Y-61016002D01*
X123041637Y-60933788D01*
X122869406Y-60877828D01*
X122690549Y-60849500D01*
X122690546Y-60849500D01*
X122509454Y-60849500D01*
X122509451Y-60849500D01*
X122330593Y-60877828D01*
X122158362Y-60933788D01*
X121997008Y-61016002D01*
X121924295Y-61068831D01*
X121850499Y-61122447D01*
X121722447Y-61250499D01*
X121670500Y-61321998D01*
X121616002Y-61397008D01*
X121533788Y-61558362D01*
X121477828Y-61730593D01*
X121449500Y-61909450D01*
X121449500Y-62290549D01*
X121477828Y-62469406D01*
X121477829Y-62469409D01*
X121533789Y-62641639D01*
X121616004Y-62802994D01*
X121722447Y-62949501D01*
X121850499Y-63077553D01*
X121997006Y-63183996D01*
X122158361Y-63266211D01*
X122330591Y-63322171D01*
X122402136Y-63333502D01*
X122509451Y-63350500D01*
X122509454Y-63350500D01*
X122690549Y-63350500D01*
X122779977Y-63336335D01*
X122869409Y-63322171D01*
X123041639Y-63266211D01*
X123202994Y-63183996D01*
X123349501Y-63077553D01*
X123477553Y-62949501D01*
X123583996Y-62802994D01*
X123666211Y-62641639D01*
X123722171Y-62469409D01*
X123750500Y-62290546D01*
X123750500Y-62201818D01*
X123769407Y-62143627D01*
X123818907Y-62107663D01*
X123880093Y-62107663D01*
X123929593Y-62143627D01*
X123945364Y-62177101D01*
X123959431Y-62231676D01*
X123959740Y-62232910D01*
X124006065Y-62423746D01*
X124008092Y-62431562D01*
X124008291Y-62432281D01*
X124012063Y-62445119D01*
X124011936Y-62445156D01*
X124016624Y-62461804D01*
X124017828Y-62469404D01*
X124017829Y-62469409D01*
X124073789Y-62641639D01*
X124156004Y-62802994D01*
X124262447Y-62949501D01*
X124390499Y-63077553D01*
X124537006Y-63183996D01*
X124698361Y-63266211D01*
X124870591Y-63322171D01*
X124942136Y-63333502D01*
X125049451Y-63350500D01*
X125049454Y-63350500D01*
X125230549Y-63350500D01*
X125319977Y-63336335D01*
X125409409Y-63322171D01*
X125581639Y-63266211D01*
X125742994Y-63183996D01*
X125889501Y-63077553D01*
X126017553Y-62949501D01*
X126123996Y-62802994D01*
X126206211Y-62641639D01*
X126262171Y-62469409D01*
X126290500Y-62290546D01*
X126290500Y-62201818D01*
X126309407Y-62143627D01*
X126358907Y-62107663D01*
X126420093Y-62107663D01*
X126469593Y-62143627D01*
X126485364Y-62177101D01*
X126499431Y-62231676D01*
X126499740Y-62232910D01*
X126546065Y-62423746D01*
X126548092Y-62431562D01*
X126548291Y-62432281D01*
X126552063Y-62445119D01*
X126551936Y-62445156D01*
X126556624Y-62461804D01*
X126557828Y-62469404D01*
X126557829Y-62469409D01*
X126613789Y-62641639D01*
X126696004Y-62802994D01*
X126802447Y-62949501D01*
X126930499Y-63077553D01*
X127077006Y-63183996D01*
X127238361Y-63266211D01*
X127410591Y-63322171D01*
X127482136Y-63333502D01*
X127589451Y-63350500D01*
X127589454Y-63350500D01*
X127770549Y-63350500D01*
X127859977Y-63336335D01*
X127949409Y-63322171D01*
X128121639Y-63266211D01*
X128282994Y-63183996D01*
X128429501Y-63077553D01*
X128557553Y-62949501D01*
X128663996Y-62802994D01*
X128746211Y-62641639D01*
X128802171Y-62469409D01*
X128830500Y-62290546D01*
X128830500Y-62201818D01*
X128849407Y-62143627D01*
X128898907Y-62107663D01*
X128960093Y-62107663D01*
X129009593Y-62143627D01*
X129025364Y-62177101D01*
X129039431Y-62231676D01*
X129039740Y-62232910D01*
X129086065Y-62423746D01*
X129088092Y-62431562D01*
X129088291Y-62432281D01*
X129092063Y-62445119D01*
X129091936Y-62445156D01*
X129096624Y-62461804D01*
X129097828Y-62469404D01*
X129097829Y-62469409D01*
X129153789Y-62641639D01*
X129236004Y-62802994D01*
X129342447Y-62949501D01*
X129470499Y-63077553D01*
X129617006Y-63183996D01*
X129778361Y-63266211D01*
X129950591Y-63322171D01*
X130022136Y-63333502D01*
X130129451Y-63350500D01*
X130129454Y-63350500D01*
X130310549Y-63350500D01*
X130399977Y-63336335D01*
X130489409Y-63322171D01*
X130661639Y-63266211D01*
X130822994Y-63183996D01*
X130969501Y-63077553D01*
X131097553Y-62949501D01*
X131203996Y-62802994D01*
X131286211Y-62641639D01*
X131342171Y-62469409D01*
X131370500Y-62290546D01*
X131370500Y-62205080D01*
X131389407Y-62146889D01*
X131438907Y-62110925D01*
X131500093Y-62110925D01*
X131549593Y-62146889D01*
X131565288Y-62180067D01*
X131579073Y-62232856D01*
X131579421Y-62234228D01*
X131626213Y-62424511D01*
X131628191Y-62432055D01*
X131628381Y-62432739D01*
X131632028Y-62445113D01*
X131631910Y-62445147D01*
X131636648Y-62461961D01*
X131637826Y-62469396D01*
X131637829Y-62469409D01*
X131693789Y-62641639D01*
X131776004Y-62802994D01*
X131882447Y-62949501D01*
X132010499Y-63077553D01*
X132157006Y-63183996D01*
X132318361Y-63266211D01*
X132490591Y-63322171D01*
X132562136Y-63333502D01*
X132669451Y-63350500D01*
X132669454Y-63350500D01*
X132850549Y-63350500D01*
X132939977Y-63336335D01*
X133029409Y-63322171D01*
X133201639Y-63266211D01*
X133362994Y-63183996D01*
X133509501Y-63077553D01*
X133637553Y-62949501D01*
X133743996Y-62802994D01*
X133826211Y-62641639D01*
X133882171Y-62469409D01*
X133910500Y-62290546D01*
X133910500Y-61909454D01*
X133910500Y-61909450D01*
X134149500Y-61909450D01*
X134149500Y-62290549D01*
X134177828Y-62469406D01*
X134177829Y-62469409D01*
X134233789Y-62641639D01*
X134316004Y-62802994D01*
X134422447Y-62949501D01*
X134550499Y-63077553D01*
X134697006Y-63183996D01*
X134858361Y-63266211D01*
X135030591Y-63322171D01*
X135102136Y-63333502D01*
X135209451Y-63350500D01*
X135209454Y-63350500D01*
X135390549Y-63350500D01*
X135479977Y-63336335D01*
X135569409Y-63322171D01*
X135741639Y-63266211D01*
X135902994Y-63183996D01*
X136049501Y-63077553D01*
X136177553Y-62949501D01*
X136283996Y-62802994D01*
X136366211Y-62641639D01*
X136422171Y-62469409D01*
X136450500Y-62290546D01*
X136450500Y-61909454D01*
X136450500Y-61909450D01*
X139229500Y-61909450D01*
X139229500Y-62290549D01*
X139257828Y-62469406D01*
X139257829Y-62469409D01*
X139313789Y-62641639D01*
X139396004Y-62802994D01*
X139502447Y-62949501D01*
X139630499Y-63077553D01*
X139777006Y-63183996D01*
X139938361Y-63266211D01*
X140110591Y-63322171D01*
X140182136Y-63333502D01*
X140289451Y-63350500D01*
X140289454Y-63350500D01*
X140470549Y-63350500D01*
X140559977Y-63336335D01*
X140649409Y-63322171D01*
X140821639Y-63266211D01*
X140982994Y-63183996D01*
X141129501Y-63077553D01*
X141257553Y-62949501D01*
X141363996Y-62802994D01*
X141446211Y-62641639D01*
X141502171Y-62469409D01*
X141530500Y-62290546D01*
X141530500Y-61909454D01*
X141530500Y-61909450D01*
X141769500Y-61909450D01*
X141769500Y-62290549D01*
X141797828Y-62469406D01*
X141797829Y-62469409D01*
X141853789Y-62641639D01*
X141936004Y-62802994D01*
X142042447Y-62949501D01*
X142170499Y-63077553D01*
X142317006Y-63183996D01*
X142478361Y-63266211D01*
X142650591Y-63322171D01*
X142722136Y-63333502D01*
X142829451Y-63350500D01*
X142829454Y-63350500D01*
X143010549Y-63350500D01*
X143099977Y-63336335D01*
X143189409Y-63322171D01*
X143361639Y-63266211D01*
X143522994Y-63183996D01*
X143669501Y-63077553D01*
X143797553Y-62949501D01*
X143903996Y-62802994D01*
X143986211Y-62641639D01*
X144042171Y-62469409D01*
X144070500Y-62290546D01*
X144070500Y-61909454D01*
X144070500Y-61909450D01*
X146849500Y-61909450D01*
X146849500Y-62290549D01*
X146877828Y-62469406D01*
X146877829Y-62469409D01*
X146933789Y-62641639D01*
X147016004Y-62802994D01*
X147122447Y-62949501D01*
X147250499Y-63077553D01*
X147397006Y-63183996D01*
X147558361Y-63266211D01*
X147730591Y-63322171D01*
X147802136Y-63333502D01*
X147909451Y-63350500D01*
X147909454Y-63350500D01*
X148090549Y-63350500D01*
X148179977Y-63336335D01*
X148269409Y-63322171D01*
X148441639Y-63266211D01*
X148602994Y-63183996D01*
X148749501Y-63077553D01*
X148877553Y-62949501D01*
X148983996Y-62802994D01*
X149066211Y-62641639D01*
X149122171Y-62469409D01*
X149150500Y-62290546D01*
X149150500Y-61909454D01*
X149150500Y-61909450D01*
X149122171Y-61730593D01*
X149122171Y-61730591D01*
X149066211Y-61558361D01*
X148983996Y-61397006D01*
X148877553Y-61250499D01*
X148749501Y-61122447D01*
X148602994Y-61016004D01*
X148602993Y-61016003D01*
X148602991Y-61016002D01*
X148441637Y-60933788D01*
X148269406Y-60877828D01*
X148090549Y-60849500D01*
X148090546Y-60849500D01*
X147909454Y-60849500D01*
X147909451Y-60849500D01*
X147730593Y-60877828D01*
X147558362Y-60933788D01*
X147397008Y-61016002D01*
X147324295Y-61068831D01*
X147250499Y-61122447D01*
X147122447Y-61250499D01*
X147070500Y-61321998D01*
X147016002Y-61397008D01*
X146933788Y-61558362D01*
X146877828Y-61730593D01*
X146849500Y-61909450D01*
X144070500Y-61909450D01*
X144042171Y-61730593D01*
X144042171Y-61730591D01*
X143986211Y-61558361D01*
X143903996Y-61397006D01*
X143797553Y-61250499D01*
X143669501Y-61122447D01*
X143522994Y-61016004D01*
X143522993Y-61016003D01*
X143522991Y-61016002D01*
X143361637Y-60933788D01*
X143189406Y-60877828D01*
X143010549Y-60849500D01*
X143010546Y-60849500D01*
X142829454Y-60849500D01*
X142829451Y-60849500D01*
X142650593Y-60877828D01*
X142478362Y-60933788D01*
X142317008Y-61016002D01*
X142244295Y-61068831D01*
X142170499Y-61122447D01*
X142042447Y-61250499D01*
X141990500Y-61321998D01*
X141936002Y-61397008D01*
X141853788Y-61558362D01*
X141797828Y-61730593D01*
X141769500Y-61909450D01*
X141530500Y-61909450D01*
X141502171Y-61730593D01*
X141502171Y-61730591D01*
X141446211Y-61558361D01*
X141363996Y-61397006D01*
X141257553Y-61250499D01*
X141129501Y-61122447D01*
X140982994Y-61016004D01*
X140982993Y-61016003D01*
X140982991Y-61016002D01*
X140821637Y-60933788D01*
X140649406Y-60877828D01*
X140470549Y-60849500D01*
X140470546Y-60849500D01*
X140289454Y-60849500D01*
X140289451Y-60849500D01*
X140110593Y-60877828D01*
X139938362Y-60933788D01*
X139777008Y-61016002D01*
X139704295Y-61068831D01*
X139630499Y-61122447D01*
X139502447Y-61250499D01*
X139450500Y-61321998D01*
X139396002Y-61397008D01*
X139313788Y-61558362D01*
X139257828Y-61730593D01*
X139229500Y-61909450D01*
X136450500Y-61909450D01*
X136422171Y-61730593D01*
X136422171Y-61730591D01*
X136366211Y-61558361D01*
X136283996Y-61397006D01*
X136177553Y-61250499D01*
X136049501Y-61122447D01*
X135902994Y-61016004D01*
X135902993Y-61016003D01*
X135902991Y-61016002D01*
X135741637Y-60933788D01*
X135569406Y-60877828D01*
X135390549Y-60849500D01*
X135390546Y-60849500D01*
X135209454Y-60849500D01*
X135209451Y-60849500D01*
X135030593Y-60877828D01*
X134858362Y-60933788D01*
X134697008Y-61016002D01*
X134624295Y-61068831D01*
X134550499Y-61122447D01*
X134422447Y-61250499D01*
X134370500Y-61321998D01*
X134316002Y-61397008D01*
X134233788Y-61558362D01*
X134177828Y-61730593D01*
X134149500Y-61909450D01*
X133910500Y-61909450D01*
X133882171Y-61730593D01*
X133882171Y-61730591D01*
X133826211Y-61558361D01*
X133743996Y-61397006D01*
X133637553Y-61250499D01*
X133509501Y-61122447D01*
X133362994Y-61016004D01*
X133362993Y-61016003D01*
X133362991Y-61016002D01*
X133201637Y-60933788D01*
X133029406Y-60877828D01*
X132850549Y-60849500D01*
X132850546Y-60849500D01*
X132669454Y-60849500D01*
X132669450Y-60849500D01*
X132587277Y-60862514D01*
X132563650Y-60863398D01*
X132544005Y-60861777D01*
X132536473Y-60860864D01*
X132420949Y-60842342D01*
X132413689Y-60840897D01*
X132368750Y-60830194D01*
X132297026Y-60813111D01*
X132290135Y-60811204D01*
X132171987Y-60773871D01*
X132165541Y-60771587D01*
X132045710Y-60724397D01*
X132039754Y-60721823D01*
X131918124Y-60664458D01*
X131912681Y-60661682D01*
X131789204Y-60593836D01*
X131784270Y-60590936D01*
X131665899Y-60516682D01*
X131648503Y-60502821D01*
X129191824Y-58046142D01*
X126465212Y-55319530D01*
X126385288Y-55273386D01*
X126296144Y-55249500D01*
X126296142Y-55249500D01*
X122330896Y-55249500D01*
X122308412Y-55246913D01*
X122297064Y-55244266D01*
X122297058Y-55244265D01*
X122297057Y-55244265D01*
X122292583Y-55244118D01*
X122253288Y-55242829D01*
X122245039Y-55242212D01*
X122221801Y-55239495D01*
X122211371Y-55237706D01*
X122203754Y-55235976D01*
X122192331Y-55232649D01*
X122190422Y-55231966D01*
X122180563Y-55227825D01*
X122172847Y-55224082D01*
X122166645Y-55220797D01*
X122147738Y-55209907D01*
X122145277Y-55208489D01*
X122143378Y-55207366D01*
X122139371Y-55204935D01*
X122139371Y-55204936D01*
X122108580Y-55186266D01*
X122106938Y-55185280D01*
X122106930Y-55185275D01*
X122106848Y-55185226D01*
X122106707Y-55185142D01*
X122104130Y-55183627D01*
X122078182Y-55168577D01*
X122060490Y-55158315D01*
X122055124Y-55155288D01*
X122054740Y-55155078D01*
X122054733Y-55155074D01*
X122054707Y-55155060D01*
X122049744Y-55152410D01*
X121997547Y-55125271D01*
X121997527Y-55125261D01*
X121997504Y-55125249D01*
X121990931Y-55121951D01*
X121990384Y-55121686D01*
X121984913Y-55119137D01*
X121983677Y-55118561D01*
X121983663Y-55118554D01*
X121983640Y-55118544D01*
X121930435Y-55094676D01*
X121930367Y-55094646D01*
X121930298Y-55094615D01*
X121927667Y-55093453D01*
X121927581Y-55093415D01*
X121927519Y-55093388D01*
X121927428Y-55093349D01*
X121923969Y-55091874D01*
X121923965Y-55091873D01*
X121909620Y-55088974D01*
X121891347Y-55083401D01*
X121843709Y-55063670D01*
X121843710Y-55063670D01*
X121725848Y-55048153D01*
X121704900Y-55038161D01*
X121674151Y-55048153D01*
X121556291Y-55063669D01*
X121556290Y-55063670D01*
X121422378Y-55119137D01*
X121422374Y-55119139D01*
X121307381Y-55207377D01*
X121307377Y-55207381D01*
X121219139Y-55322374D01*
X121219137Y-55322378D01*
X121163670Y-55456290D01*
X121163669Y-55456291D01*
X121144750Y-55599999D01*
X121144750Y-55600000D01*
X121163669Y-55743708D01*
X121163670Y-55743709D01*
X121219139Y-55877625D01*
X121307379Y-55992621D01*
X121422375Y-56080861D01*
X121556291Y-56136330D01*
X121700000Y-56155250D01*
X121843709Y-56136330D01*
X121843712Y-56136328D01*
X121843715Y-56136328D01*
X121896075Y-56114639D01*
X121911840Y-56109605D01*
X121930339Y-56105365D01*
X121983666Y-56081442D01*
X121990313Y-56078344D01*
X121990692Y-56078160D01*
X121990924Y-56078049D01*
X121994025Y-56076493D01*
X121997561Y-56074720D01*
X122049722Y-56047599D01*
X122054932Y-56044813D01*
X122055405Y-56044553D01*
X122060520Y-56041665D01*
X122104102Y-56016387D01*
X122104183Y-56016338D01*
X122104239Y-56016307D01*
X122105945Y-56015306D01*
X122105958Y-56015297D01*
X122106042Y-56015249D01*
X122106238Y-56015133D01*
X122108579Y-56013731D01*
X122143473Y-55992571D01*
X122145190Y-55991556D01*
X122166668Y-55979186D01*
X122172831Y-55975922D01*
X122180571Y-55972167D01*
X122190462Y-55968017D01*
X122192402Y-55967323D01*
X122203735Y-55964026D01*
X122204566Y-55963836D01*
X122211369Y-55962291D01*
X122221773Y-55960504D01*
X122245063Y-55957781D01*
X122253273Y-55957168D01*
X122297054Y-55955734D01*
X122306649Y-55953578D01*
X122309646Y-55952906D01*
X122331340Y-55950500D01*
X126063810Y-55950500D01*
X126122001Y-55969407D01*
X126133814Y-55979496D01*
X131146584Y-60992266D01*
X131164504Y-61016769D01*
X131183350Y-61053186D01*
X131183351Y-61053188D01*
X131193448Y-61072700D01*
X131195427Y-61076747D01*
X131195652Y-61077235D01*
X131202847Y-61137996D01*
X131172953Y-61191382D01*
X131117389Y-61217000D01*
X131057379Y-61205066D01*
X131035748Y-61188694D01*
X130969501Y-61122447D01*
X130822994Y-61016004D01*
X130822993Y-61016003D01*
X130822991Y-61016002D01*
X130661637Y-60933788D01*
X130489406Y-60877828D01*
X130310549Y-60849500D01*
X130310546Y-60849500D01*
X130129454Y-60849500D01*
X130129451Y-60849500D01*
X130054474Y-60861375D01*
X130030426Y-60862223D01*
X130020633Y-60861373D01*
X130020621Y-60861371D01*
X130020621Y-60861372D01*
X130006591Y-60860154D01*
X129999065Y-60859209D01*
X129954206Y-60851821D01*
X129954204Y-60851820D01*
X129954204Y-60851821D01*
X129884014Y-60840259D01*
X129876766Y-60838784D01*
X129857461Y-60834101D01*
X129857442Y-60834096D01*
X129760531Y-60810583D01*
X129753655Y-60808649D01*
X129635960Y-60770923D01*
X129629533Y-60768616D01*
X129510124Y-60721035D01*
X129504193Y-60718444D01*
X129382966Y-60660695D01*
X129377560Y-60657912D01*
X129310087Y-60620512D01*
X129310062Y-60620498D01*
X129254492Y-60589696D01*
X129249584Y-60586788D01*
X129234456Y-60577224D01*
X129130797Y-60511690D01*
X129113696Y-60498014D01*
X127286186Y-58670504D01*
X125235212Y-56619530D01*
X125155288Y-56573386D01*
X125066144Y-56549500D01*
X125066142Y-56549500D01*
X121486189Y-56549500D01*
X121427998Y-56530593D01*
X121416185Y-56520504D01*
X119195680Y-54299999D01*
X116915212Y-52019530D01*
X116835288Y-51973386D01*
X116835287Y-51973385D01*
X116835286Y-51973385D01*
X116830096Y-51971995D01*
X116824905Y-51970604D01*
X116746144Y-51949500D01*
X116746142Y-51949500D01*
X116330896Y-51949500D01*
X116308412Y-51946913D01*
X116297064Y-51944266D01*
X116297058Y-51944265D01*
X116297057Y-51944265D01*
X116292583Y-51944118D01*
X116253288Y-51942829D01*
X116245039Y-51942212D01*
X116221801Y-51939495D01*
X116211371Y-51937706D01*
X116203754Y-51935976D01*
X116192331Y-51932649D01*
X116190422Y-51931966D01*
X116180563Y-51927825D01*
X116172847Y-51924082D01*
X116166645Y-51920797D01*
X116155455Y-51914352D01*
X116145277Y-51908489D01*
X116143378Y-51907366D01*
X116139371Y-51904935D01*
X116139371Y-51904936D01*
X116108580Y-51886266D01*
X116106938Y-51885280D01*
X116106930Y-51885275D01*
X116106848Y-51885226D01*
X116106707Y-51885142D01*
X116104130Y-51883627D01*
X116088015Y-51874280D01*
X116060490Y-51858315D01*
X116055124Y-51855288D01*
X116054740Y-51855078D01*
X116054733Y-51855074D01*
X116054707Y-51855060D01*
X116049744Y-51852410D01*
X115997547Y-51825271D01*
X115997527Y-51825261D01*
X115997504Y-51825249D01*
X115990931Y-51821951D01*
X115990384Y-51821686D01*
X115984913Y-51819137D01*
X115983677Y-51818561D01*
X115983663Y-51818554D01*
X115983640Y-51818544D01*
X115930435Y-51794676D01*
X115930367Y-51794646D01*
X115930298Y-51794615D01*
X115927667Y-51793453D01*
X115927581Y-51793415D01*
X115927519Y-51793388D01*
X115927428Y-51793349D01*
X115923969Y-51791874D01*
X115923965Y-51791873D01*
X115909620Y-51788974D01*
X115891347Y-51783401D01*
X115843709Y-51763670D01*
X115843710Y-51763670D01*
X115700000Y-51744750D01*
X115556291Y-51763669D01*
X115556290Y-51763670D01*
X115422378Y-51819137D01*
X115422374Y-51819139D01*
X115307381Y-51907377D01*
X115307377Y-51907381D01*
X115219139Y-52022374D01*
X115219137Y-52022378D01*
X115163670Y-52156290D01*
X115163669Y-52156291D01*
X115147653Y-52277949D01*
X115138072Y-52298035D01*
X114958883Y-52298035D01*
X114950500Y-52265027D01*
X114950500Y-50686190D01*
X114969407Y-50627999D01*
X114979496Y-50616186D01*
X115516186Y-50079496D01*
X115570703Y-50051719D01*
X115586190Y-50050500D01*
X116913810Y-50050500D01*
X116972001Y-50069407D01*
X116983814Y-50079496D01*
X121006052Y-54101733D01*
X121020121Y-54119461D01*
X121026275Y-54129359D01*
X121056203Y-54161317D01*
X121061601Y-54167586D01*
X121076107Y-54185933D01*
X121082221Y-54194579D01*
X121086388Y-54201196D01*
X121092099Y-54211600D01*
X121092967Y-54213434D01*
X121097021Y-54223357D01*
X121099826Y-54231448D01*
X121101889Y-54238156D01*
X121108304Y-54262000D01*
X121108857Y-54264152D01*
X121118555Y-54303721D01*
X121119340Y-54306832D01*
X121119447Y-54307245D01*
X121119790Y-54308553D01*
X121132761Y-54357356D01*
X121134204Y-54362563D01*
X121134350Y-54363068D01*
X121136189Y-54369156D01*
X121145064Y-54397254D01*
X121153913Y-54425270D01*
X121156240Y-54432284D01*
X121156462Y-54432922D01*
X121156475Y-54432958D01*
X121158986Y-54439852D01*
X121179776Y-54494473D01*
X121181102Y-54497881D01*
X121181226Y-54498193D01*
X121182315Y-54500892D01*
X121190422Y-54513108D01*
X121199396Y-54529962D01*
X121219137Y-54577621D01*
X121219139Y-54577625D01*
X121307379Y-54692621D01*
X121422375Y-54780861D01*
X121556291Y-54836330D01*
X121674151Y-54851847D01*
X121695098Y-54861838D01*
X121725848Y-54851847D01*
X121739277Y-54850078D01*
X121843709Y-54836330D01*
X121977625Y-54780861D01*
X122092621Y-54692621D01*
X122180861Y-54577625D01*
X122236330Y-54443709D01*
X122255250Y-54300000D01*
X122250530Y-54264152D01*
X122236330Y-54156291D01*
X122180861Y-54022375D01*
X122092621Y-53907379D01*
X121977625Y-53819139D01*
X121977623Y-53819138D01*
X121925262Y-53797449D01*
X121910556Y-53789860D01*
X121894480Y-53779780D01*
X121894475Y-53779777D01*
X121839812Y-53758970D01*
X121832671Y-53756373D01*
X121832054Y-53756159D01*
X121828580Y-53755009D01*
X121825279Y-53753916D01*
X121813114Y-53750073D01*
X121769159Y-53736190D01*
X121763209Y-53734391D01*
X121763164Y-53734378D01*
X121762690Y-53734241D01*
X121762673Y-53734236D01*
X121762627Y-53734223D01*
X121757438Y-53732784D01*
X121757430Y-53732781D01*
X121757380Y-53732768D01*
X121708697Y-53719828D01*
X121706979Y-53719378D01*
X121706918Y-53719362D01*
X121706797Y-53719331D01*
X121706800Y-53719331D01*
X121706770Y-53719324D01*
X121706056Y-53719144D01*
X121703627Y-53718532D01*
X121664175Y-53708863D01*
X121662021Y-53708309D01*
X121638155Y-53701888D01*
X121631452Y-53699828D01*
X121623354Y-53697021D01*
X121613400Y-53692952D01*
X121611578Y-53692089D01*
X121601194Y-53686386D01*
X121594583Y-53682222D01*
X121585947Y-53676116D01*
X121567582Y-53661597D01*
X121561310Y-53656197D01*
X121556228Y-53651438D01*
X121529357Y-53626274D01*
X121518455Y-53619371D01*
X121501414Y-53605733D01*
X119422225Y-51526544D01*
X118195681Y-50299999D01*
X123944750Y-50299999D01*
X123944750Y-50300000D01*
X123963669Y-50443708D01*
X123963670Y-50443709D01*
X124019139Y-50577625D01*
X124107379Y-50692621D01*
X124222375Y-50780861D01*
X124356291Y-50836330D01*
X124500000Y-50855250D01*
X124643709Y-50836330D01*
X124704123Y-50811306D01*
X128099500Y-50811306D01*
X128099500Y-51188693D01*
X128134106Y-51362665D01*
X128134106Y-51362667D01*
X128201985Y-51526544D01*
X128201985Y-51526545D01*
X128300535Y-51674034D01*
X128300536Y-51674035D01*
X128425965Y-51799464D01*
X128573453Y-51898013D01*
X128573454Y-51898013D01*
X128573455Y-51898014D01*
X128598857Y-51908536D01*
X128645383Y-51948272D01*
X128659667Y-52007767D01*
X128636252Y-52064295D01*
X128598857Y-52091464D01*
X128573455Y-52101985D01*
X128573454Y-52101985D01*
X128425965Y-52200535D01*
X128300535Y-52325965D01*
X128201985Y-52473454D01*
X128201985Y-52473455D01*
X128134106Y-52637332D01*
X128134106Y-52637334D01*
X128099500Y-52811306D01*
X128099500Y-53188693D01*
X128111588Y-53249460D01*
X128132315Y-53353664D01*
X128134106Y-53362665D01*
X128134106Y-53362667D01*
X128201985Y-53526544D01*
X128201985Y-53526545D01*
X128288617Y-53656197D01*
X128300536Y-53674035D01*
X128425965Y-53799464D01*
X128573453Y-53898013D01*
X128573454Y-53898013D01*
X128573455Y-53898014D01*
X128610581Y-53913391D01*
X128737334Y-53965894D01*
X128911309Y-54000500D01*
X128911310Y-54000500D01*
X129088690Y-54000500D01*
X129088691Y-54000500D01*
X129262666Y-53965894D01*
X129426547Y-53898013D01*
X129574035Y-53799464D01*
X129699464Y-53674035D01*
X129798013Y-53526547D01*
X129865894Y-53362666D01*
X129900500Y-53188691D01*
X129900500Y-52811309D01*
X129865894Y-52637334D01*
X129798014Y-52473455D01*
X129798014Y-52473454D01*
X129699464Y-52325965D01*
X129574034Y-52200535D01*
X129426547Y-52101987D01*
X129426542Y-52101985D01*
X129401141Y-52091463D01*
X129354616Y-52051729D01*
X129340332Y-51992234D01*
X129363746Y-51935706D01*
X129401141Y-51908536D01*
X129426547Y-51898013D01*
X129574035Y-51799464D01*
X129699464Y-51674035D01*
X129798013Y-51526547D01*
X129865894Y-51362666D01*
X129900500Y-51188691D01*
X129900500Y-50811309D01*
X129900499Y-50811306D01*
X130099500Y-50811306D01*
X130099500Y-51188693D01*
X130134106Y-51362665D01*
X130134106Y-51362667D01*
X130201985Y-51526544D01*
X130201985Y-51526545D01*
X130300535Y-51674034D01*
X130300536Y-51674035D01*
X130425965Y-51799464D01*
X130573453Y-51898013D01*
X130573454Y-51898013D01*
X130573455Y-51898014D01*
X130598857Y-51908536D01*
X130645383Y-51948272D01*
X130659667Y-52007767D01*
X130636252Y-52064295D01*
X130598857Y-52091464D01*
X130573455Y-52101985D01*
X130573454Y-52101985D01*
X130425965Y-52200535D01*
X130300535Y-52325965D01*
X130201985Y-52473454D01*
X130201985Y-52473455D01*
X130134106Y-52637332D01*
X130134106Y-52637334D01*
X130099500Y-52811306D01*
X130099500Y-53188693D01*
X130111588Y-53249460D01*
X130132315Y-53353664D01*
X130134106Y-53362665D01*
X130134106Y-53362667D01*
X130201985Y-53526544D01*
X130201985Y-53526545D01*
X130288617Y-53656197D01*
X130300536Y-53674035D01*
X130425965Y-53799464D01*
X130573453Y-53898013D01*
X130573454Y-53898013D01*
X130573455Y-53898014D01*
X130610581Y-53913391D01*
X130737334Y-53965894D01*
X130911309Y-54000500D01*
X130911310Y-54000500D01*
X131088690Y-54000500D01*
X131088691Y-54000500D01*
X131262666Y-53965894D01*
X131426547Y-53898013D01*
X131574035Y-53799464D01*
X131699464Y-53674035D01*
X131798013Y-53526547D01*
X131865894Y-53362666D01*
X131900500Y-53188691D01*
X131900500Y-52811309D01*
X131865894Y-52637334D01*
X131798014Y-52473455D01*
X131798014Y-52473454D01*
X131699464Y-52325965D01*
X131574034Y-52200535D01*
X131426547Y-52101987D01*
X131426542Y-52101985D01*
X131401141Y-52091463D01*
X131354616Y-52051729D01*
X131340332Y-51992234D01*
X131363746Y-51935706D01*
X131401141Y-51908536D01*
X131426547Y-51898013D01*
X131574035Y-51799464D01*
X131699464Y-51674035D01*
X131798013Y-51526547D01*
X131865894Y-51362666D01*
X131900500Y-51188691D01*
X131900500Y-50811309D01*
X131900499Y-50811306D01*
X134099500Y-50811306D01*
X134099500Y-51188693D01*
X134134106Y-51362665D01*
X134134106Y-51362667D01*
X134201985Y-51526544D01*
X134201985Y-51526545D01*
X134300535Y-51674034D01*
X134300536Y-51674035D01*
X134425965Y-51799464D01*
X134573453Y-51898013D01*
X134573454Y-51898013D01*
X134573455Y-51898014D01*
X134598857Y-51908536D01*
X134645383Y-51948272D01*
X134659667Y-52007767D01*
X134636252Y-52064295D01*
X134598857Y-52091464D01*
X134573455Y-52101985D01*
X134573454Y-52101985D01*
X134425965Y-52200535D01*
X134300535Y-52325965D01*
X134201985Y-52473454D01*
X134201985Y-52473455D01*
X134134106Y-52637332D01*
X134134106Y-52637334D01*
X134099500Y-52811306D01*
X134099500Y-53188693D01*
X134111588Y-53249460D01*
X134132315Y-53353664D01*
X134134106Y-53362665D01*
X134134106Y-53362667D01*
X134201985Y-53526544D01*
X134201985Y-53526545D01*
X134288617Y-53656197D01*
X134300536Y-53674035D01*
X134425965Y-53799464D01*
X134573453Y-53898013D01*
X134573454Y-53898013D01*
X134573455Y-53898014D01*
X134610581Y-53913391D01*
X134737334Y-53965894D01*
X134911309Y-54000500D01*
X134911310Y-54000500D01*
X135088690Y-54000500D01*
X135088691Y-54000500D01*
X135262666Y-53965894D01*
X135426547Y-53898013D01*
X135574035Y-53799464D01*
X135699464Y-53674035D01*
X135798013Y-53526547D01*
X135865894Y-53362666D01*
X135900500Y-53188691D01*
X135900500Y-52811309D01*
X135865894Y-52637334D01*
X135798014Y-52473455D01*
X135798014Y-52473454D01*
X135699464Y-52325965D01*
X135574034Y-52200535D01*
X135426547Y-52101987D01*
X135426542Y-52101985D01*
X135401141Y-52091463D01*
X135354616Y-52051729D01*
X135340332Y-51992234D01*
X135363746Y-51935706D01*
X135401141Y-51908536D01*
X135426547Y-51898013D01*
X135574035Y-51799464D01*
X135699464Y-51674035D01*
X135798013Y-51526547D01*
X135865894Y-51362666D01*
X135900500Y-51188691D01*
X135900500Y-50811309D01*
X135900499Y-50811306D01*
X136099500Y-50811306D01*
X136099500Y-51188693D01*
X136134106Y-51362665D01*
X136134106Y-51362667D01*
X136201985Y-51526544D01*
X136201985Y-51526545D01*
X136300535Y-51674034D01*
X136300536Y-51674035D01*
X136425965Y-51799464D01*
X136573453Y-51898013D01*
X136573454Y-51898013D01*
X136573455Y-51898014D01*
X136598857Y-51908536D01*
X136645383Y-51948272D01*
X136659667Y-52007767D01*
X136636252Y-52064295D01*
X136598857Y-52091464D01*
X136573455Y-52101985D01*
X136573454Y-52101985D01*
X136425965Y-52200535D01*
X136300535Y-52325965D01*
X136201985Y-52473454D01*
X136201985Y-52473455D01*
X136134106Y-52637332D01*
X136134106Y-52637334D01*
X136099500Y-52811306D01*
X136099500Y-53188693D01*
X136111588Y-53249460D01*
X136132315Y-53353664D01*
X136134106Y-53362665D01*
X136134106Y-53362667D01*
X136201985Y-53526544D01*
X136201985Y-53526545D01*
X136288617Y-53656197D01*
X136300536Y-53674035D01*
X136425965Y-53799464D01*
X136573453Y-53898013D01*
X136573454Y-53898013D01*
X136573455Y-53898014D01*
X136610581Y-53913391D01*
X136737334Y-53965894D01*
X136911309Y-54000500D01*
X136911310Y-54000500D01*
X137088690Y-54000500D01*
X137088691Y-54000500D01*
X137262666Y-53965894D01*
X137426547Y-53898013D01*
X137574035Y-53799464D01*
X137699464Y-53674035D01*
X137798013Y-53526547D01*
X137865894Y-53362666D01*
X137900500Y-53188691D01*
X137900500Y-52811309D01*
X137865894Y-52637334D01*
X137798014Y-52473455D01*
X137798014Y-52473454D01*
X137699464Y-52325965D01*
X137574034Y-52200535D01*
X137426547Y-52101987D01*
X137426542Y-52101985D01*
X137401141Y-52091463D01*
X137354616Y-52051729D01*
X137340332Y-51992234D01*
X137363746Y-51935706D01*
X137401141Y-51908536D01*
X137426547Y-51898013D01*
X137574035Y-51799464D01*
X137699464Y-51674035D01*
X137798013Y-51526547D01*
X137865894Y-51362666D01*
X137900500Y-51188691D01*
X137900500Y-50811309D01*
X137900499Y-50811306D01*
X138099500Y-50811306D01*
X138099500Y-51188693D01*
X138134106Y-51362665D01*
X138134106Y-51362667D01*
X138201985Y-51526544D01*
X138201985Y-51526545D01*
X138300535Y-51674034D01*
X138300536Y-51674035D01*
X138425965Y-51799464D01*
X138573453Y-51898013D01*
X138573454Y-51898013D01*
X138573455Y-51898014D01*
X138598857Y-51908536D01*
X138645383Y-51948272D01*
X138659667Y-52007767D01*
X138636252Y-52064295D01*
X138598857Y-52091464D01*
X138573455Y-52101985D01*
X138573454Y-52101985D01*
X138425965Y-52200535D01*
X138300535Y-52325965D01*
X138201985Y-52473454D01*
X138201985Y-52473455D01*
X138134106Y-52637332D01*
X138134106Y-52637334D01*
X138099500Y-52811306D01*
X138099500Y-53188693D01*
X138111588Y-53249460D01*
X138132315Y-53353664D01*
X138134106Y-53362665D01*
X138134106Y-53362667D01*
X138201985Y-53526544D01*
X138201985Y-53526545D01*
X138288617Y-53656197D01*
X138300536Y-53674035D01*
X138425965Y-53799464D01*
X138573453Y-53898013D01*
X138573454Y-53898013D01*
X138573455Y-53898014D01*
X138610581Y-53913391D01*
X138737334Y-53965894D01*
X138911309Y-54000500D01*
X138911310Y-54000500D01*
X139088690Y-54000500D01*
X139088691Y-54000500D01*
X139262666Y-53965894D01*
X139426547Y-53898013D01*
X139574035Y-53799464D01*
X139699464Y-53674035D01*
X139798013Y-53526547D01*
X139865894Y-53362666D01*
X139900500Y-53188691D01*
X139900500Y-52811309D01*
X139865894Y-52637334D01*
X139798014Y-52473455D01*
X139798014Y-52473454D01*
X139699464Y-52325965D01*
X139574034Y-52200535D01*
X139426547Y-52101987D01*
X139426542Y-52101985D01*
X139401141Y-52091463D01*
X139354616Y-52051729D01*
X139340332Y-51992234D01*
X139363746Y-51935706D01*
X139401141Y-51908536D01*
X139426547Y-51898013D01*
X139574035Y-51799464D01*
X139699464Y-51674035D01*
X139798013Y-51526547D01*
X139865894Y-51362666D01*
X139900500Y-51188691D01*
X139900500Y-50811309D01*
X139900499Y-50811306D01*
X140099500Y-50811306D01*
X140099500Y-51188693D01*
X140134106Y-51362665D01*
X140134106Y-51362667D01*
X140201985Y-51526544D01*
X140201985Y-51526545D01*
X140300535Y-51674034D01*
X140300536Y-51674035D01*
X140425965Y-51799464D01*
X140573453Y-51898013D01*
X140573454Y-51898013D01*
X140573455Y-51898014D01*
X140598857Y-51908536D01*
X140645383Y-51948272D01*
X140659667Y-52007767D01*
X140636252Y-52064295D01*
X140598857Y-52091464D01*
X140573455Y-52101985D01*
X140573454Y-52101985D01*
X140425965Y-52200535D01*
X140300535Y-52325965D01*
X140201985Y-52473454D01*
X140201985Y-52473455D01*
X140134106Y-52637332D01*
X140134106Y-52637334D01*
X140099500Y-52811306D01*
X140099500Y-53188693D01*
X140111588Y-53249460D01*
X140132315Y-53353664D01*
X140134106Y-53362665D01*
X140134106Y-53362667D01*
X140201985Y-53526544D01*
X140201985Y-53526545D01*
X140288617Y-53656197D01*
X140300536Y-53674035D01*
X140425965Y-53799464D01*
X140573453Y-53898013D01*
X140573454Y-53898013D01*
X140573455Y-53898014D01*
X140610581Y-53913391D01*
X140737334Y-53965894D01*
X140911309Y-54000500D01*
X140911310Y-54000500D01*
X141088690Y-54000500D01*
X141088691Y-54000500D01*
X141262666Y-53965894D01*
X141426547Y-53898013D01*
X141574035Y-53799464D01*
X141699464Y-53674035D01*
X141798013Y-53526547D01*
X141865894Y-53362666D01*
X141900500Y-53188691D01*
X141900500Y-52811309D01*
X141865894Y-52637334D01*
X141798014Y-52473455D01*
X141798014Y-52473454D01*
X141699464Y-52325965D01*
X141574034Y-52200535D01*
X141426547Y-52101987D01*
X141426542Y-52101985D01*
X141401141Y-52091463D01*
X141354616Y-52051729D01*
X141340332Y-51992234D01*
X141363746Y-51935706D01*
X141401141Y-51908536D01*
X141426547Y-51898013D01*
X141574035Y-51799464D01*
X141699464Y-51674035D01*
X141798013Y-51526547D01*
X141865894Y-51362666D01*
X141900500Y-51188691D01*
X141900500Y-50811309D01*
X141865894Y-50637334D01*
X141798014Y-50473455D01*
X141798014Y-50473454D01*
X141699464Y-50325965D01*
X141622954Y-50249455D01*
X142099500Y-50249455D01*
X142099500Y-51750544D01*
X142102349Y-51775103D01*
X142102349Y-51775105D01*
X142102350Y-51775106D01*
X142146722Y-51875599D01*
X142224401Y-51953278D01*
X142324894Y-51997650D01*
X142349456Y-52000499D01*
X142349458Y-52000500D01*
X142349460Y-52000500D01*
X142398981Y-52000500D01*
X142457172Y-52019407D01*
X142493136Y-52068907D01*
X142493136Y-52130093D01*
X142457172Y-52179593D01*
X142453999Y-52181804D01*
X142442156Y-52189717D01*
X142425964Y-52200536D01*
X142300535Y-52325965D01*
X142201985Y-52473454D01*
X142201985Y-52473455D01*
X142134106Y-52637332D01*
X142134106Y-52637334D01*
X142099500Y-52811306D01*
X142099500Y-53188693D01*
X142111588Y-53249460D01*
X142132315Y-53353664D01*
X142134106Y-53362665D01*
X142134106Y-53362667D01*
X142201985Y-53526544D01*
X142201985Y-53526545D01*
X142288617Y-53656197D01*
X142300536Y-53674035D01*
X142425965Y-53799464D01*
X142573453Y-53898013D01*
X142573454Y-53898013D01*
X142573455Y-53898014D01*
X142610581Y-53913391D01*
X142737334Y-53965894D01*
X142911309Y-54000500D01*
X142911310Y-54000500D01*
X143088690Y-54000500D01*
X143088691Y-54000500D01*
X143091245Y-53999992D01*
X148444639Y-53999992D01*
X148444639Y-54000007D01*
X148464069Y-54420305D01*
X148464070Y-54420310D01*
X148522203Y-54837047D01*
X148522204Y-54837052D01*
X148618535Y-55246629D01*
X148752249Y-55645579D01*
X148752251Y-55645585D01*
X148752252Y-55645586D01*
X148767522Y-55680169D01*
X148922207Y-56030498D01*
X149126951Y-56398085D01*
X149364736Y-56745209D01*
X149364741Y-56745215D01*
X149633540Y-57068918D01*
X149633543Y-57068921D01*
X149633548Y-57068927D01*
X149931073Y-57366452D01*
X150254782Y-57635257D01*
X150254786Y-57635260D01*
X150254790Y-57635263D01*
X150304814Y-57669530D01*
X150600385Y-57872001D01*
X150601914Y-57873048D01*
X150621243Y-57883814D01*
X150969501Y-58077792D01*
X151354414Y-58247748D01*
X151753366Y-58381463D01*
X152162955Y-58477797D01*
X152579684Y-58535929D01*
X152579690Y-58535929D01*
X152579694Y-58535930D01*
X152999992Y-58555361D01*
X153000000Y-58555361D01*
X153000008Y-58555361D01*
X153420305Y-58535930D01*
X153420308Y-58535929D01*
X153420316Y-58535929D01*
X153837045Y-58477797D01*
X154246634Y-58381463D01*
X154645586Y-58247748D01*
X155030499Y-58077792D01*
X155398089Y-57873046D01*
X155745218Y-57635257D01*
X156068927Y-57366452D01*
X156366452Y-57068927D01*
X156635257Y-56745218D01*
X156873046Y-56398089D01*
X157077792Y-56030499D01*
X157247748Y-55645586D01*
X157381463Y-55246634D01*
X157477797Y-54837045D01*
X157535929Y-54420316D01*
X157538294Y-54369173D01*
X157555361Y-54000007D01*
X157555361Y-53999992D01*
X157535930Y-53579694D01*
X157535929Y-53579689D01*
X157535929Y-53579684D01*
X157477797Y-53162955D01*
X157387930Y-52780861D01*
X157381464Y-52753370D01*
X157379522Y-52747577D01*
X157247748Y-52354414D01*
X157077792Y-51969501D01*
X157037973Y-51898012D01*
X156873048Y-51601914D01*
X156635263Y-51254790D01*
X156635258Y-51254784D01*
X156635257Y-51254782D01*
X156366452Y-50931073D01*
X156068927Y-50633548D01*
X156068921Y-50633543D01*
X156068918Y-50633540D01*
X155852534Y-50453857D01*
X155745218Y-50364743D01*
X155745214Y-50364740D01*
X155745209Y-50364736D01*
X155398085Y-50126951D01*
X155030498Y-49922207D01*
X154645579Y-49752249D01*
X154246629Y-49618535D01*
X153837052Y-49522204D01*
X153837047Y-49522203D01*
X153420310Y-49464070D01*
X153420305Y-49464069D01*
X153000008Y-49444639D01*
X152999992Y-49444639D01*
X152579694Y-49464069D01*
X152579689Y-49464070D01*
X152162952Y-49522203D01*
X152162947Y-49522204D01*
X151753370Y-49618535D01*
X151354420Y-49752249D01*
X150969501Y-49922207D01*
X150601914Y-50126951D01*
X150254790Y-50364736D01*
X150254784Y-50364741D01*
X149931081Y-50633540D01*
X149633540Y-50931081D01*
X149364741Y-51254784D01*
X149364736Y-51254790D01*
X149126951Y-51601914D01*
X148922207Y-51969501D01*
X148752249Y-52354420D01*
X148618535Y-52753370D01*
X148522204Y-53162947D01*
X148522203Y-53162952D01*
X148464070Y-53579689D01*
X148464069Y-53579694D01*
X148444639Y-53999992D01*
X143091245Y-53999992D01*
X143262666Y-53965894D01*
X143426547Y-53898013D01*
X143574035Y-53799464D01*
X143699464Y-53674035D01*
X143798013Y-53526547D01*
X143865894Y-53362666D01*
X143900500Y-53188691D01*
X143900500Y-52811309D01*
X143865894Y-52637334D01*
X143798014Y-52473455D01*
X143798014Y-52473454D01*
X143699464Y-52325965D01*
X143574035Y-52200536D01*
X143574034Y-52200535D01*
X143546017Y-52181814D01*
X143508138Y-52133766D01*
X143505736Y-52072628D01*
X143539728Y-52021754D01*
X143597132Y-52000576D01*
X143601019Y-52000500D01*
X143650542Y-52000500D01*
X143650542Y-52000499D01*
X143675106Y-51997650D01*
X143775599Y-51953278D01*
X143853278Y-51875599D01*
X143897650Y-51775106D01*
X143900500Y-51750540D01*
X143900500Y-50249460D01*
X143897650Y-50224894D01*
X143853278Y-50124401D01*
X143775599Y-50046722D01*
X143675106Y-50002350D01*
X143675105Y-50002349D01*
X143675103Y-50002349D01*
X143650544Y-49999500D01*
X143650540Y-49999500D01*
X142349460Y-49999500D01*
X142349455Y-49999500D01*
X142324896Y-50002349D01*
X142224401Y-50046722D01*
X142146722Y-50124401D01*
X142102349Y-50224896D01*
X142099500Y-50249455D01*
X141622954Y-50249455D01*
X141574034Y-50200535D01*
X141426544Y-50101985D01*
X141262666Y-50034106D01*
X141088693Y-49999500D01*
X141088691Y-49999500D01*
X140911309Y-49999500D01*
X140911306Y-49999500D01*
X140737334Y-50034106D01*
X140737332Y-50034106D01*
X140573455Y-50101985D01*
X140573454Y-50101985D01*
X140425965Y-50200535D01*
X140300535Y-50325965D01*
X140201985Y-50473454D01*
X140201985Y-50473455D01*
X140134106Y-50637332D01*
X140134106Y-50637334D01*
X140099500Y-50811306D01*
X139900499Y-50811306D01*
X139865894Y-50637334D01*
X139798014Y-50473455D01*
X139798014Y-50473454D01*
X139699464Y-50325965D01*
X139574034Y-50200535D01*
X139426544Y-50101985D01*
X139262666Y-50034106D01*
X139088693Y-49999500D01*
X139088691Y-49999500D01*
X138911309Y-49999500D01*
X138911306Y-49999500D01*
X138737334Y-50034106D01*
X138737332Y-50034106D01*
X138573455Y-50101985D01*
X138573454Y-50101985D01*
X138425965Y-50200535D01*
X138300535Y-50325965D01*
X138201985Y-50473454D01*
X138201985Y-50473455D01*
X138134106Y-50637332D01*
X138134106Y-50637334D01*
X138099500Y-50811306D01*
X137900499Y-50811306D01*
X137865894Y-50637334D01*
X137798014Y-50473455D01*
X137798014Y-50473454D01*
X137699464Y-50325965D01*
X137574034Y-50200535D01*
X137426544Y-50101985D01*
X137262666Y-50034106D01*
X137088693Y-49999500D01*
X137088691Y-49999500D01*
X136911309Y-49999500D01*
X136911306Y-49999500D01*
X136737334Y-50034106D01*
X136737332Y-50034106D01*
X136573455Y-50101985D01*
X136573454Y-50101985D01*
X136425965Y-50200535D01*
X136300535Y-50325965D01*
X136201985Y-50473454D01*
X136201985Y-50473455D01*
X136134106Y-50637332D01*
X136134106Y-50637334D01*
X136099500Y-50811306D01*
X135900499Y-50811306D01*
X135865894Y-50637334D01*
X135798014Y-50473455D01*
X135798014Y-50473454D01*
X135699464Y-50325965D01*
X135574034Y-50200535D01*
X135426544Y-50101985D01*
X135262666Y-50034106D01*
X135088693Y-49999500D01*
X135088691Y-49999500D01*
X134911309Y-49999500D01*
X134911306Y-49999500D01*
X134737334Y-50034106D01*
X134737332Y-50034106D01*
X134573455Y-50101985D01*
X134573454Y-50101985D01*
X134425965Y-50200535D01*
X134300535Y-50325965D01*
X134201985Y-50473454D01*
X134201985Y-50473455D01*
X134134106Y-50637332D01*
X134134106Y-50637334D01*
X134099500Y-50811306D01*
X131900499Y-50811306D01*
X131865894Y-50637334D01*
X131798014Y-50473455D01*
X131798014Y-50473454D01*
X131699464Y-50325965D01*
X131574034Y-50200535D01*
X131426544Y-50101985D01*
X131262666Y-50034106D01*
X131088693Y-49999500D01*
X131088691Y-49999500D01*
X130911309Y-49999500D01*
X130911306Y-49999500D01*
X130737334Y-50034106D01*
X130737332Y-50034106D01*
X130573455Y-50101985D01*
X130573454Y-50101985D01*
X130425965Y-50200535D01*
X130300535Y-50325965D01*
X130201985Y-50473454D01*
X130201985Y-50473455D01*
X130134106Y-50637332D01*
X130134106Y-50637334D01*
X130099500Y-50811306D01*
X129900499Y-50811306D01*
X129865894Y-50637334D01*
X129798014Y-50473455D01*
X129798014Y-50473454D01*
X129699464Y-50325965D01*
X129574034Y-50200535D01*
X129426544Y-50101985D01*
X129262666Y-50034106D01*
X129088693Y-49999500D01*
X129088691Y-49999500D01*
X128911309Y-49999500D01*
X128911306Y-49999500D01*
X128737334Y-50034106D01*
X128737332Y-50034106D01*
X128573455Y-50101985D01*
X128573454Y-50101985D01*
X128425965Y-50200535D01*
X128300535Y-50325965D01*
X128201985Y-50473454D01*
X128201985Y-50473455D01*
X128134106Y-50637332D01*
X128134106Y-50637334D01*
X128099500Y-50811306D01*
X124704123Y-50811306D01*
X124777625Y-50780861D01*
X124892621Y-50692621D01*
X124980861Y-50577625D01*
X125036330Y-50443709D01*
X125055250Y-50300000D01*
X125036330Y-50156291D01*
X124980861Y-50022375D01*
X124892621Y-49907379D01*
X124777625Y-49819139D01*
X124777621Y-49819137D01*
X124643709Y-49763670D01*
X124643708Y-49763669D01*
X124500000Y-49744750D01*
X124356291Y-49763669D01*
X124356290Y-49763670D01*
X124222378Y-49819137D01*
X124222374Y-49819139D01*
X124107381Y-49907377D01*
X124107377Y-49907381D01*
X124019139Y-50022374D01*
X124019137Y-50022378D01*
X123963670Y-50156290D01*
X123963669Y-50156291D01*
X123944750Y-50299999D01*
X118195681Y-50299999D01*
X117315212Y-49419530D01*
X117235288Y-49373386D01*
X117146144Y-49349500D01*
X115446144Y-49349500D01*
X115353856Y-49349500D01*
X115264712Y-49373386D01*
X115184788Y-49419530D01*
X114319530Y-50284788D01*
X114310748Y-50300000D01*
X114282170Y-50349499D01*
X114282169Y-50349500D01*
X114273388Y-50364708D01*
X114273386Y-50364713D01*
X114249500Y-50453857D01*
X114249500Y-57813810D01*
X114230593Y-57872001D01*
X114220504Y-57883814D01*
X113419525Y-58684793D01*
X113397247Y-58723383D01*
X113397246Y-58723386D01*
X113373387Y-58764709D01*
X113349500Y-58853857D01*
X113349500Y-61044395D01*
X113330593Y-61102586D01*
X113281093Y-61138550D01*
X113219907Y-61138550D01*
X113192309Y-61124488D01*
X113189503Y-61122449D01*
X113189501Y-61122447D01*
X113042994Y-61016004D01*
X113042993Y-61016003D01*
X113042991Y-61016002D01*
X112881637Y-60933788D01*
X112709406Y-60877828D01*
X112530549Y-60849500D01*
X112530546Y-60849500D01*
X112349454Y-60849500D01*
X112349451Y-60849500D01*
X112170593Y-60877828D01*
X111998362Y-60933788D01*
X111837008Y-61016002D01*
X111764295Y-61068831D01*
X111690499Y-61122447D01*
X111562447Y-61250499D01*
X111510500Y-61321998D01*
X111456002Y-61397008D01*
X111373788Y-61558362D01*
X111317828Y-61730593D01*
X111289500Y-61909450D01*
X103525500Y-61909450D01*
X103525500Y-54002035D01*
X103525542Y-53999992D01*
X104444639Y-53999992D01*
X104444639Y-54000007D01*
X104464069Y-54420305D01*
X104464070Y-54420310D01*
X104522203Y-54837047D01*
X104522204Y-54837052D01*
X104618535Y-55246629D01*
X104752249Y-55645579D01*
X104752251Y-55645585D01*
X104752252Y-55645586D01*
X104767522Y-55680169D01*
X104922207Y-56030498D01*
X105126951Y-56398085D01*
X105364736Y-56745209D01*
X105364741Y-56745215D01*
X105633540Y-57068918D01*
X105633543Y-57068921D01*
X105633548Y-57068927D01*
X105931073Y-57366452D01*
X106254782Y-57635257D01*
X106254786Y-57635260D01*
X106254790Y-57635263D01*
X106304814Y-57669530D01*
X106600385Y-57872001D01*
X106601914Y-57873048D01*
X106621243Y-57883814D01*
X106969501Y-58077792D01*
X107354414Y-58247748D01*
X107753366Y-58381463D01*
X108162955Y-58477797D01*
X108579684Y-58535929D01*
X108579690Y-58535929D01*
X108579694Y-58535930D01*
X108999992Y-58555361D01*
X109000000Y-58555361D01*
X109000008Y-58555361D01*
X109420305Y-58535930D01*
X109420308Y-58535929D01*
X109420316Y-58535929D01*
X109837045Y-58477797D01*
X110246634Y-58381463D01*
X110645586Y-58247748D01*
X111030499Y-58077792D01*
X111398089Y-57873046D01*
X111745218Y-57635257D01*
X112068927Y-57366452D01*
X112366452Y-57068927D01*
X112635257Y-56745218D01*
X112873046Y-56398089D01*
X113077792Y-56030499D01*
X113247748Y-55645586D01*
X113381463Y-55246634D01*
X113477797Y-54837045D01*
X113535929Y-54420316D01*
X113538294Y-54369173D01*
X113555361Y-54000007D01*
X113555361Y-53999992D01*
X113535930Y-53579694D01*
X113535929Y-53579689D01*
X113535929Y-53579684D01*
X113477797Y-53162955D01*
X113387930Y-52780861D01*
X113381464Y-52753370D01*
X113379522Y-52747577D01*
X113247748Y-52354414D01*
X113077792Y-51969501D01*
X113037973Y-51898012D01*
X112873048Y-51601914D01*
X112635263Y-51254790D01*
X112635258Y-51254784D01*
X112635257Y-51254782D01*
X112366452Y-50931073D01*
X112068927Y-50633548D01*
X112068921Y-50633543D01*
X112068918Y-50633540D01*
X111852534Y-50453857D01*
X111745218Y-50364743D01*
X111745214Y-50364740D01*
X111745209Y-50364736D01*
X111398085Y-50126951D01*
X111030498Y-49922207D01*
X110645579Y-49752249D01*
X110246629Y-49618535D01*
X109837052Y-49522204D01*
X109837047Y-49522203D01*
X109420310Y-49464070D01*
X109420305Y-49464069D01*
X109000008Y-49444639D01*
X108999992Y-49444639D01*
X108579694Y-49464069D01*
X108579689Y-49464070D01*
X108162952Y-49522203D01*
X108162947Y-49522204D01*
X107753370Y-49618535D01*
X107354420Y-49752249D01*
X106969501Y-49922207D01*
X106601914Y-50126951D01*
X106254790Y-50364736D01*
X106254784Y-50364741D01*
X105931081Y-50633540D01*
X105633540Y-50931081D01*
X105364741Y-51254784D01*
X105364736Y-51254790D01*
X105126951Y-51601914D01*
X104922207Y-51969501D01*
X104752249Y-52354420D01*
X104618535Y-52753370D01*
X104522204Y-53162947D01*
X104522203Y-53162952D01*
X104464070Y-53579689D01*
X104464069Y-53579694D01*
X104444639Y-53999992D01*
X103525542Y-53999992D01*
X103525585Y-53997944D01*
X103534608Y-53779777D01*
X103544028Y-53552008D01*
X103544703Y-53543864D01*
X103545794Y-53535119D01*
X103599659Y-53102981D01*
X103601006Y-53094915D01*
X103692181Y-52660077D01*
X103694181Y-52652182D01*
X103820955Y-52226356D01*
X103823609Y-52218627D01*
X103830668Y-52200536D01*
X103985119Y-51804709D01*
X103988384Y-51797265D01*
X104183532Y-51398084D01*
X104187413Y-51390914D01*
X104414840Y-51009242D01*
X104419302Y-51002411D01*
X104677477Y-50640816D01*
X104682498Y-50634367D01*
X104969628Y-50295352D01*
X104975157Y-50289343D01*
X105289343Y-49975157D01*
X105295352Y-49969628D01*
X105634367Y-49682498D01*
X105640822Y-49677473D01*
X106002411Y-49419302D01*
X106009242Y-49414840D01*
X106390914Y-49187413D01*
X106398084Y-49183532D01*
X106797265Y-48988384D01*
X106804709Y-48985119D01*
X107218629Y-48823608D01*
X107226356Y-48820955D01*
X107652182Y-48694181D01*
X107660077Y-48692181D01*
X108094920Y-48601005D01*
X108102981Y-48599659D01*
X108543874Y-48544702D01*
X108552008Y-48544028D01*
X108997945Y-48525585D01*
X109002036Y-48525500D01*
X109069183Y-48525500D01*
X152924737Y-48525500D01*
X152924753Y-48525501D01*
G37*
%TD.AperFunction*%
%TD*%
%TA.AperFunction,Conductor*%
%TO.N,/RESET_IN*%
G36*
X121354710Y-53812765D02*
G01*
X121397491Y-53852829D01*
X121397495Y-53852832D01*
X121442375Y-53888315D01*
X121483050Y-53913928D01*
X121483052Y-53913929D01*
X121521477Y-53932120D01*
X121521479Y-53932121D01*
X121521482Y-53932122D01*
X121559631Y-53945350D01*
X121599459Y-53956064D01*
X121642855Y-53966700D01*
X121643064Y-53966754D01*
X121691747Y-53979694D01*
X121692221Y-53979831D01*
X121748327Y-53997552D01*
X121748947Y-53997767D01*
X121803583Y-54018564D01*
X121810096Y-54024710D01*
X121810356Y-54033661D01*
X121810244Y-54033943D01*
X121702563Y-54296184D01*
X121696251Y-54302536D01*
X121696184Y-54302563D01*
X121433943Y-54410244D01*
X121424988Y-54410217D01*
X121418676Y-54403865D01*
X121418564Y-54403583D01*
X121397771Y-54348956D01*
X121397549Y-54348318D01*
X121379831Y-54292221D01*
X121379689Y-54291729D01*
X121366754Y-54243064D01*
X121366697Y-54242844D01*
X121356064Y-54199459D01*
X121345350Y-54159631D01*
X121332122Y-54121482D01*
X121313928Y-54083050D01*
X121288315Y-54042375D01*
X121281649Y-54033943D01*
X121252829Y-53997491D01*
X121212765Y-53954710D01*
X121209611Y-53946329D01*
X121213031Y-53938441D01*
X121338441Y-53813031D01*
X121346713Y-53809605D01*
X121354710Y-53812765D01*
G37*
%TD.AperFunction*%
%TD*%
%TA.AperFunction,Conductor*%
%TO.N,/PWM_IN_H2*%
G36*
X121825482Y-55327629D02*
G01*
X121825721Y-55327733D01*
X121879100Y-55351679D01*
X121879683Y-55351961D01*
X121931880Y-55379100D01*
X121932305Y-55379333D01*
X121975941Y-55404642D01*
X121976082Y-55404726D01*
X122006898Y-55423411D01*
X122014308Y-55427904D01*
X122050012Y-55448470D01*
X122050024Y-55448476D01*
X122050030Y-55448480D01*
X122086359Y-55466102D01*
X122086362Y-55466103D01*
X122086364Y-55466104D01*
X122126396Y-55480411D01*
X122126401Y-55480413D01*
X122169595Y-55490226D01*
X122173272Y-55491062D01*
X122230098Y-55497707D01*
X122288684Y-55499628D01*
X122296840Y-55503324D01*
X122300000Y-55511322D01*
X122300000Y-55688677D01*
X122296573Y-55696950D01*
X122288683Y-55700371D01*
X122230110Y-55702291D01*
X122230096Y-55702292D01*
X122173262Y-55708937D01*
X122126402Y-55719586D01*
X122086359Y-55733896D01*
X122050034Y-55751516D01*
X122050012Y-55751528D01*
X122014308Y-55772093D01*
X121976107Y-55795256D01*
X121975911Y-55795372D01*
X121932329Y-55820650D01*
X121931856Y-55820910D01*
X121879695Y-55848031D01*
X121879087Y-55848325D01*
X121825760Y-55872248D01*
X121816809Y-55872508D01*
X121810296Y-55866362D01*
X121810188Y-55866115D01*
X121700883Y-55604509D01*
X121700857Y-55595556D01*
X121700862Y-55595542D01*
X121810177Y-55333911D01*
X121816527Y-55327602D01*
X121825482Y-55327629D01*
G37*
%TD.AperFunction*%
%TD*%
%TA.AperFunction,Conductor*%
%TO.N,/PWM_IN_L2*%
G36*
X123908055Y-60723726D02*
G01*
X124017916Y-60793180D01*
X124041690Y-60808211D01*
X124104461Y-60843004D01*
X124183216Y-60886658D01*
X124183223Y-60886661D01*
X124183233Y-60886667D01*
X124324777Y-60954095D01*
X124466320Y-61010495D01*
X124607864Y-61055866D01*
X124715275Y-61081926D01*
X124749394Y-61090205D01*
X124749396Y-61090205D01*
X124749407Y-61090208D01*
X124832679Y-61103924D01*
X124890948Y-61113522D01*
X124920678Y-61116102D01*
X125032494Y-61125807D01*
X125174037Y-61127064D01*
X125174037Y-61127063D01*
X125174041Y-61127064D01*
X125202492Y-61125099D01*
X125300634Y-61118324D01*
X125309122Y-61121173D01*
X125313110Y-61129190D01*
X125312957Y-61132044D01*
X125141953Y-62093697D01*
X125137131Y-62101243D01*
X125133910Y-62102821D01*
X124269197Y-62371876D01*
X124260279Y-62371062D01*
X124254549Y-62364180D01*
X124254356Y-62363482D01*
X124207436Y-62170194D01*
X124157579Y-61976773D01*
X124107722Y-61795318D01*
X124057866Y-61625827D01*
X124008009Y-61468301D01*
X123958152Y-61322740D01*
X123908296Y-61189144D01*
X123858439Y-61067513D01*
X123808582Y-60957847D01*
X123806667Y-60954095D01*
X123762592Y-60867723D01*
X123761883Y-60858796D01*
X123764738Y-60854134D01*
X123893531Y-60725341D01*
X123901803Y-60721915D01*
X123908055Y-60723726D01*
G37*
%TD.AperFunction*%
%TD*%
%TA.AperFunction,Conductor*%
%TO.N,/RESET_IN*%
G36*
X112540101Y-83220720D02*
G01*
X112542813Y-83224964D01*
X112604848Y-83394112D01*
X112669660Y-83560057D01*
X112734493Y-83715277D01*
X112799328Y-83859718D01*
X112864158Y-83993374D01*
X112928993Y-84116259D01*
X112993832Y-84228370D01*
X113058648Y-84329667D01*
X113123487Y-84420219D01*
X113123495Y-84420229D01*
X113180900Y-84490854D01*
X113183459Y-84499436D01*
X113179201Y-84507313D01*
X113179147Y-84507356D01*
X112447326Y-85095116D01*
X112438730Y-85097625D01*
X112432674Y-85095116D01*
X111700852Y-84507356D01*
X111696547Y-84499504D01*
X111699056Y-84490908D01*
X111756509Y-84420223D01*
X111821341Y-84329681D01*
X111886173Y-84228360D01*
X111951006Y-84116259D01*
X112015838Y-83993379D01*
X112080670Y-83859720D01*
X112145503Y-83715282D01*
X112210335Y-83560065D01*
X112275167Y-83394068D01*
X112337187Y-83224964D01*
X112343253Y-83218377D01*
X112348172Y-83217293D01*
X112531828Y-83217293D01*
X112540101Y-83220720D01*
G37*
%TD.AperFunction*%
%TD*%
%TA.AperFunction,Conductor*%
%TO.N,/PWM_IN_L1*%
G36*
X128988055Y-60723726D02*
G01*
X129097916Y-60793180D01*
X129121690Y-60808211D01*
X129184461Y-60843004D01*
X129263216Y-60886658D01*
X129263223Y-60886661D01*
X129263233Y-60886667D01*
X129404777Y-60954095D01*
X129546320Y-61010495D01*
X129687864Y-61055866D01*
X129795275Y-61081926D01*
X129829394Y-61090205D01*
X129829396Y-61090205D01*
X129829407Y-61090208D01*
X129912679Y-61103924D01*
X129970948Y-61113522D01*
X130000678Y-61116102D01*
X130112494Y-61125807D01*
X130254037Y-61127064D01*
X130254037Y-61127063D01*
X130254041Y-61127064D01*
X130282492Y-61125099D01*
X130380634Y-61118324D01*
X130389122Y-61121173D01*
X130393110Y-61129190D01*
X130392957Y-61132044D01*
X130221953Y-62093697D01*
X130217131Y-62101243D01*
X130213910Y-62102821D01*
X129349197Y-62371876D01*
X129340279Y-62371062D01*
X129334549Y-62364180D01*
X129334356Y-62363482D01*
X129287436Y-62170194D01*
X129237579Y-61976773D01*
X129187722Y-61795318D01*
X129137866Y-61625827D01*
X129088009Y-61468301D01*
X129038152Y-61322740D01*
X128988296Y-61189144D01*
X128938439Y-61067513D01*
X128888582Y-60957847D01*
X128886667Y-60954095D01*
X128842592Y-60867723D01*
X128841883Y-60858796D01*
X128844738Y-60854134D01*
X128973531Y-60725341D01*
X128981803Y-60721915D01*
X128988055Y-60723726D01*
G37*
%TD.AperFunction*%
%TD*%
%TA.AperFunction,Conductor*%
%TO.N,/PWM_IN_H2*%
G36*
X131523044Y-60728680D02*
G01*
X131657185Y-60812825D01*
X131657190Y-60812828D01*
X131799233Y-60890876D01*
X131941277Y-60957869D01*
X132083320Y-61013807D01*
X132225364Y-61058691D01*
X132367407Y-61092521D01*
X132509450Y-61115295D01*
X132546958Y-61118390D01*
X132651477Y-61127015D01*
X132651486Y-61127015D01*
X132651494Y-61127016D01*
X132793537Y-61127681D01*
X132920575Y-61118390D01*
X132929075Y-61121204D01*
X132933096Y-61129206D01*
X132932946Y-61132107D01*
X132761953Y-62093697D01*
X132757131Y-62101243D01*
X132753910Y-62102821D01*
X131889162Y-62371887D01*
X131880244Y-62371073D01*
X131874514Y-62364191D01*
X131874324Y-62363509D01*
X131826916Y-62170721D01*
X131776581Y-61977969D01*
X131726233Y-61797108D01*
X131726222Y-61797068D01*
X131675866Y-61628113D01*
X131625509Y-61471099D01*
X131575152Y-61326026D01*
X131575146Y-61326009D01*
X131524795Y-61192890D01*
X131474450Y-61071729D01*
X131474443Y-61071715D01*
X131474439Y-61071704D01*
X131424082Y-60962455D01*
X131421712Y-60957876D01*
X131410266Y-60935758D01*
X131377657Y-60872745D01*
X131376899Y-60863824D01*
X131379774Y-60859098D01*
X131508555Y-60730317D01*
X131516827Y-60726891D01*
X131523044Y-60728680D01*
G37*
%TD.AperFunction*%
%TD*%
%TA.AperFunction,Conductor*%
%TO.N,/PWM_IN_H1*%
G36*
X126448055Y-60723726D02*
G01*
X126557916Y-60793180D01*
X126581690Y-60808211D01*
X126644461Y-60843004D01*
X126723216Y-60886658D01*
X126723223Y-60886661D01*
X126723233Y-60886667D01*
X126864777Y-60954095D01*
X127006320Y-61010495D01*
X127147864Y-61055866D01*
X127255275Y-61081926D01*
X127289394Y-61090205D01*
X127289396Y-61090205D01*
X127289407Y-61090208D01*
X127372679Y-61103924D01*
X127430948Y-61113522D01*
X127460678Y-61116102D01*
X127572494Y-61125807D01*
X127714037Y-61127064D01*
X127714037Y-61127063D01*
X127714041Y-61127064D01*
X127742492Y-61125099D01*
X127840634Y-61118324D01*
X127849122Y-61121173D01*
X127853110Y-61129190D01*
X127852957Y-61132044D01*
X127681953Y-62093697D01*
X127677131Y-62101243D01*
X127673910Y-62102821D01*
X126809197Y-62371876D01*
X126800279Y-62371062D01*
X126794549Y-62364180D01*
X126794356Y-62363482D01*
X126747436Y-62170194D01*
X126697579Y-61976773D01*
X126647722Y-61795318D01*
X126597866Y-61625827D01*
X126548009Y-61468301D01*
X126498152Y-61322740D01*
X126448296Y-61189144D01*
X126398439Y-61067513D01*
X126348582Y-60957847D01*
X126346667Y-60954095D01*
X126302592Y-60867723D01*
X126301883Y-60858796D01*
X126304738Y-60854134D01*
X126433531Y-60725341D01*
X126441803Y-60721915D01*
X126448055Y-60723726D01*
G37*
%TD.AperFunction*%
%TD*%
%TA.AperFunction,Conductor*%
%TO.N,/PWM_IN_L2*%
G36*
X115975011Y-54989782D02*
G01*
X115981323Y-54996134D01*
X115981435Y-54996416D01*
X116002227Y-55051042D01*
X116002449Y-55051680D01*
X116020158Y-55107750D01*
X116020308Y-55108268D01*
X116033244Y-55156932D01*
X116033301Y-55157153D01*
X116037514Y-55174344D01*
X116043934Y-55200539D01*
X116043942Y-55200568D01*
X116054643Y-55240352D01*
X116054653Y-55240382D01*
X116067872Y-55278506D01*
X116067877Y-55278520D01*
X116086069Y-55316945D01*
X116111684Y-55357624D01*
X116111685Y-55357626D01*
X116147169Y-55402507D01*
X116187234Y-55445289D01*
X116190388Y-55453670D01*
X116186967Y-55461559D01*
X116061559Y-55586967D01*
X116053286Y-55590394D01*
X116045289Y-55587234D01*
X116002507Y-55547169D01*
X115957626Y-55511685D01*
X115957624Y-55511684D01*
X115957625Y-55511684D01*
X115957623Y-55511683D01*
X115916948Y-55486071D01*
X115916945Y-55486069D01*
X115878520Y-55467877D01*
X115878506Y-55467872D01*
X115840382Y-55454653D01*
X115840368Y-55454648D01*
X115840362Y-55454646D01*
X115840352Y-55454643D01*
X115805576Y-55445289D01*
X115800539Y-55443934D01*
X115774344Y-55437514D01*
X115757153Y-55433301D01*
X115756932Y-55433244D01*
X115708268Y-55420308D01*
X115707750Y-55420158D01*
X115651680Y-55402449D01*
X115651042Y-55402227D01*
X115596416Y-55381435D01*
X115589903Y-55375289D01*
X115589643Y-55366338D01*
X115589722Y-55366138D01*
X115697436Y-55103814D01*
X115703746Y-55097464D01*
X115966058Y-54989755D01*
X115975011Y-54989782D01*
G37*
%TD.AperFunction*%
%TD*%
%TA.AperFunction,Conductor*%
%TO.N,/PWM_IN_L1*%
G36*
X115825482Y-52027629D02*
G01*
X115825721Y-52027733D01*
X115879100Y-52051679D01*
X115879683Y-52051961D01*
X115931880Y-52079100D01*
X115932305Y-52079333D01*
X115975941Y-52104642D01*
X115976082Y-52104726D01*
X116006898Y-52123411D01*
X116014308Y-52127904D01*
X116050012Y-52148470D01*
X116050024Y-52148476D01*
X116050030Y-52148480D01*
X116086359Y-52166102D01*
X116086362Y-52166103D01*
X116086364Y-52166104D01*
X116126396Y-52180411D01*
X116126401Y-52180413D01*
X116169595Y-52190226D01*
X116173272Y-52191062D01*
X116230098Y-52197707D01*
X116288684Y-52199628D01*
X116296840Y-52203324D01*
X116300000Y-52211322D01*
X116300000Y-52388677D01*
X116296573Y-52396950D01*
X116288683Y-52400371D01*
X116230110Y-52402291D01*
X116230096Y-52402292D01*
X116173262Y-52408937D01*
X116126402Y-52419586D01*
X116086359Y-52433896D01*
X116050034Y-52451516D01*
X116050012Y-52451528D01*
X116014308Y-52472093D01*
X115976107Y-52495256D01*
X115975911Y-52495372D01*
X115932329Y-52520650D01*
X115931856Y-52520910D01*
X115879695Y-52548031D01*
X115879087Y-52548325D01*
X115825760Y-52572248D01*
X115816809Y-52572508D01*
X115810296Y-52566362D01*
X115810188Y-52566115D01*
X115700883Y-52304509D01*
X115700857Y-52295556D01*
X115700862Y-52295542D01*
X115810177Y-52033911D01*
X115816527Y-52027602D01*
X115825482Y-52027629D01*
G37*
%TD.AperFunction*%
%TD*%
%TA.AperFunction,Conductor*%
%TO.N,/PWM_IN_H1*%
G36*
X115890670Y-53452585D02*
G01*
X115954936Y-53475187D01*
X116010002Y-53493147D01*
X116010016Y-53493159D01*
X116010019Y-53493153D01*
X116058161Y-53508936D01*
X116058532Y-53509065D01*
X116101896Y-53525069D01*
X116102677Y-53525389D01*
X116140982Y-53542816D01*
X116143820Y-53544107D01*
X116144822Y-53544623D01*
X116186343Y-53568580D01*
X116187298Y-53569194D01*
X116204085Y-53581188D01*
X116231879Y-53601048D01*
X116232607Y-53601615D01*
X116282707Y-53643964D01*
X116283209Y-53644414D01*
X116317306Y-53676973D01*
X116332761Y-53691731D01*
X116336378Y-53699923D01*
X116333143Y-53708273D01*
X116332954Y-53708466D01*
X116207490Y-53833930D01*
X116199217Y-53837357D01*
X116191804Y-53834709D01*
X116180977Y-53825842D01*
X116159220Y-53808023D01*
X116122603Y-53792588D01*
X116088776Y-53792293D01*
X116088775Y-53792293D01*
X116088773Y-53792293D01*
X116056372Y-53804314D01*
X116056368Y-53804315D01*
X116023995Y-53825842D01*
X115990316Y-53854029D01*
X115954084Y-53885940D01*
X115953757Y-53886218D01*
X115913837Y-53918858D01*
X115913021Y-53919467D01*
X115868168Y-53950043D01*
X115866862Y-53950815D01*
X115826053Y-53971470D01*
X115817124Y-53972149D01*
X115810330Y-53966315D01*
X115809965Y-53965522D01*
X115701163Y-53703793D01*
X115701153Y-53694841D01*
X115810393Y-53433394D01*
X115816745Y-53427083D01*
X115825460Y-53427014D01*
X115890670Y-53452585D01*
G37*
%TD.AperFunction*%
%TD*%
M02*
