%TF.GenerationSoftware,KiCad,Pcbnew,8.0.4*%
%TF.CreationDate,2024-08-09T00:15:22+02:00*%
%TF.ProjectId,ELE0124CL_control,454c4530-3132-4344-934c-5f636f6e7472,rev?*%
%TF.SameCoordinates,Original*%
%TF.FileFunction,Copper,L3,Inr*%
%TF.FilePolarity,Positive*%
%FSLAX46Y46*%
G04 Gerber Fmt 4.6, Leading zero omitted, Abs format (unit mm)*
G04 Created by KiCad (PCBNEW 8.0.4) date 2024-08-09 00:15:22*
%MOMM*%
%LPD*%
G01*
G04 APERTURE LIST*
G04 Aperture macros list*
%AMRoundRect*
0 Rectangle with rounded corners*
0 $1 Rounding radius*
0 $2 $3 $4 $5 $6 $7 $8 $9 X,Y pos of 4 corners*
0 Add a 4 corners polygon primitive as box body*
4,1,4,$2,$3,$4,$5,$6,$7,$8,$9,$2,$3,0*
0 Add four circle primitives for the rounded corners*
1,1,$1+$1,$2,$3*
1,1,$1+$1,$4,$5*
1,1,$1+$1,$6,$7*
1,1,$1+$1,$8,$9*
0 Add four rect primitives between the rounded corners*
20,1,$1+$1,$2,$3,$4,$5,0*
20,1,$1+$1,$4,$5,$6,$7,0*
20,1,$1+$1,$6,$7,$8,$9,0*
20,1,$1+$1,$8,$9,$2,$3,0*%
G04 Aperture macros list end*
%TA.AperFunction,ComponentPad*%
%ADD10C,1.200000*%
%TD*%
%TA.AperFunction,ComponentPad*%
%ADD11C,8.600000*%
%TD*%
%TA.AperFunction,ComponentPad*%
%ADD12RoundRect,0.043333X-0.606667X0.706667X-0.606667X-0.706667X0.606667X-0.706667X0.606667X0.706667X0*%
%TD*%
%TA.AperFunction,ComponentPad*%
%ADD13O,1.300000X1.500000*%
%TD*%
%TA.AperFunction,ComponentPad*%
%ADD14RoundRect,0.052941X0.847059X-0.947059X0.847059X0.947059X-0.847059X0.947059X-0.847059X-0.947059X0*%
%TD*%
%TA.AperFunction,ComponentPad*%
%ADD15O,1.800000X2.000000*%
%TD*%
%TA.AperFunction,ViaPad*%
%ADD16C,0.600000*%
%TD*%
%TA.AperFunction,Conductor*%
%ADD17C,0.200000*%
%TD*%
G04 APERTURE END LIST*
D10*
%TO.N,N/C*%
%TO.C,REF\u002A\u002A*%
X149775000Y-93000000D03*
X150719581Y-90719581D03*
X150719581Y-95280419D03*
X153000000Y-89775000D03*
D11*
X153000000Y-93000000D03*
D10*
X153000000Y-96225000D03*
X155280419Y-90719581D03*
X155280419Y-95280419D03*
X156225000Y-93000000D03*
%TD*%
%TO.N,N/C*%
%TO.C,REF\u002A\u002A*%
X149775000Y-54000000D03*
X150719581Y-51719581D03*
X150719581Y-56280419D03*
X153000000Y-50775000D03*
D11*
X153000000Y-54000000D03*
D10*
X153000000Y-57225000D03*
X155280419Y-51719581D03*
X155280419Y-56280419D03*
X156225000Y-54000000D03*
%TD*%
%TO.N,N/C*%
%TO.C,REF\u002A\u002A*%
X105775000Y-93000000D03*
X106719581Y-90719581D03*
X106719581Y-95280419D03*
X109000000Y-89775000D03*
D11*
X109000000Y-93000000D03*
D10*
X109000000Y-96225000D03*
X111280419Y-90719581D03*
X111280419Y-95280419D03*
X112225000Y-93000000D03*
%TD*%
%TO.N,N/C*%
%TO.C,REF\u002A\u002A*%
X105775000Y-54000000D03*
X106719581Y-51719581D03*
X106719581Y-56280419D03*
X109000000Y-50775000D03*
D11*
X109000000Y-54000000D03*
D10*
X109000000Y-57225000D03*
X111280419Y-51719581D03*
X111280419Y-56280419D03*
X112225000Y-54000000D03*
%TD*%
D12*
%TO.N,/ADC_3*%
%TO.C,J2*%
X143000000Y-51000000D03*
D13*
%TO.N,/ADC_2*%
X143000000Y-53000000D03*
%TO.N,/ADC_1*%
X141000000Y-51000000D03*
%TO.N,/ADC_0*%
X141000000Y-53000000D03*
%TO.N,/ADC_6*%
X139000000Y-51000000D03*
%TO.N,/ADC_5*%
X139000000Y-53000000D03*
%TO.N,/ADC_4*%
X137000000Y-51000000D03*
%TO.N,+3V3*%
X137000000Y-53000000D03*
%TO.N,/RESET*%
X135000000Y-51000000D03*
%TO.N,+5V*%
X135000000Y-53000000D03*
%TO.N,GND*%
X133000000Y-51000000D03*
X133000000Y-53000000D03*
%TO.N,/PWM_H2*%
X131000000Y-51000000D03*
%TO.N,/PWM_L2*%
X131000000Y-53000000D03*
%TO.N,/PWM_L1*%
X129000000Y-51000000D03*
%TO.N,/PWM_H1*%
X129000000Y-53000000D03*
%TD*%
D14*
%TO.N,+3V3*%
%TO.C,J1*%
X109900000Y-85100000D03*
D15*
%TO.N,/RESET_IN*%
X112440000Y-85100000D03*
%TO.N,/ADC_IN_4*%
X114980000Y-85100000D03*
%TO.N,/ADC_IN_5*%
X117520000Y-85100000D03*
%TO.N,/ADC_IN_6*%
X120060000Y-85100000D03*
%TO.N,unconnected-(J1-Pin_6-Pad6)*%
X122600000Y-85100000D03*
%TO.N,/ADC_IN_0*%
X125140000Y-85100000D03*
%TO.N,/ADC_IN_1*%
X127680000Y-85100000D03*
%TO.N,unconnected-(J1-Pin_9-Pad9)*%
X130220000Y-85100000D03*
%TO.N,unconnected-(J1-Pin_10-Pad10)*%
X132760000Y-85100000D03*
%TO.N,unconnected-(J1-Pin_11-Pad11)*%
X135300000Y-85100000D03*
%TO.N,/ADC_IN_2*%
X137840000Y-85100000D03*
%TO.N,/ADC_IN_3*%
X140380000Y-85100000D03*
%TO.N,+5V*%
X142920000Y-85100000D03*
%TO.N,GND*%
X145460000Y-85100000D03*
%TO.N,unconnected-(J1-Pin_16-Pad16)*%
X148000000Y-85100000D03*
%TD*%
D14*
%TO.N,GND*%
%TO.C,J3*%
X109900000Y-62100000D03*
D15*
%TO.N,unconnected-(J3-Pin_2-Pad2)*%
X112440000Y-62100000D03*
%TO.N,unconnected-(J3-Pin_3-Pad3)*%
X114980000Y-62100000D03*
%TO.N,unconnected-(J3-Pin_4-Pad4)*%
X117520000Y-62100000D03*
%TO.N,unconnected-(J3-Pin_5-Pad5)*%
X120060000Y-62100000D03*
%TO.N,unconnected-(J3-Pin_6-Pad6)*%
X122600000Y-62100000D03*
%TO.N,/PWM_IN_L2*%
X125140000Y-62100000D03*
%TO.N,/PWM_IN_H1*%
X127680000Y-62100000D03*
%TO.N,/PWM_IN_L1*%
X130220000Y-62100000D03*
%TO.N,/PWM_IN_H2*%
X132760000Y-62100000D03*
%TO.N,unconnected-(J3-Pin_11-Pad11)*%
X135300000Y-62100000D03*
%TO.N,GND*%
X137840000Y-62100000D03*
%TO.N,unconnected-(J3-Pin_13-Pad13)*%
X140380000Y-62100000D03*
%TO.N,unconnected-(J3-Pin_14-Pad14)*%
X142920000Y-62100000D03*
%TO.N,GND*%
X145460000Y-62100000D03*
%TO.N,unconnected-(J3-Pin_16-Pad16)*%
X148000000Y-62100000D03*
%TD*%
D16*
%TO.N,GND*%
X121700000Y-52700000D03*
X130000000Y-54100000D03*
X127200000Y-51700000D03*
X115700000Y-56500000D03*
X148000000Y-70000000D03*
X122600000Y-82700000D03*
X132800000Y-64400000D03*
X142900000Y-82700000D03*
X117500000Y-82700000D03*
X145400000Y-82700000D03*
X135300000Y-82700000D03*
X125000000Y-82700000D03*
X139000000Y-89000000D03*
X117400000Y-87600000D03*
X115700000Y-50900000D03*
X148000000Y-82700000D03*
X137900000Y-64400000D03*
X116000000Y-89000000D03*
X137800000Y-82700000D03*
X148000000Y-75000000D03*
X119000000Y-92500000D03*
X110000000Y-75000000D03*
X123000000Y-92500000D03*
X130200000Y-82700000D03*
X130200000Y-64400000D03*
X131000000Y-89000000D03*
X148000000Y-64400000D03*
X143000000Y-87700000D03*
X123000000Y-89000000D03*
X140400000Y-64400000D03*
X135300000Y-64400000D03*
X142900000Y-58200000D03*
X146100000Y-89000000D03*
X153000000Y-70000000D03*
X127000000Y-92500000D03*
X137700000Y-58200000D03*
X132800000Y-82700000D03*
X135000000Y-92500000D03*
X115000000Y-70000000D03*
X121700000Y-49100000D03*
X120100000Y-82700000D03*
X140400000Y-60100000D03*
X143000000Y-92500000D03*
X148000000Y-58200000D03*
X110000000Y-70000000D03*
X120000000Y-70000000D03*
X115000000Y-75000000D03*
X153000000Y-75000000D03*
X142900000Y-64400000D03*
X127800000Y-54100000D03*
X131000000Y-92500000D03*
X139000000Y-92500000D03*
X115000000Y-82700000D03*
X135100000Y-58200000D03*
X140400000Y-82700000D03*
%TO.N,+5V*%
X124500000Y-50300000D03*
%TO.N,/PWM_IN_H2*%
X121700000Y-55600000D03*
%TO.N,/PWM_IN_L2*%
X115700000Y-55100000D03*
%TO.N,/PWM_IN_L1*%
X115700000Y-52300000D03*
%TO.N,/PWM_IN_H1*%
X115700000Y-53700000D03*
%TO.N,/RESET_IN*%
X121700000Y-54300000D03*
%TD*%
D17*
%TO.N,GND*%
X133000000Y-53000000D02*
X133000000Y-51000000D01*
%TD*%
%TA.AperFunction,Conductor*%
%TO.N,GND*%
G36*
X119055658Y-92209781D02*
G01*
X119064086Y-92210891D01*
X119089049Y-92217580D01*
X119136730Y-92237330D01*
X119159112Y-92250252D01*
X119200053Y-92281667D01*
X119218327Y-92299940D01*
X119249744Y-92340882D01*
X119262667Y-92363266D01*
X119282418Y-92410950D01*
X119289107Y-92435913D01*
X119295843Y-92487077D01*
X119295843Y-92512921D01*
X119289107Y-92564085D01*
X119282418Y-92589048D01*
X119262667Y-92636732D01*
X119249745Y-92659114D01*
X119218330Y-92700055D01*
X119200055Y-92718330D01*
X119159114Y-92749745D01*
X119136732Y-92762667D01*
X119089048Y-92782418D01*
X119064085Y-92789107D01*
X119012921Y-92795843D01*
X118987077Y-92795843D01*
X118935913Y-92789107D01*
X118910950Y-92782418D01*
X118863266Y-92762667D01*
X118840884Y-92749745D01*
X118799943Y-92718330D01*
X118781671Y-92700059D01*
X118750251Y-92659112D01*
X118737329Y-92636730D01*
X118717577Y-92589041D01*
X118710891Y-92564085D01*
X118704155Y-92512919D01*
X118704155Y-92487076D01*
X118710891Y-92435911D01*
X118717580Y-92410948D01*
X118737329Y-92363269D01*
X118750251Y-92340887D01*
X118758281Y-92330421D01*
X118781671Y-92299939D01*
X118799939Y-92281671D01*
X118830421Y-92258281D01*
X118840887Y-92250251D01*
X118863260Y-92237332D01*
X118910957Y-92217576D01*
X118935911Y-92210891D01*
X118987078Y-92204155D01*
X119012920Y-92204155D01*
X119055658Y-92209781D01*
G37*
%TD.AperFunction*%
%TA.AperFunction,Conductor*%
G36*
X123055658Y-92209781D02*
G01*
X123064086Y-92210891D01*
X123089049Y-92217580D01*
X123136730Y-92237330D01*
X123159112Y-92250252D01*
X123200053Y-92281667D01*
X123218327Y-92299940D01*
X123249744Y-92340882D01*
X123262667Y-92363266D01*
X123282418Y-92410950D01*
X123289107Y-92435913D01*
X123295843Y-92487077D01*
X123295843Y-92512921D01*
X123289107Y-92564085D01*
X123282418Y-92589048D01*
X123262667Y-92636732D01*
X123249745Y-92659114D01*
X123218330Y-92700055D01*
X123200055Y-92718330D01*
X123159114Y-92749745D01*
X123136732Y-92762667D01*
X123089048Y-92782418D01*
X123064085Y-92789107D01*
X123012921Y-92795843D01*
X122987077Y-92795843D01*
X122935913Y-92789107D01*
X122910950Y-92782418D01*
X122863266Y-92762667D01*
X122840884Y-92749745D01*
X122799943Y-92718330D01*
X122781671Y-92700059D01*
X122750251Y-92659112D01*
X122737329Y-92636730D01*
X122717577Y-92589041D01*
X122710891Y-92564085D01*
X122704155Y-92512919D01*
X122704155Y-92487076D01*
X122710891Y-92435911D01*
X122717580Y-92410948D01*
X122737329Y-92363269D01*
X122750251Y-92340887D01*
X122758281Y-92330421D01*
X122781671Y-92299939D01*
X122799939Y-92281671D01*
X122830421Y-92258281D01*
X122840887Y-92250251D01*
X122863260Y-92237332D01*
X122910957Y-92217576D01*
X122935911Y-92210891D01*
X122987078Y-92204155D01*
X123012920Y-92204155D01*
X123055658Y-92209781D01*
G37*
%TD.AperFunction*%
%TA.AperFunction,Conductor*%
G36*
X127055658Y-92209781D02*
G01*
X127064086Y-92210891D01*
X127089049Y-92217580D01*
X127136730Y-92237330D01*
X127159112Y-92250252D01*
X127200053Y-92281667D01*
X127218327Y-92299940D01*
X127249744Y-92340882D01*
X127262667Y-92363266D01*
X127282418Y-92410950D01*
X127289107Y-92435913D01*
X127295843Y-92487077D01*
X127295843Y-92512921D01*
X127289107Y-92564085D01*
X127282418Y-92589048D01*
X127262667Y-92636732D01*
X127249745Y-92659114D01*
X127218330Y-92700055D01*
X127200055Y-92718330D01*
X127159114Y-92749745D01*
X127136732Y-92762667D01*
X127089048Y-92782418D01*
X127064085Y-92789107D01*
X127012921Y-92795843D01*
X126987077Y-92795843D01*
X126935913Y-92789107D01*
X126910950Y-92782418D01*
X126863266Y-92762667D01*
X126840884Y-92749745D01*
X126799943Y-92718330D01*
X126781671Y-92700059D01*
X126750251Y-92659112D01*
X126737329Y-92636730D01*
X126717577Y-92589041D01*
X126710891Y-92564085D01*
X126704155Y-92512919D01*
X126704155Y-92487076D01*
X126710891Y-92435911D01*
X126717580Y-92410948D01*
X126737329Y-92363269D01*
X126750251Y-92340887D01*
X126758281Y-92330421D01*
X126781671Y-92299939D01*
X126799939Y-92281671D01*
X126830421Y-92258281D01*
X126840887Y-92250251D01*
X126863260Y-92237332D01*
X126910957Y-92217576D01*
X126935911Y-92210891D01*
X126987078Y-92204155D01*
X127012920Y-92204155D01*
X127055658Y-92209781D01*
G37*
%TD.AperFunction*%
%TA.AperFunction,Conductor*%
G36*
X131055658Y-92209781D02*
G01*
X131064086Y-92210891D01*
X131089049Y-92217580D01*
X131136730Y-92237330D01*
X131159112Y-92250252D01*
X131200053Y-92281667D01*
X131218327Y-92299940D01*
X131249744Y-92340882D01*
X131262667Y-92363266D01*
X131282418Y-92410950D01*
X131289107Y-92435913D01*
X131295843Y-92487077D01*
X131295843Y-92512921D01*
X131289107Y-92564085D01*
X131282418Y-92589048D01*
X131262667Y-92636732D01*
X131249745Y-92659114D01*
X131218330Y-92700055D01*
X131200055Y-92718330D01*
X131159114Y-92749745D01*
X131136732Y-92762667D01*
X131089048Y-92782418D01*
X131064085Y-92789107D01*
X131012921Y-92795843D01*
X130987077Y-92795843D01*
X130935913Y-92789107D01*
X130910950Y-92782418D01*
X130863266Y-92762667D01*
X130840884Y-92749745D01*
X130799943Y-92718330D01*
X130781671Y-92700059D01*
X130750251Y-92659112D01*
X130737329Y-92636730D01*
X130717577Y-92589041D01*
X130710891Y-92564085D01*
X130704155Y-92512919D01*
X130704155Y-92487076D01*
X130710891Y-92435911D01*
X130717580Y-92410948D01*
X130737329Y-92363269D01*
X130750251Y-92340887D01*
X130758281Y-92330421D01*
X130781671Y-92299939D01*
X130799939Y-92281671D01*
X130830421Y-92258281D01*
X130840887Y-92250251D01*
X130863260Y-92237332D01*
X130910957Y-92217576D01*
X130935911Y-92210891D01*
X130987078Y-92204155D01*
X131012920Y-92204155D01*
X131055658Y-92209781D01*
G37*
%TD.AperFunction*%
%TA.AperFunction,Conductor*%
G36*
X135055658Y-92209781D02*
G01*
X135064086Y-92210891D01*
X135089049Y-92217580D01*
X135136730Y-92237330D01*
X135159112Y-92250252D01*
X135200053Y-92281667D01*
X135218327Y-92299940D01*
X135249744Y-92340882D01*
X135262667Y-92363266D01*
X135282418Y-92410950D01*
X135289107Y-92435913D01*
X135295843Y-92487077D01*
X135295843Y-92512921D01*
X135289107Y-92564085D01*
X135282418Y-92589048D01*
X135262667Y-92636732D01*
X135249745Y-92659114D01*
X135218330Y-92700055D01*
X135200055Y-92718330D01*
X135159114Y-92749745D01*
X135136732Y-92762667D01*
X135089048Y-92782418D01*
X135064085Y-92789107D01*
X135012921Y-92795843D01*
X134987077Y-92795843D01*
X134935913Y-92789107D01*
X134910950Y-92782418D01*
X134863266Y-92762667D01*
X134840884Y-92749745D01*
X134799943Y-92718330D01*
X134781671Y-92700059D01*
X134750251Y-92659112D01*
X134737329Y-92636730D01*
X134717577Y-92589041D01*
X134710891Y-92564085D01*
X134704155Y-92512919D01*
X134704155Y-92487076D01*
X134710891Y-92435911D01*
X134717580Y-92410948D01*
X134737329Y-92363269D01*
X134750251Y-92340887D01*
X134758281Y-92330421D01*
X134781671Y-92299939D01*
X134799939Y-92281671D01*
X134830421Y-92258281D01*
X134840887Y-92250251D01*
X134863260Y-92237332D01*
X134910957Y-92217576D01*
X134935911Y-92210891D01*
X134987078Y-92204155D01*
X135012920Y-92204155D01*
X135055658Y-92209781D01*
G37*
%TD.AperFunction*%
%TA.AperFunction,Conductor*%
G36*
X139055658Y-92209781D02*
G01*
X139064086Y-92210891D01*
X139089049Y-92217580D01*
X139136730Y-92237330D01*
X139159112Y-92250252D01*
X139200053Y-92281667D01*
X139218327Y-92299940D01*
X139249744Y-92340882D01*
X139262667Y-92363266D01*
X139282418Y-92410950D01*
X139289107Y-92435913D01*
X139295843Y-92487077D01*
X139295843Y-92512921D01*
X139289107Y-92564085D01*
X139282418Y-92589048D01*
X139262667Y-92636732D01*
X139249745Y-92659114D01*
X139218330Y-92700055D01*
X139200055Y-92718330D01*
X139159114Y-92749745D01*
X139136732Y-92762667D01*
X139089048Y-92782418D01*
X139064085Y-92789107D01*
X139012921Y-92795843D01*
X138987077Y-92795843D01*
X138935913Y-92789107D01*
X138910950Y-92782418D01*
X138863266Y-92762667D01*
X138840884Y-92749745D01*
X138799943Y-92718330D01*
X138781671Y-92700059D01*
X138750251Y-92659112D01*
X138737329Y-92636730D01*
X138717577Y-92589041D01*
X138710891Y-92564085D01*
X138704155Y-92512919D01*
X138704155Y-92487076D01*
X138710891Y-92435911D01*
X138717580Y-92410948D01*
X138737329Y-92363269D01*
X138750251Y-92340887D01*
X138758281Y-92330421D01*
X138781671Y-92299939D01*
X138799939Y-92281671D01*
X138830421Y-92258281D01*
X138840887Y-92250251D01*
X138863260Y-92237332D01*
X138910957Y-92217576D01*
X138935911Y-92210891D01*
X138987078Y-92204155D01*
X139012920Y-92204155D01*
X139055658Y-92209781D01*
G37*
%TD.AperFunction*%
%TA.AperFunction,Conductor*%
G36*
X143055658Y-92209781D02*
G01*
X143064086Y-92210891D01*
X143089049Y-92217580D01*
X143136730Y-92237330D01*
X143159112Y-92250252D01*
X143200053Y-92281667D01*
X143218327Y-92299940D01*
X143249744Y-92340882D01*
X143262667Y-92363266D01*
X143282418Y-92410950D01*
X143289107Y-92435913D01*
X143295843Y-92487077D01*
X143295843Y-92512921D01*
X143289107Y-92564085D01*
X143282418Y-92589048D01*
X143262667Y-92636732D01*
X143249745Y-92659114D01*
X143218330Y-92700055D01*
X143200055Y-92718331D01*
X143159112Y-92749747D01*
X143136761Y-92762655D01*
X143133693Y-92763927D01*
X143133660Y-92763941D01*
X143089047Y-92782419D01*
X143064086Y-92789107D01*
X143012921Y-92795843D01*
X142987077Y-92795843D01*
X142935913Y-92789107D01*
X142910950Y-92782418D01*
X142863266Y-92762667D01*
X142840884Y-92749745D01*
X142799943Y-92718330D01*
X142781671Y-92700059D01*
X142750251Y-92659112D01*
X142737329Y-92636730D01*
X142717577Y-92589041D01*
X142710891Y-92564085D01*
X142704155Y-92512919D01*
X142704155Y-92487076D01*
X142710891Y-92435911D01*
X142717580Y-92410948D01*
X142737329Y-92363269D01*
X142750251Y-92340887D01*
X142758281Y-92330421D01*
X142781671Y-92299939D01*
X142799939Y-92281671D01*
X142830421Y-92258281D01*
X142840887Y-92250251D01*
X142863260Y-92237332D01*
X142910957Y-92217576D01*
X142935911Y-92210891D01*
X142987078Y-92204155D01*
X143012920Y-92204155D01*
X143055658Y-92209781D01*
G37*
%TD.AperFunction*%
%TA.AperFunction,Conductor*%
G36*
X116055658Y-88709781D02*
G01*
X116064086Y-88710891D01*
X116089049Y-88717580D01*
X116136730Y-88737330D01*
X116159112Y-88750252D01*
X116200053Y-88781667D01*
X116218327Y-88799940D01*
X116249744Y-88840882D01*
X116262667Y-88863266D01*
X116282418Y-88910950D01*
X116289107Y-88935913D01*
X116295843Y-88987077D01*
X116295843Y-89012921D01*
X116289107Y-89064085D01*
X116282418Y-89089048D01*
X116262667Y-89136732D01*
X116249745Y-89159114D01*
X116218330Y-89200055D01*
X116200055Y-89218330D01*
X116159114Y-89249745D01*
X116136732Y-89262667D01*
X116089048Y-89282418D01*
X116064085Y-89289107D01*
X116012921Y-89295843D01*
X115987077Y-89295843D01*
X115935913Y-89289107D01*
X115910950Y-89282418D01*
X115863266Y-89262667D01*
X115840884Y-89249745D01*
X115799943Y-89218330D01*
X115781671Y-89200059D01*
X115750251Y-89159112D01*
X115737329Y-89136730D01*
X115717577Y-89089041D01*
X115710891Y-89064085D01*
X115704155Y-89012919D01*
X115704155Y-88987076D01*
X115710891Y-88935911D01*
X115717580Y-88910948D01*
X115737329Y-88863269D01*
X115750251Y-88840887D01*
X115758281Y-88830421D01*
X115781671Y-88799939D01*
X115799939Y-88781671D01*
X115830421Y-88758281D01*
X115840887Y-88750251D01*
X115863260Y-88737332D01*
X115910957Y-88717576D01*
X115935911Y-88710891D01*
X115987078Y-88704155D01*
X116012920Y-88704155D01*
X116055658Y-88709781D01*
G37*
%TD.AperFunction*%
%TA.AperFunction,Conductor*%
G36*
X123055658Y-88709781D02*
G01*
X123064086Y-88710891D01*
X123089049Y-88717580D01*
X123136730Y-88737330D01*
X123159112Y-88750252D01*
X123200053Y-88781667D01*
X123218327Y-88799940D01*
X123249744Y-88840882D01*
X123262667Y-88863266D01*
X123282418Y-88910950D01*
X123289107Y-88935913D01*
X123295843Y-88987077D01*
X123295843Y-89012921D01*
X123289107Y-89064085D01*
X123282418Y-89089048D01*
X123262667Y-89136732D01*
X123249745Y-89159114D01*
X123218330Y-89200055D01*
X123200055Y-89218330D01*
X123159114Y-89249745D01*
X123136732Y-89262667D01*
X123089048Y-89282418D01*
X123064085Y-89289107D01*
X123012921Y-89295843D01*
X122987077Y-89295843D01*
X122935913Y-89289107D01*
X122910950Y-89282418D01*
X122863266Y-89262667D01*
X122840884Y-89249745D01*
X122799943Y-89218330D01*
X122781671Y-89200059D01*
X122750251Y-89159112D01*
X122737329Y-89136730D01*
X122717577Y-89089041D01*
X122710891Y-89064085D01*
X122704155Y-89012919D01*
X122704155Y-88987076D01*
X122710891Y-88935911D01*
X122717580Y-88910948D01*
X122737329Y-88863269D01*
X122750251Y-88840887D01*
X122758281Y-88830421D01*
X122781671Y-88799939D01*
X122799939Y-88781671D01*
X122830421Y-88758281D01*
X122840887Y-88750251D01*
X122863260Y-88737332D01*
X122910957Y-88717576D01*
X122935911Y-88710891D01*
X122987078Y-88704155D01*
X123012920Y-88704155D01*
X123055658Y-88709781D01*
G37*
%TD.AperFunction*%
%TA.AperFunction,Conductor*%
G36*
X131055658Y-88709781D02*
G01*
X131064086Y-88710891D01*
X131089049Y-88717580D01*
X131136730Y-88737330D01*
X131159112Y-88750252D01*
X131200053Y-88781667D01*
X131218327Y-88799940D01*
X131249744Y-88840882D01*
X131262667Y-88863266D01*
X131282418Y-88910950D01*
X131289107Y-88935913D01*
X131295843Y-88987077D01*
X131295843Y-89012921D01*
X131289107Y-89064085D01*
X131282418Y-89089048D01*
X131262667Y-89136732D01*
X131249745Y-89159114D01*
X131218330Y-89200055D01*
X131200055Y-89218330D01*
X131159114Y-89249745D01*
X131136732Y-89262667D01*
X131089048Y-89282418D01*
X131064085Y-89289107D01*
X131012921Y-89295843D01*
X130987077Y-89295843D01*
X130935913Y-89289107D01*
X130910950Y-89282418D01*
X130863266Y-89262667D01*
X130840884Y-89249745D01*
X130799943Y-89218330D01*
X130781671Y-89200059D01*
X130750251Y-89159112D01*
X130737329Y-89136730D01*
X130717577Y-89089041D01*
X130710891Y-89064085D01*
X130704155Y-89012919D01*
X130704155Y-88987076D01*
X130710891Y-88935911D01*
X130717580Y-88910948D01*
X130737329Y-88863269D01*
X130750251Y-88840887D01*
X130758281Y-88830421D01*
X130781671Y-88799939D01*
X130799939Y-88781671D01*
X130830421Y-88758281D01*
X130840887Y-88750251D01*
X130863260Y-88737332D01*
X130910957Y-88717576D01*
X130935911Y-88710891D01*
X130987078Y-88704155D01*
X131012920Y-88704155D01*
X131055658Y-88709781D01*
G37*
%TD.AperFunction*%
%TA.AperFunction,Conductor*%
G36*
X139055658Y-88709781D02*
G01*
X139064086Y-88710891D01*
X139089049Y-88717580D01*
X139136730Y-88737330D01*
X139159112Y-88750252D01*
X139200053Y-88781667D01*
X139218327Y-88799940D01*
X139249744Y-88840882D01*
X139262667Y-88863266D01*
X139282418Y-88910950D01*
X139289107Y-88935913D01*
X139295843Y-88987077D01*
X139295843Y-89012921D01*
X139289107Y-89064085D01*
X139282418Y-89089048D01*
X139262667Y-89136732D01*
X139249745Y-89159114D01*
X139218330Y-89200055D01*
X139200055Y-89218330D01*
X139159114Y-89249745D01*
X139136732Y-89262667D01*
X139089048Y-89282418D01*
X139064085Y-89289107D01*
X139012921Y-89295843D01*
X138987077Y-89295843D01*
X138935913Y-89289107D01*
X138910950Y-89282418D01*
X138863266Y-89262667D01*
X138840884Y-89249745D01*
X138799943Y-89218330D01*
X138781671Y-89200059D01*
X138750251Y-89159112D01*
X138737329Y-89136730D01*
X138717577Y-89089041D01*
X138710891Y-89064085D01*
X138704155Y-89012919D01*
X138704155Y-88987076D01*
X138710891Y-88935911D01*
X138717580Y-88910948D01*
X138737329Y-88863269D01*
X138750251Y-88840887D01*
X138758281Y-88830421D01*
X138781671Y-88799939D01*
X138799939Y-88781671D01*
X138830421Y-88758281D01*
X138840887Y-88750251D01*
X138863260Y-88737332D01*
X138910957Y-88717576D01*
X138935911Y-88710891D01*
X138987078Y-88704155D01*
X139012920Y-88704155D01*
X139055658Y-88709781D01*
G37*
%TD.AperFunction*%
%TA.AperFunction,Conductor*%
G36*
X146155658Y-88709781D02*
G01*
X146164086Y-88710891D01*
X146189049Y-88717580D01*
X146236730Y-88737330D01*
X146259112Y-88750252D01*
X146300053Y-88781667D01*
X146318327Y-88799940D01*
X146349744Y-88840882D01*
X146362667Y-88863266D01*
X146382418Y-88910950D01*
X146389107Y-88935913D01*
X146395843Y-88987077D01*
X146395843Y-89012921D01*
X146389107Y-89064085D01*
X146382418Y-89089048D01*
X146362667Y-89136732D01*
X146349745Y-89159114D01*
X146318330Y-89200055D01*
X146300055Y-89218330D01*
X146259114Y-89249745D01*
X146236732Y-89262667D01*
X146189048Y-89282418D01*
X146164085Y-89289107D01*
X146112921Y-89295843D01*
X146087077Y-89295843D01*
X146035913Y-89289107D01*
X146010950Y-89282418D01*
X145963266Y-89262667D01*
X145940884Y-89249745D01*
X145899943Y-89218330D01*
X145881671Y-89200059D01*
X145850251Y-89159112D01*
X145837329Y-89136730D01*
X145817577Y-89089041D01*
X145810891Y-89064085D01*
X145804155Y-89012919D01*
X145804155Y-88987076D01*
X145810891Y-88935911D01*
X145817580Y-88910948D01*
X145837329Y-88863269D01*
X145850251Y-88840887D01*
X145858281Y-88830421D01*
X145881671Y-88799939D01*
X145899939Y-88781671D01*
X145930421Y-88758281D01*
X145940887Y-88750251D01*
X145963260Y-88737332D01*
X146010957Y-88717576D01*
X146035911Y-88710891D01*
X146087078Y-88704155D01*
X146112920Y-88704155D01*
X146155658Y-88709781D01*
G37*
%TD.AperFunction*%
%TA.AperFunction,Conductor*%
G36*
X143055658Y-87409781D02*
G01*
X143064086Y-87410891D01*
X143089049Y-87417580D01*
X143136730Y-87437330D01*
X143159112Y-87450252D01*
X143200053Y-87481667D01*
X143218327Y-87499940D01*
X143249744Y-87540882D01*
X143262667Y-87563266D01*
X143282418Y-87610950D01*
X143289107Y-87635913D01*
X143295843Y-87687077D01*
X143295843Y-87712921D01*
X143289107Y-87764085D01*
X143282418Y-87789048D01*
X143262667Y-87836732D01*
X143249745Y-87859114D01*
X143218330Y-87900055D01*
X143200055Y-87918330D01*
X143159114Y-87949745D01*
X143136732Y-87962667D01*
X143089048Y-87982418D01*
X143064085Y-87989107D01*
X143012921Y-87995843D01*
X142987077Y-87995843D01*
X142935913Y-87989107D01*
X142910950Y-87982418D01*
X142863266Y-87962667D01*
X142840884Y-87949745D01*
X142799943Y-87918330D01*
X142781671Y-87900059D01*
X142750251Y-87859112D01*
X142737329Y-87836730D01*
X142722139Y-87800056D01*
X142717577Y-87789041D01*
X142710891Y-87764085D01*
X142704155Y-87712919D01*
X142704155Y-87687076D01*
X142705481Y-87677009D01*
X142710891Y-87635910D01*
X142717580Y-87610948D01*
X142737329Y-87563269D01*
X142750251Y-87540887D01*
X142763984Y-87522990D01*
X142781671Y-87499939D01*
X142799939Y-87481671D01*
X142830421Y-87458281D01*
X142840887Y-87450251D01*
X142863260Y-87437332D01*
X142910957Y-87417576D01*
X142935911Y-87410891D01*
X142987078Y-87404155D01*
X143012920Y-87404155D01*
X143055658Y-87409781D01*
G37*
%TD.AperFunction*%
%TA.AperFunction,Conductor*%
G36*
X117455658Y-87309781D02*
G01*
X117464086Y-87310891D01*
X117489049Y-87317580D01*
X117536730Y-87337330D01*
X117559112Y-87350252D01*
X117600053Y-87381667D01*
X117618327Y-87399940D01*
X117649744Y-87440882D01*
X117662667Y-87463266D01*
X117682418Y-87510950D01*
X117689107Y-87535913D01*
X117695843Y-87587077D01*
X117695843Y-87612921D01*
X117689107Y-87664085D01*
X117682418Y-87689048D01*
X117662667Y-87736732D01*
X117649745Y-87759114D01*
X117618330Y-87800055D01*
X117600055Y-87818330D01*
X117559114Y-87849745D01*
X117536732Y-87862667D01*
X117489048Y-87882418D01*
X117464085Y-87889107D01*
X117412921Y-87895843D01*
X117387077Y-87895843D01*
X117335913Y-87889107D01*
X117310950Y-87882418D01*
X117263266Y-87862667D01*
X117240884Y-87849745D01*
X117199943Y-87818330D01*
X117181671Y-87800059D01*
X117150251Y-87759112D01*
X117137329Y-87736730D01*
X117117577Y-87689041D01*
X117110891Y-87664085D01*
X117104155Y-87612919D01*
X117104155Y-87587076D01*
X117110891Y-87535911D01*
X117117580Y-87510948D01*
X117122139Y-87499943D01*
X117137331Y-87463266D01*
X117150251Y-87440887D01*
X117168136Y-87417579D01*
X117181671Y-87399939D01*
X117199939Y-87381671D01*
X117230421Y-87358281D01*
X117240887Y-87350251D01*
X117263260Y-87337332D01*
X117310957Y-87317576D01*
X117335911Y-87310891D01*
X117387078Y-87304155D01*
X117412920Y-87304155D01*
X117455658Y-87309781D01*
G37*
%TD.AperFunction*%
%TA.AperFunction,Conductor*%
G36*
X145538139Y-84106218D02*
G01*
X145661886Y-84125817D01*
X145676977Y-84129440D01*
X145796152Y-84168161D01*
X145810498Y-84174104D01*
X145922137Y-84230988D01*
X145935381Y-84239104D01*
X146036746Y-84312749D01*
X146048560Y-84322838D01*
X146137162Y-84411440D01*
X146147251Y-84423254D01*
X146220892Y-84524614D01*
X146229008Y-84537858D01*
X146285891Y-84649494D01*
X146291837Y-84663848D01*
X146330554Y-84783009D01*
X146334180Y-84798113D01*
X146353781Y-84921859D01*
X146355000Y-84937347D01*
X146355000Y-85262649D01*
X146353781Y-85278137D01*
X146334181Y-85401882D01*
X146330555Y-85416986D01*
X146291837Y-85536150D01*
X146285891Y-85550504D01*
X146229008Y-85662140D01*
X146220892Y-85675384D01*
X146147251Y-85776744D01*
X146137162Y-85788558D01*
X146048558Y-85877162D01*
X146036744Y-85887251D01*
X145935384Y-85960892D01*
X145922140Y-85969008D01*
X145810503Y-86025891D01*
X145796150Y-86031837D01*
X145676991Y-86070554D01*
X145661885Y-86074180D01*
X145598082Y-86084285D01*
X145598034Y-86084293D01*
X145538135Y-86093781D01*
X145522647Y-86095000D01*
X145397352Y-86095000D01*
X145381864Y-86093781D01*
X145367802Y-86091553D01*
X145304258Y-86081488D01*
X145304258Y-86081487D01*
X145304252Y-86081487D01*
X145258115Y-86074180D01*
X145243008Y-86070554D01*
X145123846Y-86031836D01*
X145109493Y-86025890D01*
X144997858Y-85969008D01*
X144984614Y-85960892D01*
X144883254Y-85887251D01*
X144871440Y-85877162D01*
X144782836Y-85788558D01*
X144772747Y-85776744D01*
X144699106Y-85675384D01*
X144690990Y-85662140D01*
X144679779Y-85640138D01*
X144634103Y-85550496D01*
X144628164Y-85536158D01*
X144589440Y-85416974D01*
X144585817Y-85401883D01*
X144566219Y-85278137D01*
X144565000Y-85262652D01*
X144565000Y-84937344D01*
X144566219Y-84921858D01*
X144585818Y-84798108D01*
X144589439Y-84783023D01*
X144628163Y-84663840D01*
X144634104Y-84649500D01*
X144690988Y-84537860D01*
X144699099Y-84524621D01*
X144752811Y-84450696D01*
X144752813Y-84450694D01*
X144772753Y-84423247D01*
X144782833Y-84411443D01*
X144871446Y-84322830D01*
X144883252Y-84312749D01*
X144948947Y-84265020D01*
X144948948Y-84265020D01*
X144984622Y-84239099D01*
X144997864Y-84230986D01*
X145109500Y-84174104D01*
X145123840Y-84168163D01*
X145243023Y-84129439D01*
X145258107Y-84125818D01*
X145381860Y-84106218D01*
X145397346Y-84105000D01*
X145522654Y-84105000D01*
X145538139Y-84106218D01*
G37*
%TD.AperFunction*%
%TA.AperFunction,Conductor*%
G36*
X115055658Y-82409781D02*
G01*
X115064086Y-82410891D01*
X115089049Y-82417580D01*
X115136730Y-82437330D01*
X115159112Y-82450252D01*
X115200053Y-82481667D01*
X115218327Y-82499940D01*
X115249744Y-82540882D01*
X115262667Y-82563266D01*
X115282418Y-82610950D01*
X115289107Y-82635913D01*
X115295843Y-82687077D01*
X115295843Y-82712921D01*
X115289107Y-82764085D01*
X115282418Y-82789048D01*
X115262667Y-82836732D01*
X115249745Y-82859114D01*
X115218330Y-82900055D01*
X115200055Y-82918330D01*
X115159114Y-82949745D01*
X115136732Y-82962667D01*
X115089048Y-82982418D01*
X115064085Y-82989107D01*
X115012921Y-82995843D01*
X114987077Y-82995843D01*
X114935913Y-82989107D01*
X114910950Y-82982418D01*
X114863266Y-82962667D01*
X114840884Y-82949745D01*
X114799943Y-82918330D01*
X114781671Y-82900059D01*
X114750251Y-82859112D01*
X114737329Y-82836730D01*
X114717577Y-82789041D01*
X114710891Y-82764085D01*
X114704155Y-82712919D01*
X114704155Y-82687076D01*
X114710891Y-82635911D01*
X114717580Y-82610948D01*
X114737329Y-82563269D01*
X114750251Y-82540887D01*
X114758281Y-82530421D01*
X114781671Y-82499939D01*
X114799939Y-82481671D01*
X114830421Y-82458281D01*
X114840887Y-82450251D01*
X114863260Y-82437332D01*
X114910957Y-82417576D01*
X114935911Y-82410891D01*
X114987078Y-82404155D01*
X115012920Y-82404155D01*
X115055658Y-82409781D01*
G37*
%TD.AperFunction*%
%TA.AperFunction,Conductor*%
G36*
X117555658Y-82409781D02*
G01*
X117564086Y-82410891D01*
X117589049Y-82417580D01*
X117636730Y-82437330D01*
X117659112Y-82450252D01*
X117700053Y-82481667D01*
X117718327Y-82499940D01*
X117749744Y-82540882D01*
X117762667Y-82563266D01*
X117782418Y-82610950D01*
X117789107Y-82635913D01*
X117795843Y-82687077D01*
X117795843Y-82712921D01*
X117789107Y-82764085D01*
X117782418Y-82789048D01*
X117762667Y-82836732D01*
X117749745Y-82859114D01*
X117718330Y-82900055D01*
X117700055Y-82918330D01*
X117659114Y-82949745D01*
X117636732Y-82962667D01*
X117589048Y-82982418D01*
X117564085Y-82989107D01*
X117512921Y-82995843D01*
X117487077Y-82995843D01*
X117435913Y-82989107D01*
X117410950Y-82982418D01*
X117363266Y-82962667D01*
X117340884Y-82949745D01*
X117299943Y-82918330D01*
X117281671Y-82900059D01*
X117250251Y-82859112D01*
X117237329Y-82836730D01*
X117217577Y-82789041D01*
X117210891Y-82764085D01*
X117204155Y-82712919D01*
X117204155Y-82687076D01*
X117210891Y-82635911D01*
X117217580Y-82610948D01*
X117237329Y-82563269D01*
X117250251Y-82540887D01*
X117258281Y-82530421D01*
X117281671Y-82499939D01*
X117299939Y-82481671D01*
X117330421Y-82458281D01*
X117340887Y-82450251D01*
X117363260Y-82437332D01*
X117410957Y-82417576D01*
X117435911Y-82410891D01*
X117487078Y-82404155D01*
X117512920Y-82404155D01*
X117555658Y-82409781D01*
G37*
%TD.AperFunction*%
%TA.AperFunction,Conductor*%
G36*
X120155658Y-82409781D02*
G01*
X120164086Y-82410891D01*
X120189049Y-82417580D01*
X120236730Y-82437330D01*
X120259112Y-82450252D01*
X120300053Y-82481667D01*
X120318327Y-82499940D01*
X120349744Y-82540882D01*
X120362667Y-82563266D01*
X120382418Y-82610950D01*
X120389107Y-82635913D01*
X120395843Y-82687077D01*
X120395843Y-82712921D01*
X120389107Y-82764085D01*
X120382418Y-82789048D01*
X120362667Y-82836732D01*
X120349745Y-82859114D01*
X120318330Y-82900055D01*
X120300055Y-82918330D01*
X120259114Y-82949745D01*
X120236732Y-82962667D01*
X120189048Y-82982418D01*
X120164085Y-82989107D01*
X120112921Y-82995843D01*
X120087077Y-82995843D01*
X120035913Y-82989107D01*
X120010950Y-82982418D01*
X119963266Y-82962667D01*
X119940884Y-82949745D01*
X119899943Y-82918330D01*
X119881671Y-82900059D01*
X119850251Y-82859112D01*
X119837329Y-82836730D01*
X119817577Y-82789041D01*
X119810891Y-82764085D01*
X119804155Y-82712919D01*
X119804155Y-82687076D01*
X119810891Y-82635911D01*
X119817580Y-82610948D01*
X119837329Y-82563269D01*
X119850251Y-82540887D01*
X119858281Y-82530421D01*
X119881671Y-82499939D01*
X119899939Y-82481671D01*
X119930421Y-82458281D01*
X119940887Y-82450251D01*
X119963260Y-82437332D01*
X120010957Y-82417576D01*
X120035911Y-82410891D01*
X120087078Y-82404155D01*
X120112920Y-82404155D01*
X120155658Y-82409781D01*
G37*
%TD.AperFunction*%
%TA.AperFunction,Conductor*%
G36*
X122655658Y-82409781D02*
G01*
X122664086Y-82410891D01*
X122689049Y-82417580D01*
X122736730Y-82437330D01*
X122759112Y-82450252D01*
X122800053Y-82481667D01*
X122818327Y-82499940D01*
X122849744Y-82540882D01*
X122862667Y-82563266D01*
X122882418Y-82610950D01*
X122889107Y-82635913D01*
X122895843Y-82687077D01*
X122895843Y-82712921D01*
X122889107Y-82764085D01*
X122882418Y-82789048D01*
X122862667Y-82836732D01*
X122849745Y-82859114D01*
X122818330Y-82900055D01*
X122800055Y-82918330D01*
X122759114Y-82949745D01*
X122736732Y-82962667D01*
X122689048Y-82982418D01*
X122664085Y-82989107D01*
X122612921Y-82995843D01*
X122587077Y-82995843D01*
X122535913Y-82989107D01*
X122510950Y-82982418D01*
X122463266Y-82962667D01*
X122440884Y-82949745D01*
X122399943Y-82918330D01*
X122381671Y-82900059D01*
X122350251Y-82859112D01*
X122337329Y-82836730D01*
X122317577Y-82789041D01*
X122310891Y-82764085D01*
X122304155Y-82712919D01*
X122304155Y-82687076D01*
X122310891Y-82635911D01*
X122317580Y-82610948D01*
X122337329Y-82563269D01*
X122350251Y-82540887D01*
X122358281Y-82530421D01*
X122381671Y-82499939D01*
X122399939Y-82481671D01*
X122430421Y-82458281D01*
X122440887Y-82450251D01*
X122463260Y-82437332D01*
X122510957Y-82417576D01*
X122535911Y-82410891D01*
X122587078Y-82404155D01*
X122612920Y-82404155D01*
X122655658Y-82409781D01*
G37*
%TD.AperFunction*%
%TA.AperFunction,Conductor*%
G36*
X125055658Y-82409781D02*
G01*
X125064086Y-82410891D01*
X125089049Y-82417580D01*
X125136730Y-82437330D01*
X125159112Y-82450252D01*
X125200053Y-82481667D01*
X125218327Y-82499940D01*
X125249744Y-82540882D01*
X125262667Y-82563266D01*
X125282418Y-82610950D01*
X125289107Y-82635913D01*
X125295843Y-82687077D01*
X125295843Y-82712921D01*
X125289107Y-82764085D01*
X125282418Y-82789048D01*
X125262667Y-82836732D01*
X125249745Y-82859114D01*
X125218330Y-82900055D01*
X125200055Y-82918330D01*
X125159114Y-82949745D01*
X125136732Y-82962667D01*
X125089048Y-82982418D01*
X125064085Y-82989107D01*
X125012921Y-82995843D01*
X124987077Y-82995843D01*
X124935913Y-82989107D01*
X124910950Y-82982418D01*
X124863266Y-82962667D01*
X124840884Y-82949745D01*
X124799943Y-82918330D01*
X124781671Y-82900059D01*
X124750251Y-82859112D01*
X124737329Y-82836730D01*
X124717577Y-82789041D01*
X124710891Y-82764085D01*
X124704155Y-82712919D01*
X124704155Y-82687076D01*
X124710891Y-82635911D01*
X124717580Y-82610948D01*
X124737329Y-82563269D01*
X124750251Y-82540887D01*
X124758281Y-82530421D01*
X124781671Y-82499939D01*
X124799939Y-82481671D01*
X124830421Y-82458281D01*
X124840887Y-82450251D01*
X124863260Y-82437332D01*
X124910957Y-82417576D01*
X124935911Y-82410891D01*
X124987078Y-82404155D01*
X125012920Y-82404155D01*
X125055658Y-82409781D01*
G37*
%TD.AperFunction*%
%TA.AperFunction,Conductor*%
G36*
X130255658Y-82409781D02*
G01*
X130264086Y-82410891D01*
X130289049Y-82417580D01*
X130336730Y-82437330D01*
X130359112Y-82450252D01*
X130400053Y-82481667D01*
X130418327Y-82499940D01*
X130449744Y-82540882D01*
X130462667Y-82563266D01*
X130482418Y-82610950D01*
X130489107Y-82635913D01*
X130495843Y-82687077D01*
X130495843Y-82712921D01*
X130489107Y-82764085D01*
X130482418Y-82789048D01*
X130462667Y-82836732D01*
X130449745Y-82859114D01*
X130418330Y-82900055D01*
X130400055Y-82918330D01*
X130359114Y-82949745D01*
X130336732Y-82962667D01*
X130289048Y-82982418D01*
X130264085Y-82989107D01*
X130212921Y-82995843D01*
X130187077Y-82995843D01*
X130135913Y-82989107D01*
X130110950Y-82982418D01*
X130063266Y-82962667D01*
X130040884Y-82949745D01*
X129999943Y-82918330D01*
X129981671Y-82900059D01*
X129950251Y-82859112D01*
X129937329Y-82836730D01*
X129917577Y-82789041D01*
X129910891Y-82764085D01*
X129904155Y-82712919D01*
X129904155Y-82687076D01*
X129910891Y-82635911D01*
X129917580Y-82610948D01*
X129937329Y-82563269D01*
X129950251Y-82540887D01*
X129958281Y-82530421D01*
X129981671Y-82499939D01*
X129999939Y-82481671D01*
X130030421Y-82458281D01*
X130040887Y-82450251D01*
X130063260Y-82437332D01*
X130110957Y-82417576D01*
X130135911Y-82410891D01*
X130187078Y-82404155D01*
X130212920Y-82404155D01*
X130255658Y-82409781D01*
G37*
%TD.AperFunction*%
%TA.AperFunction,Conductor*%
G36*
X132855658Y-82409781D02*
G01*
X132864086Y-82410891D01*
X132889049Y-82417580D01*
X132936730Y-82437330D01*
X132959112Y-82450252D01*
X133000053Y-82481667D01*
X133018327Y-82499940D01*
X133049744Y-82540882D01*
X133062667Y-82563266D01*
X133082418Y-82610950D01*
X133089107Y-82635913D01*
X133095843Y-82687077D01*
X133095843Y-82712921D01*
X133089107Y-82764085D01*
X133082418Y-82789048D01*
X133062667Y-82836732D01*
X133049745Y-82859114D01*
X133018330Y-82900055D01*
X133000055Y-82918330D01*
X132959114Y-82949745D01*
X132936732Y-82962667D01*
X132889048Y-82982418D01*
X132864085Y-82989107D01*
X132812921Y-82995843D01*
X132787077Y-82995843D01*
X132735913Y-82989107D01*
X132710950Y-82982418D01*
X132663266Y-82962667D01*
X132640884Y-82949745D01*
X132599943Y-82918330D01*
X132581671Y-82900059D01*
X132550251Y-82859112D01*
X132537329Y-82836730D01*
X132517577Y-82789041D01*
X132510891Y-82764085D01*
X132504155Y-82712919D01*
X132504155Y-82687076D01*
X132510891Y-82635911D01*
X132517580Y-82610948D01*
X132537329Y-82563269D01*
X132550251Y-82540887D01*
X132558281Y-82530421D01*
X132581671Y-82499939D01*
X132599939Y-82481671D01*
X132630421Y-82458281D01*
X132640887Y-82450251D01*
X132663260Y-82437332D01*
X132710957Y-82417576D01*
X132735911Y-82410891D01*
X132787078Y-82404155D01*
X132812920Y-82404155D01*
X132855658Y-82409781D01*
G37*
%TD.AperFunction*%
%TA.AperFunction,Conductor*%
G36*
X135355658Y-82409781D02*
G01*
X135364086Y-82410891D01*
X135389049Y-82417580D01*
X135436730Y-82437330D01*
X135459112Y-82450252D01*
X135500053Y-82481667D01*
X135518327Y-82499940D01*
X135549744Y-82540882D01*
X135562667Y-82563266D01*
X135582418Y-82610950D01*
X135589107Y-82635913D01*
X135595843Y-82687077D01*
X135595843Y-82712921D01*
X135589107Y-82764085D01*
X135582418Y-82789048D01*
X135562667Y-82836732D01*
X135549745Y-82859114D01*
X135518330Y-82900055D01*
X135500055Y-82918330D01*
X135459114Y-82949745D01*
X135436732Y-82962667D01*
X135389048Y-82982418D01*
X135364085Y-82989107D01*
X135312921Y-82995843D01*
X135287077Y-82995843D01*
X135235913Y-82989107D01*
X135210950Y-82982418D01*
X135163266Y-82962667D01*
X135140884Y-82949745D01*
X135099943Y-82918330D01*
X135081671Y-82900059D01*
X135050251Y-82859112D01*
X135037329Y-82836730D01*
X135017577Y-82789041D01*
X135010891Y-82764085D01*
X135004155Y-82712919D01*
X135004155Y-82687076D01*
X135010891Y-82635911D01*
X135017580Y-82610948D01*
X135037329Y-82563269D01*
X135050251Y-82540887D01*
X135058281Y-82530421D01*
X135081671Y-82499939D01*
X135099939Y-82481671D01*
X135130421Y-82458281D01*
X135140887Y-82450251D01*
X135163260Y-82437332D01*
X135210957Y-82417576D01*
X135235911Y-82410891D01*
X135287078Y-82404155D01*
X135312920Y-82404155D01*
X135355658Y-82409781D01*
G37*
%TD.AperFunction*%
%TA.AperFunction,Conductor*%
G36*
X137855658Y-82409781D02*
G01*
X137864086Y-82410891D01*
X137889049Y-82417580D01*
X137936730Y-82437330D01*
X137959112Y-82450252D01*
X138000053Y-82481667D01*
X138018327Y-82499940D01*
X138049744Y-82540882D01*
X138062667Y-82563266D01*
X138082418Y-82610950D01*
X138089107Y-82635913D01*
X138095843Y-82687077D01*
X138095843Y-82712921D01*
X138089107Y-82764085D01*
X138082418Y-82789048D01*
X138062667Y-82836732D01*
X138049745Y-82859114D01*
X138018330Y-82900055D01*
X138000055Y-82918330D01*
X137959114Y-82949745D01*
X137936732Y-82962667D01*
X137889048Y-82982418D01*
X137864085Y-82989107D01*
X137812921Y-82995843D01*
X137787077Y-82995843D01*
X137735913Y-82989107D01*
X137710950Y-82982418D01*
X137663266Y-82962667D01*
X137640884Y-82949745D01*
X137599943Y-82918330D01*
X137581671Y-82900059D01*
X137550251Y-82859112D01*
X137537329Y-82836730D01*
X137517577Y-82789041D01*
X137510891Y-82764085D01*
X137504155Y-82712919D01*
X137504155Y-82687076D01*
X137510891Y-82635911D01*
X137517580Y-82610948D01*
X137537329Y-82563269D01*
X137550251Y-82540887D01*
X137558281Y-82530421D01*
X137581671Y-82499939D01*
X137599939Y-82481671D01*
X137630421Y-82458281D01*
X137640887Y-82450251D01*
X137663260Y-82437332D01*
X137710957Y-82417576D01*
X137735911Y-82410891D01*
X137787078Y-82404155D01*
X137812920Y-82404155D01*
X137855658Y-82409781D01*
G37*
%TD.AperFunction*%
%TA.AperFunction,Conductor*%
G36*
X140455658Y-82409781D02*
G01*
X140464086Y-82410891D01*
X140489049Y-82417580D01*
X140536730Y-82437330D01*
X140559112Y-82450252D01*
X140600053Y-82481667D01*
X140618327Y-82499940D01*
X140649744Y-82540882D01*
X140662667Y-82563266D01*
X140682418Y-82610950D01*
X140689107Y-82635913D01*
X140695843Y-82687077D01*
X140695843Y-82712921D01*
X140689107Y-82764085D01*
X140682418Y-82789048D01*
X140662667Y-82836732D01*
X140649745Y-82859114D01*
X140618330Y-82900055D01*
X140600055Y-82918330D01*
X140559114Y-82949745D01*
X140536732Y-82962667D01*
X140489048Y-82982418D01*
X140464085Y-82989107D01*
X140412921Y-82995843D01*
X140387077Y-82995843D01*
X140335913Y-82989107D01*
X140310950Y-82982418D01*
X140263266Y-82962667D01*
X140240884Y-82949745D01*
X140199943Y-82918330D01*
X140181671Y-82900059D01*
X140150251Y-82859112D01*
X140137329Y-82836730D01*
X140117577Y-82789041D01*
X140110891Y-82764085D01*
X140104155Y-82712919D01*
X140104155Y-82687076D01*
X140110891Y-82635911D01*
X140117580Y-82610948D01*
X140137329Y-82563269D01*
X140150251Y-82540887D01*
X140158281Y-82530421D01*
X140181671Y-82499939D01*
X140199939Y-82481671D01*
X140230421Y-82458281D01*
X140240887Y-82450251D01*
X140263260Y-82437332D01*
X140310957Y-82417576D01*
X140335911Y-82410891D01*
X140387078Y-82404155D01*
X140412920Y-82404155D01*
X140455658Y-82409781D01*
G37*
%TD.AperFunction*%
%TA.AperFunction,Conductor*%
G36*
X142955658Y-82409781D02*
G01*
X142964086Y-82410891D01*
X142989049Y-82417580D01*
X143036730Y-82437330D01*
X143059112Y-82450252D01*
X143100053Y-82481667D01*
X143118327Y-82499940D01*
X143149744Y-82540882D01*
X143162667Y-82563266D01*
X143182418Y-82610950D01*
X143189107Y-82635913D01*
X143195843Y-82687077D01*
X143195843Y-82712921D01*
X143189107Y-82764085D01*
X143182418Y-82789048D01*
X143162667Y-82836732D01*
X143149745Y-82859114D01*
X143118330Y-82900055D01*
X143100055Y-82918330D01*
X143059114Y-82949745D01*
X143036732Y-82962667D01*
X142989048Y-82982418D01*
X142964085Y-82989107D01*
X142912921Y-82995843D01*
X142887077Y-82995843D01*
X142835913Y-82989107D01*
X142810950Y-82982418D01*
X142763266Y-82962667D01*
X142740884Y-82949745D01*
X142699943Y-82918330D01*
X142681671Y-82900059D01*
X142650251Y-82859112D01*
X142637329Y-82836730D01*
X142617577Y-82789041D01*
X142610891Y-82764085D01*
X142604155Y-82712919D01*
X142604155Y-82687076D01*
X142610891Y-82635911D01*
X142617580Y-82610948D01*
X142637329Y-82563269D01*
X142650251Y-82540887D01*
X142658281Y-82530421D01*
X142681671Y-82499939D01*
X142699939Y-82481671D01*
X142730421Y-82458281D01*
X142740887Y-82450251D01*
X142763260Y-82437332D01*
X142810957Y-82417576D01*
X142835911Y-82410891D01*
X142887078Y-82404155D01*
X142912920Y-82404155D01*
X142955658Y-82409781D01*
G37*
%TD.AperFunction*%
%TA.AperFunction,Conductor*%
G36*
X145455658Y-82409781D02*
G01*
X145464086Y-82410891D01*
X145489049Y-82417580D01*
X145536730Y-82437330D01*
X145559112Y-82450252D01*
X145600053Y-82481667D01*
X145618327Y-82499940D01*
X145649744Y-82540882D01*
X145662667Y-82563266D01*
X145682418Y-82610950D01*
X145689107Y-82635913D01*
X145695843Y-82687077D01*
X145695843Y-82712921D01*
X145689107Y-82764085D01*
X145682418Y-82789048D01*
X145662667Y-82836732D01*
X145649745Y-82859114D01*
X145618330Y-82900055D01*
X145600055Y-82918330D01*
X145559114Y-82949745D01*
X145536732Y-82962667D01*
X145489048Y-82982418D01*
X145464085Y-82989107D01*
X145412921Y-82995843D01*
X145387077Y-82995843D01*
X145335913Y-82989107D01*
X145310950Y-82982418D01*
X145263266Y-82962667D01*
X145240884Y-82949745D01*
X145199943Y-82918330D01*
X145181671Y-82900059D01*
X145150251Y-82859112D01*
X145137329Y-82836730D01*
X145117577Y-82789041D01*
X145110891Y-82764085D01*
X145104155Y-82712919D01*
X145104155Y-82687076D01*
X145110891Y-82635911D01*
X145117580Y-82610948D01*
X145137329Y-82563269D01*
X145150251Y-82540887D01*
X145158281Y-82530421D01*
X145181671Y-82499939D01*
X145199939Y-82481671D01*
X145230421Y-82458281D01*
X145240887Y-82450251D01*
X145263260Y-82437332D01*
X145310957Y-82417576D01*
X145335911Y-82410891D01*
X145387078Y-82404155D01*
X145412920Y-82404155D01*
X145455658Y-82409781D01*
G37*
%TD.AperFunction*%
%TA.AperFunction,Conductor*%
G36*
X148055658Y-82409781D02*
G01*
X148064086Y-82410891D01*
X148089049Y-82417580D01*
X148136730Y-82437330D01*
X148159112Y-82450252D01*
X148200053Y-82481667D01*
X148218327Y-82499940D01*
X148249744Y-82540882D01*
X148262667Y-82563266D01*
X148282418Y-82610950D01*
X148289107Y-82635913D01*
X148295843Y-82687077D01*
X148295843Y-82712921D01*
X148289107Y-82764085D01*
X148282418Y-82789048D01*
X148262667Y-82836732D01*
X148249745Y-82859114D01*
X148218330Y-82900055D01*
X148200055Y-82918330D01*
X148159114Y-82949745D01*
X148136732Y-82962667D01*
X148089048Y-82982418D01*
X148064085Y-82989107D01*
X148012921Y-82995843D01*
X147987077Y-82995843D01*
X147935913Y-82989107D01*
X147910950Y-82982418D01*
X147863266Y-82962667D01*
X147840884Y-82949745D01*
X147799943Y-82918330D01*
X147781671Y-82900059D01*
X147750251Y-82859112D01*
X147737329Y-82836730D01*
X147717577Y-82789041D01*
X147710891Y-82764085D01*
X147704155Y-82712919D01*
X147704155Y-82687076D01*
X147710891Y-82635911D01*
X147717580Y-82610948D01*
X147737329Y-82563269D01*
X147750251Y-82540887D01*
X147758281Y-82530421D01*
X147781671Y-82499939D01*
X147799939Y-82481671D01*
X147830421Y-82458281D01*
X147840887Y-82450251D01*
X147863260Y-82437332D01*
X147910957Y-82417576D01*
X147935911Y-82410891D01*
X147987078Y-82404155D01*
X148012920Y-82404155D01*
X148055658Y-82409781D01*
G37*
%TD.AperFunction*%
%TA.AperFunction,Conductor*%
G36*
X122703691Y-48544407D02*
G01*
X122739655Y-48593907D01*
X122744500Y-48624500D01*
X122744500Y-50836469D01*
X122744500Y-51699999D01*
X122744500Y-54099999D01*
X122744500Y-54901000D01*
X122747645Y-54940965D01*
X122752490Y-54971558D01*
X122752492Y-54971570D01*
X122756405Y-54991240D01*
X122798138Y-55081768D01*
X122798141Y-55081773D01*
X122834101Y-55131269D01*
X122834104Y-55131272D01*
X122834105Y-55131273D01*
X122874876Y-55175378D01*
X122961857Y-55224088D01*
X123020048Y-55242995D01*
X123020049Y-55242995D01*
X123020052Y-55242996D01*
X123098997Y-55255500D01*
X135745500Y-55255500D01*
X135803691Y-55274407D01*
X135839655Y-55323907D01*
X135844500Y-55354500D01*
X135844500Y-60830948D01*
X135825593Y-60889139D01*
X135776093Y-60925103D01*
X135714908Y-60925103D01*
X135569406Y-60877828D01*
X135390549Y-60849500D01*
X135390546Y-60849500D01*
X135209454Y-60849500D01*
X135209451Y-60849500D01*
X135030593Y-60877828D01*
X134858362Y-60933788D01*
X134697008Y-61016002D01*
X134623752Y-61069225D01*
X134550499Y-61122447D01*
X134422447Y-61250499D01*
X134377220Y-61312749D01*
X134316002Y-61397008D01*
X134233788Y-61558362D01*
X134177828Y-61730593D01*
X134149500Y-61909450D01*
X134149500Y-62290549D01*
X134177828Y-62469406D01*
X134233788Y-62641637D01*
X134302628Y-62776744D01*
X134316004Y-62802994D01*
X134422447Y-62949501D01*
X134550499Y-63077553D01*
X134697006Y-63183996D01*
X134858361Y-63266211D01*
X135030591Y-63322171D01*
X135102136Y-63333502D01*
X135209451Y-63350500D01*
X135209454Y-63350500D01*
X135390549Y-63350500D01*
X135479977Y-63336335D01*
X135569409Y-63322171D01*
X135714909Y-63274896D01*
X135776093Y-63274896D01*
X135825593Y-63310860D01*
X135844500Y-63369051D01*
X135844500Y-80645500D01*
X135825593Y-80703691D01*
X135776093Y-80739655D01*
X135745500Y-80744500D01*
X103624500Y-80744500D01*
X103566309Y-80725593D01*
X103530345Y-80676093D01*
X103525500Y-80645500D01*
X103525500Y-61909450D01*
X111289500Y-61909450D01*
X111289500Y-62290549D01*
X111317828Y-62469406D01*
X111373788Y-62641637D01*
X111442628Y-62776744D01*
X111456004Y-62802994D01*
X111562447Y-62949501D01*
X111690499Y-63077553D01*
X111837006Y-63183996D01*
X111998361Y-63266211D01*
X112170591Y-63322171D01*
X112242136Y-63333502D01*
X112349451Y-63350500D01*
X112349454Y-63350500D01*
X112530549Y-63350500D01*
X112619977Y-63336335D01*
X112709409Y-63322171D01*
X112881639Y-63266211D01*
X113042994Y-63183996D01*
X113189501Y-63077553D01*
X113317553Y-62949501D01*
X113423996Y-62802994D01*
X113506211Y-62641639D01*
X113562171Y-62469409D01*
X113590500Y-62290546D01*
X113590500Y-61909454D01*
X113590500Y-61909450D01*
X113829500Y-61909450D01*
X113829500Y-62290549D01*
X113857828Y-62469406D01*
X113913788Y-62641637D01*
X113982628Y-62776744D01*
X113996004Y-62802994D01*
X114102447Y-62949501D01*
X114230499Y-63077553D01*
X114377006Y-63183996D01*
X114538361Y-63266211D01*
X114710591Y-63322171D01*
X114782136Y-63333502D01*
X114889451Y-63350500D01*
X114889454Y-63350500D01*
X115070549Y-63350500D01*
X115159977Y-63336335D01*
X115249409Y-63322171D01*
X115421639Y-63266211D01*
X115582994Y-63183996D01*
X115729501Y-63077553D01*
X115857553Y-62949501D01*
X115963996Y-62802994D01*
X116046211Y-62641639D01*
X116102171Y-62469409D01*
X116130500Y-62290546D01*
X116130500Y-61909454D01*
X116130500Y-61909450D01*
X116369500Y-61909450D01*
X116369500Y-62290549D01*
X116397828Y-62469406D01*
X116453788Y-62641637D01*
X116522628Y-62776744D01*
X116536004Y-62802994D01*
X116642447Y-62949501D01*
X116770499Y-63077553D01*
X116917006Y-63183996D01*
X117078361Y-63266211D01*
X117250591Y-63322171D01*
X117322136Y-63333502D01*
X117429451Y-63350500D01*
X117429454Y-63350500D01*
X117610549Y-63350500D01*
X117699977Y-63336335D01*
X117789409Y-63322171D01*
X117961639Y-63266211D01*
X118122994Y-63183996D01*
X118269501Y-63077553D01*
X118397553Y-62949501D01*
X118503996Y-62802994D01*
X118586211Y-62641639D01*
X118642171Y-62469409D01*
X118670500Y-62290546D01*
X118670500Y-61909454D01*
X118670500Y-61909450D01*
X118909500Y-61909450D01*
X118909500Y-62290549D01*
X118937828Y-62469406D01*
X118993788Y-62641637D01*
X119062628Y-62776744D01*
X119076004Y-62802994D01*
X119182447Y-62949501D01*
X119310499Y-63077553D01*
X119457006Y-63183996D01*
X119618361Y-63266211D01*
X119790591Y-63322171D01*
X119862136Y-63333502D01*
X119969451Y-63350500D01*
X119969454Y-63350500D01*
X120150549Y-63350500D01*
X120239977Y-63336335D01*
X120329409Y-63322171D01*
X120501639Y-63266211D01*
X120662994Y-63183996D01*
X120809501Y-63077553D01*
X120937553Y-62949501D01*
X121043996Y-62802994D01*
X121126211Y-62641639D01*
X121182171Y-62469409D01*
X121210500Y-62290546D01*
X121210500Y-61909454D01*
X121210500Y-61909450D01*
X121449500Y-61909450D01*
X121449500Y-62290549D01*
X121477828Y-62469406D01*
X121533788Y-62641637D01*
X121602628Y-62776744D01*
X121616004Y-62802994D01*
X121722447Y-62949501D01*
X121850499Y-63077553D01*
X121997006Y-63183996D01*
X122158361Y-63266211D01*
X122330591Y-63322171D01*
X122402136Y-63333502D01*
X122509451Y-63350500D01*
X122509454Y-63350500D01*
X122690549Y-63350500D01*
X122779977Y-63336335D01*
X122869409Y-63322171D01*
X123041639Y-63266211D01*
X123202994Y-63183996D01*
X123349501Y-63077553D01*
X123477553Y-62949501D01*
X123583996Y-62802994D01*
X123666211Y-62641639D01*
X123722171Y-62469409D01*
X123750500Y-62290546D01*
X123750500Y-61909454D01*
X123750500Y-61909450D01*
X123989500Y-61909450D01*
X123989500Y-62290549D01*
X124017828Y-62469406D01*
X124073788Y-62641637D01*
X124142628Y-62776744D01*
X124156004Y-62802994D01*
X124262447Y-62949501D01*
X124390499Y-63077553D01*
X124537006Y-63183996D01*
X124698361Y-63266211D01*
X124870591Y-63322171D01*
X124942136Y-63333502D01*
X125049451Y-63350500D01*
X125049454Y-63350500D01*
X125230549Y-63350500D01*
X125319977Y-63336335D01*
X125409409Y-63322171D01*
X125581639Y-63266211D01*
X125742994Y-63183996D01*
X125889501Y-63077553D01*
X126017553Y-62949501D01*
X126123996Y-62802994D01*
X126206211Y-62641639D01*
X126262171Y-62469409D01*
X126290500Y-62290546D01*
X126290500Y-61909454D01*
X126290500Y-61909450D01*
X126529500Y-61909450D01*
X126529500Y-62290549D01*
X126557828Y-62469406D01*
X126613788Y-62641637D01*
X126682628Y-62776744D01*
X126696004Y-62802994D01*
X126802447Y-62949501D01*
X126930499Y-63077553D01*
X127077006Y-63183996D01*
X127238361Y-63266211D01*
X127410591Y-63322171D01*
X127482136Y-63333502D01*
X127589451Y-63350500D01*
X127589454Y-63350500D01*
X127770549Y-63350500D01*
X127859977Y-63336335D01*
X127949409Y-63322171D01*
X128121639Y-63266211D01*
X128282994Y-63183996D01*
X128429501Y-63077553D01*
X128557553Y-62949501D01*
X128663996Y-62802994D01*
X128746211Y-62641639D01*
X128802171Y-62469409D01*
X128830500Y-62290546D01*
X128830500Y-61909454D01*
X128830500Y-61909450D01*
X129069500Y-61909450D01*
X129069500Y-62290549D01*
X129097828Y-62469406D01*
X129153788Y-62641637D01*
X129222628Y-62776744D01*
X129236004Y-62802994D01*
X129342447Y-62949501D01*
X129470499Y-63077553D01*
X129617006Y-63183996D01*
X129778361Y-63266211D01*
X129950591Y-63322171D01*
X130022136Y-63333502D01*
X130129451Y-63350500D01*
X130129454Y-63350500D01*
X130310549Y-63350500D01*
X130399977Y-63336335D01*
X130489409Y-63322171D01*
X130661639Y-63266211D01*
X130822994Y-63183996D01*
X130969501Y-63077553D01*
X131097553Y-62949501D01*
X131203996Y-62802994D01*
X131286211Y-62641639D01*
X131342171Y-62469409D01*
X131370500Y-62290546D01*
X131370500Y-61909454D01*
X131370500Y-61909450D01*
X131609500Y-61909450D01*
X131609500Y-62290549D01*
X131637828Y-62469406D01*
X131693788Y-62641637D01*
X131762628Y-62776744D01*
X131776004Y-62802994D01*
X131882447Y-62949501D01*
X132010499Y-63077553D01*
X132157006Y-63183996D01*
X132318361Y-63266211D01*
X132490591Y-63322171D01*
X132562136Y-63333502D01*
X132669451Y-63350500D01*
X132669454Y-63350500D01*
X132850549Y-63350500D01*
X132939977Y-63336335D01*
X133029409Y-63322171D01*
X133201639Y-63266211D01*
X133362994Y-63183996D01*
X133509501Y-63077553D01*
X133637553Y-62949501D01*
X133743996Y-62802994D01*
X133826211Y-62641639D01*
X133882171Y-62469409D01*
X133910500Y-62290546D01*
X133910500Y-61909454D01*
X133910500Y-61909450D01*
X133882171Y-61730593D01*
X133882171Y-61730591D01*
X133826211Y-61558361D01*
X133743996Y-61397006D01*
X133637553Y-61250499D01*
X133509501Y-61122447D01*
X133362994Y-61016004D01*
X133362993Y-61016003D01*
X133362991Y-61016002D01*
X133201637Y-60933788D01*
X133029406Y-60877828D01*
X132850549Y-60849500D01*
X132850546Y-60849500D01*
X132669454Y-60849500D01*
X132669451Y-60849500D01*
X132490593Y-60877828D01*
X132318362Y-60933788D01*
X132157008Y-61016002D01*
X132083752Y-61069225D01*
X132010499Y-61122447D01*
X131882447Y-61250499D01*
X131837220Y-61312749D01*
X131776002Y-61397008D01*
X131693788Y-61558362D01*
X131637828Y-61730593D01*
X131609500Y-61909450D01*
X131370500Y-61909450D01*
X131342171Y-61730593D01*
X131342171Y-61730591D01*
X131286211Y-61558361D01*
X131203996Y-61397006D01*
X131097553Y-61250499D01*
X130969501Y-61122447D01*
X130822994Y-61016004D01*
X130822993Y-61016003D01*
X130822991Y-61016002D01*
X130661637Y-60933788D01*
X130489406Y-60877828D01*
X130310549Y-60849500D01*
X130310546Y-60849500D01*
X130129454Y-60849500D01*
X130129451Y-60849500D01*
X129950593Y-60877828D01*
X129778362Y-60933788D01*
X129617008Y-61016002D01*
X129543752Y-61069225D01*
X129470499Y-61122447D01*
X129342447Y-61250499D01*
X129297220Y-61312749D01*
X129236002Y-61397008D01*
X129153788Y-61558362D01*
X129097828Y-61730593D01*
X129069500Y-61909450D01*
X128830500Y-61909450D01*
X128802171Y-61730593D01*
X128802171Y-61730591D01*
X128746211Y-61558361D01*
X128663996Y-61397006D01*
X128557553Y-61250499D01*
X128429501Y-61122447D01*
X128282994Y-61016004D01*
X128282993Y-61016003D01*
X128282991Y-61016002D01*
X128121637Y-60933788D01*
X127949406Y-60877828D01*
X127770549Y-60849500D01*
X127770546Y-60849500D01*
X127589454Y-60849500D01*
X127589451Y-60849500D01*
X127410593Y-60877828D01*
X127238362Y-60933788D01*
X127077008Y-61016002D01*
X127003752Y-61069225D01*
X126930499Y-61122447D01*
X126802447Y-61250499D01*
X126757220Y-61312749D01*
X126696002Y-61397008D01*
X126613788Y-61558362D01*
X126557828Y-61730593D01*
X126529500Y-61909450D01*
X126290500Y-61909450D01*
X126262171Y-61730593D01*
X126262171Y-61730591D01*
X126206211Y-61558361D01*
X126123996Y-61397006D01*
X126017553Y-61250499D01*
X125889501Y-61122447D01*
X125742994Y-61016004D01*
X125742993Y-61016003D01*
X125742991Y-61016002D01*
X125581637Y-60933788D01*
X125409406Y-60877828D01*
X125230549Y-60849500D01*
X125230546Y-60849500D01*
X125049454Y-60849500D01*
X125049451Y-60849500D01*
X124870593Y-60877828D01*
X124698362Y-60933788D01*
X124537008Y-61016002D01*
X124463752Y-61069225D01*
X124390499Y-61122447D01*
X124262447Y-61250499D01*
X124217220Y-61312749D01*
X124156002Y-61397008D01*
X124073788Y-61558362D01*
X124017828Y-61730593D01*
X123989500Y-61909450D01*
X123750500Y-61909450D01*
X123722171Y-61730593D01*
X123722171Y-61730591D01*
X123666211Y-61558361D01*
X123583996Y-61397006D01*
X123477553Y-61250499D01*
X123349501Y-61122447D01*
X123202994Y-61016004D01*
X123202993Y-61016003D01*
X123202991Y-61016002D01*
X123041637Y-60933788D01*
X122869406Y-60877828D01*
X122690549Y-60849500D01*
X122690546Y-60849500D01*
X122509454Y-60849500D01*
X122509451Y-60849500D01*
X122330593Y-60877828D01*
X122158362Y-60933788D01*
X121997008Y-61016002D01*
X121923752Y-61069225D01*
X121850499Y-61122447D01*
X121722447Y-61250499D01*
X121677220Y-61312749D01*
X121616002Y-61397008D01*
X121533788Y-61558362D01*
X121477828Y-61730593D01*
X121449500Y-61909450D01*
X121210500Y-61909450D01*
X121182171Y-61730593D01*
X121182171Y-61730591D01*
X121126211Y-61558361D01*
X121043996Y-61397006D01*
X120937553Y-61250499D01*
X120809501Y-61122447D01*
X120662994Y-61016004D01*
X120662993Y-61016003D01*
X120662991Y-61016002D01*
X120501637Y-60933788D01*
X120329406Y-60877828D01*
X120150549Y-60849500D01*
X120150546Y-60849500D01*
X119969454Y-60849500D01*
X119969451Y-60849500D01*
X119790593Y-60877828D01*
X119618362Y-60933788D01*
X119457008Y-61016002D01*
X119383752Y-61069225D01*
X119310499Y-61122447D01*
X119182447Y-61250499D01*
X119137220Y-61312749D01*
X119076002Y-61397008D01*
X118993788Y-61558362D01*
X118937828Y-61730593D01*
X118909500Y-61909450D01*
X118670500Y-61909450D01*
X118642171Y-61730593D01*
X118642171Y-61730591D01*
X118586211Y-61558361D01*
X118503996Y-61397006D01*
X118397553Y-61250499D01*
X118269501Y-61122447D01*
X118122994Y-61016004D01*
X118122993Y-61016003D01*
X118122991Y-61016002D01*
X117961637Y-60933788D01*
X117789406Y-60877828D01*
X117610549Y-60849500D01*
X117610546Y-60849500D01*
X117429454Y-60849500D01*
X117429451Y-60849500D01*
X117250593Y-60877828D01*
X117078362Y-60933788D01*
X116917008Y-61016002D01*
X116843752Y-61069225D01*
X116770499Y-61122447D01*
X116642447Y-61250499D01*
X116597220Y-61312749D01*
X116536002Y-61397008D01*
X116453788Y-61558362D01*
X116397828Y-61730593D01*
X116369500Y-61909450D01*
X116130500Y-61909450D01*
X116102171Y-61730593D01*
X116102171Y-61730591D01*
X116046211Y-61558361D01*
X115963996Y-61397006D01*
X115857553Y-61250499D01*
X115729501Y-61122447D01*
X115582994Y-61016004D01*
X115582993Y-61016003D01*
X115582991Y-61016002D01*
X115421637Y-60933788D01*
X115249406Y-60877828D01*
X115070549Y-60849500D01*
X115070546Y-60849500D01*
X114889454Y-60849500D01*
X114889451Y-60849500D01*
X114710593Y-60877828D01*
X114538362Y-60933788D01*
X114377008Y-61016002D01*
X114303752Y-61069225D01*
X114230499Y-61122447D01*
X114102447Y-61250499D01*
X114057220Y-61312749D01*
X113996002Y-61397008D01*
X113913788Y-61558362D01*
X113857828Y-61730593D01*
X113829500Y-61909450D01*
X113590500Y-61909450D01*
X113562171Y-61730593D01*
X113562171Y-61730591D01*
X113506211Y-61558361D01*
X113423996Y-61397006D01*
X113317553Y-61250499D01*
X113189501Y-61122447D01*
X113042994Y-61016004D01*
X113042993Y-61016003D01*
X113042991Y-61016002D01*
X112881637Y-60933788D01*
X112709406Y-60877828D01*
X112530549Y-60849500D01*
X112530546Y-60849500D01*
X112349454Y-60849500D01*
X112349451Y-60849500D01*
X112170593Y-60877828D01*
X111998362Y-60933788D01*
X111837008Y-61016002D01*
X111763752Y-61069225D01*
X111690499Y-61122447D01*
X111562447Y-61250499D01*
X111517220Y-61312749D01*
X111456002Y-61397008D01*
X111373788Y-61558362D01*
X111317828Y-61730593D01*
X111289500Y-61909450D01*
X103525500Y-61909450D01*
X103525500Y-54002027D01*
X103525542Y-53999992D01*
X104444639Y-53999992D01*
X104444639Y-54000007D01*
X104464069Y-54420305D01*
X104464070Y-54420310D01*
X104522203Y-54837047D01*
X104522204Y-54837052D01*
X104618535Y-55246629D01*
X104752249Y-55645579D01*
X104922207Y-56030498D01*
X105126951Y-56398085D01*
X105364736Y-56745209D01*
X105364741Y-56745215D01*
X105633540Y-57068918D01*
X105633543Y-57068921D01*
X105633548Y-57068927D01*
X105931073Y-57366452D01*
X106254782Y-57635257D01*
X106254786Y-57635260D01*
X106254790Y-57635263D01*
X106601914Y-57873048D01*
X106829735Y-57999943D01*
X106969501Y-58077792D01*
X107354414Y-58247748D01*
X107753366Y-58381463D01*
X108162955Y-58477797D01*
X108579684Y-58535929D01*
X108579690Y-58535929D01*
X108579694Y-58535930D01*
X108999992Y-58555361D01*
X109000000Y-58555361D01*
X109000008Y-58555361D01*
X109420305Y-58535930D01*
X109420308Y-58535929D01*
X109420316Y-58535929D01*
X109837045Y-58477797D01*
X110246634Y-58381463D01*
X110645586Y-58247748D01*
X111030499Y-58077792D01*
X111398089Y-57873046D01*
X111745218Y-57635257D01*
X112068927Y-57366452D01*
X112366452Y-57068927D01*
X112635257Y-56745218D01*
X112873046Y-56398089D01*
X113077792Y-56030499D01*
X113247748Y-55645586D01*
X113381463Y-55246634D01*
X113415951Y-55099999D01*
X115144750Y-55099999D01*
X115144750Y-55100000D01*
X115163669Y-55243708D01*
X115163670Y-55243709D01*
X115196888Y-55323907D01*
X115219139Y-55377625D01*
X115307379Y-55492621D01*
X115422375Y-55580861D01*
X115556291Y-55636330D01*
X115700000Y-55655250D01*
X115843709Y-55636330D01*
X115931421Y-55599999D01*
X121144750Y-55599999D01*
X121144750Y-55600000D01*
X121163669Y-55743708D01*
X121163670Y-55743709D01*
X121219139Y-55877625D01*
X121307379Y-55992621D01*
X121422375Y-56080861D01*
X121556291Y-56136330D01*
X121700000Y-56155250D01*
X121843709Y-56136330D01*
X121977625Y-56080861D01*
X122092621Y-55992621D01*
X122180861Y-55877625D01*
X122236330Y-55743709D01*
X122255250Y-55600000D01*
X122252730Y-55580862D01*
X122236330Y-55456291D01*
X122180861Y-55322375D01*
X122092621Y-55207379D01*
X121977625Y-55119139D01*
X121977621Y-55119137D01*
X121843709Y-55063670D01*
X121843708Y-55063669D01*
X121725848Y-55048153D01*
X121704900Y-55038161D01*
X121674151Y-55048153D01*
X121556291Y-55063669D01*
X121556290Y-55063670D01*
X121422378Y-55119137D01*
X121422374Y-55119139D01*
X121307381Y-55207377D01*
X121307377Y-55207381D01*
X121219139Y-55322374D01*
X121219137Y-55322378D01*
X121163670Y-55456290D01*
X121163669Y-55456291D01*
X121144750Y-55599999D01*
X115931421Y-55599999D01*
X115977625Y-55580861D01*
X116092621Y-55492621D01*
X116180861Y-55377625D01*
X116236330Y-55243709D01*
X116255250Y-55100000D01*
X116236330Y-54956291D01*
X116180861Y-54822375D01*
X116092621Y-54707379D01*
X115977625Y-54619139D01*
X115977621Y-54619137D01*
X115843709Y-54563670D01*
X115843708Y-54563669D01*
X115700000Y-54544750D01*
X115556291Y-54563669D01*
X115556290Y-54563670D01*
X115422378Y-54619137D01*
X115422374Y-54619139D01*
X115307381Y-54707377D01*
X115307377Y-54707381D01*
X115219139Y-54822374D01*
X115219137Y-54822378D01*
X115163670Y-54956290D01*
X115163669Y-54956291D01*
X115144750Y-55099999D01*
X113415951Y-55099999D01*
X113477797Y-54837045D01*
X113535929Y-54420316D01*
X113537061Y-54395843D01*
X113541492Y-54299999D01*
X121144750Y-54299999D01*
X121144750Y-54300000D01*
X121163669Y-54443708D01*
X121163670Y-54443709D01*
X121213358Y-54563670D01*
X121219139Y-54577625D01*
X121307379Y-54692621D01*
X121422375Y-54780861D01*
X121556291Y-54836330D01*
X121674151Y-54851847D01*
X121695098Y-54861838D01*
X121725848Y-54851847D01*
X121739277Y-54850078D01*
X121843709Y-54836330D01*
X121977625Y-54780861D01*
X122092621Y-54692621D01*
X122180861Y-54577625D01*
X122236330Y-54443709D01*
X122255250Y-54300000D01*
X122249358Y-54255250D01*
X122236330Y-54156291D01*
X122180861Y-54022375D01*
X122092621Y-53907379D01*
X121977625Y-53819139D01*
X121977621Y-53819137D01*
X121843709Y-53763670D01*
X121843708Y-53763669D01*
X121700000Y-53744750D01*
X121556291Y-53763669D01*
X121556290Y-53763670D01*
X121422378Y-53819137D01*
X121422374Y-53819139D01*
X121307381Y-53907377D01*
X121307377Y-53907381D01*
X121219139Y-54022374D01*
X121219137Y-54022378D01*
X121163670Y-54156290D01*
X121163669Y-54156291D01*
X121144750Y-54299999D01*
X113541492Y-54299999D01*
X113555361Y-54000007D01*
X113555361Y-53999992D01*
X113541492Y-53699999D01*
X115144750Y-53699999D01*
X115144750Y-53700000D01*
X115163669Y-53843708D01*
X115163670Y-53843709D01*
X115215826Y-53969628D01*
X115219139Y-53977625D01*
X115307379Y-54092621D01*
X115422375Y-54180861D01*
X115556291Y-54236330D01*
X115700000Y-54255250D01*
X115843709Y-54236330D01*
X115977625Y-54180861D01*
X116092621Y-54092621D01*
X116180861Y-53977625D01*
X116236330Y-53843709D01*
X116255250Y-53700000D01*
X116236330Y-53556291D01*
X116180861Y-53422375D01*
X116092621Y-53307379D01*
X115977625Y-53219139D01*
X115977621Y-53219137D01*
X115843709Y-53163670D01*
X115843708Y-53163669D01*
X115700000Y-53144750D01*
X115556291Y-53163669D01*
X115556290Y-53163670D01*
X115422378Y-53219137D01*
X115422374Y-53219139D01*
X115307381Y-53307377D01*
X115307377Y-53307381D01*
X115219139Y-53422374D01*
X115219137Y-53422378D01*
X115163670Y-53556290D01*
X115163669Y-53556291D01*
X115144750Y-53699999D01*
X113541492Y-53699999D01*
X113535930Y-53579694D01*
X113535929Y-53579689D01*
X113535929Y-53579684D01*
X113477797Y-53162955D01*
X113387930Y-52780861D01*
X113381464Y-52753370D01*
X113367551Y-52711860D01*
X113247748Y-52354414D01*
X113223721Y-52299999D01*
X115144750Y-52299999D01*
X115144750Y-52300000D01*
X115163669Y-52443708D01*
X115163670Y-52443709D01*
X115185721Y-52496947D01*
X115219139Y-52577625D01*
X115307379Y-52692621D01*
X115422375Y-52780861D01*
X115556291Y-52836330D01*
X115700000Y-52855250D01*
X115843709Y-52836330D01*
X115977625Y-52780861D01*
X116092621Y-52692621D01*
X116180861Y-52577625D01*
X116236330Y-52443709D01*
X116255250Y-52300000D01*
X116253944Y-52290083D01*
X116236330Y-52156291D01*
X116180861Y-52022375D01*
X116092621Y-51907379D01*
X115977625Y-51819139D01*
X115977621Y-51819137D01*
X115843709Y-51763670D01*
X115843708Y-51763669D01*
X115700000Y-51744750D01*
X115556291Y-51763669D01*
X115556290Y-51763670D01*
X115422378Y-51819137D01*
X115422374Y-51819139D01*
X115307381Y-51907377D01*
X115307377Y-51907381D01*
X115219139Y-52022374D01*
X115219137Y-52022378D01*
X115163670Y-52156290D01*
X115163669Y-52156291D01*
X115144750Y-52299999D01*
X113223721Y-52299999D01*
X113077792Y-51969501D01*
X113061327Y-51939941D01*
X112873048Y-51601914D01*
X112635263Y-51254790D01*
X112635258Y-51254784D01*
X112635257Y-51254782D01*
X112366452Y-50931073D01*
X112068927Y-50633548D01*
X112068921Y-50633543D01*
X112068918Y-50633540D01*
X111794762Y-50405884D01*
X111745218Y-50364743D01*
X111745214Y-50364740D01*
X111745209Y-50364736D01*
X111398085Y-50126951D01*
X111030498Y-49922207D01*
X110645579Y-49752249D01*
X110246629Y-49618535D01*
X109837052Y-49522204D01*
X109837047Y-49522203D01*
X109420310Y-49464070D01*
X109420305Y-49464069D01*
X109000008Y-49444639D01*
X108999992Y-49444639D01*
X108579694Y-49464069D01*
X108579689Y-49464070D01*
X108162952Y-49522203D01*
X108162947Y-49522204D01*
X107753370Y-49618535D01*
X107354420Y-49752249D01*
X106969501Y-49922207D01*
X106601914Y-50126951D01*
X106254790Y-50364736D01*
X106254784Y-50364741D01*
X105931081Y-50633540D01*
X105633540Y-50931081D01*
X105364741Y-51254784D01*
X105364736Y-51254790D01*
X105126951Y-51601914D01*
X104922207Y-51969501D01*
X104752249Y-52354420D01*
X104618535Y-52753370D01*
X104522204Y-53162947D01*
X104522203Y-53162952D01*
X104464070Y-53579689D01*
X104464069Y-53579694D01*
X104444639Y-53999992D01*
X103525542Y-53999992D01*
X103525585Y-53997936D01*
X103529330Y-53907381D01*
X103544028Y-53552008D01*
X103544703Y-53543864D01*
X103547921Y-53518053D01*
X103599659Y-53102981D01*
X103601006Y-53094915D01*
X103692181Y-52660077D01*
X103694181Y-52652182D01*
X103820955Y-52226356D01*
X103823609Y-52218627D01*
X103841782Y-52172053D01*
X103985119Y-51804709D01*
X103988384Y-51797265D01*
X104183532Y-51398084D01*
X104187418Y-51390906D01*
X104414840Y-51009242D01*
X104419302Y-51002411D01*
X104677477Y-50640816D01*
X104682498Y-50634367D01*
X104969628Y-50295352D01*
X104975157Y-50289343D01*
X105289343Y-49975157D01*
X105295352Y-49969628D01*
X105634367Y-49682498D01*
X105640816Y-49677477D01*
X106002411Y-49419302D01*
X106009242Y-49414840D01*
X106390914Y-49187413D01*
X106398084Y-49183532D01*
X106797265Y-48988384D01*
X106804709Y-48985119D01*
X107218629Y-48823608D01*
X107226356Y-48820955D01*
X107652182Y-48694181D01*
X107660077Y-48692181D01*
X108094920Y-48601005D01*
X108102981Y-48599659D01*
X108543874Y-48544702D01*
X108552008Y-48544028D01*
X108997945Y-48525585D01*
X109002036Y-48525500D01*
X109069183Y-48525500D01*
X122645500Y-48525500D01*
X122703691Y-48544407D01*
G37*
%TD.AperFunction*%
%TA.AperFunction,Conductor*%
G36*
X148055658Y-74709781D02*
G01*
X148064086Y-74710891D01*
X148089049Y-74717580D01*
X148136730Y-74737330D01*
X148159112Y-74750252D01*
X148200053Y-74781667D01*
X148218327Y-74799940D01*
X148249744Y-74840882D01*
X148262667Y-74863266D01*
X148282418Y-74910950D01*
X148289107Y-74935913D01*
X148295843Y-74987077D01*
X148295843Y-75012921D01*
X148289107Y-75064085D01*
X148282418Y-75089048D01*
X148262667Y-75136732D01*
X148249745Y-75159114D01*
X148218330Y-75200055D01*
X148200055Y-75218330D01*
X148159114Y-75249745D01*
X148136732Y-75262667D01*
X148089048Y-75282418D01*
X148064085Y-75289107D01*
X148012921Y-75295843D01*
X147987077Y-75295843D01*
X147935913Y-75289107D01*
X147910950Y-75282418D01*
X147863266Y-75262667D01*
X147840884Y-75249745D01*
X147799943Y-75218330D01*
X147781671Y-75200059D01*
X147750251Y-75159112D01*
X147737329Y-75136730D01*
X147717577Y-75089041D01*
X147710891Y-75064085D01*
X147704155Y-75012919D01*
X147704155Y-74987076D01*
X147710891Y-74935911D01*
X147717580Y-74910948D01*
X147737329Y-74863269D01*
X147750251Y-74840887D01*
X147758281Y-74830421D01*
X147781671Y-74799939D01*
X147799939Y-74781671D01*
X147830421Y-74758281D01*
X147840887Y-74750251D01*
X147863260Y-74737332D01*
X147910957Y-74717576D01*
X147935911Y-74710891D01*
X147987078Y-74704155D01*
X148012920Y-74704155D01*
X148055658Y-74709781D01*
G37*
%TD.AperFunction*%
%TA.AperFunction,Conductor*%
G36*
X153055658Y-74709781D02*
G01*
X153064086Y-74710891D01*
X153089049Y-74717580D01*
X153136730Y-74737330D01*
X153159112Y-74750252D01*
X153200053Y-74781667D01*
X153218327Y-74799940D01*
X153249744Y-74840882D01*
X153262667Y-74863266D01*
X153282418Y-74910950D01*
X153289107Y-74935913D01*
X153295843Y-74987077D01*
X153295843Y-75012921D01*
X153289107Y-75064085D01*
X153282418Y-75089048D01*
X153262667Y-75136732D01*
X153249745Y-75159114D01*
X153218330Y-75200055D01*
X153200055Y-75218330D01*
X153159114Y-75249745D01*
X153136732Y-75262667D01*
X153089048Y-75282418D01*
X153064085Y-75289107D01*
X153012921Y-75295843D01*
X152987077Y-75295843D01*
X152935913Y-75289107D01*
X152910950Y-75282418D01*
X152863266Y-75262667D01*
X152840884Y-75249745D01*
X152799943Y-75218330D01*
X152781671Y-75200059D01*
X152750251Y-75159112D01*
X152737329Y-75136730D01*
X152717577Y-75089041D01*
X152710891Y-75064085D01*
X152704155Y-75012919D01*
X152704155Y-74987076D01*
X152710891Y-74935911D01*
X152717580Y-74910948D01*
X152737329Y-74863269D01*
X152750251Y-74840887D01*
X152758281Y-74830421D01*
X152781671Y-74799939D01*
X152799939Y-74781671D01*
X152830421Y-74758281D01*
X152840887Y-74750251D01*
X152863260Y-74737332D01*
X152910957Y-74717576D01*
X152935911Y-74710891D01*
X152987078Y-74704155D01*
X153012920Y-74704155D01*
X153055658Y-74709781D01*
G37*
%TD.AperFunction*%
%TA.AperFunction,Conductor*%
G36*
X148055658Y-69709781D02*
G01*
X148064086Y-69710891D01*
X148089049Y-69717580D01*
X148136730Y-69737330D01*
X148159112Y-69750252D01*
X148200053Y-69781667D01*
X148218327Y-69799940D01*
X148249744Y-69840882D01*
X148262667Y-69863266D01*
X148282418Y-69910950D01*
X148289107Y-69935913D01*
X148295843Y-69987077D01*
X148295843Y-70012921D01*
X148289107Y-70064085D01*
X148282418Y-70089048D01*
X148262667Y-70136732D01*
X148249745Y-70159114D01*
X148218330Y-70200055D01*
X148200055Y-70218330D01*
X148159114Y-70249745D01*
X148136732Y-70262667D01*
X148089048Y-70282418D01*
X148064085Y-70289107D01*
X148012921Y-70295843D01*
X147987077Y-70295843D01*
X147935913Y-70289107D01*
X147910950Y-70282418D01*
X147863266Y-70262667D01*
X147840884Y-70249745D01*
X147799943Y-70218330D01*
X147781671Y-70200059D01*
X147750251Y-70159112D01*
X147737329Y-70136730D01*
X147717577Y-70089041D01*
X147710891Y-70064085D01*
X147704155Y-70012919D01*
X147704155Y-69987076D01*
X147710891Y-69935911D01*
X147717580Y-69910948D01*
X147737329Y-69863269D01*
X147750251Y-69840887D01*
X147758281Y-69830421D01*
X147781671Y-69799939D01*
X147799939Y-69781671D01*
X147830421Y-69758281D01*
X147840887Y-69750251D01*
X147863260Y-69737332D01*
X147910957Y-69717576D01*
X147935911Y-69710891D01*
X147987078Y-69704155D01*
X148012920Y-69704155D01*
X148055658Y-69709781D01*
G37*
%TD.AperFunction*%
%TA.AperFunction,Conductor*%
G36*
X153055658Y-69709781D02*
G01*
X153064086Y-69710891D01*
X153089049Y-69717580D01*
X153136730Y-69737330D01*
X153159112Y-69750252D01*
X153200053Y-69781667D01*
X153218327Y-69799940D01*
X153249744Y-69840882D01*
X153262667Y-69863266D01*
X153282418Y-69910950D01*
X153289107Y-69935913D01*
X153295843Y-69987077D01*
X153295843Y-70012921D01*
X153289107Y-70064085D01*
X153282418Y-70089048D01*
X153262667Y-70136732D01*
X153249745Y-70159114D01*
X153218330Y-70200055D01*
X153200055Y-70218330D01*
X153159114Y-70249745D01*
X153136732Y-70262667D01*
X153089048Y-70282418D01*
X153064085Y-70289107D01*
X153012921Y-70295843D01*
X152987077Y-70295843D01*
X152935913Y-70289107D01*
X152910950Y-70282418D01*
X152863266Y-70262667D01*
X152840884Y-70249745D01*
X152799943Y-70218330D01*
X152781671Y-70200059D01*
X152750251Y-70159112D01*
X152737329Y-70136730D01*
X152717577Y-70089041D01*
X152710891Y-70064085D01*
X152704155Y-70012919D01*
X152704155Y-69987076D01*
X152710891Y-69935911D01*
X152717580Y-69910948D01*
X152737329Y-69863269D01*
X152750251Y-69840887D01*
X152758281Y-69830421D01*
X152781671Y-69799939D01*
X152799939Y-69781671D01*
X152830421Y-69758281D01*
X152840887Y-69750251D01*
X152863260Y-69737332D01*
X152910957Y-69717576D01*
X152935911Y-69710891D01*
X152987078Y-69704155D01*
X153012920Y-69704155D01*
X153055658Y-69709781D01*
G37*
%TD.AperFunction*%
%TA.AperFunction,Conductor*%
G36*
X137955658Y-64109781D02*
G01*
X137964086Y-64110891D01*
X137989049Y-64117580D01*
X138036730Y-64137330D01*
X138059112Y-64150252D01*
X138100053Y-64181667D01*
X138118327Y-64199940D01*
X138149744Y-64240882D01*
X138162667Y-64263266D01*
X138182418Y-64310950D01*
X138189107Y-64335913D01*
X138195843Y-64387077D01*
X138195843Y-64412921D01*
X138189107Y-64464085D01*
X138182418Y-64489048D01*
X138162667Y-64536732D01*
X138149745Y-64559114D01*
X138118330Y-64600055D01*
X138100055Y-64618330D01*
X138059114Y-64649745D01*
X138036732Y-64662667D01*
X137989048Y-64682418D01*
X137964085Y-64689107D01*
X137912921Y-64695843D01*
X137887077Y-64695843D01*
X137835913Y-64689107D01*
X137810950Y-64682418D01*
X137763266Y-64662667D01*
X137740884Y-64649745D01*
X137699943Y-64618330D01*
X137681671Y-64600059D01*
X137650251Y-64559112D01*
X137637329Y-64536730D01*
X137617577Y-64489041D01*
X137610891Y-64464085D01*
X137604155Y-64412919D01*
X137604155Y-64387076D01*
X137610891Y-64335911D01*
X137617580Y-64310948D01*
X137637329Y-64263269D01*
X137650251Y-64240887D01*
X137658281Y-64230421D01*
X137681671Y-64199939D01*
X137699939Y-64181671D01*
X137730421Y-64158281D01*
X137740887Y-64150251D01*
X137763260Y-64137332D01*
X137810957Y-64117576D01*
X137835911Y-64110891D01*
X137887078Y-64104155D01*
X137912920Y-64104155D01*
X137955658Y-64109781D01*
G37*
%TD.AperFunction*%
%TA.AperFunction,Conductor*%
G36*
X140455658Y-64109781D02*
G01*
X140464086Y-64110891D01*
X140489049Y-64117580D01*
X140536730Y-64137330D01*
X140559112Y-64150252D01*
X140600053Y-64181667D01*
X140618327Y-64199940D01*
X140649744Y-64240882D01*
X140662667Y-64263266D01*
X140682418Y-64310950D01*
X140689107Y-64335913D01*
X140695843Y-64387077D01*
X140695843Y-64412921D01*
X140689107Y-64464085D01*
X140682418Y-64489048D01*
X140662667Y-64536732D01*
X140649745Y-64559114D01*
X140618330Y-64600055D01*
X140600055Y-64618330D01*
X140559114Y-64649745D01*
X140536732Y-64662667D01*
X140489048Y-64682418D01*
X140464085Y-64689107D01*
X140412921Y-64695843D01*
X140387077Y-64695843D01*
X140335913Y-64689107D01*
X140310950Y-64682418D01*
X140263266Y-64662667D01*
X140240884Y-64649745D01*
X140199943Y-64618330D01*
X140181671Y-64600059D01*
X140150251Y-64559112D01*
X140137329Y-64536730D01*
X140117577Y-64489041D01*
X140110891Y-64464085D01*
X140104155Y-64412919D01*
X140104155Y-64387076D01*
X140110891Y-64335911D01*
X140117580Y-64310948D01*
X140137329Y-64263269D01*
X140150251Y-64240887D01*
X140158281Y-64230421D01*
X140181671Y-64199939D01*
X140199939Y-64181671D01*
X140230421Y-64158281D01*
X140240887Y-64150251D01*
X140263260Y-64137332D01*
X140310957Y-64117576D01*
X140335911Y-64110891D01*
X140387078Y-64104155D01*
X140412920Y-64104155D01*
X140455658Y-64109781D01*
G37*
%TD.AperFunction*%
%TA.AperFunction,Conductor*%
G36*
X142955658Y-64109781D02*
G01*
X142964086Y-64110891D01*
X142989049Y-64117580D01*
X143036730Y-64137330D01*
X143059112Y-64150252D01*
X143100053Y-64181667D01*
X143118327Y-64199940D01*
X143149744Y-64240882D01*
X143162667Y-64263266D01*
X143182418Y-64310950D01*
X143189107Y-64335913D01*
X143195843Y-64387077D01*
X143195843Y-64412921D01*
X143189107Y-64464085D01*
X143182418Y-64489048D01*
X143162667Y-64536732D01*
X143149745Y-64559114D01*
X143118330Y-64600055D01*
X143100055Y-64618330D01*
X143059114Y-64649745D01*
X143036732Y-64662667D01*
X142989048Y-64682418D01*
X142964085Y-64689107D01*
X142912921Y-64695843D01*
X142887077Y-64695843D01*
X142835913Y-64689107D01*
X142810950Y-64682418D01*
X142763266Y-64662667D01*
X142740884Y-64649745D01*
X142699943Y-64618330D01*
X142681671Y-64600059D01*
X142650251Y-64559112D01*
X142637329Y-64536730D01*
X142617577Y-64489041D01*
X142610891Y-64464085D01*
X142604155Y-64412919D01*
X142604155Y-64387076D01*
X142610891Y-64335911D01*
X142617580Y-64310948D01*
X142637329Y-64263269D01*
X142650251Y-64240887D01*
X142658281Y-64230421D01*
X142681671Y-64199939D01*
X142699939Y-64181671D01*
X142730421Y-64158281D01*
X142740887Y-64150251D01*
X142763260Y-64137332D01*
X142810957Y-64117576D01*
X142835911Y-64110891D01*
X142887078Y-64104155D01*
X142912920Y-64104155D01*
X142955658Y-64109781D01*
G37*
%TD.AperFunction*%
%TA.AperFunction,Conductor*%
G36*
X148055658Y-64109781D02*
G01*
X148064086Y-64110891D01*
X148089049Y-64117580D01*
X148136730Y-64137330D01*
X148159112Y-64150252D01*
X148200053Y-64181667D01*
X148218327Y-64199940D01*
X148249744Y-64240882D01*
X148262667Y-64263266D01*
X148282418Y-64310950D01*
X148289107Y-64335913D01*
X148295843Y-64387077D01*
X148295843Y-64412921D01*
X148289107Y-64464085D01*
X148282418Y-64489048D01*
X148262667Y-64536732D01*
X148249745Y-64559114D01*
X148218330Y-64600055D01*
X148200055Y-64618330D01*
X148159114Y-64649745D01*
X148136732Y-64662667D01*
X148089048Y-64682418D01*
X148064085Y-64689107D01*
X148012921Y-64695843D01*
X147987077Y-64695843D01*
X147935913Y-64689107D01*
X147910950Y-64682418D01*
X147863266Y-64662667D01*
X147840884Y-64649745D01*
X147799943Y-64618330D01*
X147781671Y-64600059D01*
X147750251Y-64559112D01*
X147737329Y-64536730D01*
X147717577Y-64489041D01*
X147710891Y-64464085D01*
X147704155Y-64412919D01*
X147704155Y-64387076D01*
X147710891Y-64335911D01*
X147717580Y-64310948D01*
X147737329Y-64263269D01*
X147750251Y-64240887D01*
X147758281Y-64230421D01*
X147781671Y-64199939D01*
X147799939Y-64181671D01*
X147830421Y-64158281D01*
X147840887Y-64150251D01*
X147863260Y-64137332D01*
X147910957Y-64117576D01*
X147935911Y-64110891D01*
X147987078Y-64104155D01*
X148012920Y-64104155D01*
X148055658Y-64109781D01*
G37*
%TD.AperFunction*%
%TA.AperFunction,Conductor*%
G36*
X137918139Y-61106218D02*
G01*
X138041886Y-61125817D01*
X138056977Y-61129440D01*
X138176152Y-61168161D01*
X138190498Y-61174104D01*
X138302137Y-61230988D01*
X138315381Y-61239104D01*
X138416746Y-61312749D01*
X138428560Y-61322838D01*
X138517162Y-61411440D01*
X138527251Y-61423254D01*
X138600892Y-61524614D01*
X138609008Y-61537858D01*
X138665891Y-61649494D01*
X138671837Y-61663849D01*
X138710553Y-61783010D01*
X138714179Y-61798112D01*
X138733781Y-61921860D01*
X138735000Y-61937349D01*
X138735000Y-62262649D01*
X138733781Y-62278135D01*
X138731815Y-62290549D01*
X138714181Y-62401882D01*
X138710555Y-62416986D01*
X138671837Y-62536150D01*
X138665891Y-62550504D01*
X138609008Y-62662140D01*
X138600892Y-62675384D01*
X138527251Y-62776744D01*
X138517162Y-62788558D01*
X138428558Y-62877162D01*
X138416744Y-62887251D01*
X138315384Y-62960892D01*
X138302140Y-62969008D01*
X138190503Y-63025891D01*
X138176150Y-63031837D01*
X138056991Y-63070554D01*
X138041885Y-63074180D01*
X137978082Y-63084285D01*
X137978034Y-63084293D01*
X137918135Y-63093781D01*
X137902647Y-63095000D01*
X137777352Y-63095000D01*
X137761864Y-63093781D01*
X137747802Y-63091553D01*
X137684258Y-63081488D01*
X137684258Y-63081487D01*
X137684252Y-63081487D01*
X137638115Y-63074180D01*
X137623008Y-63070554D01*
X137503846Y-63031836D01*
X137489493Y-63025890D01*
X137377858Y-62969008D01*
X137364614Y-62960892D01*
X137263254Y-62887251D01*
X137251440Y-62877162D01*
X137162836Y-62788558D01*
X137152747Y-62776744D01*
X137079106Y-62675384D01*
X137070990Y-62662140D01*
X137059779Y-62640138D01*
X137014103Y-62550496D01*
X137008164Y-62536158D01*
X136969440Y-62416974D01*
X136965817Y-62401883D01*
X136951880Y-62313885D01*
X136946219Y-62278138D01*
X136945000Y-62262652D01*
X136945000Y-61937344D01*
X136946219Y-61921858D01*
X136965818Y-61798108D01*
X136969438Y-61783025D01*
X137008160Y-61663847D01*
X137014104Y-61649501D01*
X137060541Y-61558362D01*
X137070988Y-61537858D01*
X137079098Y-61524622D01*
X137115930Y-61473930D01*
X137115929Y-61473929D01*
X137152753Y-61423245D01*
X137162830Y-61411446D01*
X137251448Y-61322828D01*
X137263249Y-61312750D01*
X137327369Y-61266166D01*
X137327371Y-61266165D01*
X137364624Y-61239098D01*
X137377860Y-61230988D01*
X137489500Y-61174104D01*
X137503840Y-61168163D01*
X137623023Y-61129439D01*
X137638107Y-61125818D01*
X137761860Y-61106218D01*
X137777346Y-61105000D01*
X137902654Y-61105000D01*
X137918139Y-61106218D01*
G37*
%TD.AperFunction*%
%TA.AperFunction,Conductor*%
G36*
X145538139Y-61106218D02*
G01*
X145661886Y-61125817D01*
X145676977Y-61129440D01*
X145796152Y-61168161D01*
X145810498Y-61174104D01*
X145922137Y-61230988D01*
X145935381Y-61239104D01*
X146036746Y-61312749D01*
X146048560Y-61322838D01*
X146137162Y-61411440D01*
X146147251Y-61423254D01*
X146220892Y-61524614D01*
X146229008Y-61537858D01*
X146285891Y-61649494D01*
X146291837Y-61663848D01*
X146330554Y-61783009D01*
X146334180Y-61798113D01*
X146353781Y-61921859D01*
X146355000Y-61937347D01*
X146355000Y-62262649D01*
X146353781Y-62278135D01*
X146351815Y-62290549D01*
X146334181Y-62401882D01*
X146330555Y-62416986D01*
X146291837Y-62536150D01*
X146285891Y-62550504D01*
X146229008Y-62662140D01*
X146220892Y-62675384D01*
X146147251Y-62776744D01*
X146137162Y-62788558D01*
X146048558Y-62877162D01*
X146036744Y-62887251D01*
X145935384Y-62960892D01*
X145922140Y-62969008D01*
X145810503Y-63025891D01*
X145796150Y-63031837D01*
X145676991Y-63070554D01*
X145661885Y-63074180D01*
X145598082Y-63084285D01*
X145598034Y-63084293D01*
X145538135Y-63093781D01*
X145522647Y-63095000D01*
X145397352Y-63095000D01*
X145381864Y-63093781D01*
X145367802Y-63091553D01*
X145304258Y-63081488D01*
X145304258Y-63081487D01*
X145304252Y-63081487D01*
X145258115Y-63074180D01*
X145243008Y-63070554D01*
X145123846Y-63031836D01*
X145109493Y-63025890D01*
X144997858Y-62969008D01*
X144984614Y-62960892D01*
X144883254Y-62887251D01*
X144871440Y-62877162D01*
X144782836Y-62788558D01*
X144772747Y-62776744D01*
X144699106Y-62675384D01*
X144690990Y-62662140D01*
X144679779Y-62640138D01*
X144634103Y-62550496D01*
X144628164Y-62536158D01*
X144589440Y-62416974D01*
X144585817Y-62401883D01*
X144571880Y-62313885D01*
X144566219Y-62278138D01*
X144565000Y-62262652D01*
X144565000Y-61937344D01*
X144566219Y-61921858D01*
X144585818Y-61798108D01*
X144589439Y-61783023D01*
X144628163Y-61663840D01*
X144634104Y-61649500D01*
X144690988Y-61537860D01*
X144699099Y-61524621D01*
X144752811Y-61450696D01*
X144752813Y-61450694D01*
X144772753Y-61423247D01*
X144782833Y-61411443D01*
X144871446Y-61322830D01*
X144883252Y-61312749D01*
X144948947Y-61265020D01*
X144948948Y-61265020D01*
X144984622Y-61239099D01*
X144997864Y-61230986D01*
X145109500Y-61174104D01*
X145123840Y-61168163D01*
X145243023Y-61129439D01*
X145258107Y-61125818D01*
X145381860Y-61106218D01*
X145397346Y-61105000D01*
X145522654Y-61105000D01*
X145538139Y-61106218D01*
G37*
%TD.AperFunction*%
%TA.AperFunction,Conductor*%
G36*
X140455658Y-59809781D02*
G01*
X140464086Y-59810891D01*
X140489049Y-59817580D01*
X140536730Y-59837330D01*
X140559112Y-59850252D01*
X140600053Y-59881667D01*
X140618327Y-59899940D01*
X140649744Y-59940882D01*
X140662667Y-59963266D01*
X140682418Y-60010950D01*
X140689107Y-60035913D01*
X140695843Y-60087077D01*
X140695843Y-60112921D01*
X140689107Y-60164085D01*
X140682418Y-60189048D01*
X140662667Y-60236732D01*
X140649745Y-60259114D01*
X140618330Y-60300055D01*
X140600055Y-60318330D01*
X140559114Y-60349745D01*
X140536732Y-60362667D01*
X140489048Y-60382418D01*
X140464085Y-60389107D01*
X140412921Y-60395843D01*
X140387077Y-60395843D01*
X140335913Y-60389107D01*
X140310950Y-60382418D01*
X140263266Y-60362667D01*
X140240884Y-60349745D01*
X140199943Y-60318330D01*
X140181671Y-60300059D01*
X140150251Y-60259112D01*
X140137329Y-60236730D01*
X140117577Y-60189041D01*
X140110891Y-60164085D01*
X140104155Y-60112919D01*
X140104155Y-60087076D01*
X140110891Y-60035911D01*
X140117580Y-60010948D01*
X140137329Y-59963269D01*
X140150251Y-59940887D01*
X140158281Y-59930421D01*
X140181671Y-59899939D01*
X140199939Y-59881671D01*
X140230421Y-59858281D01*
X140240887Y-59850251D01*
X140263260Y-59837332D01*
X140310957Y-59817576D01*
X140335911Y-59810891D01*
X140387078Y-59804155D01*
X140412920Y-59804155D01*
X140455658Y-59809781D01*
G37*
%TD.AperFunction*%
%TA.AperFunction,Conductor*%
G36*
X137755658Y-57909781D02*
G01*
X137764086Y-57910891D01*
X137789049Y-57917580D01*
X137836730Y-57937330D01*
X137859112Y-57950252D01*
X137900053Y-57981667D01*
X137918327Y-57999940D01*
X137949744Y-58040882D01*
X137962667Y-58063266D01*
X137982418Y-58110950D01*
X137989107Y-58135913D01*
X137995843Y-58187077D01*
X137995843Y-58212921D01*
X137989107Y-58264085D01*
X137982418Y-58289048D01*
X137962667Y-58336732D01*
X137949745Y-58359114D01*
X137918330Y-58400055D01*
X137900055Y-58418330D01*
X137859114Y-58449745D01*
X137836732Y-58462667D01*
X137789048Y-58482418D01*
X137764085Y-58489107D01*
X137712921Y-58495843D01*
X137687077Y-58495843D01*
X137635913Y-58489107D01*
X137610950Y-58482418D01*
X137563266Y-58462667D01*
X137540884Y-58449745D01*
X137499943Y-58418330D01*
X137481671Y-58400059D01*
X137450251Y-58359112D01*
X137437329Y-58336730D01*
X137417577Y-58289041D01*
X137410891Y-58264085D01*
X137404155Y-58212919D01*
X137404155Y-58187076D01*
X137410891Y-58135911D01*
X137417580Y-58110948D01*
X137431314Y-58077792D01*
X137437331Y-58063266D01*
X137450251Y-58040887D01*
X137458281Y-58030421D01*
X137481671Y-57999939D01*
X137499939Y-57981671D01*
X137530421Y-57958281D01*
X137540887Y-57950251D01*
X137563260Y-57937332D01*
X137610957Y-57917576D01*
X137635911Y-57910891D01*
X137687078Y-57904155D01*
X137712920Y-57904155D01*
X137755658Y-57909781D01*
G37*
%TD.AperFunction*%
%TA.AperFunction,Conductor*%
G36*
X142955658Y-57909781D02*
G01*
X142964086Y-57910891D01*
X142989049Y-57917580D01*
X143036730Y-57937330D01*
X143059112Y-57950252D01*
X143100053Y-57981667D01*
X143118327Y-57999940D01*
X143149744Y-58040882D01*
X143162667Y-58063266D01*
X143182418Y-58110950D01*
X143189107Y-58135913D01*
X143195843Y-58187077D01*
X143195843Y-58212921D01*
X143189107Y-58264085D01*
X143182418Y-58289048D01*
X143162667Y-58336732D01*
X143149745Y-58359114D01*
X143118330Y-58400055D01*
X143100055Y-58418330D01*
X143059114Y-58449745D01*
X143036732Y-58462667D01*
X142989048Y-58482418D01*
X142964085Y-58489107D01*
X142912921Y-58495843D01*
X142887077Y-58495843D01*
X142835913Y-58489107D01*
X142810950Y-58482418D01*
X142763266Y-58462667D01*
X142740884Y-58449745D01*
X142699943Y-58418330D01*
X142681671Y-58400059D01*
X142650251Y-58359112D01*
X142637329Y-58336730D01*
X142617577Y-58289041D01*
X142610891Y-58264085D01*
X142604155Y-58212919D01*
X142604155Y-58187076D01*
X142610891Y-58135911D01*
X142617580Y-58110948D01*
X142631314Y-58077792D01*
X142637331Y-58063266D01*
X142650251Y-58040887D01*
X142658281Y-58030421D01*
X142681671Y-57999939D01*
X142699939Y-57981671D01*
X142730421Y-57958281D01*
X142740887Y-57950251D01*
X142763260Y-57937332D01*
X142810957Y-57917576D01*
X142835911Y-57910891D01*
X142887078Y-57904155D01*
X142912920Y-57904155D01*
X142955658Y-57909781D01*
G37*
%TD.AperFunction*%
%TA.AperFunction,Conductor*%
G36*
X148055658Y-57909781D02*
G01*
X148064086Y-57910891D01*
X148089049Y-57917580D01*
X148136730Y-57937330D01*
X148159112Y-57950252D01*
X148200053Y-57981667D01*
X148218327Y-57999940D01*
X148249744Y-58040882D01*
X148262667Y-58063266D01*
X148282418Y-58110950D01*
X148289107Y-58135913D01*
X148295843Y-58187077D01*
X148295843Y-58212921D01*
X148289107Y-58264085D01*
X148282418Y-58289048D01*
X148262667Y-58336732D01*
X148249745Y-58359114D01*
X148218330Y-58400055D01*
X148200055Y-58418330D01*
X148159114Y-58449745D01*
X148136732Y-58462667D01*
X148089048Y-58482418D01*
X148064085Y-58489107D01*
X148012921Y-58495843D01*
X147987077Y-58495843D01*
X147935913Y-58489107D01*
X147910950Y-58482418D01*
X147863266Y-58462667D01*
X147840884Y-58449745D01*
X147799943Y-58418330D01*
X147781671Y-58400059D01*
X147750251Y-58359112D01*
X147737329Y-58336730D01*
X147717577Y-58289041D01*
X147710891Y-58264085D01*
X147704155Y-58212919D01*
X147704155Y-58187076D01*
X147710891Y-58135911D01*
X147717580Y-58110948D01*
X147731314Y-58077792D01*
X147737331Y-58063266D01*
X147750251Y-58040887D01*
X147758281Y-58030421D01*
X147781671Y-57999939D01*
X147799939Y-57981671D01*
X147830421Y-57958281D01*
X147840887Y-57950251D01*
X147863260Y-57937332D01*
X147910957Y-57917576D01*
X147935911Y-57910891D01*
X147987078Y-57904155D01*
X148012920Y-57904155D01*
X148055658Y-57909781D01*
G37*
%TD.AperFunction*%
%TA.AperFunction,Conductor*%
G36*
X127864086Y-53810891D02*
G01*
X127889043Y-53817577D01*
X127955451Y-53845085D01*
X128008143Y-53859945D01*
X128059017Y-53893936D01*
X128079965Y-53947444D01*
X128080279Y-53951425D01*
X128078797Y-53957599D01*
X128083366Y-53992305D01*
X128083906Y-53997439D01*
X128084147Y-54000503D01*
X128085174Y-54006034D01*
X128095843Y-54087076D01*
X128095843Y-54112920D01*
X128089107Y-54164085D01*
X128082418Y-54189048D01*
X128062667Y-54236732D01*
X128049745Y-54259114D01*
X128018330Y-54300055D01*
X128000055Y-54318330D01*
X127959114Y-54349745D01*
X127936732Y-54362667D01*
X127889048Y-54382418D01*
X127864085Y-54389107D01*
X127812921Y-54395843D01*
X127787077Y-54395843D01*
X127735913Y-54389107D01*
X127710950Y-54382418D01*
X127663266Y-54362667D01*
X127640884Y-54349745D01*
X127599943Y-54318330D01*
X127581671Y-54300059D01*
X127550251Y-54259112D01*
X127537329Y-54236730D01*
X127517577Y-54189041D01*
X127510891Y-54164085D01*
X127504155Y-54112919D01*
X127504155Y-54087076D01*
X127504858Y-54081742D01*
X127510891Y-54035910D01*
X127517580Y-54010948D01*
X127519616Y-54006034D01*
X127537330Y-53963267D01*
X127550251Y-53940887D01*
X127558661Y-53929927D01*
X127581671Y-53899939D01*
X127599939Y-53881671D01*
X127640887Y-53850251D01*
X127663260Y-53837332D01*
X127710957Y-53817576D01*
X127735911Y-53810891D01*
X127787078Y-53804155D01*
X127812920Y-53804155D01*
X127864086Y-53810891D01*
G37*
%TD.AperFunction*%
%TA.AperFunction,Conductor*%
G36*
X129807055Y-53777806D02*
G01*
X129832194Y-53787834D01*
X129841670Y-53791615D01*
X129841671Y-53791616D01*
X129855357Y-53794152D01*
X129901833Y-53802766D01*
X129972039Y-53804603D01*
X129981737Y-53804858D01*
X129981737Y-53804857D01*
X129981742Y-53804858D01*
X129987073Y-53804156D01*
X130012925Y-53804156D01*
X130018256Y-53804858D01*
X130044915Y-53806956D01*
X130065603Y-53807498D01*
X130071362Y-53807573D01*
X130072286Y-53807586D01*
X130072286Y-53807585D01*
X130072291Y-53807586D01*
X130170067Y-53788138D01*
X130192355Y-53778905D01*
X130253352Y-53774105D01*
X130305521Y-53806074D01*
X130328936Y-53862602D01*
X130322194Y-53907053D01*
X130321957Y-53907647D01*
X130308381Y-53941676D01*
X130297234Y-54001824D01*
X130297233Y-54001834D01*
X130295140Y-54081745D01*
X130295843Y-54087078D01*
X130295843Y-54112926D01*
X130289107Y-54164086D01*
X130282418Y-54189048D01*
X130262667Y-54236732D01*
X130249745Y-54259114D01*
X130218330Y-54300055D01*
X130200055Y-54318330D01*
X130159114Y-54349745D01*
X130136732Y-54362667D01*
X130089048Y-54382418D01*
X130064085Y-54389107D01*
X130012921Y-54395843D01*
X129987077Y-54395843D01*
X129935913Y-54389107D01*
X129910950Y-54382418D01*
X129863266Y-54362667D01*
X129840884Y-54349745D01*
X129799943Y-54318330D01*
X129781671Y-54300059D01*
X129750251Y-54259112D01*
X129737329Y-54236730D01*
X129717577Y-54189041D01*
X129710891Y-54164085D01*
X129704155Y-54112919D01*
X129704155Y-54087073D01*
X129704858Y-54081742D01*
X129706956Y-54055084D01*
X129707498Y-54034395D01*
X129707586Y-54027703D01*
X129688137Y-53929927D01*
X129678906Y-53907643D01*
X129674105Y-53846650D01*
X129706072Y-53794480D01*
X129762599Y-53771063D01*
X129807055Y-53777806D01*
G37*
%TD.AperFunction*%
%TA.AperFunction,Conductor*%
G36*
X133073092Y-50256901D02*
G01*
X133178580Y-50277885D01*
X133197137Y-50283514D01*
X133296515Y-50324676D01*
X133313626Y-50333822D01*
X133403050Y-50393574D01*
X133418052Y-50405885D01*
X133494112Y-50481945D01*
X133506423Y-50496947D01*
X133566172Y-50586367D01*
X133575321Y-50603484D01*
X133616479Y-50702849D01*
X133622113Y-50721419D01*
X133643098Y-50826912D01*
X133645000Y-50846227D01*
X133645000Y-51153771D01*
X133643098Y-51173086D01*
X133622113Y-51278579D01*
X133616479Y-51297149D01*
X133575322Y-51396513D01*
X133566173Y-51413630D01*
X133506423Y-51503051D01*
X133494112Y-51518053D01*
X133418051Y-51594114D01*
X133403051Y-51606423D01*
X133378083Y-51623108D01*
X133378082Y-51623107D01*
X133378080Y-51623110D01*
X133365870Y-51631268D01*
X133344611Y-51645472D01*
X133290525Y-51681611D01*
X133285586Y-51684704D01*
X133253442Y-51703544D01*
X133253436Y-51703548D01*
X133211231Y-51736820D01*
X133175124Y-51771535D01*
X133175122Y-51771537D01*
X133175122Y-51771538D01*
X133158669Y-51800918D01*
X133126412Y-51858519D01*
X133107504Y-51916713D01*
X133097979Y-51976849D01*
X133088538Y-51995375D01*
X133097867Y-52025073D01*
X133104592Y-52073690D01*
X133119174Y-52125399D01*
X133119177Y-52125406D01*
X133119180Y-52125415D01*
X133131264Y-52156290D01*
X133137433Y-52172053D01*
X133199147Y-52250340D01*
X133199148Y-52250341D01*
X133199150Y-52250343D01*
X133245674Y-52290080D01*
X133245679Y-52290083D01*
X133274047Y-52307468D01*
X133277320Y-52309563D01*
X133284596Y-52314424D01*
X133284596Y-52314425D01*
X133403050Y-52393574D01*
X133418052Y-52405885D01*
X133494112Y-52481945D01*
X133506423Y-52496947D01*
X133566173Y-52586368D01*
X133575322Y-52603485D01*
X133616479Y-52702849D01*
X133622113Y-52721419D01*
X133643098Y-52826912D01*
X133645000Y-52846227D01*
X133645000Y-53153771D01*
X133643098Y-53173086D01*
X133622113Y-53278579D01*
X133616479Y-53297149D01*
X133575322Y-53396513D01*
X133566173Y-53413630D01*
X133506423Y-53503051D01*
X133494112Y-53518053D01*
X133418053Y-53594112D01*
X133403051Y-53606423D01*
X133313630Y-53666173D01*
X133296513Y-53675322D01*
X133197149Y-53716479D01*
X133178579Y-53722113D01*
X133111891Y-53735379D01*
X133073084Y-53743098D01*
X133053772Y-53745000D01*
X132946228Y-53745000D01*
X132926915Y-53743098D01*
X132888109Y-53735379D01*
X132821419Y-53722113D01*
X132802849Y-53716479D01*
X132703485Y-53675322D01*
X132686368Y-53666173D01*
X132596947Y-53606423D01*
X132581945Y-53594112D01*
X132505886Y-53518053D01*
X132493575Y-53503051D01*
X132473592Y-53473145D01*
X132439668Y-53422375D01*
X132433822Y-53413626D01*
X132424676Y-53396513D01*
X132383518Y-53297149D01*
X132377885Y-53278579D01*
X132356902Y-53173090D01*
X132355000Y-53153776D01*
X132355000Y-52846221D01*
X132356902Y-52826907D01*
X132366061Y-52780860D01*
X132377886Y-52721414D01*
X132383517Y-52702850D01*
X132424676Y-52603481D01*
X132433821Y-52586372D01*
X132493578Y-52496941D01*
X132505879Y-52481951D01*
X132581950Y-52405880D01*
X132596942Y-52393577D01*
X132709474Y-52318385D01*
X132714410Y-52315294D01*
X132716490Y-52314075D01*
X132746567Y-52296448D01*
X132788772Y-52263176D01*
X132824878Y-52228461D01*
X132873588Y-52141480D01*
X132892495Y-52083289D01*
X132902020Y-52023152D01*
X132911460Y-52004624D01*
X132902132Y-51974926D01*
X132895407Y-51926311D01*
X132895406Y-51926309D01*
X132895406Y-51926305D01*
X132880816Y-51874576D01*
X132874761Y-51859107D01*
X132862563Y-51827941D01*
X132862562Y-51827938D01*
X132800844Y-51749649D01*
X132800842Y-51749647D01*
X132800841Y-51749646D01*
X132777447Y-51729666D01*
X132754319Y-51709913D01*
X132725909Y-51692505D01*
X132722659Y-51690424D01*
X132596949Y-51606425D01*
X132581947Y-51594114D01*
X132505884Y-51518051D01*
X132493573Y-51503049D01*
X132433824Y-51413629D01*
X132424675Y-51396512D01*
X132383519Y-51297150D01*
X132377885Y-51278579D01*
X132373151Y-51254782D01*
X132356902Y-51173090D01*
X132355000Y-51153776D01*
X132355000Y-50846221D01*
X132356902Y-50826907D01*
X132377885Y-50721418D01*
X132383517Y-50702850D01*
X132424676Y-50603481D01*
X132433821Y-50586372D01*
X132493578Y-50496941D01*
X132505879Y-50481951D01*
X132581951Y-50405879D01*
X132596941Y-50393578D01*
X132686372Y-50333821D01*
X132703481Y-50324676D01*
X132802850Y-50283517D01*
X132821414Y-50277886D01*
X132926907Y-50256901D01*
X132946221Y-50255000D01*
X133053779Y-50255000D01*
X133073092Y-50256901D01*
G37*
%TD.AperFunction*%
%TA.AperFunction,Conductor*%
G36*
X127255658Y-51409781D02*
G01*
X127264086Y-51410891D01*
X127289049Y-51417580D01*
X127336730Y-51437330D01*
X127359112Y-51450252D01*
X127400053Y-51481667D01*
X127418327Y-51499940D01*
X127449744Y-51540882D01*
X127462667Y-51563266D01*
X127482418Y-51610950D01*
X127489107Y-51635913D01*
X127495843Y-51687077D01*
X127495843Y-51712921D01*
X127489107Y-51764085D01*
X127482418Y-51789048D01*
X127462667Y-51836732D01*
X127449745Y-51859114D01*
X127418330Y-51900055D01*
X127400055Y-51918330D01*
X127359114Y-51949745D01*
X127336732Y-51962667D01*
X127289048Y-51982418D01*
X127264085Y-51989107D01*
X127212921Y-51995843D01*
X127187077Y-51995843D01*
X127135913Y-51989107D01*
X127110950Y-51982418D01*
X127063266Y-51962667D01*
X127040884Y-51949745D01*
X126999943Y-51918330D01*
X126981667Y-51900054D01*
X126950248Y-51859107D01*
X126937327Y-51836727D01*
X126933688Y-51827941D01*
X126917576Y-51789043D01*
X126910891Y-51764091D01*
X126904155Y-51712919D01*
X126904155Y-51687077D01*
X126904308Y-51685919D01*
X126910891Y-51635910D01*
X126917580Y-51610948D01*
X126919454Y-51606425D01*
X126937331Y-51563266D01*
X126950251Y-51540887D01*
X126967772Y-51518053D01*
X126981671Y-51499939D01*
X126999939Y-51481671D01*
X127030421Y-51458281D01*
X127040887Y-51450251D01*
X127063260Y-51437332D01*
X127110957Y-51417576D01*
X127135911Y-51410891D01*
X127187078Y-51404155D01*
X127212920Y-51404155D01*
X127255658Y-51409781D01*
G37*
%TD.AperFunction*%
%TD*%
%TA.AperFunction,Conductor*%
%TO.N,+3V3*%
G36*
X138345684Y-52118907D02*
G01*
X138381648Y-52168407D01*
X138381648Y-52229593D01*
X138357497Y-52269004D01*
X138300535Y-52325965D01*
X138201985Y-52473454D01*
X138201985Y-52473455D01*
X138134106Y-52637332D01*
X138134106Y-52637334D01*
X138099500Y-52811306D01*
X138099500Y-53188693D01*
X138134106Y-53362665D01*
X138134106Y-53362667D01*
X138201985Y-53526544D01*
X138201985Y-53526545D01*
X138237492Y-53579684D01*
X138300536Y-53674035D01*
X138425965Y-53799464D01*
X138573453Y-53898013D01*
X138737334Y-53965894D01*
X138911309Y-54000500D01*
X138911310Y-54000500D01*
X139088690Y-54000500D01*
X139088691Y-54000500D01*
X139262666Y-53965894D01*
X139426547Y-53898013D01*
X139574035Y-53799464D01*
X139699464Y-53674035D01*
X139798013Y-53526547D01*
X139865894Y-53362666D01*
X139900500Y-53188691D01*
X139900500Y-52811309D01*
X139865894Y-52637334D01*
X139798014Y-52473455D01*
X139798014Y-52473454D01*
X139699464Y-52325965D01*
X139642503Y-52269004D01*
X139614726Y-52214487D01*
X139624297Y-52154055D01*
X139667562Y-52110790D01*
X139712507Y-52100000D01*
X140287493Y-52100000D01*
X140345684Y-52118907D01*
X140381648Y-52168407D01*
X140381648Y-52229593D01*
X140357497Y-52269004D01*
X140300535Y-52325965D01*
X140201985Y-52473454D01*
X140201985Y-52473455D01*
X140134106Y-52637332D01*
X140134106Y-52637334D01*
X140099500Y-52811306D01*
X140099500Y-53188693D01*
X140134106Y-53362665D01*
X140134106Y-53362667D01*
X140201985Y-53526544D01*
X140201985Y-53526545D01*
X140237492Y-53579684D01*
X140300536Y-53674035D01*
X140425965Y-53799464D01*
X140573453Y-53898013D01*
X140737334Y-53965894D01*
X140911309Y-54000500D01*
X140911310Y-54000500D01*
X141088690Y-54000500D01*
X141088691Y-54000500D01*
X141088691Y-54000499D01*
X141091300Y-54000243D01*
X141092471Y-54000500D01*
X141093555Y-54000500D01*
X141093555Y-54000737D01*
X141151063Y-54013358D01*
X141191704Y-54059096D01*
X141200000Y-54098767D01*
X141200000Y-60979369D01*
X141181093Y-61037560D01*
X141131593Y-61073524D01*
X141070407Y-61073524D01*
X141042810Y-61059462D01*
X140982997Y-61016005D01*
X140982993Y-61016003D01*
X140821637Y-60933788D01*
X140649406Y-60877828D01*
X140470549Y-60849500D01*
X140470546Y-60849500D01*
X140434972Y-60849500D01*
X140404285Y-60839529D01*
X140365028Y-60849500D01*
X140289451Y-60849500D01*
X140110593Y-60877828D01*
X139938362Y-60933788D01*
X139777008Y-61016002D01*
X139717191Y-61059462D01*
X139630499Y-61122447D01*
X139502447Y-61250499D01*
X139449225Y-61323752D01*
X139396002Y-61397008D01*
X139313788Y-61558362D01*
X139257828Y-61730593D01*
X139229500Y-61909450D01*
X139229500Y-62290549D01*
X139257828Y-62469406D01*
X139257829Y-62469409D01*
X139313789Y-62641639D01*
X139396004Y-62802994D01*
X139502447Y-62949501D01*
X139630499Y-63077553D01*
X139777006Y-63183996D01*
X139938361Y-63266211D01*
X140110591Y-63322171D01*
X140182136Y-63333502D01*
X140289451Y-63350500D01*
X140289454Y-63350500D01*
X140470549Y-63350500D01*
X140559977Y-63336335D01*
X140649409Y-63322171D01*
X140821639Y-63266211D01*
X140982994Y-63183996D01*
X141042809Y-63140537D01*
X141101000Y-63121630D01*
X141159190Y-63140537D01*
X141195154Y-63190037D01*
X141200000Y-63220630D01*
X141200000Y-83979369D01*
X141181093Y-84037560D01*
X141131593Y-84073524D01*
X141070407Y-84073524D01*
X141042810Y-84059462D01*
X140982997Y-84016005D01*
X140982993Y-84016003D01*
X140821637Y-83933788D01*
X140649406Y-83877828D01*
X140470549Y-83849500D01*
X140470546Y-83849500D01*
X140289454Y-83849500D01*
X140289451Y-83849500D01*
X140110593Y-83877828D01*
X139938362Y-83933788D01*
X139777008Y-84016002D01*
X139717191Y-84059462D01*
X139630499Y-84122447D01*
X139502447Y-84250499D01*
X139449225Y-84323752D01*
X139396002Y-84397008D01*
X139313788Y-84558362D01*
X139257828Y-84730593D01*
X139229500Y-84909450D01*
X139229500Y-85290549D01*
X139257828Y-85469406D01*
X139257829Y-85469409D01*
X139313789Y-85641639D01*
X139396004Y-85802994D01*
X139502447Y-85949501D01*
X139630499Y-86077553D01*
X139777006Y-86183996D01*
X139938361Y-86266211D01*
X140110591Y-86322171D01*
X140182136Y-86333502D01*
X140289451Y-86350500D01*
X140289454Y-86350500D01*
X140470549Y-86350500D01*
X140559977Y-86336335D01*
X140649409Y-86322171D01*
X140821639Y-86266211D01*
X140982994Y-86183996D01*
X141042809Y-86140537D01*
X141101000Y-86121630D01*
X141159190Y-86140537D01*
X141195154Y-86190037D01*
X141200000Y-86220630D01*
X141200000Y-98375500D01*
X141181093Y-98433691D01*
X141131593Y-98469655D01*
X141101000Y-98474500D01*
X109002036Y-98474500D01*
X108997945Y-98474415D01*
X108552019Y-98455971D01*
X108543864Y-98455296D01*
X108102985Y-98400340D01*
X108094915Y-98398993D01*
X107660093Y-98307821D01*
X107652160Y-98305812D01*
X107226365Y-98179046D01*
X107218627Y-98176390D01*
X106804729Y-98014888D01*
X106797245Y-98011605D01*
X106398102Y-97816476D01*
X106390906Y-97812581D01*
X106009252Y-97585165D01*
X106002402Y-97580690D01*
X105640823Y-97322527D01*
X105634367Y-97317501D01*
X105295352Y-97030371D01*
X105289331Y-97024830D01*
X104975169Y-96710668D01*
X104969628Y-96704647D01*
X104682498Y-96365632D01*
X104677472Y-96359176D01*
X104419309Y-95997597D01*
X104414834Y-95990747D01*
X104187418Y-95609093D01*
X104183523Y-95601897D01*
X103988389Y-95202743D01*
X103985116Y-95195281D01*
X103823609Y-94781372D01*
X103820953Y-94773634D01*
X103782829Y-94645579D01*
X103694182Y-94347822D01*
X103692178Y-94339906D01*
X103678601Y-94275156D01*
X103601005Y-93905083D01*
X103599659Y-93897014D01*
X103592184Y-93837045D01*
X103544702Y-93456127D01*
X103544028Y-93447980D01*
X103542883Y-93420305D01*
X103525585Y-93002055D01*
X103525542Y-92999992D01*
X104444639Y-92999992D01*
X104444639Y-93000007D01*
X104464069Y-93420305D01*
X104464070Y-93420310D01*
X104522203Y-93837047D01*
X104522204Y-93837052D01*
X104618535Y-94246629D01*
X104752249Y-94645579D01*
X104922207Y-95030498D01*
X105126951Y-95398085D01*
X105364736Y-95745209D01*
X105364741Y-95745215D01*
X105633540Y-96068918D01*
X105633543Y-96068921D01*
X105633548Y-96068927D01*
X105931073Y-96366452D01*
X106254782Y-96635257D01*
X106254786Y-96635260D01*
X106254790Y-96635263D01*
X106601914Y-96873048D01*
X106874416Y-97024830D01*
X106969501Y-97077792D01*
X107354414Y-97247748D01*
X107753366Y-97381463D01*
X108162955Y-97477797D01*
X108579684Y-97535929D01*
X108579690Y-97535929D01*
X108579694Y-97535930D01*
X108999992Y-97555361D01*
X109000000Y-97555361D01*
X109000008Y-97555361D01*
X109420305Y-97535930D01*
X109420308Y-97535929D01*
X109420316Y-97535929D01*
X109837045Y-97477797D01*
X110246634Y-97381463D01*
X110645586Y-97247748D01*
X111030499Y-97077792D01*
X111398089Y-96873046D01*
X111745218Y-96635257D01*
X112068927Y-96366452D01*
X112366452Y-96068927D01*
X112635257Y-95745218D01*
X112873046Y-95398089D01*
X113077792Y-95030499D01*
X113247748Y-94645586D01*
X113381463Y-94246634D01*
X113477797Y-93837045D01*
X113535929Y-93420316D01*
X113543516Y-93256225D01*
X113555361Y-93000007D01*
X113555361Y-92999992D01*
X113535930Y-92579694D01*
X113535929Y-92579689D01*
X113535929Y-92579684D01*
X113524813Y-92499999D01*
X118444750Y-92499999D01*
X118444750Y-92500000D01*
X118463669Y-92643708D01*
X118463670Y-92643709D01*
X118519139Y-92777625D01*
X118607379Y-92892621D01*
X118722375Y-92980861D01*
X118856291Y-93036330D01*
X119000000Y-93055250D01*
X119143709Y-93036330D01*
X119277625Y-92980861D01*
X119392621Y-92892621D01*
X119480861Y-92777625D01*
X119536330Y-92643709D01*
X119555250Y-92500000D01*
X119555250Y-92499999D01*
X122444750Y-92499999D01*
X122444750Y-92500000D01*
X122463669Y-92643708D01*
X122463670Y-92643709D01*
X122519139Y-92777625D01*
X122607379Y-92892621D01*
X122722375Y-92980861D01*
X122856291Y-93036330D01*
X123000000Y-93055250D01*
X123143709Y-93036330D01*
X123277625Y-92980861D01*
X123392621Y-92892621D01*
X123480861Y-92777625D01*
X123536330Y-92643709D01*
X123555250Y-92500000D01*
X123555250Y-92499999D01*
X126444750Y-92499999D01*
X126444750Y-92500000D01*
X126463669Y-92643708D01*
X126463670Y-92643709D01*
X126519139Y-92777625D01*
X126607379Y-92892621D01*
X126722375Y-92980861D01*
X126856291Y-93036330D01*
X127000000Y-93055250D01*
X127143709Y-93036330D01*
X127277625Y-92980861D01*
X127392621Y-92892621D01*
X127480861Y-92777625D01*
X127536330Y-92643709D01*
X127555250Y-92500000D01*
X127555250Y-92499999D01*
X130444750Y-92499999D01*
X130444750Y-92500000D01*
X130463669Y-92643708D01*
X130463670Y-92643709D01*
X130519139Y-92777625D01*
X130607379Y-92892621D01*
X130722375Y-92980861D01*
X130856291Y-93036330D01*
X131000000Y-93055250D01*
X131143709Y-93036330D01*
X131277625Y-92980861D01*
X131392621Y-92892621D01*
X131480861Y-92777625D01*
X131536330Y-92643709D01*
X131555250Y-92500000D01*
X131555250Y-92499999D01*
X134444750Y-92499999D01*
X134444750Y-92500000D01*
X134463669Y-92643708D01*
X134463670Y-92643709D01*
X134519139Y-92777625D01*
X134607379Y-92892621D01*
X134722375Y-92980861D01*
X134856291Y-93036330D01*
X135000000Y-93055250D01*
X135143709Y-93036330D01*
X135277625Y-92980861D01*
X135392621Y-92892621D01*
X135480861Y-92777625D01*
X135536330Y-92643709D01*
X135555250Y-92500000D01*
X135555250Y-92499999D01*
X138444750Y-92499999D01*
X138444750Y-92500000D01*
X138463669Y-92643708D01*
X138463670Y-92643709D01*
X138519139Y-92777625D01*
X138607379Y-92892621D01*
X138722375Y-92980861D01*
X138856291Y-93036330D01*
X139000000Y-93055250D01*
X139143709Y-93036330D01*
X139277625Y-92980861D01*
X139392621Y-92892621D01*
X139480861Y-92777625D01*
X139536330Y-92643709D01*
X139555250Y-92500000D01*
X139536330Y-92356291D01*
X139480861Y-92222375D01*
X139392621Y-92107379D01*
X139277625Y-92019139D01*
X139277621Y-92019137D01*
X139143709Y-91963670D01*
X139143708Y-91963669D01*
X139000000Y-91944750D01*
X138856291Y-91963669D01*
X138856290Y-91963670D01*
X138722378Y-92019137D01*
X138722374Y-92019139D01*
X138607381Y-92107377D01*
X138607377Y-92107381D01*
X138519139Y-92222374D01*
X138519137Y-92222378D01*
X138463670Y-92356290D01*
X138463669Y-92356291D01*
X138444750Y-92499999D01*
X135555250Y-92499999D01*
X135536330Y-92356291D01*
X135480861Y-92222375D01*
X135392621Y-92107379D01*
X135277625Y-92019139D01*
X135277621Y-92019137D01*
X135143709Y-91963670D01*
X135143708Y-91963669D01*
X135000000Y-91944750D01*
X134856291Y-91963669D01*
X134856290Y-91963670D01*
X134722378Y-92019137D01*
X134722374Y-92019139D01*
X134607381Y-92107377D01*
X134607377Y-92107381D01*
X134519139Y-92222374D01*
X134519137Y-92222378D01*
X134463670Y-92356290D01*
X134463669Y-92356291D01*
X134444750Y-92499999D01*
X131555250Y-92499999D01*
X131536330Y-92356291D01*
X131480861Y-92222375D01*
X131392621Y-92107379D01*
X131277625Y-92019139D01*
X131277621Y-92019137D01*
X131143709Y-91963670D01*
X131143708Y-91963669D01*
X131000000Y-91944750D01*
X130856291Y-91963669D01*
X130856290Y-91963670D01*
X130722378Y-92019137D01*
X130722374Y-92019139D01*
X130607381Y-92107377D01*
X130607377Y-92107381D01*
X130519139Y-92222374D01*
X130519137Y-92222378D01*
X130463670Y-92356290D01*
X130463669Y-92356291D01*
X130444750Y-92499999D01*
X127555250Y-92499999D01*
X127536330Y-92356291D01*
X127480861Y-92222375D01*
X127392621Y-92107379D01*
X127277625Y-92019139D01*
X127277621Y-92019137D01*
X127143709Y-91963670D01*
X127143708Y-91963669D01*
X127000000Y-91944750D01*
X126856291Y-91963669D01*
X126856290Y-91963670D01*
X126722378Y-92019137D01*
X126722374Y-92019139D01*
X126607381Y-92107377D01*
X126607377Y-92107381D01*
X126519139Y-92222374D01*
X126519137Y-92222378D01*
X126463670Y-92356290D01*
X126463669Y-92356291D01*
X126444750Y-92499999D01*
X123555250Y-92499999D01*
X123536330Y-92356291D01*
X123480861Y-92222375D01*
X123392621Y-92107379D01*
X123277625Y-92019139D01*
X123277621Y-92019137D01*
X123143709Y-91963670D01*
X123143708Y-91963669D01*
X123000000Y-91944750D01*
X122856291Y-91963669D01*
X122856290Y-91963670D01*
X122722378Y-92019137D01*
X122722374Y-92019139D01*
X122607381Y-92107377D01*
X122607377Y-92107381D01*
X122519139Y-92222374D01*
X122519137Y-92222378D01*
X122463670Y-92356290D01*
X122463669Y-92356291D01*
X122444750Y-92499999D01*
X119555250Y-92499999D01*
X119536330Y-92356291D01*
X119480861Y-92222375D01*
X119392621Y-92107379D01*
X119277625Y-92019139D01*
X119277621Y-92019137D01*
X119143709Y-91963670D01*
X119143708Y-91963669D01*
X119000000Y-91944750D01*
X118856291Y-91963669D01*
X118856290Y-91963670D01*
X118722378Y-92019137D01*
X118722374Y-92019139D01*
X118607381Y-92107377D01*
X118607377Y-92107381D01*
X118519139Y-92222374D01*
X118519137Y-92222378D01*
X118463670Y-92356290D01*
X118463669Y-92356291D01*
X118444750Y-92499999D01*
X113524813Y-92499999D01*
X113477797Y-92162955D01*
X113381463Y-91753366D01*
X113247748Y-91354414D01*
X113077792Y-90969501D01*
X112873046Y-90601911D01*
X112850279Y-90568676D01*
X112635263Y-90254790D01*
X112635258Y-90254784D01*
X112635257Y-90254782D01*
X112366452Y-89931073D01*
X112068927Y-89633548D01*
X112068921Y-89633543D01*
X112068918Y-89633540D01*
X111901450Y-89494477D01*
X111745218Y-89364743D01*
X111745214Y-89364740D01*
X111745209Y-89364736D01*
X111398085Y-89126951D01*
X111170162Y-88999999D01*
X115444750Y-88999999D01*
X115444750Y-89000000D01*
X115463669Y-89143708D01*
X115463670Y-89143709D01*
X115519139Y-89277625D01*
X115607379Y-89392621D01*
X115722375Y-89480861D01*
X115856291Y-89536330D01*
X116000000Y-89555250D01*
X116143709Y-89536330D01*
X116277625Y-89480861D01*
X116392621Y-89392621D01*
X116480861Y-89277625D01*
X116536330Y-89143709D01*
X116555250Y-89000000D01*
X116555250Y-88999999D01*
X122444750Y-88999999D01*
X122444750Y-89000000D01*
X122463669Y-89143708D01*
X122463670Y-89143709D01*
X122519139Y-89277625D01*
X122607379Y-89392621D01*
X122722375Y-89480861D01*
X122856291Y-89536330D01*
X123000000Y-89555250D01*
X123143709Y-89536330D01*
X123277625Y-89480861D01*
X123392621Y-89392621D01*
X123480861Y-89277625D01*
X123536330Y-89143709D01*
X123555250Y-89000000D01*
X123555250Y-88999999D01*
X130444750Y-88999999D01*
X130444750Y-89000000D01*
X130463669Y-89143708D01*
X130463670Y-89143709D01*
X130519139Y-89277625D01*
X130607379Y-89392621D01*
X130722375Y-89480861D01*
X130856291Y-89536330D01*
X131000000Y-89555250D01*
X131143709Y-89536330D01*
X131277625Y-89480861D01*
X131392621Y-89392621D01*
X131480861Y-89277625D01*
X131536330Y-89143709D01*
X131555250Y-89000000D01*
X131555250Y-88999999D01*
X138444750Y-88999999D01*
X138444750Y-89000000D01*
X138463669Y-89143708D01*
X138463670Y-89143709D01*
X138519139Y-89277625D01*
X138607379Y-89392621D01*
X138722375Y-89480861D01*
X138856291Y-89536330D01*
X139000000Y-89555250D01*
X139143709Y-89536330D01*
X139277625Y-89480861D01*
X139392621Y-89392621D01*
X139480861Y-89277625D01*
X139536330Y-89143709D01*
X139555250Y-89000000D01*
X139536330Y-88856291D01*
X139480861Y-88722375D01*
X139392621Y-88607379D01*
X139277625Y-88519139D01*
X139277621Y-88519137D01*
X139143709Y-88463670D01*
X139143708Y-88463669D01*
X139000000Y-88444750D01*
X138856291Y-88463669D01*
X138856290Y-88463670D01*
X138722378Y-88519137D01*
X138722374Y-88519139D01*
X138607381Y-88607377D01*
X138607377Y-88607381D01*
X138519139Y-88722374D01*
X138519137Y-88722378D01*
X138463670Y-88856290D01*
X138463669Y-88856291D01*
X138444750Y-88999999D01*
X131555250Y-88999999D01*
X131536330Y-88856291D01*
X131480861Y-88722375D01*
X131392621Y-88607379D01*
X131277625Y-88519139D01*
X131277621Y-88519137D01*
X131143709Y-88463670D01*
X131143708Y-88463669D01*
X131000000Y-88444750D01*
X130856291Y-88463669D01*
X130856290Y-88463670D01*
X130722378Y-88519137D01*
X130722374Y-88519139D01*
X130607381Y-88607377D01*
X130607377Y-88607381D01*
X130519139Y-88722374D01*
X130519137Y-88722378D01*
X130463670Y-88856290D01*
X130463669Y-88856291D01*
X130444750Y-88999999D01*
X123555250Y-88999999D01*
X123536330Y-88856291D01*
X123480861Y-88722375D01*
X123392621Y-88607379D01*
X123277625Y-88519139D01*
X123277621Y-88519137D01*
X123143709Y-88463670D01*
X123143708Y-88463669D01*
X123000000Y-88444750D01*
X122856291Y-88463669D01*
X122856290Y-88463670D01*
X122722378Y-88519137D01*
X122722374Y-88519139D01*
X122607381Y-88607377D01*
X122607377Y-88607381D01*
X122519139Y-88722374D01*
X122519137Y-88722378D01*
X122463670Y-88856290D01*
X122463669Y-88856291D01*
X122444750Y-88999999D01*
X116555250Y-88999999D01*
X116536330Y-88856291D01*
X116480861Y-88722375D01*
X116392621Y-88607379D01*
X116277625Y-88519139D01*
X116277621Y-88519137D01*
X116143709Y-88463670D01*
X116143708Y-88463669D01*
X116000000Y-88444750D01*
X115856291Y-88463669D01*
X115856290Y-88463670D01*
X115722378Y-88519137D01*
X115722374Y-88519139D01*
X115607381Y-88607377D01*
X115607377Y-88607381D01*
X115519139Y-88722374D01*
X115519137Y-88722378D01*
X115463670Y-88856290D01*
X115463669Y-88856291D01*
X115444750Y-88999999D01*
X111170162Y-88999999D01*
X111030498Y-88922207D01*
X110645579Y-88752249D01*
X110246629Y-88618535D01*
X109837052Y-88522204D01*
X109837047Y-88522203D01*
X109420310Y-88464070D01*
X109420305Y-88464069D01*
X109000008Y-88444639D01*
X108999992Y-88444639D01*
X108579694Y-88464069D01*
X108579689Y-88464070D01*
X108162952Y-88522203D01*
X108162947Y-88522204D01*
X107753370Y-88618535D01*
X107354420Y-88752249D01*
X106969501Y-88922207D01*
X106601914Y-89126951D01*
X106254790Y-89364736D01*
X106254784Y-89364741D01*
X105931081Y-89633540D01*
X105633540Y-89931081D01*
X105364741Y-90254784D01*
X105364736Y-90254790D01*
X105126951Y-90601914D01*
X104922207Y-90969501D01*
X104752249Y-91354420D01*
X104618535Y-91753370D01*
X104522204Y-92162947D01*
X104522203Y-92162952D01*
X104464070Y-92579689D01*
X104464069Y-92579694D01*
X104444639Y-92999992D01*
X103525542Y-92999992D01*
X103525500Y-92997964D01*
X103525500Y-87599999D01*
X116844750Y-87599999D01*
X116844750Y-87600000D01*
X116863669Y-87743708D01*
X116863670Y-87743709D01*
X116919139Y-87877625D01*
X117007379Y-87992621D01*
X117122375Y-88080861D01*
X117256291Y-88136330D01*
X117400000Y-88155250D01*
X117543709Y-88136330D01*
X117677625Y-88080861D01*
X117792621Y-87992621D01*
X117880861Y-87877625D01*
X117936330Y-87743709D01*
X117955250Y-87600000D01*
X117936330Y-87456291D01*
X117880861Y-87322375D01*
X117792621Y-87207379D01*
X117677625Y-87119139D01*
X117677621Y-87119137D01*
X117543709Y-87063670D01*
X117543708Y-87063669D01*
X117400000Y-87044750D01*
X117256291Y-87063669D01*
X117256290Y-87063670D01*
X117122378Y-87119137D01*
X117122374Y-87119139D01*
X117007381Y-87207377D01*
X117007377Y-87207381D01*
X116919139Y-87322374D01*
X116919137Y-87322378D01*
X116863670Y-87456290D01*
X116863669Y-87456291D01*
X116844750Y-87599999D01*
X103525500Y-87599999D01*
X103525500Y-84909450D01*
X111289500Y-84909450D01*
X111289500Y-85290549D01*
X111317828Y-85469406D01*
X111317829Y-85469409D01*
X111373789Y-85641639D01*
X111456004Y-85802994D01*
X111562447Y-85949501D01*
X111690499Y-86077553D01*
X111837006Y-86183996D01*
X111998361Y-86266211D01*
X112170591Y-86322171D01*
X112242136Y-86333502D01*
X112349451Y-86350500D01*
X112349454Y-86350500D01*
X112530549Y-86350500D01*
X112619977Y-86336335D01*
X112709409Y-86322171D01*
X112881639Y-86266211D01*
X113042994Y-86183996D01*
X113189501Y-86077553D01*
X113317553Y-85949501D01*
X113423996Y-85802994D01*
X113506211Y-85641639D01*
X113562171Y-85469409D01*
X113590500Y-85290546D01*
X113590500Y-84909454D01*
X113590500Y-84909450D01*
X113829500Y-84909450D01*
X113829500Y-85290549D01*
X113857828Y-85469406D01*
X113857829Y-85469409D01*
X113913789Y-85641639D01*
X113996004Y-85802994D01*
X114102447Y-85949501D01*
X114230499Y-86077553D01*
X114377006Y-86183996D01*
X114538361Y-86266211D01*
X114710591Y-86322171D01*
X114782136Y-86333502D01*
X114889451Y-86350500D01*
X114889454Y-86350500D01*
X115070549Y-86350500D01*
X115159977Y-86336335D01*
X115249409Y-86322171D01*
X115421639Y-86266211D01*
X115582994Y-86183996D01*
X115729501Y-86077553D01*
X115857553Y-85949501D01*
X115963996Y-85802994D01*
X116046211Y-85641639D01*
X116102171Y-85469409D01*
X116130500Y-85290546D01*
X116130500Y-84909454D01*
X116130500Y-84909450D01*
X116369500Y-84909450D01*
X116369500Y-85290549D01*
X116397828Y-85469406D01*
X116397829Y-85469409D01*
X116453789Y-85641639D01*
X116536004Y-85802994D01*
X116642447Y-85949501D01*
X116770499Y-86077553D01*
X116917006Y-86183996D01*
X117078361Y-86266211D01*
X117250591Y-86322171D01*
X117322136Y-86333502D01*
X117429451Y-86350500D01*
X117429454Y-86350500D01*
X117610549Y-86350500D01*
X117699977Y-86336335D01*
X117789409Y-86322171D01*
X117961639Y-86266211D01*
X118122994Y-86183996D01*
X118269501Y-86077553D01*
X118397553Y-85949501D01*
X118503996Y-85802994D01*
X118586211Y-85641639D01*
X118642171Y-85469409D01*
X118670500Y-85290546D01*
X118670500Y-84909454D01*
X118670500Y-84909450D01*
X118909500Y-84909450D01*
X118909500Y-85290549D01*
X118937828Y-85469406D01*
X118937829Y-85469409D01*
X118993789Y-85641639D01*
X119076004Y-85802994D01*
X119182447Y-85949501D01*
X119310499Y-86077553D01*
X119457006Y-86183996D01*
X119618361Y-86266211D01*
X119790591Y-86322171D01*
X119862136Y-86333502D01*
X119969451Y-86350500D01*
X119969454Y-86350500D01*
X120150549Y-86350500D01*
X120239977Y-86336335D01*
X120329409Y-86322171D01*
X120501639Y-86266211D01*
X120662994Y-86183996D01*
X120809501Y-86077553D01*
X120937553Y-85949501D01*
X121043996Y-85802994D01*
X121126211Y-85641639D01*
X121182171Y-85469409D01*
X121210500Y-85290546D01*
X121210500Y-84909454D01*
X121210500Y-84909450D01*
X121449500Y-84909450D01*
X121449500Y-85290549D01*
X121477828Y-85469406D01*
X121477829Y-85469409D01*
X121533789Y-85641639D01*
X121616004Y-85802994D01*
X121722447Y-85949501D01*
X121850499Y-86077553D01*
X121997006Y-86183996D01*
X122158361Y-86266211D01*
X122330591Y-86322171D01*
X122402136Y-86333502D01*
X122509451Y-86350500D01*
X122509454Y-86350500D01*
X122690549Y-86350500D01*
X122779977Y-86336335D01*
X122869409Y-86322171D01*
X123041639Y-86266211D01*
X123202994Y-86183996D01*
X123349501Y-86077553D01*
X123477553Y-85949501D01*
X123583996Y-85802994D01*
X123666211Y-85641639D01*
X123722171Y-85469409D01*
X123750500Y-85290546D01*
X123750500Y-84909454D01*
X123750500Y-84909450D01*
X123989500Y-84909450D01*
X123989500Y-85290549D01*
X124017828Y-85469406D01*
X124017829Y-85469409D01*
X124073789Y-85641639D01*
X124156004Y-85802994D01*
X124262447Y-85949501D01*
X124390499Y-86077553D01*
X124537006Y-86183996D01*
X124698361Y-86266211D01*
X124870591Y-86322171D01*
X124942136Y-86333502D01*
X125049451Y-86350500D01*
X125049454Y-86350500D01*
X125230549Y-86350500D01*
X125319977Y-86336335D01*
X125409409Y-86322171D01*
X125581639Y-86266211D01*
X125742994Y-86183996D01*
X125889501Y-86077553D01*
X126017553Y-85949501D01*
X126123996Y-85802994D01*
X126206211Y-85641639D01*
X126262171Y-85469409D01*
X126290500Y-85290546D01*
X126290500Y-84909454D01*
X126290500Y-84909450D01*
X126529500Y-84909450D01*
X126529500Y-85290549D01*
X126557828Y-85469406D01*
X126557829Y-85469409D01*
X126613789Y-85641639D01*
X126696004Y-85802994D01*
X126802447Y-85949501D01*
X126930499Y-86077553D01*
X127077006Y-86183996D01*
X127238361Y-86266211D01*
X127410591Y-86322171D01*
X127482136Y-86333502D01*
X127589451Y-86350500D01*
X127589454Y-86350500D01*
X127770549Y-86350500D01*
X127859977Y-86336335D01*
X127949409Y-86322171D01*
X128121639Y-86266211D01*
X128282994Y-86183996D01*
X128429501Y-86077553D01*
X128557553Y-85949501D01*
X128663996Y-85802994D01*
X128746211Y-85641639D01*
X128802171Y-85469409D01*
X128830500Y-85290546D01*
X128830500Y-84909454D01*
X128830500Y-84909450D01*
X129069500Y-84909450D01*
X129069500Y-85290549D01*
X129097828Y-85469406D01*
X129097829Y-85469409D01*
X129153789Y-85641639D01*
X129236004Y-85802994D01*
X129342447Y-85949501D01*
X129470499Y-86077553D01*
X129617006Y-86183996D01*
X129778361Y-86266211D01*
X129950591Y-86322171D01*
X130022136Y-86333502D01*
X130129451Y-86350500D01*
X130129454Y-86350500D01*
X130310549Y-86350500D01*
X130399977Y-86336335D01*
X130489409Y-86322171D01*
X130661639Y-86266211D01*
X130822994Y-86183996D01*
X130969501Y-86077553D01*
X131097553Y-85949501D01*
X131203996Y-85802994D01*
X131286211Y-85641639D01*
X131342171Y-85469409D01*
X131370500Y-85290546D01*
X131370500Y-84909454D01*
X131370500Y-84909450D01*
X131609500Y-84909450D01*
X131609500Y-85290549D01*
X131637828Y-85469406D01*
X131637829Y-85469409D01*
X131693789Y-85641639D01*
X131776004Y-85802994D01*
X131882447Y-85949501D01*
X132010499Y-86077553D01*
X132157006Y-86183996D01*
X132318361Y-86266211D01*
X132490591Y-86322171D01*
X132562136Y-86333502D01*
X132669451Y-86350500D01*
X132669454Y-86350500D01*
X132850549Y-86350500D01*
X132939977Y-86336335D01*
X133029409Y-86322171D01*
X133201639Y-86266211D01*
X133362994Y-86183996D01*
X133509501Y-86077553D01*
X133637553Y-85949501D01*
X133743996Y-85802994D01*
X133826211Y-85641639D01*
X133882171Y-85469409D01*
X133910500Y-85290546D01*
X133910500Y-84909454D01*
X133910500Y-84909450D01*
X134149500Y-84909450D01*
X134149500Y-85290549D01*
X134177828Y-85469406D01*
X134177829Y-85469409D01*
X134233789Y-85641639D01*
X134316004Y-85802994D01*
X134422447Y-85949501D01*
X134550499Y-86077553D01*
X134697006Y-86183996D01*
X134858361Y-86266211D01*
X135030591Y-86322171D01*
X135102136Y-86333502D01*
X135209451Y-86350500D01*
X135209454Y-86350500D01*
X135390549Y-86350500D01*
X135479977Y-86336335D01*
X135569409Y-86322171D01*
X135741639Y-86266211D01*
X135902994Y-86183996D01*
X136049501Y-86077553D01*
X136177553Y-85949501D01*
X136283996Y-85802994D01*
X136366211Y-85641639D01*
X136422171Y-85469409D01*
X136450500Y-85290546D01*
X136450500Y-84909454D01*
X136450500Y-84909450D01*
X136689500Y-84909450D01*
X136689500Y-85290549D01*
X136717828Y-85469406D01*
X136717829Y-85469409D01*
X136773789Y-85641639D01*
X136856004Y-85802994D01*
X136962447Y-85949501D01*
X137090499Y-86077553D01*
X137237006Y-86183996D01*
X137398361Y-86266211D01*
X137570591Y-86322171D01*
X137642136Y-86333502D01*
X137749451Y-86350500D01*
X137749454Y-86350500D01*
X137930549Y-86350500D01*
X138019977Y-86336335D01*
X138109409Y-86322171D01*
X138281639Y-86266211D01*
X138442994Y-86183996D01*
X138589501Y-86077553D01*
X138717553Y-85949501D01*
X138823996Y-85802994D01*
X138906211Y-85641639D01*
X138962171Y-85469409D01*
X138990500Y-85290546D01*
X138990500Y-84909454D01*
X138990500Y-84909450D01*
X138962171Y-84730593D01*
X138962171Y-84730591D01*
X138906211Y-84558361D01*
X138823996Y-84397006D01*
X138717553Y-84250499D01*
X138589501Y-84122447D01*
X138442994Y-84016004D01*
X138442993Y-84016003D01*
X138442991Y-84016002D01*
X138281637Y-83933788D01*
X138109406Y-83877828D01*
X137930549Y-83849500D01*
X137930546Y-83849500D01*
X137749454Y-83849500D01*
X137749451Y-83849500D01*
X137570593Y-83877828D01*
X137398362Y-83933788D01*
X137237008Y-84016002D01*
X137177191Y-84059462D01*
X137090499Y-84122447D01*
X136962447Y-84250499D01*
X136909225Y-84323752D01*
X136856002Y-84397008D01*
X136773788Y-84558362D01*
X136717828Y-84730593D01*
X136689500Y-84909450D01*
X136450500Y-84909450D01*
X136422171Y-84730593D01*
X136422171Y-84730591D01*
X136366211Y-84558361D01*
X136283996Y-84397006D01*
X136177553Y-84250499D01*
X136049501Y-84122447D01*
X135902994Y-84016004D01*
X135902993Y-84016003D01*
X135902991Y-84016002D01*
X135741637Y-83933788D01*
X135569406Y-83877828D01*
X135390549Y-83849500D01*
X135390546Y-83849500D01*
X135209454Y-83849500D01*
X135209451Y-83849500D01*
X135030593Y-83877828D01*
X134858362Y-83933788D01*
X134697008Y-84016002D01*
X134637191Y-84059462D01*
X134550499Y-84122447D01*
X134422447Y-84250499D01*
X134369225Y-84323752D01*
X134316002Y-84397008D01*
X134233788Y-84558362D01*
X134177828Y-84730593D01*
X134149500Y-84909450D01*
X133910500Y-84909450D01*
X133882171Y-84730593D01*
X133882171Y-84730591D01*
X133826211Y-84558361D01*
X133743996Y-84397006D01*
X133637553Y-84250499D01*
X133509501Y-84122447D01*
X133362994Y-84016004D01*
X133362993Y-84016003D01*
X133362991Y-84016002D01*
X133201637Y-83933788D01*
X133029406Y-83877828D01*
X132850549Y-83849500D01*
X132850546Y-83849500D01*
X132669454Y-83849500D01*
X132669451Y-83849500D01*
X132490593Y-83877828D01*
X132318362Y-83933788D01*
X132157008Y-84016002D01*
X132097191Y-84059462D01*
X132010499Y-84122447D01*
X131882447Y-84250499D01*
X131829225Y-84323752D01*
X131776002Y-84397008D01*
X131693788Y-84558362D01*
X131637828Y-84730593D01*
X131609500Y-84909450D01*
X131370500Y-84909450D01*
X131342171Y-84730593D01*
X131342171Y-84730591D01*
X131286211Y-84558361D01*
X131203996Y-84397006D01*
X131097553Y-84250499D01*
X130969501Y-84122447D01*
X130822994Y-84016004D01*
X130822993Y-84016003D01*
X130822991Y-84016002D01*
X130661637Y-83933788D01*
X130489406Y-83877828D01*
X130310549Y-83849500D01*
X130310546Y-83849500D01*
X130129454Y-83849500D01*
X130129451Y-83849500D01*
X129950593Y-83877828D01*
X129778362Y-83933788D01*
X129617008Y-84016002D01*
X129557191Y-84059462D01*
X129470499Y-84122447D01*
X129342447Y-84250499D01*
X129289225Y-84323752D01*
X129236002Y-84397008D01*
X129153788Y-84558362D01*
X129097828Y-84730593D01*
X129069500Y-84909450D01*
X128830500Y-84909450D01*
X128802171Y-84730593D01*
X128802171Y-84730591D01*
X128746211Y-84558361D01*
X128663996Y-84397006D01*
X128557553Y-84250499D01*
X128429501Y-84122447D01*
X128282994Y-84016004D01*
X128282993Y-84016003D01*
X128282991Y-84016002D01*
X128121637Y-83933788D01*
X127949406Y-83877828D01*
X127770549Y-83849500D01*
X127770546Y-83849500D01*
X127589454Y-83849500D01*
X127589451Y-83849500D01*
X127410593Y-83877828D01*
X127238362Y-83933788D01*
X127077008Y-84016002D01*
X127017191Y-84059462D01*
X126930499Y-84122447D01*
X126802447Y-84250499D01*
X126749225Y-84323752D01*
X126696002Y-84397008D01*
X126613788Y-84558362D01*
X126557828Y-84730593D01*
X126529500Y-84909450D01*
X126290500Y-84909450D01*
X126262171Y-84730593D01*
X126262171Y-84730591D01*
X126206211Y-84558361D01*
X126123996Y-84397006D01*
X126017553Y-84250499D01*
X125889501Y-84122447D01*
X125742994Y-84016004D01*
X125742993Y-84016003D01*
X125742991Y-84016002D01*
X125581637Y-83933788D01*
X125409406Y-83877828D01*
X125230549Y-83849500D01*
X125230546Y-83849500D01*
X125049454Y-83849500D01*
X125049451Y-83849500D01*
X124870593Y-83877828D01*
X124698362Y-83933788D01*
X124537008Y-84016002D01*
X124477191Y-84059462D01*
X124390499Y-84122447D01*
X124262447Y-84250499D01*
X124209225Y-84323752D01*
X124156002Y-84397008D01*
X124073788Y-84558362D01*
X124017828Y-84730593D01*
X123989500Y-84909450D01*
X123750500Y-84909450D01*
X123722171Y-84730593D01*
X123722171Y-84730591D01*
X123666211Y-84558361D01*
X123583996Y-84397006D01*
X123477553Y-84250499D01*
X123349501Y-84122447D01*
X123202994Y-84016004D01*
X123202993Y-84016003D01*
X123202991Y-84016002D01*
X123041637Y-83933788D01*
X122869406Y-83877828D01*
X122690549Y-83849500D01*
X122690546Y-83849500D01*
X122509454Y-83849500D01*
X122509451Y-83849500D01*
X122330593Y-83877828D01*
X122158362Y-83933788D01*
X121997008Y-84016002D01*
X121937191Y-84059462D01*
X121850499Y-84122447D01*
X121722447Y-84250499D01*
X121669225Y-84323752D01*
X121616002Y-84397008D01*
X121533788Y-84558362D01*
X121477828Y-84730593D01*
X121449500Y-84909450D01*
X121210500Y-84909450D01*
X121182171Y-84730593D01*
X121182171Y-84730591D01*
X121126211Y-84558361D01*
X121043996Y-84397006D01*
X120937553Y-84250499D01*
X120809501Y-84122447D01*
X120662994Y-84016004D01*
X120662993Y-84016003D01*
X120662991Y-84016002D01*
X120501637Y-83933788D01*
X120329406Y-83877828D01*
X120150549Y-83849500D01*
X120150546Y-83849500D01*
X119969454Y-83849500D01*
X119969451Y-83849500D01*
X119790593Y-83877828D01*
X119618362Y-83933788D01*
X119457008Y-84016002D01*
X119397191Y-84059462D01*
X119310499Y-84122447D01*
X119182447Y-84250499D01*
X119129225Y-84323752D01*
X119076002Y-84397008D01*
X118993788Y-84558362D01*
X118937828Y-84730593D01*
X118909500Y-84909450D01*
X118670500Y-84909450D01*
X118642171Y-84730593D01*
X118642171Y-84730591D01*
X118586211Y-84558361D01*
X118503996Y-84397006D01*
X118397553Y-84250499D01*
X118269501Y-84122447D01*
X118122994Y-84016004D01*
X118122993Y-84016003D01*
X118122991Y-84016002D01*
X117961637Y-83933788D01*
X117789406Y-83877828D01*
X117610549Y-83849500D01*
X117610546Y-83849500D01*
X117429454Y-83849500D01*
X117429451Y-83849500D01*
X117250593Y-83877828D01*
X117078362Y-83933788D01*
X116917008Y-84016002D01*
X116857191Y-84059462D01*
X116770499Y-84122447D01*
X116642447Y-84250499D01*
X116589225Y-84323752D01*
X116536002Y-84397008D01*
X116453788Y-84558362D01*
X116397828Y-84730593D01*
X116369500Y-84909450D01*
X116130500Y-84909450D01*
X116102171Y-84730593D01*
X116102171Y-84730591D01*
X116046211Y-84558361D01*
X115963996Y-84397006D01*
X115857553Y-84250499D01*
X115729501Y-84122447D01*
X115582994Y-84016004D01*
X115582993Y-84016003D01*
X115582991Y-84016002D01*
X115421637Y-83933788D01*
X115249406Y-83877828D01*
X115070549Y-83849500D01*
X115070546Y-83849500D01*
X114889454Y-83849500D01*
X114889451Y-83849500D01*
X114710593Y-83877828D01*
X114538362Y-83933788D01*
X114377008Y-84016002D01*
X114317191Y-84059462D01*
X114230499Y-84122447D01*
X114102447Y-84250499D01*
X114049225Y-84323752D01*
X113996002Y-84397008D01*
X113913788Y-84558362D01*
X113857828Y-84730593D01*
X113829500Y-84909450D01*
X113590500Y-84909450D01*
X113562171Y-84730593D01*
X113562171Y-84730591D01*
X113506211Y-84558361D01*
X113423996Y-84397006D01*
X113317553Y-84250499D01*
X113189501Y-84122447D01*
X113042994Y-84016004D01*
X113042993Y-84016003D01*
X113042991Y-84016002D01*
X112881637Y-83933788D01*
X112709406Y-83877828D01*
X112530549Y-83849500D01*
X112530546Y-83849500D01*
X112349454Y-83849500D01*
X112349451Y-83849500D01*
X112170593Y-83877828D01*
X111998362Y-83933788D01*
X111837008Y-84016002D01*
X111777191Y-84059462D01*
X111690499Y-84122447D01*
X111562447Y-84250499D01*
X111509225Y-84323752D01*
X111456002Y-84397008D01*
X111373788Y-84558362D01*
X111317828Y-84730593D01*
X111289500Y-84909450D01*
X103525500Y-84909450D01*
X103525500Y-82699999D01*
X114444750Y-82699999D01*
X114444750Y-82700000D01*
X114463669Y-82843708D01*
X114463670Y-82843709D01*
X114519139Y-82977625D01*
X114607379Y-83092621D01*
X114722375Y-83180861D01*
X114856291Y-83236330D01*
X115000000Y-83255250D01*
X115143709Y-83236330D01*
X115277625Y-83180861D01*
X115392621Y-83092621D01*
X115480861Y-82977625D01*
X115536330Y-82843709D01*
X115555250Y-82700000D01*
X115555250Y-82699999D01*
X116944750Y-82699999D01*
X116944750Y-82700000D01*
X116963669Y-82843708D01*
X116963670Y-82843709D01*
X117019139Y-82977625D01*
X117107379Y-83092621D01*
X117222375Y-83180861D01*
X117356291Y-83236330D01*
X117500000Y-83255250D01*
X117643709Y-83236330D01*
X117777625Y-83180861D01*
X117892621Y-83092621D01*
X117980861Y-82977625D01*
X118036330Y-82843709D01*
X118055250Y-82700000D01*
X118055250Y-82699999D01*
X119544750Y-82699999D01*
X119544750Y-82700000D01*
X119563669Y-82843708D01*
X119563670Y-82843709D01*
X119619139Y-82977625D01*
X119707379Y-83092621D01*
X119822375Y-83180861D01*
X119956291Y-83236330D01*
X120100000Y-83255250D01*
X120243709Y-83236330D01*
X120377625Y-83180861D01*
X120492621Y-83092621D01*
X120580861Y-82977625D01*
X120636330Y-82843709D01*
X120655250Y-82700000D01*
X120655250Y-82699999D01*
X122044750Y-82699999D01*
X122044750Y-82700000D01*
X122063669Y-82843708D01*
X122063670Y-82843709D01*
X122119139Y-82977625D01*
X122207379Y-83092621D01*
X122322375Y-83180861D01*
X122456291Y-83236330D01*
X122600000Y-83255250D01*
X122743709Y-83236330D01*
X122877625Y-83180861D01*
X122992621Y-83092621D01*
X123080861Y-82977625D01*
X123136330Y-82843709D01*
X123155250Y-82700000D01*
X123155250Y-82699999D01*
X124444750Y-82699999D01*
X124444750Y-82700000D01*
X124463669Y-82843708D01*
X124463670Y-82843709D01*
X124519139Y-82977625D01*
X124607379Y-83092621D01*
X124722375Y-83180861D01*
X124856291Y-83236330D01*
X125000000Y-83255250D01*
X125143709Y-83236330D01*
X125277625Y-83180861D01*
X125392621Y-83092621D01*
X125480861Y-82977625D01*
X125536330Y-82843709D01*
X125555250Y-82700000D01*
X125555250Y-82699999D01*
X129644750Y-82699999D01*
X129644750Y-82700000D01*
X129663669Y-82843708D01*
X129663670Y-82843709D01*
X129719139Y-82977625D01*
X129807379Y-83092621D01*
X129922375Y-83180861D01*
X130056291Y-83236330D01*
X130200000Y-83255250D01*
X130343709Y-83236330D01*
X130477625Y-83180861D01*
X130592621Y-83092621D01*
X130680861Y-82977625D01*
X130736330Y-82843709D01*
X130755250Y-82700000D01*
X130755250Y-82699999D01*
X132244750Y-82699999D01*
X132244750Y-82700000D01*
X132263669Y-82843708D01*
X132263670Y-82843709D01*
X132319139Y-82977625D01*
X132407379Y-83092621D01*
X132522375Y-83180861D01*
X132656291Y-83236330D01*
X132800000Y-83255250D01*
X132943709Y-83236330D01*
X133077625Y-83180861D01*
X133192621Y-83092621D01*
X133280861Y-82977625D01*
X133336330Y-82843709D01*
X133355250Y-82700000D01*
X133355250Y-82699999D01*
X134744750Y-82699999D01*
X134744750Y-82700000D01*
X134763669Y-82843708D01*
X134763670Y-82843709D01*
X134819139Y-82977625D01*
X134907379Y-83092621D01*
X135022375Y-83180861D01*
X135156291Y-83236330D01*
X135300000Y-83255250D01*
X135443709Y-83236330D01*
X135577625Y-83180861D01*
X135692621Y-83092621D01*
X135780861Y-82977625D01*
X135836330Y-82843709D01*
X135855250Y-82700000D01*
X135855250Y-82699999D01*
X137244750Y-82699999D01*
X137244750Y-82700000D01*
X137263669Y-82843708D01*
X137263670Y-82843709D01*
X137319139Y-82977625D01*
X137407379Y-83092621D01*
X137522375Y-83180861D01*
X137656291Y-83236330D01*
X137800000Y-83255250D01*
X137943709Y-83236330D01*
X138077625Y-83180861D01*
X138192621Y-83092621D01*
X138280861Y-82977625D01*
X138336330Y-82843709D01*
X138355250Y-82700000D01*
X138355250Y-82699999D01*
X139844750Y-82699999D01*
X139844750Y-82700000D01*
X139863669Y-82843708D01*
X139863670Y-82843709D01*
X139919139Y-82977625D01*
X140007379Y-83092621D01*
X140122375Y-83180861D01*
X140256291Y-83236330D01*
X140400000Y-83255250D01*
X140543709Y-83236330D01*
X140677625Y-83180861D01*
X140792621Y-83092621D01*
X140880861Y-82977625D01*
X140936330Y-82843709D01*
X140955250Y-82700000D01*
X140936330Y-82556291D01*
X140880861Y-82422375D01*
X140792621Y-82307379D01*
X140677625Y-82219139D01*
X140677621Y-82219137D01*
X140543709Y-82163670D01*
X140543708Y-82163669D01*
X140400000Y-82144750D01*
X140256291Y-82163669D01*
X140256290Y-82163670D01*
X140122378Y-82219137D01*
X140122374Y-82219139D01*
X140007381Y-82307377D01*
X140007377Y-82307381D01*
X139919139Y-82422374D01*
X139919137Y-82422378D01*
X139863670Y-82556290D01*
X139863669Y-82556291D01*
X139844750Y-82699999D01*
X138355250Y-82699999D01*
X138336330Y-82556291D01*
X138280861Y-82422375D01*
X138192621Y-82307379D01*
X138077625Y-82219139D01*
X138077621Y-82219137D01*
X137943709Y-82163670D01*
X137943708Y-82163669D01*
X137800000Y-82144750D01*
X137656291Y-82163669D01*
X137656290Y-82163670D01*
X137522378Y-82219137D01*
X137522374Y-82219139D01*
X137407381Y-82307377D01*
X137407377Y-82307381D01*
X137319139Y-82422374D01*
X137319137Y-82422378D01*
X137263670Y-82556290D01*
X137263669Y-82556291D01*
X137244750Y-82699999D01*
X135855250Y-82699999D01*
X135836330Y-82556291D01*
X135780861Y-82422375D01*
X135692621Y-82307379D01*
X135577625Y-82219139D01*
X135577621Y-82219137D01*
X135443709Y-82163670D01*
X135443708Y-82163669D01*
X135300000Y-82144750D01*
X135156291Y-82163669D01*
X135156290Y-82163670D01*
X135022378Y-82219137D01*
X135022374Y-82219139D01*
X134907381Y-82307377D01*
X134907377Y-82307381D01*
X134819139Y-82422374D01*
X134819137Y-82422378D01*
X134763670Y-82556290D01*
X134763669Y-82556291D01*
X134744750Y-82699999D01*
X133355250Y-82699999D01*
X133336330Y-82556291D01*
X133280861Y-82422375D01*
X133192621Y-82307379D01*
X133077625Y-82219139D01*
X133077621Y-82219137D01*
X132943709Y-82163670D01*
X132943708Y-82163669D01*
X132800000Y-82144750D01*
X132656291Y-82163669D01*
X132656290Y-82163670D01*
X132522378Y-82219137D01*
X132522374Y-82219139D01*
X132407381Y-82307377D01*
X132407377Y-82307381D01*
X132319139Y-82422374D01*
X132319137Y-82422378D01*
X132263670Y-82556290D01*
X132263669Y-82556291D01*
X132244750Y-82699999D01*
X130755250Y-82699999D01*
X130736330Y-82556291D01*
X130680861Y-82422375D01*
X130592621Y-82307379D01*
X130477625Y-82219139D01*
X130477621Y-82219137D01*
X130343709Y-82163670D01*
X130343708Y-82163669D01*
X130200000Y-82144750D01*
X130056291Y-82163669D01*
X130056290Y-82163670D01*
X129922378Y-82219137D01*
X129922374Y-82219139D01*
X129807381Y-82307377D01*
X129807377Y-82307381D01*
X129719139Y-82422374D01*
X129719137Y-82422378D01*
X129663670Y-82556290D01*
X129663669Y-82556291D01*
X129644750Y-82699999D01*
X125555250Y-82699999D01*
X125536330Y-82556291D01*
X125480861Y-82422375D01*
X125392621Y-82307379D01*
X125277625Y-82219139D01*
X125277621Y-82219137D01*
X125143709Y-82163670D01*
X125143708Y-82163669D01*
X125000000Y-82144750D01*
X124856291Y-82163669D01*
X124856290Y-82163670D01*
X124722378Y-82219137D01*
X124722374Y-82219139D01*
X124607381Y-82307377D01*
X124607377Y-82307381D01*
X124519139Y-82422374D01*
X124519137Y-82422378D01*
X124463670Y-82556290D01*
X124463669Y-82556291D01*
X124444750Y-82699999D01*
X123155250Y-82699999D01*
X123136330Y-82556291D01*
X123080861Y-82422375D01*
X122992621Y-82307379D01*
X122877625Y-82219139D01*
X122877621Y-82219137D01*
X122743709Y-82163670D01*
X122743708Y-82163669D01*
X122600000Y-82144750D01*
X122456291Y-82163669D01*
X122456290Y-82163670D01*
X122322378Y-82219137D01*
X122322374Y-82219139D01*
X122207381Y-82307377D01*
X122207377Y-82307381D01*
X122119139Y-82422374D01*
X122119137Y-82422378D01*
X122063670Y-82556290D01*
X122063669Y-82556291D01*
X122044750Y-82699999D01*
X120655250Y-82699999D01*
X120636330Y-82556291D01*
X120580861Y-82422375D01*
X120492621Y-82307379D01*
X120377625Y-82219139D01*
X120377621Y-82219137D01*
X120243709Y-82163670D01*
X120243708Y-82163669D01*
X120100000Y-82144750D01*
X119956291Y-82163669D01*
X119956290Y-82163670D01*
X119822378Y-82219137D01*
X119822374Y-82219139D01*
X119707381Y-82307377D01*
X119707377Y-82307381D01*
X119619139Y-82422374D01*
X119619137Y-82422378D01*
X119563670Y-82556290D01*
X119563669Y-82556291D01*
X119544750Y-82699999D01*
X118055250Y-82699999D01*
X118036330Y-82556291D01*
X117980861Y-82422375D01*
X117892621Y-82307379D01*
X117777625Y-82219139D01*
X117777621Y-82219137D01*
X117643709Y-82163670D01*
X117643708Y-82163669D01*
X117500000Y-82144750D01*
X117356291Y-82163669D01*
X117356290Y-82163670D01*
X117222378Y-82219137D01*
X117222374Y-82219139D01*
X117107381Y-82307377D01*
X117107377Y-82307381D01*
X117019139Y-82422374D01*
X117019137Y-82422378D01*
X116963670Y-82556290D01*
X116963669Y-82556291D01*
X116944750Y-82699999D01*
X115555250Y-82699999D01*
X115536330Y-82556291D01*
X115480861Y-82422375D01*
X115392621Y-82307379D01*
X115277625Y-82219139D01*
X115277621Y-82219137D01*
X115143709Y-82163670D01*
X115143708Y-82163669D01*
X115000000Y-82144750D01*
X114856291Y-82163669D01*
X114856290Y-82163670D01*
X114722378Y-82219137D01*
X114722374Y-82219139D01*
X114607381Y-82307377D01*
X114607377Y-82307381D01*
X114519139Y-82422374D01*
X114519137Y-82422378D01*
X114463670Y-82556290D01*
X114463669Y-82556291D01*
X114444750Y-82699999D01*
X103525500Y-82699999D01*
X103525500Y-81099000D01*
X103544407Y-81040809D01*
X103593907Y-81004845D01*
X103624500Y-81000000D01*
X136049999Y-81000000D01*
X136050000Y-81000000D01*
X136085355Y-80985355D01*
X136100000Y-80950000D01*
X136100000Y-64399999D01*
X137344750Y-64399999D01*
X137344750Y-64400000D01*
X137363669Y-64543708D01*
X137363670Y-64543709D01*
X137419139Y-64677625D01*
X137507379Y-64792621D01*
X137622375Y-64880861D01*
X137756291Y-64936330D01*
X137900000Y-64955250D01*
X138043709Y-64936330D01*
X138177625Y-64880861D01*
X138292621Y-64792621D01*
X138380861Y-64677625D01*
X138436330Y-64543709D01*
X138455250Y-64400000D01*
X138455250Y-64399999D01*
X139844750Y-64399999D01*
X139844750Y-64400000D01*
X139863669Y-64543708D01*
X139863670Y-64543709D01*
X139919139Y-64677625D01*
X140007379Y-64792621D01*
X140122375Y-64880861D01*
X140256291Y-64936330D01*
X140400000Y-64955250D01*
X140543709Y-64936330D01*
X140677625Y-64880861D01*
X140792621Y-64792621D01*
X140880861Y-64677625D01*
X140936330Y-64543709D01*
X140955250Y-64400000D01*
X140936330Y-64256291D01*
X140880861Y-64122375D01*
X140792621Y-64007379D01*
X140677625Y-63919139D01*
X140677621Y-63919137D01*
X140543709Y-63863670D01*
X140543708Y-63863669D01*
X140400000Y-63844750D01*
X140256291Y-63863669D01*
X140256290Y-63863670D01*
X140122378Y-63919137D01*
X140122374Y-63919139D01*
X140007381Y-64007377D01*
X140007377Y-64007381D01*
X139919139Y-64122374D01*
X139919137Y-64122378D01*
X139863670Y-64256290D01*
X139863669Y-64256291D01*
X139844750Y-64399999D01*
X138455250Y-64399999D01*
X138436330Y-64256291D01*
X138380861Y-64122375D01*
X138292621Y-64007379D01*
X138177625Y-63919139D01*
X138177621Y-63919137D01*
X138043709Y-63863670D01*
X138043708Y-63863669D01*
X137900000Y-63844750D01*
X137756291Y-63863669D01*
X137756290Y-63863670D01*
X137622378Y-63919137D01*
X137622374Y-63919139D01*
X137507381Y-64007377D01*
X137507377Y-64007381D01*
X137419139Y-64122374D01*
X137419137Y-64122378D01*
X137363670Y-64256290D01*
X137363669Y-64256291D01*
X137344750Y-64399999D01*
X136100000Y-64399999D01*
X136100000Y-63068061D01*
X136118907Y-63009870D01*
X136128990Y-62998063D01*
X136177553Y-62949501D01*
X136283996Y-62802994D01*
X136366211Y-62641639D01*
X136422171Y-62469409D01*
X136450500Y-62290546D01*
X136450500Y-61909454D01*
X136450500Y-61909450D01*
X136689500Y-61909450D01*
X136689500Y-62290549D01*
X136717828Y-62469406D01*
X136717829Y-62469409D01*
X136773789Y-62641639D01*
X136856004Y-62802994D01*
X136962447Y-62949501D01*
X137090499Y-63077553D01*
X137237006Y-63183996D01*
X137398361Y-63266211D01*
X137570591Y-63322171D01*
X137642136Y-63333502D01*
X137749451Y-63350500D01*
X137749454Y-63350500D01*
X137930549Y-63350500D01*
X138019977Y-63336335D01*
X138109409Y-63322171D01*
X138281639Y-63266211D01*
X138442994Y-63183996D01*
X138589501Y-63077553D01*
X138717553Y-62949501D01*
X138823996Y-62802994D01*
X138906211Y-62641639D01*
X138962171Y-62469409D01*
X138990500Y-62290546D01*
X138990500Y-61909454D01*
X138990500Y-61909450D01*
X138962171Y-61730593D01*
X138962171Y-61730591D01*
X138906211Y-61558361D01*
X138823996Y-61397006D01*
X138717553Y-61250499D01*
X138589501Y-61122447D01*
X138442994Y-61016004D01*
X138442993Y-61016003D01*
X138442991Y-61016002D01*
X138281637Y-60933788D01*
X138109406Y-60877828D01*
X137930549Y-60849500D01*
X137930546Y-60849500D01*
X137749454Y-60849500D01*
X137749451Y-60849500D01*
X137570593Y-60877828D01*
X137398362Y-60933788D01*
X137237008Y-61016002D01*
X137177191Y-61059462D01*
X137090499Y-61122447D01*
X136962447Y-61250499D01*
X136909225Y-61323752D01*
X136856002Y-61397008D01*
X136773788Y-61558362D01*
X136717828Y-61730593D01*
X136689500Y-61909450D01*
X136450500Y-61909450D01*
X136422171Y-61730593D01*
X136422171Y-61730591D01*
X136366211Y-61558361D01*
X136283996Y-61397006D01*
X136177553Y-61250499D01*
X136177547Y-61250493D01*
X136128996Y-61201941D01*
X136101219Y-61147424D01*
X136100000Y-61131938D01*
X136100000Y-60099999D01*
X139844750Y-60099999D01*
X139844750Y-60100000D01*
X139863669Y-60243708D01*
X139863670Y-60243709D01*
X139919139Y-60377625D01*
X140007379Y-60492621D01*
X140122375Y-60580861D01*
X140256291Y-60636330D01*
X140377950Y-60652347D01*
X140398035Y-60661927D01*
X140422050Y-60652347D01*
X140543709Y-60636330D01*
X140677625Y-60580861D01*
X140792621Y-60492621D01*
X140880861Y-60377625D01*
X140936330Y-60243709D01*
X140955250Y-60100000D01*
X140936330Y-59956291D01*
X140880861Y-59822375D01*
X140792621Y-59707379D01*
X140677625Y-59619139D01*
X140677621Y-59619137D01*
X140543709Y-59563670D01*
X140543708Y-59563669D01*
X140400000Y-59544750D01*
X140256291Y-59563669D01*
X140256290Y-59563670D01*
X140122378Y-59619137D01*
X140122374Y-59619139D01*
X140007381Y-59707377D01*
X140007377Y-59707381D01*
X139919139Y-59822374D01*
X139919137Y-59822378D01*
X139863670Y-59956290D01*
X139863669Y-59956291D01*
X139844750Y-60099999D01*
X136100000Y-60099999D01*
X136100000Y-58199999D01*
X137144750Y-58199999D01*
X137144750Y-58200000D01*
X137163669Y-58343708D01*
X137163670Y-58343709D01*
X137219139Y-58477625D01*
X137307379Y-58592621D01*
X137422375Y-58680861D01*
X137556291Y-58736330D01*
X137700000Y-58755250D01*
X137843709Y-58736330D01*
X137977625Y-58680861D01*
X138092621Y-58592621D01*
X138180861Y-58477625D01*
X138236330Y-58343709D01*
X138255250Y-58200000D01*
X138236330Y-58056291D01*
X138180861Y-57922375D01*
X138092621Y-57807379D01*
X137977625Y-57719139D01*
X137977621Y-57719137D01*
X137843709Y-57663670D01*
X137843708Y-57663669D01*
X137700000Y-57644750D01*
X137556291Y-57663669D01*
X137556290Y-57663670D01*
X137422378Y-57719137D01*
X137422374Y-57719139D01*
X137307381Y-57807377D01*
X137307377Y-57807381D01*
X137219139Y-57922374D01*
X137219137Y-57922378D01*
X137163670Y-58056290D01*
X137163669Y-58056291D01*
X137144750Y-58199999D01*
X136100000Y-58199999D01*
X136100000Y-52199000D01*
X136118907Y-52140809D01*
X136168407Y-52104845D01*
X136199000Y-52100000D01*
X138287493Y-52100000D01*
X138345684Y-52118907D01*
G37*
%TD.AperFunction*%
%TD*%
%TA.AperFunction,Conductor*%
%TO.N,+5V*%
G36*
X152924753Y-48525501D02*
G01*
X152930816Y-48525501D01*
X152997963Y-48525501D01*
X153002054Y-48525586D01*
X153447988Y-48544029D01*
X153456126Y-48544703D01*
X153897013Y-48599660D01*
X153905082Y-48601006D01*
X154339915Y-48692181D01*
X154347827Y-48694185D01*
X154773643Y-48820956D01*
X154781360Y-48823604D01*
X155195293Y-48985121D01*
X155202730Y-48988384D01*
X155601904Y-49183528D01*
X155609092Y-49187419D01*
X155990746Y-49414835D01*
X155997596Y-49419310D01*
X156359176Y-49677473D01*
X156365633Y-49682499D01*
X156704647Y-49969629D01*
X156710667Y-49975170D01*
X157024829Y-50289332D01*
X157030370Y-50295352D01*
X157317500Y-50634366D01*
X157322526Y-50640823D01*
X157580689Y-51002403D01*
X157585164Y-51009253D01*
X157812580Y-51390907D01*
X157816475Y-51398103D01*
X158011610Y-51797258D01*
X158014882Y-51804718D01*
X158176387Y-52218617D01*
X158179043Y-52226356D01*
X158305811Y-52652162D01*
X158307820Y-52660094D01*
X158398992Y-53094916D01*
X158400339Y-53102986D01*
X158455295Y-53543865D01*
X158455970Y-53552020D01*
X158474414Y-53997945D01*
X158474499Y-54002036D01*
X158474499Y-54077158D01*
X158474500Y-54077171D01*
X158474500Y-92924736D01*
X158474499Y-92924754D01*
X158474499Y-92997963D01*
X158474414Y-93002054D01*
X158455970Y-93447979D01*
X158455295Y-93456134D01*
X158400339Y-93897013D01*
X158398992Y-93905083D01*
X158307820Y-94339905D01*
X158305811Y-94347837D01*
X158179043Y-94773643D01*
X158176387Y-94781381D01*
X158014886Y-95195272D01*
X158011605Y-95202753D01*
X157816475Y-95601896D01*
X157812580Y-95609092D01*
X157585164Y-95990746D01*
X157580689Y-95997596D01*
X157322526Y-96359176D01*
X157317500Y-96365633D01*
X157030370Y-96704647D01*
X157024829Y-96710667D01*
X156710667Y-97024829D01*
X156704647Y-97030370D01*
X156365633Y-97317500D01*
X156359176Y-97322526D01*
X155997596Y-97580689D01*
X155990746Y-97585164D01*
X155609092Y-97812580D01*
X155601896Y-97816475D01*
X155202753Y-98011605D01*
X155195272Y-98014886D01*
X154781382Y-98176387D01*
X154773643Y-98179043D01*
X154347837Y-98305811D01*
X154339905Y-98307820D01*
X153905083Y-98398992D01*
X153897013Y-98400339D01*
X153456134Y-98455295D01*
X153447979Y-98455970D01*
X153002054Y-98474414D01*
X152997963Y-98474499D01*
X152924753Y-98474499D01*
X152924737Y-98474500D01*
X141554500Y-98474500D01*
X141496309Y-98455593D01*
X141460345Y-98406093D01*
X141455500Y-98375500D01*
X141455500Y-92499999D01*
X142444750Y-92499999D01*
X142444750Y-92500000D01*
X142463669Y-92643708D01*
X142463670Y-92643709D01*
X142519139Y-92777625D01*
X142607379Y-92892621D01*
X142722375Y-92980861D01*
X142856291Y-93036330D01*
X143000000Y-93055250D01*
X143143709Y-93036330D01*
X143231438Y-92999992D01*
X148444639Y-92999992D01*
X148444639Y-93000007D01*
X148464069Y-93420305D01*
X148464070Y-93420310D01*
X148522203Y-93837047D01*
X148522204Y-93837052D01*
X148618535Y-94246629D01*
X148752249Y-94645579D01*
X148922207Y-95030498D01*
X149126951Y-95398085D01*
X149364736Y-95745209D01*
X149364741Y-95745215D01*
X149633540Y-96068918D01*
X149633543Y-96068921D01*
X149633548Y-96068927D01*
X149931073Y-96366452D01*
X149931078Y-96366456D01*
X149931081Y-96366459D01*
X150008988Y-96431152D01*
X150254782Y-96635257D01*
X150254786Y-96635260D01*
X150254790Y-96635263D01*
X150601914Y-96873048D01*
X150634744Y-96891334D01*
X150969501Y-97077792D01*
X151354414Y-97247748D01*
X151753366Y-97381463D01*
X152162955Y-97477797D01*
X152579684Y-97535929D01*
X152579690Y-97535929D01*
X152579694Y-97535930D01*
X152999992Y-97555361D01*
X153000000Y-97555361D01*
X153000008Y-97555361D01*
X153420305Y-97535930D01*
X153420308Y-97535929D01*
X153420316Y-97535929D01*
X153837045Y-97477797D01*
X154246634Y-97381463D01*
X154645586Y-97247748D01*
X155030499Y-97077792D01*
X155398089Y-96873046D01*
X155745218Y-96635257D01*
X156068927Y-96366452D01*
X156366452Y-96068927D01*
X156635257Y-95745218D01*
X156873046Y-95398089D01*
X157077792Y-95030499D01*
X157247748Y-94645586D01*
X157381463Y-94246634D01*
X157477797Y-93837045D01*
X157535929Y-93420316D01*
X157537021Y-93396710D01*
X157555361Y-93000007D01*
X157555361Y-92999992D01*
X157535930Y-92579694D01*
X157535929Y-92579689D01*
X157535929Y-92579684D01*
X157477797Y-92162955D01*
X157381463Y-91753366D01*
X157247748Y-91354414D01*
X157077792Y-90969501D01*
X156873046Y-90601911D01*
X156740849Y-90408927D01*
X156635263Y-90254790D01*
X156635258Y-90254784D01*
X156635257Y-90254782D01*
X156366452Y-89931073D01*
X156068927Y-89633548D01*
X156068921Y-89633543D01*
X156068918Y-89633540D01*
X155901450Y-89494477D01*
X155745218Y-89364743D01*
X155745214Y-89364740D01*
X155745209Y-89364736D01*
X155398085Y-89126951D01*
X155030498Y-88922207D01*
X154645579Y-88752249D01*
X154246629Y-88618535D01*
X153837052Y-88522204D01*
X153837047Y-88522203D01*
X153420310Y-88464070D01*
X153420305Y-88464069D01*
X153000008Y-88444639D01*
X152999992Y-88444639D01*
X152579694Y-88464069D01*
X152579689Y-88464070D01*
X152162952Y-88522203D01*
X152162947Y-88522204D01*
X151753370Y-88618535D01*
X151354420Y-88752249D01*
X150969501Y-88922207D01*
X150601914Y-89126951D01*
X150254790Y-89364736D01*
X150254784Y-89364741D01*
X149931081Y-89633540D01*
X149633540Y-89931081D01*
X149364741Y-90254784D01*
X149364736Y-90254790D01*
X149126951Y-90601914D01*
X148922207Y-90969501D01*
X148752249Y-91354420D01*
X148618535Y-91753370D01*
X148522204Y-92162947D01*
X148522203Y-92162952D01*
X148464070Y-92579689D01*
X148464069Y-92579694D01*
X148444639Y-92999992D01*
X143231438Y-92999992D01*
X143277625Y-92980861D01*
X143392621Y-92892621D01*
X143480861Y-92777625D01*
X143536330Y-92643709D01*
X143555250Y-92500000D01*
X143536330Y-92356291D01*
X143480861Y-92222375D01*
X143392621Y-92107379D01*
X143277625Y-92019139D01*
X143277621Y-92019137D01*
X143143709Y-91963670D01*
X143143708Y-91963669D01*
X143000000Y-91944750D01*
X142856291Y-91963669D01*
X142856290Y-91963670D01*
X142722378Y-92019137D01*
X142722374Y-92019139D01*
X142607381Y-92107377D01*
X142607377Y-92107381D01*
X142519139Y-92222374D01*
X142519137Y-92222378D01*
X142463670Y-92356290D01*
X142463669Y-92356291D01*
X142444750Y-92499999D01*
X141455500Y-92499999D01*
X141455500Y-88999999D01*
X145544750Y-88999999D01*
X145544750Y-89000000D01*
X145563669Y-89143708D01*
X145563670Y-89143709D01*
X145619139Y-89277625D01*
X145707379Y-89392621D01*
X145822375Y-89480861D01*
X145956291Y-89536330D01*
X146100000Y-89555250D01*
X146243709Y-89536330D01*
X146377625Y-89480861D01*
X146492621Y-89392621D01*
X146580861Y-89277625D01*
X146636330Y-89143709D01*
X146655250Y-89000000D01*
X146636330Y-88856291D01*
X146580861Y-88722375D01*
X146492621Y-88607379D01*
X146377625Y-88519139D01*
X146377621Y-88519137D01*
X146243709Y-88463670D01*
X146243708Y-88463669D01*
X146100000Y-88444750D01*
X145956291Y-88463669D01*
X145956290Y-88463670D01*
X145822378Y-88519137D01*
X145822374Y-88519139D01*
X145707381Y-88607377D01*
X145707377Y-88607381D01*
X145619139Y-88722374D01*
X145619137Y-88722378D01*
X145563670Y-88856290D01*
X145563669Y-88856291D01*
X145544750Y-88999999D01*
X141455500Y-88999999D01*
X141455500Y-87699999D01*
X142444750Y-87699999D01*
X142444750Y-87700000D01*
X142463669Y-87843708D01*
X142463670Y-87843709D01*
X142519139Y-87977625D01*
X142607379Y-88092621D01*
X142722375Y-88180861D01*
X142856291Y-88236330D01*
X143000000Y-88255250D01*
X143143709Y-88236330D01*
X143277625Y-88180861D01*
X143392621Y-88092621D01*
X143480861Y-87977625D01*
X143536330Y-87843709D01*
X143555250Y-87700000D01*
X143536330Y-87556291D01*
X143480861Y-87422375D01*
X143392621Y-87307379D01*
X143277625Y-87219139D01*
X143277621Y-87219137D01*
X143143709Y-87163670D01*
X143143708Y-87163669D01*
X143000000Y-87144750D01*
X142856291Y-87163669D01*
X142856290Y-87163670D01*
X142722378Y-87219137D01*
X142722374Y-87219139D01*
X142607381Y-87307377D01*
X142607377Y-87307381D01*
X142519139Y-87422374D01*
X142519137Y-87422378D01*
X142463670Y-87556290D01*
X142463669Y-87556291D01*
X142444750Y-87699999D01*
X141455500Y-87699999D01*
X141455500Y-86220636D01*
X141455500Y-86220630D01*
X141452354Y-86180657D01*
X141451968Y-86178220D01*
X141447510Y-86150073D01*
X141443594Y-86130393D01*
X141443594Y-86130391D01*
X141419236Y-86077553D01*
X141401860Y-86039860D01*
X141401857Y-86039856D01*
X141365899Y-85990364D01*
X141365894Y-85990357D01*
X141343760Y-85966413D01*
X141318145Y-85910850D01*
X141330082Y-85850840D01*
X141336362Y-85841027D01*
X141363996Y-85802994D01*
X141446211Y-85641639D01*
X141502171Y-85469409D01*
X141530500Y-85290546D01*
X141530500Y-84909454D01*
X141530500Y-84909450D01*
X144309500Y-84909450D01*
X144309500Y-85290549D01*
X144337828Y-85469406D01*
X144337829Y-85469409D01*
X144393789Y-85641639D01*
X144476004Y-85802994D01*
X144582447Y-85949501D01*
X144710499Y-86077553D01*
X144857006Y-86183996D01*
X145018361Y-86266211D01*
X145190591Y-86322171D01*
X145262136Y-86333502D01*
X145369451Y-86350500D01*
X145369454Y-86350500D01*
X145550549Y-86350500D01*
X145639977Y-86336335D01*
X145729409Y-86322171D01*
X145901639Y-86266211D01*
X146062994Y-86183996D01*
X146209501Y-86077553D01*
X146337553Y-85949501D01*
X146443996Y-85802994D01*
X146526211Y-85641639D01*
X146582171Y-85469409D01*
X146610500Y-85290546D01*
X146610500Y-84909454D01*
X146610500Y-84909450D01*
X146849500Y-84909450D01*
X146849500Y-85290549D01*
X146877828Y-85469406D01*
X146877829Y-85469409D01*
X146933789Y-85641639D01*
X147016004Y-85802994D01*
X147122447Y-85949501D01*
X147250499Y-86077553D01*
X147397006Y-86183996D01*
X147558361Y-86266211D01*
X147730591Y-86322171D01*
X147802136Y-86333502D01*
X147909451Y-86350500D01*
X147909454Y-86350500D01*
X148090549Y-86350500D01*
X148179977Y-86336335D01*
X148269409Y-86322171D01*
X148441639Y-86266211D01*
X148602994Y-86183996D01*
X148749501Y-86077553D01*
X148877553Y-85949501D01*
X148983996Y-85802994D01*
X149066211Y-85641639D01*
X149122171Y-85469409D01*
X149150500Y-85290546D01*
X149150500Y-84909454D01*
X149150500Y-84909450D01*
X149122171Y-84730593D01*
X149122171Y-84730591D01*
X149066211Y-84558361D01*
X148983996Y-84397006D01*
X148877553Y-84250499D01*
X148749501Y-84122447D01*
X148602994Y-84016004D01*
X148602993Y-84016003D01*
X148602991Y-84016002D01*
X148441637Y-83933788D01*
X148269406Y-83877828D01*
X148090549Y-83849500D01*
X148090546Y-83849500D01*
X147909454Y-83849500D01*
X147909451Y-83849500D01*
X147730593Y-83877828D01*
X147558362Y-83933788D01*
X147397008Y-84016002D01*
X147338768Y-84058316D01*
X147250499Y-84122447D01*
X147122447Y-84250499D01*
X147086108Y-84300516D01*
X147016002Y-84397008D01*
X146933788Y-84558362D01*
X146877828Y-84730593D01*
X146849500Y-84909450D01*
X146610500Y-84909450D01*
X146582171Y-84730593D01*
X146582171Y-84730591D01*
X146526211Y-84558361D01*
X146443996Y-84397006D01*
X146337553Y-84250499D01*
X146209501Y-84122447D01*
X146062994Y-84016004D01*
X146062993Y-84016003D01*
X146062991Y-84016002D01*
X145901637Y-83933788D01*
X145729406Y-83877828D01*
X145550549Y-83849500D01*
X145550546Y-83849500D01*
X145369454Y-83849500D01*
X145369451Y-83849500D01*
X145190593Y-83877828D01*
X145018362Y-83933788D01*
X144857008Y-84016002D01*
X144798768Y-84058316D01*
X144710499Y-84122447D01*
X144582447Y-84250499D01*
X144546108Y-84300516D01*
X144476002Y-84397008D01*
X144393788Y-84558362D01*
X144337828Y-84730593D01*
X144309500Y-84909450D01*
X141530500Y-84909450D01*
X141502171Y-84730593D01*
X141502171Y-84730591D01*
X141446211Y-84558361D01*
X141363996Y-84397006D01*
X141363994Y-84397002D01*
X141336170Y-84358706D01*
X141317263Y-84300516D01*
X141336171Y-84242325D01*
X141349048Y-84227832D01*
X141375378Y-84203493D01*
X141424088Y-84116512D01*
X141442995Y-84058321D01*
X141442996Y-84058316D01*
X141455500Y-83979372D01*
X141455500Y-82699999D01*
X142344750Y-82699999D01*
X142344750Y-82700000D01*
X142363669Y-82843708D01*
X142363670Y-82843709D01*
X142419139Y-82977625D01*
X142507379Y-83092621D01*
X142622375Y-83180861D01*
X142756291Y-83236330D01*
X142900000Y-83255250D01*
X143043709Y-83236330D01*
X143177625Y-83180861D01*
X143292621Y-83092621D01*
X143380861Y-82977625D01*
X143436330Y-82843709D01*
X143455250Y-82700000D01*
X143455250Y-82699999D01*
X144844750Y-82699999D01*
X144844750Y-82700000D01*
X144863669Y-82843708D01*
X144863670Y-82843709D01*
X144919139Y-82977625D01*
X145007379Y-83092621D01*
X145122375Y-83180861D01*
X145256291Y-83236330D01*
X145400000Y-83255250D01*
X145543709Y-83236330D01*
X145677625Y-83180861D01*
X145792621Y-83092621D01*
X145880861Y-82977625D01*
X145936330Y-82843709D01*
X145955250Y-82700000D01*
X145955250Y-82699999D01*
X147444750Y-82699999D01*
X147444750Y-82700000D01*
X147463669Y-82843708D01*
X147463670Y-82843709D01*
X147519139Y-82977625D01*
X147607379Y-83092621D01*
X147722375Y-83180861D01*
X147856291Y-83236330D01*
X148000000Y-83255250D01*
X148143709Y-83236330D01*
X148277625Y-83180861D01*
X148392621Y-83092621D01*
X148480861Y-82977625D01*
X148536330Y-82843709D01*
X148555250Y-82700000D01*
X148536330Y-82556291D01*
X148480861Y-82422375D01*
X148392621Y-82307379D01*
X148277625Y-82219139D01*
X148277621Y-82219137D01*
X148143709Y-82163670D01*
X148143708Y-82163669D01*
X148000000Y-82144750D01*
X147856291Y-82163669D01*
X147856290Y-82163670D01*
X147722378Y-82219137D01*
X147722374Y-82219139D01*
X147607381Y-82307377D01*
X147607377Y-82307381D01*
X147519139Y-82422374D01*
X147519137Y-82422378D01*
X147463670Y-82556290D01*
X147463669Y-82556291D01*
X147444750Y-82699999D01*
X145955250Y-82699999D01*
X145936330Y-82556291D01*
X145880861Y-82422375D01*
X145792621Y-82307379D01*
X145677625Y-82219139D01*
X145677621Y-82219137D01*
X145543709Y-82163670D01*
X145543708Y-82163669D01*
X145400000Y-82144750D01*
X145256291Y-82163669D01*
X145256290Y-82163670D01*
X145122378Y-82219137D01*
X145122374Y-82219139D01*
X145007381Y-82307377D01*
X145007377Y-82307381D01*
X144919139Y-82422374D01*
X144919137Y-82422378D01*
X144863670Y-82556290D01*
X144863669Y-82556291D01*
X144844750Y-82699999D01*
X143455250Y-82699999D01*
X143436330Y-82556291D01*
X143380861Y-82422375D01*
X143292621Y-82307379D01*
X143177625Y-82219139D01*
X143177621Y-82219137D01*
X143043709Y-82163670D01*
X143043708Y-82163669D01*
X142900000Y-82144750D01*
X142756291Y-82163669D01*
X142756290Y-82163670D01*
X142622378Y-82219137D01*
X142622374Y-82219139D01*
X142507381Y-82307377D01*
X142507377Y-82307381D01*
X142419139Y-82422374D01*
X142419137Y-82422378D01*
X142363670Y-82556290D01*
X142363669Y-82556291D01*
X142344750Y-82699999D01*
X141455500Y-82699999D01*
X141455500Y-74999999D01*
X147444750Y-74999999D01*
X147444750Y-75000000D01*
X147463669Y-75143708D01*
X147463670Y-75143709D01*
X147519139Y-75277625D01*
X147607379Y-75392621D01*
X147722375Y-75480861D01*
X147856291Y-75536330D01*
X148000000Y-75555250D01*
X148143709Y-75536330D01*
X148277625Y-75480861D01*
X148392621Y-75392621D01*
X148480861Y-75277625D01*
X148536330Y-75143709D01*
X148555250Y-75000000D01*
X148555250Y-74999999D01*
X152444750Y-74999999D01*
X152444750Y-75000000D01*
X152463669Y-75143708D01*
X152463670Y-75143709D01*
X152519139Y-75277625D01*
X152607379Y-75392621D01*
X152722375Y-75480861D01*
X152856291Y-75536330D01*
X153000000Y-75555250D01*
X153143709Y-75536330D01*
X153277625Y-75480861D01*
X153392621Y-75392621D01*
X153480861Y-75277625D01*
X153536330Y-75143709D01*
X153555250Y-75000000D01*
X153536330Y-74856291D01*
X153480861Y-74722375D01*
X153392621Y-74607379D01*
X153277625Y-74519139D01*
X153277621Y-74519137D01*
X153143709Y-74463670D01*
X153143708Y-74463669D01*
X153000000Y-74444750D01*
X152856291Y-74463669D01*
X152856290Y-74463670D01*
X152722378Y-74519137D01*
X152722374Y-74519139D01*
X152607381Y-74607377D01*
X152607377Y-74607381D01*
X152519139Y-74722374D01*
X152519137Y-74722378D01*
X152463670Y-74856290D01*
X152463669Y-74856291D01*
X152444750Y-74999999D01*
X148555250Y-74999999D01*
X148536330Y-74856291D01*
X148480861Y-74722375D01*
X148392621Y-74607379D01*
X148277625Y-74519139D01*
X148277621Y-74519137D01*
X148143709Y-74463670D01*
X148143708Y-74463669D01*
X148000000Y-74444750D01*
X147856291Y-74463669D01*
X147856290Y-74463670D01*
X147722378Y-74519137D01*
X147722374Y-74519139D01*
X147607381Y-74607377D01*
X147607377Y-74607381D01*
X147519139Y-74722374D01*
X147519137Y-74722378D01*
X147463670Y-74856290D01*
X147463669Y-74856291D01*
X147444750Y-74999999D01*
X141455500Y-74999999D01*
X141455500Y-69999999D01*
X147444750Y-69999999D01*
X147444750Y-70000000D01*
X147463669Y-70143708D01*
X147463670Y-70143709D01*
X147519139Y-70277625D01*
X147607379Y-70392621D01*
X147722375Y-70480861D01*
X147856291Y-70536330D01*
X148000000Y-70555250D01*
X148143709Y-70536330D01*
X148277625Y-70480861D01*
X148392621Y-70392621D01*
X148480861Y-70277625D01*
X148536330Y-70143709D01*
X148555250Y-70000000D01*
X148555250Y-69999999D01*
X152444750Y-69999999D01*
X152444750Y-70000000D01*
X152463669Y-70143708D01*
X152463670Y-70143709D01*
X152519139Y-70277625D01*
X152607379Y-70392621D01*
X152722375Y-70480861D01*
X152856291Y-70536330D01*
X153000000Y-70555250D01*
X153143709Y-70536330D01*
X153277625Y-70480861D01*
X153392621Y-70392621D01*
X153480861Y-70277625D01*
X153536330Y-70143709D01*
X153555250Y-70000000D01*
X153536330Y-69856291D01*
X153480861Y-69722375D01*
X153392621Y-69607379D01*
X153277625Y-69519139D01*
X153277621Y-69519137D01*
X153143709Y-69463670D01*
X153143708Y-69463669D01*
X153000000Y-69444750D01*
X152856291Y-69463669D01*
X152856290Y-69463670D01*
X152722378Y-69519137D01*
X152722374Y-69519139D01*
X152607381Y-69607377D01*
X152607377Y-69607381D01*
X152519139Y-69722374D01*
X152519137Y-69722378D01*
X152463670Y-69856290D01*
X152463669Y-69856291D01*
X152444750Y-69999999D01*
X148555250Y-69999999D01*
X148536330Y-69856291D01*
X148480861Y-69722375D01*
X148392621Y-69607379D01*
X148277625Y-69519139D01*
X148277621Y-69519137D01*
X148143709Y-69463670D01*
X148143708Y-69463669D01*
X148000000Y-69444750D01*
X147856291Y-69463669D01*
X147856290Y-69463670D01*
X147722378Y-69519137D01*
X147722374Y-69519139D01*
X147607381Y-69607377D01*
X147607377Y-69607381D01*
X147519139Y-69722374D01*
X147519137Y-69722378D01*
X147463670Y-69856290D01*
X147463669Y-69856291D01*
X147444750Y-69999999D01*
X141455500Y-69999999D01*
X141455500Y-64399999D01*
X142344750Y-64399999D01*
X142344750Y-64400000D01*
X142363669Y-64543708D01*
X142363670Y-64543709D01*
X142419139Y-64677625D01*
X142507379Y-64792621D01*
X142622375Y-64880861D01*
X142756291Y-64936330D01*
X142900000Y-64955250D01*
X143043709Y-64936330D01*
X143177625Y-64880861D01*
X143292621Y-64792621D01*
X143380861Y-64677625D01*
X143436330Y-64543709D01*
X143455250Y-64400000D01*
X143455250Y-64399999D01*
X147444750Y-64399999D01*
X147444750Y-64400000D01*
X147463669Y-64543708D01*
X147463670Y-64543709D01*
X147519139Y-64677625D01*
X147607379Y-64792621D01*
X147722375Y-64880861D01*
X147856291Y-64936330D01*
X148000000Y-64955250D01*
X148143709Y-64936330D01*
X148277625Y-64880861D01*
X148392621Y-64792621D01*
X148480861Y-64677625D01*
X148536330Y-64543709D01*
X148555250Y-64400000D01*
X148536330Y-64256291D01*
X148480861Y-64122375D01*
X148392621Y-64007379D01*
X148277625Y-63919139D01*
X148277621Y-63919137D01*
X148143709Y-63863670D01*
X148143708Y-63863669D01*
X148000000Y-63844750D01*
X147856291Y-63863669D01*
X147856290Y-63863670D01*
X147722378Y-63919137D01*
X147722374Y-63919139D01*
X147607381Y-64007377D01*
X147607377Y-64007381D01*
X147519139Y-64122374D01*
X147519137Y-64122378D01*
X147463670Y-64256290D01*
X147463669Y-64256291D01*
X147444750Y-64399999D01*
X143455250Y-64399999D01*
X143436330Y-64256291D01*
X143380861Y-64122375D01*
X143292621Y-64007379D01*
X143177625Y-63919139D01*
X143177621Y-63919137D01*
X143043709Y-63863670D01*
X143043708Y-63863669D01*
X142900000Y-63844750D01*
X142756291Y-63863669D01*
X142756290Y-63863670D01*
X142622378Y-63919137D01*
X142622374Y-63919139D01*
X142507381Y-64007377D01*
X142507377Y-64007381D01*
X142419139Y-64122374D01*
X142419137Y-64122378D01*
X142363670Y-64256290D01*
X142363669Y-64256291D01*
X142344750Y-64399999D01*
X141455500Y-64399999D01*
X141455500Y-63220636D01*
X141454962Y-63213800D01*
X141452354Y-63180657D01*
X141451968Y-63178220D01*
X141447510Y-63150073D01*
X141443594Y-63130393D01*
X141443594Y-63130391D01*
X141419236Y-63077553D01*
X141401860Y-63039860D01*
X141401857Y-63039856D01*
X141365899Y-62990364D01*
X141365894Y-62990357D01*
X141343760Y-62966413D01*
X141318145Y-62910850D01*
X141330082Y-62850840D01*
X141336362Y-62841027D01*
X141363996Y-62802994D01*
X141446211Y-62641639D01*
X141502171Y-62469409D01*
X141530500Y-62290546D01*
X141530500Y-61909454D01*
X141530500Y-61909450D01*
X141769500Y-61909450D01*
X141769500Y-62290549D01*
X141797828Y-62469406D01*
X141797829Y-62469409D01*
X141853789Y-62641639D01*
X141936004Y-62802994D01*
X142042447Y-62949501D01*
X142170499Y-63077553D01*
X142317006Y-63183996D01*
X142478361Y-63266211D01*
X142650591Y-63322171D01*
X142722136Y-63333502D01*
X142829451Y-63350500D01*
X142829454Y-63350500D01*
X143010549Y-63350500D01*
X143099977Y-63336335D01*
X143189409Y-63322171D01*
X143361639Y-63266211D01*
X143522994Y-63183996D01*
X143669501Y-63077553D01*
X143797553Y-62949501D01*
X143903996Y-62802994D01*
X143986211Y-62641639D01*
X144042171Y-62469409D01*
X144070500Y-62290546D01*
X144070500Y-61909454D01*
X144070500Y-61909450D01*
X144309500Y-61909450D01*
X144309500Y-62290549D01*
X144337828Y-62469406D01*
X144337829Y-62469409D01*
X144393789Y-62641639D01*
X144476004Y-62802994D01*
X144582447Y-62949501D01*
X144710499Y-63077553D01*
X144857006Y-63183996D01*
X145018361Y-63266211D01*
X145190591Y-63322171D01*
X145262136Y-63333502D01*
X145369451Y-63350500D01*
X145369454Y-63350500D01*
X145550549Y-63350500D01*
X145639977Y-63336335D01*
X145729409Y-63322171D01*
X145901639Y-63266211D01*
X146062994Y-63183996D01*
X146209501Y-63077553D01*
X146337553Y-62949501D01*
X146443996Y-62802994D01*
X146526211Y-62641639D01*
X146582171Y-62469409D01*
X146610500Y-62290546D01*
X146610500Y-61909454D01*
X146610500Y-61909450D01*
X146849500Y-61909450D01*
X146849500Y-62290549D01*
X146877828Y-62469406D01*
X146877829Y-62469409D01*
X146933789Y-62641639D01*
X147016004Y-62802994D01*
X147122447Y-62949501D01*
X147250499Y-63077553D01*
X147397006Y-63183996D01*
X147558361Y-63266211D01*
X147730591Y-63322171D01*
X147802136Y-63333502D01*
X147909451Y-63350500D01*
X147909454Y-63350500D01*
X148090549Y-63350500D01*
X148179977Y-63336335D01*
X148269409Y-63322171D01*
X148441639Y-63266211D01*
X148602994Y-63183996D01*
X148749501Y-63077553D01*
X148877553Y-62949501D01*
X148983996Y-62802994D01*
X149066211Y-62641639D01*
X149122171Y-62469409D01*
X149150500Y-62290546D01*
X149150500Y-61909454D01*
X149150500Y-61909450D01*
X149122171Y-61730593D01*
X149122171Y-61730591D01*
X149066211Y-61558361D01*
X148983996Y-61397006D01*
X148877553Y-61250499D01*
X148749501Y-61122447D01*
X148602994Y-61016004D01*
X148602993Y-61016003D01*
X148602991Y-61016002D01*
X148441637Y-60933788D01*
X148269406Y-60877828D01*
X148090549Y-60849500D01*
X148090546Y-60849500D01*
X147909454Y-60849500D01*
X147909451Y-60849500D01*
X147730593Y-60877828D01*
X147558362Y-60933788D01*
X147397008Y-61016002D01*
X147338768Y-61058316D01*
X147250499Y-61122447D01*
X147122447Y-61250499D01*
X147086108Y-61300516D01*
X147016002Y-61397008D01*
X146933788Y-61558362D01*
X146877828Y-61730593D01*
X146849500Y-61909450D01*
X146610500Y-61909450D01*
X146582171Y-61730593D01*
X146582171Y-61730591D01*
X146526211Y-61558361D01*
X146443996Y-61397006D01*
X146337553Y-61250499D01*
X146209501Y-61122447D01*
X146062994Y-61016004D01*
X146062993Y-61016003D01*
X146062991Y-61016002D01*
X145901637Y-60933788D01*
X145729406Y-60877828D01*
X145550549Y-60849500D01*
X145550546Y-60849500D01*
X145369454Y-60849500D01*
X145369451Y-60849500D01*
X145190593Y-60877828D01*
X145018362Y-60933788D01*
X144857008Y-61016002D01*
X144798768Y-61058316D01*
X144710499Y-61122447D01*
X144582447Y-61250499D01*
X144546108Y-61300516D01*
X144476002Y-61397008D01*
X144393788Y-61558362D01*
X144337828Y-61730593D01*
X144309500Y-61909450D01*
X144070500Y-61909450D01*
X144042171Y-61730593D01*
X144042171Y-61730591D01*
X143986211Y-61558361D01*
X143903996Y-61397006D01*
X143797553Y-61250499D01*
X143669501Y-61122447D01*
X143522994Y-61016004D01*
X143522993Y-61016003D01*
X143522991Y-61016002D01*
X143361637Y-60933788D01*
X143189406Y-60877828D01*
X143010549Y-60849500D01*
X143010546Y-60849500D01*
X142829454Y-60849500D01*
X142829451Y-60849500D01*
X142650593Y-60877828D01*
X142478362Y-60933788D01*
X142317008Y-61016002D01*
X142258768Y-61058316D01*
X142170499Y-61122447D01*
X142042447Y-61250499D01*
X142006108Y-61300516D01*
X141936002Y-61397008D01*
X141853788Y-61558362D01*
X141797828Y-61730593D01*
X141769500Y-61909450D01*
X141530500Y-61909450D01*
X141502171Y-61730593D01*
X141502171Y-61730591D01*
X141446211Y-61558361D01*
X141363996Y-61397006D01*
X141363994Y-61397002D01*
X141336170Y-61358706D01*
X141317263Y-61300516D01*
X141336171Y-61242325D01*
X141349048Y-61227832D01*
X141375378Y-61203493D01*
X141424088Y-61116512D01*
X141442995Y-61058321D01*
X141442996Y-61058316D01*
X141455500Y-60979372D01*
X141455500Y-58199999D01*
X142344750Y-58199999D01*
X142344750Y-58200000D01*
X142363669Y-58343708D01*
X142363670Y-58343709D01*
X142419139Y-58477625D01*
X142507379Y-58592621D01*
X142622375Y-58680861D01*
X142756291Y-58736330D01*
X142900000Y-58755250D01*
X143043709Y-58736330D01*
X143177625Y-58680861D01*
X143292621Y-58592621D01*
X143380861Y-58477625D01*
X143436330Y-58343709D01*
X143455250Y-58200000D01*
X143455250Y-58199999D01*
X147444750Y-58199999D01*
X147444750Y-58200000D01*
X147463669Y-58343708D01*
X147463670Y-58343709D01*
X147519139Y-58477625D01*
X147607379Y-58592621D01*
X147722375Y-58680861D01*
X147856291Y-58736330D01*
X148000000Y-58755250D01*
X148143709Y-58736330D01*
X148277625Y-58680861D01*
X148392621Y-58592621D01*
X148480861Y-58477625D01*
X148536330Y-58343709D01*
X148555250Y-58200000D01*
X148536330Y-58056291D01*
X148480861Y-57922375D01*
X148392621Y-57807379D01*
X148277625Y-57719139D01*
X148277621Y-57719137D01*
X148143709Y-57663670D01*
X148143708Y-57663669D01*
X148000000Y-57644750D01*
X147856291Y-57663669D01*
X147856290Y-57663670D01*
X147722378Y-57719137D01*
X147722374Y-57719139D01*
X147607381Y-57807377D01*
X147607377Y-57807381D01*
X147519139Y-57922374D01*
X147519137Y-57922378D01*
X147463670Y-58056290D01*
X147463669Y-58056291D01*
X147444750Y-58199999D01*
X143455250Y-58199999D01*
X143436330Y-58056291D01*
X143380861Y-57922375D01*
X143292621Y-57807379D01*
X143177625Y-57719139D01*
X143177621Y-57719137D01*
X143043709Y-57663670D01*
X143043708Y-57663669D01*
X142900000Y-57644750D01*
X142756291Y-57663669D01*
X142756290Y-57663670D01*
X142622378Y-57719137D01*
X142622374Y-57719139D01*
X142507381Y-57807377D01*
X142507377Y-57807381D01*
X142419139Y-57922374D01*
X142419137Y-57922378D01*
X142363670Y-58056290D01*
X142363669Y-58056291D01*
X142344750Y-58199999D01*
X141455500Y-58199999D01*
X141455500Y-54098772D01*
X141455500Y-54098767D01*
X141450090Y-54046468D01*
X141441794Y-54006797D01*
X141433105Y-53975395D01*
X141433103Y-53975391D01*
X141433093Y-53975355D01*
X141435796Y-53914229D01*
X141473504Y-53866636D01*
X141574035Y-53799464D01*
X141699464Y-53674035D01*
X141798013Y-53526547D01*
X141865894Y-53362666D01*
X141900500Y-53188691D01*
X141900500Y-52811309D01*
X141865894Y-52637334D01*
X141798014Y-52473455D01*
X141798014Y-52473454D01*
X141699464Y-52325965D01*
X141574034Y-52200535D01*
X141426547Y-52101987D01*
X141426542Y-52101985D01*
X141401141Y-52091463D01*
X141354616Y-52051729D01*
X141340332Y-51992234D01*
X141363746Y-51935706D01*
X141401141Y-51908536D01*
X141426547Y-51898013D01*
X141574035Y-51799464D01*
X141699464Y-51674035D01*
X141798013Y-51526547D01*
X141865894Y-51362666D01*
X141900500Y-51188691D01*
X141900500Y-50811309D01*
X141865894Y-50637334D01*
X141798014Y-50473455D01*
X141798014Y-50473454D01*
X141699464Y-50325965D01*
X141622954Y-50249455D01*
X142099500Y-50249455D01*
X142099500Y-51750544D01*
X142102349Y-51775103D01*
X142102349Y-51775105D01*
X142102350Y-51775106D01*
X142146722Y-51875599D01*
X142224401Y-51953278D01*
X142324894Y-51997650D01*
X142349456Y-52000499D01*
X142349458Y-52000500D01*
X142349460Y-52000500D01*
X142398981Y-52000500D01*
X142457172Y-52019407D01*
X142493136Y-52068907D01*
X142493136Y-52130093D01*
X142457172Y-52179593D01*
X142453999Y-52181804D01*
X142442156Y-52189717D01*
X142425964Y-52200536D01*
X142300535Y-52325965D01*
X142201985Y-52473454D01*
X142201985Y-52473455D01*
X142134106Y-52637332D01*
X142134106Y-52637334D01*
X142099500Y-52811306D01*
X142099500Y-53188693D01*
X142134106Y-53362665D01*
X142134106Y-53362667D01*
X142201985Y-53526544D01*
X142201985Y-53526545D01*
X142263854Y-53619137D01*
X142300536Y-53674035D01*
X142425965Y-53799464D01*
X142573453Y-53898013D01*
X142737334Y-53965894D01*
X142911309Y-54000500D01*
X142911310Y-54000500D01*
X143088690Y-54000500D01*
X143088691Y-54000500D01*
X143091245Y-53999992D01*
X148444639Y-53999992D01*
X148444639Y-54000007D01*
X148464069Y-54420305D01*
X148464070Y-54420310D01*
X148522203Y-54837047D01*
X148522204Y-54837052D01*
X148618535Y-55246629D01*
X148752249Y-55645579D01*
X148922207Y-56030498D01*
X149126951Y-56398085D01*
X149364736Y-56745209D01*
X149364741Y-56745215D01*
X149633540Y-57068918D01*
X149633543Y-57068921D01*
X149633548Y-57068927D01*
X149931073Y-57366452D01*
X150254782Y-57635257D01*
X150254786Y-57635260D01*
X150254790Y-57635263D01*
X150601914Y-57873048D01*
X150690479Y-57922378D01*
X150969501Y-58077792D01*
X151354414Y-58247748D01*
X151753366Y-58381463D01*
X152162955Y-58477797D01*
X152579684Y-58535929D01*
X152579690Y-58535929D01*
X152579694Y-58535930D01*
X152999992Y-58555361D01*
X153000000Y-58555361D01*
X153000008Y-58555361D01*
X153420305Y-58535930D01*
X153420308Y-58535929D01*
X153420316Y-58535929D01*
X153837045Y-58477797D01*
X154246634Y-58381463D01*
X154645586Y-58247748D01*
X155030499Y-58077792D01*
X155398089Y-57873046D01*
X155745218Y-57635257D01*
X156068927Y-57366452D01*
X156366452Y-57068927D01*
X156635257Y-56745218D01*
X156873046Y-56398089D01*
X157077792Y-56030499D01*
X157247748Y-55645586D01*
X157381463Y-55246634D01*
X157477797Y-54837045D01*
X157535929Y-54420316D01*
X157551794Y-54077171D01*
X157555361Y-54000007D01*
X157555361Y-53999992D01*
X157535930Y-53579694D01*
X157535929Y-53579689D01*
X157535929Y-53579684D01*
X157477797Y-53162955D01*
X157381463Y-52753366D01*
X157247748Y-52354414D01*
X157077792Y-51969501D01*
X157025489Y-51875599D01*
X156873048Y-51601914D01*
X156635263Y-51254790D01*
X156635258Y-51254784D01*
X156635257Y-51254782D01*
X156366452Y-50931073D01*
X156068927Y-50633548D01*
X156068921Y-50633543D01*
X156068918Y-50633540D01*
X155876132Y-50473453D01*
X155745218Y-50364743D01*
X155745214Y-50364740D01*
X155745209Y-50364736D01*
X155398085Y-50126951D01*
X155030498Y-49922207D01*
X154645579Y-49752249D01*
X154246629Y-49618535D01*
X153837052Y-49522204D01*
X153837047Y-49522203D01*
X153420310Y-49464070D01*
X153420305Y-49464069D01*
X153000008Y-49444639D01*
X152999992Y-49444639D01*
X152579694Y-49464069D01*
X152579689Y-49464070D01*
X152162952Y-49522203D01*
X152162947Y-49522204D01*
X151753370Y-49618535D01*
X151354420Y-49752249D01*
X150969501Y-49922207D01*
X150601914Y-50126951D01*
X150254790Y-50364736D01*
X150254784Y-50364741D01*
X149931081Y-50633540D01*
X149633540Y-50931081D01*
X149364741Y-51254784D01*
X149364736Y-51254790D01*
X149126951Y-51601914D01*
X148922207Y-51969501D01*
X148752249Y-52354420D01*
X148618535Y-52753370D01*
X148522204Y-53162947D01*
X148522203Y-53162952D01*
X148464070Y-53579689D01*
X148464069Y-53579694D01*
X148444639Y-53999992D01*
X143091245Y-53999992D01*
X143262666Y-53965894D01*
X143426547Y-53898013D01*
X143574035Y-53799464D01*
X143699464Y-53674035D01*
X143798013Y-53526547D01*
X143865894Y-53362666D01*
X143900500Y-53188691D01*
X143900500Y-52811309D01*
X143865894Y-52637334D01*
X143798014Y-52473455D01*
X143798014Y-52473454D01*
X143699464Y-52325965D01*
X143574035Y-52200536D01*
X143571730Y-52198996D01*
X143546017Y-52181814D01*
X143508138Y-52133766D01*
X143505736Y-52072628D01*
X143539728Y-52021754D01*
X143597132Y-52000576D01*
X143601019Y-52000500D01*
X143650542Y-52000500D01*
X143650542Y-52000499D01*
X143675106Y-51997650D01*
X143775599Y-51953278D01*
X143853278Y-51875599D01*
X143897650Y-51775106D01*
X143900500Y-51750540D01*
X143900500Y-50249460D01*
X143897650Y-50224894D01*
X143853278Y-50124401D01*
X143775599Y-50046722D01*
X143675106Y-50002350D01*
X143675105Y-50002349D01*
X143675103Y-50002349D01*
X143650544Y-49999500D01*
X143650540Y-49999500D01*
X142349460Y-49999500D01*
X142349455Y-49999500D01*
X142324896Y-50002349D01*
X142224401Y-50046722D01*
X142146722Y-50124401D01*
X142102349Y-50224896D01*
X142099500Y-50249455D01*
X141622954Y-50249455D01*
X141574034Y-50200535D01*
X141426544Y-50101985D01*
X141262666Y-50034106D01*
X141088693Y-49999500D01*
X141088691Y-49999500D01*
X140911309Y-49999500D01*
X140911306Y-49999500D01*
X140737334Y-50034106D01*
X140737332Y-50034106D01*
X140573455Y-50101985D01*
X140573454Y-50101985D01*
X140425965Y-50200535D01*
X140300535Y-50325965D01*
X140201985Y-50473454D01*
X140201985Y-50473455D01*
X140134106Y-50637332D01*
X140134106Y-50637334D01*
X140099500Y-50811306D01*
X140099500Y-51188693D01*
X140134106Y-51362665D01*
X140134106Y-51362667D01*
X140201985Y-51526544D01*
X140201985Y-51526545D01*
X140300535Y-51674034D01*
X140301997Y-51675496D01*
X140302427Y-51676340D01*
X140303624Y-51677799D01*
X140303304Y-51678061D01*
X140329774Y-51730013D01*
X140320203Y-51790445D01*
X140276938Y-51833710D01*
X140231993Y-51844500D01*
X139768007Y-51844500D01*
X139709816Y-51825593D01*
X139673852Y-51776093D01*
X139673852Y-51714907D01*
X139696519Y-51677916D01*
X139696376Y-51677799D01*
X139697227Y-51676760D01*
X139698003Y-51675496D01*
X139699464Y-51674035D01*
X139798013Y-51526547D01*
X139865894Y-51362666D01*
X139900500Y-51188691D01*
X139900500Y-50811309D01*
X139865894Y-50637334D01*
X139798014Y-50473455D01*
X139798014Y-50473454D01*
X139699464Y-50325965D01*
X139574034Y-50200535D01*
X139426544Y-50101985D01*
X139262666Y-50034106D01*
X139088693Y-49999500D01*
X139088691Y-49999500D01*
X138911309Y-49999500D01*
X138911306Y-49999500D01*
X138737334Y-50034106D01*
X138737332Y-50034106D01*
X138573455Y-50101985D01*
X138573454Y-50101985D01*
X138425965Y-50200535D01*
X138300535Y-50325965D01*
X138201985Y-50473454D01*
X138201985Y-50473455D01*
X138134106Y-50637332D01*
X138134106Y-50637334D01*
X138099500Y-50811306D01*
X138099500Y-51188693D01*
X138134106Y-51362665D01*
X138134106Y-51362667D01*
X138201985Y-51526544D01*
X138201985Y-51526545D01*
X138300535Y-51674034D01*
X138301997Y-51675496D01*
X138302427Y-51676340D01*
X138303624Y-51677799D01*
X138303304Y-51678061D01*
X138329774Y-51730013D01*
X138320203Y-51790445D01*
X138276938Y-51833710D01*
X138231993Y-51844500D01*
X137768007Y-51844500D01*
X137709816Y-51825593D01*
X137673852Y-51776093D01*
X137673852Y-51714907D01*
X137696519Y-51677916D01*
X137696376Y-51677799D01*
X137697227Y-51676760D01*
X137698003Y-51675496D01*
X137699464Y-51674035D01*
X137798013Y-51526547D01*
X137865894Y-51362666D01*
X137900500Y-51188691D01*
X137900500Y-50811309D01*
X137865894Y-50637334D01*
X137798014Y-50473455D01*
X137798014Y-50473454D01*
X137699464Y-50325965D01*
X137574034Y-50200535D01*
X137426544Y-50101985D01*
X137262666Y-50034106D01*
X137088693Y-49999500D01*
X137088691Y-49999500D01*
X136911309Y-49999500D01*
X136911306Y-49999500D01*
X136737334Y-50034106D01*
X136737332Y-50034106D01*
X136573455Y-50101985D01*
X136573454Y-50101985D01*
X136425965Y-50200535D01*
X136300535Y-50325965D01*
X136201985Y-50473454D01*
X136201985Y-50473455D01*
X136134106Y-50637332D01*
X136134106Y-50637334D01*
X136099500Y-50811306D01*
X136099500Y-51188693D01*
X136134106Y-51362665D01*
X136134106Y-51362667D01*
X136201985Y-51526544D01*
X136201985Y-51526545D01*
X136300535Y-51674034D01*
X136301997Y-51675496D01*
X136302427Y-51676340D01*
X136303624Y-51677799D01*
X136303304Y-51678061D01*
X136329774Y-51730013D01*
X136320203Y-51790445D01*
X136276938Y-51833710D01*
X136231993Y-51844500D01*
X136199000Y-51844500D01*
X136159035Y-51847645D01*
X136134321Y-51851559D01*
X136128429Y-51852492D01*
X136108759Y-51856405D01*
X136018231Y-51898138D01*
X136018226Y-51898141D01*
X135968730Y-51934101D01*
X135968727Y-51934104D01*
X135924622Y-51974876D01*
X135924621Y-51974877D01*
X135898370Y-52021754D01*
X135875912Y-52061857D01*
X135869609Y-52081254D01*
X135857003Y-52120052D01*
X135844500Y-52198996D01*
X135844500Y-54901000D01*
X135825593Y-54959191D01*
X135776093Y-54995155D01*
X135745500Y-55000000D01*
X123099000Y-55000000D01*
X123040809Y-54981093D01*
X123004845Y-54931593D01*
X123000000Y-54901000D01*
X123000000Y-54099999D01*
X127244750Y-54099999D01*
X127244750Y-54100000D01*
X127263669Y-54243708D01*
X127263670Y-54243709D01*
X127319139Y-54377625D01*
X127407379Y-54492621D01*
X127522375Y-54580861D01*
X127656291Y-54636330D01*
X127800000Y-54655250D01*
X127943709Y-54636330D01*
X128077625Y-54580861D01*
X128192621Y-54492621D01*
X128280861Y-54377625D01*
X128336330Y-54243709D01*
X128355250Y-54100000D01*
X128352244Y-54077171D01*
X128336330Y-53956291D01*
X128334651Y-53950026D01*
X128336425Y-53949550D01*
X128332296Y-53897169D01*
X128364259Y-53844995D01*
X128420783Y-53821573D01*
X128480280Y-53835849D01*
X128483565Y-53837951D01*
X128573453Y-53898013D01*
X128737334Y-53965894D01*
X128911309Y-54000500D01*
X128911310Y-54000500D01*
X129088690Y-54000500D01*
X129088691Y-54000500D01*
X129262666Y-53965894D01*
X129315506Y-53944006D01*
X129376502Y-53939206D01*
X129428671Y-53971176D01*
X129452086Y-54027704D01*
X129451544Y-54048393D01*
X129444750Y-54099999D01*
X129444750Y-54100000D01*
X129463669Y-54243708D01*
X129463670Y-54243709D01*
X129519139Y-54377625D01*
X129607379Y-54492621D01*
X129722375Y-54580861D01*
X129856291Y-54636330D01*
X130000000Y-54655250D01*
X130143709Y-54636330D01*
X130277625Y-54580861D01*
X130392621Y-54492621D01*
X130480861Y-54377625D01*
X130536330Y-54243709D01*
X130555250Y-54100000D01*
X130548455Y-54048392D01*
X130559604Y-53988234D01*
X130603986Y-53946116D01*
X130664648Y-53938128D01*
X130684493Y-53944007D01*
X130689585Y-53946116D01*
X130737334Y-53965894D01*
X130911309Y-54000500D01*
X130911310Y-54000500D01*
X131088690Y-54000500D01*
X131088691Y-54000500D01*
X131262666Y-53965894D01*
X131426547Y-53898013D01*
X131574035Y-53799464D01*
X131699464Y-53674035D01*
X131798013Y-53526547D01*
X131865894Y-53362666D01*
X131900500Y-53188691D01*
X131900500Y-52811309D01*
X131865894Y-52637334D01*
X131798014Y-52473455D01*
X131798014Y-52473454D01*
X131699464Y-52325965D01*
X131574034Y-52200535D01*
X131426547Y-52101987D01*
X131426542Y-52101985D01*
X131401141Y-52091463D01*
X131354616Y-52051729D01*
X131340332Y-51992234D01*
X131363746Y-51935706D01*
X131401141Y-51908536D01*
X131426547Y-51898013D01*
X131574035Y-51799464D01*
X131699464Y-51674035D01*
X131798013Y-51526547D01*
X131865894Y-51362666D01*
X131900500Y-51188691D01*
X131900500Y-50811309D01*
X131900499Y-50811306D01*
X132099500Y-50811306D01*
X132099500Y-51188693D01*
X132134106Y-51362665D01*
X132134106Y-51362667D01*
X132201985Y-51526544D01*
X132201985Y-51526545D01*
X132300535Y-51674034D01*
X132425965Y-51799464D01*
X132573445Y-51898009D01*
X132573451Y-51898012D01*
X132573452Y-51898012D01*
X132573453Y-51898013D01*
X132588385Y-51904197D01*
X132634910Y-51943933D01*
X132649500Y-51995662D01*
X132649500Y-52004337D01*
X132630593Y-52062528D01*
X132588388Y-52095800D01*
X132573454Y-52101985D01*
X132425965Y-52200535D01*
X132300535Y-52325965D01*
X132201985Y-52473454D01*
X132201985Y-52473455D01*
X132134106Y-52637332D01*
X132134106Y-52637334D01*
X132099500Y-52811306D01*
X132099500Y-53188693D01*
X132134106Y-53362665D01*
X132134106Y-53362667D01*
X132201985Y-53526544D01*
X132201985Y-53526545D01*
X132263854Y-53619137D01*
X132300536Y-53674035D01*
X132425965Y-53799464D01*
X132573453Y-53898013D01*
X132737334Y-53965894D01*
X132911309Y-54000500D01*
X132911310Y-54000500D01*
X133088690Y-54000500D01*
X133088691Y-54000500D01*
X133262666Y-53965894D01*
X133426547Y-53898013D01*
X133574035Y-53799464D01*
X133699464Y-53674035D01*
X133798013Y-53526547D01*
X133865894Y-53362666D01*
X133900500Y-53188691D01*
X133900500Y-52811309D01*
X133865894Y-52637334D01*
X133798014Y-52473455D01*
X133798014Y-52473454D01*
X133699464Y-52325965D01*
X133574034Y-52200535D01*
X133426545Y-52101985D01*
X133411612Y-52095800D01*
X133365088Y-52056063D01*
X133350500Y-52004337D01*
X133350500Y-51995662D01*
X133369407Y-51937471D01*
X133411614Y-51904198D01*
X133426547Y-51898013D01*
X133426549Y-51898011D01*
X133426554Y-51898009D01*
X133507820Y-51843708D01*
X133574035Y-51799464D01*
X133699464Y-51674035D01*
X133798013Y-51526547D01*
X133865894Y-51362666D01*
X133900500Y-51188691D01*
X133900500Y-50811309D01*
X133900499Y-50811306D01*
X134099500Y-50811306D01*
X134099500Y-51188693D01*
X134134106Y-51362665D01*
X134134106Y-51362667D01*
X134201985Y-51526544D01*
X134201985Y-51526545D01*
X134300535Y-51674034D01*
X134300536Y-51674035D01*
X134425965Y-51799464D01*
X134573453Y-51898013D01*
X134573454Y-51898013D01*
X134573455Y-51898014D01*
X134598858Y-51908536D01*
X134737334Y-51965894D01*
X134911309Y-52000500D01*
X134911310Y-52000500D01*
X135088690Y-52000500D01*
X135088691Y-52000500D01*
X135262666Y-51965894D01*
X135426547Y-51898013D01*
X135574035Y-51799464D01*
X135699464Y-51674035D01*
X135798013Y-51526547D01*
X135865894Y-51362666D01*
X135900500Y-51188691D01*
X135900500Y-50811309D01*
X135865894Y-50637334D01*
X135798014Y-50473455D01*
X135798014Y-50473454D01*
X135699464Y-50325965D01*
X135574034Y-50200535D01*
X135426544Y-50101985D01*
X135262666Y-50034106D01*
X135088693Y-49999500D01*
X135088691Y-49999500D01*
X134911309Y-49999500D01*
X134911306Y-49999500D01*
X134737334Y-50034106D01*
X134737332Y-50034106D01*
X134573455Y-50101985D01*
X134573454Y-50101985D01*
X134425965Y-50200535D01*
X134300535Y-50325965D01*
X134201985Y-50473454D01*
X134201985Y-50473455D01*
X134134106Y-50637332D01*
X134134106Y-50637334D01*
X134099500Y-50811306D01*
X133900499Y-50811306D01*
X133865894Y-50637334D01*
X133798014Y-50473455D01*
X133798014Y-50473454D01*
X133699464Y-50325965D01*
X133574034Y-50200535D01*
X133426544Y-50101985D01*
X133262666Y-50034106D01*
X133088693Y-49999500D01*
X133088691Y-49999500D01*
X132911309Y-49999500D01*
X132911306Y-49999500D01*
X132737334Y-50034106D01*
X132737332Y-50034106D01*
X132573455Y-50101985D01*
X132573454Y-50101985D01*
X132425965Y-50200535D01*
X132300535Y-50325965D01*
X132201985Y-50473454D01*
X132201985Y-50473455D01*
X132134106Y-50637332D01*
X132134106Y-50637334D01*
X132099500Y-50811306D01*
X131900499Y-50811306D01*
X131865894Y-50637334D01*
X131798014Y-50473455D01*
X131798014Y-50473454D01*
X131699464Y-50325965D01*
X131574034Y-50200535D01*
X131426544Y-50101985D01*
X131262666Y-50034106D01*
X131088693Y-49999500D01*
X131088691Y-49999500D01*
X130911309Y-49999500D01*
X130911306Y-49999500D01*
X130737334Y-50034106D01*
X130737332Y-50034106D01*
X130573455Y-50101985D01*
X130573454Y-50101985D01*
X130425965Y-50200535D01*
X130300535Y-50325965D01*
X130201985Y-50473454D01*
X130201985Y-50473455D01*
X130134106Y-50637332D01*
X130134106Y-50637334D01*
X130099500Y-50811306D01*
X130099500Y-51188693D01*
X130134106Y-51362665D01*
X130134106Y-51362667D01*
X130201985Y-51526544D01*
X130201985Y-51526545D01*
X130300535Y-51674034D01*
X130300536Y-51674035D01*
X130425965Y-51799464D01*
X130573453Y-51898013D01*
X130573454Y-51898013D01*
X130573455Y-51898014D01*
X130598857Y-51908536D01*
X130645383Y-51948272D01*
X130659667Y-52007767D01*
X130636252Y-52064295D01*
X130598857Y-52091464D01*
X130573455Y-52101985D01*
X130573454Y-52101985D01*
X130425965Y-52200535D01*
X130300535Y-52325965D01*
X130201985Y-52473454D01*
X130201985Y-52473455D01*
X130134106Y-52637332D01*
X130134106Y-52637334D01*
X130099500Y-52811306D01*
X130099500Y-53188693D01*
X130134105Y-53362664D01*
X130155993Y-53415507D01*
X130160792Y-53476504D01*
X130128822Y-53528672D01*
X130072294Y-53552086D01*
X130051606Y-53551544D01*
X130000001Y-53544750D01*
X129999999Y-53544750D01*
X129948393Y-53551544D01*
X129888232Y-53540394D01*
X129846115Y-53496011D01*
X129838129Y-53435350D01*
X129844005Y-53415510D01*
X129865894Y-53362666D01*
X129900500Y-53188691D01*
X129900500Y-52811309D01*
X129865894Y-52637334D01*
X129798014Y-52473455D01*
X129798014Y-52473454D01*
X129699464Y-52325965D01*
X129574034Y-52200535D01*
X129426547Y-52101987D01*
X129426542Y-52101985D01*
X129401141Y-52091463D01*
X129354616Y-52051729D01*
X129340332Y-51992234D01*
X129363746Y-51935706D01*
X129401141Y-51908536D01*
X129426547Y-51898013D01*
X129574035Y-51799464D01*
X129699464Y-51674035D01*
X129798013Y-51526547D01*
X129865894Y-51362666D01*
X129900500Y-51188691D01*
X129900500Y-50811309D01*
X129865894Y-50637334D01*
X129798014Y-50473455D01*
X129798014Y-50473454D01*
X129699464Y-50325965D01*
X129574034Y-50200535D01*
X129426544Y-50101985D01*
X129262666Y-50034106D01*
X129088693Y-49999500D01*
X129088691Y-49999500D01*
X128911309Y-49999500D01*
X128911306Y-49999500D01*
X128737334Y-50034106D01*
X128737332Y-50034106D01*
X128573455Y-50101985D01*
X128573454Y-50101985D01*
X128425965Y-50200535D01*
X128300535Y-50325965D01*
X128201985Y-50473454D01*
X128201985Y-50473455D01*
X128134106Y-50637332D01*
X128134106Y-50637334D01*
X128099500Y-50811306D01*
X128099500Y-51188693D01*
X128134106Y-51362665D01*
X128134106Y-51362667D01*
X128201985Y-51526544D01*
X128201985Y-51526545D01*
X128300535Y-51674034D01*
X128300536Y-51674035D01*
X128425965Y-51799464D01*
X128573453Y-51898013D01*
X128573454Y-51898013D01*
X128573455Y-51898014D01*
X128598857Y-51908536D01*
X128645383Y-51948272D01*
X128659667Y-52007767D01*
X128636252Y-52064295D01*
X128598857Y-52091464D01*
X128573455Y-52101985D01*
X128573454Y-52101985D01*
X128425965Y-52200535D01*
X128300535Y-52325965D01*
X128201985Y-52473454D01*
X128201985Y-52473455D01*
X128134106Y-52637332D01*
X128134106Y-52637334D01*
X128099500Y-52811306D01*
X128099500Y-53188693D01*
X128134106Y-53362665D01*
X128134106Y-53362667D01*
X128182575Y-53479683D01*
X128187375Y-53540680D01*
X128155406Y-53592849D01*
X128098878Y-53616263D01*
X128053226Y-53609033D01*
X127943709Y-53563670D01*
X127943706Y-53563669D01*
X127943705Y-53563669D01*
X127800000Y-53544750D01*
X127656291Y-53563669D01*
X127656290Y-53563670D01*
X127522378Y-53619137D01*
X127522374Y-53619139D01*
X127407381Y-53707377D01*
X127407377Y-53707381D01*
X127319139Y-53822374D01*
X127319137Y-53822378D01*
X127263670Y-53956290D01*
X127263669Y-53956291D01*
X127244750Y-54099999D01*
X123000000Y-54099999D01*
X123000000Y-51699999D01*
X126644750Y-51699999D01*
X126644750Y-51700000D01*
X126663669Y-51843708D01*
X126663670Y-51843709D01*
X126718000Y-51974877D01*
X126719139Y-51977625D01*
X126807379Y-52092621D01*
X126922375Y-52180861D01*
X127056291Y-52236330D01*
X127200000Y-52255250D01*
X127343709Y-52236330D01*
X127477625Y-52180861D01*
X127592621Y-52092621D01*
X127680861Y-51977625D01*
X127736330Y-51843709D01*
X127755250Y-51700000D01*
X127751831Y-51674034D01*
X127736330Y-51556291D01*
X127680861Y-51422375D01*
X127592621Y-51307379D01*
X127477625Y-51219139D01*
X127477621Y-51219137D01*
X127343709Y-51163670D01*
X127343708Y-51163669D01*
X127200000Y-51144750D01*
X127056291Y-51163669D01*
X127056290Y-51163670D01*
X126922378Y-51219137D01*
X126922374Y-51219139D01*
X126807381Y-51307377D01*
X126807377Y-51307381D01*
X126719139Y-51422374D01*
X126719137Y-51422378D01*
X126663670Y-51556290D01*
X126663669Y-51556291D01*
X126644750Y-51699999D01*
X123000000Y-51699999D01*
X123000000Y-48624500D01*
X123018907Y-48566309D01*
X123068407Y-48530345D01*
X123099000Y-48525500D01*
X152924737Y-48525500D01*
X152924753Y-48525501D01*
G37*
%TD.AperFunction*%
%TD*%
M02*
