%TF.GenerationSoftware,KiCad,Pcbnew,8.0.4*%
%TF.CreationDate,2024-08-09T15:48:12+02:00*%
%TF.ProjectId,ELE0124CL_power_boost,454c4530-3132-4344-934c-5f706f776572,1.0*%
%TF.SameCoordinates,Original*%
%TF.FileFunction,Copper,L3,Inr*%
%TF.FilePolarity,Positive*%
%FSLAX46Y46*%
G04 Gerber Fmt 4.6, Leading zero omitted, Abs format (unit mm)*
G04 Created by KiCad (PCBNEW 8.0.4) date 2024-08-09 15:48:12*
%MOMM*%
%LPD*%
G01*
G04 APERTURE LIST*
G04 Aperture macros list*
%AMRoundRect*
0 Rectangle with rounded corners*
0 $1 Rounding radius*
0 $2 $3 $4 $5 $6 $7 $8 $9 X,Y pos of 4 corners*
0 Add a 4 corners polygon primitive as box body*
4,1,4,$2,$3,$4,$5,$6,$7,$8,$9,$2,$3,0*
0 Add four circle primitives for the rounded corners*
1,1,$1+$1,$2,$3*
1,1,$1+$1,$4,$5*
1,1,$1+$1,$6,$7*
1,1,$1+$1,$8,$9*
0 Add four rect primitives between the rounded corners*
20,1,$1+$1,$2,$3,$4,$5,0*
20,1,$1+$1,$4,$5,$6,$7,0*
20,1,$1+$1,$6,$7,$8,$9,0*
20,1,$1+$1,$8,$9,$2,$3,0*%
G04 Aperture macros list end*
%TA.AperFunction,ComponentPad*%
%ADD10C,1.600000*%
%TD*%
%TA.AperFunction,ComponentPad*%
%ADD11C,1.200000*%
%TD*%
%TA.AperFunction,ComponentPad*%
%ADD12C,8.600000*%
%TD*%
%TA.AperFunction,ComponentPad*%
%ADD13RoundRect,0.050000X-1.250000X1.250000X-1.250000X-1.250000X1.250000X-1.250000X1.250000X1.250000X0*%
%TD*%
%TA.AperFunction,ComponentPad*%
%ADD14C,2.600000*%
%TD*%
%TA.AperFunction,ComponentPad*%
%ADD15O,2.500000X1.700000*%
%TD*%
%TA.AperFunction,ComponentPad*%
%ADD16RoundRect,0.200000X0.800000X-0.800000X0.800000X0.800000X-0.800000X0.800000X-0.800000X-0.800000X0*%
%TD*%
%TA.AperFunction,ComponentPad*%
%ADD17C,2.000000*%
%TD*%
%TA.AperFunction,ComponentPad*%
%ADD18RoundRect,0.050000X1.250000X-1.250000X1.250000X1.250000X-1.250000X1.250000X-1.250000X-1.250000X0*%
%TD*%
%TA.AperFunction,ComponentPad*%
%ADD19RoundRect,0.043333X-0.606667X0.706667X-0.606667X-0.706667X0.606667X-0.706667X0.606667X0.706667X0*%
%TD*%
%TA.AperFunction,ComponentPad*%
%ADD20O,1.300000X1.500000*%
%TD*%
%TA.AperFunction,ViaPad*%
%ADD21C,0.600000*%
%TD*%
%TA.AperFunction,ViaPad*%
%ADD22C,0.800000*%
%TD*%
G04 APERTURE END LIST*
D10*
%TO.N,/INDUCTOR*%
%TO.C,C2*%
X92600000Y-109000000D03*
%TO.N,GND_PWR*%
X92600000Y-111000000D03*
%TD*%
D11*
%TO.N,N/C*%
%TO.C,REF\u002A\u002A*%
X179775000Y-123000000D03*
X180719581Y-120719581D03*
X180719581Y-125280419D03*
X183000000Y-119775000D03*
D12*
X183000000Y-123000000D03*
D11*
X183000000Y-126225000D03*
X185280419Y-120719581D03*
X185280419Y-125280419D03*
X186225000Y-123000000D03*
%TD*%
D13*
%TO.N,+VOUT_OUT*%
%TO.C,J3*%
X183400000Y-97500000D03*
D14*
%TO.N,GND_PWR*%
X183400000Y-102500000D03*
%TD*%
D15*
%TO.N,/Gate Drivers/G_SENSE_L*%
%TO.C,TP6*%
X141800000Y-111600000D03*
%TD*%
D16*
%TO.N,GND_PWR*%
%TO.C,J1*%
X73500000Y-90000000D03*
D17*
%TO.N,+12V*%
X76500000Y-90000000D03*
%TD*%
D15*
%TO.N,/Gate Drivers/G_SENSE_H*%
%TO.C,TP5*%
X150100000Y-111600000D03*
%TD*%
D10*
%TO.N,/INDUCTOR*%
%TO.C,C1*%
X98000000Y-105700000D03*
%TO.N,GND_PWR*%
X98000000Y-103700000D03*
%TD*%
D11*
%TO.N,N/C*%
%TO.C,REF\u002A\u002A*%
X73775000Y-67000000D03*
X74719581Y-64719581D03*
X74719581Y-69280419D03*
X77000000Y-63775000D03*
D12*
X77000000Y-67000000D03*
D11*
X77000000Y-70225000D03*
X79280419Y-64719581D03*
X79280419Y-69280419D03*
X80225000Y-67000000D03*
%TD*%
D15*
%TO.N,/Gate Drivers/SWITCHING_NODE*%
%TO.C,TP7*%
X135700000Y-113000000D03*
%TD*%
%TO.N,GND_PWR*%
%TO.C,TP8*%
X95000000Y-120000000D03*
%TD*%
D10*
%TO.N,+VOUT*%
%TO.C,C8*%
X168700000Y-116300000D03*
%TO.N,GND_PWR*%
X168700000Y-121300000D03*
%TD*%
%TO.N,+VOUT*%
%TO.C,C11*%
X158700000Y-110500000D03*
%TO.N,GND_PWR*%
X158700000Y-115500000D03*
%TD*%
%TO.N,+VOUT*%
%TO.C,C7*%
X158700000Y-98500000D03*
%TO.N,GND_PWR*%
X158700000Y-103500000D03*
%TD*%
D18*
%TO.N,GND_PWR*%
%TO.C,J2*%
X76600000Y-107500000D03*
D14*
%TO.N,+24V_IN*%
X76600000Y-102500000D03*
%TD*%
D11*
%TO.N,N/C*%
%TO.C,REF\u002A\u002A*%
X73775000Y-123000000D03*
X74719581Y-120719581D03*
X74719581Y-125280419D03*
X77000000Y-119775000D03*
D12*
X77000000Y-123000000D03*
D11*
X77000000Y-126225000D03*
X79280419Y-120719581D03*
X79280419Y-125280419D03*
X80225000Y-123000000D03*
%TD*%
%TO.N,N/C*%
%TO.C,REF\u002A\u002A*%
X179775000Y-67000000D03*
X180719581Y-64719581D03*
X180719581Y-69280419D03*
X183000000Y-63775000D03*
D12*
X183000000Y-67000000D03*
D11*
X183000000Y-70225000D03*
X185280419Y-64719581D03*
X185280419Y-69280419D03*
X186225000Y-67000000D03*
%TD*%
D10*
%TO.N,+VOUT*%
%TO.C,C9*%
X168700000Y-104500000D03*
%TO.N,GND_PWR*%
X168700000Y-109500000D03*
%TD*%
D19*
%TO.N,/PWM_H1*%
%TO.C,J4*%
X142000000Y-64000000D03*
D20*
%TO.N,/PWM_L1*%
X142000000Y-66000000D03*
%TO.N,unconnected-(J4-Pin_3-Pad3)*%
X140000000Y-64000000D03*
%TO.N,unconnected-(J4-Pin_4-Pad4)*%
X140000000Y-66000000D03*
%TO.N,GND*%
X138000000Y-64000000D03*
X138000000Y-66000000D03*
%TO.N,+5V*%
X136000000Y-64000000D03*
%TO.N,/RESET*%
X136000000Y-66000000D03*
%TO.N,+3V3*%
X134000000Y-64000000D03*
%TO.N,unconnected-(J4-Pin_10-Pad10)*%
X134000000Y-66000000D03*
%TO.N,unconnected-(J4-Pin_11-Pad11)*%
X132000000Y-64000000D03*
%TO.N,/ADC_6*%
X132000000Y-66000000D03*
%TO.N,/ADC_0*%
X130000000Y-64000000D03*
%TO.N,unconnected-(J4-Pin_14-Pad14)*%
X130000000Y-66000000D03*
%TO.N,/ADC_2*%
X128000000Y-64000000D03*
%TO.N,/ADC_3*%
X128000000Y-66000000D03*
%TD*%
D21*
%TO.N,/Gate Drivers/SWITCHING_NODE*%
X135400000Y-104600000D03*
X135400000Y-103100000D03*
X136700000Y-105300000D03*
X136700000Y-103800000D03*
X136700000Y-102300000D03*
X134000000Y-106000000D03*
X134000000Y-118000000D03*
X139400000Y-120000000D03*
X138000000Y-121200000D03*
X141900000Y-120000000D03*
X143200000Y-121200000D03*
X143200000Y-118800000D03*
X140600000Y-118800000D03*
X138000000Y-118800000D03*
%TO.N,+VOUT*%
X145300000Y-100300000D03*
X142900000Y-100300000D03*
X144100000Y-101600000D03*
X144100000Y-104200000D03*
X145300000Y-102900000D03*
X142900000Y-102900000D03*
X142900000Y-105500000D03*
X145300000Y-105500000D03*
%TO.N,GND_PWR*%
X148600000Y-122700000D03*
X148600000Y-121500000D03*
X148600000Y-120300000D03*
X146000000Y-123300000D03*
X147400000Y-123300000D03*
X147400000Y-120900000D03*
X147400000Y-122100000D03*
X147400000Y-119700000D03*
D22*
%TO.N,/Gate Drivers/G_SENSE_L*%
X147400000Y-117400000D03*
%TO.N,/Gate Drivers/G_SENSE_H*%
X138600000Y-105900000D03*
X107600000Y-97300000D03*
D21*
%TO.N,GND_PWR*%
X146000000Y-86000000D03*
X146000000Y-82000000D03*
X89100000Y-88200000D03*
X173300000Y-99800000D03*
X134000000Y-86000000D03*
X176300000Y-82400000D03*
X163400000Y-98400000D03*
X173400000Y-95000000D03*
X163900000Y-124000000D03*
X126600000Y-88800000D03*
D22*
X121350000Y-92250000D03*
D21*
X163900000Y-122600000D03*
X91400000Y-99900000D03*
X128200000Y-83000000D03*
X75000000Y-80000000D03*
X183000000Y-115000000D03*
X96800000Y-112800000D03*
X99200000Y-112800000D03*
X80000000Y-115000000D03*
X154000000Y-125000000D03*
X134000000Y-82000000D03*
X85500000Y-93100000D03*
X163900000Y-121600000D03*
X154000000Y-124000000D03*
X140000000Y-86000000D03*
X154000000Y-119200000D03*
X124200000Y-88800000D03*
X93000000Y-115000000D03*
X173300000Y-100800000D03*
X140000000Y-82000000D03*
X86000000Y-125000000D03*
X163900000Y-125000000D03*
X86000000Y-115000000D03*
X94000000Y-125000000D03*
X173400000Y-98400000D03*
X98400000Y-98100000D03*
X154000000Y-120200000D03*
X163400000Y-96000000D03*
X173400000Y-97400000D03*
X80600000Y-83200000D03*
X163400000Y-95000000D03*
X183000000Y-110000000D03*
X81100000Y-91700000D03*
X176300000Y-86300000D03*
X86000000Y-120000000D03*
X91400000Y-102000000D03*
X80000000Y-80000000D03*
X173400000Y-96000000D03*
X182100000Y-79900000D03*
X93800000Y-102000000D03*
X85500000Y-94100000D03*
X163400000Y-97400000D03*
X182100000Y-78300000D03*
X93800000Y-99900000D03*
X87300000Y-86000000D03*
X154000000Y-121600000D03*
X154000000Y-122600000D03*
X75000000Y-115000000D03*
%TO.N,/INDUCTOR*%
X95200000Y-80200000D03*
X95200000Y-81600000D03*
X95800000Y-80900000D03*
X96400000Y-80200000D03*
%TO.N,+VOUT*%
X100300000Y-93300000D03*
%TO.N,/INDUCTOR*%
X103000000Y-105800000D03*
X101000000Y-107000000D03*
X103000000Y-108200000D03*
%TO.N,+VOUT*%
X155400000Y-79000000D03*
X160000000Y-81600000D03*
X156500000Y-82900000D03*
X165700000Y-80300000D03*
X160000000Y-79000000D03*
X161100000Y-80300000D03*
X162300000Y-79000000D03*
X153100000Y-81600000D03*
X155400000Y-81600000D03*
X163400000Y-82900000D03*
X157700000Y-81600000D03*
X162300000Y-81600000D03*
X156500000Y-80300000D03*
X154200000Y-80300000D03*
X158800000Y-80300000D03*
X161100000Y-82900000D03*
X165700000Y-82900000D03*
X164600000Y-81600000D03*
X166900000Y-81600000D03*
X163400000Y-80300000D03*
X157700000Y-79000000D03*
X154200000Y-82900000D03*
X158800000Y-82900000D03*
%TO.N,GND*%
X98100000Y-71200000D03*
X84700000Y-66300000D03*
X178000000Y-68100000D03*
X178100000Y-73500000D03*
X171600000Y-65000000D03*
X162900000Y-74400000D03*
X109700000Y-69900000D03*
X89400000Y-74500000D03*
X171000000Y-69800000D03*
X97900000Y-73300000D03*
X105400000Y-66000000D03*
X97700000Y-69200000D03*
X120500000Y-73100000D03*
X89200000Y-73500000D03*
X170600000Y-63500000D03*
X83100000Y-74500000D03*
X89800000Y-66700000D03*
X110000000Y-71200000D03*
X130000000Y-72000000D03*
X89800000Y-68300000D03*
X163100000Y-66700000D03*
X81900000Y-71400000D03*
X163100000Y-68300000D03*
X97100000Y-63500000D03*
X140000000Y-72000000D03*
X171600000Y-66900000D03*
%TO.N,+5V*%
X166100000Y-71500000D03*
X97900000Y-66000000D03*
X110000000Y-66000000D03*
X92605000Y-71500000D03*
X114100000Y-69200000D03*
X105500000Y-67600000D03*
X93705000Y-65300000D03*
X97900000Y-67600000D03*
X102100000Y-69200000D03*
X167000000Y-65300000D03*
X110000000Y-67600000D03*
%TO.N,/Gate Drivers/VBOOT*%
X97900000Y-79300000D03*
X104600000Y-79300000D03*
%TO.N,/INDUCTOR*%
X106400000Y-114000000D03*
X108700000Y-114000000D03*
X107500000Y-112700000D03*
X112100000Y-112700000D03*
X106400000Y-111400000D03*
X113300000Y-111400000D03*
X111000000Y-114000000D03*
X111000000Y-111400000D03*
X113300000Y-114000000D03*
X112100000Y-115200000D03*
X112100000Y-110100000D03*
X107500000Y-110100000D03*
X107500000Y-115200000D03*
X108700000Y-111400000D03*
%TO.N,+12V*%
X111600000Y-87100000D03*
X125400000Y-81700000D03*
X104300000Y-92300000D03*
X102800000Y-92300000D03*
X105800000Y-92300000D03*
X116600000Y-79100000D03*
X124200000Y-83000000D03*
%TO.N,+3V3*%
X172000000Y-73500000D03*
X84700000Y-62400000D03*
X172100000Y-63400000D03*
X82900000Y-73200000D03*
%TO.N,+24V_IN*%
X88400000Y-80200000D03*
X90800000Y-81400000D03*
X86800000Y-80200000D03*
X91600000Y-80200000D03*
X86000000Y-79000000D03*
X89100000Y-93800000D03*
X89200000Y-79000000D03*
X87600000Y-81400000D03*
X92400000Y-81400000D03*
X90000000Y-80200000D03*
X93200000Y-80200000D03*
X89200000Y-81400000D03*
X87600000Y-79000000D03*
X90800000Y-79000000D03*
X86000000Y-81400000D03*
%TO.N,+VOUT_OUT*%
X185300000Y-93300000D03*
X170200000Y-80300000D03*
X170200000Y-82900000D03*
X179600000Y-94600000D03*
X171300000Y-81600000D03*
X184200000Y-94600000D03*
X181900000Y-94600000D03*
X183000000Y-93300000D03*
X179600000Y-92000000D03*
X169000000Y-81600000D03*
X181900000Y-92000000D03*
X183000000Y-90700000D03*
X180700000Y-90700000D03*
X180700000Y-93300000D03*
X185300000Y-90700000D03*
X184200000Y-92000000D03*
X171300000Y-79000000D03*
%TO.N,/ADC_3*%
X95105000Y-66800000D03*
%TO.N,/ADC_2*%
X87200000Y-61600000D03*
%TO.N,/ADC_0*%
X175700000Y-65100000D03*
%TO.N,/RESET*%
X114100000Y-72900000D03*
X117900000Y-64900000D03*
X102100000Y-72900000D03*
%TO.N,/ADC_6*%
X168600000Y-66700000D03*
X162400000Y-62500000D03*
%TO.N,/Gate Drivers/SWITCHING_NODE*%
X125100000Y-114000000D03*
X129700000Y-114000000D03*
X128500000Y-110100000D03*
X123900000Y-115200000D03*
X127400000Y-111400000D03*
X122800000Y-114000000D03*
X129700000Y-111400000D03*
X127400000Y-114000000D03*
X122800000Y-111400000D03*
X128500000Y-115200000D03*
X123900000Y-110100000D03*
X128500000Y-112700000D03*
X125100000Y-111400000D03*
X123900000Y-112700000D03*
D22*
%TO.N,/Gate Drivers/G_SENSE_L*%
X119900000Y-92200000D03*
D21*
%TO.N,Net-(U8A-IN1+)*%
X87800000Y-66900000D03*
X85700000Y-66900000D03*
%TO.N,Net-(U12A-IN1+)*%
X173300000Y-66900000D03*
X176300000Y-66900000D03*
%TO.N,/Gate Drivers/SWITCHING_NODE*%
X140600000Y-121200000D03*
%TD*%
%TA.AperFunction,Conductor*%
%TO.N,/INDUCTOR*%
G36*
X97188736Y-104719685D02*
G01*
X97192820Y-104722425D01*
X97347266Y-104830568D01*
X97553504Y-104926739D01*
X97773308Y-104985635D01*
X97935230Y-104999801D01*
X97999998Y-105005468D01*
X98000000Y-105005468D01*
X98000002Y-105005468D01*
X98056673Y-105000509D01*
X98226692Y-104985635D01*
X98446496Y-104926739D01*
X98652734Y-104830568D01*
X98807180Y-104722425D01*
X98873387Y-104700098D01*
X98878303Y-104700000D01*
X109948638Y-104700000D01*
X110015677Y-104719685D01*
X110036319Y-104736319D01*
X113963681Y-108663681D01*
X113997166Y-108725004D01*
X114000000Y-108751362D01*
X114000000Y-117376000D01*
X113980315Y-117443039D01*
X113927511Y-117488794D01*
X113876000Y-117500000D01*
X105124000Y-117500000D01*
X105056961Y-117480315D01*
X105011206Y-117427511D01*
X105000000Y-117376000D01*
X105000000Y-113900000D01*
X101100000Y-110000000D01*
X93478303Y-110000000D01*
X93411264Y-109980315D01*
X93407180Y-109977575D01*
X93252734Y-109869432D01*
X93252732Y-109869431D01*
X93046497Y-109773261D01*
X93046488Y-109773258D01*
X92826697Y-109714366D01*
X92826693Y-109714365D01*
X92826692Y-109714365D01*
X92826691Y-109714364D01*
X92826686Y-109714364D01*
X92600002Y-109694532D01*
X92599998Y-109694532D01*
X92373313Y-109714364D01*
X92373302Y-109714366D01*
X92153511Y-109773258D01*
X92153502Y-109773261D01*
X91947267Y-109869431D01*
X91947265Y-109869432D01*
X91792820Y-109977575D01*
X91726613Y-109999902D01*
X91721697Y-110000000D01*
X89524000Y-110000000D01*
X89456961Y-109980315D01*
X89411206Y-109927511D01*
X89400000Y-109876000D01*
X89400000Y-104824000D01*
X89419685Y-104756961D01*
X89472489Y-104711206D01*
X89524000Y-104700000D01*
X97121697Y-104700000D01*
X97188736Y-104719685D01*
G37*
%TD.AperFunction*%
%TD*%
%TA.AperFunction,Conductor*%
%TO.N,/INDUCTOR*%
G36*
X96843039Y-77819685D02*
G01*
X96888794Y-77872489D01*
X96900000Y-77924000D01*
X96900000Y-82076000D01*
X96880315Y-82143039D01*
X96827511Y-82188794D01*
X96776000Y-82200000D01*
X94924000Y-82200000D01*
X94856961Y-82180315D01*
X94811206Y-82127511D01*
X94800000Y-82076000D01*
X94800000Y-77924000D01*
X94819685Y-77856961D01*
X94872489Y-77811206D01*
X94924000Y-77800000D01*
X96776000Y-77800000D01*
X96843039Y-77819685D01*
G37*
%TD.AperFunction*%
%TD*%
%TA.AperFunction,Conductor*%
%TO.N,+24V_IN*%
G36*
X94143039Y-77819685D02*
G01*
X94188794Y-77872489D01*
X94200000Y-77924000D01*
X94200000Y-82076000D01*
X94180315Y-82143039D01*
X94127511Y-82188794D01*
X94076000Y-82200000D01*
X85524000Y-82200000D01*
X85456961Y-82180315D01*
X85411206Y-82127511D01*
X85400000Y-82076000D01*
X85400000Y-77924000D01*
X85419685Y-77856961D01*
X85472489Y-77811206D01*
X85524000Y-77800000D01*
X94076000Y-77800000D01*
X94143039Y-77819685D01*
G37*
%TD.AperFunction*%
%TD*%
%TA.AperFunction,Conductor*%
%TO.N,GND_PWR*%
G36*
X188882539Y-77019685D02*
G01*
X188928294Y-77072489D01*
X188939500Y-77124000D01*
X188939500Y-122997575D01*
X188939404Y-123002443D01*
X188921382Y-123461140D01*
X188920618Y-123470847D01*
X188866947Y-123924304D01*
X188865424Y-123933920D01*
X188776341Y-124381769D01*
X188774068Y-124391237D01*
X188650124Y-124830708D01*
X188647116Y-124839968D01*
X188489067Y-125268378D01*
X188485341Y-125277373D01*
X188294168Y-125692061D01*
X188289749Y-125700732D01*
X188066633Y-126099133D01*
X188061552Y-126107426D01*
X187807862Y-126487100D01*
X187802139Y-126494977D01*
X187519445Y-126853573D01*
X187513122Y-126860976D01*
X187203168Y-127196283D01*
X187196283Y-127203168D01*
X186860976Y-127513122D01*
X186853573Y-127519445D01*
X186494977Y-127802139D01*
X186487100Y-127807862D01*
X186107426Y-128061552D01*
X186099133Y-128066633D01*
X185714014Y-128282312D01*
X185700736Y-128289748D01*
X185692061Y-128294168D01*
X185277373Y-128485341D01*
X185268378Y-128489067D01*
X184839968Y-128647116D01*
X184830708Y-128650124D01*
X184391237Y-128774068D01*
X184381769Y-128776341D01*
X183933920Y-128865424D01*
X183924304Y-128866947D01*
X183470847Y-128920618D01*
X183461140Y-128921382D01*
X183002443Y-128939404D01*
X182997575Y-128939500D01*
X152424000Y-128939500D01*
X152356961Y-128919815D01*
X152311206Y-128867011D01*
X152300000Y-128815500D01*
X152300000Y-125700000D01*
X156100000Y-125700000D01*
X156100000Y-122999996D01*
X178194661Y-122999996D01*
X178194661Y-123000003D01*
X178214005Y-123430737D01*
X178214005Y-123430745D01*
X178214006Y-123430747D01*
X178219438Y-123470847D01*
X178271885Y-123858027D01*
X178367830Y-124278391D01*
X178501073Y-124688472D01*
X178501076Y-124688480D01*
X178670533Y-125084947D01*
X178670537Y-125084955D01*
X178738647Y-125211523D01*
X178874863Y-125464655D01*
X178874867Y-125464661D01*
X178874867Y-125464662D01*
X179112394Y-125824501D01*
X179112404Y-125824514D01*
X179381225Y-126161607D01*
X179381235Y-126161618D01*
X179381236Y-126161619D01*
X179679210Y-126473274D01*
X180003920Y-126756965D01*
X180003930Y-126756972D01*
X180003931Y-126756973D01*
X180339524Y-127000796D01*
X180352753Y-127010407D01*
X180722900Y-127231560D01*
X180722903Y-127231561D01*
X180722904Y-127231562D01*
X180722906Y-127231563D01*
X181111372Y-127418639D01*
X181111386Y-127418645D01*
X181515055Y-127570144D01*
X181515059Y-127570145D01*
X181515069Y-127570149D01*
X181930711Y-127684859D01*
X182354964Y-127761850D01*
X182784409Y-127800500D01*
X182784416Y-127800500D01*
X183215584Y-127800500D01*
X183215591Y-127800500D01*
X183645036Y-127761850D01*
X184069289Y-127684859D01*
X184484931Y-127570149D01*
X184888619Y-127418643D01*
X185277100Y-127231560D01*
X185647247Y-127010407D01*
X185996080Y-126756965D01*
X186320790Y-126473274D01*
X186618764Y-126161619D01*
X186661982Y-126107426D01*
X186887595Y-125824514D01*
X186887601Y-125824507D01*
X187125137Y-125464655D01*
X187329461Y-125084958D01*
X187498926Y-124688475D01*
X187632168Y-124278397D01*
X187728115Y-123858026D01*
X187785994Y-123430747D01*
X187805339Y-123000000D01*
X187785994Y-122569253D01*
X187728115Y-122141974D01*
X187632168Y-121721603D01*
X187498926Y-121311525D01*
X187374641Y-121020745D01*
X187329466Y-120915052D01*
X187329462Y-120915044D01*
X187329461Y-120915042D01*
X187125137Y-120535345D01*
X187084783Y-120474211D01*
X186887605Y-120175498D01*
X186887595Y-120175485D01*
X186618774Y-119838392D01*
X186618762Y-119838379D01*
X186320794Y-119526730D01*
X186320793Y-119526729D01*
X186320790Y-119526726D01*
X185996080Y-119243035D01*
X185929188Y-119194435D01*
X185647256Y-118989599D01*
X185647251Y-118989596D01*
X185647247Y-118989593D01*
X185277100Y-118768440D01*
X185277095Y-118768437D01*
X185277093Y-118768436D01*
X184888627Y-118581360D01*
X184888613Y-118581354D01*
X184484944Y-118429855D01*
X184484919Y-118429847D01*
X184069295Y-118315142D01*
X183645043Y-118238151D01*
X183645040Y-118238150D01*
X183645036Y-118238150D01*
X183215591Y-118199500D01*
X182784409Y-118199500D01*
X182354964Y-118238150D01*
X182354960Y-118238150D01*
X182354956Y-118238151D01*
X181930704Y-118315142D01*
X181515080Y-118429847D01*
X181515055Y-118429855D01*
X181111386Y-118581354D01*
X181111372Y-118581360D01*
X180722906Y-118768436D01*
X180722904Y-118768437D01*
X180352743Y-118989599D01*
X180003931Y-119243026D01*
X180003914Y-119243039D01*
X179679210Y-119526726D01*
X179679205Y-119526730D01*
X179381237Y-119838379D01*
X179381225Y-119838392D01*
X179112404Y-120175485D01*
X179112394Y-120175498D01*
X178874867Y-120535337D01*
X178874867Y-120535338D01*
X178670537Y-120915044D01*
X178670533Y-120915052D01*
X178501076Y-121311519D01*
X178501073Y-121311527D01*
X178367830Y-121721608D01*
X178271885Y-122141972D01*
X178214006Y-122569253D01*
X178214005Y-122569262D01*
X178194661Y-122999996D01*
X156100000Y-122999996D01*
X156100000Y-116299998D01*
X167394532Y-116299998D01*
X167394532Y-116300001D01*
X167414364Y-116526686D01*
X167414366Y-116526697D01*
X167473258Y-116746488D01*
X167473261Y-116746497D01*
X167569431Y-116952732D01*
X167569432Y-116952734D01*
X167699954Y-117139141D01*
X167860858Y-117300045D01*
X167860861Y-117300047D01*
X168047266Y-117430568D01*
X168253504Y-117526739D01*
X168473308Y-117585635D01*
X168635230Y-117599801D01*
X168699998Y-117605468D01*
X168700000Y-117605468D01*
X168700002Y-117605468D01*
X168756673Y-117600509D01*
X168926692Y-117585635D01*
X169146496Y-117526739D01*
X169352734Y-117430568D01*
X169539139Y-117300047D01*
X169700047Y-117139139D01*
X169830568Y-116952734D01*
X169926739Y-116746496D01*
X169985635Y-116526692D01*
X170005468Y-116300000D01*
X169985635Y-116073308D01*
X169926739Y-115853504D01*
X169830568Y-115647266D01*
X169700047Y-115460861D01*
X169700045Y-115460858D01*
X169539141Y-115299954D01*
X169352734Y-115169432D01*
X169352732Y-115169431D01*
X169146497Y-115073261D01*
X169146488Y-115073258D01*
X168926697Y-115014366D01*
X168926693Y-115014365D01*
X168926692Y-115014365D01*
X168926691Y-115014364D01*
X168926686Y-115014364D01*
X168700002Y-114994532D01*
X168699998Y-114994532D01*
X168473313Y-115014364D01*
X168473302Y-115014366D01*
X168253511Y-115073258D01*
X168253502Y-115073261D01*
X168047267Y-115169431D01*
X168047265Y-115169432D01*
X167860858Y-115299954D01*
X167699954Y-115460858D01*
X167569432Y-115647265D01*
X167569431Y-115647267D01*
X167473261Y-115853502D01*
X167473258Y-115853511D01*
X167414366Y-116073302D01*
X167414364Y-116073313D01*
X167394532Y-116299998D01*
X156100000Y-116299998D01*
X156100000Y-115700000D01*
X152300000Y-115700000D01*
X152300000Y-112129500D01*
X152319685Y-112062461D01*
X152372489Y-112016706D01*
X152424000Y-112005500D01*
X159575990Y-112005500D01*
X159576000Y-112005500D01*
X159683456Y-111993947D01*
X159734967Y-111982741D01*
X159773560Y-111969896D01*
X159837497Y-111948616D01*
X159837501Y-111948613D01*
X159837504Y-111948613D01*
X159958543Y-111870825D01*
X160011347Y-111825070D01*
X160105567Y-111716336D01*
X160165338Y-111585459D01*
X160185023Y-111518420D01*
X160185024Y-111518416D01*
X160205500Y-111376000D01*
X160205500Y-106224000D01*
X160193947Y-106116544D01*
X160182741Y-106065033D01*
X160182637Y-106064722D01*
X160148616Y-105962502D01*
X160148613Y-105962496D01*
X160070828Y-105841462D01*
X160070825Y-105841457D01*
X160052878Y-105820745D01*
X160025076Y-105788659D01*
X160025072Y-105788656D01*
X160025070Y-105788653D01*
X159916336Y-105694433D01*
X159916333Y-105694431D01*
X159916331Y-105694430D01*
X159785465Y-105634664D01*
X159785460Y-105634662D01*
X159785459Y-105634662D01*
X159718420Y-105614977D01*
X159718422Y-105614977D01*
X159718417Y-105614976D01*
X159670944Y-105608150D01*
X159576000Y-105594500D01*
X159575998Y-105594500D01*
X158260746Y-105594500D01*
X158193707Y-105574815D01*
X158173065Y-105558181D01*
X157841819Y-105226935D01*
X157808334Y-105165612D01*
X157805500Y-105139254D01*
X157805500Y-104499998D01*
X167394532Y-104499998D01*
X167394532Y-104500001D01*
X167414364Y-104726686D01*
X167414366Y-104726697D01*
X167473258Y-104946488D01*
X167473261Y-104946497D01*
X167569431Y-105152732D01*
X167569432Y-105152734D01*
X167699954Y-105339141D01*
X167860858Y-105500045D01*
X167860861Y-105500047D01*
X168047266Y-105630568D01*
X168253504Y-105726739D01*
X168473308Y-105785635D01*
X168635230Y-105799801D01*
X168699998Y-105805468D01*
X168700000Y-105805468D01*
X168700002Y-105805468D01*
X168756673Y-105800509D01*
X168926692Y-105785635D01*
X169146496Y-105726739D01*
X169352734Y-105630568D01*
X169539139Y-105500047D01*
X169700047Y-105339139D01*
X169830568Y-105152734D01*
X169926739Y-104946496D01*
X169985635Y-104726692D01*
X170005468Y-104500000D01*
X169985635Y-104273308D01*
X169929459Y-104063654D01*
X169926741Y-104053511D01*
X169926738Y-104053502D01*
X169860583Y-103911634D01*
X169830568Y-103847266D01*
X169700047Y-103660861D01*
X169700045Y-103660858D01*
X169539141Y-103499954D01*
X169352734Y-103369432D01*
X169352732Y-103369431D01*
X169146497Y-103273261D01*
X169146488Y-103273258D01*
X168926697Y-103214366D01*
X168926693Y-103214365D01*
X168926692Y-103214365D01*
X168926691Y-103214364D01*
X168926686Y-103214364D01*
X168700002Y-103194532D01*
X168699998Y-103194532D01*
X168473313Y-103214364D01*
X168473302Y-103214366D01*
X168253511Y-103273258D01*
X168253502Y-103273261D01*
X168047267Y-103369431D01*
X168047265Y-103369432D01*
X167860858Y-103499954D01*
X167699954Y-103660858D01*
X167569432Y-103847265D01*
X167569431Y-103847267D01*
X167473261Y-104053502D01*
X167473258Y-104053511D01*
X167414366Y-104273302D01*
X167414364Y-104273313D01*
X167394532Y-104499998D01*
X157805500Y-104499998D01*
X157805500Y-100760745D01*
X157825185Y-100693706D01*
X157841819Y-100673064D01*
X158173064Y-100341819D01*
X158234387Y-100308334D01*
X158260745Y-100305500D01*
X159875990Y-100305500D01*
X159876000Y-100305500D01*
X159983456Y-100293947D01*
X160034967Y-100282741D01*
X160069197Y-100271347D01*
X160137497Y-100248616D01*
X160137501Y-100248613D01*
X160137504Y-100248613D01*
X160258543Y-100170825D01*
X160311347Y-100125070D01*
X160405567Y-100016336D01*
X160465338Y-99885459D01*
X160485023Y-99818420D01*
X160485024Y-99818416D01*
X160505500Y-99676000D01*
X160505500Y-97324000D01*
X160493947Y-97216544D01*
X160482741Y-97165033D01*
X160474971Y-97141687D01*
X160448616Y-97062502D01*
X160448613Y-97062496D01*
X160370828Y-96941462D01*
X160370825Y-96941457D01*
X160370820Y-96941451D01*
X160325076Y-96888659D01*
X160325072Y-96888656D01*
X160325070Y-96888653D01*
X160216336Y-96794433D01*
X160216333Y-96794431D01*
X160216331Y-96794430D01*
X160085465Y-96734664D01*
X160085460Y-96734662D01*
X160085459Y-96734662D01*
X160018420Y-96714977D01*
X160018422Y-96714977D01*
X160018417Y-96714976D01*
X159956354Y-96706053D01*
X159876000Y-96694500D01*
X152424000Y-96694500D01*
X152356961Y-96674815D01*
X152311206Y-96622011D01*
X152300000Y-96570500D01*
X152300000Y-90024000D01*
X178294500Y-90024000D01*
X178294500Y-99876000D01*
X178294501Y-99876009D01*
X178306052Y-99983450D01*
X178306054Y-99983462D01*
X178317260Y-100034972D01*
X178351383Y-100137497D01*
X178351386Y-100137503D01*
X178429171Y-100258537D01*
X178429179Y-100258548D01*
X178474923Y-100311340D01*
X178474926Y-100311343D01*
X178474930Y-100311347D01*
X178583664Y-100405567D01*
X178583667Y-100405568D01*
X178583668Y-100405569D01*
X178677925Y-100448616D01*
X178714541Y-100465338D01*
X178781580Y-100485023D01*
X178781584Y-100485024D01*
X178924000Y-100505500D01*
X178924003Y-100505500D01*
X185975990Y-100505500D01*
X185976000Y-100505500D01*
X186083456Y-100493947D01*
X186134967Y-100482741D01*
X186169197Y-100471347D01*
X186237497Y-100448616D01*
X186237501Y-100448613D01*
X186237504Y-100448613D01*
X186358543Y-100370825D01*
X186411347Y-100325070D01*
X186505567Y-100216336D01*
X186565338Y-100085459D01*
X186585023Y-100018420D01*
X186585024Y-100018416D01*
X186605500Y-99876000D01*
X186605500Y-90024000D01*
X186593947Y-89916544D01*
X186582741Y-89865033D01*
X186582637Y-89864722D01*
X186548616Y-89762502D01*
X186548613Y-89762496D01*
X186470828Y-89641462D01*
X186470825Y-89641457D01*
X186470820Y-89641451D01*
X186425076Y-89588659D01*
X186425072Y-89588656D01*
X186425070Y-89588653D01*
X186316336Y-89494433D01*
X186316333Y-89494431D01*
X186316331Y-89494430D01*
X186185465Y-89434664D01*
X186185460Y-89434662D01*
X186185459Y-89434662D01*
X186118420Y-89414977D01*
X186118422Y-89414977D01*
X186118417Y-89414976D01*
X186056347Y-89406052D01*
X185976000Y-89394500D01*
X178924000Y-89394500D01*
X178923991Y-89394500D01*
X178923990Y-89394501D01*
X178816549Y-89406052D01*
X178816537Y-89406054D01*
X178765027Y-89417260D01*
X178662502Y-89451383D01*
X178662496Y-89451386D01*
X178541462Y-89529171D01*
X178541451Y-89529179D01*
X178488659Y-89574923D01*
X178394433Y-89683664D01*
X178394430Y-89683668D01*
X178334664Y-89814534D01*
X178314976Y-89881582D01*
X178309949Y-89916549D01*
X178294500Y-90024000D01*
X152300000Y-90024000D01*
X152300000Y-89500000D01*
X106600000Y-89500000D01*
X106600000Y-91170500D01*
X106580315Y-91237539D01*
X106527511Y-91283294D01*
X106476000Y-91294500D01*
X101924000Y-91294500D01*
X101923991Y-91294500D01*
X101923990Y-91294501D01*
X101816549Y-91306052D01*
X101816537Y-91306054D01*
X101765027Y-91317260D01*
X101662502Y-91351383D01*
X101662496Y-91351386D01*
X101541462Y-91429171D01*
X101541451Y-91429179D01*
X101488659Y-91474923D01*
X101394433Y-91583664D01*
X101394430Y-91583668D01*
X101334664Y-91714534D01*
X101314976Y-91781582D01*
X101294500Y-91924001D01*
X101294500Y-92988596D01*
X101274815Y-93055635D01*
X101222011Y-93101390D01*
X101152853Y-93111334D01*
X101089297Y-93082309D01*
X101053459Y-93029551D01*
X101025790Y-92950480D01*
X101025789Y-92950478D01*
X100929816Y-92797738D01*
X100802262Y-92670184D01*
X100761383Y-92644498D01*
X100649523Y-92574211D01*
X100479254Y-92514631D01*
X100479249Y-92514630D01*
X100300004Y-92494435D01*
X100299996Y-92494435D01*
X100120750Y-92514630D01*
X100120745Y-92514631D01*
X99950476Y-92574211D01*
X99797737Y-92670184D01*
X99670184Y-92797737D01*
X99574211Y-92950476D01*
X99514631Y-93120745D01*
X99514630Y-93120750D01*
X99494435Y-93299996D01*
X99494435Y-93300003D01*
X99514630Y-93479249D01*
X99514631Y-93479254D01*
X99574211Y-93649523D01*
X99637660Y-93750500D01*
X99670184Y-93802262D01*
X99797738Y-93929816D01*
X99950478Y-94025789D01*
X100120745Y-94085368D01*
X100120750Y-94085369D01*
X100299996Y-94105565D01*
X100300000Y-94105565D01*
X100300004Y-94105565D01*
X100479249Y-94085369D01*
X100479252Y-94085368D01*
X100479255Y-94085368D01*
X100649522Y-94025789D01*
X100802262Y-93929816D01*
X100929816Y-93802262D01*
X101025789Y-93649522D01*
X101053458Y-93570449D01*
X101094180Y-93513673D01*
X101159133Y-93487925D01*
X101227694Y-93501381D01*
X101278097Y-93549768D01*
X101294500Y-93611403D01*
X101294500Y-94776000D01*
X101294501Y-94776009D01*
X101306052Y-94883450D01*
X101306054Y-94883462D01*
X101317260Y-94934972D01*
X101351383Y-95037497D01*
X101351386Y-95037503D01*
X101429171Y-95158537D01*
X101429179Y-95158548D01*
X101474923Y-95211340D01*
X101474926Y-95211343D01*
X101474930Y-95211347D01*
X101583664Y-95305567D01*
X101714541Y-95365338D01*
X101781580Y-95385023D01*
X101781584Y-95385024D01*
X101924000Y-95405500D01*
X101924003Y-95405500D01*
X105795138Y-95405500D01*
X105862177Y-95425185D01*
X105907932Y-95477989D01*
X105917876Y-95547147D01*
X105888851Y-95610703D01*
X105882819Y-95617181D01*
X104400000Y-97099999D01*
X104400000Y-104070500D01*
X104380315Y-104137539D01*
X104327511Y-104183294D01*
X104276000Y-104194500D01*
X98878303Y-104194500D01*
X98876099Y-104194521D01*
X98868203Y-104194600D01*
X98863332Y-104194697D01*
X98853349Y-104194994D01*
X98711852Y-104221102D01*
X98645819Y-104243371D01*
X98645654Y-104243426D01*
X98645637Y-104243433D01*
X98517236Y-104308343D01*
X98517233Y-104308345D01*
X98407907Y-104384895D01*
X98389188Y-104395702D01*
X98345375Y-104416132D01*
X98276297Y-104426624D01*
X98260878Y-104423525D01*
X98226697Y-104414366D01*
X98226693Y-104414365D01*
X98226692Y-104414365D01*
X98226691Y-104414364D01*
X98226686Y-104414364D01*
X98000002Y-104394532D01*
X97999999Y-104394532D01*
X97773313Y-104414364D01*
X97773301Y-104414366D01*
X97739114Y-104423526D01*
X97669264Y-104421861D01*
X97654628Y-104416136D01*
X97610806Y-104395701D01*
X97592099Y-104384901D01*
X97482761Y-104308342D01*
X97482760Y-104308341D01*
X97482711Y-104308307D01*
X97474461Y-104302653D01*
X97470382Y-104299916D01*
X97462036Y-104294435D01*
X97462035Y-104294434D01*
X97331159Y-104234663D01*
X97264114Y-104214976D01*
X97202044Y-104206052D01*
X97121697Y-104194500D01*
X89524000Y-104194500D01*
X89523991Y-104194500D01*
X89523990Y-104194501D01*
X89416549Y-104206052D01*
X89416537Y-104206054D01*
X89365027Y-104217260D01*
X89262502Y-104251383D01*
X89262496Y-104251386D01*
X89141462Y-104329171D01*
X89141451Y-104329179D01*
X89088659Y-104374923D01*
X88994433Y-104483664D01*
X88994430Y-104483668D01*
X88934664Y-104614534D01*
X88914976Y-104681582D01*
X88908490Y-104726697D01*
X88894500Y-104824000D01*
X88894500Y-109876000D01*
X88894501Y-109876009D01*
X88906052Y-109983450D01*
X88906054Y-109983462D01*
X88917260Y-110034972D01*
X88951383Y-110137497D01*
X88951386Y-110137503D01*
X89029171Y-110258537D01*
X89029179Y-110258548D01*
X89074923Y-110311340D01*
X89074926Y-110311343D01*
X89074930Y-110311347D01*
X89183664Y-110405567D01*
X89183667Y-110405568D01*
X89183668Y-110405569D01*
X89300899Y-110459108D01*
X89314541Y-110465338D01*
X89381580Y-110485023D01*
X89381584Y-110485024D01*
X89524000Y-110505500D01*
X89524003Y-110505500D01*
X91721690Y-110505500D01*
X91721697Y-110505500D01*
X91731772Y-110505400D01*
X91736688Y-110505302D01*
X91746653Y-110505005D01*
X91888145Y-110478898D01*
X91888149Y-110478896D01*
X91888152Y-110478896D01*
X91946830Y-110459108D01*
X91947636Y-110458892D01*
X91954352Y-110456570D01*
X91954357Y-110456570D01*
X92082762Y-110391657D01*
X92192093Y-110315102D01*
X92210810Y-110304295D01*
X92250825Y-110285635D01*
X92254617Y-110283866D01*
X92323694Y-110273374D01*
X92339110Y-110276471D01*
X92373308Y-110285635D01*
X92535230Y-110299801D01*
X92599998Y-110305468D01*
X92600000Y-110305468D01*
X92600002Y-110305468D01*
X92656673Y-110300509D01*
X92826692Y-110285635D01*
X92860881Y-110276474D01*
X92930730Y-110278137D01*
X92945379Y-110283867D01*
X92949170Y-110285635D01*
X92989185Y-110304294D01*
X93007903Y-110315101D01*
X93117241Y-110391660D01*
X93125538Y-110397346D01*
X93129617Y-110400083D01*
X93129631Y-110400092D01*
X93137967Y-110405567D01*
X93268844Y-110465338D01*
X93335883Y-110485023D01*
X93335887Y-110485024D01*
X93478303Y-110505500D01*
X100839254Y-110505500D01*
X100906293Y-110525185D01*
X100926935Y-110541819D01*
X104363681Y-113978565D01*
X104397166Y-114039888D01*
X104400000Y-114066246D01*
X104400000Y-128815500D01*
X104380315Y-128882539D01*
X104327511Y-128928294D01*
X104276000Y-128939500D01*
X77002425Y-128939500D01*
X76997557Y-128939404D01*
X76538859Y-128921382D01*
X76529152Y-128920618D01*
X76075695Y-128866947D01*
X76066079Y-128865424D01*
X75618230Y-128776341D01*
X75608762Y-128774068D01*
X75169291Y-128650124D01*
X75160031Y-128647116D01*
X74731621Y-128489067D01*
X74722626Y-128485341D01*
X74307938Y-128294168D01*
X74299277Y-128289755D01*
X73900854Y-128066627D01*
X73892573Y-128061552D01*
X73864830Y-128043015D01*
X73512899Y-127807862D01*
X73505022Y-127802139D01*
X73219623Y-127577149D01*
X73146423Y-127519442D01*
X73139023Y-127513122D01*
X73074849Y-127453800D01*
X72803709Y-127203161D01*
X72796838Y-127196290D01*
X72486872Y-126860970D01*
X72480554Y-126853573D01*
X72404394Y-126756965D01*
X72197857Y-126494974D01*
X72192137Y-126487100D01*
X72182898Y-126473273D01*
X71938442Y-126107417D01*
X71933376Y-126099152D01*
X71710239Y-125700713D01*
X71705831Y-125692061D01*
X71702351Y-125684513D01*
X71514658Y-125277373D01*
X71510932Y-125268378D01*
X71352883Y-124839968D01*
X71349875Y-124830708D01*
X71322840Y-124734848D01*
X71225930Y-124391233D01*
X71223658Y-124381769D01*
X71196558Y-124245530D01*
X71134574Y-123933914D01*
X71133052Y-123924304D01*
X71079379Y-123470828D01*
X71078618Y-123461158D01*
X71060596Y-123002443D01*
X71060548Y-122999996D01*
X72194661Y-122999996D01*
X72194661Y-123000003D01*
X72214005Y-123430737D01*
X72214005Y-123430745D01*
X72214006Y-123430747D01*
X72219438Y-123470847D01*
X72271885Y-123858027D01*
X72367830Y-124278391D01*
X72501073Y-124688472D01*
X72501076Y-124688480D01*
X72670533Y-125084947D01*
X72670537Y-125084955D01*
X72738647Y-125211523D01*
X72874863Y-125464655D01*
X72874867Y-125464661D01*
X72874867Y-125464662D01*
X73112394Y-125824501D01*
X73112404Y-125824514D01*
X73381225Y-126161607D01*
X73381235Y-126161618D01*
X73381236Y-126161619D01*
X73679210Y-126473274D01*
X74003920Y-126756965D01*
X74003930Y-126756972D01*
X74003931Y-126756973D01*
X74339524Y-127000796D01*
X74352753Y-127010407D01*
X74722900Y-127231560D01*
X74722903Y-127231561D01*
X74722904Y-127231562D01*
X74722906Y-127231563D01*
X75111372Y-127418639D01*
X75111386Y-127418645D01*
X75515055Y-127570144D01*
X75515059Y-127570145D01*
X75515069Y-127570149D01*
X75930711Y-127684859D01*
X76354964Y-127761850D01*
X76784409Y-127800500D01*
X76784416Y-127800500D01*
X77215584Y-127800500D01*
X77215591Y-127800500D01*
X77645036Y-127761850D01*
X78069289Y-127684859D01*
X78484931Y-127570149D01*
X78888619Y-127418643D01*
X79277100Y-127231560D01*
X79647247Y-127010407D01*
X79996080Y-126756965D01*
X80320790Y-126473274D01*
X80618764Y-126161619D01*
X80661982Y-126107426D01*
X80887595Y-125824514D01*
X80887601Y-125824507D01*
X81125137Y-125464655D01*
X81329461Y-125084958D01*
X81498926Y-124688475D01*
X81632168Y-124278397D01*
X81728115Y-123858026D01*
X81785994Y-123430747D01*
X81805339Y-123000000D01*
X81785994Y-122569253D01*
X81728115Y-122141974D01*
X81632168Y-121721603D01*
X81498926Y-121311525D01*
X81374641Y-121020745D01*
X81329466Y-120915052D01*
X81329462Y-120915044D01*
X81329461Y-120915042D01*
X81125137Y-120535345D01*
X81084783Y-120474211D01*
X80887605Y-120175498D01*
X80887595Y-120175485D01*
X80618774Y-119838392D01*
X80618762Y-119838379D01*
X80320794Y-119526730D01*
X80320793Y-119526729D01*
X80320790Y-119526726D01*
X79996080Y-119243035D01*
X79929188Y-119194435D01*
X79647256Y-118989599D01*
X79647251Y-118989596D01*
X79647247Y-118989593D01*
X79277100Y-118768440D01*
X79277095Y-118768437D01*
X79277093Y-118768436D01*
X78888627Y-118581360D01*
X78888613Y-118581354D01*
X78484944Y-118429855D01*
X78484919Y-118429847D01*
X78069295Y-118315142D01*
X77645043Y-118238151D01*
X77645040Y-118238150D01*
X77645036Y-118238150D01*
X77215591Y-118199500D01*
X76784409Y-118199500D01*
X76354964Y-118238150D01*
X76354960Y-118238150D01*
X76354956Y-118238151D01*
X75930704Y-118315142D01*
X75515080Y-118429847D01*
X75515055Y-118429855D01*
X75111386Y-118581354D01*
X75111372Y-118581360D01*
X74722906Y-118768436D01*
X74722904Y-118768437D01*
X74352743Y-118989599D01*
X74003931Y-119243026D01*
X74003914Y-119243039D01*
X73679210Y-119526726D01*
X73679205Y-119526730D01*
X73381237Y-119838379D01*
X73381225Y-119838392D01*
X73112404Y-120175485D01*
X73112394Y-120175498D01*
X72874867Y-120535337D01*
X72874867Y-120535338D01*
X72670537Y-120915044D01*
X72670533Y-120915052D01*
X72501076Y-121311519D01*
X72501073Y-121311527D01*
X72367830Y-121721608D01*
X72271885Y-122141972D01*
X72214006Y-122569253D01*
X72214005Y-122569262D01*
X72194661Y-122999996D01*
X71060548Y-122999996D01*
X71060500Y-122997575D01*
X71060500Y-102499995D01*
X74794451Y-102499995D01*
X74794451Y-102500004D01*
X74814616Y-102769101D01*
X74874664Y-103032188D01*
X74874666Y-103032195D01*
X74946163Y-103214366D01*
X74973257Y-103283398D01*
X75108185Y-103517102D01*
X75244080Y-103687509D01*
X75276442Y-103728089D01*
X75407832Y-103850000D01*
X75474259Y-103911635D01*
X75697226Y-104063651D01*
X75940359Y-104180738D01*
X76198228Y-104260280D01*
X76198229Y-104260280D01*
X76198232Y-104260281D01*
X76465063Y-104300499D01*
X76465068Y-104300499D01*
X76465071Y-104300500D01*
X76465072Y-104300500D01*
X76734928Y-104300500D01*
X76734929Y-104300500D01*
X76775168Y-104294435D01*
X77001767Y-104260281D01*
X77001768Y-104260280D01*
X77001772Y-104260280D01*
X77259641Y-104180738D01*
X77502775Y-104063651D01*
X77725741Y-103911635D01*
X77879259Y-103769190D01*
X77923557Y-103728089D01*
X77923557Y-103728087D01*
X77923561Y-103728085D01*
X78091815Y-103517102D01*
X78226743Y-103283398D01*
X78325334Y-103032195D01*
X78385383Y-102769103D01*
X78405549Y-102500000D01*
X78403994Y-102479255D01*
X78385383Y-102230898D01*
X78385383Y-102230897D01*
X78325334Y-101967805D01*
X78226743Y-101716602D01*
X78091815Y-101482898D01*
X77923561Y-101271915D01*
X77923560Y-101271914D01*
X77923557Y-101271910D01*
X77725741Y-101088365D01*
X77502775Y-100936349D01*
X77502769Y-100936346D01*
X77502768Y-100936345D01*
X77502767Y-100936344D01*
X77259643Y-100819263D01*
X77259645Y-100819263D01*
X77001773Y-100739720D01*
X77001767Y-100739718D01*
X76734936Y-100699500D01*
X76734929Y-100699500D01*
X76465071Y-100699500D01*
X76465063Y-100699500D01*
X76198232Y-100739718D01*
X76198226Y-100739720D01*
X75940358Y-100819262D01*
X75697230Y-100936346D01*
X75474258Y-101088365D01*
X75276442Y-101271910D01*
X75108185Y-101482898D01*
X74973258Y-101716599D01*
X74973256Y-101716603D01*
X74874666Y-101967804D01*
X74874664Y-101967811D01*
X74814616Y-102230898D01*
X74794451Y-102499995D01*
X71060500Y-102499995D01*
X71060500Y-93799996D01*
X88294435Y-93799996D01*
X88294435Y-93800003D01*
X88314630Y-93979249D01*
X88314631Y-93979254D01*
X88374211Y-94149523D01*
X88470184Y-94302262D01*
X88597738Y-94429816D01*
X88750478Y-94525789D01*
X88920745Y-94585368D01*
X88920750Y-94585369D01*
X89099996Y-94605565D01*
X89100000Y-94605565D01*
X89100004Y-94605565D01*
X89279249Y-94585369D01*
X89279252Y-94585368D01*
X89279255Y-94585368D01*
X89449522Y-94525789D01*
X89602262Y-94429816D01*
X89729816Y-94302262D01*
X89825789Y-94149522D01*
X89885368Y-93979255D01*
X89885369Y-93979249D01*
X89905565Y-93800003D01*
X89905565Y-93799996D01*
X89885369Y-93620750D01*
X89885368Y-93620745D01*
X89838892Y-93487925D01*
X89825789Y-93450478D01*
X89729816Y-93297738D01*
X89602262Y-93170184D01*
X89449523Y-93074211D01*
X89279254Y-93014631D01*
X89279249Y-93014630D01*
X89100004Y-92994435D01*
X89099996Y-92994435D01*
X88920750Y-93014630D01*
X88920745Y-93014631D01*
X88750476Y-93074211D01*
X88597737Y-93170184D01*
X88470184Y-93297737D01*
X88374211Y-93450476D01*
X88314631Y-93620745D01*
X88314630Y-93620750D01*
X88294435Y-93799996D01*
X71060500Y-93799996D01*
X71060500Y-93073920D01*
X76689499Y-93073920D01*
X76718340Y-93218907D01*
X76718343Y-93218917D01*
X76774912Y-93355488D01*
X76774919Y-93355501D01*
X76857048Y-93478415D01*
X76857051Y-93478419D01*
X76961580Y-93582948D01*
X76961584Y-93582951D01*
X77084498Y-93665080D01*
X77084511Y-93665087D01*
X77221082Y-93721656D01*
X77221087Y-93721658D01*
X77221091Y-93721658D01*
X77221092Y-93721659D01*
X77366079Y-93750500D01*
X77366082Y-93750500D01*
X77513920Y-93750500D01*
X77611462Y-93731096D01*
X77658913Y-93721658D01*
X77795495Y-93665084D01*
X77918416Y-93582951D01*
X78022951Y-93478416D01*
X78105084Y-93355495D01*
X78161658Y-93218913D01*
X78171351Y-93170184D01*
X78190500Y-93073920D01*
X78190500Y-92926079D01*
X78161659Y-92781092D01*
X78161658Y-92781091D01*
X78161658Y-92781087D01*
X78115721Y-92670184D01*
X78105087Y-92644511D01*
X78105080Y-92644498D01*
X78022951Y-92521584D01*
X78022948Y-92521580D01*
X77918419Y-92417051D01*
X77918415Y-92417048D01*
X77795501Y-92334919D01*
X77795488Y-92334912D01*
X77658917Y-92278343D01*
X77658907Y-92278340D01*
X77513920Y-92249500D01*
X77513918Y-92249500D01*
X77366082Y-92249500D01*
X77366080Y-92249500D01*
X77221092Y-92278340D01*
X77221082Y-92278343D01*
X77084511Y-92334912D01*
X77084498Y-92334919D01*
X76961584Y-92417048D01*
X76961580Y-92417051D01*
X76857051Y-92521580D01*
X76857048Y-92521584D01*
X76774919Y-92644498D01*
X76774912Y-92644511D01*
X76718343Y-92781082D01*
X76718340Y-92781092D01*
X76689500Y-92926079D01*
X76689500Y-92926082D01*
X76689500Y-93073918D01*
X76689500Y-93073920D01*
X76689499Y-93073920D01*
X71060500Y-93073920D01*
X71060500Y-89999994D01*
X74994357Y-89999994D01*
X74994357Y-90000005D01*
X75014890Y-90247812D01*
X75014892Y-90247824D01*
X75075936Y-90488881D01*
X75175826Y-90716606D01*
X75311833Y-90924782D01*
X75311836Y-90924785D01*
X75480256Y-91107738D01*
X75676491Y-91260474D01*
X75895190Y-91378828D01*
X76130386Y-91459571D01*
X76375665Y-91500500D01*
X76624335Y-91500500D01*
X76869614Y-91459571D01*
X77104810Y-91378828D01*
X77323509Y-91260474D01*
X77519744Y-91107738D01*
X77688164Y-90924785D01*
X77824173Y-90716607D01*
X77924063Y-90488881D01*
X77985108Y-90247821D01*
X77985109Y-90247812D01*
X78005643Y-90000005D01*
X78005643Y-89999994D01*
X77985109Y-89752187D01*
X77985107Y-89752175D01*
X77924063Y-89511118D01*
X77824173Y-89283393D01*
X77688166Y-89075217D01*
X77666557Y-89051744D01*
X77519744Y-88892262D01*
X77323509Y-88739526D01*
X77323507Y-88739525D01*
X77323506Y-88739524D01*
X77104811Y-88621172D01*
X77104802Y-88621169D01*
X76869616Y-88540429D01*
X76624335Y-88499500D01*
X76375665Y-88499500D01*
X76130383Y-88540429D01*
X75895197Y-88621169D01*
X75895188Y-88621172D01*
X75676493Y-88739524D01*
X75480257Y-88892261D01*
X75311833Y-89075217D01*
X75175826Y-89283393D01*
X75075936Y-89511118D01*
X75014892Y-89752175D01*
X75014890Y-89752187D01*
X74994357Y-89999994D01*
X71060500Y-89999994D01*
X71060500Y-87073920D01*
X76689499Y-87073920D01*
X76718340Y-87218907D01*
X76718343Y-87218917D01*
X76774912Y-87355488D01*
X76774919Y-87355501D01*
X76857048Y-87478415D01*
X76857051Y-87478419D01*
X76961580Y-87582948D01*
X76961584Y-87582951D01*
X77084498Y-87665080D01*
X77084511Y-87665087D01*
X77221082Y-87721656D01*
X77221087Y-87721658D01*
X77221091Y-87721658D01*
X77221092Y-87721659D01*
X77366079Y-87750500D01*
X77366082Y-87750500D01*
X77513920Y-87750500D01*
X77617906Y-87729815D01*
X77658913Y-87721658D01*
X77795495Y-87665084D01*
X77918416Y-87582951D01*
X78022951Y-87478416D01*
X78105084Y-87355495D01*
X78161658Y-87218913D01*
X78171096Y-87171462D01*
X78185313Y-87099996D01*
X110794435Y-87099996D01*
X110794435Y-87100003D01*
X110814630Y-87279249D01*
X110814631Y-87279254D01*
X110874211Y-87449523D01*
X110892366Y-87478416D01*
X110970184Y-87602262D01*
X111097738Y-87729816D01*
X111250478Y-87825789D01*
X111420745Y-87885368D01*
X111420750Y-87885369D01*
X111599996Y-87905565D01*
X111600000Y-87905565D01*
X111600004Y-87905565D01*
X111779249Y-87885369D01*
X111779252Y-87885368D01*
X111779255Y-87885368D01*
X111949522Y-87825789D01*
X112102262Y-87729816D01*
X112229816Y-87602262D01*
X112325789Y-87449522D01*
X112385368Y-87279255D01*
X112385369Y-87279249D01*
X112405565Y-87100003D01*
X112405565Y-87099996D01*
X112385369Y-86920750D01*
X112385368Y-86920745D01*
X112336501Y-86781092D01*
X112325789Y-86750478D01*
X112229816Y-86597738D01*
X112102262Y-86470184D01*
X111949523Y-86374211D01*
X111779254Y-86314631D01*
X111779249Y-86314630D01*
X111600004Y-86294435D01*
X111599996Y-86294435D01*
X111420750Y-86314630D01*
X111420745Y-86314631D01*
X111250476Y-86374211D01*
X111097737Y-86470184D01*
X110970184Y-86597737D01*
X110874211Y-86750476D01*
X110814631Y-86920745D01*
X110814630Y-86920750D01*
X110794435Y-87099996D01*
X78185313Y-87099996D01*
X78190500Y-87073920D01*
X78190500Y-86926079D01*
X78161659Y-86781092D01*
X78161658Y-86781091D01*
X78161658Y-86781087D01*
X78161656Y-86781082D01*
X78105087Y-86644511D01*
X78105080Y-86644498D01*
X78022951Y-86521584D01*
X78022948Y-86521580D01*
X77918419Y-86417051D01*
X77918415Y-86417048D01*
X77795501Y-86334919D01*
X77795488Y-86334912D01*
X77658917Y-86278343D01*
X77658907Y-86278340D01*
X77513920Y-86249500D01*
X77513918Y-86249500D01*
X77366082Y-86249500D01*
X77366080Y-86249500D01*
X77221092Y-86278340D01*
X77221082Y-86278343D01*
X77084511Y-86334912D01*
X77084498Y-86334919D01*
X76961584Y-86417048D01*
X76961580Y-86417051D01*
X76857051Y-86521580D01*
X76857048Y-86521584D01*
X76774919Y-86644498D01*
X76774912Y-86644511D01*
X76718343Y-86781082D01*
X76718340Y-86781092D01*
X76689500Y-86926079D01*
X76689500Y-86926082D01*
X76689500Y-87073918D01*
X76689500Y-87073920D01*
X76689499Y-87073920D01*
X71060500Y-87073920D01*
X71060500Y-82999996D01*
X123394435Y-82999996D01*
X123394435Y-83000003D01*
X123414630Y-83179249D01*
X123414631Y-83179254D01*
X123474211Y-83349523D01*
X123570184Y-83502262D01*
X123697738Y-83629816D01*
X123850478Y-83725789D01*
X124020745Y-83785368D01*
X124020750Y-83785369D01*
X124199996Y-83805565D01*
X124200000Y-83805565D01*
X124200004Y-83805565D01*
X124379249Y-83785369D01*
X124379252Y-83785368D01*
X124379255Y-83785368D01*
X124549522Y-83725789D01*
X124702262Y-83629816D01*
X124829816Y-83502262D01*
X124925789Y-83349522D01*
X124985368Y-83179255D01*
X125005565Y-83000000D01*
X124985368Y-82820745D01*
X124925789Y-82650478D01*
X124925788Y-82650476D01*
X124925788Y-82650475D01*
X124898215Y-82606594D01*
X124879214Y-82539357D01*
X124899581Y-82472522D01*
X124952849Y-82427307D01*
X125022105Y-82418069D01*
X125044163Y-82423580D01*
X125220737Y-82485366D01*
X125220743Y-82485367D01*
X125220745Y-82485368D01*
X125220746Y-82485368D01*
X125220750Y-82485369D01*
X125399996Y-82505565D01*
X125400000Y-82505565D01*
X125400004Y-82505565D01*
X125579249Y-82485369D01*
X125579252Y-82485368D01*
X125579255Y-82485368D01*
X125749522Y-82425789D01*
X125902262Y-82329816D01*
X126029816Y-82202262D01*
X126125789Y-82049522D01*
X126185368Y-81879255D01*
X126205565Y-81700000D01*
X126185368Y-81520745D01*
X126125789Y-81350478D01*
X126029816Y-81197738D01*
X125902262Y-81070184D01*
X125749523Y-80974211D01*
X125579254Y-80914631D01*
X125579249Y-80914630D01*
X125400004Y-80894435D01*
X125399996Y-80894435D01*
X125220750Y-80914630D01*
X125220745Y-80914631D01*
X125050476Y-80974211D01*
X124897737Y-81070184D01*
X124770184Y-81197737D01*
X124674211Y-81350476D01*
X124614631Y-81520745D01*
X124614630Y-81520750D01*
X124594435Y-81699996D01*
X124594435Y-81700003D01*
X124614630Y-81879249D01*
X124614631Y-81879254D01*
X124674211Y-82049523D01*
X124701785Y-82093406D01*
X124720785Y-82160643D01*
X124700417Y-82227478D01*
X124647150Y-82272692D01*
X124577893Y-82281930D01*
X124555837Y-82276420D01*
X124379257Y-82214632D01*
X124379249Y-82214630D01*
X124200004Y-82194435D01*
X124199996Y-82194435D01*
X124020750Y-82214630D01*
X124020745Y-82214631D01*
X123850476Y-82274211D01*
X123697737Y-82370184D01*
X123570184Y-82497737D01*
X123474211Y-82650476D01*
X123414631Y-82820745D01*
X123414630Y-82820750D01*
X123394435Y-82999996D01*
X71060500Y-82999996D01*
X71060500Y-77924000D01*
X84894500Y-77924000D01*
X84894500Y-82076000D01*
X84894501Y-82076009D01*
X84906052Y-82183450D01*
X84906054Y-82183462D01*
X84917260Y-82234972D01*
X84951383Y-82337497D01*
X84951386Y-82337503D01*
X85029171Y-82458537D01*
X85029179Y-82458548D01*
X85074923Y-82511340D01*
X85074926Y-82511343D01*
X85074930Y-82511347D01*
X85183664Y-82605567D01*
X85183667Y-82605568D01*
X85183668Y-82605569D01*
X85281998Y-82650476D01*
X85314541Y-82665338D01*
X85381580Y-82685023D01*
X85381584Y-82685024D01*
X85524000Y-82705500D01*
X85524003Y-82705500D01*
X94075990Y-82705500D01*
X94076000Y-82705500D01*
X94183456Y-82693947D01*
X94234967Y-82682741D01*
X94269197Y-82671347D01*
X94337497Y-82648616D01*
X94337499Y-82648614D01*
X94337504Y-82648613D01*
X94429273Y-82589635D01*
X94496311Y-82569951D01*
X94563350Y-82589635D01*
X94577512Y-82600236D01*
X94583664Y-82605567D01*
X94583667Y-82605568D01*
X94583668Y-82605569D01*
X94681998Y-82650476D01*
X94714541Y-82665338D01*
X94781580Y-82685023D01*
X94781584Y-82685024D01*
X94924000Y-82705500D01*
X94924003Y-82705500D01*
X96775990Y-82705500D01*
X96776000Y-82705500D01*
X96883456Y-82693947D01*
X96934967Y-82682741D01*
X96969197Y-82671347D01*
X97037497Y-82648616D01*
X97037501Y-82648613D01*
X97037504Y-82648613D01*
X97158543Y-82570825D01*
X97211347Y-82525070D01*
X97305567Y-82416336D01*
X97365338Y-82285459D01*
X97385023Y-82218420D01*
X97385024Y-82218416D01*
X97405500Y-82076000D01*
X97405500Y-80149821D01*
X97425185Y-80082782D01*
X97477989Y-80037027D01*
X97547147Y-80027083D01*
X97570455Y-80032780D01*
X97720737Y-80085366D01*
X97720743Y-80085367D01*
X97720745Y-80085368D01*
X97720746Y-80085368D01*
X97720750Y-80085369D01*
X97899996Y-80105565D01*
X97900000Y-80105565D01*
X97900004Y-80105565D01*
X98079249Y-80085369D01*
X98079252Y-80085368D01*
X98079255Y-80085368D01*
X98249522Y-80025789D01*
X98402262Y-79929816D01*
X98529816Y-79802262D01*
X98625789Y-79649522D01*
X98685368Y-79479255D01*
X98705565Y-79300000D01*
X98705565Y-79299996D01*
X103794435Y-79299996D01*
X103794435Y-79300003D01*
X103814630Y-79479249D01*
X103814631Y-79479254D01*
X103874211Y-79649523D01*
X103924662Y-79729815D01*
X103970184Y-79802262D01*
X104097738Y-79929816D01*
X104250478Y-80025789D01*
X104413355Y-80082782D01*
X104420745Y-80085368D01*
X104420750Y-80085369D01*
X104599996Y-80105565D01*
X104600000Y-80105565D01*
X104600004Y-80105565D01*
X104779249Y-80085369D01*
X104779252Y-80085368D01*
X104779255Y-80085368D01*
X104949522Y-80025789D01*
X105102262Y-79929816D01*
X105229816Y-79802262D01*
X105325789Y-79649522D01*
X105385368Y-79479255D01*
X105405565Y-79300000D01*
X105385368Y-79120745D01*
X105378108Y-79099996D01*
X115794435Y-79099996D01*
X115794435Y-79100003D01*
X115814630Y-79279249D01*
X115814631Y-79279254D01*
X115874211Y-79449523D01*
X115970184Y-79602262D01*
X116097738Y-79729816D01*
X116250478Y-79825789D01*
X116420745Y-79885368D01*
X116420750Y-79885369D01*
X116599996Y-79905565D01*
X116600000Y-79905565D01*
X116600004Y-79905565D01*
X116779249Y-79885369D01*
X116779252Y-79885368D01*
X116779255Y-79885368D01*
X116949522Y-79825789D01*
X117102262Y-79729816D01*
X117229816Y-79602262D01*
X117325789Y-79449522D01*
X117385368Y-79279255D01*
X117405565Y-79100000D01*
X117388718Y-78950478D01*
X117385369Y-78920750D01*
X117385368Y-78920745D01*
X117342326Y-78797738D01*
X117325789Y-78750478D01*
X117229816Y-78597738D01*
X117102262Y-78470184D01*
X117070424Y-78450179D01*
X116949523Y-78374211D01*
X116779254Y-78314631D01*
X116779249Y-78314630D01*
X116600004Y-78294435D01*
X116599996Y-78294435D01*
X116420750Y-78314630D01*
X116420745Y-78314631D01*
X116250476Y-78374211D01*
X116097737Y-78470184D01*
X115970184Y-78597737D01*
X115874211Y-78750476D01*
X115814631Y-78920745D01*
X115814630Y-78920750D01*
X115794435Y-79099996D01*
X105378108Y-79099996D01*
X105325789Y-78950478D01*
X105307106Y-78920745D01*
X105229815Y-78797737D01*
X105102262Y-78670184D01*
X104949523Y-78574211D01*
X104779254Y-78514631D01*
X104779249Y-78514630D01*
X104600004Y-78494435D01*
X104599996Y-78494435D01*
X104420750Y-78514630D01*
X104420745Y-78514631D01*
X104250476Y-78574211D01*
X104097737Y-78670184D01*
X103970184Y-78797737D01*
X103874211Y-78950476D01*
X103814631Y-79120745D01*
X103814630Y-79120750D01*
X103794435Y-79299996D01*
X98705565Y-79299996D01*
X98685368Y-79120745D01*
X98625789Y-78950478D01*
X98607106Y-78920745D01*
X98529815Y-78797737D01*
X98402262Y-78670184D01*
X98249523Y-78574211D01*
X98079254Y-78514631D01*
X98079249Y-78514630D01*
X97900004Y-78494435D01*
X97899996Y-78494435D01*
X97720750Y-78514630D01*
X97720737Y-78514633D01*
X97570455Y-78567220D01*
X97500676Y-78570782D01*
X97440049Y-78536054D01*
X97407821Y-78474060D01*
X97405500Y-78450179D01*
X97405500Y-77924010D01*
X97405500Y-77924000D01*
X151794500Y-77924000D01*
X151794500Y-84876000D01*
X151794501Y-84876009D01*
X151806052Y-84983450D01*
X151806054Y-84983462D01*
X151817260Y-85034972D01*
X151851383Y-85137497D01*
X151851386Y-85137503D01*
X151929171Y-85258537D01*
X151929179Y-85258548D01*
X151974923Y-85311340D01*
X151974926Y-85311343D01*
X151974930Y-85311347D01*
X152083664Y-85405567D01*
X152083667Y-85405568D01*
X152083668Y-85405569D01*
X152177925Y-85448616D01*
X152214541Y-85465338D01*
X152281580Y-85485023D01*
X152281584Y-85485024D01*
X152424000Y-85505500D01*
X152424003Y-85505500D01*
X167575990Y-85505500D01*
X167576000Y-85505500D01*
X167683456Y-85493947D01*
X167734967Y-85482741D01*
X167769197Y-85471347D01*
X167837497Y-85448616D01*
X167837499Y-85448614D01*
X167837504Y-85448613D01*
X167929273Y-85389635D01*
X167996311Y-85369951D01*
X168063350Y-85389635D01*
X168077512Y-85400236D01*
X168083664Y-85405567D01*
X168083667Y-85405568D01*
X168083668Y-85405569D01*
X168177925Y-85448616D01*
X168214541Y-85465338D01*
X168281580Y-85485023D01*
X168281584Y-85485024D01*
X168424000Y-85505500D01*
X168424003Y-85505500D01*
X171775990Y-85505500D01*
X171776000Y-85505500D01*
X171883456Y-85493947D01*
X171934967Y-85482741D01*
X171969197Y-85471347D01*
X172037497Y-85448616D01*
X172037501Y-85448613D01*
X172037504Y-85448613D01*
X172158543Y-85370825D01*
X172211347Y-85325070D01*
X172305567Y-85216336D01*
X172365338Y-85085459D01*
X172385023Y-85018420D01*
X172385024Y-85018416D01*
X172405500Y-84876000D01*
X172405500Y-77924000D01*
X172393947Y-77816544D01*
X172382741Y-77765033D01*
X172382637Y-77764722D01*
X172348616Y-77662502D01*
X172348613Y-77662496D01*
X172270828Y-77541462D01*
X172270825Y-77541457D01*
X172270820Y-77541451D01*
X172225076Y-77488659D01*
X172225072Y-77488656D01*
X172225070Y-77488653D01*
X172116336Y-77394433D01*
X172116333Y-77394431D01*
X172116331Y-77394430D01*
X171985465Y-77334664D01*
X171985460Y-77334662D01*
X171985459Y-77334662D01*
X171918420Y-77314977D01*
X171918422Y-77314977D01*
X171918417Y-77314976D01*
X171856347Y-77306052D01*
X171776000Y-77294500D01*
X168424000Y-77294500D01*
X168423991Y-77294500D01*
X168423990Y-77294501D01*
X168316549Y-77306052D01*
X168316537Y-77306054D01*
X168265027Y-77317260D01*
X168162502Y-77351383D01*
X168162498Y-77351385D01*
X168070726Y-77410364D01*
X168003687Y-77430048D01*
X167936647Y-77410363D01*
X167922483Y-77399759D01*
X167916339Y-77394435D01*
X167916331Y-77394430D01*
X167785465Y-77334664D01*
X167785460Y-77334662D01*
X167785459Y-77334662D01*
X167718420Y-77314977D01*
X167718422Y-77314977D01*
X167718417Y-77314976D01*
X167656347Y-77306052D01*
X167576000Y-77294500D01*
X152424000Y-77294500D01*
X152423991Y-77294500D01*
X152423990Y-77294501D01*
X152316549Y-77306052D01*
X152316537Y-77306054D01*
X152265027Y-77317260D01*
X152162502Y-77351383D01*
X152162496Y-77351386D01*
X152041462Y-77429171D01*
X152041451Y-77429179D01*
X151988659Y-77474923D01*
X151894433Y-77583664D01*
X151894430Y-77583668D01*
X151834664Y-77714534D01*
X151814976Y-77781582D01*
X151809949Y-77816549D01*
X151794500Y-77924000D01*
X97405500Y-77924000D01*
X97393947Y-77816544D01*
X97382741Y-77765033D01*
X97382637Y-77764722D01*
X97348616Y-77662502D01*
X97348613Y-77662496D01*
X97270828Y-77541462D01*
X97270825Y-77541457D01*
X97270820Y-77541451D01*
X97225076Y-77488659D01*
X97225072Y-77488656D01*
X97225070Y-77488653D01*
X97116336Y-77394433D01*
X97116333Y-77394431D01*
X97116331Y-77394430D01*
X96985465Y-77334664D01*
X96985460Y-77334662D01*
X96985459Y-77334662D01*
X96918420Y-77314977D01*
X96918422Y-77314977D01*
X96918417Y-77314976D01*
X96856347Y-77306052D01*
X96776000Y-77294500D01*
X94924000Y-77294500D01*
X94923991Y-77294500D01*
X94923990Y-77294501D01*
X94816549Y-77306052D01*
X94816537Y-77306054D01*
X94765027Y-77317260D01*
X94662502Y-77351383D01*
X94662498Y-77351385D01*
X94570726Y-77410364D01*
X94503687Y-77430048D01*
X94436647Y-77410363D01*
X94422483Y-77399759D01*
X94416339Y-77394435D01*
X94416331Y-77394430D01*
X94285465Y-77334664D01*
X94285460Y-77334662D01*
X94285459Y-77334662D01*
X94218420Y-77314977D01*
X94218422Y-77314977D01*
X94218417Y-77314976D01*
X94156347Y-77306052D01*
X94076000Y-77294500D01*
X85524000Y-77294500D01*
X85523991Y-77294500D01*
X85523990Y-77294501D01*
X85416549Y-77306052D01*
X85416537Y-77306054D01*
X85365027Y-77317260D01*
X85262502Y-77351383D01*
X85262496Y-77351386D01*
X85141462Y-77429171D01*
X85141451Y-77429179D01*
X85088659Y-77474923D01*
X84994433Y-77583664D01*
X84994430Y-77583668D01*
X84934664Y-77714534D01*
X84914976Y-77781582D01*
X84909949Y-77816549D01*
X84894500Y-77924000D01*
X71060500Y-77924000D01*
X71060500Y-77124000D01*
X71080185Y-77056961D01*
X71132989Y-77011206D01*
X71184500Y-77000000D01*
X188815500Y-77000000D01*
X188882539Y-77019685D01*
G37*
%TD.AperFunction*%
%TD*%
%TA.AperFunction,Conductor*%
%TO.N,GND_PWR*%
G36*
X156100000Y-125700000D02*
G01*
X145124000Y-125700000D01*
X145056961Y-125680315D01*
X145011206Y-125627511D01*
X145000000Y-125576000D01*
X145000000Y-117400000D01*
X146494540Y-117400000D01*
X146514326Y-117588256D01*
X146514327Y-117588259D01*
X146572818Y-117768277D01*
X146572821Y-117768284D01*
X146667467Y-117932216D01*
X146794129Y-118072888D01*
X146947265Y-118184148D01*
X146947270Y-118184151D01*
X147120192Y-118261142D01*
X147120197Y-118261144D01*
X147305354Y-118300500D01*
X147305355Y-118300500D01*
X147494644Y-118300500D01*
X147494646Y-118300500D01*
X147679803Y-118261144D01*
X147852730Y-118184151D01*
X148005871Y-118072888D01*
X148132533Y-117932216D01*
X148227179Y-117768284D01*
X148285674Y-117588256D01*
X148305460Y-117400000D01*
X148285674Y-117211744D01*
X148227179Y-117031716D01*
X148132533Y-116867784D01*
X148005871Y-116727112D01*
X148005870Y-116727111D01*
X147852734Y-116615851D01*
X147852729Y-116615848D01*
X147679807Y-116538857D01*
X147679802Y-116538855D01*
X147534001Y-116507865D01*
X147494646Y-116499500D01*
X147305354Y-116499500D01*
X147272897Y-116506398D01*
X147120197Y-116538855D01*
X147120192Y-116538857D01*
X146947270Y-116615848D01*
X146947265Y-116615851D01*
X146794129Y-116727111D01*
X146667466Y-116867785D01*
X146572821Y-117031715D01*
X146572818Y-117031722D01*
X146514327Y-117211740D01*
X146514326Y-117211744D01*
X146494540Y-117400000D01*
X145000000Y-117400000D01*
X145000000Y-115824000D01*
X145019685Y-115756961D01*
X145072489Y-115711206D01*
X145124000Y-115700000D01*
X152300000Y-115700000D01*
X156100000Y-115700000D01*
X156100000Y-125700000D01*
G37*
%TD.AperFunction*%
%TD*%
%TA.AperFunction,Conductor*%
%TO.N,+VOUT*%
G36*
X167643039Y-77819685D02*
G01*
X167688794Y-77872489D01*
X167700000Y-77924000D01*
X167700000Y-84876000D01*
X167680315Y-84943039D01*
X167627511Y-84988794D01*
X167576000Y-85000000D01*
X152424000Y-85000000D01*
X152356961Y-84980315D01*
X152311206Y-84927511D01*
X152300000Y-84876000D01*
X152300000Y-77924000D01*
X152319685Y-77856961D01*
X152372489Y-77811206D01*
X152424000Y-77800000D01*
X167576000Y-77800000D01*
X167643039Y-77819685D01*
G37*
%TD.AperFunction*%
%TD*%
%TA.AperFunction,Conductor*%
%TO.N,+VOUT_OUT*%
G36*
X171843039Y-77819685D02*
G01*
X171888794Y-77872489D01*
X171900000Y-77924000D01*
X171900000Y-84876000D01*
X171880315Y-84943039D01*
X171827511Y-84988794D01*
X171776000Y-85000000D01*
X168424000Y-85000000D01*
X168356961Y-84980315D01*
X168311206Y-84927511D01*
X168300000Y-84876000D01*
X168300000Y-77924000D01*
X168319685Y-77856961D01*
X168372489Y-77811206D01*
X168424000Y-77800000D01*
X171776000Y-77800000D01*
X171843039Y-77819685D01*
G37*
%TD.AperFunction*%
%TD*%
%TA.AperFunction,Conductor*%
%TO.N,+VOUT_OUT*%
G36*
X186043039Y-89919685D02*
G01*
X186088794Y-89972489D01*
X186100000Y-90024000D01*
X186100000Y-99876000D01*
X186080315Y-99943039D01*
X186027511Y-99988794D01*
X185976000Y-100000000D01*
X178924000Y-100000000D01*
X178856961Y-99980315D01*
X178811206Y-99927511D01*
X178800000Y-99876000D01*
X178800000Y-90024000D01*
X178819685Y-89956961D01*
X178872489Y-89911206D01*
X178924000Y-89900000D01*
X185976000Y-89900000D01*
X186043039Y-89919685D01*
G37*
%TD.AperFunction*%
%TD*%
%TA.AperFunction,Conductor*%
%TO.N,+12V*%
G36*
X106543039Y-91819685D02*
G01*
X106588794Y-91872489D01*
X106600000Y-91924000D01*
X106600000Y-94776000D01*
X106580315Y-94843039D01*
X106527511Y-94888794D01*
X106476000Y-94900000D01*
X101924000Y-94900000D01*
X101856961Y-94880315D01*
X101811206Y-94827511D01*
X101800000Y-94776000D01*
X101800000Y-91924000D01*
X101819685Y-91856961D01*
X101872489Y-91811206D01*
X101924000Y-91800000D01*
X106476000Y-91800000D01*
X106543039Y-91819685D01*
G37*
%TD.AperFunction*%
%TD*%
%TA.AperFunction,Conductor*%
%TO.N,+3V3*%
G36*
X86550245Y-61079454D02*
G01*
X86631027Y-61133430D01*
X86685003Y-61214212D01*
X86703957Y-61309500D01*
X86685003Y-61404788D01*
X86663671Y-61456287D01*
X86663670Y-61456289D01*
X86663670Y-61456291D01*
X86644750Y-61600000D01*
X86663670Y-61743709D01*
X86663670Y-61743711D01*
X86663671Y-61743712D01*
X86663671Y-61743714D01*
X86719136Y-61877621D01*
X86719141Y-61877628D01*
X86807374Y-61992616D01*
X86807383Y-61992625D01*
X86922371Y-62080858D01*
X86922378Y-62080863D01*
X87056286Y-62136328D01*
X87056291Y-62136330D01*
X87200000Y-62155250D01*
X87343709Y-62136330D01*
X87343714Y-62136328D01*
X87477621Y-62080863D01*
X87477622Y-62080862D01*
X87477625Y-62080861D01*
X87592621Y-61992621D01*
X87680861Y-61877625D01*
X87685767Y-61865782D01*
X87736328Y-61743714D01*
X87736328Y-61743713D01*
X87736330Y-61743709D01*
X87755250Y-61600000D01*
X87736330Y-61456291D01*
X87714996Y-61404787D01*
X87696043Y-61309499D01*
X87714997Y-61214211D01*
X87768974Y-61133430D01*
X87849755Y-61079454D01*
X87945043Y-61060500D01*
X182980343Y-61060500D01*
X182995112Y-61060500D01*
X183004886Y-61060691D01*
X183456253Y-61078425D01*
X183475701Y-61079956D01*
X183919424Y-61132474D01*
X183938726Y-61135531D01*
X184376974Y-61222704D01*
X184395965Y-61227264D01*
X184825993Y-61348545D01*
X184844568Y-61354580D01*
X185263770Y-61509232D01*
X185281832Y-61516713D01*
X185687602Y-61703775D01*
X185705014Y-61712648D01*
X186094846Y-61930965D01*
X186111504Y-61941172D01*
X186483025Y-62189414D01*
X186498818Y-62200888D01*
X186849725Y-62477521D01*
X186864583Y-62490212D01*
X187192676Y-62793498D01*
X187206501Y-62807323D01*
X187509787Y-63135416D01*
X187522480Y-63150276D01*
X187799108Y-63501177D01*
X187810589Y-63516980D01*
X188058823Y-63888489D01*
X188069038Y-63905159D01*
X188287349Y-64294981D01*
X188296226Y-64312402D01*
X188483285Y-64718166D01*
X188490767Y-64736229D01*
X188645416Y-65155422D01*
X188651457Y-65174016D01*
X188772732Y-65604024D01*
X188777297Y-65623035D01*
X188864467Y-66061268D01*
X188867525Y-66080579D01*
X188920041Y-66524276D01*
X188921575Y-66543768D01*
X188939308Y-66995113D01*
X188939500Y-67004888D01*
X188939500Y-74751000D01*
X188920546Y-74846288D01*
X188866570Y-74927070D01*
X188785788Y-74981046D01*
X188690500Y-75000000D01*
X171449000Y-75000000D01*
X171353712Y-74981046D01*
X171272930Y-74927070D01*
X171218954Y-74846288D01*
X171200000Y-74751000D01*
X171200000Y-73500000D01*
X177544750Y-73500000D01*
X177563670Y-73643709D01*
X177563670Y-73643711D01*
X177563671Y-73643712D01*
X177563671Y-73643714D01*
X177619136Y-73777621D01*
X177619141Y-73777628D01*
X177707374Y-73892616D01*
X177707383Y-73892625D01*
X177822371Y-73980858D01*
X177822378Y-73980863D01*
X177914792Y-74019141D01*
X177956291Y-74036330D01*
X178100000Y-74055250D01*
X178243709Y-74036330D01*
X178243714Y-74036328D01*
X178377621Y-73980863D01*
X178377622Y-73980862D01*
X178377625Y-73980861D01*
X178492621Y-73892621D01*
X178580861Y-73777625D01*
X178636330Y-73643709D01*
X178655250Y-73500000D01*
X178636330Y-73356291D01*
X178613014Y-73300000D01*
X178580863Y-73222378D01*
X178580858Y-73222371D01*
X178492625Y-73107383D01*
X178492616Y-73107374D01*
X178377628Y-73019141D01*
X178377621Y-73019136D01*
X178243713Y-72963671D01*
X178243710Y-72963670D01*
X178243709Y-72963670D01*
X178100000Y-72944750D01*
X177956291Y-72963670D01*
X177956289Y-72963670D01*
X177956287Y-72963671D01*
X177956285Y-72963671D01*
X177822378Y-73019136D01*
X177822371Y-73019141D01*
X177707383Y-73107374D01*
X177707374Y-73107383D01*
X177619141Y-73222371D01*
X177619136Y-73222378D01*
X177563671Y-73356285D01*
X177563671Y-73356287D01*
X177563670Y-73356289D01*
X177563670Y-73356291D01*
X177544750Y-73500000D01*
X171200000Y-73500000D01*
X171200000Y-70463217D01*
X171218954Y-70367929D01*
X171272930Y-70287147D01*
X171297413Y-70265676D01*
X171392621Y-70192621D01*
X171480861Y-70077625D01*
X171494910Y-70043709D01*
X171536328Y-69943714D01*
X171536328Y-69943713D01*
X171536330Y-69943709D01*
X171555250Y-69800000D01*
X171536330Y-69656291D01*
X171522282Y-69622375D01*
X171480863Y-69522378D01*
X171480858Y-69522371D01*
X171392625Y-69407383D01*
X171392618Y-69407376D01*
X171297417Y-69334325D01*
X171233359Y-69261280D01*
X171202130Y-69169281D01*
X171200000Y-69136781D01*
X171200000Y-68100000D01*
X177444750Y-68100000D01*
X177463670Y-68243709D01*
X177463670Y-68243711D01*
X177463671Y-68243712D01*
X177463671Y-68243714D01*
X177519136Y-68377621D01*
X177519141Y-68377628D01*
X177607374Y-68492616D01*
X177607383Y-68492625D01*
X177722371Y-68580858D01*
X177722378Y-68580863D01*
X177853599Y-68635215D01*
X177856291Y-68636330D01*
X178000000Y-68655250D01*
X178143709Y-68636330D01*
X178143714Y-68636328D01*
X178277621Y-68580863D01*
X178277621Y-68580862D01*
X178277625Y-68580861D01*
X178361103Y-68516805D01*
X178448238Y-68473835D01*
X178545185Y-68467480D01*
X178637184Y-68498709D01*
X178710229Y-68562767D01*
X178748775Y-68635215D01*
X178752247Y-68645574D01*
X178922209Y-69030501D01*
X179126948Y-69398080D01*
X179126963Y-69398104D01*
X179364734Y-69745205D01*
X179364743Y-69745218D01*
X179364748Y-69745224D01*
X179529570Y-69943712D01*
X179633548Y-70068927D01*
X179931073Y-70366452D01*
X179931078Y-70366456D01*
X179931080Y-70366458D01*
X179948425Y-70380861D01*
X180254782Y-70635257D01*
X180254794Y-70635265D01*
X180601895Y-70873036D01*
X180601919Y-70873051D01*
X180764612Y-70963670D01*
X180969501Y-71077792D01*
X181354414Y-71247748D01*
X181753366Y-71381463D01*
X181753372Y-71381464D01*
X181753374Y-71381465D01*
X182162950Y-71477796D01*
X182162951Y-71477796D01*
X182162955Y-71477797D01*
X182579684Y-71535929D01*
X182579690Y-71535929D01*
X182579692Y-71535930D01*
X182999992Y-71555361D01*
X183000000Y-71555361D01*
X183000008Y-71555361D01*
X183420307Y-71535930D01*
X183420308Y-71535929D01*
X183420316Y-71535929D01*
X183837045Y-71477797D01*
X184246634Y-71381463D01*
X184645586Y-71247748D01*
X185030499Y-71077792D01*
X185398089Y-70873046D01*
X185411777Y-70863670D01*
X185622765Y-70719139D01*
X185745218Y-70635257D01*
X186068927Y-70366452D01*
X186366452Y-70068927D01*
X186635257Y-69745218D01*
X186818563Y-69477625D01*
X186873036Y-69398104D01*
X186873038Y-69398099D01*
X186873046Y-69398089D01*
X187077792Y-69030499D01*
X187247748Y-68645586D01*
X187381463Y-68246634D01*
X187477797Y-67837045D01*
X187535929Y-67420316D01*
X187535929Y-67420308D01*
X187535930Y-67420307D01*
X187555361Y-67000007D01*
X187555361Y-66999992D01*
X187535930Y-66579692D01*
X187535929Y-66579690D01*
X187535929Y-66579684D01*
X187477797Y-66162955D01*
X187473270Y-66143709D01*
X187381465Y-65753374D01*
X187381464Y-65753371D01*
X187381463Y-65753366D01*
X187247748Y-65354414D01*
X187077792Y-64969501D01*
X186937800Y-64718166D01*
X186873051Y-64601919D01*
X186873036Y-64601895D01*
X186635265Y-64254794D01*
X186635257Y-64254782D01*
X186453936Y-64036426D01*
X186366458Y-63931080D01*
X186366456Y-63931078D01*
X186366452Y-63931073D01*
X186068927Y-63633548D01*
X186065107Y-63630376D01*
X185745224Y-63364748D01*
X185745218Y-63364743D01*
X185732880Y-63356291D01*
X185398104Y-63126963D01*
X185398080Y-63126948D01*
X185030501Y-62922209D01*
X184779427Y-62811349D01*
X184645586Y-62752252D01*
X184645585Y-62752251D01*
X184645579Y-62752249D01*
X184246628Y-62618535D01*
X184246625Y-62618534D01*
X183837049Y-62522203D01*
X183420309Y-62464070D01*
X183420307Y-62464069D01*
X183000008Y-62444639D01*
X182999992Y-62444639D01*
X182579692Y-62464069D01*
X182579690Y-62464070D01*
X182162950Y-62522203D01*
X181753374Y-62618534D01*
X181753371Y-62618535D01*
X181354420Y-62752249D01*
X180969498Y-62922209D01*
X180601919Y-63126948D01*
X180601895Y-63126963D01*
X180254794Y-63364734D01*
X180254775Y-63364748D01*
X179931080Y-63633541D01*
X179633541Y-63931080D01*
X179364748Y-64254775D01*
X179364734Y-64254794D01*
X179126963Y-64601895D01*
X179126948Y-64601919D01*
X178922209Y-64969498D01*
X178752249Y-65354420D01*
X178618535Y-65753371D01*
X178618534Y-65753374D01*
X178522203Y-66162950D01*
X178464070Y-66579690D01*
X178464069Y-66579692D01*
X178444639Y-66999992D01*
X178444639Y-67000008D01*
X178459073Y-67312241D01*
X178444540Y-67408303D01*
X178394351Y-67491491D01*
X178316149Y-67549140D01*
X178221838Y-67572474D01*
X178159892Y-67565770D01*
X178159889Y-67565801D01*
X178158580Y-67565628D01*
X178145895Y-67564256D01*
X178143712Y-67563671D01*
X178143711Y-67563670D01*
X178143709Y-67563670D01*
X178000000Y-67544750D01*
X177856291Y-67563670D01*
X177856289Y-67563670D01*
X177856287Y-67563671D01*
X177856285Y-67563671D01*
X177722378Y-67619136D01*
X177722371Y-67619141D01*
X177607383Y-67707374D01*
X177607374Y-67707383D01*
X177519141Y-67822371D01*
X177519136Y-67822378D01*
X177463671Y-67956285D01*
X177463671Y-67956287D01*
X177463670Y-67956289D01*
X177463670Y-67956291D01*
X177444750Y-68100000D01*
X171200000Y-68100000D01*
X171200000Y-67686518D01*
X171218954Y-67591230D01*
X171272930Y-67510448D01*
X171353712Y-67456472D01*
X171449000Y-67437518D01*
X171481498Y-67439648D01*
X171523053Y-67445119D01*
X171599996Y-67455250D01*
X171599997Y-67455249D01*
X171600000Y-67455250D01*
X171743709Y-67436330D01*
X171743714Y-67436328D01*
X171877621Y-67380863D01*
X171877622Y-67380862D01*
X171877625Y-67380861D01*
X171992621Y-67292621D01*
X172080861Y-67177625D01*
X172105087Y-67119139D01*
X172136328Y-67043714D01*
X172136328Y-67043713D01*
X172136330Y-67043709D01*
X172155250Y-66900000D01*
X172744750Y-66900000D01*
X172763670Y-67043709D01*
X172763670Y-67043711D01*
X172763671Y-67043712D01*
X172763671Y-67043714D01*
X172819136Y-67177621D01*
X172819141Y-67177628D01*
X172907374Y-67292616D01*
X172907383Y-67292625D01*
X173022371Y-67380858D01*
X173022378Y-67380863D01*
X173117607Y-67420307D01*
X173156291Y-67436330D01*
X173300000Y-67455250D01*
X173443709Y-67436330D01*
X173443714Y-67436328D01*
X173577621Y-67380863D01*
X173577622Y-67380862D01*
X173577625Y-67380861D01*
X173692621Y-67292621D01*
X173780861Y-67177625D01*
X173805087Y-67119139D01*
X173836328Y-67043714D01*
X173836328Y-67043713D01*
X173836330Y-67043709D01*
X173855250Y-66900000D01*
X175744750Y-66900000D01*
X175763670Y-67043709D01*
X175763670Y-67043711D01*
X175763671Y-67043712D01*
X175763671Y-67043714D01*
X175819136Y-67177621D01*
X175819141Y-67177628D01*
X175907374Y-67292616D01*
X175907383Y-67292625D01*
X176022371Y-67380858D01*
X176022378Y-67380863D01*
X176117607Y-67420307D01*
X176156291Y-67436330D01*
X176300000Y-67455250D01*
X176443709Y-67436330D01*
X176443714Y-67436328D01*
X176577621Y-67380863D01*
X176577622Y-67380862D01*
X176577625Y-67380861D01*
X176692621Y-67292621D01*
X176780861Y-67177625D01*
X176805087Y-67119139D01*
X176836328Y-67043714D01*
X176836328Y-67043713D01*
X176836330Y-67043709D01*
X176855250Y-66900000D01*
X176836330Y-66756291D01*
X176836328Y-66756285D01*
X176780863Y-66622378D01*
X176780858Y-66622371D01*
X176692625Y-66507383D01*
X176692616Y-66507374D01*
X176577628Y-66419141D01*
X176577621Y-66419136D01*
X176443713Y-66363671D01*
X176443710Y-66363670D01*
X176443709Y-66363670D01*
X176300000Y-66344750D01*
X176156291Y-66363670D01*
X176156289Y-66363670D01*
X176156287Y-66363671D01*
X176156285Y-66363671D01*
X176022378Y-66419136D01*
X176022371Y-66419141D01*
X175907383Y-66507374D01*
X175907374Y-66507383D01*
X175819141Y-66622371D01*
X175819136Y-66622378D01*
X175763671Y-66756285D01*
X175763671Y-66756287D01*
X175763670Y-66756289D01*
X175763670Y-66756291D01*
X175744750Y-66900000D01*
X173855250Y-66900000D01*
X173836330Y-66756291D01*
X173836328Y-66756285D01*
X173780863Y-66622378D01*
X173780858Y-66622371D01*
X173692625Y-66507383D01*
X173692616Y-66507374D01*
X173577628Y-66419141D01*
X173577621Y-66419136D01*
X173443713Y-66363671D01*
X173443710Y-66363670D01*
X173443709Y-66363670D01*
X173300000Y-66344750D01*
X173156291Y-66363670D01*
X173156289Y-66363670D01*
X173156287Y-66363671D01*
X173156285Y-66363671D01*
X173022378Y-66419136D01*
X173022371Y-66419141D01*
X172907383Y-66507374D01*
X172907374Y-66507383D01*
X172819141Y-66622371D01*
X172819136Y-66622378D01*
X172763671Y-66756285D01*
X172763671Y-66756287D01*
X172763670Y-66756289D01*
X172763670Y-66756291D01*
X172744750Y-66900000D01*
X172155250Y-66900000D01*
X172136330Y-66756291D01*
X172136328Y-66756285D01*
X172080863Y-66622378D01*
X172080858Y-66622371D01*
X171992625Y-66507383D01*
X171992616Y-66507374D01*
X171877628Y-66419141D01*
X171877621Y-66419136D01*
X171743713Y-66363671D01*
X171743710Y-66363670D01*
X171743709Y-66363670D01*
X171600000Y-66344750D01*
X171599999Y-66344750D01*
X171481501Y-66360351D01*
X171384554Y-66353997D01*
X171297419Y-66311026D01*
X171233360Y-66237981D01*
X171202130Y-66145982D01*
X171200000Y-66113481D01*
X171200000Y-65786518D01*
X171218954Y-65691230D01*
X171272930Y-65610448D01*
X171353712Y-65556472D01*
X171449000Y-65537518D01*
X171481498Y-65539648D01*
X171523053Y-65545119D01*
X171599996Y-65555250D01*
X171599997Y-65555249D01*
X171600000Y-65555250D01*
X171743709Y-65536330D01*
X171743714Y-65536328D01*
X171877621Y-65480863D01*
X171877622Y-65480862D01*
X171877625Y-65480861D01*
X171992621Y-65392621D01*
X172080861Y-65277625D01*
X172086028Y-65265152D01*
X172136328Y-65143714D01*
X172136328Y-65143713D01*
X172136330Y-65143709D01*
X172142085Y-65100000D01*
X175144750Y-65100000D01*
X175163670Y-65243709D01*
X175163670Y-65243711D01*
X175163671Y-65243712D01*
X175163671Y-65243714D01*
X175219136Y-65377621D01*
X175219141Y-65377628D01*
X175307374Y-65492616D01*
X175307383Y-65492625D01*
X175422371Y-65580858D01*
X175422378Y-65580863D01*
X175556286Y-65636328D01*
X175556291Y-65636330D01*
X175700000Y-65655250D01*
X175843709Y-65636330D01*
X175843714Y-65636328D01*
X175977621Y-65580863D01*
X175977622Y-65580862D01*
X175977625Y-65580861D01*
X176092621Y-65492621D01*
X176180861Y-65377625D01*
X176222281Y-65277628D01*
X176236328Y-65243714D01*
X176236328Y-65243713D01*
X176236330Y-65243709D01*
X176255250Y-65100000D01*
X176236330Y-64956291D01*
X176235082Y-64953278D01*
X176180863Y-64822378D01*
X176180858Y-64822371D01*
X176092625Y-64707383D01*
X176092616Y-64707374D01*
X175977628Y-64619141D01*
X175977621Y-64619136D01*
X175843713Y-64563671D01*
X175843710Y-64563670D01*
X175843709Y-64563670D01*
X175700000Y-64544750D01*
X175556291Y-64563670D01*
X175556289Y-64563670D01*
X175556287Y-64563671D01*
X175556285Y-64563671D01*
X175422378Y-64619136D01*
X175422371Y-64619141D01*
X175307383Y-64707374D01*
X175307374Y-64707383D01*
X175219141Y-64822371D01*
X175219136Y-64822378D01*
X175163671Y-64956285D01*
X175163671Y-64956287D01*
X175163670Y-64956289D01*
X175163670Y-64956291D01*
X175144750Y-65100000D01*
X172142085Y-65100000D01*
X172155250Y-65000000D01*
X172136330Y-64856291D01*
X172132187Y-64846288D01*
X172080863Y-64722378D01*
X172080858Y-64722371D01*
X171992625Y-64607383D01*
X171992616Y-64607374D01*
X171877628Y-64519141D01*
X171877621Y-64519136D01*
X171743713Y-64463671D01*
X171743710Y-64463670D01*
X171743709Y-64463670D01*
X171600000Y-64444750D01*
X171599999Y-64444750D01*
X171481501Y-64460351D01*
X171384554Y-64453997D01*
X171297419Y-64411026D01*
X171233360Y-64337981D01*
X171202130Y-64245982D01*
X171200000Y-64213481D01*
X171200000Y-61900001D01*
X171200000Y-61900000D01*
X171199999Y-61900000D01*
X135000001Y-61900000D01*
X135000000Y-61900000D01*
X135000000Y-61900001D01*
X135000000Y-64751000D01*
X134981046Y-64846288D01*
X134927070Y-64927070D01*
X134846288Y-64981046D01*
X134751000Y-65000000D01*
X134106000Y-65000000D01*
X134095816Y-64999500D01*
X134088691Y-64999500D01*
X133911309Y-64999500D01*
X133904184Y-64999500D01*
X133894000Y-65000000D01*
X133249000Y-65000000D01*
X133153712Y-64981046D01*
X133072930Y-64927070D01*
X133018954Y-64846288D01*
X133000000Y-64751000D01*
X133000000Y-61900001D01*
X133000000Y-61900000D01*
X132999999Y-61900000D01*
X90200001Y-61900000D01*
X90200000Y-61900000D01*
X88100000Y-64000000D01*
X88100000Y-64000001D01*
X88100000Y-66100315D01*
X88081046Y-66195603D01*
X88027070Y-66276385D01*
X87946288Y-66330361D01*
X87851000Y-66349315D01*
X87818503Y-66347185D01*
X87800005Y-66344750D01*
X87800003Y-66344750D01*
X87800001Y-66344750D01*
X87800000Y-66344750D01*
X87656291Y-66363670D01*
X87656289Y-66363670D01*
X87656287Y-66363671D01*
X87656285Y-66363671D01*
X87522378Y-66419136D01*
X87522371Y-66419141D01*
X87407383Y-66507374D01*
X87407374Y-66507383D01*
X87319141Y-66622371D01*
X87319136Y-66622378D01*
X87263671Y-66756285D01*
X87263671Y-66756287D01*
X87263670Y-66756289D01*
X87263670Y-66756291D01*
X87244750Y-66900000D01*
X87263670Y-67043709D01*
X87263670Y-67043711D01*
X87263671Y-67043712D01*
X87263671Y-67043714D01*
X87319136Y-67177621D01*
X87319141Y-67177628D01*
X87407374Y-67292616D01*
X87407383Y-67292625D01*
X87522371Y-67380858D01*
X87522378Y-67380863D01*
X87617607Y-67420307D01*
X87656291Y-67436330D01*
X87800000Y-67455250D01*
X87816486Y-67453079D01*
X87818496Y-67452815D01*
X87915443Y-67459168D01*
X88002579Y-67502137D01*
X88066639Y-67575181D01*
X88097869Y-67667180D01*
X88100000Y-67699684D01*
X88100000Y-74751000D01*
X88081046Y-74846288D01*
X88027070Y-74927070D01*
X87946288Y-74981046D01*
X87851000Y-75000000D01*
X83861404Y-75000000D01*
X83766116Y-74981046D01*
X83685334Y-74927070D01*
X83631358Y-74846288D01*
X83612404Y-74751000D01*
X83631358Y-74655712D01*
X83631359Y-74655710D01*
X83636330Y-74643709D01*
X83655250Y-74500000D01*
X83636330Y-74356291D01*
X83636328Y-74356285D01*
X83580863Y-74222378D01*
X83580858Y-74222371D01*
X83492625Y-74107383D01*
X83492616Y-74107374D01*
X83377628Y-74019141D01*
X83377621Y-74019136D01*
X83243713Y-73963671D01*
X83243710Y-73963670D01*
X83243709Y-73963670D01*
X83100000Y-73944750D01*
X82956291Y-73963670D01*
X82956289Y-73963670D01*
X82956287Y-73963671D01*
X82956285Y-73963671D01*
X82822378Y-74019136D01*
X82822371Y-74019141D01*
X82707383Y-74107374D01*
X82707374Y-74107383D01*
X82619141Y-74222371D01*
X82619136Y-74222378D01*
X82563671Y-74356285D01*
X82563671Y-74356287D01*
X82563670Y-74356289D01*
X82563670Y-74356291D01*
X82544750Y-74500000D01*
X82563670Y-74643709D01*
X82563670Y-74643711D01*
X82563671Y-74643712D01*
X82568641Y-74655710D01*
X82587596Y-74750998D01*
X82568643Y-74846286D01*
X82514667Y-74927068D01*
X82433886Y-74981045D01*
X82338598Y-75000000D01*
X71309500Y-75000000D01*
X71214212Y-74981046D01*
X71133430Y-74927070D01*
X71079454Y-74846288D01*
X71060500Y-74751000D01*
X71060500Y-67004888D01*
X71060596Y-66999992D01*
X72444639Y-66999992D01*
X72444639Y-67000007D01*
X72464069Y-67420307D01*
X72464070Y-67420309D01*
X72522203Y-67837049D01*
X72618534Y-68246625D01*
X72618535Y-68246628D01*
X72752249Y-68645579D01*
X72922209Y-69030501D01*
X73126948Y-69398080D01*
X73126963Y-69398104D01*
X73364734Y-69745205D01*
X73364743Y-69745218D01*
X73364748Y-69745224D01*
X73529570Y-69943712D01*
X73633548Y-70068927D01*
X73931073Y-70366452D01*
X73931078Y-70366456D01*
X73931080Y-70366458D01*
X73948425Y-70380861D01*
X74254782Y-70635257D01*
X74254794Y-70635265D01*
X74601895Y-70873036D01*
X74601919Y-70873051D01*
X74764612Y-70963670D01*
X74969501Y-71077792D01*
X75354414Y-71247748D01*
X75753366Y-71381463D01*
X75753372Y-71381464D01*
X75753374Y-71381465D01*
X76162950Y-71477796D01*
X76162951Y-71477796D01*
X76162955Y-71477797D01*
X76579684Y-71535929D01*
X76579690Y-71535929D01*
X76579692Y-71535930D01*
X76999992Y-71555361D01*
X77000000Y-71555361D01*
X77000008Y-71555361D01*
X77420307Y-71535930D01*
X77420308Y-71535929D01*
X77420316Y-71535929D01*
X77837045Y-71477797D01*
X78167819Y-71400000D01*
X81344750Y-71400000D01*
X81363670Y-71543709D01*
X81363670Y-71543711D01*
X81363671Y-71543712D01*
X81363671Y-71543714D01*
X81419136Y-71677621D01*
X81419141Y-71677628D01*
X81507374Y-71792616D01*
X81507383Y-71792625D01*
X81622371Y-71880858D01*
X81622378Y-71880863D01*
X81756286Y-71936328D01*
X81756291Y-71936330D01*
X81900000Y-71955250D01*
X82043709Y-71936330D01*
X82043714Y-71936328D01*
X82177621Y-71880863D01*
X82177622Y-71880862D01*
X82177625Y-71880861D01*
X82292621Y-71792621D01*
X82380861Y-71677625D01*
X82394910Y-71643709D01*
X82436328Y-71543714D01*
X82436328Y-71543713D01*
X82436330Y-71543709D01*
X82455250Y-71400000D01*
X82436330Y-71256291D01*
X82436328Y-71256285D01*
X82380863Y-71122378D01*
X82380858Y-71122371D01*
X82292625Y-71007383D01*
X82292616Y-71007374D01*
X82177628Y-70919141D01*
X82177621Y-70919136D01*
X82043713Y-70863671D01*
X82043710Y-70863670D01*
X82043709Y-70863670D01*
X81900000Y-70844750D01*
X81756291Y-70863670D01*
X81756289Y-70863670D01*
X81756287Y-70863671D01*
X81756285Y-70863671D01*
X81622378Y-70919136D01*
X81622371Y-70919141D01*
X81507383Y-71007374D01*
X81507374Y-71007383D01*
X81419141Y-71122371D01*
X81419136Y-71122378D01*
X81363671Y-71256285D01*
X81363671Y-71256287D01*
X81363670Y-71256289D01*
X81363670Y-71256291D01*
X81344750Y-71400000D01*
X78167819Y-71400000D01*
X78246634Y-71381463D01*
X78645586Y-71247748D01*
X79030499Y-71077792D01*
X79398089Y-70873046D01*
X79411777Y-70863670D01*
X79622765Y-70719139D01*
X79745218Y-70635257D01*
X80068927Y-70366452D01*
X80366452Y-70068927D01*
X80635257Y-69745218D01*
X80818563Y-69477625D01*
X80873036Y-69398104D01*
X80873038Y-69398099D01*
X80873046Y-69398089D01*
X81077792Y-69030499D01*
X81247748Y-68645586D01*
X81381463Y-68246634D01*
X81477797Y-67837045D01*
X81535929Y-67420316D01*
X81535929Y-67420308D01*
X81535930Y-67420307D01*
X81555361Y-67000007D01*
X81555361Y-66999992D01*
X81535930Y-66579692D01*
X81535929Y-66579690D01*
X81535929Y-66579684D01*
X81496914Y-66300000D01*
X84144750Y-66300000D01*
X84163670Y-66443709D01*
X84163670Y-66443711D01*
X84163671Y-66443712D01*
X84163671Y-66443714D01*
X84219136Y-66577621D01*
X84219141Y-66577628D01*
X84307374Y-66692616D01*
X84307383Y-66692625D01*
X84422371Y-66780858D01*
X84422378Y-66780863D01*
X84550835Y-66834070D01*
X84556291Y-66836330D01*
X84700000Y-66855250D01*
X84843709Y-66836330D01*
X84843719Y-66836325D01*
X84852140Y-66834070D01*
X84949087Y-66827716D01*
X85041086Y-66858946D01*
X85114131Y-66923005D01*
X85157102Y-67010140D01*
X85163454Y-67042072D01*
X85163668Y-67043703D01*
X85163671Y-67043714D01*
X85219136Y-67177621D01*
X85219141Y-67177628D01*
X85307374Y-67292616D01*
X85307383Y-67292625D01*
X85422371Y-67380858D01*
X85422378Y-67380863D01*
X85517607Y-67420307D01*
X85556291Y-67436330D01*
X85700000Y-67455250D01*
X85843709Y-67436330D01*
X85843714Y-67436328D01*
X85977621Y-67380863D01*
X85977622Y-67380862D01*
X85977625Y-67380861D01*
X86092621Y-67292621D01*
X86180861Y-67177625D01*
X86205087Y-67119139D01*
X86236328Y-67043714D01*
X86236328Y-67043713D01*
X86236330Y-67043709D01*
X86255250Y-66900000D01*
X86236330Y-66756291D01*
X86236328Y-66756285D01*
X86180863Y-66622378D01*
X86180858Y-66622371D01*
X86092625Y-66507383D01*
X86092616Y-66507374D01*
X85977628Y-66419141D01*
X85977621Y-66419136D01*
X85843713Y-66363671D01*
X85843710Y-66363670D01*
X85843709Y-66363670D01*
X85700000Y-66344750D01*
X85556291Y-66363670D01*
X85556290Y-66363670D01*
X85556284Y-66363671D01*
X85547847Y-66365932D01*
X85450900Y-66372281D01*
X85358902Y-66341047D01*
X85285860Y-66276985D01*
X85242894Y-66189847D01*
X85236545Y-66157927D01*
X85236330Y-66156291D01*
X85231550Y-66144750D01*
X85180863Y-66022378D01*
X85180858Y-66022371D01*
X85092625Y-65907383D01*
X85092616Y-65907374D01*
X84977628Y-65819141D01*
X84977621Y-65819136D01*
X84843713Y-65763671D01*
X84843710Y-65763670D01*
X84843709Y-65763670D01*
X84700000Y-65744750D01*
X84556291Y-65763670D01*
X84556289Y-65763670D01*
X84556287Y-65763671D01*
X84556285Y-65763671D01*
X84422378Y-65819136D01*
X84422371Y-65819141D01*
X84307383Y-65907374D01*
X84307374Y-65907383D01*
X84219141Y-66022371D01*
X84219136Y-66022378D01*
X84163671Y-66156285D01*
X84163671Y-66156287D01*
X84163670Y-66156289D01*
X84163670Y-66156291D01*
X84144750Y-66300000D01*
X81496914Y-66300000D01*
X81477797Y-66162955D01*
X81473270Y-66143709D01*
X81381465Y-65753374D01*
X81381464Y-65753371D01*
X81381463Y-65753366D01*
X81247748Y-65354414D01*
X81077792Y-64969501D01*
X80937800Y-64718166D01*
X80873051Y-64601919D01*
X80873036Y-64601895D01*
X80635265Y-64254794D01*
X80635257Y-64254782D01*
X80453936Y-64036426D01*
X80366458Y-63931080D01*
X80366456Y-63931078D01*
X80366452Y-63931073D01*
X80068927Y-63633548D01*
X80065107Y-63630376D01*
X79745224Y-63364748D01*
X79745218Y-63364743D01*
X79732880Y-63356291D01*
X79398104Y-63126963D01*
X79398080Y-63126948D01*
X79030501Y-62922209D01*
X78779427Y-62811349D01*
X78645586Y-62752252D01*
X78645585Y-62752251D01*
X78645579Y-62752249D01*
X78246628Y-62618535D01*
X78246625Y-62618534D01*
X77837049Y-62522203D01*
X77420309Y-62464070D01*
X77420307Y-62464069D01*
X77000008Y-62444639D01*
X76999992Y-62444639D01*
X76579692Y-62464069D01*
X76579690Y-62464070D01*
X76162950Y-62522203D01*
X75753374Y-62618534D01*
X75753371Y-62618535D01*
X75354420Y-62752249D01*
X74969498Y-62922209D01*
X74601919Y-63126948D01*
X74601895Y-63126963D01*
X74254794Y-63364734D01*
X74254775Y-63364748D01*
X73931080Y-63633541D01*
X73633541Y-63931080D01*
X73364748Y-64254775D01*
X73364734Y-64254794D01*
X73126963Y-64601895D01*
X73126948Y-64601919D01*
X72922209Y-64969498D01*
X72752249Y-65354420D01*
X72618535Y-65753371D01*
X72618534Y-65753374D01*
X72522203Y-66162950D01*
X72464070Y-66579690D01*
X72464069Y-66579692D01*
X72444639Y-66999992D01*
X71060596Y-66999992D01*
X71060692Y-66995113D01*
X71066187Y-66855249D01*
X71078425Y-66543744D01*
X71079956Y-66524300D01*
X71132475Y-66080571D01*
X71135532Y-66061268D01*
X71143268Y-66022378D01*
X71222705Y-65623020D01*
X71227263Y-65604040D01*
X71348547Y-65173999D01*
X71354577Y-65155438D01*
X71509235Y-64736219D01*
X71516714Y-64718166D01*
X71703780Y-64312386D01*
X71712642Y-64294996D01*
X71930971Y-63905141D01*
X71941165Y-63888506D01*
X72189423Y-63516962D01*
X72200879Y-63501193D01*
X72477531Y-63150261D01*
X72490204Y-63135424D01*
X72793500Y-62807320D01*
X72807323Y-62793498D01*
X73135424Y-62490204D01*
X73150261Y-62477531D01*
X73501193Y-62200879D01*
X73516962Y-62189423D01*
X73888506Y-61941165D01*
X73905141Y-61930971D01*
X74294996Y-61712642D01*
X74312386Y-61703780D01*
X74718176Y-61516709D01*
X74736219Y-61509235D01*
X75155438Y-61354577D01*
X75173999Y-61348547D01*
X75604040Y-61227263D01*
X75623020Y-61222705D01*
X76061277Y-61135530D01*
X76080571Y-61132475D01*
X76524300Y-61079956D01*
X76543744Y-61078425D01*
X76995113Y-61060691D01*
X77004888Y-61060500D01*
X77019657Y-61060500D01*
X86454957Y-61060500D01*
X86550245Y-61079454D01*
G37*
%TD.AperFunction*%
%TD*%
%TA.AperFunction,Conductor*%
%TO.N,+5V*%
G36*
X132590788Y-62174454D02*
G01*
X132671570Y-62228430D01*
X132725546Y-62309212D01*
X132744500Y-62404500D01*
X132744500Y-62861032D01*
X132725546Y-62956320D01*
X132671570Y-63037102D01*
X132590788Y-63091078D01*
X132495500Y-63110032D01*
X132400214Y-63091079D01*
X132262662Y-63034104D01*
X132088695Y-62999500D01*
X132088691Y-62999500D01*
X131911309Y-62999500D01*
X131911304Y-62999500D01*
X131737340Y-63034104D01*
X131737336Y-63034105D01*
X131737334Y-63034106D01*
X131655093Y-63068171D01*
X131573450Y-63101988D01*
X131425968Y-63200533D01*
X131300532Y-63325969D01*
X131207035Y-63465897D01*
X131138336Y-63534596D01*
X131048576Y-63571775D01*
X130951421Y-63571774D01*
X130861662Y-63534594D01*
X130792965Y-63465897D01*
X130699467Y-63325969D01*
X130699466Y-63325968D01*
X130699464Y-63325965D01*
X130574035Y-63200536D01*
X130460095Y-63124403D01*
X130426549Y-63101988D01*
X130426547Y-63101987D01*
X130262666Y-63034106D01*
X130262661Y-63034105D01*
X130262659Y-63034104D01*
X130088695Y-62999500D01*
X130088691Y-62999500D01*
X129911309Y-62999500D01*
X129911304Y-62999500D01*
X129737340Y-63034104D01*
X129737336Y-63034105D01*
X129737334Y-63034106D01*
X129655093Y-63068171D01*
X129573450Y-63101988D01*
X129425968Y-63200533D01*
X129300532Y-63325969D01*
X129207035Y-63465897D01*
X129138336Y-63534596D01*
X129048576Y-63571775D01*
X128951421Y-63571774D01*
X128861662Y-63534594D01*
X128792965Y-63465897D01*
X128699467Y-63325969D01*
X128699466Y-63325968D01*
X128699464Y-63325965D01*
X128574035Y-63200536D01*
X128460095Y-63124403D01*
X128426549Y-63101988D01*
X128426547Y-63101987D01*
X128262666Y-63034106D01*
X128262661Y-63034105D01*
X128262659Y-63034104D01*
X128088695Y-62999500D01*
X128088691Y-62999500D01*
X127911309Y-62999500D01*
X127911304Y-62999500D01*
X127737340Y-63034104D01*
X127737336Y-63034105D01*
X127737334Y-63034106D01*
X127655093Y-63068171D01*
X127573450Y-63101988D01*
X127425968Y-63200533D01*
X127300533Y-63325968D01*
X127201988Y-63473450D01*
X127201987Y-63473453D01*
X127162472Y-63568853D01*
X127134104Y-63637340D01*
X127099500Y-63811304D01*
X127099500Y-64188695D01*
X127134104Y-64362659D01*
X127134105Y-64362661D01*
X127134106Y-64362666D01*
X127194049Y-64507383D01*
X127201988Y-64526549D01*
X127300533Y-64674031D01*
X127300536Y-64674035D01*
X127425965Y-64799464D01*
X127425968Y-64799466D01*
X127425969Y-64799467D01*
X127435423Y-64807226D01*
X127433219Y-64809911D01*
X127485079Y-64861878D01*
X127522165Y-64951676D01*
X127522064Y-65048831D01*
X127484791Y-65138552D01*
X127433235Y-65190107D01*
X127435423Y-65192774D01*
X127425969Y-65200532D01*
X127300533Y-65325968D01*
X127201988Y-65473450D01*
X127134104Y-65637340D01*
X127099500Y-65811304D01*
X127099500Y-66188695D01*
X127134104Y-66362659D01*
X127134105Y-66362661D01*
X127134106Y-66362666D01*
X127195297Y-66510396D01*
X127201988Y-66526549D01*
X127300533Y-66674031D01*
X127300536Y-66674035D01*
X127425965Y-66799464D01*
X127573453Y-66898013D01*
X127737334Y-66965894D01*
X127911309Y-67000500D01*
X128088691Y-67000500D01*
X128262666Y-66965894D01*
X128426547Y-66898013D01*
X128574035Y-66799464D01*
X128699464Y-66674035D01*
X128792964Y-66534102D01*
X128861663Y-66465404D01*
X128951423Y-66428224D01*
X129048578Y-66428225D01*
X129138337Y-66465404D01*
X129207035Y-66534102D01*
X129222792Y-66557683D01*
X129295735Y-66666851D01*
X129300536Y-66674035D01*
X129425965Y-66799464D01*
X129573453Y-66898013D01*
X129737334Y-66965894D01*
X129911309Y-67000500D01*
X130088691Y-67000500D01*
X130262666Y-66965894D01*
X130426547Y-66898013D01*
X130574035Y-66799464D01*
X130699464Y-66674035D01*
X130792964Y-66534102D01*
X130861663Y-66465404D01*
X130951423Y-66428224D01*
X131048578Y-66428225D01*
X131138337Y-66465404D01*
X131207035Y-66534102D01*
X131222792Y-66557683D01*
X131295735Y-66666851D01*
X131300536Y-66674035D01*
X131425965Y-66799464D01*
X131573453Y-66898013D01*
X131737334Y-66965894D01*
X131911309Y-67000500D01*
X132088691Y-67000500D01*
X132262666Y-66965894D01*
X132426547Y-66898013D01*
X132574035Y-66799464D01*
X132699464Y-66674035D01*
X132792964Y-66534102D01*
X132861663Y-66465404D01*
X132951423Y-66428224D01*
X133048578Y-66428225D01*
X133138337Y-66465404D01*
X133207035Y-66534102D01*
X133222792Y-66557683D01*
X133295735Y-66666851D01*
X133300536Y-66674035D01*
X133425965Y-66799464D01*
X133573453Y-66898013D01*
X133737334Y-66965894D01*
X133911309Y-67000500D01*
X134088691Y-67000500D01*
X134262666Y-66965894D01*
X134426547Y-66898013D01*
X134574035Y-66799464D01*
X134699464Y-66674035D01*
X134792964Y-66534102D01*
X134861663Y-66465404D01*
X134951423Y-66428224D01*
X135048578Y-66428225D01*
X135138337Y-66465404D01*
X135207035Y-66534102D01*
X135222792Y-66557683D01*
X135295735Y-66666851D01*
X135300536Y-66674035D01*
X135425965Y-66799464D01*
X135573453Y-66898013D01*
X135737334Y-66965894D01*
X135911309Y-67000500D01*
X136088691Y-67000500D01*
X136262666Y-66965894D01*
X136426547Y-66898013D01*
X136574035Y-66799464D01*
X136699464Y-66674035D01*
X136792964Y-66534102D01*
X136861663Y-66465404D01*
X136951423Y-66428224D01*
X137048578Y-66428225D01*
X137138337Y-66465404D01*
X137207035Y-66534102D01*
X137222792Y-66557683D01*
X137295735Y-66666851D01*
X137300536Y-66674035D01*
X137425965Y-66799464D01*
X137573453Y-66898013D01*
X137737334Y-66965894D01*
X137911309Y-67000500D01*
X138088691Y-67000500D01*
X138262666Y-66965894D01*
X138426547Y-66898013D01*
X138574035Y-66799464D01*
X138699464Y-66674035D01*
X138792964Y-66534102D01*
X138861663Y-66465404D01*
X138951423Y-66428224D01*
X139048578Y-66428225D01*
X139138337Y-66465404D01*
X139207035Y-66534102D01*
X139222792Y-66557683D01*
X139295735Y-66666851D01*
X139300536Y-66674035D01*
X139425965Y-66799464D01*
X139573453Y-66898013D01*
X139737334Y-66965894D01*
X139911309Y-67000500D01*
X140088691Y-67000500D01*
X140262666Y-66965894D01*
X140426547Y-66898013D01*
X140574035Y-66799464D01*
X140699464Y-66674035D01*
X140792964Y-66534102D01*
X140861663Y-66465404D01*
X140951423Y-66428224D01*
X141048578Y-66428225D01*
X141138337Y-66465404D01*
X141207035Y-66534102D01*
X141222792Y-66557683D01*
X141295735Y-66666851D01*
X141300536Y-66674035D01*
X141425965Y-66799464D01*
X141573453Y-66898013D01*
X141737334Y-66965894D01*
X141911309Y-67000500D01*
X142088691Y-67000500D01*
X142262666Y-66965894D01*
X142426547Y-66898013D01*
X142574035Y-66799464D01*
X142673499Y-66700000D01*
X162544750Y-66700000D01*
X162563670Y-66843709D01*
X162563670Y-66843711D01*
X162563671Y-66843712D01*
X162563671Y-66843714D01*
X162619136Y-66977621D01*
X162619141Y-66977628D01*
X162707374Y-67092616D01*
X162707383Y-67092625D01*
X162822371Y-67180858D01*
X162822378Y-67180863D01*
X162956286Y-67236328D01*
X162956291Y-67236330D01*
X163083901Y-67253130D01*
X163095796Y-67257168D01*
X163116091Y-67253131D01*
X163243709Y-67236330D01*
X163243714Y-67236328D01*
X163377621Y-67180863D01*
X163377622Y-67180862D01*
X163377625Y-67180861D01*
X163492621Y-67092621D01*
X163580861Y-66977625D01*
X163581115Y-66977013D01*
X163636328Y-66843714D01*
X163636328Y-66843713D01*
X163636330Y-66843709D01*
X163655250Y-66700000D01*
X168044750Y-66700000D01*
X168063670Y-66843709D01*
X168063670Y-66843711D01*
X168063671Y-66843712D01*
X168063671Y-66843714D01*
X168119136Y-66977621D01*
X168119141Y-66977628D01*
X168207374Y-67092616D01*
X168207383Y-67092625D01*
X168322371Y-67180858D01*
X168322378Y-67180863D01*
X168456286Y-67236328D01*
X168456291Y-67236330D01*
X168600000Y-67255250D01*
X168743709Y-67236330D01*
X168743714Y-67236328D01*
X168877621Y-67180863D01*
X168877622Y-67180862D01*
X168877625Y-67180861D01*
X168992621Y-67092621D01*
X169080861Y-66977625D01*
X169081115Y-66977013D01*
X169136328Y-66843714D01*
X169136328Y-66843713D01*
X169136330Y-66843709D01*
X169155250Y-66700000D01*
X169136330Y-66556291D01*
X169135899Y-66555250D01*
X169080863Y-66422378D01*
X169080858Y-66422371D01*
X168992625Y-66307383D01*
X168992616Y-66307374D01*
X168877628Y-66219141D01*
X168877621Y-66219136D01*
X168743713Y-66163671D01*
X168743710Y-66163670D01*
X168743709Y-66163670D01*
X168600000Y-66144750D01*
X168456291Y-66163670D01*
X168456289Y-66163670D01*
X168456287Y-66163671D01*
X168456285Y-66163671D01*
X168322378Y-66219136D01*
X168322371Y-66219141D01*
X168207383Y-66307374D01*
X168207374Y-66307383D01*
X168119141Y-66422371D01*
X168119136Y-66422378D01*
X168063671Y-66556285D01*
X168063671Y-66556287D01*
X168063670Y-66556289D01*
X168063670Y-66556291D01*
X168044750Y-66700000D01*
X163655250Y-66700000D01*
X163636330Y-66556291D01*
X163635899Y-66555250D01*
X163580863Y-66422378D01*
X163580858Y-66422371D01*
X163492625Y-66307383D01*
X163492616Y-66307374D01*
X163377628Y-66219141D01*
X163377621Y-66219136D01*
X163243713Y-66163671D01*
X163243710Y-66163670D01*
X163243709Y-66163670D01*
X163100000Y-66144750D01*
X162956291Y-66163670D01*
X162956289Y-66163670D01*
X162956287Y-66163671D01*
X162956285Y-66163671D01*
X162822378Y-66219136D01*
X162822371Y-66219141D01*
X162707383Y-66307374D01*
X162707374Y-66307383D01*
X162619141Y-66422371D01*
X162619136Y-66422378D01*
X162563671Y-66556285D01*
X162563671Y-66556287D01*
X162563670Y-66556289D01*
X162563670Y-66556291D01*
X162544750Y-66700000D01*
X142673499Y-66700000D01*
X142699464Y-66674035D01*
X142798013Y-66526547D01*
X142865894Y-66362666D01*
X142900500Y-66188691D01*
X142900500Y-65811309D01*
X142865894Y-65637334D01*
X142798013Y-65473453D01*
X142723834Y-65362437D01*
X142692668Y-65315794D01*
X142694613Y-65314493D01*
X142657339Y-65244758D01*
X142647816Y-65148071D01*
X142676018Y-65055100D01*
X142737653Y-64979998D01*
X142757550Y-64967761D01*
X142756562Y-64966319D01*
X142775595Y-64953280D01*
X142775595Y-64953279D01*
X142775599Y-64953278D01*
X142853278Y-64875599D01*
X142897650Y-64775106D01*
X142900500Y-64750540D01*
X142900500Y-63249460D01*
X142897650Y-63224894D01*
X142853278Y-63124401D01*
X142775599Y-63046722D01*
X142752063Y-63036330D01*
X142675106Y-63002350D01*
X142675103Y-63002349D01*
X142650543Y-62999500D01*
X142650540Y-62999500D01*
X141349460Y-62999500D01*
X141349456Y-62999500D01*
X141324896Y-63002349D01*
X141324893Y-63002350D01*
X141224402Y-63046721D01*
X141146720Y-63124403D01*
X141094810Y-63241967D01*
X141038981Y-63321480D01*
X140956974Y-63373575D01*
X140861274Y-63390323D01*
X140766449Y-63369172D01*
X140690960Y-63317461D01*
X140574035Y-63200536D01*
X140460095Y-63124403D01*
X140426549Y-63101988D01*
X140426547Y-63101987D01*
X140262666Y-63034106D01*
X140262661Y-63034105D01*
X140262659Y-63034104D01*
X140088695Y-62999500D01*
X140088691Y-62999500D01*
X139911309Y-62999500D01*
X139911304Y-62999500D01*
X139737340Y-63034104D01*
X139737336Y-63034105D01*
X139737334Y-63034106D01*
X139655093Y-63068171D01*
X139573450Y-63101988D01*
X139425968Y-63200533D01*
X139300532Y-63325969D01*
X139207035Y-63465897D01*
X139138336Y-63534596D01*
X139048576Y-63571775D01*
X138951421Y-63571774D01*
X138861662Y-63534594D01*
X138792965Y-63465897D01*
X138699467Y-63325969D01*
X138699466Y-63325968D01*
X138699464Y-63325965D01*
X138574035Y-63200536D01*
X138460095Y-63124403D01*
X138426549Y-63101988D01*
X138426547Y-63101987D01*
X138262666Y-63034106D01*
X138262661Y-63034105D01*
X138262659Y-63034104D01*
X138088695Y-62999500D01*
X138088691Y-62999500D01*
X137911309Y-62999500D01*
X137911304Y-62999500D01*
X137737340Y-63034104D01*
X137737336Y-63034105D01*
X137737334Y-63034106D01*
X137655093Y-63068171D01*
X137573450Y-63101988D01*
X137425968Y-63200533D01*
X137300533Y-63325968D01*
X137201988Y-63473450D01*
X137201987Y-63473453D01*
X137162472Y-63568853D01*
X137134104Y-63637340D01*
X137099500Y-63811304D01*
X137099500Y-64188695D01*
X137134104Y-64362659D01*
X137134105Y-64362661D01*
X137134106Y-64362666D01*
X137194049Y-64507383D01*
X137201988Y-64526549D01*
X137300533Y-64674031D01*
X137300536Y-64674035D01*
X137425965Y-64799464D01*
X137425968Y-64799466D01*
X137425969Y-64799467D01*
X137435423Y-64807226D01*
X137433219Y-64809911D01*
X137485079Y-64861878D01*
X137522165Y-64951676D01*
X137522064Y-65048831D01*
X137484791Y-65138552D01*
X137433235Y-65190107D01*
X137435423Y-65192774D01*
X137425969Y-65200532D01*
X137300532Y-65325969D01*
X137207035Y-65465897D01*
X137138336Y-65534596D01*
X137048576Y-65571775D01*
X136951421Y-65571774D01*
X136861662Y-65534594D01*
X136792965Y-65465897D01*
X136699467Y-65325969D01*
X136699466Y-65325968D01*
X136699464Y-65325965D01*
X136574035Y-65200536D01*
X136574031Y-65200533D01*
X136426549Y-65101988D01*
X136426547Y-65101987D01*
X136262666Y-65034106D01*
X136262661Y-65034105D01*
X136262659Y-65034104D01*
X136088695Y-64999500D01*
X136088691Y-64999500D01*
X135911309Y-64999500D01*
X135911304Y-64999500D01*
X135737338Y-65034104D01*
X135737337Y-65034104D01*
X135586705Y-65096497D01*
X135491416Y-65115450D01*
X135396128Y-65096495D01*
X135315347Y-65042518D01*
X135261372Y-64961736D01*
X135242419Y-64866447D01*
X135247204Y-64817871D01*
X135250591Y-64800846D01*
X135255500Y-64751000D01*
X135255500Y-62404500D01*
X135274454Y-62309212D01*
X135328430Y-62228430D01*
X135409212Y-62174454D01*
X135504500Y-62155500D01*
X161606175Y-62155500D01*
X161701463Y-62174454D01*
X161782245Y-62228430D01*
X161836221Y-62309212D01*
X161855175Y-62404500D01*
X161853044Y-62436999D01*
X161844750Y-62500000D01*
X161863670Y-62643709D01*
X161863670Y-62643711D01*
X161863671Y-62643712D01*
X161863671Y-62643714D01*
X161919136Y-62777621D01*
X161919141Y-62777628D01*
X162007374Y-62892616D01*
X162007383Y-62892625D01*
X162122371Y-62980858D01*
X162122378Y-62980863D01*
X162256286Y-63036328D01*
X162256291Y-63036330D01*
X162400000Y-63055250D01*
X162543709Y-63036330D01*
X162543714Y-63036328D01*
X162677621Y-62980863D01*
X162677622Y-62980862D01*
X162677625Y-62980861D01*
X162792621Y-62892621D01*
X162880861Y-62777625D01*
X162882520Y-62773621D01*
X162936328Y-62643714D01*
X162936328Y-62643713D01*
X162936330Y-62643709D01*
X162955250Y-62500000D01*
X162946956Y-62437002D01*
X162953309Y-62340057D01*
X162996278Y-62252921D01*
X163069323Y-62188861D01*
X163161321Y-62157631D01*
X163193825Y-62155500D01*
X170695500Y-62155500D01*
X170790788Y-62174454D01*
X170871570Y-62228430D01*
X170925546Y-62309212D01*
X170944500Y-62404500D01*
X170944500Y-62706174D01*
X170925546Y-62801462D01*
X170871570Y-62882244D01*
X170790788Y-62936220D01*
X170695500Y-62955174D01*
X170662999Y-62953044D01*
X170600000Y-62944750D01*
X170456291Y-62963670D01*
X170456289Y-62963670D01*
X170456287Y-62963671D01*
X170456285Y-62963671D01*
X170322378Y-63019136D01*
X170322371Y-63019141D01*
X170207383Y-63107374D01*
X170207374Y-63107383D01*
X170119141Y-63222371D01*
X170119136Y-63222378D01*
X170063671Y-63356285D01*
X170063671Y-63356287D01*
X170063670Y-63356289D01*
X170063670Y-63356291D01*
X170044750Y-63500000D01*
X170063670Y-63643709D01*
X170063670Y-63643711D01*
X170063671Y-63643712D01*
X170063671Y-63643714D01*
X170119136Y-63777621D01*
X170119141Y-63777628D01*
X170207374Y-63892616D01*
X170207383Y-63892625D01*
X170322371Y-63980858D01*
X170322378Y-63980863D01*
X170448015Y-64032902D01*
X170456291Y-64036330D01*
X170600000Y-64055250D01*
X170667546Y-64046357D01*
X170764491Y-64052710D01*
X170851627Y-64095679D01*
X170915687Y-64168723D01*
X170944916Y-64254828D01*
X170945586Y-64254695D01*
X170946597Y-64259779D01*
X170946917Y-64260721D01*
X170947176Y-64262688D01*
X170960189Y-64328107D01*
X170960190Y-64328112D01*
X170987623Y-64408926D01*
X170991420Y-64420110D01*
X171041265Y-64506444D01*
X171052813Y-64519612D01*
X171101391Y-64603748D01*
X171114073Y-64700072D01*
X171095653Y-64779075D01*
X171069385Y-64842493D01*
X171063670Y-64856291D01*
X171044750Y-65000000D01*
X171063670Y-65143709D01*
X171063670Y-65143711D01*
X171063671Y-65143712D01*
X171094897Y-65219100D01*
X171113850Y-65314389D01*
X171094895Y-65409677D01*
X171066180Y-65457591D01*
X171067285Y-65458330D01*
X171006512Y-65549284D01*
X170970038Y-65637340D01*
X170968363Y-65641384D01*
X170949409Y-65736672D01*
X170944500Y-65786518D01*
X170944500Y-66113481D01*
X170945047Y-66130190D01*
X170945048Y-66130208D01*
X170947176Y-66162691D01*
X170947177Y-66162694D01*
X170960189Y-66228107D01*
X170960190Y-66228112D01*
X170991089Y-66319136D01*
X170991420Y-66320110D01*
X171041265Y-66406444D01*
X171052813Y-66419612D01*
X171101391Y-66503748D01*
X171114073Y-66600072D01*
X171095653Y-66679075D01*
X171063671Y-66756288D01*
X171063670Y-66756291D01*
X171044750Y-66900000D01*
X171063670Y-67043709D01*
X171063670Y-67043711D01*
X171063671Y-67043712D01*
X171094897Y-67119100D01*
X171113850Y-67214389D01*
X171094895Y-67309677D01*
X171066180Y-67357591D01*
X171067285Y-67358330D01*
X171006512Y-67449284D01*
X170988113Y-67493704D01*
X170968363Y-67541384D01*
X170949409Y-67636672D01*
X170949408Y-67636677D01*
X170949408Y-67636680D01*
X170944500Y-67686513D01*
X170944500Y-69060755D01*
X170925546Y-69156043D01*
X170871570Y-69236825D01*
X170790789Y-69290801D01*
X170722374Y-69319139D01*
X170722371Y-69319141D01*
X170607383Y-69407374D01*
X170607374Y-69407383D01*
X170519141Y-69522371D01*
X170519136Y-69522378D01*
X170463671Y-69656285D01*
X170463671Y-69656287D01*
X170463670Y-69656289D01*
X170463670Y-69656291D01*
X170444750Y-69800000D01*
X170463670Y-69943709D01*
X170463670Y-69943711D01*
X170463671Y-69943712D01*
X170463671Y-69943714D01*
X170519136Y-70077621D01*
X170519141Y-70077628D01*
X170607374Y-70192616D01*
X170607383Y-70192625D01*
X170722371Y-70280858D01*
X170722375Y-70280861D01*
X170790789Y-70309198D01*
X170871568Y-70363173D01*
X170925545Y-70443954D01*
X170944500Y-70539242D01*
X170944500Y-74751000D01*
X170925546Y-74846288D01*
X170871570Y-74927070D01*
X170790788Y-74981046D01*
X170695500Y-75000000D01*
X163619984Y-75000000D01*
X163524696Y-74981046D01*
X163443914Y-74927070D01*
X163389938Y-74846288D01*
X163370984Y-74751000D01*
X163389937Y-74655714D01*
X163410584Y-74605866D01*
X163436330Y-74543709D01*
X163455250Y-74400000D01*
X163436330Y-74256291D01*
X163436328Y-74256285D01*
X163380863Y-74122378D01*
X163380858Y-74122371D01*
X163292625Y-74007383D01*
X163292616Y-74007374D01*
X163177628Y-73919141D01*
X163177621Y-73919136D01*
X163043713Y-73863671D01*
X163043710Y-73863670D01*
X163043709Y-73863670D01*
X162900000Y-73844750D01*
X162756291Y-73863670D01*
X162756289Y-73863670D01*
X162756287Y-73863671D01*
X162756285Y-73863671D01*
X162622378Y-73919136D01*
X162622371Y-73919141D01*
X162507383Y-74007374D01*
X162507374Y-74007383D01*
X162419141Y-74122371D01*
X162419136Y-74122378D01*
X162363671Y-74256285D01*
X162363671Y-74256287D01*
X162363670Y-74256289D01*
X162363670Y-74256291D01*
X162344750Y-74400000D01*
X162363670Y-74543709D01*
X162363671Y-74543711D01*
X162410063Y-74655714D01*
X162429016Y-74751002D01*
X162410061Y-74846290D01*
X162356084Y-74927071D01*
X162275302Y-74981047D01*
X162180016Y-75000000D01*
X90161404Y-75000000D01*
X90066116Y-74981046D01*
X89985334Y-74927070D01*
X89931358Y-74846288D01*
X89912404Y-74751000D01*
X89931358Y-74655712D01*
X89931359Y-74655710D01*
X89936330Y-74643709D01*
X89955250Y-74500000D01*
X89936330Y-74356291D01*
X89936328Y-74356285D01*
X89880863Y-74222378D01*
X89880858Y-74222371D01*
X89792625Y-74107383D01*
X89792617Y-74107375D01*
X89755752Y-74079088D01*
X89691692Y-74006043D01*
X89660462Y-73914044D01*
X89666816Y-73817097D01*
X89677286Y-73786254D01*
X89680859Y-73777627D01*
X89680861Y-73777625D01*
X89736330Y-73643709D01*
X89755250Y-73500000D01*
X89736330Y-73356291D01*
X89734233Y-73351228D01*
X89713014Y-73300000D01*
X97344750Y-73300000D01*
X97363670Y-73443709D01*
X97363670Y-73443711D01*
X97363671Y-73443712D01*
X97363671Y-73443714D01*
X97419136Y-73577621D01*
X97419141Y-73577628D01*
X97507374Y-73692616D01*
X97507383Y-73692625D01*
X97622371Y-73780858D01*
X97622378Y-73780863D01*
X97756286Y-73836328D01*
X97756291Y-73836330D01*
X97900000Y-73855250D01*
X98043709Y-73836330D01*
X98043714Y-73836328D01*
X98177621Y-73780863D01*
X98177622Y-73780862D01*
X98177625Y-73780861D01*
X98292621Y-73692621D01*
X98380861Y-73577625D01*
X98381115Y-73577013D01*
X98436328Y-73443714D01*
X98436328Y-73443713D01*
X98436330Y-73443709D01*
X98455250Y-73300000D01*
X98436330Y-73156291D01*
X98418951Y-73114333D01*
X98380863Y-73022378D01*
X98380858Y-73022371D01*
X98292625Y-72907383D01*
X98292616Y-72907374D01*
X98283006Y-72900000D01*
X101544750Y-72900000D01*
X101563670Y-73043709D01*
X101563670Y-73043711D01*
X101563671Y-73043712D01*
X101563671Y-73043714D01*
X101619136Y-73177621D01*
X101619141Y-73177628D01*
X101707374Y-73292616D01*
X101707383Y-73292625D01*
X101822371Y-73380858D01*
X101822378Y-73380863D01*
X101924070Y-73422984D01*
X101956291Y-73436330D01*
X102100000Y-73455250D01*
X102243709Y-73436330D01*
X102243714Y-73436328D01*
X102377621Y-73380863D01*
X102377622Y-73380862D01*
X102377625Y-73380861D01*
X102492621Y-73292621D01*
X102580861Y-73177625D01*
X102589700Y-73156287D01*
X102636328Y-73043714D01*
X102636328Y-73043713D01*
X102636330Y-73043709D01*
X102655250Y-72900000D01*
X113544750Y-72900000D01*
X113563670Y-73043709D01*
X113563670Y-73043711D01*
X113563671Y-73043712D01*
X113563671Y-73043714D01*
X113619136Y-73177621D01*
X113619141Y-73177628D01*
X113707374Y-73292616D01*
X113707383Y-73292625D01*
X113822371Y-73380858D01*
X113822378Y-73380863D01*
X113924070Y-73422984D01*
X113956291Y-73436330D01*
X114100000Y-73455250D01*
X114243709Y-73436330D01*
X114243714Y-73436328D01*
X114377621Y-73380863D01*
X114377622Y-73380862D01*
X114377625Y-73380861D01*
X114492621Y-73292621D01*
X114580861Y-73177625D01*
X114589700Y-73156287D01*
X114613014Y-73100000D01*
X119944750Y-73100000D01*
X119963670Y-73243709D01*
X119963670Y-73243711D01*
X119963671Y-73243712D01*
X119963671Y-73243714D01*
X120019136Y-73377621D01*
X120019141Y-73377628D01*
X120107374Y-73492616D01*
X120107383Y-73492625D01*
X120222371Y-73580858D01*
X120222378Y-73580863D01*
X120356286Y-73636328D01*
X120356291Y-73636330D01*
X120500000Y-73655250D01*
X120643709Y-73636330D01*
X120643714Y-73636328D01*
X120777621Y-73580863D01*
X120777622Y-73580862D01*
X120777625Y-73580861D01*
X120892621Y-73492621D01*
X120980861Y-73377625D01*
X120989700Y-73356287D01*
X121036328Y-73243714D01*
X121036328Y-73243713D01*
X121036330Y-73243709D01*
X121055250Y-73100000D01*
X121036330Y-72956291D01*
X121031550Y-72944750D01*
X120980863Y-72822378D01*
X120980858Y-72822371D01*
X120892625Y-72707383D01*
X120892616Y-72707374D01*
X120777628Y-72619141D01*
X120777621Y-72619136D01*
X120643713Y-72563671D01*
X120643710Y-72563670D01*
X120643709Y-72563670D01*
X120500000Y-72544750D01*
X120356291Y-72563670D01*
X120356289Y-72563670D01*
X120356287Y-72563671D01*
X120356285Y-72563671D01*
X120222378Y-72619136D01*
X120222371Y-72619141D01*
X120107383Y-72707374D01*
X120107374Y-72707383D01*
X120019141Y-72822371D01*
X120019136Y-72822378D01*
X119963671Y-72956285D01*
X119963671Y-72956287D01*
X119963670Y-72956289D01*
X119963670Y-72956291D01*
X119944750Y-73100000D01*
X114613014Y-73100000D01*
X114636328Y-73043714D01*
X114636328Y-73043713D01*
X114636330Y-73043709D01*
X114655250Y-72900000D01*
X114636330Y-72756291D01*
X114631550Y-72744750D01*
X114580863Y-72622378D01*
X114580858Y-72622371D01*
X114492625Y-72507383D01*
X114492616Y-72507374D01*
X114377628Y-72419141D01*
X114377621Y-72419136D01*
X114243713Y-72363671D01*
X114243710Y-72363670D01*
X114243709Y-72363670D01*
X114100000Y-72344750D01*
X113956291Y-72363670D01*
X113956289Y-72363670D01*
X113956287Y-72363671D01*
X113956285Y-72363671D01*
X113822378Y-72419136D01*
X113822371Y-72419141D01*
X113707383Y-72507374D01*
X113707374Y-72507383D01*
X113619141Y-72622371D01*
X113619136Y-72622378D01*
X113563671Y-72756285D01*
X113563671Y-72756287D01*
X113563670Y-72756289D01*
X113563670Y-72756291D01*
X113544750Y-72900000D01*
X102655250Y-72900000D01*
X102636330Y-72756291D01*
X102631550Y-72744750D01*
X102580863Y-72622378D01*
X102580858Y-72622371D01*
X102492625Y-72507383D01*
X102492616Y-72507374D01*
X102377628Y-72419141D01*
X102377621Y-72419136D01*
X102243713Y-72363671D01*
X102243710Y-72363670D01*
X102243709Y-72363670D01*
X102100000Y-72344750D01*
X101956291Y-72363670D01*
X101956289Y-72363670D01*
X101956287Y-72363671D01*
X101956285Y-72363671D01*
X101822378Y-72419136D01*
X101822371Y-72419141D01*
X101707383Y-72507374D01*
X101707374Y-72507383D01*
X101619141Y-72622371D01*
X101619136Y-72622378D01*
X101563671Y-72756285D01*
X101563671Y-72756287D01*
X101563670Y-72756289D01*
X101563670Y-72756291D01*
X101544750Y-72900000D01*
X98283006Y-72900000D01*
X98177628Y-72819141D01*
X98177621Y-72819136D01*
X98043713Y-72763671D01*
X98043710Y-72763670D01*
X98043709Y-72763670D01*
X97900000Y-72744750D01*
X97756291Y-72763670D01*
X97756289Y-72763670D01*
X97756287Y-72763671D01*
X97756285Y-72763671D01*
X97622378Y-72819136D01*
X97622371Y-72819141D01*
X97507383Y-72907374D01*
X97507374Y-72907383D01*
X97419141Y-73022371D01*
X97419136Y-73022378D01*
X97363671Y-73156285D01*
X97363671Y-73156287D01*
X97363670Y-73156289D01*
X97363670Y-73156291D01*
X97344750Y-73300000D01*
X89713014Y-73300000D01*
X89680863Y-73222378D01*
X89680858Y-73222371D01*
X89592625Y-73107383D01*
X89592616Y-73107374D01*
X89477628Y-73019141D01*
X89477621Y-73019136D01*
X89343713Y-72963671D01*
X89343710Y-72963670D01*
X89343709Y-72963670D01*
X89200000Y-72944750D01*
X89056291Y-72963670D01*
X89056289Y-72963670D01*
X89056287Y-72963671D01*
X89056285Y-72963671D01*
X88922378Y-73019136D01*
X88922371Y-73019141D01*
X88807383Y-73107374D01*
X88807371Y-73107386D01*
X88802041Y-73114333D01*
X88728995Y-73178390D01*
X88636995Y-73209618D01*
X88540049Y-73203261D01*
X88452914Y-73160288D01*
X88388857Y-73087242D01*
X88357629Y-72995242D01*
X88355500Y-72962747D01*
X88355500Y-72000000D01*
X129444750Y-72000000D01*
X129463670Y-72143709D01*
X129463670Y-72143711D01*
X129463671Y-72143712D01*
X129463671Y-72143714D01*
X129519136Y-72277621D01*
X129519141Y-72277628D01*
X129607374Y-72392616D01*
X129607383Y-72392625D01*
X129722371Y-72480858D01*
X129722378Y-72480863D01*
X129856286Y-72536328D01*
X129856291Y-72536330D01*
X130000000Y-72555250D01*
X130143709Y-72536330D01*
X130143714Y-72536328D01*
X130277621Y-72480863D01*
X130277622Y-72480862D01*
X130277625Y-72480861D01*
X130392621Y-72392621D01*
X130480861Y-72277625D01*
X130536330Y-72143709D01*
X130555250Y-72000000D01*
X139444750Y-72000000D01*
X139463670Y-72143709D01*
X139463670Y-72143711D01*
X139463671Y-72143712D01*
X139463671Y-72143714D01*
X139519136Y-72277621D01*
X139519141Y-72277628D01*
X139607374Y-72392616D01*
X139607383Y-72392625D01*
X139722371Y-72480858D01*
X139722378Y-72480863D01*
X139856286Y-72536328D01*
X139856291Y-72536330D01*
X140000000Y-72555250D01*
X140143709Y-72536330D01*
X140143714Y-72536328D01*
X140277621Y-72480863D01*
X140277622Y-72480862D01*
X140277625Y-72480861D01*
X140392621Y-72392621D01*
X140480861Y-72277625D01*
X140536330Y-72143709D01*
X140555250Y-72000000D01*
X140536330Y-71856291D01*
X140536328Y-71856285D01*
X140480863Y-71722378D01*
X140480858Y-71722371D01*
X140392625Y-71607383D01*
X140392616Y-71607374D01*
X140277628Y-71519141D01*
X140277621Y-71519136D01*
X140143713Y-71463671D01*
X140143710Y-71463670D01*
X140143709Y-71463670D01*
X140000000Y-71444750D01*
X139856291Y-71463670D01*
X139856289Y-71463670D01*
X139856287Y-71463671D01*
X139856285Y-71463671D01*
X139722378Y-71519136D01*
X139722371Y-71519141D01*
X139607383Y-71607374D01*
X139607374Y-71607383D01*
X139519141Y-71722371D01*
X139519136Y-71722378D01*
X139463671Y-71856285D01*
X139463671Y-71856287D01*
X139463670Y-71856289D01*
X139463670Y-71856291D01*
X139444750Y-72000000D01*
X130555250Y-72000000D01*
X130536330Y-71856291D01*
X130536328Y-71856285D01*
X130480863Y-71722378D01*
X130480858Y-71722371D01*
X130392625Y-71607383D01*
X130392616Y-71607374D01*
X130277628Y-71519141D01*
X130277621Y-71519136D01*
X130143713Y-71463671D01*
X130143710Y-71463670D01*
X130143709Y-71463670D01*
X130000000Y-71444750D01*
X129856291Y-71463670D01*
X129856289Y-71463670D01*
X129856287Y-71463671D01*
X129856285Y-71463671D01*
X129722378Y-71519136D01*
X129722371Y-71519141D01*
X129607383Y-71607374D01*
X129607374Y-71607383D01*
X129519141Y-71722371D01*
X129519136Y-71722378D01*
X129463671Y-71856285D01*
X129463671Y-71856287D01*
X129463670Y-71856289D01*
X129463670Y-71856291D01*
X129444750Y-72000000D01*
X88355500Y-72000000D01*
X88355500Y-71200000D01*
X97544750Y-71200000D01*
X97563670Y-71343709D01*
X97563670Y-71343711D01*
X97563671Y-71343712D01*
X97563671Y-71343714D01*
X97619136Y-71477621D01*
X97619141Y-71477628D01*
X97707374Y-71592616D01*
X97707383Y-71592625D01*
X97822371Y-71680858D01*
X97822378Y-71680863D01*
X97922590Y-71722371D01*
X97956291Y-71736330D01*
X98100000Y-71755250D01*
X98243709Y-71736330D01*
X98243714Y-71736328D01*
X98377621Y-71680863D01*
X98377622Y-71680862D01*
X98377625Y-71680861D01*
X98492621Y-71592621D01*
X98580861Y-71477625D01*
X98581115Y-71477013D01*
X98636328Y-71343714D01*
X98636328Y-71343713D01*
X98636330Y-71343709D01*
X98655250Y-71200000D01*
X98636330Y-71056291D01*
X98636328Y-71056285D01*
X98580863Y-70922378D01*
X98580858Y-70922371D01*
X98492625Y-70807383D01*
X98492616Y-70807374D01*
X98377628Y-70719141D01*
X98377621Y-70719136D01*
X98243713Y-70663671D01*
X98243710Y-70663670D01*
X98243709Y-70663670D01*
X98100000Y-70644750D01*
X97956291Y-70663670D01*
X97956289Y-70663670D01*
X97956287Y-70663671D01*
X97956285Y-70663671D01*
X97822378Y-70719136D01*
X97822371Y-70719141D01*
X97707383Y-70807374D01*
X97707374Y-70807383D01*
X97619141Y-70922371D01*
X97619136Y-70922378D01*
X97563671Y-71056285D01*
X97563671Y-71056287D01*
X97563670Y-71056289D01*
X97563670Y-71056291D01*
X97544750Y-71200000D01*
X88355500Y-71200000D01*
X88355500Y-69900000D01*
X109144750Y-69900000D01*
X109163670Y-70043709D01*
X109163670Y-70043711D01*
X109163671Y-70043712D01*
X109163671Y-70043714D01*
X109219136Y-70177621D01*
X109219141Y-70177628D01*
X109307374Y-70292616D01*
X109307383Y-70292625D01*
X109422371Y-70380858D01*
X109422375Y-70380861D01*
X109511304Y-70417696D01*
X109592082Y-70471670D01*
X109646059Y-70552451D01*
X109665014Y-70647739D01*
X109646061Y-70743028D01*
X109613560Y-70799321D01*
X109519140Y-70922372D01*
X109519136Y-70922378D01*
X109463671Y-71056285D01*
X109463671Y-71056287D01*
X109463670Y-71056289D01*
X109463670Y-71056291D01*
X109444750Y-71200000D01*
X109463670Y-71343709D01*
X109463670Y-71343711D01*
X109463671Y-71343712D01*
X109463671Y-71343714D01*
X109519136Y-71477621D01*
X109519141Y-71477628D01*
X109607374Y-71592616D01*
X109607383Y-71592625D01*
X109722371Y-71680858D01*
X109722378Y-71680863D01*
X109822590Y-71722371D01*
X109856291Y-71736330D01*
X110000000Y-71755250D01*
X110143709Y-71736330D01*
X110143714Y-71736328D01*
X110277621Y-71680863D01*
X110277622Y-71680862D01*
X110277625Y-71680861D01*
X110392621Y-71592621D01*
X110480861Y-71477625D01*
X110481115Y-71477013D01*
X110536328Y-71343714D01*
X110536328Y-71343713D01*
X110536330Y-71343709D01*
X110555250Y-71200000D01*
X110536330Y-71056291D01*
X110536328Y-71056285D01*
X110480863Y-70922378D01*
X110480858Y-70922371D01*
X110392625Y-70807383D01*
X110392616Y-70807374D01*
X110277628Y-70719141D01*
X110277623Y-70719138D01*
X110188697Y-70682304D01*
X110107916Y-70628328D01*
X110053939Y-70547547D01*
X110034985Y-70452259D01*
X110053939Y-70356970D01*
X110086440Y-70300676D01*
X110101647Y-70280858D01*
X110180861Y-70177625D01*
X110180942Y-70177431D01*
X110236328Y-70043714D01*
X110236328Y-70043713D01*
X110236330Y-70043709D01*
X110255250Y-69900000D01*
X110236330Y-69756291D01*
X110235899Y-69755250D01*
X110180863Y-69622378D01*
X110180858Y-69622371D01*
X110092625Y-69507383D01*
X110092616Y-69507374D01*
X109977628Y-69419141D01*
X109977621Y-69419136D01*
X109843713Y-69363671D01*
X109843710Y-69363670D01*
X109843709Y-69363670D01*
X109700000Y-69344750D01*
X109556291Y-69363670D01*
X109556289Y-69363670D01*
X109556287Y-69363671D01*
X109556285Y-69363671D01*
X109422378Y-69419136D01*
X109422371Y-69419141D01*
X109307383Y-69507374D01*
X109307374Y-69507383D01*
X109219141Y-69622371D01*
X109219136Y-69622378D01*
X109163671Y-69756285D01*
X109163671Y-69756287D01*
X109163670Y-69756289D01*
X109163670Y-69756291D01*
X109144750Y-69900000D01*
X88355500Y-69900000D01*
X88355500Y-69200000D01*
X97144750Y-69200000D01*
X97163670Y-69343709D01*
X97163670Y-69343711D01*
X97163671Y-69343712D01*
X97163671Y-69343714D01*
X97219136Y-69477621D01*
X97219141Y-69477628D01*
X97307374Y-69592616D01*
X97307383Y-69592625D01*
X97422371Y-69680858D01*
X97422378Y-69680863D01*
X97556286Y-69736328D01*
X97556291Y-69736330D01*
X97700000Y-69755250D01*
X97843709Y-69736330D01*
X97843714Y-69736328D01*
X97977621Y-69680863D01*
X97977622Y-69680862D01*
X97977625Y-69680861D01*
X98092621Y-69592621D01*
X98180861Y-69477625D01*
X98205087Y-69419139D01*
X98236328Y-69343714D01*
X98236328Y-69343713D01*
X98236330Y-69343709D01*
X98255250Y-69200000D01*
X98236330Y-69056291D01*
X98236328Y-69056285D01*
X98180863Y-68922378D01*
X98180858Y-68922371D01*
X98092625Y-68807383D01*
X98092616Y-68807374D01*
X97977628Y-68719141D01*
X97977621Y-68719136D01*
X97843713Y-68663671D01*
X97843710Y-68663670D01*
X97843709Y-68663670D01*
X97700000Y-68644750D01*
X97556291Y-68663670D01*
X97556289Y-68663670D01*
X97556287Y-68663671D01*
X97556285Y-68663671D01*
X97422378Y-68719136D01*
X97422371Y-68719141D01*
X97307383Y-68807374D01*
X97307374Y-68807383D01*
X97219141Y-68922371D01*
X97219136Y-68922378D01*
X97163671Y-69056285D01*
X97163671Y-69056287D01*
X97163670Y-69056289D01*
X97163670Y-69056291D01*
X97144750Y-69200000D01*
X88355500Y-69200000D01*
X88355500Y-68300000D01*
X89244750Y-68300000D01*
X89263670Y-68443709D01*
X89263670Y-68443711D01*
X89263671Y-68443712D01*
X89263671Y-68443714D01*
X89319136Y-68577621D01*
X89319141Y-68577628D01*
X89407374Y-68692616D01*
X89407383Y-68692625D01*
X89522371Y-68780858D01*
X89522378Y-68780863D01*
X89656286Y-68836328D01*
X89656291Y-68836330D01*
X89800000Y-68855250D01*
X89943709Y-68836330D01*
X89943714Y-68836328D01*
X90077621Y-68780863D01*
X90077622Y-68780862D01*
X90077625Y-68780861D01*
X90192621Y-68692621D01*
X90280861Y-68577625D01*
X90336330Y-68443709D01*
X90355250Y-68300000D01*
X162544750Y-68300000D01*
X162563670Y-68443709D01*
X162563670Y-68443711D01*
X162563671Y-68443712D01*
X162563671Y-68443714D01*
X162619136Y-68577621D01*
X162619141Y-68577628D01*
X162707374Y-68692616D01*
X162707383Y-68692625D01*
X162822371Y-68780858D01*
X162822378Y-68780863D01*
X162956286Y-68836328D01*
X162956291Y-68836330D01*
X163100000Y-68855250D01*
X163243709Y-68836330D01*
X163243714Y-68836328D01*
X163377621Y-68780863D01*
X163377622Y-68780862D01*
X163377625Y-68780861D01*
X163492621Y-68692621D01*
X163580861Y-68577625D01*
X163636330Y-68443709D01*
X163655250Y-68300000D01*
X163636330Y-68156291D01*
X163613014Y-68100000D01*
X163580863Y-68022378D01*
X163580858Y-68022371D01*
X163492625Y-67907383D01*
X163492616Y-67907374D01*
X163377628Y-67819141D01*
X163377621Y-67819136D01*
X163243713Y-67763671D01*
X163243710Y-67763670D01*
X163243709Y-67763670D01*
X163116096Y-67746869D01*
X163104202Y-67742831D01*
X163083905Y-67746868D01*
X162956291Y-67763670D01*
X162956289Y-67763670D01*
X162956287Y-67763671D01*
X162956285Y-67763671D01*
X162822378Y-67819136D01*
X162822371Y-67819141D01*
X162707383Y-67907374D01*
X162707374Y-67907383D01*
X162619141Y-68022371D01*
X162619136Y-68022378D01*
X162563671Y-68156285D01*
X162563671Y-68156287D01*
X162563670Y-68156289D01*
X162563670Y-68156291D01*
X162544750Y-68300000D01*
X90355250Y-68300000D01*
X90336330Y-68156291D01*
X90313014Y-68100000D01*
X90280863Y-68022378D01*
X90280858Y-68022371D01*
X90192625Y-67907383D01*
X90192616Y-67907374D01*
X90077628Y-67819141D01*
X90077621Y-67819136D01*
X89943713Y-67763671D01*
X89943710Y-67763670D01*
X89943709Y-67763670D01*
X89816096Y-67746869D01*
X89804202Y-67742831D01*
X89783905Y-67746868D01*
X89656291Y-67763670D01*
X89656289Y-67763670D01*
X89656287Y-67763671D01*
X89656285Y-67763671D01*
X89522378Y-67819136D01*
X89522371Y-67819141D01*
X89407383Y-67907374D01*
X89407374Y-67907383D01*
X89319141Y-68022371D01*
X89319136Y-68022378D01*
X89263671Y-68156285D01*
X89263671Y-68156287D01*
X89263670Y-68156289D01*
X89263670Y-68156291D01*
X89244750Y-68300000D01*
X88355500Y-68300000D01*
X88355500Y-67699696D01*
X88355417Y-67697150D01*
X88354953Y-67682969D01*
X88352822Y-67650465D01*
X88339809Y-67585051D01*
X88308763Y-67493594D01*
X88308585Y-67493065D01*
X88308579Y-67493052D01*
X88308578Y-67493049D01*
X88275546Y-67435838D01*
X88244315Y-67343840D01*
X88250667Y-67246893D01*
X88275545Y-67186832D01*
X88280863Y-67177621D01*
X88336328Y-67043714D01*
X88336328Y-67043713D01*
X88336330Y-67043709D01*
X88355250Y-66900000D01*
X88336330Y-66756291D01*
X88334232Y-66751227D01*
X88313013Y-66700000D01*
X89244750Y-66700000D01*
X89263670Y-66843709D01*
X89263670Y-66843711D01*
X89263671Y-66843712D01*
X89263671Y-66843714D01*
X89319136Y-66977621D01*
X89319141Y-66977628D01*
X89407374Y-67092616D01*
X89407383Y-67092625D01*
X89522371Y-67180858D01*
X89522378Y-67180863D01*
X89656286Y-67236328D01*
X89656291Y-67236330D01*
X89783901Y-67253130D01*
X89795796Y-67257168D01*
X89816091Y-67253131D01*
X89943709Y-67236330D01*
X89943714Y-67236328D01*
X90077621Y-67180863D01*
X90077622Y-67180862D01*
X90077625Y-67180861D01*
X90192621Y-67092621D01*
X90280861Y-66977625D01*
X90281115Y-66977013D01*
X90336328Y-66843714D01*
X90336328Y-66843713D01*
X90336330Y-66843709D01*
X90342085Y-66800000D01*
X94549750Y-66800000D01*
X94568670Y-66943709D01*
X94568670Y-66943711D01*
X94568671Y-66943712D01*
X94568671Y-66943714D01*
X94624136Y-67077621D01*
X94624141Y-67077628D01*
X94712374Y-67192616D01*
X94712383Y-67192625D01*
X94827371Y-67280858D01*
X94827378Y-67280863D01*
X94961286Y-67336328D01*
X94961291Y-67336330D01*
X95105000Y-67355250D01*
X95248709Y-67336330D01*
X95248714Y-67336328D01*
X95382621Y-67280863D01*
X95382622Y-67280862D01*
X95382625Y-67280861D01*
X95497621Y-67192621D01*
X95504041Y-67184255D01*
X95524430Y-67157683D01*
X95585861Y-67077625D01*
X95597812Y-67048774D01*
X95641328Y-66943714D01*
X95641328Y-66943713D01*
X95641330Y-66943709D01*
X95660250Y-66800000D01*
X95641330Y-66656291D01*
X95641328Y-66656285D01*
X95585863Y-66522378D01*
X95585858Y-66522371D01*
X95497625Y-66407383D01*
X95497616Y-66407374D01*
X95382628Y-66319141D01*
X95382621Y-66319136D01*
X95248713Y-66263671D01*
X95248710Y-66263670D01*
X95248709Y-66263670D01*
X95105000Y-66244750D01*
X94961291Y-66263670D01*
X94961289Y-66263670D01*
X94961287Y-66263671D01*
X94961285Y-66263671D01*
X94827378Y-66319136D01*
X94827371Y-66319141D01*
X94712383Y-66407374D01*
X94712374Y-66407383D01*
X94624141Y-66522371D01*
X94624136Y-66522378D01*
X94568671Y-66656285D01*
X94568671Y-66656287D01*
X94568670Y-66656289D01*
X94568670Y-66656291D01*
X94549750Y-66800000D01*
X90342085Y-66800000D01*
X90355250Y-66700000D01*
X90336330Y-66556291D01*
X90335899Y-66555250D01*
X90280863Y-66422378D01*
X90280858Y-66422371D01*
X90192625Y-66307383D01*
X90192616Y-66307374D01*
X90077628Y-66219141D01*
X90077621Y-66219136D01*
X89943713Y-66163671D01*
X89943710Y-66163670D01*
X89943709Y-66163670D01*
X89800000Y-66144750D01*
X89656291Y-66163670D01*
X89656289Y-66163670D01*
X89656287Y-66163671D01*
X89656285Y-66163671D01*
X89522378Y-66219136D01*
X89522371Y-66219141D01*
X89407383Y-66307374D01*
X89407374Y-66307383D01*
X89319141Y-66422371D01*
X89319136Y-66422378D01*
X89263671Y-66556285D01*
X89263671Y-66556287D01*
X89263670Y-66556289D01*
X89263670Y-66556291D01*
X89244750Y-66700000D01*
X88313013Y-66700000D01*
X88280862Y-66622378D01*
X88280861Y-66622375D01*
X88280858Y-66622371D01*
X88275912Y-66613803D01*
X88244685Y-66521803D01*
X88251041Y-66424856D01*
X88284516Y-66350975D01*
X88293487Y-66337550D01*
X88331637Y-66245449D01*
X88350591Y-66150161D01*
X88355500Y-66100315D01*
X88355500Y-66000000D01*
X104844750Y-66000000D01*
X104863670Y-66143709D01*
X104863670Y-66143711D01*
X104863671Y-66143712D01*
X104863671Y-66143714D01*
X104919136Y-66277621D01*
X104919141Y-66277628D01*
X105007374Y-66392616D01*
X105007383Y-66392625D01*
X105122371Y-66480858D01*
X105122378Y-66480863D01*
X105221219Y-66521803D01*
X105256291Y-66536330D01*
X105400000Y-66555250D01*
X105543709Y-66536330D01*
X105543714Y-66536328D01*
X105677621Y-66480863D01*
X105677622Y-66480862D01*
X105677625Y-66480861D01*
X105792621Y-66392621D01*
X105880861Y-66277625D01*
X105886642Y-66263670D01*
X105936328Y-66143714D01*
X105936328Y-66143713D01*
X105936330Y-66143709D01*
X105955250Y-66000000D01*
X105936330Y-65856291D01*
X105922694Y-65823370D01*
X105880863Y-65722378D01*
X105880858Y-65722371D01*
X105792625Y-65607383D01*
X105792616Y-65607374D01*
X105677628Y-65519141D01*
X105677621Y-65519136D01*
X105543713Y-65463671D01*
X105543710Y-65463670D01*
X105543709Y-65463670D01*
X105400000Y-65444750D01*
X105256291Y-65463670D01*
X105256289Y-65463670D01*
X105256287Y-65463671D01*
X105256285Y-65463671D01*
X105122378Y-65519136D01*
X105122371Y-65519141D01*
X105007383Y-65607374D01*
X105007374Y-65607383D01*
X104919141Y-65722371D01*
X104919136Y-65722378D01*
X104863671Y-65856285D01*
X104863671Y-65856287D01*
X104863670Y-65856289D01*
X104863670Y-65856291D01*
X104844750Y-66000000D01*
X88355500Y-66000000D01*
X88355500Y-64900000D01*
X117344750Y-64900000D01*
X117363670Y-65043709D01*
X117363670Y-65043711D01*
X117363671Y-65043712D01*
X117363671Y-65043714D01*
X117419136Y-65177621D01*
X117419141Y-65177628D01*
X117507374Y-65292616D01*
X117507383Y-65292625D01*
X117622371Y-65380858D01*
X117622378Y-65380863D01*
X117756286Y-65436328D01*
X117756291Y-65436330D01*
X117900000Y-65455250D01*
X118043709Y-65436330D01*
X118043714Y-65436328D01*
X118177621Y-65380863D01*
X118177622Y-65380862D01*
X118177625Y-65380861D01*
X118292621Y-65292621D01*
X118380861Y-65177625D01*
X118381115Y-65177013D01*
X118436328Y-65043714D01*
X118436328Y-65043713D01*
X118436330Y-65043709D01*
X118455250Y-64900000D01*
X118436330Y-64756291D01*
X118436328Y-64756285D01*
X118380863Y-64622378D01*
X118380858Y-64622371D01*
X118292625Y-64507383D01*
X118292616Y-64507374D01*
X118177628Y-64419141D01*
X118177621Y-64419136D01*
X118043713Y-64363671D01*
X118043710Y-64363670D01*
X118043709Y-64363670D01*
X117900000Y-64344750D01*
X117756291Y-64363670D01*
X117756289Y-64363670D01*
X117756287Y-64363671D01*
X117756285Y-64363671D01*
X117622378Y-64419136D01*
X117622371Y-64419141D01*
X117507383Y-64507374D01*
X117507374Y-64507383D01*
X117419141Y-64622371D01*
X117419136Y-64622378D01*
X117363671Y-64756285D01*
X117363671Y-64756287D01*
X117363670Y-64756289D01*
X117363670Y-64756291D01*
X117344750Y-64900000D01*
X88355500Y-64900000D01*
X88355500Y-64208972D01*
X88374454Y-64113684D01*
X88428430Y-64032902D01*
X88961332Y-63500000D01*
X96544750Y-63500000D01*
X96563670Y-63643709D01*
X96563670Y-63643711D01*
X96563671Y-63643712D01*
X96563671Y-63643714D01*
X96619136Y-63777621D01*
X96619141Y-63777628D01*
X96707374Y-63892616D01*
X96707383Y-63892625D01*
X96822371Y-63980858D01*
X96822378Y-63980863D01*
X96948015Y-64032902D01*
X96956291Y-64036330D01*
X97100000Y-64055250D01*
X97243709Y-64036330D01*
X97243714Y-64036328D01*
X97377621Y-63980863D01*
X97377622Y-63980862D01*
X97377625Y-63980861D01*
X97492621Y-63892621D01*
X97580861Y-63777625D01*
X97636330Y-63643709D01*
X97655250Y-63500000D01*
X97636330Y-63356291D01*
X97631411Y-63344415D01*
X97580863Y-63222378D01*
X97580858Y-63222371D01*
X97492625Y-63107383D01*
X97492616Y-63107374D01*
X97377628Y-63019141D01*
X97377621Y-63019136D01*
X97243713Y-62963671D01*
X97243710Y-62963670D01*
X97243709Y-62963670D01*
X97100000Y-62944750D01*
X96956291Y-62963670D01*
X96956289Y-62963670D01*
X96956287Y-62963671D01*
X96956285Y-62963671D01*
X96822378Y-63019136D01*
X96822371Y-63019141D01*
X96707383Y-63107374D01*
X96707374Y-63107383D01*
X96619141Y-63222371D01*
X96619136Y-63222378D01*
X96563671Y-63356285D01*
X96563671Y-63356287D01*
X96563670Y-63356289D01*
X96563670Y-63356291D01*
X96544750Y-63500000D01*
X88961332Y-63500000D01*
X90232902Y-62228430D01*
X90313684Y-62174454D01*
X90408972Y-62155500D01*
X132495500Y-62155500D01*
X132590788Y-62174454D01*
G37*
%TD.AperFunction*%
%TD*%
%TA.AperFunction,Conductor*%
%TO.N,+VOUT*%
G36*
X159943039Y-97219685D02*
G01*
X159988794Y-97272489D01*
X160000000Y-97324000D01*
X160000000Y-99676000D01*
X159980315Y-99743039D01*
X159927511Y-99788794D01*
X159876000Y-99800000D01*
X157999999Y-99800000D01*
X157300000Y-100499999D01*
X157300000Y-100500000D01*
X157300000Y-105400000D01*
X158000000Y-106100000D01*
X159576000Y-106100000D01*
X159643039Y-106119685D01*
X159688794Y-106172489D01*
X159700000Y-106224000D01*
X159700000Y-111376000D01*
X159680315Y-111443039D01*
X159627511Y-111488794D01*
X159576000Y-111500000D01*
X152424000Y-111500000D01*
X152356961Y-111480315D01*
X152311206Y-111427511D01*
X152300000Y-111376000D01*
X152300000Y-108600000D01*
X150000000Y-106300000D01*
X141824000Y-106300000D01*
X141756961Y-106280315D01*
X141711206Y-106227511D01*
X141700000Y-106176000D01*
X141700000Y-99524000D01*
X141719685Y-99456961D01*
X141772489Y-99411206D01*
X141824000Y-99400000D01*
X150000000Y-99400000D01*
X152300000Y-97400000D01*
X152300000Y-97324000D01*
X152319685Y-97256961D01*
X152372489Y-97211206D01*
X152424000Y-97200000D01*
X159876000Y-97200000D01*
X159943039Y-97219685D01*
G37*
%TD.AperFunction*%
%TD*%
M02*
