M48
; DRILL file {KiCad 8.0.4} date 2024-08-09T15:48:07+0200
; FORMAT={-:-/ absolute / inch / decimal}
; #@! TF.CreationDate,2024-08-09T15:48:07+02:00
; #@! TF.GenerationSoftware,Kicad,Pcbnew,8.0.4
; #@! TF.FileFunction,Plated,1,4,PTH
FMAT,2
INCH
; #@! TA.AperFunction,Plated,PTH,ViaDrill
T1C0.0118
; #@! TA.AperFunction,Plated,PTH,ViaDrill
T2C0.0157
; #@! TA.AperFunction,Plated,PTH,ComponentDrill
T3C0.0236
; #@! TA.AperFunction,Plated,PTH,ComponentDrill
T4C0.0315
; #@! TA.AperFunction,Plated,PTH,ComponentDrill
T5C0.0394
; #@! TA.AperFunction,Plated,PTH,ComponentDrill
T6C0.0472
; #@! TA.AperFunction,Plated,PTH,ComponentDrill
T7C0.0512
; #@! TA.AperFunction,Plated,PTH,ComponentDrill
T8C0.1614
%
G90
G05
T1
X2.9528Y-3.1496
X2.9528Y-4.5276
X3.1496Y-3.1496
X3.1496Y-4.5276
X3.1732Y-3.2756
X3.1929Y-3.6102
X3.2244Y-2.811
X3.2638Y-2.8819
X3.2717Y-2.9331
X3.3346Y-2.4567
X3.3346Y-2.6102
X3.3661Y-3.6654
X3.3661Y-3.7047
X3.374Y-2.6339
X3.3858Y-3.1102
X3.3858Y-3.2047
X3.3858Y-4.5276
X3.3858Y-4.7244
X3.3858Y-4.9213
X3.4173Y-3.1575
X3.4331Y-2.4252
X3.437Y-3.3858
X3.4488Y-3.1102
X3.4488Y-3.2047
X3.4567Y-2.6339
X3.4803Y-3.1575
X3.5079Y-3.4724
X3.5079Y-3.6929
X3.5118Y-2.8937
X3.5118Y-3.1102
X3.5118Y-3.2047
X3.5197Y-2.9331
X3.5354Y-2.626
X3.5354Y-2.689
X3.5433Y-3.1575
X3.5748Y-3.1102
X3.5748Y-3.2047
X3.5984Y-3.9331
X3.5984Y-4.0157
X3.6063Y-3.1575
X3.6378Y-3.2047
X3.6459Y-2.815
X3.6614Y-4.5276
X3.6693Y-3.1575
X3.6892Y-2.5709
X3.6929Y-3.9331
X3.6929Y-4.0157
X3.7008Y-4.9213
X3.7443Y-2.6299
X3.748Y-3.1575
X3.748Y-3.2126
X3.7717Y-3.185
X3.7953Y-3.1575
X3.811Y-4.4409
X3.8228Y-2.5
X3.8465Y-2.7244
X3.8543Y-2.5984
X3.8543Y-2.6614
X3.8543Y-2.8858
X3.8543Y-3.122
X3.8622Y-2.8031
X3.874Y-3.8622
X3.9055Y-4.4409
X3.9488Y-3.6732
X3.9764Y-4.2126
X4.0197Y-2.7244
X4.0197Y-2.8701
X4.0472Y-3.6339
X4.0551Y-4.1654
X4.0551Y-4.2598
X4.1063Y-3.6339
X4.1181Y-3.122
X4.1496Y-2.5984
X4.1535Y-2.6614
X4.1654Y-3.6339
X4.189Y-4.3858
X4.189Y-4.4882
X4.2323Y-4.3346
X4.2323Y-4.437
X4.2323Y-4.5354
X4.2795Y-4.3858
X4.2795Y-4.4882
X4.3189Y-2.752
X4.3307Y-2.5984
X4.3307Y-2.6614
X4.3307Y-2.8031
X4.3701Y-4.3858
X4.3701Y-4.4882
X4.3937Y-3.4291
X4.4134Y-4.3346
X4.4134Y-4.437
X4.4134Y-4.5354
X4.4606Y-4.3858
X4.4606Y-4.4882
X4.4921Y-2.7244
X4.4921Y-2.8701
X4.5906Y-3.1142
X4.6417Y-2.5551
X4.7441Y-2.878
X4.8346Y-4.3858
X4.8346Y-4.4882
X4.878Y-4.3346
X4.878Y-4.437
X4.878Y-4.5354
X4.8898Y-3.2677
X4.8898Y-3.4961
X4.9252Y-4.3858
X4.9252Y-4.4882
X4.937Y-3.2165
X4.9843Y-3.4961
X5.0157Y-4.3858
X5.0157Y-4.4882
X5.0472Y-3.2677
X5.0591Y-4.3346
X5.0591Y-4.437
X5.0591Y-4.5354
X5.1063Y-4.3858
X5.1063Y-4.4882
X5.1181Y-2.8346
X5.2756Y-3.2283
X5.2756Y-3.3858
X5.2756Y-4.1732
X5.2756Y-4.6457
X5.3307Y-4.0591
X5.3307Y-4.1181
X5.3819Y-4.0276
X5.3819Y-4.0866
X5.3819Y-4.1457
X5.4331Y-4.6772
X5.4331Y-4.7717
X5.4882Y-4.7244
X5.5118Y-2.8346
X5.5118Y-3.2283
X5.5118Y-3.3858
X5.5354Y-4.6772
X5.5354Y-4.7717
X5.5866Y-4.7244
X5.626Y-3.9488
X5.626Y-4.0512
X5.626Y-4.1535
X5.6378Y-4.6772
X5.6378Y-4.7717
X5.6732Y-4.0
X5.6732Y-4.1024
X5.7205Y-3.9488
X5.7205Y-4.0512
X5.7205Y-4.1535
X5.748Y-3.2283
X5.748Y-3.3858
X5.748Y-4.8543
X5.8031Y-4.7126
X5.8031Y-4.7598
X5.8031Y-4.8071
X5.8031Y-4.8543
X5.8504Y-4.7362
X5.8504Y-4.7835
X5.8504Y-4.8307
X6.0276Y-3.2126
X6.063Y-4.6929
X6.063Y-4.7323
X6.063Y-4.7874
X6.063Y-4.8268
X6.063Y-4.8819
X6.063Y-4.9213
X6.0709Y-3.1614
X6.0709Y-3.2638
X6.1181Y-3.1102
X6.1181Y-3.2126
X6.1614Y-3.1614
X6.1614Y-3.2638
X6.2087Y-3.1102
X6.2087Y-3.2126
X6.252Y-3.1614
X6.252Y-3.2638
X6.2992Y-3.1102
X6.2992Y-3.2126
X6.3425Y-3.1614
X6.3425Y-3.2638
X6.3898Y-3.1102
X6.3898Y-3.2126
X6.3937Y-2.4606
X6.4134Y-2.9291
X6.4213Y-2.626
X6.4213Y-2.689
X6.4331Y-3.1614
X6.4331Y-3.2638
X6.4331Y-3.7402
X6.4331Y-3.7795
X6.4331Y-3.8346
X6.4331Y-3.874
X6.4528Y-4.7874
X6.4528Y-4.8268
X6.4528Y-4.8819
X6.4528Y-4.9213
X6.4803Y-3.2126
X6.5236Y-3.1614
X6.5236Y-3.2638
X6.5394Y-2.815
X6.5709Y-3.2126
X6.5748Y-2.5709
X6.6378Y-2.626
X6.6535Y-3.2126
X6.7008Y-3.1614
X6.7008Y-3.2638
X6.7165Y-2.5
X6.7323Y-2.748
X6.7441Y-3.1102
X6.7441Y-3.2126
X6.7559Y-2.5591
X6.7559Y-2.6339
X6.7717Y-2.8937
X6.7756Y-2.4961
X6.8228Y-2.6339
X6.8228Y-3.9291
X6.8228Y-3.9685
X6.8268Y-3.7402
X6.8268Y-3.7795
X6.8268Y-3.8346
X6.8268Y-3.874
X6.9173Y-2.563
X6.9409Y-2.6339
X6.9409Y-3.2441
X6.9409Y-3.3976
X7.0079Y-2.6811
X7.0118Y-2.8937
X7.0709Y-3.622
X7.0709Y-3.7244
X7.1142Y-3.5709
X7.1142Y-3.6732
X7.1614Y-3.622
X7.1614Y-3.7244
X7.1693Y-3.0827
X7.1693Y-3.1457
X7.2047Y-3.5709
X7.2047Y-3.6732
X7.2047Y-4.3307
X7.2047Y-4.5276
X7.252Y-3.622
X7.252Y-3.7244
X7.2953Y-3.5709
X7.2953Y-3.6732
T2
X4.2362Y-3.8307
X4.7205Y-3.6299
X4.7776Y-3.6319
X5.4567Y-4.1693
X5.8031Y-4.622
T3
X2.9045Y-2.6378
X2.9045Y-4.8425
X2.9417Y-2.548
X2.9417Y-2.7276
X2.9417Y-4.7527
X2.9417Y-4.9323
X3.0315Y-2.5108
X3.0315Y-2.7648
X3.0315Y-4.7156
X3.0315Y-4.9695
X3.1213Y-2.548
X3.1213Y-2.7276
X3.1213Y-4.7527
X3.1213Y-4.9323
X3.1585Y-2.6378
X3.1585Y-4.8425
X7.0778Y-2.6378
X7.0778Y-4.8425
X7.1149Y-2.548
X7.1149Y-2.7276
X7.1149Y-4.7527
X7.1149Y-4.9323
X7.2047Y-2.5108
X7.2047Y-2.7648
X7.2047Y-4.7156
X7.2047Y-4.9695
X7.2945Y-2.548
X7.2945Y-2.7276
X7.2945Y-4.7527
X7.2945Y-4.9323
X7.3317Y-2.6378
X7.3317Y-4.8425
T4
X3.6457Y-4.2913
X3.6457Y-4.3701
X3.8583Y-4.0827
X3.8583Y-4.1614
X5.0394Y-2.5197
X5.0394Y-2.5984
X5.1181Y-2.5197
X5.1181Y-2.5984
X5.1969Y-2.5197
X5.1969Y-2.5984
X5.2756Y-2.5197
X5.2756Y-2.5984
X5.3543Y-2.5197
X5.3543Y-2.5984
X5.4331Y-2.5197
X5.4331Y-2.5984
X5.5118Y-2.5197
X5.5118Y-2.5984
X5.5906Y-2.5197
X5.5906Y-2.5984
X6.248Y-3.878
X6.248Y-4.0748
X6.248Y-4.3504
X6.248Y-4.5472
X6.6417Y-4.1142
X6.6417Y-4.311
X6.6417Y-4.5787
X6.6417Y-4.7756
T5
X2.8937Y-3.5433
X3.0118Y-3.5433
T7
X3.0157Y-4.0354
X3.0157Y-4.2323
X7.2205Y-3.8386
X7.2205Y-4.0354
T8
X3.0315Y-2.6378
X3.0315Y-4.8425
X7.2047Y-2.6378
X7.2047Y-4.8425
T6
G00X3.7244Y-4.7244
M15
G01X3.7559Y-4.7244
M16
G05
G00X5.3268Y-4.4488
M15
G01X5.3583Y-4.4488
M16
G05
G00X5.5669Y-4.3937
M15
G01X5.5984Y-4.3937
M16
G05
G00X5.8937Y-4.3937
M15
G01X5.9252Y-4.3937
M16
G05
M30
