%TF.GenerationSoftware,KiCad,Pcbnew,8.0.4*%
%TF.CreationDate,2024-08-09T15:48:12+02:00*%
%TF.ProjectId,ELE0124CL_power_boost,454c4530-3132-4344-934c-5f706f776572,1.0*%
%TF.SameCoordinates,Original*%
%TF.FileFunction,Paste,Top*%
%TF.FilePolarity,Positive*%
%FSLAX46Y46*%
G04 Gerber Fmt 4.6, Leading zero omitted, Abs format (unit mm)*
G04 Created by KiCad (PCBNEW 8.0.4) date 2024-08-09 15:48:12*
%MOMM*%
%LPD*%
G01*
G04 APERTURE LIST*
G04 Aperture macros list*
%AMRoundRect*
0 Rectangle with rounded corners*
0 $1 Rounding radius*
0 $2 $3 $4 $5 $6 $7 $8 $9 X,Y pos of 4 corners*
0 Add a 4 corners polygon primitive as box body*
4,1,4,$2,$3,$4,$5,$6,$7,$8,$9,$2,$3,0*
0 Add four circle primitives for the rounded corners*
1,1,$1+$1,$2,$3*
1,1,$1+$1,$4,$5*
1,1,$1+$1,$6,$7*
1,1,$1+$1,$8,$9*
0 Add four rect primitives between the rounded corners*
20,1,$1+$1,$2,$3,$4,$5,0*
20,1,$1+$1,$4,$5,$6,$7,0*
20,1,$1+$1,$6,$7,$8,$9,0*
20,1,$1+$1,$8,$9,$2,$3,0*%
G04 Aperture macros list end*
%ADD10C,0.000000*%
%ADD11RoundRect,0.050000X0.425000X-0.350000X0.425000X0.350000X-0.425000X0.350000X-0.425000X-0.350000X0*%
%ADD12RoundRect,0.050000X0.350000X0.425000X-0.350000X0.425000X-0.350000X-0.425000X0.350000X-0.425000X0*%
%ADD13RoundRect,0.050000X-0.425000X0.350000X-0.425000X-0.350000X0.425000X-0.350000X0.425000X0.350000X0*%
%ADD14RoundRect,0.050000X1.625000X-0.562500X1.625000X0.562500X-1.625000X0.562500X-1.625000X-0.562500X0*%
%ADD15RoundRect,0.050000X-0.525000X-0.850000X0.525000X-0.850000X0.525000X0.850000X-0.525000X0.850000X0*%
%ADD16RoundRect,0.050000X3.950000X4.200000X-3.950000X4.200000X-3.950000X-4.200000X3.950000X-4.200000X0*%
%ADD17RoundRect,0.050000X-0.250000X0.950000X-0.250000X-0.950000X0.250000X-0.950000X0.250000X0.950000X0*%
%ADD18RoundRect,0.050000X0.150000X-0.650000X0.150000X0.650000X-0.150000X0.650000X-0.150000X-0.650000X0*%
%ADD19RoundRect,0.050000X-0.850000X0.525000X-0.850000X-0.525000X0.850000X-0.525000X0.850000X0.525000X0*%
%ADD20RoundRect,0.050000X-0.350000X-0.425000X0.350000X-0.425000X0.350000X0.425000X-0.350000X0.425000X0*%
%ADD21RoundRect,0.050000X0.525000X0.850000X-0.525000X0.850000X-0.525000X-0.850000X0.525000X-0.850000X0*%
%ADD22RoundRect,0.050000X0.850000X-0.525000X0.850000X0.525000X-0.850000X0.525000X-0.850000X-0.525000X0*%
%ADD23RoundRect,0.050000X-1.625000X0.562500X-1.625000X-0.562500X1.625000X-0.562500X1.625000X0.562500X0*%
%ADD24RoundRect,0.050000X0.250000X-0.750000X0.250000X0.750000X-0.250000X0.750000X-0.250000X-0.750000X0*%
%ADD25RoundRect,0.050000X0.250000X-0.612500X0.250000X0.612500X-0.250000X0.612500X-0.250000X-0.612500X0*%
%ADD26RoundRect,0.050000X0.400000X0.550000X-0.400000X0.550000X-0.400000X-0.550000X0.400000X-0.550000X0*%
%ADD27RoundRect,0.050000X-0.550000X0.400000X-0.550000X-0.400000X0.550000X-0.400000X0.550000X0.400000X0*%
%ADD28RoundRect,0.050000X0.270000X-0.902500X0.270000X0.902500X-0.270000X0.902500X-0.270000X-0.902500X0*%
G04 APERTURE END LIST*
D10*
%TO.C,Q1*%
G36*
X146151903Y-105699922D02*
G01*
X146151903Y-105699922D01*
G75*
G02*
X146201903Y-105749922I-3J-49978D01*
G01*
X146201903Y-106089922D01*
G75*
G02*
X146151903Y-106139922I-50003J22D01*
G01*
X145431903Y-106139922D01*
G75*
G02*
X145381903Y-106089922I-3J50022D01*
G01*
X145381903Y-105749922D01*
G75*
G02*
X145431903Y-105699922I49997J22D01*
G01*
X146151903Y-105699922D01*
G37*
G36*
X146151903Y-104429922D02*
G01*
X146151903Y-104429922D01*
G75*
G02*
X146201903Y-104479922I-3J-49978D01*
G01*
X146201903Y-104819922D01*
G75*
G02*
X146151903Y-104869922I-50003J22D01*
G01*
X145431903Y-104869922D01*
G75*
G02*
X145381903Y-104819922I-3J50022D01*
G01*
X145381903Y-104479922D01*
G75*
G02*
X145431903Y-104429922I49997J22D01*
G01*
X146151903Y-104429922D01*
G37*
G36*
X146151903Y-103150000D02*
G01*
X146151903Y-103150000D01*
G75*
G02*
X146201903Y-103200000I-3J-50000D01*
G01*
X146201903Y-103540000D01*
G75*
G02*
X146151903Y-103590000I-50003J0D01*
G01*
X145431903Y-103590000D01*
G75*
G02*
X145381903Y-103540000I-3J50000D01*
G01*
X145381903Y-103200000D01*
G75*
G02*
X145431903Y-103150000I49997J0D01*
G01*
X146151903Y-103150000D01*
G37*
G36*
X146151903Y-101880000D02*
G01*
X146151903Y-101880000D01*
G75*
G02*
X146201903Y-101930000I-3J-50000D01*
G01*
X146201903Y-102270000D01*
G75*
G02*
X146151903Y-102320000I-50003J0D01*
G01*
X145431903Y-102320000D01*
G75*
G02*
X145381903Y-102270000I-3J50000D01*
G01*
X145381903Y-101930000D01*
G75*
G02*
X145431903Y-101880000I49997J0D01*
G01*
X146151903Y-101880000D01*
G37*
G36*
X145101903Y-104040000D02*
G01*
X145101903Y-104040000D01*
G75*
G02*
X145151903Y-104090000I-3J-50000D01*
G01*
X145151903Y-105490000D01*
G75*
G02*
X145101903Y-105540000I-50003J0D01*
G01*
X143701903Y-105540000D01*
G75*
G02*
X143651903Y-105490000I-3J50000D01*
G01*
X143651903Y-104090000D01*
G75*
G02*
X143701903Y-104040000I49997J0D01*
G01*
X145101903Y-104040000D01*
G37*
G36*
X145101903Y-102440000D02*
G01*
X145101903Y-102440000D01*
G75*
G02*
X145151903Y-102490000I-3J-50000D01*
G01*
X145151903Y-103890000D01*
G75*
G02*
X145101903Y-103940000I-50003J0D01*
G01*
X143701903Y-103940000D01*
G75*
G02*
X143651903Y-103890000I-3J50000D01*
G01*
X143651903Y-102490000D01*
G75*
G02*
X143701903Y-102440000I49997J0D01*
G01*
X145101903Y-102440000D01*
G37*
G36*
X143501903Y-104040000D02*
G01*
X143501903Y-104040000D01*
G75*
G02*
X143551903Y-104090000I-3J-50000D01*
G01*
X143551903Y-105490000D01*
G75*
G02*
X143501903Y-105540000I-50003J0D01*
G01*
X142101903Y-105540000D01*
G75*
G02*
X142051903Y-105490000I-3J50000D01*
G01*
X142051903Y-104090000D01*
G75*
G02*
X142101903Y-104040000I49997J0D01*
G01*
X143501903Y-104040000D01*
G37*
G36*
X143501903Y-102440000D02*
G01*
X143501903Y-102440000D01*
G75*
G02*
X143551903Y-102490000I-3J-50000D01*
G01*
X143551903Y-103890000D01*
G75*
G02*
X143501903Y-103940000I-50003J0D01*
G01*
X142101903Y-103940000D01*
G75*
G02*
X142051903Y-103890000I-3J50000D01*
G01*
X142051903Y-102490000D01*
G75*
G02*
X142101903Y-102440000I49997J0D01*
G01*
X143501903Y-102440000D01*
G37*
G36*
X140610000Y-105690000D02*
G01*
X140610000Y-105690000D01*
G75*
G02*
X140660000Y-105740000I0J-50000D01*
G01*
X140660000Y-106080000D01*
G75*
G02*
X140610000Y-106130000I-50000J0D01*
G01*
X139890000Y-106130000D01*
G75*
G02*
X139840000Y-106080000I0J50000D01*
G01*
X139840000Y-105740000D01*
G75*
G02*
X139890000Y-105690000I50000J0D01*
G01*
X140610000Y-105690000D01*
G37*
G36*
X140610000Y-104420000D02*
G01*
X140610000Y-104420000D01*
G75*
G02*
X140660000Y-104470000I0J-50000D01*
G01*
X140660000Y-104810000D01*
G75*
G02*
X140610000Y-104860000I-50000J0D01*
G01*
X139890000Y-104860000D01*
G75*
G02*
X139840000Y-104810000I0J50000D01*
G01*
X139840000Y-104470000D01*
G75*
G02*
X139890000Y-104420000I50000J0D01*
G01*
X140610000Y-104420000D01*
G37*
G36*
X140610000Y-103150000D02*
G01*
X140610000Y-103150000D01*
G75*
G02*
X140660000Y-103200000I0J-50000D01*
G01*
X140660000Y-103540000D01*
G75*
G02*
X140610000Y-103590000I-50000J0D01*
G01*
X139890000Y-103590000D01*
G75*
G02*
X139840000Y-103540000I0J50000D01*
G01*
X139840000Y-103200000D01*
G75*
G02*
X139890000Y-103150000I50000J0D01*
G01*
X140610000Y-103150000D01*
G37*
G36*
X140610000Y-101880000D02*
G01*
X140610000Y-101880000D01*
G75*
G02*
X140660000Y-101930000I0J-50000D01*
G01*
X140660000Y-102270000D01*
G75*
G02*
X140610000Y-102320000I-50000J0D01*
G01*
X139890000Y-102320000D01*
G75*
G02*
X139840000Y-102270000I0J50000D01*
G01*
X139840000Y-101930000D01*
G75*
G02*
X139890000Y-101880000I50000J0D01*
G01*
X140610000Y-101880000D01*
G37*
G36*
X140610000Y-103820000D02*
G01*
X140610000Y-103820000D01*
G75*
G02*
X140660000Y-103870000I0J-50000D01*
G01*
X140660000Y-104210000D01*
G75*
G02*
X140610000Y-104260000I-50000J0D01*
G01*
X140340000Y-104260000D01*
G75*
G02*
X140290000Y-104210000I0J50000D01*
G01*
X140290000Y-103870000D01*
G75*
G02*
X140340000Y-103820000I50000J0D01*
G01*
X140610000Y-103820000D01*
G37*
G36*
X140610000Y-102540000D02*
G01*
X140610000Y-102540000D01*
G75*
G02*
X140660000Y-102590000I0J-50000D01*
G01*
X140660000Y-102930000D01*
G75*
G02*
X140610000Y-102980000I-50000J0D01*
G01*
X140340000Y-102980000D01*
G75*
G02*
X140290000Y-102930000I0J50000D01*
G01*
X140290000Y-102590000D01*
G75*
G02*
X140340000Y-102540000I50000J0D01*
G01*
X140610000Y-102540000D01*
G37*
%TO.C,Q2*%
G36*
X145660000Y-121020000D02*
G01*
X145660000Y-121020000D01*
G75*
G02*
X145710000Y-121070000I0J-50000D01*
G01*
X145710000Y-121410000D01*
G75*
G02*
X145660000Y-121460000I-50000J0D01*
G01*
X145390000Y-121460000D01*
G75*
G02*
X145340000Y-121410000I0J50000D01*
G01*
X145340000Y-121070000D01*
G75*
G02*
X145390000Y-121020000I50000J0D01*
G01*
X145660000Y-121020000D01*
G37*
G36*
X145660000Y-119740000D02*
G01*
X145660000Y-119740000D01*
G75*
G02*
X145710000Y-119790000I0J-50000D01*
G01*
X145710000Y-120130000D01*
G75*
G02*
X145660000Y-120180000I-50000J0D01*
G01*
X145390000Y-120180000D01*
G75*
G02*
X145340000Y-120130000I0J50000D01*
G01*
X145340000Y-119790000D01*
G75*
G02*
X145390000Y-119740000I50000J0D01*
G01*
X145660000Y-119740000D01*
G37*
G36*
X146110000Y-121680000D02*
G01*
X146110000Y-121680000D01*
G75*
G02*
X146160000Y-121730000I0J-50000D01*
G01*
X146160000Y-122070000D01*
G75*
G02*
X146110000Y-122120000I-50000J0D01*
G01*
X145390000Y-122120000D01*
G75*
G02*
X145340000Y-122070000I0J50000D01*
G01*
X145340000Y-121730000D01*
G75*
G02*
X145390000Y-121680000I50000J0D01*
G01*
X146110000Y-121680000D01*
G37*
G36*
X146110000Y-120410000D02*
G01*
X146110000Y-120410000D01*
G75*
G02*
X146160000Y-120460000I0J-50000D01*
G01*
X146160000Y-120800000D01*
G75*
G02*
X146110000Y-120850000I-50000J0D01*
G01*
X145390000Y-120850000D01*
G75*
G02*
X145340000Y-120800000I0J50000D01*
G01*
X145340000Y-120460000D01*
G75*
G02*
X145390000Y-120410000I50000J0D01*
G01*
X146110000Y-120410000D01*
G37*
G36*
X146110000Y-119140000D02*
G01*
X146110000Y-119140000D01*
G75*
G02*
X146160000Y-119190000I0J-50000D01*
G01*
X146160000Y-119530000D01*
G75*
G02*
X146110000Y-119580000I-50000J0D01*
G01*
X145390000Y-119580000D01*
G75*
G02*
X145340000Y-119530000I0J50000D01*
G01*
X145340000Y-119190000D01*
G75*
G02*
X145390000Y-119140000I50000J0D01*
G01*
X146110000Y-119140000D01*
G37*
G36*
X146110000Y-117870000D02*
G01*
X146110000Y-117870000D01*
G75*
G02*
X146160000Y-117920000I0J-50000D01*
G01*
X146160000Y-118260000D01*
G75*
G02*
X146110000Y-118310000I-50000J0D01*
G01*
X145390000Y-118310000D01*
G75*
G02*
X145340000Y-118260000I0J50000D01*
G01*
X145340000Y-117920000D01*
G75*
G02*
X145390000Y-117870000I50000J0D01*
G01*
X146110000Y-117870000D01*
G37*
G36*
X143898097Y-120060000D02*
G01*
X143898097Y-120060000D01*
G75*
G02*
X143948097Y-120110000I3J-50000D01*
G01*
X143948097Y-121510000D01*
G75*
G02*
X143898097Y-121560000I-49997J0D01*
G01*
X142498097Y-121560000D01*
G75*
G02*
X142448097Y-121510000I3J50000D01*
G01*
X142448097Y-120110000D01*
G75*
G02*
X142498097Y-120060000I50003J0D01*
G01*
X143898097Y-120060000D01*
G37*
G36*
X143898097Y-118460000D02*
G01*
X143898097Y-118460000D01*
G75*
G02*
X143948097Y-118510000I3J-50000D01*
G01*
X143948097Y-119910000D01*
G75*
G02*
X143898097Y-119960000I-49997J0D01*
G01*
X142498097Y-119960000D01*
G75*
G02*
X142448097Y-119910000I3J50000D01*
G01*
X142448097Y-118510000D01*
G75*
G02*
X142498097Y-118460000I50003J0D01*
G01*
X143898097Y-118460000D01*
G37*
G36*
X142298097Y-120060000D02*
G01*
X142298097Y-120060000D01*
G75*
G02*
X142348097Y-120110000I3J-50000D01*
G01*
X142348097Y-121510000D01*
G75*
G02*
X142298097Y-121560000I-49997J0D01*
G01*
X140898097Y-121560000D01*
G75*
G02*
X140848097Y-121510000I3J50000D01*
G01*
X140848097Y-120110000D01*
G75*
G02*
X140898097Y-120060000I50003J0D01*
G01*
X142298097Y-120060000D01*
G37*
G36*
X142298097Y-118460000D02*
G01*
X142298097Y-118460000D01*
G75*
G02*
X142348097Y-118510000I3J-50000D01*
G01*
X142348097Y-119910000D01*
G75*
G02*
X142298097Y-119960000I-49997J0D01*
G01*
X140898097Y-119960000D01*
G75*
G02*
X140848097Y-119910000I3J50000D01*
G01*
X140848097Y-118510000D01*
G75*
G02*
X140898097Y-118460000I50003J0D01*
G01*
X142298097Y-118460000D01*
G37*
G36*
X140568097Y-121680000D02*
G01*
X140568097Y-121680000D01*
G75*
G02*
X140618097Y-121730000I3J-50000D01*
G01*
X140618097Y-122070000D01*
G75*
G02*
X140568097Y-122120000I-49997J0D01*
G01*
X139848097Y-122120000D01*
G75*
G02*
X139798097Y-122070000I3J50000D01*
G01*
X139798097Y-121730000D01*
G75*
G02*
X139848097Y-121680000I50003J0D01*
G01*
X140568097Y-121680000D01*
G37*
G36*
X140568097Y-120410000D02*
G01*
X140568097Y-120410000D01*
G75*
G02*
X140618097Y-120460000I3J-50000D01*
G01*
X140618097Y-120800000D01*
G75*
G02*
X140568097Y-120850000I-49997J0D01*
G01*
X139848097Y-120850000D01*
G75*
G02*
X139798097Y-120800000I3J50000D01*
G01*
X139798097Y-120460000D01*
G75*
G02*
X139848097Y-120410000I50003J0D01*
G01*
X140568097Y-120410000D01*
G37*
G36*
X140568097Y-119130078D02*
G01*
X140568097Y-119130078D01*
G75*
G02*
X140618097Y-119180078I3J-50022D01*
G01*
X140618097Y-119520078D01*
G75*
G02*
X140568097Y-119570078I-49997J-22D01*
G01*
X139848097Y-119570078D01*
G75*
G02*
X139798097Y-119520078I3J49978D01*
G01*
X139798097Y-119180078D01*
G75*
G02*
X139848097Y-119130078I50003J-22D01*
G01*
X140568097Y-119130078D01*
G37*
G36*
X140568097Y-117860078D02*
G01*
X140568097Y-117860078D01*
G75*
G02*
X140618097Y-117910078I3J-50022D01*
G01*
X140618097Y-118250078D01*
G75*
G02*
X140568097Y-118300078I-49997J-22D01*
G01*
X139848097Y-118300078D01*
G75*
G02*
X139798097Y-118250078I3J49978D01*
G01*
X139798097Y-117910078D01*
G75*
G02*
X139848097Y-117860078I50003J-22D01*
G01*
X140568097Y-117860078D01*
G37*
%TD*%
D11*
%TO.C,C33*%
X100900000Y-86125000D03*
X100900000Y-84475000D03*
%TD*%
D12*
%TO.C,R32*%
X180825000Y-81500000D03*
X179175000Y-81500000D03*
%TD*%
%TO.C,C48*%
X166225000Y-66700000D03*
X164575000Y-66700000D03*
%TD*%
D13*
%TO.C,C40*%
X84700000Y-63375000D03*
X84700000Y-65025000D03*
%TD*%
D11*
%TO.C,R24*%
X84900000Y-71425000D03*
X84900000Y-69775000D03*
%TD*%
D12*
%TO.C,D3*%
X115725000Y-66000000D03*
X114075000Y-66000000D03*
%TD*%
D13*
%TO.C,C37*%
X81700000Y-72875000D03*
X81700000Y-74525000D03*
%TD*%
%TO.C,R27*%
X87100000Y-69775000D03*
X87100000Y-71425000D03*
%TD*%
D14*
%TO.C,R10*%
X97000000Y-96362500D03*
X97000000Y-90437500D03*
%TD*%
D12*
%TO.C,R29*%
X92730000Y-68300000D03*
X91080000Y-68300000D03*
%TD*%
D15*
%TO.C,C20*%
X159825000Y-122100000D03*
X162775000Y-122100000D03*
%TD*%
D16*
%TO.C,L1*%
X126250000Y-113000000D03*
X109750000Y-113000000D03*
%TD*%
D11*
%TO.C,C34*%
X113200000Y-86125000D03*
X113200000Y-84475000D03*
%TD*%
D17*
%TO.C,U4*%
X120450000Y-71200000D03*
X119175000Y-71200000D03*
X117905000Y-71200000D03*
X116635000Y-71200000D03*
X115365000Y-71200000D03*
X114095000Y-71200000D03*
X112825000Y-71200000D03*
X111555000Y-71200000D03*
X111555000Y-80800000D03*
X112825000Y-80800000D03*
X114095000Y-80800000D03*
X115365000Y-80800000D03*
X116635000Y-80800000D03*
X117905000Y-80800000D03*
X119175000Y-80800000D03*
X120450000Y-80800000D03*
%TD*%
D18*
%TO.C,U7*%
X94430000Y-69700000D03*
X95080000Y-69700000D03*
X95730000Y-69700000D03*
X96380000Y-69700000D03*
X96380000Y-65300000D03*
X95730000Y-65300000D03*
X95080000Y-65300000D03*
X94430000Y-65300000D03*
%TD*%
D19*
%TO.C,C5*%
X96800000Y-108525000D03*
X96800000Y-111475000D03*
%TD*%
D20*
%TO.C,R34*%
X168575000Y-71500000D03*
X170225000Y-71500000D03*
%TD*%
D13*
%TO.C,C38*%
X90805000Y-72875000D03*
X90805000Y-74525000D03*
%TD*%
D12*
%TO.C,R39*%
X166225000Y-69900000D03*
X164575000Y-69900000D03*
%TD*%
D13*
%TO.C,R26*%
X83300000Y-69775000D03*
X83300000Y-71425000D03*
%TD*%
D20*
%TO.C,C39*%
X94080000Y-63500000D03*
X95730000Y-63500000D03*
%TD*%
D19*
%TO.C,C51*%
X81600000Y-87425000D03*
X81600000Y-90375000D03*
%TD*%
D20*
%TO.C,R21*%
X90175000Y-90600000D03*
X91825000Y-90600000D03*
%TD*%
D21*
%TO.C,C15*%
X167575000Y-97900000D03*
X164625000Y-97900000D03*
%TD*%
D15*
%TO.C,C12*%
X159825000Y-124500000D03*
X162775000Y-124500000D03*
%TD*%
D22*
%TO.C,C3*%
X91400000Y-106175000D03*
X91400000Y-103225000D03*
%TD*%
D20*
%TO.C,C42*%
X179175000Y-78300000D03*
X180825000Y-78300000D03*
%TD*%
D23*
%TO.C,R13*%
X103700000Y-84737500D03*
X103700000Y-90662500D03*
%TD*%
%TO.C,R14*%
X116000000Y-84737500D03*
X116000000Y-90662500D03*
%TD*%
D20*
%TO.C,C46*%
X167575000Y-63500000D03*
X169225000Y-63500000D03*
%TD*%
D15*
%TO.C,C17*%
X169225000Y-95500000D03*
X172175000Y-95500000D03*
%TD*%
D11*
%TO.C,C44*%
X172300000Y-71425000D03*
X172300000Y-69775000D03*
%TD*%
D20*
%TO.C,R42*%
X144575000Y-116400000D03*
X146225000Y-116400000D03*
%TD*%
D12*
%TO.C,C41*%
X92730000Y-66700000D03*
X91080000Y-66700000D03*
%TD*%
D19*
%TO.C,C29*%
X93800000Y-95725000D03*
X93800000Y-98675000D03*
%TD*%
D24*
%TO.C,U9*%
X166095000Y-78700000D03*
X167365000Y-78700000D03*
X168635000Y-78700000D03*
X169905000Y-78700000D03*
X169905000Y-73300000D03*
X168635000Y-73300000D03*
X167365000Y-73300000D03*
X166095000Y-73300000D03*
%TD*%
D12*
%TO.C,R20*%
X91825000Y-92200000D03*
X90175000Y-92200000D03*
%TD*%
%TO.C,R41*%
X141425000Y-107600000D03*
X139775000Y-107600000D03*
%TD*%
D20*
%TO.C,R33*%
X179175000Y-79900000D03*
X180825000Y-79900000D03*
%TD*%
D12*
%TO.C,D2*%
X103725000Y-67600000D03*
X102075000Y-67600000D03*
%TD*%
D21*
%TO.C,C21*%
X158175000Y-119700000D03*
X155225000Y-119700000D03*
%TD*%
D11*
%TO.C,R16*%
X113200000Y-89125000D03*
X113200000Y-87475000D03*
%TD*%
%TO.C,R36*%
X177700000Y-71425000D03*
X177700000Y-69775000D03*
%TD*%
D20*
%TO.C,C27*%
X95675000Y-98100000D03*
X97325000Y-98100000D03*
%TD*%
D25*
%TO.C,U13*%
X83750000Y-91437500D03*
X84700000Y-91437500D03*
X85650000Y-91437500D03*
X85650000Y-89162500D03*
X83750000Y-89162500D03*
%TD*%
D13*
%TO.C,R38*%
X176100000Y-69775000D03*
X176100000Y-71425000D03*
%TD*%
D21*
%TO.C,C16*%
X167575000Y-95500000D03*
X164625000Y-95500000D03*
%TD*%
D12*
%TO.C,C24*%
X100725000Y-69200000D03*
X99075000Y-69200000D03*
%TD*%
D11*
%TO.C,R25*%
X88700000Y-71425000D03*
X88700000Y-69775000D03*
%TD*%
D13*
%TO.C,C47*%
X173200000Y-63375000D03*
X173200000Y-65025000D03*
%TD*%
D15*
%TO.C,C26*%
X94725000Y-85000000D03*
X97675000Y-85000000D03*
%TD*%
D12*
%TO.C,R37*%
X173425000Y-68300000D03*
X171775000Y-68300000D03*
%TD*%
%TO.C,D1*%
X103725000Y-66000000D03*
X102075000Y-66000000D03*
%TD*%
D21*
%TO.C,C13*%
X158175000Y-124500000D03*
X155225000Y-124500000D03*
%TD*%
D12*
%TO.C,C25*%
X112725000Y-69200000D03*
X111075000Y-69200000D03*
%TD*%
D19*
%TO.C,C31*%
X91400000Y-95725000D03*
X91400000Y-98675000D03*
%TD*%
D12*
%TO.C,R40*%
X166225000Y-68300000D03*
X164575000Y-68300000D03*
%TD*%
%TO.C,R28*%
X92730000Y-69900000D03*
X91080000Y-69900000D03*
%TD*%
D20*
%TO.C,R8*%
X106675000Y-67600000D03*
X108325000Y-67600000D03*
%TD*%
D11*
%TO.C,R18*%
X111600000Y-86125000D03*
X111600000Y-84475000D03*
%TD*%
D15*
%TO.C,C19*%
X169225000Y-97900000D03*
X172175000Y-97900000D03*
%TD*%
D20*
%TO.C,R23*%
X95080000Y-71500000D03*
X96730000Y-71500000D03*
%TD*%
D11*
%TO.C,R35*%
X173900000Y-71425000D03*
X173900000Y-69775000D03*
%TD*%
D12*
%TO.C,R22*%
X91825000Y-89000000D03*
X90175000Y-89000000D03*
%TD*%
D26*
%TO.C,D5*%
X95850000Y-88100000D03*
X99150000Y-88100000D03*
%TD*%
D21*
%TO.C,C23*%
X158175000Y-122100000D03*
X155225000Y-122100000D03*
%TD*%
D27*
%TO.C,D6*%
X100300000Y-94150000D03*
X100300000Y-90850000D03*
%TD*%
D15*
%TO.C,C49*%
X81225000Y-93600000D03*
X84175000Y-93600000D03*
%TD*%
D23*
%TO.C,R11*%
X107600000Y-84737500D03*
X107600000Y-90662500D03*
%TD*%
D28*
%TO.C,U10*%
X173095000Y-84300000D03*
X174365000Y-84300000D03*
X175635000Y-84300000D03*
X176905000Y-84300000D03*
X176905000Y-73500000D03*
X175635000Y-73500000D03*
X174365000Y-73500000D03*
X173095000Y-73500000D03*
%TD*%
D19*
%TO.C,C32*%
X124200000Y-84625000D03*
X124200000Y-87575000D03*
%TD*%
D20*
%TO.C,C43*%
X173175000Y-86300000D03*
X174825000Y-86300000D03*
%TD*%
D11*
%TO.C,C36*%
X81700000Y-84825000D03*
X81700000Y-83175000D03*
%TD*%
D22*
%TO.C,C4*%
X93800000Y-106175000D03*
X93800000Y-103225000D03*
%TD*%
D23*
%TO.C,R12*%
X119900000Y-84737500D03*
X119900000Y-90662500D03*
%TD*%
D12*
%TO.C,R30*%
X180825000Y-84700000D03*
X179175000Y-84700000D03*
%TD*%
D24*
%TO.C,U5*%
X92600000Y-78700000D03*
X93870000Y-78700000D03*
X95140000Y-78700000D03*
X96410000Y-78700000D03*
X96410000Y-73300000D03*
X95140000Y-73300000D03*
X93870000Y-73300000D03*
X92600000Y-73300000D03*
%TD*%
D27*
%TO.C,D7*%
X112600000Y-94150000D03*
X112600000Y-90850000D03*
%TD*%
D18*
%TO.C,U8*%
X86525000Y-68100000D03*
X87175000Y-68100000D03*
X87825000Y-68100000D03*
X88475000Y-68100000D03*
X88475000Y-63700000D03*
X87825000Y-63700000D03*
X87175000Y-63700000D03*
X86525000Y-63700000D03*
%TD*%
D11*
%TO.C,R15*%
X100900000Y-89125000D03*
X100900000Y-87475000D03*
%TD*%
D20*
%TO.C,R6*%
X111075000Y-66000000D03*
X112725000Y-66000000D03*
%TD*%
D12*
%TO.C,C35*%
X91825000Y-87400000D03*
X90175000Y-87400000D03*
%TD*%
D20*
%TO.C,R4*%
X99075000Y-66000000D03*
X100725000Y-66000000D03*
%TD*%
D15*
%TO.C,C22*%
X169225000Y-100300000D03*
X172175000Y-100300000D03*
%TD*%
D18*
%TO.C,U12*%
X175025000Y-68100000D03*
X175675000Y-68100000D03*
X176325000Y-68100000D03*
X176975000Y-68100000D03*
X176975000Y-63700000D03*
X176325000Y-63700000D03*
X175675000Y-63700000D03*
X175025000Y-63700000D03*
%TD*%
D12*
%TO.C,D4*%
X115725000Y-67600000D03*
X114075000Y-67600000D03*
%TD*%
D20*
%TO.C,C50*%
X83475000Y-87400000D03*
X85125000Y-87400000D03*
%TD*%
%TO.C,R19*%
X90175000Y-93800000D03*
X91825000Y-93800000D03*
%TD*%
%TO.C,R31*%
X179175000Y-83100000D03*
X180825000Y-83100000D03*
%TD*%
D19*
%TO.C,C6*%
X99200000Y-108525000D03*
X99200000Y-111475000D03*
%TD*%
D11*
%TO.C,R17*%
X99300000Y-86125000D03*
X99300000Y-84475000D03*
%TD*%
D17*
%TO.C,U3*%
X108450000Y-71200000D03*
X107175000Y-71200000D03*
X105905000Y-71200000D03*
X104635000Y-71200000D03*
X103365000Y-71200000D03*
X102095000Y-71200000D03*
X100825000Y-71200000D03*
X99555000Y-71200000D03*
X99555000Y-80800000D03*
X100825000Y-80800000D03*
X102095000Y-80800000D03*
X103365000Y-80800000D03*
X104635000Y-80800000D03*
X105905000Y-80800000D03*
X107175000Y-80800000D03*
X108450000Y-80800000D03*
%TD*%
D19*
%TO.C,C30*%
X126600000Y-84625000D03*
X126600000Y-87575000D03*
%TD*%
D20*
%TO.C,C28*%
X125475000Y-83000000D03*
X127125000Y-83000000D03*
%TD*%
D18*
%TO.C,U11*%
X167925000Y-69700000D03*
X168575000Y-69700000D03*
X169225000Y-69700000D03*
X169875000Y-69700000D03*
X169875000Y-65300000D03*
X169225000Y-65300000D03*
X168575000Y-65300000D03*
X167925000Y-65300000D03*
%TD*%
D20*
%TO.C,R9*%
X106675000Y-66000000D03*
X108325000Y-66000000D03*
%TD*%
%TO.C,R5*%
X99075000Y-67600000D03*
X100725000Y-67600000D03*
%TD*%
D28*
%TO.C,U6*%
X84095000Y-84300000D03*
X85365000Y-84300000D03*
X86635000Y-84300000D03*
X87905000Y-84300000D03*
X87905000Y-73500000D03*
X86635000Y-73500000D03*
X85365000Y-73500000D03*
X84095000Y-73500000D03*
%TD*%
D13*
%TO.C,C45*%
X164300000Y-72775000D03*
X164300000Y-74425000D03*
%TD*%
D20*
%TO.C,R7*%
X111075000Y-67600000D03*
X112725000Y-67600000D03*
%TD*%
M02*
