%TF.GenerationSoftware,KiCad,Pcbnew,8.0.4*%
%TF.CreationDate,2024-08-09T15:48:13+02:00*%
%TF.ProjectId,ELE0124CL_power_boost,454c4530-3132-4344-934c-5f706f776572,1.0*%
%TF.SameCoordinates,Original*%
%TF.FileFunction,Soldermask,Top*%
%TF.FilePolarity,Negative*%
%FSLAX46Y46*%
G04 Gerber Fmt 4.6, Leading zero omitted, Abs format (unit mm)*
G04 Created by KiCad (PCBNEW 8.0.4) date 2024-08-09 15:48:13*
%MOMM*%
%LPD*%
G01*
G04 APERTURE LIST*
G04 Aperture macros list*
%AMRoundRect*
0 Rectangle with rounded corners*
0 $1 Rounding radius*
0 $2 $3 $4 $5 $6 $7 $8 $9 X,Y pos of 4 corners*
0 Add a 4 corners polygon primitive as box body*
4,1,4,$2,$3,$4,$5,$6,$7,$8,$9,$2,$3,0*
0 Add four circle primitives for the rounded corners*
1,1,$1+$1,$2,$3*
1,1,$1+$1,$4,$5*
1,1,$1+$1,$6,$7*
1,1,$1+$1,$8,$9*
0 Add four rect primitives between the rounded corners*
20,1,$1+$1,$2,$3,$4,$5,0*
20,1,$1+$1,$4,$5,$6,$7,0*
20,1,$1+$1,$6,$7,$8,$9,0*
20,1,$1+$1,$8,$9,$2,$3,0*%
%AMFreePoly0*
4,1,49,1.539922,0.398097,1.568097,0.369922,1.570000,0.350000,1.570000,-0.550000,1.568097,-0.569922,1.539922,-0.598097,1.520000,-0.600000,1.080000,-0.600000,1.060078,-0.598097,1.031903,-0.569922,1.030000,-0.550000,1.030000,-0.200000,1.028097,-0.180078,0.999922,-0.151903,0.980000,-0.150000,0.350000,-0.150000,0.330078,-0.151903,0.301903,-0.180078,0.300000,-0.200000,0.300000,-0.550000,
0.298097,-0.569922,0.269922,-0.598097,0.250000,-0.600000,-0.190000,-0.600000,-0.209922,-0.598097,-0.238097,-0.569922,-0.240000,-0.550000,-0.240000,-0.200000,-0.241903,-0.180078,-0.270078,-0.151903,-0.290000,-0.150000,-0.920000,-0.150000,-0.939922,-0.151903,-0.968097,-0.180078,-0.970000,-0.200000,-0.970000,-0.550000,-0.971903,-0.569922,-1.000078,-0.598097,-1.020000,-0.600000,-1.460000,-0.600000,
-1.479922,-0.598097,-1.508097,-0.569922,-1.510000,-0.550000,-1.510000,0.350000,-1.508097,0.369922,-1.479922,0.398097,-1.460000,0.400000,1.520000,0.400000,1.539922,0.398097,1.539922,0.398097,$1*%
%AMFreePoly1*
4,1,17,0.239922,0.448097,0.268097,0.419922,0.270000,0.400000,0.270000,-0.500000,0.268097,-0.519922,0.239922,-0.548097,0.220000,-0.550000,-0.220000,-0.550000,-0.239922,-0.548097,-0.268097,-0.519922,-0.270000,-0.500000,-0.270000,0.400000,-0.268097,0.419922,-0.239922,0.448097,-0.220000,0.450000,0.220000,0.450000,0.239922,0.448097,0.239922,0.448097,$1*%
%AMFreePoly2*
4,1,65,-1.650078,3.248097,-1.621903,3.219922,-1.620000,3.200000,-1.620000,2.570000,-1.618097,2.550078,-1.589922,2.521903,-1.570000,2.520000,-0.940000,2.520000,-0.920078,2.521903,-0.891903,2.550078,-0.890000,2.570000,-0.890000,3.200000,-0.888097,3.219922,-0.859922,3.248097,-0.840000,3.250000,-0.400000,3.250000,-0.380078,3.248097,-0.351903,3.219922,-0.350000,3.200000,-0.350000,2.570000,
-0.348097,2.550078,-0.319922,2.521903,-0.300000,2.520000,0.330000,2.520000,0.349922,2.521903,0.378097,2.550078,0.380000,2.570000,0.380000,3.200000,0.381903,3.219922,0.410078,3.248097,0.430000,3.250000,0.870000,3.250000,0.889922,3.248097,0.918097,3.219922,0.920000,3.200000,0.920000,2.570000,0.921903,2.550078,0.950078,2.521903,0.970000,2.520000,1.600000,2.520000,
1.619922,2.521903,1.648097,2.550078,1.650000,2.570000,1.650000,3.200000,1.651903,3.219922,1.680078,3.248097,1.700000,3.250000,2.190000,3.250000,2.209922,3.248097,2.238097,3.219922,2.240000,3.200000,2.240000,-1.100000,2.238097,-1.119922,2.209922,-1.148097,2.190000,-1.150000,-2.160000,-1.150000,-2.179922,-1.148097,-2.208097,-1.119922,-2.210000,-1.100000,-2.210000,3.200000,
-2.208097,3.219922,-2.179922,3.248097,-2.160000,3.250000,-1.670000,3.250000,-1.650078,3.248097,-1.650078,3.248097,$1*%
G04 Aperture macros list end*
%ADD10C,0.150000*%
%ADD11RoundRect,0.050000X0.425000X-0.350000X0.425000X0.350000X-0.425000X0.350000X-0.425000X-0.350000X0*%
%ADD12RoundRect,0.050000X0.350000X0.425000X-0.350000X0.425000X-0.350000X-0.425000X0.350000X-0.425000X0*%
%ADD13C,1.000000*%
%ADD14RoundRect,0.050000X-0.425000X0.350000X-0.425000X-0.350000X0.425000X-0.350000X0.425000X0.350000X0*%
%ADD15C,1.600000*%
%ADD16C,1.200000*%
%ADD17C,8.600000*%
%ADD18FreePoly0,270.000000*%
%ADD19FreePoly1,270.000000*%
%ADD20FreePoly2,270.000000*%
%ADD21RoundRect,0.050000X1.625000X-0.562500X1.625000X0.562500X-1.625000X0.562500X-1.625000X-0.562500X0*%
%ADD22RoundRect,0.050000X-0.525000X-0.850000X0.525000X-0.850000X0.525000X0.850000X-0.525000X0.850000X0*%
%ADD23RoundRect,0.050000X3.950000X4.200000X-3.950000X4.200000X-3.950000X-4.200000X3.950000X-4.200000X0*%
%ADD24RoundRect,0.050000X-0.250000X0.950000X-0.250000X-0.950000X0.250000X-0.950000X0.250000X0.950000X0*%
%ADD25RoundRect,0.050000X0.150000X-0.650000X0.150000X0.650000X-0.150000X0.650000X-0.150000X-0.650000X0*%
%ADD26RoundRect,0.050000X-0.850000X0.525000X-0.850000X-0.525000X0.850000X-0.525000X0.850000X0.525000X0*%
%ADD27RoundRect,0.050000X-0.350000X-0.425000X0.350000X-0.425000X0.350000X0.425000X-0.350000X0.425000X0*%
%ADD28RoundRect,0.050000X-1.250000X1.250000X-1.250000X-1.250000X1.250000X-1.250000X1.250000X1.250000X0*%
%ADD29C,2.600000*%
%ADD30RoundRect,0.050000X0.525000X0.850000X-0.525000X0.850000X-0.525000X-0.850000X0.525000X-0.850000X0*%
%ADD31O,2.500000X1.700000*%
%ADD32RoundRect,0.200000X0.800000X-0.800000X0.800000X0.800000X-0.800000X0.800000X-0.800000X-0.800000X0*%
%ADD33C,2.000000*%
%ADD34RoundRect,0.050000X0.850000X-0.525000X0.850000X0.525000X-0.850000X0.525000X-0.850000X-0.525000X0*%
%ADD35RoundRect,0.050000X-1.625000X0.562500X-1.625000X-0.562500X1.625000X-0.562500X1.625000X0.562500X0*%
%ADD36RoundRect,0.050000X0.250000X-0.750000X0.250000X0.750000X-0.250000X0.750000X-0.250000X-0.750000X0*%
%ADD37RoundRect,0.050000X0.250000X-0.612500X0.250000X0.612500X-0.250000X0.612500X-0.250000X-0.612500X0*%
%ADD38RoundRect,0.050000X1.250000X-1.250000X1.250000X1.250000X-1.250000X1.250000X-1.250000X-1.250000X0*%
%ADD39RoundRect,0.050000X0.400000X0.550000X-0.400000X0.550000X-0.400000X-0.550000X0.400000X-0.550000X0*%
%ADD40RoundRect,0.050000X-0.550000X0.400000X-0.550000X-0.400000X0.550000X-0.400000X0.550000X0.400000X0*%
%ADD41RoundRect,0.050000X0.270000X-0.902500X0.270000X0.902500X-0.270000X0.902500X-0.270000X-0.902500X0*%
%ADD42FreePoly0,90.000000*%
%ADD43FreePoly1,90.000000*%
%ADD44FreePoly2,90.000000*%
%ADD45RoundRect,0.043333X-0.606667X0.706667X-0.606667X-0.706667X0.606667X-0.706667X0.606667X0.706667X0*%
%ADD46O,1.300000X1.500000*%
G04 APERTURE END LIST*
D10*
%TO.C,Q1*%
X146160000Y-105650000D02*
X146160000Y-105650000D01*
%TO.C,Q2*%
X139840000Y-118350000D02*
X139840000Y-118350000D01*
%TD*%
D11*
%TO.C,C33*%
X100900000Y-86125000D03*
X100900000Y-84475000D03*
%TD*%
D12*
%TO.C,R32*%
X180825000Y-81500000D03*
X179175000Y-81500000D03*
%TD*%
D13*
%TO.C,TP12*%
X178900000Y-62300000D03*
%TD*%
D12*
%TO.C,C48*%
X166225000Y-66700000D03*
X164575000Y-66700000D03*
%TD*%
D14*
%TO.C,C40*%
X84700000Y-63375000D03*
X84700000Y-65025000D03*
%TD*%
D11*
%TO.C,R24*%
X84900000Y-71425000D03*
X84900000Y-69775000D03*
%TD*%
D15*
%TO.C,C2*%
X92600000Y-109000000D03*
X92600000Y-111000000D03*
%TD*%
D16*
%TO.C,REF\u002A\u002A*%
X179775000Y-123000000D03*
X180719581Y-120719581D03*
X180719581Y-125280419D03*
X183000000Y-119775000D03*
D17*
X183000000Y-123000000D03*
D16*
X183000000Y-126225000D03*
X185280419Y-120719581D03*
X185280419Y-125280419D03*
X186225000Y-123000000D03*
%TD*%
D12*
%TO.C,D3*%
X115725000Y-66000000D03*
X114075000Y-66000000D03*
%TD*%
D14*
%TO.C,C37*%
X81700000Y-72875000D03*
X81700000Y-74525000D03*
%TD*%
D18*
%TO.C,Q1*%
X140350000Y-103340000D03*
D19*
X140300000Y-105910000D03*
D20*
X143000000Y-104000000D03*
%TD*%
D14*
%TO.C,R27*%
X87100000Y-69775000D03*
X87100000Y-71425000D03*
%TD*%
D21*
%TO.C,R10*%
X97000000Y-96362500D03*
X97000000Y-90437500D03*
%TD*%
D12*
%TO.C,R29*%
X92730000Y-68300000D03*
X91080000Y-68300000D03*
%TD*%
D22*
%TO.C,C20*%
X159825000Y-122100000D03*
X162775000Y-122100000D03*
%TD*%
D23*
%TO.C,L1*%
X126250000Y-113000000D03*
X109750000Y-113000000D03*
%TD*%
D11*
%TO.C,C34*%
X113200000Y-86125000D03*
X113200000Y-84475000D03*
%TD*%
D24*
%TO.C,U4*%
X120450000Y-71200000D03*
X119175000Y-71200000D03*
X117905000Y-71200000D03*
X116635000Y-71200000D03*
X115365000Y-71200000D03*
X114095000Y-71200000D03*
X112825000Y-71200000D03*
X111555000Y-71200000D03*
X111555000Y-80800000D03*
X112825000Y-80800000D03*
X114095000Y-80800000D03*
X115365000Y-80800000D03*
X116635000Y-80800000D03*
X117905000Y-80800000D03*
X119175000Y-80800000D03*
X120450000Y-80800000D03*
%TD*%
D25*
%TO.C,U7*%
X94430000Y-69700000D03*
X95080000Y-69700000D03*
X95730000Y-69700000D03*
X96380000Y-69700000D03*
X96380000Y-65300000D03*
X95730000Y-65300000D03*
X95080000Y-65300000D03*
X94430000Y-65300000D03*
%TD*%
D26*
%TO.C,C5*%
X96800000Y-108525000D03*
X96800000Y-111475000D03*
%TD*%
D27*
%TO.C,R34*%
X168575000Y-71500000D03*
X170225000Y-71500000D03*
%TD*%
D14*
%TO.C,C38*%
X90805000Y-72875000D03*
X90805000Y-74525000D03*
%TD*%
D12*
%TO.C,R39*%
X166225000Y-69900000D03*
X164575000Y-69900000D03*
%TD*%
D14*
%TO.C,R26*%
X83300000Y-69775000D03*
X83300000Y-71425000D03*
%TD*%
D27*
%TO.C,C39*%
X94080000Y-63500000D03*
X95730000Y-63500000D03*
%TD*%
D26*
%TO.C,C51*%
X81600000Y-87425000D03*
X81600000Y-90375000D03*
%TD*%
D28*
%TO.C,J3*%
X183400000Y-97500000D03*
D29*
X183400000Y-102500000D03*
%TD*%
D27*
%TO.C,R21*%
X90175000Y-90600000D03*
X91825000Y-90600000D03*
%TD*%
D30*
%TO.C,C15*%
X167575000Y-97900000D03*
X164625000Y-97900000D03*
%TD*%
D22*
%TO.C,C12*%
X159825000Y-124500000D03*
X162775000Y-124500000D03*
%TD*%
D31*
%TO.C,TP6*%
X141800000Y-111600000D03*
%TD*%
D13*
%TO.C,J1*%
X77440000Y-93000000D03*
X77440000Y-87000000D03*
D32*
X73500000Y-90000000D03*
D33*
X76500000Y-90000000D03*
%TD*%
D34*
%TO.C,C3*%
X91400000Y-106175000D03*
X91400000Y-103225000D03*
%TD*%
D27*
%TO.C,C42*%
X179175000Y-78300000D03*
X180825000Y-78300000D03*
%TD*%
D35*
%TO.C,R13*%
X103700000Y-84737500D03*
X103700000Y-90662500D03*
%TD*%
D31*
%TO.C,TP5*%
X150100000Y-111600000D03*
%TD*%
D35*
%TO.C,R14*%
X116000000Y-84737500D03*
X116000000Y-90662500D03*
%TD*%
D27*
%TO.C,C46*%
X167575000Y-63500000D03*
X169225000Y-63500000D03*
%TD*%
D22*
%TO.C,C17*%
X169225000Y-95500000D03*
X172175000Y-95500000D03*
%TD*%
D15*
%TO.C,C1*%
X98000000Y-105700000D03*
X98000000Y-103700000D03*
%TD*%
D11*
%TO.C,C44*%
X172300000Y-71425000D03*
X172300000Y-69775000D03*
%TD*%
D27*
%TO.C,R42*%
X144575000Y-116400000D03*
X146225000Y-116400000D03*
%TD*%
D12*
%TO.C,C41*%
X92730000Y-66700000D03*
X91080000Y-66700000D03*
%TD*%
D26*
%TO.C,C29*%
X93800000Y-95725000D03*
X93800000Y-98675000D03*
%TD*%
D36*
%TO.C,U9*%
X166095000Y-78700000D03*
X167365000Y-78700000D03*
X168635000Y-78700000D03*
X169905000Y-78700000D03*
X169905000Y-73300000D03*
X168635000Y-73300000D03*
X167365000Y-73300000D03*
X166095000Y-73300000D03*
%TD*%
D16*
%TO.C,REF\u002A\u002A*%
X73775000Y-67000000D03*
X74719581Y-64719581D03*
X74719581Y-69280419D03*
X77000000Y-63775000D03*
D17*
X77000000Y-67000000D03*
D16*
X77000000Y-70225000D03*
X79280419Y-64719581D03*
X79280419Y-69280419D03*
X80225000Y-67000000D03*
%TD*%
D31*
%TO.C,TP7*%
X135700000Y-113000000D03*
%TD*%
%TO.C,TP8*%
X95000000Y-120000000D03*
%TD*%
D15*
%TO.C,C8*%
X168700000Y-116300000D03*
X168700000Y-121300000D03*
%TD*%
D12*
%TO.C,R20*%
X91825000Y-92200000D03*
X90175000Y-92200000D03*
%TD*%
%TO.C,R41*%
X141425000Y-107600000D03*
X139775000Y-107600000D03*
%TD*%
D27*
%TO.C,R33*%
X179175000Y-79900000D03*
X180825000Y-79900000D03*
%TD*%
D12*
%TO.C,D2*%
X103725000Y-67600000D03*
X102075000Y-67600000D03*
%TD*%
D30*
%TO.C,C21*%
X158175000Y-119700000D03*
X155225000Y-119700000D03*
%TD*%
D11*
%TO.C,R16*%
X113200000Y-89125000D03*
X113200000Y-87475000D03*
%TD*%
%TO.C,R36*%
X177700000Y-71425000D03*
X177700000Y-69775000D03*
%TD*%
D27*
%TO.C,C27*%
X95675000Y-98100000D03*
X97325000Y-98100000D03*
%TD*%
D13*
%TO.C,TP11*%
X162400000Y-64300000D03*
%TD*%
D15*
%TO.C,C11*%
X158700000Y-110500000D03*
X158700000Y-115500000D03*
%TD*%
%TO.C,C7*%
X158700000Y-98500000D03*
X158700000Y-103500000D03*
%TD*%
D37*
%TO.C,U13*%
X83750000Y-91437500D03*
X84700000Y-91437500D03*
X85650000Y-91437500D03*
X85650000Y-89162500D03*
X83750000Y-89162500D03*
%TD*%
D14*
%TO.C,R38*%
X176100000Y-69775000D03*
X176100000Y-71425000D03*
%TD*%
D30*
%TO.C,C16*%
X167575000Y-95500000D03*
X164625000Y-95500000D03*
%TD*%
D12*
%TO.C,C24*%
X100725000Y-69200000D03*
X99075000Y-69200000D03*
%TD*%
D11*
%TO.C,R25*%
X88700000Y-71425000D03*
X88700000Y-69775000D03*
%TD*%
D14*
%TO.C,C47*%
X173200000Y-63375000D03*
X173200000Y-65025000D03*
%TD*%
D22*
%TO.C,C26*%
X94725000Y-85000000D03*
X97675000Y-85000000D03*
%TD*%
D12*
%TO.C,R37*%
X173425000Y-68300000D03*
X171775000Y-68300000D03*
%TD*%
%TO.C,D1*%
X103725000Y-66000000D03*
X102075000Y-66000000D03*
%TD*%
D38*
%TO.C,J2*%
X76600000Y-107500000D03*
D29*
X76600000Y-102500000D03*
%TD*%
D30*
%TO.C,C13*%
X158175000Y-124500000D03*
X155225000Y-124500000D03*
%TD*%
D12*
%TO.C,C25*%
X112725000Y-69200000D03*
X111075000Y-69200000D03*
%TD*%
D26*
%TO.C,C31*%
X91400000Y-95725000D03*
X91400000Y-98675000D03*
%TD*%
D12*
%TO.C,R40*%
X166225000Y-68300000D03*
X164575000Y-68300000D03*
%TD*%
D13*
%TO.C,TP2*%
X119300000Y-64900000D03*
%TD*%
D12*
%TO.C,R28*%
X92730000Y-69900000D03*
X91080000Y-69900000D03*
%TD*%
D27*
%TO.C,R8*%
X106675000Y-67600000D03*
X108325000Y-67600000D03*
%TD*%
D11*
%TO.C,R18*%
X111600000Y-86125000D03*
X111600000Y-84475000D03*
%TD*%
D22*
%TO.C,C19*%
X169225000Y-97900000D03*
X172175000Y-97900000D03*
%TD*%
D27*
%TO.C,R23*%
X95080000Y-71500000D03*
X96730000Y-71500000D03*
%TD*%
D11*
%TO.C,R35*%
X173900000Y-71425000D03*
X173900000Y-69775000D03*
%TD*%
D12*
%TO.C,R22*%
X91825000Y-89000000D03*
X90175000Y-89000000D03*
%TD*%
D16*
%TO.C,REF\u002A\u002A*%
X73775000Y-123000000D03*
X74719581Y-120719581D03*
X74719581Y-125280419D03*
X77000000Y-119775000D03*
D17*
X77000000Y-123000000D03*
D16*
X77000000Y-126225000D03*
X79280419Y-120719581D03*
X79280419Y-125280419D03*
X80225000Y-123000000D03*
%TD*%
D39*
%TO.C,D5*%
X95850000Y-88100000D03*
X99150000Y-88100000D03*
%TD*%
D30*
%TO.C,C23*%
X158175000Y-122100000D03*
X155225000Y-122100000D03*
%TD*%
D40*
%TO.C,D6*%
X100300000Y-94150000D03*
X100300000Y-90850000D03*
%TD*%
D22*
%TO.C,C49*%
X81225000Y-93600000D03*
X84175000Y-93600000D03*
%TD*%
D35*
%TO.C,R11*%
X107600000Y-84737500D03*
X107600000Y-90662500D03*
%TD*%
D41*
%TO.C,U10*%
X173095000Y-84300000D03*
X174365000Y-84300000D03*
X175635000Y-84300000D03*
X176905000Y-84300000D03*
X176905000Y-73500000D03*
X175635000Y-73500000D03*
X174365000Y-73500000D03*
X173095000Y-73500000D03*
%TD*%
D26*
%TO.C,C32*%
X124200000Y-84625000D03*
X124200000Y-87575000D03*
%TD*%
D27*
%TO.C,C43*%
X173175000Y-86300000D03*
X174825000Y-86300000D03*
%TD*%
D11*
%TO.C,C36*%
X81700000Y-84825000D03*
X81700000Y-83175000D03*
%TD*%
D34*
%TO.C,C4*%
X93800000Y-106175000D03*
X93800000Y-103225000D03*
%TD*%
D35*
%TO.C,R12*%
X119900000Y-84737500D03*
X119900000Y-90662500D03*
%TD*%
D12*
%TO.C,R30*%
X180825000Y-84700000D03*
X179175000Y-84700000D03*
%TD*%
D36*
%TO.C,U5*%
X92600000Y-78700000D03*
X93870000Y-78700000D03*
X95140000Y-78700000D03*
X96410000Y-78700000D03*
X96410000Y-73300000D03*
X95140000Y-73300000D03*
X93870000Y-73300000D03*
X92600000Y-73300000D03*
%TD*%
D40*
%TO.C,D7*%
X112600000Y-94150000D03*
X112600000Y-90850000D03*
%TD*%
D25*
%TO.C,U8*%
X86525000Y-68100000D03*
X87175000Y-68100000D03*
X87825000Y-68100000D03*
X88475000Y-68100000D03*
X88475000Y-63700000D03*
X87825000Y-63700000D03*
X87175000Y-63700000D03*
X86525000Y-63700000D03*
%TD*%
D11*
%TO.C,R15*%
X100900000Y-89125000D03*
X100900000Y-87475000D03*
%TD*%
D27*
%TO.C,R6*%
X111075000Y-66000000D03*
X112725000Y-66000000D03*
%TD*%
D12*
%TO.C,C35*%
X91825000Y-87400000D03*
X90175000Y-87400000D03*
%TD*%
D27*
%TO.C,R4*%
X99075000Y-66000000D03*
X100725000Y-66000000D03*
%TD*%
D22*
%TO.C,C22*%
X169225000Y-100300000D03*
X172175000Y-100300000D03*
%TD*%
D25*
%TO.C,U12*%
X175025000Y-68100000D03*
X175675000Y-68100000D03*
X176325000Y-68100000D03*
X176975000Y-68100000D03*
X176975000Y-63700000D03*
X176325000Y-63700000D03*
X175675000Y-63700000D03*
X175025000Y-63700000D03*
%TD*%
D12*
%TO.C,D4*%
X115725000Y-67600000D03*
X114075000Y-67600000D03*
%TD*%
D27*
%TO.C,C50*%
X83475000Y-87400000D03*
X85125000Y-87400000D03*
%TD*%
%TO.C,R19*%
X90175000Y-93800000D03*
X91825000Y-93800000D03*
%TD*%
D13*
%TO.C,TP3*%
X120500000Y-68400000D03*
%TD*%
D27*
%TO.C,R31*%
X179175000Y-83100000D03*
X180825000Y-83100000D03*
%TD*%
D26*
%TO.C,C6*%
X99200000Y-108525000D03*
X99200000Y-111475000D03*
%TD*%
D11*
%TO.C,R17*%
X99300000Y-86125000D03*
X99300000Y-84475000D03*
%TD*%
D24*
%TO.C,U3*%
X108450000Y-71200000D03*
X107175000Y-71200000D03*
X105905000Y-71200000D03*
X104635000Y-71200000D03*
X103365000Y-71200000D03*
X102095000Y-71200000D03*
X100825000Y-71200000D03*
X99555000Y-71200000D03*
X99555000Y-80800000D03*
X100825000Y-80800000D03*
X102095000Y-80800000D03*
X103365000Y-80800000D03*
X104635000Y-80800000D03*
X105905000Y-80800000D03*
X107175000Y-80800000D03*
X108450000Y-80800000D03*
%TD*%
D26*
%TO.C,C30*%
X126600000Y-84625000D03*
X126600000Y-87575000D03*
%TD*%
D27*
%TO.C,C28*%
X125475000Y-83000000D03*
X127125000Y-83000000D03*
%TD*%
D16*
%TO.C,REF\u002A\u002A*%
X179775000Y-67000000D03*
X180719581Y-64719581D03*
X180719581Y-69280419D03*
X183000000Y-63775000D03*
D17*
X183000000Y-67000000D03*
D16*
X183000000Y-70225000D03*
X185280419Y-64719581D03*
X185280419Y-69280419D03*
X186225000Y-67000000D03*
%TD*%
D13*
%TO.C,TP4*%
X117900000Y-67500000D03*
%TD*%
D15*
%TO.C,C9*%
X168700000Y-104500000D03*
X168700000Y-109500000D03*
%TD*%
D42*
%TO.C,Q2*%
X145650000Y-120660000D03*
D43*
X145700000Y-118090000D03*
D44*
X143000000Y-120000000D03*
%TD*%
D25*
%TO.C,U11*%
X167925000Y-69700000D03*
X168575000Y-69700000D03*
X169225000Y-69700000D03*
X169875000Y-69700000D03*
X169875000Y-65300000D03*
X169225000Y-65300000D03*
X168575000Y-65300000D03*
X167925000Y-65300000D03*
%TD*%
D27*
%TO.C,R9*%
X106675000Y-66000000D03*
X108325000Y-66000000D03*
%TD*%
%TO.C,R5*%
X99075000Y-67600000D03*
X100725000Y-67600000D03*
%TD*%
D41*
%TO.C,U6*%
X84095000Y-84300000D03*
X85365000Y-84300000D03*
X86635000Y-84300000D03*
X87905000Y-84300000D03*
X87905000Y-73500000D03*
X86635000Y-73500000D03*
X85365000Y-73500000D03*
X84095000Y-73500000D03*
%TD*%
D14*
%TO.C,C45*%
X164300000Y-72775000D03*
X164300000Y-74425000D03*
%TD*%
D27*
%TO.C,R7*%
X111075000Y-67600000D03*
X112725000Y-67600000D03*
%TD*%
D45*
%TO.C,J4*%
X142000000Y-64000000D03*
D46*
X142000000Y-66000000D03*
X140000000Y-64000000D03*
X140000000Y-66000000D03*
X138000000Y-64000000D03*
X138000000Y-66000000D03*
X136000000Y-64000000D03*
X136000000Y-66000000D03*
X134000000Y-64000000D03*
X134000000Y-66000000D03*
X132000000Y-64000000D03*
X132000000Y-66000000D03*
X130000000Y-64000000D03*
X130000000Y-66000000D03*
X128000000Y-64000000D03*
X128000000Y-66000000D03*
%TD*%
M02*
