%TF.GenerationSoftware,KiCad,Pcbnew,8.0.4*%
%TF.CreationDate,2024-08-07T19:09:05+02:00*%
%TF.ProjectId,ELE0124CL_power_buck,454c4530-3132-4344-934c-5f706f776572,1.0*%
%TF.SameCoordinates,Original*%
%TF.FileFunction,Paste,Top*%
%TF.FilePolarity,Positive*%
%FSLAX46Y46*%
G04 Gerber Fmt 4.6, Leading zero omitted, Abs format (unit mm)*
G04 Created by KiCad (PCBNEW 8.0.4) date 2024-08-07 19:09:05*
%MOMM*%
%LPD*%
G01*
G04 APERTURE LIST*
G04 Aperture macros list*
%AMRoundRect*
0 Rectangle with rounded corners*
0 $1 Rounding radius*
0 $2 $3 $4 $5 $6 $7 $8 $9 X,Y pos of 4 corners*
0 Add a 4 corners polygon primitive as box body*
4,1,4,$2,$3,$4,$5,$6,$7,$8,$9,$2,$3,0*
0 Add four circle primitives for the rounded corners*
1,1,$1+$1,$2,$3*
1,1,$1+$1,$4,$5*
1,1,$1+$1,$6,$7*
1,1,$1+$1,$8,$9*
0 Add four rect primitives between the rounded corners*
20,1,$1+$1,$2,$3,$4,$5,0*
20,1,$1+$1,$4,$5,$6,$7,0*
20,1,$1+$1,$6,$7,$8,$9,0*
20,1,$1+$1,$8,$9,$2,$3,0*%
G04 Aperture macros list end*
%ADD10C,0.000000*%
%ADD11RoundRect,0.050000X0.425000X-0.350000X0.425000X0.350000X-0.425000X0.350000X-0.425000X-0.350000X0*%
%ADD12RoundRect,0.050000X0.350000X0.425000X-0.350000X0.425000X-0.350000X-0.425000X0.350000X-0.425000X0*%
%ADD13RoundRect,0.050000X-0.425000X0.350000X-0.425000X-0.350000X0.425000X-0.350000X0.425000X0.350000X0*%
%ADD14RoundRect,0.050000X1.625000X-0.562500X1.625000X0.562500X-1.625000X0.562500X-1.625000X-0.562500X0*%
%ADD15RoundRect,0.050000X-0.525000X-0.850000X0.525000X-0.850000X0.525000X0.850000X-0.525000X0.850000X0*%
%ADD16RoundRect,0.050000X3.950000X4.200000X-3.950000X4.200000X-3.950000X-4.200000X3.950000X-4.200000X0*%
%ADD17RoundRect,0.050000X-0.250000X0.950000X-0.250000X-0.950000X0.250000X-0.950000X0.250000X0.950000X0*%
%ADD18RoundRect,0.050000X0.150000X-0.650000X0.150000X0.650000X-0.150000X0.650000X-0.150000X-0.650000X0*%
%ADD19RoundRect,0.050000X-0.850000X0.525000X-0.850000X-0.525000X0.850000X-0.525000X0.850000X0.525000X0*%
%ADD20RoundRect,0.050000X-0.350000X-0.425000X0.350000X-0.425000X0.350000X0.425000X-0.350000X0.425000X0*%
%ADD21RoundRect,0.050000X0.525000X0.850000X-0.525000X0.850000X-0.525000X-0.850000X0.525000X-0.850000X0*%
%ADD22RoundRect,0.050000X0.850000X-0.525000X0.850000X0.525000X-0.850000X0.525000X-0.850000X-0.525000X0*%
%ADD23RoundRect,0.050000X-1.625000X0.562500X-1.625000X-0.562500X1.625000X-0.562500X1.625000X0.562500X0*%
%ADD24RoundRect,0.050000X0.250000X-0.750000X0.250000X0.750000X-0.250000X0.750000X-0.250000X-0.750000X0*%
%ADD25RoundRect,0.050000X0.250000X-0.612500X0.250000X0.612500X-0.250000X0.612500X-0.250000X-0.612500X0*%
%ADD26RoundRect,0.050000X0.400000X0.550000X-0.400000X0.550000X-0.400000X-0.550000X0.400000X-0.550000X0*%
%ADD27RoundRect,0.050000X-0.550000X0.400000X-0.550000X-0.400000X0.550000X-0.400000X0.550000X0.400000X0*%
%ADD28RoundRect,0.050000X0.270000X-0.902500X0.270000X0.902500X-0.270000X0.902500X-0.270000X-0.902500X0*%
G04 APERTURE END LIST*
D10*
%TO.C,Q1*%
G36*
X108568097Y-101860078D02*
G01*
X108568097Y-101860078D01*
G75*
G02*
X108618097Y-101910078I3J-50022D01*
G01*
X108618097Y-102250078D01*
G75*
G02*
X108568097Y-102300078I-49997J-22D01*
G01*
X107848097Y-102300078D01*
G75*
G02*
X107798097Y-102250078I3J49978D01*
G01*
X107798097Y-101910078D01*
G75*
G02*
X107848097Y-101860078I50003J-22D01*
G01*
X108568097Y-101860078D01*
G37*
G36*
X108568097Y-103130078D02*
G01*
X108568097Y-103130078D01*
G75*
G02*
X108618097Y-103180078I3J-50022D01*
G01*
X108618097Y-103520078D01*
G75*
G02*
X108568097Y-103570078I-49997J-22D01*
G01*
X107848097Y-103570078D01*
G75*
G02*
X107798097Y-103520078I3J49978D01*
G01*
X107798097Y-103180078D01*
G75*
G02*
X107848097Y-103130078I50003J-22D01*
G01*
X108568097Y-103130078D01*
G37*
G36*
X108568097Y-104410000D02*
G01*
X108568097Y-104410000D01*
G75*
G02*
X108618097Y-104460000I3J-50000D01*
G01*
X108618097Y-104800000D01*
G75*
G02*
X108568097Y-104850000I-49997J0D01*
G01*
X107848097Y-104850000D01*
G75*
G02*
X107798097Y-104800000I3J50000D01*
G01*
X107798097Y-104460000D01*
G75*
G02*
X107848097Y-104410000I50003J0D01*
G01*
X108568097Y-104410000D01*
G37*
G36*
X108568097Y-105680000D02*
G01*
X108568097Y-105680000D01*
G75*
G02*
X108618097Y-105730000I3J-50000D01*
G01*
X108618097Y-106070000D01*
G75*
G02*
X108568097Y-106120000I-49997J0D01*
G01*
X107848097Y-106120000D01*
G75*
G02*
X107798097Y-106070000I3J50000D01*
G01*
X107798097Y-105730000D01*
G75*
G02*
X107848097Y-105680000I50003J0D01*
G01*
X108568097Y-105680000D01*
G37*
G36*
X110298097Y-102460000D02*
G01*
X110298097Y-102460000D01*
G75*
G02*
X110348097Y-102510000I3J-50000D01*
G01*
X110348097Y-103910000D01*
G75*
G02*
X110298097Y-103960000I-49997J0D01*
G01*
X108898097Y-103960000D01*
G75*
G02*
X108848097Y-103910000I3J50000D01*
G01*
X108848097Y-102510000D01*
G75*
G02*
X108898097Y-102460000I50003J0D01*
G01*
X110298097Y-102460000D01*
G37*
G36*
X110298097Y-104060000D02*
G01*
X110298097Y-104060000D01*
G75*
G02*
X110348097Y-104110000I3J-50000D01*
G01*
X110348097Y-105510000D01*
G75*
G02*
X110298097Y-105560000I-49997J0D01*
G01*
X108898097Y-105560000D01*
G75*
G02*
X108848097Y-105510000I3J50000D01*
G01*
X108848097Y-104110000D01*
G75*
G02*
X108898097Y-104060000I50003J0D01*
G01*
X110298097Y-104060000D01*
G37*
G36*
X111898097Y-102460000D02*
G01*
X111898097Y-102460000D01*
G75*
G02*
X111948097Y-102510000I3J-50000D01*
G01*
X111948097Y-103910000D01*
G75*
G02*
X111898097Y-103960000I-49997J0D01*
G01*
X110498097Y-103960000D01*
G75*
G02*
X110448097Y-103910000I3J50000D01*
G01*
X110448097Y-102510000D01*
G75*
G02*
X110498097Y-102460000I50003J0D01*
G01*
X111898097Y-102460000D01*
G37*
G36*
X111898097Y-104060000D02*
G01*
X111898097Y-104060000D01*
G75*
G02*
X111948097Y-104110000I3J-50000D01*
G01*
X111948097Y-105510000D01*
G75*
G02*
X111898097Y-105560000I-49997J0D01*
G01*
X110498097Y-105560000D01*
G75*
G02*
X110448097Y-105510000I3J50000D01*
G01*
X110448097Y-104110000D01*
G75*
G02*
X110498097Y-104060000I50003J0D01*
G01*
X111898097Y-104060000D01*
G37*
G36*
X114110000Y-101870000D02*
G01*
X114110000Y-101870000D01*
G75*
G02*
X114160000Y-101920000I0J-50000D01*
G01*
X114160000Y-102260000D01*
G75*
G02*
X114110000Y-102310000I-50000J0D01*
G01*
X113390000Y-102310000D01*
G75*
G02*
X113340000Y-102260000I0J50000D01*
G01*
X113340000Y-101920000D01*
G75*
G02*
X113390000Y-101870000I50000J0D01*
G01*
X114110000Y-101870000D01*
G37*
G36*
X114110000Y-103140000D02*
G01*
X114110000Y-103140000D01*
G75*
G02*
X114160000Y-103190000I0J-50000D01*
G01*
X114160000Y-103530000D01*
G75*
G02*
X114110000Y-103580000I-50000J0D01*
G01*
X113390000Y-103580000D01*
G75*
G02*
X113340000Y-103530000I0J50000D01*
G01*
X113340000Y-103190000D01*
G75*
G02*
X113390000Y-103140000I50000J0D01*
G01*
X114110000Y-103140000D01*
G37*
G36*
X114110000Y-104410000D02*
G01*
X114110000Y-104410000D01*
G75*
G02*
X114160000Y-104460000I0J-50000D01*
G01*
X114160000Y-104800000D01*
G75*
G02*
X114110000Y-104850000I-50000J0D01*
G01*
X113390000Y-104850000D01*
G75*
G02*
X113340000Y-104800000I0J50000D01*
G01*
X113340000Y-104460000D01*
G75*
G02*
X113390000Y-104410000I50000J0D01*
G01*
X114110000Y-104410000D01*
G37*
G36*
X114110000Y-105680000D02*
G01*
X114110000Y-105680000D01*
G75*
G02*
X114160000Y-105730000I0J-50000D01*
G01*
X114160000Y-106070000D01*
G75*
G02*
X114110000Y-106120000I-50000J0D01*
G01*
X113390000Y-106120000D01*
G75*
G02*
X113340000Y-106070000I0J50000D01*
G01*
X113340000Y-105730000D01*
G75*
G02*
X113390000Y-105680000I50000J0D01*
G01*
X114110000Y-105680000D01*
G37*
G36*
X113660000Y-103740000D02*
G01*
X113660000Y-103740000D01*
G75*
G02*
X113710000Y-103790000I0J-50000D01*
G01*
X113710000Y-104130000D01*
G75*
G02*
X113660000Y-104180000I-50000J0D01*
G01*
X113390000Y-104180000D01*
G75*
G02*
X113340000Y-104130000I0J50000D01*
G01*
X113340000Y-103790000D01*
G75*
G02*
X113390000Y-103740000I50000J0D01*
G01*
X113660000Y-103740000D01*
G37*
G36*
X113660000Y-105020000D02*
G01*
X113660000Y-105020000D01*
G75*
G02*
X113710000Y-105070000I0J-50000D01*
G01*
X113710000Y-105410000D01*
G75*
G02*
X113660000Y-105460000I-50000J0D01*
G01*
X113390000Y-105460000D01*
G75*
G02*
X113340000Y-105410000I0J50000D01*
G01*
X113340000Y-105070000D01*
G75*
G02*
X113390000Y-105020000I50000J0D01*
G01*
X113660000Y-105020000D01*
G37*
%TO.C,Q2*%
G36*
X108610000Y-118540000D02*
G01*
X108610000Y-118540000D01*
G75*
G02*
X108660000Y-118590000I0J-50000D01*
G01*
X108660000Y-118930000D01*
G75*
G02*
X108610000Y-118980000I-50000J0D01*
G01*
X108340000Y-118980000D01*
G75*
G02*
X108290000Y-118930000I0J50000D01*
G01*
X108290000Y-118590000D01*
G75*
G02*
X108340000Y-118540000I50000J0D01*
G01*
X108610000Y-118540000D01*
G37*
G36*
X108610000Y-119820000D02*
G01*
X108610000Y-119820000D01*
G75*
G02*
X108660000Y-119870000I0J-50000D01*
G01*
X108660000Y-120210000D01*
G75*
G02*
X108610000Y-120260000I-50000J0D01*
G01*
X108340000Y-120260000D01*
G75*
G02*
X108290000Y-120210000I0J50000D01*
G01*
X108290000Y-119870000D01*
G75*
G02*
X108340000Y-119820000I50000J0D01*
G01*
X108610000Y-119820000D01*
G37*
G36*
X108610000Y-117880000D02*
G01*
X108610000Y-117880000D01*
G75*
G02*
X108660000Y-117930000I0J-50000D01*
G01*
X108660000Y-118270000D01*
G75*
G02*
X108610000Y-118320000I-50000J0D01*
G01*
X107890000Y-118320000D01*
G75*
G02*
X107840000Y-118270000I0J50000D01*
G01*
X107840000Y-117930000D01*
G75*
G02*
X107890000Y-117880000I50000J0D01*
G01*
X108610000Y-117880000D01*
G37*
G36*
X108610000Y-119150000D02*
G01*
X108610000Y-119150000D01*
G75*
G02*
X108660000Y-119200000I0J-50000D01*
G01*
X108660000Y-119540000D01*
G75*
G02*
X108610000Y-119590000I-50000J0D01*
G01*
X107890000Y-119590000D01*
G75*
G02*
X107840000Y-119540000I0J50000D01*
G01*
X107840000Y-119200000D01*
G75*
G02*
X107890000Y-119150000I50000J0D01*
G01*
X108610000Y-119150000D01*
G37*
G36*
X108610000Y-120420000D02*
G01*
X108610000Y-120420000D01*
G75*
G02*
X108660000Y-120470000I0J-50000D01*
G01*
X108660000Y-120810000D01*
G75*
G02*
X108610000Y-120860000I-50000J0D01*
G01*
X107890000Y-120860000D01*
G75*
G02*
X107840000Y-120810000I0J50000D01*
G01*
X107840000Y-120470000D01*
G75*
G02*
X107890000Y-120420000I50000J0D01*
G01*
X108610000Y-120420000D01*
G37*
G36*
X108610000Y-121690000D02*
G01*
X108610000Y-121690000D01*
G75*
G02*
X108660000Y-121740000I0J-50000D01*
G01*
X108660000Y-122080000D01*
G75*
G02*
X108610000Y-122130000I-50000J0D01*
G01*
X107890000Y-122130000D01*
G75*
G02*
X107840000Y-122080000I0J50000D01*
G01*
X107840000Y-121740000D01*
G75*
G02*
X107890000Y-121690000I50000J0D01*
G01*
X108610000Y-121690000D01*
G37*
G36*
X111501903Y-118440000D02*
G01*
X111501903Y-118440000D01*
G75*
G02*
X111551903Y-118490000I-3J-50000D01*
G01*
X111551903Y-119890000D01*
G75*
G02*
X111501903Y-119940000I-50003J0D01*
G01*
X110101903Y-119940000D01*
G75*
G02*
X110051903Y-119890000I-3J50000D01*
G01*
X110051903Y-118490000D01*
G75*
G02*
X110101903Y-118440000I49997J0D01*
G01*
X111501903Y-118440000D01*
G37*
G36*
X111501903Y-120040000D02*
G01*
X111501903Y-120040000D01*
G75*
G02*
X111551903Y-120090000I-3J-50000D01*
G01*
X111551903Y-121490000D01*
G75*
G02*
X111501903Y-121540000I-50003J0D01*
G01*
X110101903Y-121540000D01*
G75*
G02*
X110051903Y-121490000I-3J50000D01*
G01*
X110051903Y-120090000D01*
G75*
G02*
X110101903Y-120040000I49997J0D01*
G01*
X111501903Y-120040000D01*
G37*
G36*
X113101903Y-118440000D02*
G01*
X113101903Y-118440000D01*
G75*
G02*
X113151903Y-118490000I-3J-50000D01*
G01*
X113151903Y-119890000D01*
G75*
G02*
X113101903Y-119940000I-50003J0D01*
G01*
X111701903Y-119940000D01*
G75*
G02*
X111651903Y-119890000I-3J50000D01*
G01*
X111651903Y-118490000D01*
G75*
G02*
X111701903Y-118440000I49997J0D01*
G01*
X113101903Y-118440000D01*
G37*
G36*
X113101903Y-120040000D02*
G01*
X113101903Y-120040000D01*
G75*
G02*
X113151903Y-120090000I-3J-50000D01*
G01*
X113151903Y-121490000D01*
G75*
G02*
X113101903Y-121540000I-50003J0D01*
G01*
X111701903Y-121540000D01*
G75*
G02*
X111651903Y-121490000I-3J50000D01*
G01*
X111651903Y-120090000D01*
G75*
G02*
X111701903Y-120040000I49997J0D01*
G01*
X113101903Y-120040000D01*
G37*
G36*
X114151903Y-117880000D02*
G01*
X114151903Y-117880000D01*
G75*
G02*
X114201903Y-117930000I-3J-50000D01*
G01*
X114201903Y-118270000D01*
G75*
G02*
X114151903Y-118320000I-50003J0D01*
G01*
X113431903Y-118320000D01*
G75*
G02*
X113381903Y-118270000I-3J50000D01*
G01*
X113381903Y-117930000D01*
G75*
G02*
X113431903Y-117880000I49997J0D01*
G01*
X114151903Y-117880000D01*
G37*
G36*
X114151903Y-119150000D02*
G01*
X114151903Y-119150000D01*
G75*
G02*
X114201903Y-119200000I-3J-50000D01*
G01*
X114201903Y-119540000D01*
G75*
G02*
X114151903Y-119590000I-50003J0D01*
G01*
X113431903Y-119590000D01*
G75*
G02*
X113381903Y-119540000I-3J50000D01*
G01*
X113381903Y-119200000D01*
G75*
G02*
X113431903Y-119150000I49997J0D01*
G01*
X114151903Y-119150000D01*
G37*
G36*
X114151903Y-120429922D02*
G01*
X114151903Y-120429922D01*
G75*
G02*
X114201903Y-120479922I-3J-49978D01*
G01*
X114201903Y-120819922D01*
G75*
G02*
X114151903Y-120869922I-50003J22D01*
G01*
X113431903Y-120869922D01*
G75*
G02*
X113381903Y-120819922I-3J50022D01*
G01*
X113381903Y-120479922D01*
G75*
G02*
X113431903Y-120429922I49997J22D01*
G01*
X114151903Y-120429922D01*
G37*
G36*
X114151903Y-121699922D02*
G01*
X114151903Y-121699922D01*
G75*
G02*
X114201903Y-121749922I-3J-49978D01*
G01*
X114201903Y-122089922D01*
G75*
G02*
X114151903Y-122139922I-50003J22D01*
G01*
X113431903Y-122139922D01*
G75*
G02*
X113381903Y-122089922I-3J50022D01*
G01*
X113381903Y-121749922D01*
G75*
G02*
X113431903Y-121699922I49997J22D01*
G01*
X114151903Y-121699922D01*
G37*
%TD*%
D11*
%TO.C,C33*%
X100900000Y-86125000D03*
X100900000Y-84475000D03*
%TD*%
D12*
%TO.C,R32*%
X180825000Y-81500000D03*
X179175000Y-81500000D03*
%TD*%
%TO.C,C48*%
X166225000Y-66700000D03*
X164575000Y-66700000D03*
%TD*%
D13*
%TO.C,C40*%
X84700000Y-63375000D03*
X84700000Y-65025000D03*
%TD*%
D11*
%TO.C,R24*%
X84900000Y-71425000D03*
X84900000Y-69775000D03*
%TD*%
D12*
%TO.C,D3*%
X115725000Y-66000000D03*
X114075000Y-66000000D03*
%TD*%
D13*
%TO.C,C37*%
X81700000Y-72875000D03*
X81700000Y-74525000D03*
%TD*%
%TO.C,R27*%
X87100000Y-69775000D03*
X87100000Y-71425000D03*
%TD*%
D14*
%TO.C,R10*%
X97000000Y-96362500D03*
X97000000Y-90437500D03*
%TD*%
D12*
%TO.C,R29*%
X92730000Y-68300000D03*
X91080000Y-68300000D03*
%TD*%
D13*
%TO.C,C10*%
X148300000Y-72775000D03*
X148300000Y-74425000D03*
%TD*%
D15*
%TO.C,C20*%
X159825000Y-122100000D03*
X162775000Y-122100000D03*
%TD*%
D16*
%TO.C,L1*%
X129750000Y-112000000D03*
X146250000Y-112000000D03*
%TD*%
D11*
%TO.C,C34*%
X113200000Y-86125000D03*
X113200000Y-84475000D03*
%TD*%
D17*
%TO.C,U4*%
X120450000Y-71200000D03*
X119175000Y-71200000D03*
X117905000Y-71200000D03*
X116635000Y-71200000D03*
X115365000Y-71200000D03*
X114095000Y-71200000D03*
X112825000Y-71200000D03*
X111555000Y-71200000D03*
X111555000Y-80800000D03*
X112825000Y-80800000D03*
X114095000Y-80800000D03*
X115365000Y-80800000D03*
X116635000Y-80800000D03*
X117905000Y-80800000D03*
X119175000Y-80800000D03*
X120450000Y-80800000D03*
%TD*%
D18*
%TO.C,U7*%
X94430000Y-69700000D03*
X95080000Y-69700000D03*
X95730000Y-69700000D03*
X96380000Y-69700000D03*
X96380000Y-65300000D03*
X95730000Y-65300000D03*
X95080000Y-65300000D03*
X94430000Y-65300000D03*
%TD*%
D19*
%TO.C,C5*%
X96800000Y-108525000D03*
X96800000Y-111475000D03*
%TD*%
D20*
%TO.C,R34*%
X168575000Y-71500000D03*
X170225000Y-71500000D03*
%TD*%
D13*
%TO.C,C38*%
X90805000Y-72875000D03*
X90805000Y-74525000D03*
%TD*%
D12*
%TO.C,R39*%
X166225000Y-69900000D03*
X164575000Y-69900000D03*
%TD*%
D13*
%TO.C,R26*%
X83300000Y-69775000D03*
X83300000Y-71425000D03*
%TD*%
D20*
%TO.C,C39*%
X94080000Y-63500000D03*
X95730000Y-63500000D03*
%TD*%
D19*
%TO.C,C51*%
X81600000Y-87425000D03*
X81600000Y-90375000D03*
%TD*%
D20*
%TO.C,R21*%
X90175000Y-90600000D03*
X91825000Y-90600000D03*
%TD*%
D21*
%TO.C,C15*%
X167575000Y-97900000D03*
X164625000Y-97900000D03*
%TD*%
D15*
%TO.C,C12*%
X159825000Y-124500000D03*
X162775000Y-124500000D03*
%TD*%
D22*
%TO.C,C3*%
X91400000Y-106175000D03*
X91400000Y-103225000D03*
%TD*%
D20*
%TO.C,C42*%
X179175000Y-78300000D03*
X180825000Y-78300000D03*
%TD*%
D23*
%TO.C,R13*%
X103700000Y-84737500D03*
X103700000Y-90662500D03*
%TD*%
%TO.C,R14*%
X116000000Y-84737500D03*
X116000000Y-90662500D03*
%TD*%
D20*
%TO.C,C46*%
X167575000Y-63500000D03*
X169225000Y-63500000D03*
%TD*%
D15*
%TO.C,C17*%
X169225000Y-95500000D03*
X172175000Y-95500000D03*
%TD*%
D11*
%TO.C,C44*%
X172300000Y-71425000D03*
X172300000Y-69775000D03*
%TD*%
%TO.C,R42*%
X106300000Y-122125000D03*
X106300000Y-120475000D03*
%TD*%
D12*
%TO.C,C41*%
X92730000Y-66700000D03*
X91080000Y-66700000D03*
%TD*%
D19*
%TO.C,C29*%
X93800000Y-95725000D03*
X93800000Y-98675000D03*
%TD*%
D24*
%TO.C,U9*%
X166095000Y-78700000D03*
X167365000Y-78700000D03*
X168635000Y-78700000D03*
X169905000Y-78700000D03*
X169905000Y-73300000D03*
X168635000Y-73300000D03*
X167365000Y-73300000D03*
X166095000Y-73300000D03*
%TD*%
D12*
%TO.C,R20*%
X91825000Y-92200000D03*
X90175000Y-92200000D03*
%TD*%
%TO.C,R3*%
X150225000Y-68300000D03*
X148575000Y-68300000D03*
%TD*%
D20*
%TO.C,R41*%
X112575000Y-100400000D03*
X114225000Y-100400000D03*
%TD*%
%TO.C,R1*%
X152575000Y-71500000D03*
X154225000Y-71500000D03*
%TD*%
%TO.C,R33*%
X179175000Y-79900000D03*
X180825000Y-79900000D03*
%TD*%
D12*
%TO.C,D2*%
X103725000Y-67600000D03*
X102075000Y-67600000D03*
%TD*%
D21*
%TO.C,C21*%
X158175000Y-119700000D03*
X155225000Y-119700000D03*
%TD*%
D11*
%TO.C,R16*%
X113200000Y-89125000D03*
X113200000Y-87475000D03*
%TD*%
%TO.C,R36*%
X177700000Y-71425000D03*
X177700000Y-69775000D03*
%TD*%
D12*
%TO.C,R2*%
X150225000Y-69900000D03*
X148575000Y-69900000D03*
%TD*%
D20*
%TO.C,C27*%
X95675000Y-98100000D03*
X97325000Y-98100000D03*
%TD*%
D25*
%TO.C,U13*%
X83750000Y-91437500D03*
X84700000Y-91437500D03*
X85650000Y-91437500D03*
X85650000Y-89162500D03*
X83750000Y-89162500D03*
%TD*%
D13*
%TO.C,R38*%
X176100000Y-69775000D03*
X176100000Y-71425000D03*
%TD*%
D21*
%TO.C,C16*%
X167575000Y-95500000D03*
X164625000Y-95500000D03*
%TD*%
D12*
%TO.C,C24*%
X100725000Y-69200000D03*
X99075000Y-69200000D03*
%TD*%
D11*
%TO.C,R25*%
X88700000Y-71425000D03*
X88700000Y-69775000D03*
%TD*%
D13*
%TO.C,C47*%
X173200000Y-63375000D03*
X173200000Y-65025000D03*
%TD*%
D15*
%TO.C,C26*%
X94725000Y-85000000D03*
X97675000Y-85000000D03*
%TD*%
D12*
%TO.C,R37*%
X173425000Y-68300000D03*
X171775000Y-68300000D03*
%TD*%
%TO.C,D1*%
X103725000Y-66000000D03*
X102075000Y-66000000D03*
%TD*%
D21*
%TO.C,C13*%
X158175000Y-124500000D03*
X155225000Y-124500000D03*
%TD*%
D12*
%TO.C,C25*%
X112725000Y-69200000D03*
X111075000Y-69200000D03*
%TD*%
D19*
%TO.C,C31*%
X91400000Y-95725000D03*
X91400000Y-98675000D03*
%TD*%
D12*
%TO.C,R40*%
X166225000Y-68300000D03*
X164575000Y-68300000D03*
%TD*%
%TO.C,R28*%
X92730000Y-69900000D03*
X91080000Y-69900000D03*
%TD*%
D20*
%TO.C,R8*%
X106675000Y-67600000D03*
X108325000Y-67600000D03*
%TD*%
D11*
%TO.C,R18*%
X111600000Y-86125000D03*
X111600000Y-84475000D03*
%TD*%
D20*
%TO.C,C14*%
X151575000Y-63500000D03*
X153225000Y-63500000D03*
%TD*%
D15*
%TO.C,C19*%
X169225000Y-97900000D03*
X172175000Y-97900000D03*
%TD*%
D20*
%TO.C,R23*%
X95080000Y-71500000D03*
X96730000Y-71500000D03*
%TD*%
D11*
%TO.C,R35*%
X173900000Y-71425000D03*
X173900000Y-69775000D03*
%TD*%
D12*
%TO.C,R22*%
X91825000Y-89000000D03*
X90175000Y-89000000D03*
%TD*%
D26*
%TO.C,D5*%
X95850000Y-88100000D03*
X99150000Y-88100000D03*
%TD*%
D21*
%TO.C,C23*%
X158175000Y-122100000D03*
X155225000Y-122100000D03*
%TD*%
D27*
%TO.C,D6*%
X100300000Y-94150000D03*
X100300000Y-90850000D03*
%TD*%
D15*
%TO.C,C49*%
X81225000Y-93600000D03*
X84175000Y-93600000D03*
%TD*%
D23*
%TO.C,R11*%
X107600000Y-84737500D03*
X107600000Y-90662500D03*
%TD*%
D28*
%TO.C,U10*%
X173095000Y-84300000D03*
X174365000Y-84300000D03*
X175635000Y-84300000D03*
X176905000Y-84300000D03*
X176905000Y-73500000D03*
X175635000Y-73500000D03*
X174365000Y-73500000D03*
X173095000Y-73500000D03*
%TD*%
D24*
%TO.C,U1*%
X150095000Y-78700000D03*
X151365000Y-78700000D03*
X152635000Y-78700000D03*
X153905000Y-78700000D03*
X153905000Y-73300000D03*
X152635000Y-73300000D03*
X151365000Y-73300000D03*
X150095000Y-73300000D03*
%TD*%
D19*
%TO.C,C32*%
X124200000Y-84625000D03*
X124200000Y-87575000D03*
%TD*%
D20*
%TO.C,C43*%
X173175000Y-86300000D03*
X174825000Y-86300000D03*
%TD*%
D11*
%TO.C,C36*%
X81700000Y-84825000D03*
X81700000Y-83175000D03*
%TD*%
D22*
%TO.C,C4*%
X93800000Y-106175000D03*
X93800000Y-103225000D03*
%TD*%
D23*
%TO.C,R12*%
X119900000Y-84737500D03*
X119900000Y-90662500D03*
%TD*%
D12*
%TO.C,R30*%
X180825000Y-84700000D03*
X179175000Y-84700000D03*
%TD*%
D24*
%TO.C,U5*%
X92600000Y-78700000D03*
X93870000Y-78700000D03*
X95140000Y-78700000D03*
X96410000Y-78700000D03*
X96410000Y-73300000D03*
X95140000Y-73300000D03*
X93870000Y-73300000D03*
X92600000Y-73300000D03*
%TD*%
D27*
%TO.C,D7*%
X112600000Y-94150000D03*
X112600000Y-90850000D03*
%TD*%
D18*
%TO.C,U8*%
X86525000Y-68100000D03*
X87175000Y-68100000D03*
X87825000Y-68100000D03*
X88475000Y-68100000D03*
X88475000Y-63700000D03*
X87825000Y-63700000D03*
X87175000Y-63700000D03*
X86525000Y-63700000D03*
%TD*%
D11*
%TO.C,R15*%
X100900000Y-89125000D03*
X100900000Y-87475000D03*
%TD*%
D20*
%TO.C,R6*%
X111075000Y-66000000D03*
X112725000Y-66000000D03*
%TD*%
D12*
%TO.C,C35*%
X91825000Y-87400000D03*
X90175000Y-87400000D03*
%TD*%
D20*
%TO.C,R4*%
X99075000Y-66000000D03*
X100725000Y-66000000D03*
%TD*%
D15*
%TO.C,C22*%
X169225000Y-100300000D03*
X172175000Y-100300000D03*
%TD*%
D18*
%TO.C,U12*%
X175025000Y-68100000D03*
X175675000Y-68100000D03*
X176325000Y-68100000D03*
X176975000Y-68100000D03*
X176975000Y-63700000D03*
X176325000Y-63700000D03*
X175675000Y-63700000D03*
X175025000Y-63700000D03*
%TD*%
D12*
%TO.C,D4*%
X115725000Y-67600000D03*
X114075000Y-67600000D03*
%TD*%
D20*
%TO.C,C50*%
X83475000Y-87400000D03*
X85125000Y-87400000D03*
%TD*%
%TO.C,R19*%
X90175000Y-93800000D03*
X91825000Y-93800000D03*
%TD*%
%TO.C,R31*%
X179175000Y-83100000D03*
X180825000Y-83100000D03*
%TD*%
D19*
%TO.C,C6*%
X99200000Y-108525000D03*
X99200000Y-111475000D03*
%TD*%
D11*
%TO.C,R17*%
X99300000Y-86125000D03*
X99300000Y-84475000D03*
%TD*%
D17*
%TO.C,U3*%
X108450000Y-71200000D03*
X107175000Y-71200000D03*
X105905000Y-71200000D03*
X104635000Y-71200000D03*
X103365000Y-71200000D03*
X102095000Y-71200000D03*
X100825000Y-71200000D03*
X99555000Y-71200000D03*
X99555000Y-80800000D03*
X100825000Y-80800000D03*
X102095000Y-80800000D03*
X103365000Y-80800000D03*
X104635000Y-80800000D03*
X105905000Y-80800000D03*
X107175000Y-80800000D03*
X108450000Y-80800000D03*
%TD*%
D12*
%TO.C,C18*%
X150225000Y-66700000D03*
X148575000Y-66700000D03*
%TD*%
D18*
%TO.C,U2*%
X151900000Y-69700000D03*
X152550000Y-69700000D03*
X153200000Y-69700000D03*
X153850000Y-69700000D03*
X153850000Y-65300000D03*
X153200000Y-65300000D03*
X152550000Y-65300000D03*
X151900000Y-65300000D03*
%TD*%
D19*
%TO.C,C30*%
X126600000Y-84625000D03*
X126600000Y-87575000D03*
%TD*%
D20*
%TO.C,C28*%
X125475000Y-83000000D03*
X127125000Y-83000000D03*
%TD*%
D18*
%TO.C,U11*%
X167925000Y-69700000D03*
X168575000Y-69700000D03*
X169225000Y-69700000D03*
X169875000Y-69700000D03*
X169875000Y-65300000D03*
X169225000Y-65300000D03*
X168575000Y-65300000D03*
X167925000Y-65300000D03*
%TD*%
D20*
%TO.C,R9*%
X106675000Y-66000000D03*
X108325000Y-66000000D03*
%TD*%
%TO.C,R5*%
X99075000Y-67600000D03*
X100725000Y-67600000D03*
%TD*%
D28*
%TO.C,U6*%
X84095000Y-84300000D03*
X85365000Y-84300000D03*
X86635000Y-84300000D03*
X87905000Y-84300000D03*
X87905000Y-73500000D03*
X86635000Y-73500000D03*
X85365000Y-73500000D03*
X84095000Y-73500000D03*
%TD*%
D13*
%TO.C,C45*%
X164300000Y-72775000D03*
X164300000Y-74425000D03*
%TD*%
D20*
%TO.C,R7*%
X111075000Y-67600000D03*
X112725000Y-67600000D03*
%TD*%
M02*
