%TF.GenerationSoftware,KiCad,Pcbnew,8.0.4*%
%TF.CreationDate,2024-08-07T19:09:06+02:00*%
%TF.ProjectId,ELE0124CL_power_buck,454c4530-3132-4344-934c-5f706f776572,1.0*%
%TF.SameCoordinates,Original*%
%TF.FileFunction,Legend,Bot*%
%TF.FilePolarity,Positive*%
%FSLAX46Y46*%
G04 Gerber Fmt 4.6, Leading zero omitted, Abs format (unit mm)*
G04 Created by KiCad (PCBNEW 8.0.4) date 2024-08-07 19:09:06*
%MOMM*%
%LPD*%
G01*
G04 APERTURE LIST*
%ADD10C,0.150000*%
%ADD11C,0.000000*%
G04 APERTURE END LIST*
D10*
G36*
X132935222Y-100894029D02*
G01*
X132956104Y-100914911D01*
X132985074Y-100972850D01*
X133018935Y-101108292D01*
X133018935Y-101280297D01*
X132985074Y-101415738D01*
X132956104Y-101473677D01*
X132935221Y-101494561D01*
X132885753Y-101519295D01*
X132844973Y-101519295D01*
X132795504Y-101494561D01*
X132774621Y-101473677D01*
X132745651Y-101415738D01*
X132711792Y-101280299D01*
X132711792Y-101108290D01*
X132745651Y-100972851D01*
X132774621Y-100914911D01*
X132795503Y-100894029D01*
X132844973Y-100869295D01*
X132885753Y-100869295D01*
X132935222Y-100894029D01*
G37*
G36*
X135314967Y-101758184D02*
G01*
X128664819Y-101758184D01*
X128664819Y-101579663D01*
X128753708Y-101579663D01*
X128753708Y-101608927D01*
X128764907Y-101635963D01*
X128785599Y-101656655D01*
X128812635Y-101667854D01*
X128827267Y-101669295D01*
X129208219Y-101669295D01*
X129222851Y-101667854D01*
X129249887Y-101656655D01*
X129270579Y-101635963D01*
X129281778Y-101608927D01*
X129283219Y-101594295D01*
X129283219Y-100855853D01*
X129477517Y-100855853D01*
X129477517Y-100885115D01*
X129488715Y-100912152D01*
X129509408Y-100932845D01*
X129536444Y-100944044D01*
X129565706Y-100944044D01*
X129592743Y-100932846D01*
X129604108Y-100923519D01*
X129629685Y-100897942D01*
X129715627Y-100869295D01*
X129767478Y-100869295D01*
X129853420Y-100897942D01*
X129908484Y-100953006D01*
X129937454Y-101010945D01*
X129971315Y-101146387D01*
X129971315Y-101242202D01*
X129937454Y-101377643D01*
X129908484Y-101435582D01*
X129853419Y-101490648D01*
X129767478Y-101519295D01*
X129715627Y-101519295D01*
X129629686Y-101490648D01*
X129604109Y-101465071D01*
X129592744Y-101455744D01*
X129565707Y-101444545D01*
X129536445Y-101444545D01*
X129509408Y-101455744D01*
X129488716Y-101476436D01*
X129477517Y-101503473D01*
X129477517Y-101532735D01*
X129488716Y-101559772D01*
X129498043Y-101571137D01*
X129536139Y-101609233D01*
X129547504Y-101618561D01*
X129549994Y-101619592D01*
X129552029Y-101621357D01*
X129565455Y-101627351D01*
X129679740Y-101665446D01*
X129686993Y-101667095D01*
X129688825Y-101667854D01*
X129691479Y-101668115D01*
X129694077Y-101668706D01*
X129696051Y-101668565D01*
X129703457Y-101669295D01*
X129779648Y-101669295D01*
X129787053Y-101668565D01*
X129789028Y-101668706D01*
X129791625Y-101668115D01*
X129794280Y-101667854D01*
X129796111Y-101667095D01*
X129803365Y-101665446D01*
X129917651Y-101627351D01*
X129931076Y-101621357D01*
X129933111Y-101619591D01*
X129935602Y-101618560D01*
X129946967Y-101609233D01*
X130023158Y-101533041D01*
X130027875Y-101527292D01*
X130029374Y-101525993D01*
X130030795Y-101523734D01*
X130032485Y-101521676D01*
X130033242Y-101519846D01*
X130037206Y-101513550D01*
X130075301Y-101437360D01*
X130075710Y-101436290D01*
X130076033Y-101435855D01*
X130078231Y-101429703D01*
X130080556Y-101423628D01*
X130080594Y-101423089D01*
X130080980Y-101422010D01*
X130108234Y-101312996D01*
X130239422Y-101312996D01*
X130239422Y-101342260D01*
X130250621Y-101369296D01*
X130271313Y-101389988D01*
X130298349Y-101401187D01*
X130312981Y-101402628D01*
X130352267Y-101402628D01*
X130352267Y-101594295D01*
X130353708Y-101608927D01*
X130364907Y-101635963D01*
X130385599Y-101656655D01*
X130412635Y-101667854D01*
X130441899Y-101667854D01*
X130468935Y-101656655D01*
X130489627Y-101635963D01*
X130500826Y-101608927D01*
X130502267Y-101594295D01*
X130502267Y-101402628D01*
X130808220Y-101402628D01*
X130815625Y-101401898D01*
X130817600Y-101402039D01*
X130819025Y-101401563D01*
X130822852Y-101401187D01*
X130833959Y-101396586D01*
X130845363Y-101392785D01*
X130847399Y-101391018D01*
X130849888Y-101389988D01*
X130858387Y-101381488D01*
X130867470Y-101373611D01*
X130868674Y-101371201D01*
X130870580Y-101369296D01*
X130875182Y-101358184D01*
X130880556Y-101347437D01*
X130880746Y-101344751D01*
X130881779Y-101342260D01*
X130881779Y-101330232D01*
X130882631Y-101318247D01*
X130881779Y-101314500D01*
X130881779Y-101312996D01*
X130881020Y-101311165D01*
X130879371Y-101303911D01*
X130760292Y-100946676D01*
X131037982Y-100946676D01*
X131037982Y-101022866D01*
X131038711Y-101030271D01*
X131038571Y-101032246D01*
X131039161Y-101034843D01*
X131039423Y-101037498D01*
X131040181Y-101039329D01*
X131041831Y-101046583D01*
X131079926Y-101160869D01*
X131085920Y-101174294D01*
X131087685Y-101176329D01*
X131088717Y-101178820D01*
X131098044Y-101190185D01*
X131427154Y-101519295D01*
X131112982Y-101519295D01*
X131098350Y-101520736D01*
X131071314Y-101531935D01*
X131050622Y-101552627D01*
X131039423Y-101579663D01*
X131039423Y-101608927D01*
X131050622Y-101635963D01*
X131071314Y-101656655D01*
X131098350Y-101667854D01*
X131112982Y-101669295D01*
X131608220Y-101669295D01*
X131622852Y-101667854D01*
X131649888Y-101656656D01*
X131670581Y-101635963D01*
X131681779Y-101608927D01*
X131681779Y-101579664D01*
X131681779Y-101579663D01*
X131801328Y-101579663D01*
X131801328Y-101608927D01*
X131812527Y-101635963D01*
X131833219Y-101656655D01*
X131860255Y-101667854D01*
X131874887Y-101669295D01*
X132332030Y-101669295D01*
X132346662Y-101667854D01*
X132373698Y-101656655D01*
X132394390Y-101635963D01*
X132405589Y-101608927D01*
X132405589Y-101579663D01*
X132394390Y-101552627D01*
X132373698Y-101531935D01*
X132346662Y-101520736D01*
X132332030Y-101519295D01*
X132178458Y-101519295D01*
X132178458Y-101099057D01*
X132561792Y-101099057D01*
X132561792Y-101289533D01*
X132562043Y-101292086D01*
X132561881Y-101293178D01*
X132562689Y-101298650D01*
X132563233Y-101304165D01*
X132563656Y-101305186D01*
X132564031Y-101307723D01*
X132602126Y-101460104D01*
X132602511Y-101461183D01*
X132602550Y-101461723D01*
X132604877Y-101467804D01*
X132607073Y-101473950D01*
X132607395Y-101474385D01*
X132607805Y-101475455D01*
X132645900Y-101551645D01*
X132649863Y-101557941D01*
X132650621Y-101559771D01*
X132652310Y-101561829D01*
X132653732Y-101564088D01*
X132655230Y-101565387D01*
X132659948Y-101571136D01*
X132698043Y-101609232D01*
X132703794Y-101613952D01*
X132705093Y-101615450D01*
X132707348Y-101616869D01*
X132709408Y-101618560D01*
X132711238Y-101619318D01*
X132717536Y-101623282D01*
X132793727Y-101661377D01*
X132807459Y-101666632D01*
X132810146Y-101666822D01*
X132812636Y-101667854D01*
X132827268Y-101669295D01*
X132903458Y-101669295D01*
X132918090Y-101667854D01*
X132920579Y-101666822D01*
X132923267Y-101666632D01*
X132936999Y-101661377D01*
X133013190Y-101623282D01*
X133019489Y-101619317D01*
X133021317Y-101618560D01*
X133023373Y-101616872D01*
X133025633Y-101615450D01*
X133026933Y-101613950D01*
X133032683Y-101609232D01*
X133070778Y-101571136D01*
X133075495Y-101565387D01*
X133076994Y-101564088D01*
X133078415Y-101561829D01*
X133080105Y-101559771D01*
X133080862Y-101557941D01*
X133084826Y-101551645D01*
X133122921Y-101475455D01*
X133123330Y-101474385D01*
X133123653Y-101473950D01*
X133125851Y-101467798D01*
X133128176Y-101461723D01*
X133128214Y-101461184D01*
X133128600Y-101460105D01*
X133166696Y-101307723D01*
X133167071Y-101305186D01*
X133167494Y-101304165D01*
X133168036Y-101298652D01*
X133168846Y-101293179D01*
X133168683Y-101292086D01*
X133168935Y-101289533D01*
X133168935Y-101099057D01*
X133168683Y-101096503D01*
X133168846Y-101095411D01*
X133168036Y-101089937D01*
X133167494Y-101084425D01*
X133167071Y-101083403D01*
X133166696Y-101080867D01*
X133128600Y-100928485D01*
X133128214Y-100927405D01*
X133128176Y-100926867D01*
X133125851Y-100920791D01*
X133123653Y-100914640D01*
X133123330Y-100914204D01*
X133122921Y-100913135D01*
X133084826Y-100836944D01*
X133080861Y-100830644D01*
X133080104Y-100828817D01*
X133078415Y-100826760D01*
X133076994Y-100824501D01*
X133075495Y-100823201D01*
X133070777Y-100817452D01*
X133032988Y-100779663D01*
X133325138Y-100779663D01*
X133325138Y-100808927D01*
X133336337Y-100835963D01*
X133357029Y-100856655D01*
X133384065Y-100867854D01*
X133398697Y-100869295D01*
X133704649Y-100869295D01*
X133704649Y-101100247D01*
X133512983Y-101100247D01*
X133498351Y-101101688D01*
X133471315Y-101112887D01*
X133450623Y-101133579D01*
X133439424Y-101160615D01*
X133439424Y-101189879D01*
X133450623Y-101216915D01*
X133471315Y-101237607D01*
X133498351Y-101248806D01*
X133512983Y-101250247D01*
X133704649Y-101250247D01*
X133704649Y-101519295D01*
X133398697Y-101519295D01*
X133384065Y-101520736D01*
X133357029Y-101531935D01*
X133336337Y-101552627D01*
X133325138Y-101579663D01*
X133325138Y-101608927D01*
X133336337Y-101635963D01*
X133357029Y-101656655D01*
X133384065Y-101667854D01*
X133398697Y-101669295D01*
X133779649Y-101669295D01*
X133794281Y-101667854D01*
X133821317Y-101656655D01*
X133842009Y-101635963D01*
X133853208Y-101608927D01*
X133854649Y-101594295D01*
X133854649Y-101579663D01*
X133972757Y-101579663D01*
X133972757Y-101608927D01*
X133983956Y-101635963D01*
X134004648Y-101656655D01*
X134031684Y-101667854D01*
X134046316Y-101669295D01*
X134427268Y-101669295D01*
X134441900Y-101667854D01*
X134468936Y-101656655D01*
X134489628Y-101635963D01*
X134500827Y-101608927D01*
X134502268Y-101594295D01*
X134502268Y-100794295D01*
X134500827Y-100779663D01*
X134696567Y-100779663D01*
X134696567Y-100808927D01*
X134707766Y-100835963D01*
X134728458Y-100856655D01*
X134755494Y-100867854D01*
X134770126Y-100869295D01*
X135076078Y-100869295D01*
X135076078Y-101100247D01*
X134884412Y-101100247D01*
X134869780Y-101101688D01*
X134842744Y-101112887D01*
X134822052Y-101133579D01*
X134810853Y-101160615D01*
X134810853Y-101189879D01*
X134822052Y-101216915D01*
X134842744Y-101237607D01*
X134869780Y-101248806D01*
X134884412Y-101250247D01*
X135076078Y-101250247D01*
X135076078Y-101519295D01*
X134770126Y-101519295D01*
X134755494Y-101520736D01*
X134728458Y-101531935D01*
X134707766Y-101552627D01*
X134696567Y-101579663D01*
X134696567Y-101608927D01*
X134707766Y-101635963D01*
X134728458Y-101656655D01*
X134755494Y-101667854D01*
X134770126Y-101669295D01*
X135151078Y-101669295D01*
X135165710Y-101667854D01*
X135192746Y-101656655D01*
X135213438Y-101635963D01*
X135224637Y-101608927D01*
X135226078Y-101594295D01*
X135226078Y-100794295D01*
X135224637Y-100779663D01*
X135213438Y-100752627D01*
X135192746Y-100731935D01*
X135165710Y-100720736D01*
X135151078Y-100719295D01*
X134770126Y-100719295D01*
X134755494Y-100720736D01*
X134728458Y-100731935D01*
X134707766Y-100752627D01*
X134696567Y-100779663D01*
X134500827Y-100779663D01*
X134489628Y-100752627D01*
X134468936Y-100731935D01*
X134441900Y-100720736D01*
X134412636Y-100720736D01*
X134385600Y-100731935D01*
X134364908Y-100752627D01*
X134353709Y-100779663D01*
X134352268Y-100794295D01*
X134352268Y-101519295D01*
X134046316Y-101519295D01*
X134031684Y-101520736D01*
X134004648Y-101531935D01*
X133983956Y-101552627D01*
X133972757Y-101579663D01*
X133854649Y-101579663D01*
X133854649Y-100794295D01*
X133853208Y-100779663D01*
X133842009Y-100752627D01*
X133821317Y-100731935D01*
X133794281Y-100720736D01*
X133779649Y-100719295D01*
X133398697Y-100719295D01*
X133384065Y-100720736D01*
X133357029Y-100731935D01*
X133336337Y-100752627D01*
X133325138Y-100779663D01*
X133032988Y-100779663D01*
X133032682Y-100779357D01*
X133026932Y-100774638D01*
X133025633Y-100773140D01*
X133023373Y-100771718D01*
X133021317Y-100770030D01*
X133019489Y-100769272D01*
X133013190Y-100765308D01*
X132936999Y-100727213D01*
X132923267Y-100721958D01*
X132920579Y-100721767D01*
X132918090Y-100720736D01*
X132903458Y-100719295D01*
X132827268Y-100719295D01*
X132812636Y-100720736D01*
X132810146Y-100721767D01*
X132807459Y-100721958D01*
X132793727Y-100727213D01*
X132717536Y-100765308D01*
X132711236Y-100769272D01*
X132709409Y-100770030D01*
X132707352Y-100771718D01*
X132705093Y-100773140D01*
X132703793Y-100774638D01*
X132698044Y-100779357D01*
X132659949Y-100817452D01*
X132655230Y-100823201D01*
X132653732Y-100824501D01*
X132652310Y-100826760D01*
X132650622Y-100828817D01*
X132649864Y-100830644D01*
X132645900Y-100836944D01*
X132607805Y-100913135D01*
X132607395Y-100914204D01*
X132607073Y-100914640D01*
X132604877Y-100920785D01*
X132602550Y-100926867D01*
X132602511Y-100927406D01*
X132602126Y-100928486D01*
X132564031Y-101080867D01*
X132563656Y-101083403D01*
X132563233Y-101084425D01*
X132562689Y-101089939D01*
X132561881Y-101095412D01*
X132562043Y-101096503D01*
X132561792Y-101099057D01*
X132178458Y-101099057D01*
X132178458Y-101013455D01*
X132202806Y-101037804D01*
X132208555Y-101042522D01*
X132209855Y-101044021D01*
X132212114Y-101045442D01*
X132214171Y-101047131D01*
X132215998Y-101047888D01*
X132222298Y-101051853D01*
X132298489Y-101089948D01*
X132312221Y-101095203D01*
X132341411Y-101097277D01*
X132369172Y-101088023D01*
X132391280Y-101068850D01*
X132404367Y-101042675D01*
X132406441Y-101013485D01*
X132397187Y-100985724D01*
X132378014Y-100963616D01*
X132365571Y-100955784D01*
X132300266Y-100923131D01*
X132237934Y-100860800D01*
X132165862Y-100752692D01*
X132165827Y-100752649D01*
X132165818Y-100752627D01*
X132165766Y-100752575D01*
X132156546Y-100741317D01*
X132150376Y-100737185D01*
X132145126Y-100731935D01*
X132138336Y-100729122D01*
X132132231Y-100725034D01*
X132124950Y-100723577D01*
X132118090Y-100720736D01*
X132110741Y-100720736D01*
X132103536Y-100719295D01*
X132096252Y-100720736D01*
X132088826Y-100720736D01*
X132082037Y-100723547D01*
X132074829Y-100724974D01*
X132068650Y-100729093D01*
X132061790Y-100731935D01*
X132056594Y-100737130D01*
X132050480Y-100741207D01*
X132046348Y-100747376D01*
X132041098Y-100752627D01*
X132038285Y-100759416D01*
X132034197Y-100765522D01*
X132032740Y-100772802D01*
X132029899Y-100779663D01*
X132028473Y-100794141D01*
X132028458Y-100794217D01*
X132028463Y-100794242D01*
X132028458Y-100794295D01*
X132028458Y-101519295D01*
X131874887Y-101519295D01*
X131860255Y-101520736D01*
X131833219Y-101531935D01*
X131812527Y-101552627D01*
X131801328Y-101579663D01*
X131681779Y-101579663D01*
X131680822Y-101577354D01*
X131675946Y-101565581D01*
X131670581Y-101552627D01*
X131661253Y-101541262D01*
X131216629Y-101096638D01*
X131187982Y-101010696D01*
X131187982Y-100964380D01*
X131212716Y-100914911D01*
X131233598Y-100894029D01*
X131283068Y-100869295D01*
X131438134Y-100869295D01*
X131487602Y-100894029D01*
X131517093Y-100923519D01*
X131528458Y-100932846D01*
X131555494Y-100944044D01*
X131584757Y-100944044D01*
X131611793Y-100932845D01*
X131632486Y-100912152D01*
X131643684Y-100885115D01*
X131643684Y-100855852D01*
X131632485Y-100828816D01*
X131623157Y-100817451D01*
X131585061Y-100779356D01*
X131579312Y-100774638D01*
X131578013Y-100773140D01*
X131575754Y-100771718D01*
X131573696Y-100770029D01*
X131571866Y-100769271D01*
X131565570Y-100765308D01*
X131489380Y-100727213D01*
X131475648Y-100721958D01*
X131472960Y-100721767D01*
X131470471Y-100720736D01*
X131455839Y-100719295D01*
X131265363Y-100719295D01*
X131250731Y-100720736D01*
X131248241Y-100721767D01*
X131245554Y-100721958D01*
X131231822Y-100727213D01*
X131155631Y-100765308D01*
X131149331Y-100769272D01*
X131147504Y-100770030D01*
X131145447Y-100771718D01*
X131143188Y-100773140D01*
X131141888Y-100774638D01*
X131136139Y-100779357D01*
X131098044Y-100817452D01*
X131093325Y-100823201D01*
X131091827Y-100824501D01*
X131090405Y-100826760D01*
X131088717Y-100828817D01*
X131087959Y-100830644D01*
X131083995Y-100836944D01*
X131045900Y-100913135D01*
X131040645Y-100926867D01*
X131040454Y-100929554D01*
X131039423Y-100932044D01*
X131037982Y-100946676D01*
X130760292Y-100946676D01*
X130688894Y-100732483D01*
X130682900Y-100719057D01*
X130663726Y-100696950D01*
X130637553Y-100683863D01*
X130608363Y-100681789D01*
X130580600Y-100691043D01*
X130558493Y-100710217D01*
X130545406Y-100736390D01*
X130543332Y-100765580D01*
X130546592Y-100779917D01*
X130704163Y-101252628D01*
X130502267Y-101252628D01*
X130502267Y-101060961D01*
X130500826Y-101046329D01*
X130489627Y-101019293D01*
X130468935Y-100998601D01*
X130441899Y-100987402D01*
X130412635Y-100987402D01*
X130385599Y-100998601D01*
X130364907Y-101019293D01*
X130353708Y-101046329D01*
X130352267Y-101060961D01*
X130352267Y-101252628D01*
X130312981Y-101252628D01*
X130298349Y-101254069D01*
X130271313Y-101265268D01*
X130250621Y-101285960D01*
X130239422Y-101312996D01*
X130108234Y-101312996D01*
X130119076Y-101269628D01*
X130119451Y-101267091D01*
X130119874Y-101266070D01*
X130120416Y-101260557D01*
X130121226Y-101255084D01*
X130121063Y-101253991D01*
X130121315Y-101251438D01*
X130121315Y-101137152D01*
X130121063Y-101134598D01*
X130121226Y-101133506D01*
X130120416Y-101128032D01*
X130119874Y-101122520D01*
X130119451Y-101121498D01*
X130119076Y-101118962D01*
X130080980Y-100966580D01*
X130080594Y-100965500D01*
X130080556Y-100964962D01*
X130078231Y-100958886D01*
X130076033Y-100952735D01*
X130075710Y-100952299D01*
X130075301Y-100951230D01*
X130037206Y-100875039D01*
X130033243Y-100868744D01*
X130032485Y-100866912D01*
X130030793Y-100864850D01*
X130029374Y-100862596D01*
X130027877Y-100861297D01*
X130023157Y-100855547D01*
X129946967Y-100779357D01*
X129935602Y-100770030D01*
X129933111Y-100768998D01*
X129931076Y-100767233D01*
X129917651Y-100761239D01*
X129803365Y-100723144D01*
X129796111Y-100721494D01*
X129794280Y-100720736D01*
X129791625Y-100720474D01*
X129789028Y-100719884D01*
X129787053Y-100720024D01*
X129779648Y-100719295D01*
X129703457Y-100719295D01*
X129696051Y-100720024D01*
X129694077Y-100719884D01*
X129691479Y-100720474D01*
X129688825Y-100720736D01*
X129686993Y-100721494D01*
X129679740Y-100723144D01*
X129565455Y-100761239D01*
X129552029Y-100767233D01*
X129549993Y-100768998D01*
X129547505Y-100770029D01*
X129536140Y-100779356D01*
X129498044Y-100817451D01*
X129488716Y-100828817D01*
X129477517Y-100855853D01*
X129283219Y-100855853D01*
X129283219Y-100794295D01*
X129281778Y-100779663D01*
X129270579Y-100752627D01*
X129249887Y-100731935D01*
X129222851Y-100720736D01*
X129193587Y-100720736D01*
X129166551Y-100731935D01*
X129145859Y-100752627D01*
X129134660Y-100779663D01*
X129133219Y-100794295D01*
X129133219Y-101519295D01*
X128827267Y-101519295D01*
X128812635Y-101520736D01*
X128785599Y-101531935D01*
X128764907Y-101552627D01*
X128753708Y-101579663D01*
X128664819Y-101579663D01*
X128664819Y-100592900D01*
X135314967Y-100592900D01*
X135314967Y-101758184D01*
G37*
D11*
%TO.C,G\u002A\u002A\u002A*%
G36*
X133002632Y-90102018D02*
G01*
X133304890Y-90177217D01*
X133680406Y-90295448D01*
X134037170Y-90437571D01*
X134377272Y-90604638D01*
X134702804Y-90797700D01*
X135015854Y-91017806D01*
X135318514Y-91266007D01*
X135456223Y-91392037D01*
X135727250Y-91671138D01*
X135974298Y-91969725D01*
X136196656Y-92286409D01*
X136393610Y-92619803D01*
X136564449Y-92968520D01*
X136708460Y-93331171D01*
X136824932Y-93706369D01*
X136913152Y-94092726D01*
X136972408Y-94488854D01*
X136974416Y-94508240D01*
X136981845Y-94609964D01*
X136987080Y-94733695D01*
X136990121Y-94871807D01*
X136990967Y-95016673D01*
X136989619Y-95160666D01*
X136986076Y-95296160D01*
X136980339Y-95415529D01*
X136972408Y-95511145D01*
X136916092Y-95893923D01*
X136828798Y-96283253D01*
X136712512Y-96660522D01*
X136567154Y-97025988D01*
X136392643Y-97379913D01*
X136261446Y-97607324D01*
X136043033Y-97934911D01*
X135801552Y-98242209D01*
X135538302Y-98528213D01*
X135254584Y-98791919D01*
X134951699Y-99032322D01*
X134630949Y-99248418D01*
X134293632Y-99439201D01*
X133941050Y-99603667D01*
X133574504Y-99740811D01*
X133195294Y-99849630D01*
X133159821Y-99858307D01*
X133080077Y-99877733D01*
X133011951Y-99894219D01*
X132961752Y-99906242D01*
X132935790Y-99912279D01*
X132916358Y-99916349D01*
X132892350Y-99920900D01*
X132892000Y-99920701D01*
X132889462Y-99902213D01*
X132887337Y-99856127D01*
X132885669Y-99785861D01*
X132884504Y-99694836D01*
X132883889Y-99586470D01*
X132883867Y-99464184D01*
X132884486Y-99331396D01*
X132888607Y-98740068D01*
X133073428Y-98686945D01*
X133357784Y-98592492D01*
X133666206Y-98459762D01*
X133960617Y-98300673D01*
X134239436Y-98116859D01*
X134501083Y-97909953D01*
X134743978Y-97681590D01*
X134966540Y-97433403D01*
X135167188Y-97167026D01*
X135344343Y-96884092D01*
X135496423Y-96586236D01*
X135621848Y-96275090D01*
X135719037Y-95952289D01*
X135743140Y-95853457D01*
X135773383Y-95714666D01*
X135796008Y-95585382D01*
X135811960Y-95457439D01*
X135822185Y-95322672D01*
X135827627Y-95172914D01*
X135829231Y-95000000D01*
X135828581Y-94884922D01*
X135824599Y-94727940D01*
X135816166Y-94588825D01*
X135802339Y-94459410D01*
X135782171Y-94331530D01*
X135754719Y-94197019D01*
X135719037Y-94047711D01*
X135658165Y-93833827D01*
X135542039Y-93518934D01*
X135398214Y-93215519D01*
X135228313Y-92925613D01*
X135033957Y-92651247D01*
X134816767Y-92394455D01*
X134578365Y-92157266D01*
X134320373Y-91941712D01*
X134044413Y-91749826D01*
X133752106Y-91583638D01*
X133644659Y-91531302D01*
X133499153Y-91466396D01*
X133351677Y-91406438D01*
X133211810Y-91355284D01*
X133089133Y-91316791D01*
X132959381Y-91280660D01*
X132959381Y-90686532D01*
X132959381Y-90092404D01*
X133002632Y-90102018D01*
G37*
G36*
X130840489Y-90140609D02*
G01*
X130843106Y-90160051D01*
X130845507Y-90207026D01*
X130847624Y-90278110D01*
X130849388Y-90369880D01*
X130850732Y-90478913D01*
X130851588Y-90601787D01*
X130851889Y-90735078D01*
X130851889Y-91329971D01*
X130690681Y-91388961D01*
X130665066Y-91398439D01*
X130351335Y-91532154D01*
X130052517Y-91692242D01*
X129770109Y-91877055D01*
X129505605Y-92084943D01*
X129260500Y-92314257D01*
X129036289Y-92563347D01*
X128834467Y-92830563D01*
X128656528Y-93114257D01*
X128503968Y-93412780D01*
X128378282Y-93724481D01*
X128280963Y-94047711D01*
X128256861Y-94146543D01*
X128226618Y-94285334D01*
X128203993Y-94414617D01*
X128188040Y-94542560D01*
X128177815Y-94677328D01*
X128172373Y-94827086D01*
X128170769Y-95000000D01*
X128171419Y-95115078D01*
X128175402Y-95272059D01*
X128183834Y-95411175D01*
X128197662Y-95540590D01*
X128217829Y-95668470D01*
X128245281Y-95802981D01*
X128280963Y-95952289D01*
X128332603Y-96136836D01*
X128446130Y-96453118D01*
X128587320Y-96757469D01*
X128754613Y-97048087D01*
X128946449Y-97323170D01*
X129161269Y-97580915D01*
X129397513Y-97819520D01*
X129653622Y-98037182D01*
X129928037Y-98232099D01*
X130219196Y-98402467D01*
X130525542Y-98546485D01*
X130631703Y-98590601D01*
X130631703Y-99193752D01*
X130631701Y-99213265D01*
X130631535Y-99365485D01*
X130631018Y-99489359D01*
X130630044Y-99587675D01*
X130628508Y-99663218D01*
X130626302Y-99718777D01*
X130623320Y-99757138D01*
X130619455Y-99781088D01*
X130614601Y-99793414D01*
X130608652Y-99796904D01*
X130600979Y-99795780D01*
X130565716Y-99786395D01*
X130510053Y-99769227D01*
X130440231Y-99746380D01*
X130362490Y-99719958D01*
X130283070Y-99692064D01*
X130208209Y-99664803D01*
X130144149Y-99640279D01*
X129924280Y-99546047D01*
X129606710Y-99385798D01*
X129296978Y-99201447D01*
X129001994Y-98997208D01*
X128728669Y-98777293D01*
X128566927Y-98630466D01*
X128289958Y-98346840D01*
X128038124Y-98044885D01*
X127812003Y-97725711D01*
X127612173Y-97390426D01*
X127439211Y-97040139D01*
X127293695Y-96675959D01*
X127176201Y-96298994D01*
X127087308Y-95910353D01*
X127027593Y-95511145D01*
X127025584Y-95491760D01*
X127018155Y-95390036D01*
X127012920Y-95266304D01*
X127009880Y-95128193D01*
X127009034Y-94983327D01*
X127010382Y-94839334D01*
X127013925Y-94703840D01*
X127019661Y-94584471D01*
X127027593Y-94488854D01*
X127082900Y-94112913D01*
X127170251Y-93722558D01*
X127286639Y-93343383D01*
X127431747Y-92976290D01*
X127605256Y-92622177D01*
X127806850Y-92281944D01*
X127866765Y-92191564D01*
X128099551Y-91876258D01*
X128355409Y-91581437D01*
X128632799Y-91308231D01*
X128930183Y-91057767D01*
X129246022Y-90831176D01*
X129578778Y-90629587D01*
X129926912Y-90454128D01*
X130288885Y-90305928D01*
X130663158Y-90186117D01*
X130718806Y-90170883D01*
X130778289Y-90155070D01*
X130820963Y-90144287D01*
X130840093Y-90140278D01*
X130840489Y-90140609D01*
G37*
G36*
X132366531Y-89837858D02*
G01*
X132385941Y-89852018D01*
X132399317Y-89888545D01*
X132401389Y-89895638D01*
X132414578Y-89932359D01*
X132425652Y-89951455D01*
X132426025Y-89951928D01*
X132433428Y-89971861D01*
X132448140Y-90018136D01*
X132469160Y-90087248D01*
X132495486Y-90175691D01*
X132526117Y-90279960D01*
X132560053Y-90396551D01*
X132596291Y-90521957D01*
X132633831Y-90652674D01*
X132671671Y-90785197D01*
X132708810Y-90916019D01*
X132744247Y-91041636D01*
X132776980Y-91158543D01*
X132806009Y-91263234D01*
X132830332Y-91352205D01*
X132848947Y-91421949D01*
X132860854Y-91468962D01*
X132865052Y-91489738D01*
X132865078Y-91490053D01*
X132869986Y-91510091D01*
X132883071Y-91558668D01*
X132903886Y-91634203D01*
X132931984Y-91735117D01*
X132966919Y-91859829D01*
X133008244Y-92006759D01*
X133055512Y-92174329D01*
X133108276Y-92360957D01*
X133166091Y-92565064D01*
X133228509Y-92785070D01*
X133295084Y-93019396D01*
X133365369Y-93266460D01*
X133438917Y-93524684D01*
X133515283Y-93792488D01*
X133594018Y-94068290D01*
X134322948Y-96620234D01*
X134195561Y-96551878D01*
X134090327Y-96495626D01*
X133968040Y-96430644D01*
X133832181Y-96358761D01*
X133685051Y-96281174D01*
X133528951Y-96199081D01*
X133366180Y-96113678D01*
X133199040Y-96026161D01*
X133029832Y-95937729D01*
X132860855Y-95849578D01*
X132694410Y-95762904D01*
X132532798Y-95678904D01*
X132378320Y-95598776D01*
X132233276Y-95523717D01*
X132099966Y-95454922D01*
X131980692Y-95393590D01*
X131877754Y-95340917D01*
X131793452Y-95298099D01*
X131730087Y-95266334D01*
X131689959Y-95246819D01*
X131675370Y-95240750D01*
X131675781Y-95251482D01*
X131680293Y-95290760D01*
X131688872Y-95356227D01*
X131701109Y-95445156D01*
X131716594Y-95554822D01*
X131734918Y-95682501D01*
X131755673Y-95825466D01*
X131778450Y-95980992D01*
X131802840Y-96146354D01*
X131828433Y-96318827D01*
X131854821Y-96495685D01*
X131881595Y-96674203D01*
X131908345Y-96851655D01*
X131934664Y-97025317D01*
X131960142Y-97192462D01*
X131984369Y-97350365D01*
X132006938Y-97496302D01*
X132027439Y-97627546D01*
X132045463Y-97741373D01*
X132060601Y-97835056D01*
X132072444Y-97905871D01*
X132080584Y-97951093D01*
X132084610Y-97967995D01*
X132084700Y-97968069D01*
X132103092Y-97969651D01*
X132148606Y-97969576D01*
X132217084Y-97967967D01*
X132304368Y-97964947D01*
X132406301Y-97960640D01*
X132518724Y-97955168D01*
X132523897Y-97954901D01*
X132635329Y-97949562D01*
X132735560Y-97945510D01*
X132820551Y-97942848D01*
X132886259Y-97941681D01*
X132928646Y-97942111D01*
X132943670Y-97944242D01*
X132940733Y-97953598D01*
X132927196Y-97988065D01*
X132904558Y-98042781D01*
X132874914Y-98112700D01*
X132840363Y-98192776D01*
X132817053Y-98246814D01*
X132784446Y-98324041D01*
X132757717Y-98389337D01*
X132739147Y-98437090D01*
X132731018Y-98461689D01*
X132725755Y-98476452D01*
X132708805Y-98518378D01*
X132681316Y-98584241D01*
X132644424Y-98671390D01*
X132599259Y-98777171D01*
X132546957Y-98898932D01*
X132488649Y-99034022D01*
X132425469Y-99179786D01*
X132358551Y-99333572D01*
X132271719Y-99531954D01*
X132195064Y-99705348D01*
X132129917Y-99850667D01*
X132076043Y-99968418D01*
X132033205Y-100059112D01*
X132001167Y-100123256D01*
X131979692Y-100161360D01*
X131968545Y-100173932D01*
X131958204Y-100163628D01*
X131931026Y-100130175D01*
X131889089Y-100076026D01*
X131834253Y-100003732D01*
X131768379Y-99915846D01*
X131693327Y-99814920D01*
X131610957Y-99703505D01*
X131523129Y-99584153D01*
X131431704Y-99459418D01*
X131338541Y-99331851D01*
X131245502Y-99204003D01*
X131154445Y-99078428D01*
X131067232Y-98957677D01*
X130985723Y-98844302D01*
X130911777Y-98740855D01*
X130847256Y-98649889D01*
X130794019Y-98573955D01*
X130753926Y-98515606D01*
X130728838Y-98477394D01*
X130720615Y-98461870D01*
X130712794Y-98447004D01*
X130689205Y-98410833D01*
X130652688Y-98357552D01*
X130606092Y-98291317D01*
X130552266Y-98216285D01*
X130381505Y-97980371D01*
X130746449Y-97970674D01*
X130779832Y-97969798D01*
X130898153Y-97966837D01*
X131015705Y-97964097D01*
X131124819Y-97961746D01*
X131217827Y-97959951D01*
X131287061Y-97958879D01*
X131462728Y-97956780D01*
X131448404Y-97905665D01*
X131442308Y-97885317D01*
X131427465Y-97836531D01*
X131404424Y-97761098D01*
X131373711Y-97660738D01*
X131335855Y-97537172D01*
X131291383Y-97392117D01*
X131240822Y-97227295D01*
X131184701Y-97044424D01*
X131123547Y-96845225D01*
X131057887Y-96631417D01*
X130988250Y-96404720D01*
X130915163Y-96166853D01*
X130839153Y-95919536D01*
X130760748Y-95664489D01*
X130758800Y-95658152D01*
X130680774Y-95404294D01*
X130605368Y-95158825D01*
X130533093Y-94923413D01*
X130464458Y-94699723D01*
X130399974Y-94489425D01*
X130340151Y-94294185D01*
X130285499Y-94115670D01*
X130236529Y-93955548D01*
X130193750Y-93815486D01*
X130157672Y-93697151D01*
X130128807Y-93602210D01*
X130107663Y-93532331D01*
X130094752Y-93489181D01*
X130090584Y-93474427D01*
X130091174Y-93474628D01*
X130108724Y-93484353D01*
X130145176Y-93505778D01*
X130193656Y-93534871D01*
X130232757Y-93558398D01*
X130300959Y-93599154D01*
X130388682Y-93651371D01*
X130493599Y-93713676D01*
X130613378Y-93784694D01*
X130745690Y-93863051D01*
X130888206Y-93947372D01*
X131038597Y-94036285D01*
X131194532Y-94128413D01*
X131353683Y-94222384D01*
X131513719Y-94316822D01*
X131672311Y-94410354D01*
X131827130Y-94501606D01*
X131975846Y-94589203D01*
X132116130Y-94671772D01*
X132245652Y-94747937D01*
X132362083Y-94816325D01*
X132463092Y-94875562D01*
X132546352Y-94924273D01*
X132609531Y-94961084D01*
X132650300Y-94984621D01*
X132666331Y-94993510D01*
X132671407Y-94994179D01*
X132675700Y-94983673D01*
X132670769Y-94954191D01*
X132655881Y-94902289D01*
X132630301Y-94824524D01*
X132610032Y-94765272D01*
X132579147Y-94675891D01*
X132540759Y-94565469D01*
X132495683Y-94436312D01*
X132444733Y-94290726D01*
X132388725Y-94131016D01*
X132328474Y-93959488D01*
X132264794Y-93778446D01*
X132198499Y-93590196D01*
X132130405Y-93397043D01*
X132061327Y-93201294D01*
X131992078Y-93005253D01*
X131923475Y-92811225D01*
X131856332Y-92621517D01*
X131791463Y-92438433D01*
X131729683Y-92264279D01*
X131671808Y-92101360D01*
X131618651Y-91951981D01*
X131571028Y-91818449D01*
X131529753Y-91703068D01*
X131495642Y-91608143D01*
X131469509Y-91535981D01*
X131452168Y-91488886D01*
X131444435Y-91469164D01*
X131435064Y-91447344D01*
X131416229Y-91398516D01*
X131390071Y-91327883D01*
X131357781Y-91238874D01*
X131320554Y-91134919D01*
X131279581Y-91019445D01*
X131236056Y-90895881D01*
X131191170Y-90767657D01*
X131146118Y-90638202D01*
X131102091Y-90510942D01*
X131060283Y-90389309D01*
X131021886Y-90276730D01*
X130988092Y-90176634D01*
X130960095Y-90092449D01*
X130939088Y-90027606D01*
X130926262Y-89985531D01*
X130922811Y-89969655D01*
X130922998Y-89969498D01*
X130942390Y-89965253D01*
X130986539Y-89960076D01*
X131049072Y-89954606D01*
X131123614Y-89949483D01*
X131131206Y-89949011D01*
X131201406Y-89943933D01*
X131295939Y-89936207D01*
X131408711Y-89926375D01*
X131533632Y-89914980D01*
X131664606Y-89902564D01*
X131795542Y-89889669D01*
X131839125Y-89885296D01*
X131958982Y-89873329D01*
X132069424Y-89862392D01*
X132166073Y-89852910D01*
X132244554Y-89845313D01*
X132300492Y-89840027D01*
X132329510Y-89837480D01*
X132366531Y-89837858D01*
G37*
%TD*%
M02*
