%TF.GenerationSoftware,KiCad,Pcbnew,8.0.4*%
%TF.CreationDate,2024-08-07T19:09:05+02:00*%
%TF.ProjectId,ELE0124CL_power_buck,454c4530-3132-4344-934c-5f706f776572,1.0*%
%TF.SameCoordinates,Original*%
%TF.FileFunction,Copper,L4,Bot*%
%TF.FilePolarity,Positive*%
%FSLAX46Y46*%
G04 Gerber Fmt 4.6, Leading zero omitted, Abs format (unit mm)*
G04 Created by KiCad (PCBNEW 8.0.4) date 2024-08-07 19:09:05*
%MOMM*%
%LPD*%
G01*
G04 APERTURE LIST*
G04 Aperture macros list*
%AMRoundRect*
0 Rectangle with rounded corners*
0 $1 Rounding radius*
0 $2 $3 $4 $5 $6 $7 $8 $9 X,Y pos of 4 corners*
0 Add a 4 corners polygon primitive as box body*
4,1,4,$2,$3,$4,$5,$6,$7,$8,$9,$2,$3,0*
0 Add four circle primitives for the rounded corners*
1,1,$1+$1,$2,$3*
1,1,$1+$1,$4,$5*
1,1,$1+$1,$6,$7*
1,1,$1+$1,$8,$9*
0 Add four rect primitives between the rounded corners*
20,1,$1+$1,$2,$3,$4,$5,0*
20,1,$1+$1,$4,$5,$6,$7,0*
20,1,$1+$1,$6,$7,$8,$9,0*
20,1,$1+$1,$8,$9,$2,$3,0*%
G04 Aperture macros list end*
%TA.AperFunction,ComponentPad*%
%ADD10C,1.600000*%
%TD*%
%TA.AperFunction,ComponentPad*%
%ADD11C,1.200000*%
%TD*%
%TA.AperFunction,ComponentPad*%
%ADD12C,8.600000*%
%TD*%
%TA.AperFunction,ComponentPad*%
%ADD13RoundRect,0.050000X-1.250000X1.250000X-1.250000X-1.250000X1.250000X-1.250000X1.250000X1.250000X0*%
%TD*%
%TA.AperFunction,ComponentPad*%
%ADD14C,2.600000*%
%TD*%
%TA.AperFunction,ComponentPad*%
%ADD15O,2.500000X1.700000*%
%TD*%
%TA.AperFunction,ComponentPad*%
%ADD16RoundRect,0.200000X0.800000X-0.800000X0.800000X0.800000X-0.800000X0.800000X-0.800000X-0.800000X0*%
%TD*%
%TA.AperFunction,ComponentPad*%
%ADD17C,2.000000*%
%TD*%
%TA.AperFunction,ComponentPad*%
%ADD18RoundRect,0.043333X-0.606667X0.706667X-0.606667X-0.706667X0.606667X-0.706667X0.606667X0.706667X0*%
%TD*%
%TA.AperFunction,ComponentPad*%
%ADD19O,1.300000X1.500000*%
%TD*%
%TA.AperFunction,ComponentPad*%
%ADD20RoundRect,0.050000X1.250000X-1.250000X1.250000X1.250000X-1.250000X1.250000X-1.250000X-1.250000X0*%
%TD*%
%TA.AperFunction,ViaPad*%
%ADD21C,0.600000*%
%TD*%
%TA.AperFunction,ViaPad*%
%ADD22C,0.800000*%
%TD*%
%TA.AperFunction,Conductor*%
%ADD23C,0.500000*%
%TD*%
%TA.AperFunction,Conductor*%
%ADD24C,0.200000*%
%TD*%
G04 APERTURE END LIST*
D10*
%TO.P,C2,1*%
%TO.N,+24V*%
X92600000Y-109000000D03*
%TO.P,C2,2*%
%TO.N,GND_PWR*%
X92600000Y-111000000D03*
%TD*%
D11*
%TO.P,REF\u002A\u002A,1*%
%TO.N,N/C*%
X179775000Y-123000000D03*
X180719581Y-120719581D03*
X180719581Y-125280419D03*
X183000000Y-119775000D03*
D12*
X183000000Y-123000000D03*
D11*
X183000000Y-126225000D03*
X185280419Y-120719581D03*
X185280419Y-125280419D03*
X186225000Y-123000000D03*
%TD*%
D13*
%TO.P,J3,1,Pin_1*%
%TO.N,+VOUT_OUT*%
X183400000Y-97500000D03*
D14*
%TO.P,J3,2,Pin_2*%
%TO.N,GND_PWR*%
X183400000Y-102500000D03*
%TD*%
D15*
%TO.P,TP6,1,TP*%
%TO.N,/Gate Drivers/G_SENSE_L*%
X102800000Y-125300000D03*
%TD*%
D16*
%TO.P,J1,1*%
%TO.N,GND_PWR*%
X73500000Y-90000000D03*
D17*
%TO.P,J1,2*%
%TO.N,+12V*%
X76500000Y-90000000D03*
%TD*%
D15*
%TO.P,TP5,1,TP*%
%TO.N,/Gate Drivers/G_SENSE_H*%
X103000000Y-100000000D03*
%TD*%
D10*
%TO.P,C1,1*%
%TO.N,+24V*%
X98000000Y-105700000D03*
%TO.P,C1,2*%
%TO.N,GND_PWR*%
X98000000Y-103700000D03*
%TD*%
D11*
%TO.P,REF\u002A\u002A,1*%
%TO.N,N/C*%
X73775000Y-67000000D03*
X74719581Y-64719581D03*
X74719581Y-69280419D03*
X77000000Y-63775000D03*
D12*
X77000000Y-67000000D03*
D11*
X77000000Y-70225000D03*
X79280419Y-64719581D03*
X79280419Y-69280419D03*
X80225000Y-67000000D03*
%TD*%
D15*
%TO.P,TP7,1,TP*%
%TO.N,/Gate Drivers/SWITCHING_NODE*%
X118000000Y-112000000D03*
%TD*%
%TO.P,TP8,1,TP*%
%TO.N,GND_PWR*%
X95000000Y-120000000D03*
%TD*%
D10*
%TO.P,C8,1*%
%TO.N,+VOUT*%
X168700000Y-116300000D03*
%TO.P,C8,2*%
%TO.N,GND_PWR*%
X168700000Y-121300000D03*
%TD*%
D18*
%TO.P,J4,1,Pin_1*%
%TO.N,/PWM_H1*%
X142000000Y-64000000D03*
D19*
%TO.P,J4,2,Pin_2*%
%TO.N,/PWM_L1*%
X142000000Y-66000000D03*
%TO.P,J4,3,Pin_3*%
%TO.N,unconnected-(J4-Pin_3-Pad3)*%
X140000000Y-64000000D03*
%TO.P,J4,4,Pin_4*%
%TO.N,unconnected-(J4-Pin_4-Pad4)*%
X140000000Y-66000000D03*
%TO.P,J4,5,Pin_5*%
%TO.N,GND*%
X138000000Y-64000000D03*
%TO.P,J4,6,Pin_6*%
X138000000Y-66000000D03*
%TO.P,J4,7,Pin_7*%
%TO.N,+5V*%
X136000000Y-64000000D03*
%TO.P,J4,8,Pin_8*%
%TO.N,/RESET*%
X136000000Y-66000000D03*
%TO.P,J4,9,Pin_9*%
%TO.N,+3V3*%
X134000000Y-64000000D03*
%TO.P,J4,10,Pin_10*%
%TO.N,unconnected-(J4-Pin_10-Pad10)*%
X134000000Y-66000000D03*
%TO.P,J4,11,Pin_11*%
%TO.N,unconnected-(J4-Pin_11-Pad11)*%
X132000000Y-64000000D03*
%TO.P,J4,12,Pin_12*%
%TO.N,/ADC_6*%
X132000000Y-66000000D03*
%TO.P,J4,13,Pin_13*%
%TO.N,/ADC_0*%
X130000000Y-64000000D03*
%TO.P,J4,14,Pin_14*%
%TO.N,/ADC_1*%
X130000000Y-66000000D03*
%TO.P,J4,15,Pin_15*%
%TO.N,/ADC_2*%
X128000000Y-64000000D03*
%TO.P,J4,16,Pin_16*%
%TO.N,/ADC_3*%
X128000000Y-66000000D03*
%TD*%
D10*
%TO.P,C11,1*%
%TO.N,+VOUT*%
X158700000Y-110500000D03*
%TO.P,C11,2*%
%TO.N,GND_PWR*%
X158700000Y-115500000D03*
%TD*%
%TO.P,C7,1*%
%TO.N,+VOUT*%
X158700000Y-98500000D03*
%TO.P,C7,2*%
%TO.N,GND_PWR*%
X158700000Y-103500000D03*
%TD*%
D15*
%TO.P,TP1,1,TP*%
%TO.N,/ADC_1*%
X159500000Y-66700000D03*
%TD*%
D20*
%TO.P,J2,1,Pin_1*%
%TO.N,GND_PWR*%
X76600000Y-107500000D03*
D14*
%TO.P,J2,2,Pin_2*%
%TO.N,+24V_IN*%
X76600000Y-102500000D03*
%TD*%
D11*
%TO.P,REF\u002A\u002A,1*%
%TO.N,N/C*%
X73775000Y-123000000D03*
X74719581Y-120719581D03*
X74719581Y-125280419D03*
X77000000Y-119775000D03*
D12*
X77000000Y-123000000D03*
D11*
X77000000Y-126225000D03*
X79280419Y-120719581D03*
X79280419Y-125280419D03*
X80225000Y-123000000D03*
%TD*%
%TO.P,REF\u002A\u002A,1*%
%TO.N,N/C*%
X179775000Y-67000000D03*
X180719581Y-64719581D03*
X180719581Y-69280419D03*
X183000000Y-63775000D03*
D12*
X183000000Y-67000000D03*
D11*
X183000000Y-70225000D03*
X185280419Y-64719581D03*
X185280419Y-69280419D03*
X186225000Y-67000000D03*
%TD*%
D15*
%TO.P,TP13,1,TP*%
%TO.N,GND*%
X159500000Y-72200000D03*
%TD*%
D10*
%TO.P,C9,1*%
%TO.N,+VOUT*%
X168700000Y-104500000D03*
%TO.P,C9,2*%
%TO.N,GND_PWR*%
X168700000Y-109500000D03*
%TD*%
D21*
%TO.N,GND_PWR*%
X89100000Y-88200000D03*
X173300000Y-99800000D03*
X134000000Y-90000000D03*
X176300000Y-82400000D03*
X163400000Y-98400000D03*
D22*
X106300000Y-119300000D03*
D21*
X103600000Y-121000000D03*
X173400000Y-95000000D03*
X163900000Y-124000000D03*
X126600000Y-88800000D03*
X103600000Y-119000000D03*
D22*
X121350000Y-92250000D03*
D21*
X163900000Y-122600000D03*
X91400000Y-99900000D03*
X128200000Y-83000000D03*
X75000000Y-80000000D03*
X183000000Y-115000000D03*
X96800000Y-112800000D03*
X99200000Y-112800000D03*
X80000000Y-115000000D03*
X153900000Y-125000000D03*
X134000000Y-83000000D03*
X85500000Y-93100000D03*
X163900000Y-121600000D03*
X153900000Y-124000000D03*
X140000000Y-90000000D03*
X154000000Y-119200000D03*
X124200000Y-88800000D03*
X103600000Y-116900000D03*
X93000000Y-115000000D03*
X173300000Y-100800000D03*
X140000000Y-83000000D03*
X86000000Y-125000000D03*
X107000000Y-117000000D03*
X102000000Y-118000000D03*
X163900000Y-125000000D03*
X86000000Y-115000000D03*
X94000000Y-125000000D03*
X173400000Y-98400000D03*
X98400000Y-98100000D03*
X154000000Y-120200000D03*
X163400000Y-96000000D03*
X173400000Y-97400000D03*
X80600000Y-83200000D03*
X163400000Y-95000000D03*
X183000000Y-110000000D03*
X81100000Y-91700000D03*
X176300000Y-86300000D03*
X86000000Y-120000000D03*
X91400000Y-102000000D03*
X80000000Y-80000000D03*
X102000000Y-120000000D03*
X173400000Y-96000000D03*
X182100000Y-79900000D03*
X93800000Y-102000000D03*
X85500000Y-94100000D03*
X163400000Y-97400000D03*
X182100000Y-78300000D03*
X93800000Y-99900000D03*
X87300000Y-86000000D03*
X154000000Y-121600000D03*
X154000000Y-122600000D03*
X75000000Y-115000000D03*
%TO.N,+24V*%
X109100000Y-107900000D03*
X95200000Y-80200000D03*
X95200000Y-81600000D03*
X109100000Y-102700000D03*
X95800000Y-80900000D03*
X96400000Y-80200000D03*
X100300000Y-93100000D03*
X103000000Y-105000000D03*
X111500000Y-107900000D03*
X111500000Y-105300000D03*
X101000000Y-107000000D03*
X110300000Y-104000000D03*
X103000000Y-109000000D03*
X109100000Y-105300000D03*
X111500000Y-102700000D03*
X110300000Y-106600000D03*
%TO.N,+VOUT*%
X155400000Y-79000000D03*
X160000000Y-81600000D03*
X156500000Y-82900000D03*
X165700000Y-80300000D03*
X160000000Y-79000000D03*
X161100000Y-80300000D03*
X162300000Y-79000000D03*
X153100000Y-81600000D03*
X155400000Y-81600000D03*
X163400000Y-82900000D03*
X157700000Y-81600000D03*
X162300000Y-81600000D03*
X156500000Y-80300000D03*
X154200000Y-80300000D03*
X158800000Y-80300000D03*
X161100000Y-82900000D03*
X165700000Y-82900000D03*
X164600000Y-81600000D03*
X166900000Y-81600000D03*
X163400000Y-80300000D03*
X157700000Y-79000000D03*
X154200000Y-82900000D03*
X158800000Y-82900000D03*
%TO.N,GND*%
X98100000Y-71200000D03*
X84700000Y-66300000D03*
X178000000Y-68100000D03*
X178100000Y-73500000D03*
X171600000Y-65000000D03*
X162900000Y-74400000D03*
X109700000Y-69900000D03*
X89400000Y-74500000D03*
X171000000Y-69800000D03*
X97900000Y-73300000D03*
X105400000Y-66000000D03*
X147100000Y-66700000D03*
X97700000Y-69200000D03*
X120500000Y-73100000D03*
X89200000Y-73500000D03*
X154500000Y-63500000D03*
X170600000Y-63500000D03*
X83100000Y-74500000D03*
X146900000Y-74400000D03*
X89800000Y-66700000D03*
X110000000Y-71200000D03*
X130000000Y-72000000D03*
X89800000Y-68300000D03*
X163100000Y-66700000D03*
X81900000Y-71400000D03*
X147100000Y-68300000D03*
X163100000Y-68300000D03*
X97100000Y-63500000D03*
X140000000Y-72000000D03*
X171600000Y-66900000D03*
%TO.N,+5V*%
X166100000Y-71500000D03*
X97900000Y-66000000D03*
X110000000Y-66000000D03*
X92605000Y-71500000D03*
X114100000Y-69200000D03*
X150100000Y-71500000D03*
X105500000Y-67600000D03*
X151000000Y-65300000D03*
X93705000Y-65300000D03*
X97900000Y-67600000D03*
X102100000Y-69200000D03*
X167000000Y-65300000D03*
X110000000Y-67600000D03*
%TO.N,/Gate Drivers/VBOOT*%
X97900000Y-79300000D03*
X104600000Y-79300000D03*
%TO.N,/Gate Drivers/SWITCHING_NODE*%
X126300000Y-113300000D03*
X116200000Y-122500000D03*
X115100000Y-121300000D03*
X128600000Y-113300000D03*
X117400000Y-118700000D03*
X127400000Y-112000000D03*
X132000000Y-112000000D03*
X116200000Y-117400000D03*
X117400000Y-121300000D03*
X111600000Y-122500000D03*
X111600000Y-120000000D03*
X112800000Y-118700000D03*
X115100000Y-104000000D03*
X117000000Y-115000000D03*
X126300000Y-110700000D03*
X133200000Y-110700000D03*
X130900000Y-113300000D03*
X115100000Y-105900000D03*
X120000000Y-109000000D03*
X120000000Y-117000000D03*
X123000000Y-112000000D03*
X130900000Y-110700000D03*
X116200000Y-120000000D03*
X133200000Y-113300000D03*
X115100000Y-118700000D03*
X112800000Y-121300000D03*
X117000000Y-105000000D03*
X132000000Y-114500000D03*
X132000000Y-109400000D03*
X127400000Y-109400000D03*
X127400000Y-114500000D03*
X123000000Y-109000000D03*
X111600000Y-117400000D03*
X110500000Y-121300000D03*
X120000000Y-115000000D03*
X117000000Y-109000000D03*
X128600000Y-110700000D03*
X120000000Y-107000000D03*
X113900000Y-107400000D03*
X117000000Y-107000000D03*
X110500000Y-118700000D03*
X123000000Y-115000000D03*
X120000000Y-105000000D03*
%TO.N,+12V*%
X111600000Y-87100000D03*
X105800000Y-94000000D03*
X125400000Y-81700000D03*
X104300000Y-92600000D03*
X102800000Y-92600000D03*
X102800000Y-94000000D03*
X105800000Y-92600000D03*
X116600000Y-79100000D03*
X104300000Y-94000000D03*
X124200000Y-83000000D03*
%TO.N,+3V3*%
X172000000Y-73500000D03*
X84700000Y-62400000D03*
X172100000Y-63400000D03*
X82900000Y-73200000D03*
%TO.N,+24V_IN*%
X88400000Y-80200000D03*
X90800000Y-81400000D03*
X86800000Y-80200000D03*
X91600000Y-80200000D03*
X86000000Y-79000000D03*
X89100000Y-93800000D03*
X89200000Y-79000000D03*
X87600000Y-81400000D03*
X92400000Y-81400000D03*
X90000000Y-80200000D03*
X93200000Y-80200000D03*
X89200000Y-81400000D03*
X87600000Y-79000000D03*
X90800000Y-79000000D03*
X86000000Y-81400000D03*
%TO.N,+VOUT_OUT*%
X185300000Y-93300000D03*
X170200000Y-80300000D03*
X170200000Y-82900000D03*
X179600000Y-94600000D03*
X171300000Y-81600000D03*
X184200000Y-94600000D03*
X181900000Y-94600000D03*
X183000000Y-93300000D03*
X179600000Y-92000000D03*
X169000000Y-81600000D03*
X181900000Y-92000000D03*
X183000000Y-90700000D03*
X180700000Y-90700000D03*
X180700000Y-93300000D03*
X185300000Y-90700000D03*
X184200000Y-92000000D03*
X171300000Y-79000000D03*
%TO.N,/ADC_3*%
X95105000Y-66800000D03*
%TO.N,/ADC_2*%
X87200000Y-61600000D03*
%TO.N,/ADC_0*%
X175700000Y-65100000D03*
%TO.N,/RESET*%
X114100000Y-72900000D03*
X117900000Y-64900000D03*
X102100000Y-72900000D03*
%TO.N,/ADC_1*%
X152500000Y-66700000D03*
%TO.N,/ADC_6*%
X168600000Y-66700000D03*
X162400000Y-62500000D03*
%TO.N,Net-(L1-Pad2)*%
X145000000Y-113300000D03*
X149600000Y-113300000D03*
X148400000Y-109400000D03*
X143800000Y-114500000D03*
X147300000Y-110700000D03*
X149800000Y-80300000D03*
X144000000Y-81600000D03*
X145200000Y-82900000D03*
X148600000Y-81600000D03*
X146300000Y-81600000D03*
X142900000Y-80300000D03*
X142700000Y-113300000D03*
X149800000Y-82900000D03*
X145200000Y-80300000D03*
X147500000Y-80300000D03*
X149600000Y-110700000D03*
X147500000Y-82900000D03*
X147300000Y-113300000D03*
X142700000Y-110700000D03*
X146300000Y-79000000D03*
X148400000Y-114500000D03*
X150900000Y-81600000D03*
X143800000Y-109400000D03*
X142900000Y-82900000D03*
X144000000Y-79000000D03*
X148400000Y-112000000D03*
X145000000Y-110700000D03*
X143800000Y-112000000D03*
D22*
%TO.N,/Gate Drivers/G_SENSE_L*%
X119900000Y-92200000D03*
X105200000Y-122100000D03*
D21*
%TO.N,Net-(U8A-IN1+)*%
X87800000Y-66900000D03*
X85700000Y-66900000D03*
%TO.N,Net-(U12A-IN1+)*%
X173300000Y-66900000D03*
X176300000Y-66900000D03*
%TD*%
D23*
%TO.N,GND_PWR*%
X121350000Y-92250000D02*
X120600000Y-93000000D01*
X118600000Y-96600000D02*
X106700000Y-96600000D01*
X120600000Y-94600000D02*
X118600000Y-96600000D01*
X120600000Y-93000000D02*
X120600000Y-94600000D01*
X105900000Y-97400000D02*
X105900000Y-118900000D01*
X105900000Y-118900000D02*
X106300000Y-119300000D01*
X106700000Y-96600000D02*
X105900000Y-97400000D01*
D24*
%TO.N,/ADC_3*%
X95105000Y-66800000D02*
X95105000Y-62800000D01*
X124500000Y-62500000D02*
X128000000Y-66000000D01*
X95405000Y-62500000D02*
X124500000Y-62500000D01*
X95105000Y-62800000D02*
X95405000Y-62500000D01*
%TO.N,/ADC_2*%
X87200000Y-61600000D02*
X125600000Y-61600000D01*
X125600000Y-61600000D02*
X128000000Y-64000000D01*
%TO.N,/ADC_0*%
X174900000Y-61600000D02*
X175700000Y-62400000D01*
X130000000Y-64000000D02*
X132400000Y-61600000D01*
X132400000Y-61600000D02*
X174900000Y-61600000D01*
X175700000Y-62400000D02*
X175700000Y-65100000D01*
%TO.N,/RESET*%
X117200000Y-72900000D02*
X114100000Y-72900000D01*
X117900000Y-64900000D02*
X117900000Y-72200000D01*
X117900000Y-72200000D02*
X117200000Y-72900000D01*
X102100000Y-72900000D02*
X114100000Y-72900000D01*
%TO.N,/ADC_1*%
X130000000Y-66000000D02*
X131500000Y-67500000D01*
X131500000Y-67500000D02*
X151700000Y-67500000D01*
X151700000Y-67500000D02*
X152500000Y-66700000D01*
X152500000Y-66700000D02*
X159500000Y-66700000D01*
%TO.N,/ADC_6*%
X167700000Y-62500000D02*
X168600000Y-63400000D01*
X133000000Y-65000000D02*
X133000000Y-62800000D01*
X163800000Y-62500000D02*
X167700000Y-62500000D01*
X132000000Y-66000000D02*
X133000000Y-65000000D01*
X133300000Y-62500000D02*
X163800000Y-62500000D01*
X133000000Y-62800000D02*
X133300000Y-62500000D01*
X168600000Y-63400000D02*
X168600000Y-66700000D01*
D23*
%TO.N,/Gate Drivers/G_SENSE_L*%
X119900000Y-94310050D02*
X119900000Y-92200000D01*
X106410050Y-95900000D02*
X118310050Y-95900000D01*
X118310050Y-95900000D02*
X119900000Y-94310050D01*
X105200000Y-122100000D02*
X105200000Y-97110050D01*
X105200000Y-97110050D02*
X106410050Y-95900000D01*
D24*
%TO.N,Net-(U8A-IN1+)*%
X85700000Y-66900000D02*
X87800000Y-66900000D01*
%TO.N,Net-(U12A-IN1+)*%
X173300000Y-66900000D02*
X176300000Y-66900000D01*
%TD*%
%TA.AperFunction,Conductor*%
%TO.N,/Gate Drivers/SWITCHING_NODE*%
G36*
X121015677Y-103019685D02*
G01*
X121036319Y-103036319D01*
X125500000Y-107500000D01*
X133676000Y-107500000D01*
X133743039Y-107519685D01*
X133788794Y-107572489D01*
X133800000Y-107624000D01*
X133800000Y-116376000D01*
X133780315Y-116443039D01*
X133727511Y-116488794D01*
X133676000Y-116500000D01*
X125399999Y-116500000D01*
X117936319Y-123963681D01*
X117874996Y-123997166D01*
X117848638Y-124000000D01*
X109824000Y-124000000D01*
X109756961Y-123980315D01*
X109711206Y-123927511D01*
X109700000Y-123876000D01*
X109700000Y-117652418D01*
X109719685Y-117585379D01*
X109737599Y-117563475D01*
X113200000Y-114200000D01*
X113200000Y-103124000D01*
X113219685Y-103056961D01*
X113272489Y-103011206D01*
X113324000Y-103000000D01*
X120948638Y-103000000D01*
X121015677Y-103019685D01*
G37*
%TD.AperFunction*%
%TD*%
%TA.AperFunction,Conductor*%
%TO.N,GND_PWR*%
G36*
X88814285Y-97458201D02*
G01*
X88870055Y-97500289D01*
X88894218Y-97565848D01*
X88894500Y-97574213D01*
X88894500Y-98099996D01*
X88894500Y-99899996D01*
X88894500Y-101999996D01*
X88894500Y-103699998D01*
X88894500Y-109876000D01*
X88894501Y-109876009D01*
X88906052Y-109983450D01*
X88906054Y-109983462D01*
X88917260Y-110034972D01*
X88951383Y-110137497D01*
X88951386Y-110137503D01*
X89029171Y-110258537D01*
X89029179Y-110258548D01*
X89074923Y-110311340D01*
X89074926Y-110311343D01*
X89074930Y-110311347D01*
X89183664Y-110405567D01*
X89183667Y-110405568D01*
X89183668Y-110405569D01*
X89300899Y-110459108D01*
X89314541Y-110465338D01*
X89381580Y-110485023D01*
X89381584Y-110485024D01*
X89524000Y-110505500D01*
X89524003Y-110505500D01*
X91721690Y-110505500D01*
X91721697Y-110505500D01*
X91731772Y-110505400D01*
X91736688Y-110505302D01*
X91746653Y-110505005D01*
X91888145Y-110478898D01*
X91888149Y-110478896D01*
X91888152Y-110478896D01*
X91946830Y-110459108D01*
X91947636Y-110458892D01*
X91954352Y-110456570D01*
X91954357Y-110456570D01*
X92082762Y-110391657D01*
X92192093Y-110315102D01*
X92210810Y-110304295D01*
X92226252Y-110297094D01*
X92254617Y-110283866D01*
X92323694Y-110273374D01*
X92339110Y-110276471D01*
X92373308Y-110285635D01*
X92535230Y-110299801D01*
X92599998Y-110305468D01*
X92600000Y-110305468D01*
X92600002Y-110305468D01*
X92656673Y-110300509D01*
X92826692Y-110285635D01*
X92860881Y-110276474D01*
X92930730Y-110278137D01*
X92945379Y-110283867D01*
X92975764Y-110298036D01*
X92989185Y-110304294D01*
X93007903Y-110315101D01*
X93117241Y-110391660D01*
X93125538Y-110397346D01*
X93129617Y-110400083D01*
X93129631Y-110400092D01*
X93137967Y-110405567D01*
X93268844Y-110465338D01*
X93335883Y-110485023D01*
X93335887Y-110485024D01*
X93478303Y-110505500D01*
X93478306Y-110505500D01*
X104276000Y-110505500D01*
X104343039Y-110525185D01*
X104388794Y-110577989D01*
X104400000Y-110629500D01*
X104400000Y-113200000D01*
X104413181Y-113213181D01*
X104446666Y-113274504D01*
X104449500Y-113300862D01*
X104449500Y-121565677D01*
X104432887Y-121627677D01*
X104372821Y-121731714D01*
X104346418Y-121812975D01*
X104314326Y-121911744D01*
X104294540Y-122100000D01*
X104314326Y-122288256D01*
X104314327Y-122288259D01*
X104372818Y-122468277D01*
X104372821Y-122468284D01*
X104467467Y-122632216D01*
X104594129Y-122772888D01*
X104747265Y-122884148D01*
X104747270Y-122884151D01*
X104920192Y-122961142D01*
X104920197Y-122961144D01*
X105105354Y-123000500D01*
X105105355Y-123000500D01*
X105294644Y-123000500D01*
X105294646Y-123000500D01*
X105479803Y-122961144D01*
X105652730Y-122884151D01*
X105805871Y-122772888D01*
X105932533Y-122632216D01*
X106027179Y-122468284D01*
X106085674Y-122288256D01*
X106105460Y-122100000D01*
X106085674Y-121911744D01*
X106027179Y-121731716D01*
X106008301Y-121699018D01*
X105967113Y-121627677D01*
X105950500Y-121565677D01*
X105950500Y-119923654D01*
X105970185Y-119856615D01*
X106022989Y-119810860D01*
X106075335Y-119803333D01*
X106075335Y-119800000D01*
X106500000Y-119800000D01*
X106800000Y-119500000D01*
X106800000Y-119100000D01*
X106500000Y-118800000D01*
X106477212Y-118790561D01*
X106478799Y-118786727D01*
X106456961Y-118780315D01*
X106411206Y-118727511D01*
X106400000Y-118676000D01*
X106400000Y-115499362D01*
X106419685Y-115432323D01*
X106472489Y-115386568D01*
X106541647Y-115376624D01*
X106605203Y-115405649D01*
X106611681Y-115411681D01*
X108863681Y-117663681D01*
X108897166Y-117725004D01*
X108900000Y-117751362D01*
X108900000Y-128815500D01*
X108880315Y-128882539D01*
X108827511Y-128928294D01*
X108776000Y-128939500D01*
X77002425Y-128939500D01*
X76997557Y-128939404D01*
X76538859Y-128921382D01*
X76529152Y-128920618D01*
X76075695Y-128866947D01*
X76066079Y-128865424D01*
X75618230Y-128776341D01*
X75608762Y-128774068D01*
X75169291Y-128650124D01*
X75160031Y-128647116D01*
X74731621Y-128489067D01*
X74722626Y-128485341D01*
X74307938Y-128294168D01*
X74299277Y-128289755D01*
X73900854Y-128066627D01*
X73892573Y-128061552D01*
X73864830Y-128043015D01*
X73512899Y-127807862D01*
X73505022Y-127802139D01*
X73219623Y-127577149D01*
X73146423Y-127519442D01*
X73139023Y-127513122D01*
X73074849Y-127453800D01*
X72803709Y-127203161D01*
X72796838Y-127196290D01*
X72486872Y-126860970D01*
X72480554Y-126853573D01*
X72404394Y-126756965D01*
X72197857Y-126494974D01*
X72192137Y-126487100D01*
X72182898Y-126473273D01*
X71938442Y-126107417D01*
X71933376Y-126099152D01*
X71710239Y-125700713D01*
X71705831Y-125692061D01*
X71705429Y-125691190D01*
X71514658Y-125277373D01*
X71510932Y-125268378D01*
X71352883Y-124839968D01*
X71349875Y-124830708D01*
X71322840Y-124734848D01*
X71225930Y-124391233D01*
X71223658Y-124381769D01*
X71196558Y-124245530D01*
X71134574Y-123933914D01*
X71133052Y-123924304D01*
X71127335Y-123876000D01*
X71079379Y-123470828D01*
X71078618Y-123461158D01*
X71060596Y-123002443D01*
X71060548Y-122999996D01*
X72194661Y-122999996D01*
X72194661Y-123000003D01*
X72214005Y-123430737D01*
X72214005Y-123430745D01*
X72214006Y-123430747D01*
X72219438Y-123470847D01*
X72271885Y-123858027D01*
X72367830Y-124278391D01*
X72501073Y-124688472D01*
X72501076Y-124688480D01*
X72670533Y-125084947D01*
X72670537Y-125084955D01*
X72729063Y-125193713D01*
X72874863Y-125464655D01*
X72874867Y-125464661D01*
X72874867Y-125464662D01*
X73112394Y-125824501D01*
X73112404Y-125824514D01*
X73381225Y-126161607D01*
X73381235Y-126161618D01*
X73381236Y-126161619D01*
X73679210Y-126473274D01*
X74003920Y-126756965D01*
X74003930Y-126756972D01*
X74003931Y-126756973D01*
X74339524Y-127000796D01*
X74352753Y-127010407D01*
X74722900Y-127231560D01*
X74722903Y-127231561D01*
X74722904Y-127231562D01*
X74722906Y-127231563D01*
X75111372Y-127418639D01*
X75111386Y-127418645D01*
X75515055Y-127570144D01*
X75515059Y-127570145D01*
X75515069Y-127570149D01*
X75930711Y-127684859D01*
X76354964Y-127761850D01*
X76784409Y-127800500D01*
X76784416Y-127800500D01*
X77215584Y-127800500D01*
X77215591Y-127800500D01*
X77645036Y-127761850D01*
X78069289Y-127684859D01*
X78484931Y-127570149D01*
X78888619Y-127418643D01*
X79277100Y-127231560D01*
X79647247Y-127010407D01*
X79996080Y-126756965D01*
X80320790Y-126473274D01*
X80618764Y-126161619D01*
X80661982Y-126107426D01*
X80887595Y-125824514D01*
X80887601Y-125824507D01*
X81125137Y-125464655D01*
X81270937Y-125193713D01*
X101049500Y-125193713D01*
X101049500Y-125406286D01*
X101070653Y-125539845D01*
X101082754Y-125616243D01*
X101142050Y-125798737D01*
X101148444Y-125818414D01*
X101244951Y-126007820D01*
X101369890Y-126179786D01*
X101520213Y-126330109D01*
X101692179Y-126455048D01*
X101692181Y-126455049D01*
X101692184Y-126455051D01*
X101881588Y-126551557D01*
X102083757Y-126617246D01*
X102293713Y-126650500D01*
X102293714Y-126650500D01*
X103306286Y-126650500D01*
X103306287Y-126650500D01*
X103516243Y-126617246D01*
X103718412Y-126551557D01*
X103907816Y-126455051D01*
X103929789Y-126439086D01*
X104079786Y-126330109D01*
X104079788Y-126330106D01*
X104079792Y-126330104D01*
X104230104Y-126179792D01*
X104230106Y-126179788D01*
X104230109Y-126179786D01*
X104355048Y-126007820D01*
X104355047Y-126007820D01*
X104355051Y-126007816D01*
X104451557Y-125818412D01*
X104517246Y-125616243D01*
X104550500Y-125406287D01*
X104550500Y-125193713D01*
X104517246Y-124983757D01*
X104451557Y-124781588D01*
X104355051Y-124592184D01*
X104355049Y-124592181D01*
X104355048Y-124592179D01*
X104230109Y-124420213D01*
X104079786Y-124269890D01*
X103907820Y-124144951D01*
X103718414Y-124048444D01*
X103718413Y-124048443D01*
X103718412Y-124048443D01*
X103516243Y-123982754D01*
X103516241Y-123982753D01*
X103516240Y-123982753D01*
X103354957Y-123957208D01*
X103306287Y-123949500D01*
X102293713Y-123949500D01*
X102245042Y-123957208D01*
X102083760Y-123982753D01*
X101881585Y-124048444D01*
X101692179Y-124144951D01*
X101520213Y-124269890D01*
X101369890Y-124420213D01*
X101244951Y-124592179D01*
X101148444Y-124781585D01*
X101148443Y-124781587D01*
X101148443Y-124781588D01*
X101130956Y-124835406D01*
X101082753Y-124983760D01*
X101049500Y-125193713D01*
X81270937Y-125193713D01*
X81329461Y-125084958D01*
X81498926Y-124688475D01*
X81632168Y-124278397D01*
X81728115Y-123858026D01*
X81785994Y-123430747D01*
X81805339Y-123000000D01*
X81785994Y-122569253D01*
X81728115Y-122141974D01*
X81632168Y-121721603D01*
X81498926Y-121311525D01*
X81395276Y-121069024D01*
X81329466Y-120915052D01*
X81329462Y-120915044D01*
X81321894Y-120900981D01*
X81125137Y-120535345D01*
X81125132Y-120535337D01*
X80887605Y-120175498D01*
X80887595Y-120175485D01*
X80618774Y-119838392D01*
X80618762Y-119838379D01*
X80585254Y-119803333D01*
X80320790Y-119526726D01*
X79996080Y-119243035D01*
X79996068Y-119243026D01*
X79647256Y-118989599D01*
X79647251Y-118989596D01*
X79647247Y-118989593D01*
X79277100Y-118768440D01*
X79277095Y-118768437D01*
X79277093Y-118768436D01*
X78888627Y-118581360D01*
X78888613Y-118581354D01*
X78484944Y-118429855D01*
X78484919Y-118429847D01*
X78069295Y-118315142D01*
X77645043Y-118238151D01*
X77645040Y-118238150D01*
X77645036Y-118238150D01*
X77215591Y-118199500D01*
X76784409Y-118199500D01*
X76354964Y-118238150D01*
X76354960Y-118238150D01*
X76354956Y-118238151D01*
X75930704Y-118315142D01*
X75515080Y-118429847D01*
X75515055Y-118429855D01*
X75111386Y-118581354D01*
X75111372Y-118581360D01*
X74722906Y-118768436D01*
X74722904Y-118768437D01*
X74352743Y-118989599D01*
X74003931Y-119243026D01*
X74003914Y-119243039D01*
X73679210Y-119526726D01*
X73679205Y-119526730D01*
X73381237Y-119838379D01*
X73381225Y-119838392D01*
X73112404Y-120175485D01*
X73112394Y-120175498D01*
X72874867Y-120535337D01*
X72874867Y-120535338D01*
X72874864Y-120535343D01*
X72874863Y-120535345D01*
X72864462Y-120554673D01*
X72670537Y-120915044D01*
X72670533Y-120915052D01*
X72501076Y-121311519D01*
X72501073Y-121311527D01*
X72367830Y-121721608D01*
X72271885Y-122141972D01*
X72214006Y-122569253D01*
X72214005Y-122569262D01*
X72194661Y-122999996D01*
X71060548Y-122999996D01*
X71060500Y-122997575D01*
X71060500Y-104729500D01*
X71080185Y-104662461D01*
X71132989Y-104616706D01*
X71184500Y-104605500D01*
X81248908Y-104605500D01*
X81248920Y-104605500D01*
X81301976Y-104602708D01*
X81327862Y-104599976D01*
X81380334Y-104591630D01*
X81380340Y-104591627D01*
X81380347Y-104591626D01*
X81451673Y-104565338D01*
X81515338Y-104541874D01*
X81576791Y-104508628D01*
X81692308Y-104422853D01*
X88683162Y-97486190D01*
X88744614Y-97452945D01*
X88814285Y-97458201D01*
G37*
%TD.AperFunction*%
%TA.AperFunction,Conductor*%
G36*
X188882539Y-77019685D02*
G01*
X188928294Y-77072489D01*
X188939500Y-77124000D01*
X188939500Y-122997575D01*
X188939404Y-123002443D01*
X188921382Y-123461140D01*
X188920618Y-123470847D01*
X188866947Y-123924304D01*
X188865424Y-123933920D01*
X188776341Y-124381769D01*
X188774068Y-124391237D01*
X188650124Y-124830708D01*
X188647116Y-124839968D01*
X188489067Y-125268378D01*
X188485341Y-125277373D01*
X188294168Y-125692061D01*
X188289749Y-125700732D01*
X188066633Y-126099133D01*
X188061552Y-126107426D01*
X187807862Y-126487100D01*
X187802139Y-126494977D01*
X187519445Y-126853573D01*
X187513122Y-126860976D01*
X187203168Y-127196283D01*
X187196283Y-127203168D01*
X186860976Y-127513122D01*
X186853573Y-127519445D01*
X186494977Y-127802139D01*
X186487100Y-127807862D01*
X186107426Y-128061552D01*
X186099133Y-128066633D01*
X185714014Y-128282312D01*
X185700736Y-128289748D01*
X185692061Y-128294168D01*
X185277373Y-128485341D01*
X185268378Y-128489067D01*
X184839968Y-128647116D01*
X184830708Y-128650124D01*
X184391237Y-128774068D01*
X184381769Y-128776341D01*
X183933920Y-128865424D01*
X183924304Y-128866947D01*
X183470847Y-128920618D01*
X183461140Y-128921382D01*
X183002443Y-128939404D01*
X182997575Y-128939500D01*
X175629500Y-128939500D01*
X175562461Y-128919815D01*
X175516706Y-128867011D01*
X175505500Y-128815500D01*
X175505500Y-122999996D01*
X178194661Y-122999996D01*
X178194661Y-123000003D01*
X178214005Y-123430737D01*
X178214005Y-123430745D01*
X178214006Y-123430747D01*
X178219438Y-123470847D01*
X178271885Y-123858027D01*
X178367830Y-124278391D01*
X178501073Y-124688472D01*
X178501076Y-124688480D01*
X178670533Y-125084947D01*
X178670537Y-125084955D01*
X178729063Y-125193713D01*
X178874863Y-125464655D01*
X178874867Y-125464661D01*
X178874867Y-125464662D01*
X179112394Y-125824501D01*
X179112404Y-125824514D01*
X179381225Y-126161607D01*
X179381235Y-126161618D01*
X179381236Y-126161619D01*
X179679210Y-126473274D01*
X180003920Y-126756965D01*
X180003930Y-126756972D01*
X180003931Y-126756973D01*
X180339524Y-127000796D01*
X180352753Y-127010407D01*
X180722900Y-127231560D01*
X180722903Y-127231561D01*
X180722904Y-127231562D01*
X180722906Y-127231563D01*
X181111372Y-127418639D01*
X181111386Y-127418645D01*
X181515055Y-127570144D01*
X181515059Y-127570145D01*
X181515069Y-127570149D01*
X181930711Y-127684859D01*
X182354964Y-127761850D01*
X182784409Y-127800500D01*
X182784416Y-127800500D01*
X183215584Y-127800500D01*
X183215591Y-127800500D01*
X183645036Y-127761850D01*
X184069289Y-127684859D01*
X184484931Y-127570149D01*
X184888619Y-127418643D01*
X185277100Y-127231560D01*
X185647247Y-127010407D01*
X185996080Y-126756965D01*
X186320790Y-126473274D01*
X186618764Y-126161619D01*
X186661982Y-126107426D01*
X186887595Y-125824514D01*
X186887601Y-125824507D01*
X187125137Y-125464655D01*
X187329461Y-125084958D01*
X187498926Y-124688475D01*
X187632168Y-124278397D01*
X187728115Y-123858026D01*
X187785994Y-123430747D01*
X187805339Y-123000000D01*
X187785994Y-122569253D01*
X187728115Y-122141974D01*
X187632168Y-121721603D01*
X187498926Y-121311525D01*
X187395276Y-121069024D01*
X187329466Y-120915052D01*
X187329462Y-120915044D01*
X187321894Y-120900981D01*
X187125137Y-120535345D01*
X187125132Y-120535337D01*
X186887605Y-120175498D01*
X186887595Y-120175485D01*
X186618774Y-119838392D01*
X186618762Y-119838379D01*
X186585254Y-119803333D01*
X186320790Y-119526726D01*
X185996080Y-119243035D01*
X185996068Y-119243026D01*
X185647256Y-118989599D01*
X185647251Y-118989596D01*
X185647247Y-118989593D01*
X185277100Y-118768440D01*
X185277095Y-118768437D01*
X185277093Y-118768436D01*
X184888627Y-118581360D01*
X184888613Y-118581354D01*
X184484944Y-118429855D01*
X184484919Y-118429847D01*
X184069295Y-118315142D01*
X183645043Y-118238151D01*
X183645040Y-118238150D01*
X183645036Y-118238150D01*
X183215591Y-118199500D01*
X182784409Y-118199500D01*
X182354964Y-118238150D01*
X182354960Y-118238150D01*
X182354956Y-118238151D01*
X181930704Y-118315142D01*
X181515080Y-118429847D01*
X181515055Y-118429855D01*
X181111386Y-118581354D01*
X181111372Y-118581360D01*
X180722906Y-118768436D01*
X180722904Y-118768437D01*
X180352743Y-118989599D01*
X180003931Y-119243026D01*
X180003914Y-119243039D01*
X179679210Y-119526726D01*
X179679205Y-119526730D01*
X179381237Y-119838379D01*
X179381225Y-119838392D01*
X179112404Y-120175485D01*
X179112394Y-120175498D01*
X178874867Y-120535337D01*
X178874867Y-120535338D01*
X178874864Y-120535343D01*
X178874863Y-120535345D01*
X178864462Y-120554673D01*
X178670537Y-120915044D01*
X178670533Y-120915052D01*
X178501076Y-121311519D01*
X178501073Y-121311527D01*
X178367830Y-121721608D01*
X178271885Y-122141972D01*
X178214006Y-122569253D01*
X178214005Y-122569262D01*
X178194661Y-122999996D01*
X175505500Y-122999996D01*
X175505500Y-102124010D01*
X175505500Y-102124000D01*
X175493947Y-102016544D01*
X175482741Y-101965033D01*
X175472393Y-101933942D01*
X175448616Y-101862502D01*
X175448613Y-101862496D01*
X175373272Y-101745265D01*
X175370825Y-101741457D01*
X175369533Y-101739966D01*
X175325076Y-101688659D01*
X175325072Y-101688656D01*
X175325070Y-101688653D01*
X175216336Y-101594433D01*
X175216333Y-101594431D01*
X175216331Y-101594430D01*
X175085465Y-101534664D01*
X175085460Y-101534662D01*
X175085459Y-101534662D01*
X175018420Y-101514977D01*
X175018422Y-101514977D01*
X175018417Y-101514976D01*
X174970944Y-101508150D01*
X174876000Y-101494500D01*
X174875998Y-101494500D01*
X170629500Y-101494500D01*
X170562461Y-101474815D01*
X170516706Y-101422011D01*
X170505500Y-101370500D01*
X170505500Y-93124010D01*
X170505500Y-93124000D01*
X170496765Y-93042754D01*
X170509170Y-92973996D01*
X170556780Y-92922858D01*
X170620054Y-92905500D01*
X178170500Y-92905500D01*
X178237539Y-92925185D01*
X178283294Y-92977989D01*
X178294500Y-93029500D01*
X178294500Y-99876000D01*
X178294501Y-99876009D01*
X178306052Y-99983450D01*
X178306054Y-99983462D01*
X178317260Y-100034972D01*
X178351383Y-100137497D01*
X178351386Y-100137503D01*
X178429171Y-100258537D01*
X178429179Y-100258548D01*
X178474923Y-100311340D01*
X178474926Y-100311343D01*
X178474930Y-100311347D01*
X178583664Y-100405567D01*
X178583667Y-100405568D01*
X178583668Y-100405569D01*
X178677925Y-100448616D01*
X178714541Y-100465338D01*
X178781580Y-100485023D01*
X178781584Y-100485024D01*
X178924000Y-100505500D01*
X178924003Y-100505500D01*
X185975990Y-100505500D01*
X185976000Y-100505500D01*
X186083456Y-100493947D01*
X186134967Y-100482741D01*
X186169197Y-100471347D01*
X186237497Y-100448616D01*
X186237501Y-100448613D01*
X186237504Y-100448613D01*
X186358543Y-100370825D01*
X186411347Y-100325070D01*
X186505567Y-100216336D01*
X186565338Y-100085459D01*
X186585023Y-100018420D01*
X186585024Y-100018416D01*
X186605500Y-99876000D01*
X186605500Y-87324000D01*
X186593947Y-87216544D01*
X186582741Y-87165033D01*
X186582637Y-87164722D01*
X186548616Y-87062502D01*
X186548613Y-87062496D01*
X186470828Y-86941462D01*
X186470825Y-86941457D01*
X186470820Y-86941451D01*
X186425076Y-86888659D01*
X186425072Y-86888656D01*
X186425070Y-86888653D01*
X186316336Y-86794433D01*
X186316333Y-86794431D01*
X186316331Y-86794430D01*
X186185465Y-86734664D01*
X186185460Y-86734662D01*
X186185459Y-86734662D01*
X186118420Y-86714977D01*
X186118422Y-86714977D01*
X186118417Y-86714976D01*
X186070944Y-86708150D01*
X185976000Y-86694500D01*
X185975998Y-86694500D01*
X172529500Y-86694500D01*
X172462461Y-86674815D01*
X172416706Y-86622011D01*
X172405500Y-86570500D01*
X172405500Y-77924010D01*
X172405500Y-77924000D01*
X172393947Y-77816544D01*
X172382741Y-77765033D01*
X172382637Y-77764722D01*
X172348616Y-77662502D01*
X172348613Y-77662496D01*
X172270828Y-77541462D01*
X172270825Y-77541457D01*
X172270820Y-77541451D01*
X172225076Y-77488659D01*
X172225072Y-77488656D01*
X172225070Y-77488653D01*
X172116336Y-77394433D01*
X172116333Y-77394431D01*
X172116331Y-77394430D01*
X171985465Y-77334664D01*
X171985460Y-77334662D01*
X171985459Y-77334662D01*
X171918420Y-77314977D01*
X171918422Y-77314977D01*
X171918417Y-77314976D01*
X171856347Y-77306052D01*
X171776000Y-77294500D01*
X168424000Y-77294500D01*
X168423991Y-77294500D01*
X168423990Y-77294501D01*
X168316549Y-77306052D01*
X168316537Y-77306054D01*
X168265027Y-77317260D01*
X168162502Y-77351383D01*
X168162498Y-77351385D01*
X168070726Y-77410364D01*
X168003687Y-77430048D01*
X167936647Y-77410363D01*
X167922483Y-77399759D01*
X167916339Y-77394435D01*
X167916331Y-77394430D01*
X167785465Y-77334664D01*
X167785460Y-77334662D01*
X167785459Y-77334662D01*
X167718420Y-77314977D01*
X167718422Y-77314977D01*
X167718417Y-77314976D01*
X167656347Y-77306052D01*
X167576000Y-77294500D01*
X152424000Y-77294500D01*
X152423991Y-77294500D01*
X152423990Y-77294501D01*
X152316549Y-77306052D01*
X152316537Y-77306054D01*
X152265027Y-77317260D01*
X152162502Y-77351383D01*
X152162498Y-77351385D01*
X152070726Y-77410364D01*
X152003687Y-77430048D01*
X151936647Y-77410363D01*
X151922483Y-77399759D01*
X151916339Y-77394435D01*
X151916331Y-77394430D01*
X151785465Y-77334664D01*
X151785460Y-77334662D01*
X151785459Y-77334662D01*
X151718420Y-77314977D01*
X151718422Y-77314977D01*
X151718417Y-77314976D01*
X151656347Y-77306052D01*
X151576000Y-77294500D01*
X142124000Y-77294500D01*
X142123991Y-77294500D01*
X142123990Y-77294501D01*
X142016549Y-77306052D01*
X142016537Y-77306054D01*
X141965027Y-77317260D01*
X141862502Y-77351383D01*
X141862496Y-77351386D01*
X141741462Y-77429171D01*
X141741451Y-77429179D01*
X141688659Y-77474923D01*
X141594433Y-77583664D01*
X141594430Y-77583668D01*
X141534664Y-77714534D01*
X141514976Y-77781582D01*
X141509949Y-77816549D01*
X141494502Y-77923990D01*
X141494500Y-77924001D01*
X141494500Y-96076000D01*
X141474815Y-96143039D01*
X141422011Y-96188794D01*
X141370500Y-96200000D01*
X130051362Y-96200000D01*
X129984323Y-96180315D01*
X129963681Y-96163681D01*
X123300000Y-89500000D01*
X107229500Y-89500000D01*
X107162461Y-89480315D01*
X107116706Y-89427511D01*
X107105500Y-89376000D01*
X107105500Y-88129500D01*
X107125185Y-88062461D01*
X107177989Y-88016706D01*
X107229500Y-88005500D01*
X125875990Y-88005500D01*
X125876000Y-88005500D01*
X125983456Y-87993947D01*
X126034967Y-87982741D01*
X126079554Y-87967901D01*
X126137497Y-87948616D01*
X126137501Y-87948613D01*
X126137504Y-87948613D01*
X126258543Y-87870825D01*
X126311347Y-87825070D01*
X126405567Y-87716336D01*
X126465338Y-87585459D01*
X126485023Y-87518420D01*
X126485024Y-87518416D01*
X126505500Y-87376000D01*
X126505500Y-77124000D01*
X126525185Y-77056961D01*
X126577989Y-77011206D01*
X126629500Y-77000000D01*
X188815500Y-77000000D01*
X188882539Y-77019685D01*
G37*
%TD.AperFunction*%
%TA.AperFunction,Conductor*%
G36*
X168827770Y-120513139D02*
G01*
X168849046Y-120516890D01*
X168962463Y-120547280D01*
X168982772Y-120554673D01*
X169089185Y-120604294D01*
X169107898Y-120615097D01*
X169204089Y-120682450D01*
X169220647Y-120696344D01*
X169303650Y-120779347D01*
X169317543Y-120795904D01*
X169384899Y-120892097D01*
X169395704Y-120910812D01*
X169432875Y-120990525D01*
X169445323Y-121017220D01*
X169452716Y-121037531D01*
X169483105Y-121150947D01*
X169486858Y-121172232D01*
X169497091Y-121289191D01*
X169497091Y-121310807D01*
X169486858Y-121427766D01*
X169483105Y-121449051D01*
X169452716Y-121562467D01*
X169445323Y-121582779D01*
X169395705Y-121689185D01*
X169384898Y-121707903D01*
X169317550Y-121804086D01*
X169303656Y-121820644D01*
X169220644Y-121903656D01*
X169204086Y-121917550D01*
X169107903Y-121984898D01*
X169089184Y-121995705D01*
X168982779Y-122045322D01*
X168962468Y-122052715D01*
X168849054Y-122083104D01*
X168827768Y-122086857D01*
X168712612Y-122096932D01*
X168712565Y-122096936D01*
X168710751Y-122097094D01*
X168689191Y-122097091D01*
X168682702Y-122096523D01*
X168682653Y-122096518D01*
X168572229Y-122086857D01*
X168550944Y-122083104D01*
X168437530Y-122052715D01*
X168417224Y-122045325D01*
X168310804Y-121995700D01*
X168292097Y-121984899D01*
X168195904Y-121917543D01*
X168179347Y-121903650D01*
X168096344Y-121820647D01*
X168082450Y-121804089D01*
X168082448Y-121804086D01*
X168015097Y-121707898D01*
X168004294Y-121689185D01*
X167954673Y-121582772D01*
X167947280Y-121562462D01*
X167916890Y-121449046D01*
X167913139Y-121427766D01*
X167902907Y-121310800D01*
X167902907Y-121289191D01*
X167913139Y-121172231D01*
X167916890Y-121150952D01*
X167947281Y-121037530D01*
X167954673Y-121017225D01*
X167970922Y-120982379D01*
X168004297Y-120910805D01*
X168015094Y-120892103D01*
X168082454Y-120795902D01*
X168096338Y-120779356D01*
X168179356Y-120696338D01*
X168195902Y-120682454D01*
X168292103Y-120615094D01*
X168310805Y-120604297D01*
X168417225Y-120554673D01*
X168437530Y-120547281D01*
X168550952Y-120516890D01*
X168572225Y-120513139D01*
X168689197Y-120502907D01*
X168710801Y-120502907D01*
X168827770Y-120513139D01*
G37*
%TD.AperFunction*%
%TA.AperFunction,Conductor*%
G36*
X158827770Y-114713139D02*
G01*
X158849046Y-114716890D01*
X158962463Y-114747280D01*
X158982772Y-114754673D01*
X159089185Y-114804294D01*
X159107898Y-114815097D01*
X159204089Y-114882450D01*
X159220647Y-114896344D01*
X159303650Y-114979347D01*
X159317543Y-114995904D01*
X159384899Y-115092097D01*
X159395707Y-115110817D01*
X159445323Y-115217220D01*
X159452716Y-115237531D01*
X159483105Y-115350947D01*
X159486858Y-115372232D01*
X159497091Y-115489191D01*
X159497091Y-115510807D01*
X159486858Y-115627766D01*
X159483105Y-115649051D01*
X159452716Y-115762467D01*
X159445323Y-115782779D01*
X159395705Y-115889185D01*
X159384898Y-115907903D01*
X159317550Y-116004086D01*
X159303656Y-116020644D01*
X159220644Y-116103656D01*
X159204086Y-116117550D01*
X159107903Y-116184898D01*
X159089184Y-116195705D01*
X158982779Y-116245322D01*
X158962468Y-116252715D01*
X158849054Y-116283104D01*
X158827768Y-116286857D01*
X158712612Y-116296932D01*
X158712565Y-116296936D01*
X158710751Y-116297094D01*
X158689191Y-116297091D01*
X158682702Y-116296523D01*
X158682653Y-116296518D01*
X158572229Y-116286857D01*
X158550944Y-116283104D01*
X158437530Y-116252715D01*
X158417224Y-116245325D01*
X158310804Y-116195700D01*
X158292097Y-116184899D01*
X158195904Y-116117543D01*
X158179347Y-116103650D01*
X158096344Y-116020647D01*
X158082450Y-116004089D01*
X158082448Y-116004086D01*
X158015097Y-115907898D01*
X158004294Y-115889185D01*
X157954673Y-115782772D01*
X157947280Y-115762462D01*
X157916890Y-115649046D01*
X157913139Y-115627766D01*
X157902907Y-115510800D01*
X157902907Y-115489191D01*
X157909688Y-115411681D01*
X157913139Y-115372225D01*
X157916890Y-115350952D01*
X157947281Y-115237530D01*
X157954673Y-115217225D01*
X158004292Y-115110817D01*
X158004297Y-115110805D01*
X158015094Y-115092103D01*
X158082454Y-114995902D01*
X158096338Y-114979356D01*
X158179356Y-114896338D01*
X158195902Y-114882454D01*
X158292103Y-114815094D01*
X158310805Y-114804297D01*
X158417225Y-114754673D01*
X158437530Y-114747281D01*
X158550952Y-114716890D01*
X158572225Y-114713139D01*
X158689197Y-114702907D01*
X158710801Y-114702907D01*
X158827770Y-114713139D01*
G37*
%TD.AperFunction*%
%TA.AperFunction,Conductor*%
G36*
X168827770Y-108713139D02*
G01*
X168849046Y-108716890D01*
X168962463Y-108747280D01*
X168982772Y-108754673D01*
X169089185Y-108804294D01*
X169107898Y-108815097D01*
X169204089Y-108882450D01*
X169220647Y-108896344D01*
X169303650Y-108979347D01*
X169317543Y-108995904D01*
X169384899Y-109092097D01*
X169395707Y-109110817D01*
X169445323Y-109217220D01*
X169452716Y-109237531D01*
X169483105Y-109350947D01*
X169486858Y-109372232D01*
X169497091Y-109489191D01*
X169497091Y-109510807D01*
X169486858Y-109627766D01*
X169483105Y-109649051D01*
X169452716Y-109762467D01*
X169445323Y-109782779D01*
X169395705Y-109889185D01*
X169384898Y-109907903D01*
X169317550Y-110004086D01*
X169303656Y-110020644D01*
X169220644Y-110103656D01*
X169204086Y-110117550D01*
X169107903Y-110184898D01*
X169089184Y-110195705D01*
X168982779Y-110245322D01*
X168962468Y-110252715D01*
X168849054Y-110283104D01*
X168827768Y-110286857D01*
X168712612Y-110296932D01*
X168712565Y-110296936D01*
X168710751Y-110297094D01*
X168689191Y-110297091D01*
X168682702Y-110296523D01*
X168682653Y-110296518D01*
X168572229Y-110286857D01*
X168550944Y-110283104D01*
X168437530Y-110252715D01*
X168417224Y-110245325D01*
X168310804Y-110195700D01*
X168292097Y-110184899D01*
X168195904Y-110117543D01*
X168179347Y-110103650D01*
X168096344Y-110020647D01*
X168082450Y-110004089D01*
X168067999Y-109983450D01*
X168015097Y-109907898D01*
X168004294Y-109889185D01*
X167954673Y-109782772D01*
X167947280Y-109762462D01*
X167916890Y-109649046D01*
X167913139Y-109627766D01*
X167902907Y-109510800D01*
X167902907Y-109489191D01*
X167913139Y-109372231D01*
X167916890Y-109350952D01*
X167947281Y-109237530D01*
X167954673Y-109217225D01*
X168004292Y-109110817D01*
X168004297Y-109110805D01*
X168015094Y-109092103D01*
X168082454Y-108995902D01*
X168096338Y-108979356D01*
X168179356Y-108896338D01*
X168195902Y-108882454D01*
X168292103Y-108815094D01*
X168310805Y-108804297D01*
X168417225Y-108754673D01*
X168437530Y-108747281D01*
X168550952Y-108716890D01*
X168572225Y-108713139D01*
X168689197Y-108702907D01*
X168710801Y-108702907D01*
X168827770Y-108713139D01*
G37*
%TD.AperFunction*%
%TA.AperFunction,Conductor*%
G36*
X98127770Y-102913139D02*
G01*
X98149046Y-102916890D01*
X98262463Y-102947280D01*
X98282772Y-102954673D01*
X98352145Y-102987022D01*
X98371192Y-102995904D01*
X98389185Y-103004294D01*
X98407898Y-103015097D01*
X98504089Y-103082450D01*
X98520647Y-103096344D01*
X98603650Y-103179347D01*
X98617543Y-103195904D01*
X98684899Y-103292097D01*
X98695704Y-103310812D01*
X98724345Y-103372232D01*
X98745323Y-103417220D01*
X98752716Y-103437531D01*
X98783105Y-103550947D01*
X98786858Y-103572232D01*
X98797091Y-103689191D01*
X98797091Y-103710807D01*
X98786858Y-103827766D01*
X98783105Y-103849051D01*
X98752716Y-103962467D01*
X98745323Y-103982779D01*
X98695705Y-104089185D01*
X98684898Y-104107903D01*
X98617550Y-104204086D01*
X98603656Y-104220644D01*
X98520644Y-104303656D01*
X98504086Y-104317550D01*
X98407907Y-104384895D01*
X98389188Y-104395702D01*
X98345375Y-104416132D01*
X98276297Y-104426624D01*
X98260878Y-104423525D01*
X98226697Y-104414366D01*
X98226693Y-104414365D01*
X98226692Y-104414365D01*
X98226691Y-104414364D01*
X98226686Y-104414364D01*
X98000002Y-104394532D01*
X97999999Y-104394532D01*
X97773313Y-104414364D01*
X97773301Y-104414366D01*
X97739114Y-104423526D01*
X97669264Y-104421861D01*
X97654621Y-104416132D01*
X97610817Y-104395706D01*
X97592098Y-104384899D01*
X97495905Y-104317544D01*
X97479347Y-104303650D01*
X97396344Y-104220647D01*
X97382450Y-104204089D01*
X97369013Y-104184899D01*
X97315097Y-104107898D01*
X97304294Y-104089185D01*
X97254673Y-103982772D01*
X97247280Y-103962462D01*
X97216890Y-103849046D01*
X97213139Y-103827766D01*
X97202907Y-103710800D01*
X97202907Y-103689191D01*
X97213139Y-103572225D01*
X97216890Y-103550952D01*
X97247281Y-103437530D01*
X97254673Y-103417225D01*
X97266161Y-103392588D01*
X97304297Y-103310805D01*
X97315094Y-103292103D01*
X97382454Y-103195902D01*
X97396338Y-103179356D01*
X97479356Y-103096338D01*
X97495902Y-103082454D01*
X97592103Y-103015094D01*
X97610805Y-103004297D01*
X97717225Y-102954673D01*
X97737530Y-102947281D01*
X97850952Y-102916890D01*
X97872225Y-102913139D01*
X97989197Y-102902907D01*
X98010801Y-102902907D01*
X98127770Y-102913139D01*
G37*
%TD.AperFunction*%
%TA.AperFunction,Conductor*%
G36*
X158827770Y-102713139D02*
G01*
X158849046Y-102716890D01*
X158962463Y-102747280D01*
X158982772Y-102754673D01*
X159089185Y-102804294D01*
X159107898Y-102815097D01*
X159204089Y-102882450D01*
X159220647Y-102896344D01*
X159303650Y-102979347D01*
X159317543Y-102995904D01*
X159384899Y-103092097D01*
X159395704Y-103110812D01*
X159431242Y-103187023D01*
X159445323Y-103217220D01*
X159452716Y-103237531D01*
X159483105Y-103350947D01*
X159486858Y-103372232D01*
X159497091Y-103489191D01*
X159497091Y-103510807D01*
X159486858Y-103627766D01*
X159483105Y-103649051D01*
X159452716Y-103762467D01*
X159445323Y-103782779D01*
X159395705Y-103889185D01*
X159384898Y-103907903D01*
X159317550Y-104004086D01*
X159303656Y-104020644D01*
X159220644Y-104103656D01*
X159204086Y-104117550D01*
X159107903Y-104184898D01*
X159089184Y-104195705D01*
X158982779Y-104245322D01*
X158962468Y-104252715D01*
X158849054Y-104283104D01*
X158827768Y-104286857D01*
X158712612Y-104296932D01*
X158712565Y-104296936D01*
X158710751Y-104297094D01*
X158689191Y-104297091D01*
X158682702Y-104296523D01*
X158682653Y-104296518D01*
X158572229Y-104286857D01*
X158550944Y-104283104D01*
X158437530Y-104252715D01*
X158417224Y-104245325D01*
X158310804Y-104195700D01*
X158292097Y-104184899D01*
X158195904Y-104117543D01*
X158179347Y-104103650D01*
X158096344Y-104020647D01*
X158082450Y-104004089D01*
X158053303Y-103962462D01*
X158015097Y-103907898D01*
X158004294Y-103889185D01*
X157954673Y-103782772D01*
X157947280Y-103762462D01*
X157933439Y-103710807D01*
X157916890Y-103649046D01*
X157913139Y-103627766D01*
X157908281Y-103572231D01*
X157902907Y-103510800D01*
X157902907Y-103489191D01*
X157907426Y-103437535D01*
X157913139Y-103372225D01*
X157916890Y-103350952D01*
X157947281Y-103237530D01*
X157954673Y-103217225D01*
X158004292Y-103110817D01*
X158004297Y-103110805D01*
X158015094Y-103092103D01*
X158082454Y-102995902D01*
X158096338Y-102979356D01*
X158179356Y-102896338D01*
X158195902Y-102882454D01*
X158292103Y-102815094D01*
X158310805Y-102804297D01*
X158417225Y-102754673D01*
X158437530Y-102747281D01*
X158550952Y-102716890D01*
X158572225Y-102713139D01*
X158689197Y-102702907D01*
X158710801Y-102702907D01*
X158827770Y-102713139D01*
G37*
%TD.AperFunction*%
%TA.AperFunction,Conductor*%
G36*
X91452173Y-101709010D02*
G01*
X91479239Y-101715188D01*
X91515617Y-101727917D01*
X91540641Y-101739969D01*
X91549063Y-101745262D01*
X91573263Y-101760467D01*
X91594975Y-101777781D01*
X91622217Y-101805023D01*
X91639529Y-101826731D01*
X91660034Y-101859364D01*
X91672080Y-101884378D01*
X91684810Y-101920755D01*
X91690988Y-101947823D01*
X91692927Y-101965033D01*
X91695302Y-101986113D01*
X91695301Y-102013877D01*
X91690986Y-102052174D01*
X91684808Y-102079244D01*
X91672081Y-102115617D01*
X91660032Y-102140636D01*
X91639529Y-102173266D01*
X91622217Y-102194975D01*
X91594975Y-102222217D01*
X91573266Y-102239529D01*
X91540636Y-102260032D01*
X91515618Y-102272081D01*
X91479243Y-102284809D01*
X91452172Y-102290987D01*
X91413882Y-102295301D01*
X91386116Y-102295301D01*
X91347826Y-102290987D01*
X91320755Y-102284809D01*
X91284380Y-102272081D01*
X91259362Y-102260032D01*
X91226732Y-102239529D01*
X91205023Y-102222217D01*
X91177782Y-102194976D01*
X91160469Y-102173267D01*
X91139963Y-102140632D01*
X91127919Y-102115623D01*
X91115188Y-102079240D01*
X91109012Y-102052175D01*
X91104697Y-102013875D01*
X91104697Y-101986111D01*
X91107072Y-101965033D01*
X91109010Y-101947825D01*
X91115186Y-101920761D01*
X91127919Y-101884373D01*
X91139966Y-101859361D01*
X91160469Y-101826731D01*
X91177777Y-101805026D01*
X91205026Y-101777777D01*
X91226731Y-101760469D01*
X91259361Y-101739966D01*
X91284373Y-101727919D01*
X91320761Y-101715186D01*
X91347822Y-101709010D01*
X91386118Y-101704696D01*
X91413880Y-101704696D01*
X91452173Y-101709010D01*
G37*
%TD.AperFunction*%
%TA.AperFunction,Conductor*%
G36*
X93852173Y-101709010D02*
G01*
X93879239Y-101715188D01*
X93915617Y-101727917D01*
X93940641Y-101739969D01*
X93949063Y-101745262D01*
X93973263Y-101760467D01*
X93994975Y-101777781D01*
X94022217Y-101805023D01*
X94039529Y-101826732D01*
X94060032Y-101859362D01*
X94072081Y-101884381D01*
X94084808Y-101920754D01*
X94090986Y-101947821D01*
X94095301Y-101986111D01*
X94095301Y-102013882D01*
X94090986Y-102052176D01*
X94084808Y-102079244D01*
X94072081Y-102115617D01*
X94060032Y-102140636D01*
X94039529Y-102173266D01*
X94022217Y-102194975D01*
X93994975Y-102222217D01*
X93973266Y-102239529D01*
X93940636Y-102260032D01*
X93915618Y-102272081D01*
X93879243Y-102284809D01*
X93852172Y-102290987D01*
X93813882Y-102295301D01*
X93786116Y-102295301D01*
X93747826Y-102290987D01*
X93720755Y-102284809D01*
X93684380Y-102272081D01*
X93659362Y-102260032D01*
X93626732Y-102239529D01*
X93605023Y-102222217D01*
X93577782Y-102194976D01*
X93560469Y-102173267D01*
X93539963Y-102140632D01*
X93527919Y-102115623D01*
X93515188Y-102079240D01*
X93509012Y-102052175D01*
X93504697Y-102013875D01*
X93504697Y-101986111D01*
X93507072Y-101965033D01*
X93509010Y-101947825D01*
X93515186Y-101920761D01*
X93527919Y-101884373D01*
X93539966Y-101859361D01*
X93560469Y-101826731D01*
X93577777Y-101805026D01*
X93605026Y-101777777D01*
X93626731Y-101760469D01*
X93659361Y-101739966D01*
X93684373Y-101727919D01*
X93720761Y-101715186D01*
X93747822Y-101709010D01*
X93786118Y-101704696D01*
X93813880Y-101704696D01*
X93852173Y-101709010D01*
G37*
%TD.AperFunction*%
%TA.AperFunction,Conductor*%
G36*
X91452173Y-99609010D02*
G01*
X91479237Y-99615187D01*
X91515620Y-99627918D01*
X91540636Y-99639966D01*
X91573266Y-99660469D01*
X91594975Y-99677781D01*
X91622217Y-99705023D01*
X91639529Y-99726731D01*
X91660034Y-99759364D01*
X91672080Y-99784378D01*
X91684810Y-99820755D01*
X91690988Y-99847823D01*
X91694162Y-99875997D01*
X91695302Y-99886113D01*
X91695301Y-99913877D01*
X91690986Y-99952174D01*
X91684808Y-99979244D01*
X91672081Y-100015617D01*
X91660032Y-100040636D01*
X91639529Y-100073266D01*
X91622217Y-100094975D01*
X91594975Y-100122217D01*
X91573266Y-100139529D01*
X91540636Y-100160032D01*
X91515618Y-100172081D01*
X91479243Y-100184809D01*
X91452172Y-100190987D01*
X91413882Y-100195301D01*
X91386116Y-100195301D01*
X91347826Y-100190987D01*
X91320755Y-100184809D01*
X91284380Y-100172081D01*
X91259362Y-100160032D01*
X91226732Y-100139529D01*
X91205023Y-100122217D01*
X91177781Y-100094975D01*
X91160469Y-100073266D01*
X91139966Y-100040636D01*
X91127918Y-100015619D01*
X91115190Y-99979245D01*
X91109011Y-99952174D01*
X91104696Y-99913870D01*
X91104697Y-99886111D01*
X91109010Y-99847825D01*
X91115186Y-99820761D01*
X91127919Y-99784373D01*
X91139966Y-99759361D01*
X91160469Y-99726731D01*
X91177777Y-99705026D01*
X91205026Y-99677777D01*
X91226731Y-99660469D01*
X91259361Y-99639966D01*
X91284373Y-99627919D01*
X91320761Y-99615186D01*
X91347822Y-99609010D01*
X91386118Y-99604696D01*
X91413880Y-99604696D01*
X91452173Y-99609010D01*
G37*
%TD.AperFunction*%
%TA.AperFunction,Conductor*%
G36*
X93852173Y-99609010D02*
G01*
X93879237Y-99615187D01*
X93915620Y-99627918D01*
X93940636Y-99639966D01*
X93973266Y-99660469D01*
X93994975Y-99677781D01*
X94022217Y-99705023D01*
X94039529Y-99726732D01*
X94060032Y-99759362D01*
X94072081Y-99784381D01*
X94084808Y-99820754D01*
X94090986Y-99847821D01*
X94095301Y-99886111D01*
X94095301Y-99913882D01*
X94090986Y-99952176D01*
X94084808Y-99979244D01*
X94072081Y-100015617D01*
X94060032Y-100040636D01*
X94039529Y-100073266D01*
X94022217Y-100094975D01*
X93994975Y-100122217D01*
X93973266Y-100139529D01*
X93940636Y-100160032D01*
X93915618Y-100172081D01*
X93879243Y-100184809D01*
X93852172Y-100190987D01*
X93813882Y-100195301D01*
X93786116Y-100195301D01*
X93747826Y-100190987D01*
X93720755Y-100184809D01*
X93684380Y-100172081D01*
X93659362Y-100160032D01*
X93626732Y-100139529D01*
X93605023Y-100122217D01*
X93577781Y-100094975D01*
X93560469Y-100073266D01*
X93539966Y-100040636D01*
X93527918Y-100015619D01*
X93515190Y-99979245D01*
X93509011Y-99952174D01*
X93504696Y-99913870D01*
X93504697Y-99886111D01*
X93509010Y-99847825D01*
X93515186Y-99820761D01*
X93527919Y-99784373D01*
X93539966Y-99759361D01*
X93560469Y-99726731D01*
X93577777Y-99705026D01*
X93605026Y-99677777D01*
X93626731Y-99660469D01*
X93659361Y-99639966D01*
X93684373Y-99627919D01*
X93720761Y-99615186D01*
X93747822Y-99609010D01*
X93786118Y-99604696D01*
X93813880Y-99604696D01*
X93852173Y-99609010D01*
G37*
%TD.AperFunction*%
%TA.AperFunction,Conductor*%
G36*
X98452173Y-97809010D02*
G01*
X98479237Y-97815187D01*
X98515620Y-97827918D01*
X98540636Y-97839966D01*
X98573266Y-97860469D01*
X98594975Y-97877781D01*
X98622217Y-97905023D01*
X98639529Y-97926732D01*
X98660032Y-97959362D01*
X98672081Y-97984381D01*
X98684808Y-98020754D01*
X98690986Y-98047821D01*
X98695301Y-98086111D01*
X98695301Y-98113882D01*
X98690986Y-98152176D01*
X98684808Y-98179244D01*
X98672081Y-98215617D01*
X98660032Y-98240636D01*
X98639529Y-98273266D01*
X98622217Y-98294975D01*
X98594975Y-98322217D01*
X98573266Y-98339529D01*
X98540636Y-98360032D01*
X98515618Y-98372081D01*
X98479243Y-98384809D01*
X98452172Y-98390987D01*
X98413882Y-98395301D01*
X98386116Y-98395301D01*
X98347826Y-98390987D01*
X98320754Y-98384808D01*
X98284380Y-98372080D01*
X98259364Y-98360033D01*
X98226733Y-98339530D01*
X98205023Y-98322217D01*
X98177781Y-98294975D01*
X98160469Y-98273266D01*
X98139966Y-98240636D01*
X98127918Y-98215619D01*
X98115190Y-98179245D01*
X98109011Y-98152175D01*
X98104696Y-98113870D01*
X98104697Y-98086111D01*
X98109010Y-98047829D01*
X98115186Y-98020761D01*
X98127919Y-97984373D01*
X98139966Y-97959361D01*
X98160469Y-97926731D01*
X98177777Y-97905026D01*
X98205026Y-97877777D01*
X98226731Y-97860469D01*
X98259361Y-97839966D01*
X98284373Y-97827919D01*
X98320761Y-97815186D01*
X98347822Y-97809010D01*
X98386118Y-97804696D01*
X98413880Y-97804696D01*
X98452173Y-97809010D01*
G37*
%TD.AperFunction*%
%TA.AperFunction,Conductor*%
G36*
X85552173Y-92809010D02*
G01*
X85579237Y-92815187D01*
X85615620Y-92827918D01*
X85640638Y-92839967D01*
X85656767Y-92850102D01*
X85656768Y-92850103D01*
X85656769Y-92850103D01*
X85662664Y-92853807D01*
X85662665Y-92853808D01*
X85673269Y-92860471D01*
X85694977Y-92877783D01*
X85722218Y-92905024D01*
X85739528Y-92926730D01*
X85760032Y-92959361D01*
X85772079Y-92984377D01*
X85784808Y-93020754D01*
X85790987Y-93047826D01*
X85795301Y-93086116D01*
X85795301Y-93113881D01*
X85790987Y-93152172D01*
X85784808Y-93179245D01*
X85772080Y-93215619D01*
X85760035Y-93240633D01*
X85744670Y-93265087D01*
X85744666Y-93265094D01*
X85687670Y-93391599D01*
X85668667Y-93456318D01*
X85668666Y-93456320D01*
X85648215Y-93593587D01*
X85667239Y-93736197D01*
X85686244Y-93803449D01*
X85744674Y-93934920D01*
X85760032Y-93959362D01*
X85772079Y-93984378D01*
X85784807Y-94020752D01*
X85790986Y-94047821D01*
X85795301Y-94086111D01*
X85795301Y-94113882D01*
X85790986Y-94152176D01*
X85784808Y-94179244D01*
X85772081Y-94215617D01*
X85760032Y-94240636D01*
X85739529Y-94273266D01*
X85722217Y-94294975D01*
X85694975Y-94322217D01*
X85673266Y-94339529D01*
X85640636Y-94360032D01*
X85615618Y-94372081D01*
X85579243Y-94384809D01*
X85552172Y-94390987D01*
X85513882Y-94395301D01*
X85486116Y-94395301D01*
X85447826Y-94390987D01*
X85420755Y-94384809D01*
X85384380Y-94372081D01*
X85359362Y-94360032D01*
X85326732Y-94339529D01*
X85305023Y-94322217D01*
X85277781Y-94294975D01*
X85260469Y-94273266D01*
X85239966Y-94240636D01*
X85227918Y-94215619D01*
X85215190Y-94179245D01*
X85209011Y-94152176D01*
X85204696Y-94113870D01*
X85204697Y-94086113D01*
X85209012Y-94047816D01*
X85215189Y-94020749D01*
X85227917Y-93984378D01*
X85239962Y-93959369D01*
X85255320Y-93934927D01*
X85255325Y-93934918D01*
X85255328Y-93934914D01*
X85312331Y-93808393D01*
X85331331Y-93743688D01*
X85351783Y-93606421D01*
X85332760Y-93463804D01*
X85313760Y-93396567D01*
X85255329Y-93265089D01*
X85239963Y-93240634D01*
X85227918Y-93215623D01*
X85215188Y-93179245D01*
X85209011Y-93152181D01*
X85204696Y-93113871D01*
X85204697Y-93086112D01*
X85209010Y-93047829D01*
X85215186Y-93020761D01*
X85227919Y-92984373D01*
X85239966Y-92959361D01*
X85260469Y-92926731D01*
X85277777Y-92905026D01*
X85305026Y-92877777D01*
X85326731Y-92860469D01*
X85359361Y-92839966D01*
X85384373Y-92827919D01*
X85420761Y-92815186D01*
X85447822Y-92809010D01*
X85486118Y-92804696D01*
X85513880Y-92804696D01*
X85552173Y-92809010D01*
G37*
%TD.AperFunction*%
%TA.AperFunction,Conductor*%
G36*
X81152173Y-91409010D02*
G01*
X81179237Y-91415187D01*
X81215620Y-91427918D01*
X81240636Y-91439966D01*
X81273266Y-91460469D01*
X81294975Y-91477781D01*
X81322217Y-91505023D01*
X81339529Y-91526732D01*
X81360032Y-91559362D01*
X81372081Y-91584381D01*
X81384808Y-91620754D01*
X81390986Y-91647821D01*
X81395301Y-91686111D01*
X81395301Y-91713882D01*
X81390986Y-91752176D01*
X81384808Y-91779244D01*
X81372081Y-91815617D01*
X81360032Y-91840636D01*
X81339529Y-91873266D01*
X81322217Y-91894975D01*
X81294975Y-91922217D01*
X81273266Y-91939529D01*
X81240636Y-91960032D01*
X81215618Y-91972081D01*
X81179243Y-91984809D01*
X81152172Y-91990987D01*
X81113882Y-91995301D01*
X81086116Y-91995301D01*
X81047827Y-91990987D01*
X81020758Y-91984809D01*
X80984381Y-91972081D01*
X80959360Y-91960032D01*
X80937336Y-91946193D01*
X80937335Y-91946192D01*
X80926725Y-91939525D01*
X80905022Y-91922216D01*
X80877781Y-91894975D01*
X80860469Y-91873266D01*
X80839966Y-91840636D01*
X80827918Y-91815619D01*
X80815190Y-91779245D01*
X80809011Y-91752175D01*
X80804696Y-91713870D01*
X80804697Y-91686111D01*
X80809010Y-91647829D01*
X80815186Y-91620761D01*
X80827919Y-91584373D01*
X80839966Y-91559361D01*
X80860469Y-91526731D01*
X80877777Y-91505026D01*
X80905026Y-91477777D01*
X80926731Y-91460469D01*
X80959361Y-91439966D01*
X80984373Y-91427919D01*
X81020761Y-91415186D01*
X81047822Y-91409010D01*
X81086118Y-91404696D01*
X81113880Y-91404696D01*
X81152173Y-91409010D01*
G37*
%TD.AperFunction*%
%TA.AperFunction,Conductor*%
G36*
X74347691Y-89010612D02*
G01*
X74366246Y-89016394D01*
X74393507Y-89028664D01*
X74408265Y-89037586D01*
X74431794Y-89056020D01*
X74443978Y-89068204D01*
X74462414Y-89091736D01*
X74471336Y-89106495D01*
X74483604Y-89133752D01*
X74491195Y-89158111D01*
X74491508Y-89177112D01*
X74494035Y-89176701D01*
X74506100Y-89250824D01*
X74518954Y-89308387D01*
X74577737Y-89439711D01*
X74577738Y-89439712D01*
X74615069Y-89498773D01*
X74615072Y-89498777D01*
X74708473Y-89608220D01*
X74828925Y-89686915D01*
X74828928Y-89686916D01*
X74828929Y-89686917D01*
X74886381Y-89713679D01*
X74887923Y-89714498D01*
X74892268Y-89716421D01*
X74918754Y-89724414D01*
X74977248Y-89762627D01*
X75005796Y-89826398D01*
X75006507Y-89853365D01*
X74994357Y-90000000D01*
X75006307Y-90144218D01*
X74992225Y-90212654D01*
X74943380Y-90262613D01*
X74912343Y-90274869D01*
X74888495Y-90280733D01*
X74888487Y-90280737D01*
X74764116Y-90353060D01*
X74709327Y-90396424D01*
X74610365Y-90500861D01*
X74610363Y-90500865D01*
X74544832Y-90628950D01*
X74544830Y-90628955D01*
X74536448Y-90653418D01*
X74533599Y-90659727D01*
X74533871Y-90659835D01*
X74530614Y-90668078D01*
X74530159Y-90669993D01*
X74526832Y-90681486D01*
X74515844Y-90713559D01*
X74517132Y-90721080D01*
X74514601Y-90735416D01*
X74505376Y-90774211D01*
X74499465Y-90784556D01*
X74496704Y-90814929D01*
X74491599Y-90840587D01*
X74483606Y-90866240D01*
X74471337Y-90893503D01*
X74462416Y-90908260D01*
X74443980Y-90931791D01*
X74431791Y-90943980D01*
X74408258Y-90962417D01*
X74393502Y-90971337D01*
X74366250Y-90983603D01*
X74347701Y-90989384D01*
X74310805Y-90995000D01*
X72689193Y-90995000D01*
X72652303Y-90989385D01*
X72633750Y-90983603D01*
X72606496Y-90971337D01*
X72591733Y-90962412D01*
X72568204Y-90943978D01*
X72556021Y-90931795D01*
X72537583Y-90908261D01*
X72537582Y-90908260D01*
X72528659Y-90893498D01*
X72516392Y-90866238D01*
X72510614Y-90847694D01*
X72505000Y-90810807D01*
X72505000Y-89189189D01*
X72510613Y-89152304D01*
X72516392Y-89133757D01*
X72528658Y-89106500D01*
X72537590Y-89091726D01*
X72556020Y-89068204D01*
X72568205Y-89056018D01*
X72591728Y-89037588D01*
X72606501Y-89028658D01*
X72633761Y-89016391D01*
X72652302Y-89010614D01*
X72689189Y-89005000D01*
X74310807Y-89005000D01*
X74347691Y-89010612D01*
G37*
%TD.AperFunction*%
%TA.AperFunction,Conductor*%
G36*
X89152173Y-87909010D02*
G01*
X89179237Y-87915187D01*
X89215620Y-87927918D01*
X89240636Y-87939966D01*
X89273266Y-87960469D01*
X89294975Y-87977781D01*
X89322217Y-88005023D01*
X89339529Y-88026732D01*
X89360032Y-88059362D01*
X89372081Y-88084381D01*
X89384808Y-88120754D01*
X89390986Y-88147821D01*
X89395301Y-88186111D01*
X89395301Y-88213882D01*
X89390986Y-88252176D01*
X89384808Y-88279244D01*
X89372081Y-88315617D01*
X89360032Y-88340636D01*
X89339529Y-88373266D01*
X89322217Y-88394975D01*
X89294975Y-88422217D01*
X89273266Y-88439529D01*
X89240636Y-88460032D01*
X89215618Y-88472081D01*
X89179243Y-88484809D01*
X89152172Y-88490987D01*
X89113882Y-88495301D01*
X89086117Y-88495301D01*
X89047825Y-88490987D01*
X89020754Y-88484809D01*
X88984376Y-88472079D01*
X88959364Y-88460034D01*
X88957024Y-88458564D01*
X88957023Y-88458564D01*
X88942205Y-88449253D01*
X88942200Y-88449250D01*
X88926734Y-88439532D01*
X88905025Y-88422219D01*
X88877781Y-88394975D01*
X88860469Y-88373266D01*
X88839966Y-88340636D01*
X88827918Y-88315619D01*
X88815190Y-88279245D01*
X88809011Y-88252175D01*
X88804696Y-88213870D01*
X88804697Y-88186111D01*
X88809010Y-88147829D01*
X88815186Y-88120761D01*
X88827919Y-88084373D01*
X88839966Y-88059361D01*
X88860469Y-88026731D01*
X88877777Y-88005026D01*
X88905026Y-87977777D01*
X88926731Y-87960469D01*
X88959361Y-87939966D01*
X88984373Y-87927919D01*
X89020761Y-87915186D01*
X89047822Y-87909010D01*
X89086118Y-87904696D01*
X89113880Y-87904696D01*
X89152173Y-87909010D01*
G37*
%TD.AperFunction*%
%TA.AperFunction,Conductor*%
G36*
X87352173Y-85709010D02*
G01*
X87379237Y-85715187D01*
X87415620Y-85727918D01*
X87440636Y-85739966D01*
X87473266Y-85760469D01*
X87494975Y-85777781D01*
X87522217Y-85805023D01*
X87539529Y-85826732D01*
X87560032Y-85859362D01*
X87572081Y-85884381D01*
X87584808Y-85920754D01*
X87590986Y-85947821D01*
X87595301Y-85986111D01*
X87595301Y-86013882D01*
X87590986Y-86052176D01*
X87584808Y-86079244D01*
X87572081Y-86115617D01*
X87560032Y-86140636D01*
X87539529Y-86173266D01*
X87522217Y-86194975D01*
X87494975Y-86222217D01*
X87473266Y-86239529D01*
X87440636Y-86260032D01*
X87415618Y-86272081D01*
X87379243Y-86284809D01*
X87352172Y-86290987D01*
X87313882Y-86295301D01*
X87286116Y-86295301D01*
X87247826Y-86290987D01*
X87220755Y-86284809D01*
X87184380Y-86272081D01*
X87159362Y-86260032D01*
X87126732Y-86239529D01*
X87105023Y-86222217D01*
X87077781Y-86194975D01*
X87060469Y-86173266D01*
X87039966Y-86140636D01*
X87027918Y-86115619D01*
X87015190Y-86079245D01*
X87009011Y-86052175D01*
X87004696Y-86013870D01*
X87004697Y-85986111D01*
X87009010Y-85947829D01*
X87015186Y-85920761D01*
X87027919Y-85884373D01*
X87039966Y-85859361D01*
X87060469Y-85826731D01*
X87077777Y-85805026D01*
X87105026Y-85777777D01*
X87126731Y-85760469D01*
X87159361Y-85739966D01*
X87184373Y-85727919D01*
X87220761Y-85715186D01*
X87247822Y-85709010D01*
X87286118Y-85704696D01*
X87313880Y-85704696D01*
X87352173Y-85709010D01*
G37*
%TD.AperFunction*%
%TA.AperFunction,Conductor*%
G36*
X80652173Y-82909010D02*
G01*
X80679237Y-82915187D01*
X80715620Y-82927918D01*
X80740636Y-82939966D01*
X80773266Y-82960469D01*
X80794975Y-82977781D01*
X80822217Y-83005023D01*
X80839529Y-83026732D01*
X80860032Y-83059362D01*
X80872081Y-83084381D01*
X80884808Y-83120754D01*
X80890986Y-83147821D01*
X80895301Y-83186111D01*
X80895301Y-83213882D01*
X80890986Y-83252176D01*
X80884808Y-83279244D01*
X80872081Y-83315617D01*
X80860032Y-83340636D01*
X80839529Y-83373266D01*
X80822217Y-83394975D01*
X80794975Y-83422217D01*
X80773266Y-83439529D01*
X80740636Y-83460032D01*
X80715618Y-83472081D01*
X80679243Y-83484809D01*
X80652172Y-83490987D01*
X80613882Y-83495301D01*
X80586116Y-83495301D01*
X80547826Y-83490987D01*
X80520755Y-83484809D01*
X80484380Y-83472081D01*
X80459362Y-83460032D01*
X80426732Y-83439529D01*
X80405023Y-83422217D01*
X80377781Y-83394975D01*
X80360469Y-83373266D01*
X80339966Y-83340636D01*
X80327918Y-83315619D01*
X80315190Y-83279245D01*
X80309011Y-83252175D01*
X80304696Y-83213870D01*
X80304697Y-83186111D01*
X80309010Y-83147829D01*
X80315186Y-83120761D01*
X80327919Y-83084373D01*
X80339966Y-83059361D01*
X80360469Y-83026731D01*
X80377777Y-83005026D01*
X80405026Y-82977777D01*
X80426731Y-82960469D01*
X80459361Y-82939966D01*
X80484373Y-82927919D01*
X80520761Y-82915186D01*
X80547822Y-82909010D01*
X80586118Y-82904696D01*
X80613880Y-82904696D01*
X80652173Y-82909010D01*
G37*
%TD.AperFunction*%
%TA.AperFunction,Conductor*%
G36*
X75052173Y-79709010D02*
G01*
X75079237Y-79715187D01*
X75115620Y-79727918D01*
X75140636Y-79739966D01*
X75173266Y-79760469D01*
X75194975Y-79777781D01*
X75222217Y-79805023D01*
X75239529Y-79826731D01*
X75260034Y-79859364D01*
X75272080Y-79884378D01*
X75284810Y-79920755D01*
X75290989Y-79947828D01*
X75295302Y-79986113D01*
X75295301Y-80013877D01*
X75290986Y-80052174D01*
X75284808Y-80079244D01*
X75272081Y-80115617D01*
X75260032Y-80140636D01*
X75239529Y-80173266D01*
X75222217Y-80194975D01*
X75194975Y-80222217D01*
X75173266Y-80239529D01*
X75140636Y-80260032D01*
X75115618Y-80272081D01*
X75079243Y-80284809D01*
X75052172Y-80290987D01*
X75013882Y-80295301D01*
X74986116Y-80295301D01*
X74947826Y-80290987D01*
X74920755Y-80284809D01*
X74884380Y-80272081D01*
X74859362Y-80260032D01*
X74826732Y-80239529D01*
X74805023Y-80222217D01*
X74777781Y-80194975D01*
X74760469Y-80173266D01*
X74739966Y-80140636D01*
X74727918Y-80115619D01*
X74715190Y-80079245D01*
X74709011Y-80052174D01*
X74704696Y-80013870D01*
X74704697Y-79986111D01*
X74709010Y-79947829D01*
X74709011Y-79947828D01*
X74709010Y-79947825D01*
X74715186Y-79920761D01*
X74727919Y-79884373D01*
X74739966Y-79859361D01*
X74760469Y-79826731D01*
X74777777Y-79805026D01*
X74805026Y-79777777D01*
X74826731Y-79760469D01*
X74859361Y-79739966D01*
X74884373Y-79727919D01*
X74920761Y-79715186D01*
X74947822Y-79709010D01*
X74986118Y-79704696D01*
X75013880Y-79704696D01*
X75052173Y-79709010D01*
G37*
%TD.AperFunction*%
%TA.AperFunction,Conductor*%
G36*
X80052173Y-79709010D02*
G01*
X80079237Y-79715187D01*
X80115620Y-79727918D01*
X80140636Y-79739966D01*
X80173266Y-79760469D01*
X80194975Y-79777781D01*
X80222217Y-79805023D01*
X80239529Y-79826732D01*
X80260032Y-79859362D01*
X80272081Y-79884381D01*
X80284808Y-79920754D01*
X80290986Y-79947821D01*
X80295301Y-79986111D01*
X80295301Y-80013882D01*
X80290986Y-80052176D01*
X80284808Y-80079244D01*
X80272081Y-80115617D01*
X80260032Y-80140636D01*
X80239529Y-80173266D01*
X80222217Y-80194975D01*
X80194975Y-80222217D01*
X80173266Y-80239529D01*
X80140636Y-80260032D01*
X80115618Y-80272081D01*
X80079243Y-80284809D01*
X80052172Y-80290987D01*
X80013882Y-80295301D01*
X79986116Y-80295301D01*
X79947826Y-80290987D01*
X79920755Y-80284809D01*
X79884380Y-80272081D01*
X79859362Y-80260032D01*
X79826732Y-80239529D01*
X79805023Y-80222217D01*
X79777781Y-80194975D01*
X79760469Y-80173266D01*
X79739966Y-80140636D01*
X79727918Y-80115619D01*
X79715190Y-80079245D01*
X79709011Y-80052174D01*
X79704696Y-80013870D01*
X79704697Y-79986111D01*
X79709010Y-79947829D01*
X79709011Y-79947828D01*
X79709010Y-79947825D01*
X79715186Y-79920761D01*
X79727919Y-79884373D01*
X79739966Y-79859361D01*
X79760469Y-79826731D01*
X79777777Y-79805026D01*
X79805026Y-79777777D01*
X79826731Y-79760469D01*
X79859361Y-79739966D01*
X79884373Y-79727919D01*
X79920761Y-79715186D01*
X79947822Y-79709010D01*
X79986118Y-79704696D01*
X80013880Y-79704696D01*
X80052173Y-79709010D01*
G37*
%TD.AperFunction*%
%TD*%
%TA.AperFunction,Conductor*%
%TO.N,GND*%
G36*
X86735675Y-61080185D02*
G01*
X86781430Y-61132989D01*
X86791374Y-61202147D01*
X86767012Y-61259984D01*
X86737449Y-61298512D01*
X86719137Y-61322377D01*
X86663671Y-61456287D01*
X86663670Y-61456291D01*
X86644750Y-61600000D01*
X86658990Y-61708165D01*
X86663670Y-61743708D01*
X86663671Y-61743712D01*
X86719137Y-61877622D01*
X86719138Y-61877624D01*
X86719139Y-61877625D01*
X86807379Y-61992621D01*
X86922375Y-62080861D01*
X87056291Y-62136330D01*
X87183280Y-62153048D01*
X87199999Y-62155250D01*
X87200000Y-62155250D01*
X87200001Y-62155250D01*
X87214977Y-62153278D01*
X87343709Y-62136330D01*
X87477625Y-62080861D01*
X87592621Y-61992621D01*
X87592623Y-61992617D01*
X87592627Y-61992615D01*
X87598372Y-61986871D01*
X87600888Y-61989387D01*
X87644183Y-61957797D01*
X87686092Y-61950500D01*
X95192987Y-61950500D01*
X95260026Y-61970185D01*
X95305781Y-62022989D01*
X95315725Y-62092147D01*
X95286700Y-62155703D01*
X95254987Y-62181887D01*
X95189791Y-62219527D01*
X95189786Y-62219531D01*
X94824531Y-62584786D01*
X94824529Y-62584789D01*
X94795375Y-62635287D01*
X94795373Y-62635289D01*
X94778388Y-62664706D01*
X94778387Y-62664709D01*
X94754500Y-62753856D01*
X94754500Y-66313908D01*
X94734815Y-66380947D01*
X94716913Y-66400412D01*
X94718129Y-66401628D01*
X94712384Y-66407372D01*
X94624137Y-66522377D01*
X94568671Y-66656287D01*
X94568670Y-66656291D01*
X94549821Y-66799464D01*
X94549750Y-66800000D01*
X94562915Y-66900000D01*
X94568670Y-66943708D01*
X94568671Y-66943712D01*
X94624137Y-67077622D01*
X94624138Y-67077624D01*
X94624139Y-67077625D01*
X94712379Y-67192621D01*
X94827375Y-67280861D01*
X94827376Y-67280861D01*
X94827377Y-67280862D01*
X94872013Y-67299350D01*
X94961291Y-67336330D01*
X95088280Y-67353048D01*
X95104999Y-67355250D01*
X95105000Y-67355250D01*
X95105001Y-67355250D01*
X95119977Y-67353278D01*
X95248709Y-67336330D01*
X95382625Y-67280861D01*
X95497621Y-67192621D01*
X95585861Y-67077625D01*
X95641330Y-66943709D01*
X95660250Y-66800000D01*
X95660179Y-66799464D01*
X95658048Y-66783280D01*
X95641330Y-66656291D01*
X95591641Y-66536329D01*
X95585862Y-66522377D01*
X95585861Y-66522376D01*
X95585861Y-66522375D01*
X95497621Y-66407379D01*
X95497619Y-66407377D01*
X95497615Y-66407372D01*
X95491871Y-66401628D01*
X95494387Y-66399111D01*
X95462797Y-66355817D01*
X95455500Y-66313908D01*
X95455500Y-66000000D01*
X97344750Y-66000000D01*
X97360971Y-66123212D01*
X97363670Y-66143708D01*
X97363671Y-66143712D01*
X97419137Y-66277622D01*
X97419138Y-66277624D01*
X97419139Y-66277625D01*
X97507379Y-66392621D01*
X97622375Y-66480861D01*
X97756291Y-66536330D01*
X97883280Y-66553048D01*
X97899999Y-66555250D01*
X97900000Y-66555250D01*
X97900001Y-66555250D01*
X97914977Y-66553278D01*
X98043709Y-66536330D01*
X98177625Y-66480861D01*
X98292621Y-66392621D01*
X98380861Y-66277625D01*
X98436330Y-66143709D01*
X98455250Y-66000000D01*
X109444750Y-66000000D01*
X109460971Y-66123212D01*
X109463670Y-66143708D01*
X109463671Y-66143712D01*
X109519137Y-66277622D01*
X109519138Y-66277624D01*
X109519139Y-66277625D01*
X109607379Y-66392621D01*
X109722375Y-66480861D01*
X109856291Y-66536330D01*
X109983280Y-66553048D01*
X109999999Y-66555250D01*
X110000000Y-66555250D01*
X110000001Y-66555250D01*
X110014977Y-66553278D01*
X110143709Y-66536330D01*
X110277625Y-66480861D01*
X110392621Y-66392621D01*
X110480861Y-66277625D01*
X110536330Y-66143709D01*
X110555250Y-66000000D01*
X110536330Y-65856291D01*
X110480861Y-65722375D01*
X110392621Y-65607379D01*
X110277625Y-65519139D01*
X110277624Y-65519138D01*
X110277622Y-65519137D01*
X110143712Y-65463671D01*
X110143710Y-65463670D01*
X110143709Y-65463670D01*
X110071854Y-65454210D01*
X110000001Y-65444750D01*
X109999999Y-65444750D01*
X109856291Y-65463670D01*
X109856287Y-65463671D01*
X109722377Y-65519137D01*
X109607379Y-65607379D01*
X109519137Y-65722377D01*
X109463671Y-65856287D01*
X109463670Y-65856291D01*
X109444750Y-66000000D01*
X98455250Y-66000000D01*
X98436330Y-65856291D01*
X98380861Y-65722375D01*
X98292621Y-65607379D01*
X98177625Y-65519139D01*
X98177624Y-65519138D01*
X98177622Y-65519137D01*
X98043712Y-65463671D01*
X98043710Y-65463670D01*
X98043709Y-65463670D01*
X97971854Y-65454210D01*
X97900001Y-65444750D01*
X97899999Y-65444750D01*
X97756291Y-65463670D01*
X97756287Y-65463671D01*
X97622377Y-65519137D01*
X97507379Y-65607379D01*
X97419137Y-65722377D01*
X97363671Y-65856287D01*
X97363670Y-65856291D01*
X97344750Y-66000000D01*
X95455500Y-66000000D01*
X95455500Y-62996544D01*
X95475185Y-62929505D01*
X95491819Y-62908863D01*
X95513863Y-62886819D01*
X95575186Y-62853334D01*
X95601544Y-62850500D01*
X124303456Y-62850500D01*
X124370495Y-62870185D01*
X124391137Y-62886819D01*
X127088491Y-65584173D01*
X127121976Y-65645496D01*
X127122427Y-65696045D01*
X127099500Y-65811304D01*
X127099500Y-66188695D01*
X127134103Y-66362658D01*
X127134106Y-66362667D01*
X127201983Y-66526540D01*
X127201990Y-66526553D01*
X127300535Y-66674034D01*
X127300538Y-66674038D01*
X127425961Y-66799461D01*
X127425965Y-66799464D01*
X127573446Y-66898009D01*
X127573459Y-66898016D01*
X127667123Y-66936812D01*
X127737334Y-66965894D01*
X127737336Y-66965894D01*
X127737341Y-66965896D01*
X127911304Y-67000499D01*
X127911307Y-67000500D01*
X127911309Y-67000500D01*
X128088693Y-67000500D01*
X128088694Y-67000499D01*
X128146682Y-66988964D01*
X128262658Y-66965896D01*
X128262661Y-66965894D01*
X128262666Y-66965894D01*
X128421750Y-66900000D01*
X128426540Y-66898016D01*
X128426540Y-66898015D01*
X128426547Y-66898013D01*
X128574035Y-66799464D01*
X128699464Y-66674035D01*
X128798013Y-66526547D01*
X128805951Y-66507384D01*
X128816936Y-66480862D01*
X128865894Y-66362666D01*
X128867257Y-66355817D01*
X128878383Y-66299882D01*
X128910768Y-66237971D01*
X128971483Y-66203397D01*
X129041253Y-66207136D01*
X129097925Y-66248003D01*
X129121617Y-66299882D01*
X129134103Y-66362658D01*
X129134106Y-66362667D01*
X129201983Y-66526540D01*
X129201990Y-66526553D01*
X129300535Y-66674034D01*
X129300538Y-66674038D01*
X129425961Y-66799461D01*
X129425965Y-66799464D01*
X129573446Y-66898009D01*
X129573459Y-66898016D01*
X129667123Y-66936812D01*
X129737334Y-66965894D01*
X129737336Y-66965894D01*
X129737341Y-66965896D01*
X129911304Y-67000499D01*
X129911307Y-67000500D01*
X129911309Y-67000500D01*
X130088693Y-67000500D01*
X130088694Y-67000499D01*
X130262666Y-66965894D01*
X130267985Y-66963691D01*
X130275408Y-66960616D01*
X130332876Y-66936811D01*
X130402343Y-66929342D01*
X130464823Y-66960616D01*
X130468009Y-66963691D01*
X130859569Y-67355250D01*
X131219531Y-67715212D01*
X131284788Y-67780469D01*
X131284791Y-67780470D01*
X131284794Y-67780473D01*
X131364706Y-67826611D01*
X131364707Y-67826611D01*
X131364712Y-67826614D01*
X131453856Y-67850500D01*
X131453858Y-67850500D01*
X151746142Y-67850500D01*
X151746144Y-67850500D01*
X151835288Y-67826614D01*
X151858298Y-67813329D01*
X151915212Y-67780470D01*
X152404123Y-67291557D01*
X152465444Y-67258074D01*
X152491871Y-67257144D01*
X152491871Y-67255250D01*
X152500000Y-67255250D01*
X152643709Y-67236330D01*
X152777625Y-67180861D01*
X152892621Y-67092621D01*
X152892623Y-67092617D01*
X152892627Y-67092615D01*
X152898372Y-67086871D01*
X152900888Y-67089387D01*
X152944183Y-67057797D01*
X152986092Y-67050500D01*
X157967481Y-67050500D01*
X158034520Y-67070185D01*
X158077966Y-67118205D01*
X158138153Y-67236328D01*
X158158768Y-67276788D01*
X158260586Y-67416928D01*
X158383072Y-67539414D01*
X158523212Y-67641232D01*
X158677555Y-67719873D01*
X158842299Y-67773402D01*
X159013389Y-67800500D01*
X159013390Y-67800500D01*
X159986610Y-67800500D01*
X159986611Y-67800500D01*
X160157701Y-67773402D01*
X160322445Y-67719873D01*
X160476788Y-67641232D01*
X160616928Y-67539414D01*
X160739414Y-67416928D01*
X160841232Y-67276788D01*
X160919873Y-67122445D01*
X160973402Y-66957701D01*
X161000500Y-66786611D01*
X161000500Y-66613389D01*
X160973402Y-66442299D01*
X160919873Y-66277555D01*
X160841232Y-66123212D01*
X160739414Y-65983072D01*
X160616928Y-65860586D01*
X160476788Y-65758768D01*
X160322445Y-65680127D01*
X160157701Y-65626598D01*
X160157699Y-65626597D01*
X160157698Y-65626597D01*
X160026271Y-65605781D01*
X159986611Y-65599500D01*
X159013389Y-65599500D01*
X158973728Y-65605781D01*
X158842302Y-65626597D01*
X158677552Y-65680128D01*
X158523211Y-65758768D01*
X158450903Y-65811304D01*
X158383072Y-65860586D01*
X158383070Y-65860588D01*
X158383069Y-65860588D01*
X158260588Y-65983069D01*
X158260588Y-65983070D01*
X158260586Y-65983072D01*
X158248288Y-65999999D01*
X158158768Y-66123211D01*
X158077966Y-66281795D01*
X158029991Y-66332591D01*
X157967481Y-66349500D01*
X152986092Y-66349500D01*
X152919053Y-66329815D01*
X152899587Y-66311913D01*
X152898372Y-66313129D01*
X152892627Y-66307384D01*
X152892621Y-66307379D01*
X152777625Y-66219139D01*
X152777624Y-66219138D01*
X152777622Y-66219137D01*
X152643712Y-66163671D01*
X152643710Y-66163670D01*
X152643709Y-66163670D01*
X152571854Y-66154210D01*
X152500001Y-66144750D01*
X152499999Y-66144750D01*
X152356291Y-66163670D01*
X152356287Y-66163671D01*
X152222377Y-66219137D01*
X152107379Y-66307379D01*
X152019137Y-66422377D01*
X151963671Y-66556287D01*
X151963670Y-66556291D01*
X151944750Y-66699999D01*
X151944750Y-66708128D01*
X151941456Y-66708128D01*
X151932192Y-66762588D01*
X151908439Y-66795877D01*
X151591135Y-67113182D01*
X151529814Y-67146666D01*
X151503456Y-67149500D01*
X142442794Y-67149500D01*
X142375755Y-67129815D01*
X142330000Y-67077011D01*
X142320056Y-67007853D01*
X142349081Y-66944297D01*
X142395342Y-66910939D01*
X142426540Y-66898016D01*
X142426540Y-66898015D01*
X142426547Y-66898013D01*
X142574035Y-66799464D01*
X142699464Y-66674035D01*
X142798013Y-66526547D01*
X142805951Y-66507384D01*
X142816936Y-66480862D01*
X142865894Y-66362666D01*
X142867257Y-66355817D01*
X142900499Y-66188695D01*
X142900500Y-66188693D01*
X142900500Y-65811306D01*
X142900499Y-65811304D01*
X142865896Y-65637341D01*
X142865893Y-65637332D01*
X142798016Y-65473459D01*
X142798009Y-65473446D01*
X142699464Y-65325965D01*
X142699461Y-65325961D01*
X142673500Y-65300000D01*
X150444750Y-65300000D01*
X150456084Y-65386092D01*
X150463670Y-65443708D01*
X150463671Y-65443712D01*
X150519137Y-65577622D01*
X150519138Y-65577624D01*
X150519139Y-65577625D01*
X150607379Y-65692621D01*
X150722375Y-65780861D01*
X150856291Y-65836330D01*
X150983280Y-65853048D01*
X150999999Y-65855250D01*
X151000000Y-65855250D01*
X151000001Y-65855250D01*
X151014977Y-65853278D01*
X151143709Y-65836330D01*
X151277625Y-65780861D01*
X151392621Y-65692621D01*
X151480861Y-65577625D01*
X151536330Y-65443709D01*
X151555250Y-65300000D01*
X166444750Y-65300000D01*
X166456084Y-65386092D01*
X166463670Y-65443708D01*
X166463671Y-65443712D01*
X166519137Y-65577622D01*
X166519138Y-65577624D01*
X166519139Y-65577625D01*
X166607379Y-65692621D01*
X166722375Y-65780861D01*
X166856291Y-65836330D01*
X166983280Y-65853048D01*
X166999999Y-65855250D01*
X167000000Y-65855250D01*
X167000001Y-65855250D01*
X167014977Y-65853278D01*
X167143709Y-65836330D01*
X167277625Y-65780861D01*
X167392621Y-65692621D01*
X167480861Y-65577625D01*
X167536330Y-65443709D01*
X167555250Y-65300000D01*
X167536330Y-65156291D01*
X167482768Y-65026979D01*
X167480862Y-65022377D01*
X167480861Y-65022376D01*
X167480861Y-65022375D01*
X167392621Y-64907379D01*
X167277625Y-64819139D01*
X167277624Y-64819138D01*
X167277622Y-64819137D01*
X167143712Y-64763671D01*
X167143710Y-64763670D01*
X167143709Y-64763670D01*
X167071854Y-64754210D01*
X167000001Y-64744750D01*
X166999999Y-64744750D01*
X166856291Y-64763670D01*
X166856287Y-64763671D01*
X166722377Y-64819137D01*
X166607379Y-64907379D01*
X166519137Y-65022377D01*
X166463671Y-65156287D01*
X166463670Y-65156291D01*
X166444750Y-65300000D01*
X151555250Y-65300000D01*
X151536330Y-65156291D01*
X151482768Y-65026979D01*
X151480862Y-65022377D01*
X151480861Y-65022376D01*
X151480861Y-65022375D01*
X151392621Y-64907379D01*
X151277625Y-64819139D01*
X151277624Y-64819138D01*
X151277622Y-64819137D01*
X151143712Y-64763671D01*
X151143710Y-64763670D01*
X151143709Y-64763670D01*
X151071854Y-64754210D01*
X151000001Y-64744750D01*
X150999999Y-64744750D01*
X150856291Y-64763670D01*
X150856287Y-64763671D01*
X150722377Y-64819137D01*
X150607379Y-64907379D01*
X150519137Y-65022377D01*
X150463671Y-65156287D01*
X150463670Y-65156291D01*
X150444750Y-65300000D01*
X142673500Y-65300000D01*
X142584054Y-65210554D01*
X142550569Y-65149231D01*
X142555553Y-65079539D01*
X142597425Y-65023606D01*
X142657444Y-64999699D01*
X142675106Y-64997650D01*
X142775599Y-64953278D01*
X142853278Y-64875599D01*
X142897650Y-64775106D01*
X142900500Y-64750540D01*
X142900500Y-63249460D01*
X142897650Y-63224894D01*
X142886894Y-63200535D01*
X142859734Y-63139023D01*
X142853278Y-63124401D01*
X142791058Y-63062181D01*
X142757573Y-63000858D01*
X142762557Y-62931166D01*
X142804429Y-62875233D01*
X142869893Y-62850816D01*
X142878739Y-62850500D01*
X161913908Y-62850500D01*
X161980947Y-62870185D01*
X162000412Y-62888086D01*
X162001628Y-62886871D01*
X162007372Y-62892615D01*
X162007377Y-62892619D01*
X162007379Y-62892621D01*
X162122375Y-62980861D01*
X162256291Y-63036330D01*
X162383280Y-63053048D01*
X162399999Y-63055250D01*
X162400000Y-63055250D01*
X162400001Y-63055250D01*
X162414977Y-63053278D01*
X162543709Y-63036330D01*
X162677625Y-62980861D01*
X162792621Y-62892621D01*
X162792623Y-62892617D01*
X162792627Y-62892615D01*
X162798372Y-62886871D01*
X162800888Y-62889387D01*
X162844183Y-62857797D01*
X162886092Y-62850500D01*
X163753856Y-62850500D01*
X167503456Y-62850500D01*
X167570495Y-62870185D01*
X167591137Y-62886819D01*
X168213181Y-63508863D01*
X168246666Y-63570186D01*
X168249500Y-63596544D01*
X168249500Y-66213908D01*
X168229815Y-66280947D01*
X168211913Y-66300412D01*
X168213129Y-66301628D01*
X168207384Y-66307372D01*
X168119137Y-66422377D01*
X168063671Y-66556287D01*
X168063670Y-66556291D01*
X168048169Y-66674034D01*
X168044750Y-66700000D01*
X168057915Y-66800000D01*
X168063670Y-66843708D01*
X168063671Y-66843712D01*
X168119137Y-66977622D01*
X168119138Y-66977624D01*
X168119139Y-66977625D01*
X168207379Y-67092621D01*
X168322375Y-67180861D01*
X168322376Y-67180861D01*
X168322377Y-67180862D01*
X168367013Y-67199350D01*
X168456291Y-67236330D01*
X168583280Y-67253048D01*
X168599999Y-67255250D01*
X168600000Y-67255250D01*
X168600001Y-67255250D01*
X168614977Y-67253278D01*
X168743709Y-67236330D01*
X168877625Y-67180861D01*
X168992621Y-67092621D01*
X169080861Y-66977625D01*
X169113014Y-66900000D01*
X172744750Y-66900000D01*
X172757915Y-67000000D01*
X172763670Y-67043708D01*
X172763671Y-67043712D01*
X172819137Y-67177622D01*
X172819138Y-67177624D01*
X172819139Y-67177625D01*
X172907379Y-67292621D01*
X173022375Y-67380861D01*
X173156291Y-67436330D01*
X173283280Y-67453048D01*
X173299999Y-67455250D01*
X173300000Y-67455250D01*
X173300001Y-67455250D01*
X173314977Y-67453278D01*
X173443709Y-67436330D01*
X173577625Y-67380861D01*
X173692621Y-67292621D01*
X173692623Y-67292617D01*
X173692627Y-67292615D01*
X173698372Y-67286871D01*
X173700888Y-67289387D01*
X173744183Y-67257797D01*
X173786092Y-67250500D01*
X175813908Y-67250500D01*
X175880947Y-67270185D01*
X175900412Y-67288086D01*
X175901628Y-67286871D01*
X175907372Y-67292615D01*
X175907377Y-67292619D01*
X175907379Y-67292621D01*
X176022375Y-67380861D01*
X176156291Y-67436330D01*
X176283280Y-67453048D01*
X176299999Y-67455250D01*
X176300000Y-67455250D01*
X176300001Y-67455250D01*
X176314977Y-67453278D01*
X176443709Y-67436330D01*
X176577625Y-67380861D01*
X176692621Y-67292621D01*
X176780861Y-67177625D01*
X176836330Y-67043709D01*
X176842085Y-67000000D01*
X178444639Y-67000000D01*
X178464071Y-67420316D01*
X178520747Y-67826611D01*
X178522203Y-67837044D01*
X178522204Y-67837050D01*
X178618536Y-68246631D01*
X178752256Y-68645597D01*
X178752257Y-68645601D01*
X178922199Y-69030480D01*
X178922204Y-69030490D01*
X178922208Y-69030499D01*
X178922212Y-69030507D01*
X178922213Y-69030508D01*
X179126949Y-69398081D01*
X179126952Y-69398085D01*
X179126954Y-69398089D01*
X179364743Y-69745218D01*
X179364745Y-69745220D01*
X179364752Y-69745230D01*
X179373073Y-69755250D01*
X179633548Y-70068927D01*
X179931073Y-70366452D01*
X179931084Y-70366461D01*
X180254769Y-70635247D01*
X180254775Y-70635251D01*
X180254782Y-70635257D01*
X180601911Y-70873046D01*
X180969501Y-71077792D01*
X180969518Y-71077799D01*
X180969519Y-71077800D01*
X181354398Y-71247742D01*
X181354402Y-71247743D01*
X181354404Y-71247743D01*
X181354414Y-71247748D01*
X181753366Y-71381463D01*
X182162955Y-71477797D01*
X182579684Y-71535929D01*
X183000000Y-71555361D01*
X183420316Y-71535929D01*
X183837045Y-71477797D01*
X184246634Y-71381463D01*
X184645586Y-71247748D01*
X184645597Y-71247742D01*
X184645601Y-71247742D01*
X184882482Y-71143147D01*
X185030499Y-71077792D01*
X185398089Y-70873046D01*
X185745218Y-70635257D01*
X186068927Y-70366452D01*
X186366452Y-70068927D01*
X186635257Y-69745218D01*
X186873046Y-69398089D01*
X187077792Y-69030499D01*
X187176309Y-68807379D01*
X187247742Y-68645601D01*
X187247743Y-68645597D01*
X187247748Y-68645586D01*
X187381463Y-68246634D01*
X187477797Y-67837045D01*
X187535929Y-67420316D01*
X187555361Y-67000000D01*
X187535929Y-66579684D01*
X187477797Y-66162955D01*
X187381463Y-65753366D01*
X187247748Y-65354414D01*
X187247743Y-65354402D01*
X187247742Y-65354398D01*
X187077800Y-64969519D01*
X187077799Y-64969518D01*
X187077792Y-64969501D01*
X186903071Y-64655817D01*
X186873050Y-64601918D01*
X186873049Y-64601917D01*
X186873046Y-64601911D01*
X186635257Y-64254782D01*
X186635251Y-64254775D01*
X186635247Y-64254769D01*
X186370817Y-63936330D01*
X186366452Y-63931073D01*
X186068927Y-63633548D01*
X185960742Y-63543712D01*
X185745230Y-63364752D01*
X185745220Y-63364745D01*
X185745218Y-63364743D01*
X185398089Y-63126954D01*
X185398085Y-63126952D01*
X185398081Y-63126949D01*
X185030508Y-62922213D01*
X185030507Y-62922212D01*
X185030499Y-62922208D01*
X185030490Y-62922204D01*
X185030480Y-62922199D01*
X184645601Y-62752257D01*
X184645597Y-62752256D01*
X184645588Y-62752253D01*
X184645586Y-62752252D01*
X184246634Y-62618537D01*
X184246633Y-62618536D01*
X184246631Y-62618536D01*
X183837050Y-62522204D01*
X183837047Y-62522203D01*
X183837045Y-62522203D01*
X183538477Y-62480554D01*
X183420324Y-62464072D01*
X183420322Y-62464071D01*
X183420316Y-62464071D01*
X183000000Y-62444639D01*
X182579684Y-62464071D01*
X182579677Y-62464071D01*
X182579675Y-62464072D01*
X182162955Y-62522203D01*
X182162949Y-62522204D01*
X181753368Y-62618536D01*
X181354402Y-62752256D01*
X181354398Y-62752257D01*
X180969519Y-62922199D01*
X180969491Y-62922213D01*
X180601918Y-63126949D01*
X180601912Y-63126953D01*
X180254779Y-63364745D01*
X180254769Y-63364752D01*
X179931084Y-63633538D01*
X179931064Y-63633556D01*
X179633556Y-63931064D01*
X179633538Y-63931084D01*
X179364752Y-64254769D01*
X179364745Y-64254779D01*
X179126953Y-64601912D01*
X179126949Y-64601918D01*
X178922213Y-64969491D01*
X178922199Y-64969519D01*
X178752257Y-65354398D01*
X178752256Y-65354402D01*
X178618536Y-65753368D01*
X178522204Y-66162949D01*
X178522203Y-66162955D01*
X178468282Y-66549500D01*
X178464071Y-66579684D01*
X178444639Y-67000000D01*
X176842085Y-67000000D01*
X176855250Y-66900000D01*
X176854988Y-66898013D01*
X176847839Y-66843708D01*
X176836330Y-66756291D01*
X176780861Y-66622375D01*
X176692621Y-66507379D01*
X176577625Y-66419139D01*
X176577624Y-66419138D01*
X176577622Y-66419137D01*
X176443712Y-66363671D01*
X176443710Y-66363670D01*
X176443709Y-66363670D01*
X176371854Y-66354210D01*
X176300001Y-66344750D01*
X176299999Y-66344750D01*
X176156291Y-66363670D01*
X176156287Y-66363671D01*
X176022377Y-66419137D01*
X175907372Y-66507384D01*
X175901628Y-66513129D01*
X175899111Y-66510612D01*
X175855817Y-66542203D01*
X175813908Y-66549500D01*
X173786092Y-66549500D01*
X173719053Y-66529815D01*
X173699587Y-66511913D01*
X173698372Y-66513129D01*
X173692627Y-66507384D01*
X173692621Y-66507379D01*
X173577625Y-66419139D01*
X173577624Y-66419138D01*
X173577622Y-66419137D01*
X173443712Y-66363671D01*
X173443710Y-66363670D01*
X173443709Y-66363670D01*
X173371854Y-66354210D01*
X173300001Y-66344750D01*
X173299999Y-66344750D01*
X173156291Y-66363670D01*
X173156287Y-66363671D01*
X173022377Y-66419137D01*
X172907379Y-66507379D01*
X172819137Y-66622377D01*
X172763671Y-66756287D01*
X172763670Y-66756291D01*
X172745012Y-66898013D01*
X172744750Y-66900000D01*
X169113014Y-66900000D01*
X169136330Y-66843709D01*
X169155250Y-66700000D01*
X169136330Y-66556291D01*
X169080861Y-66422375D01*
X168992621Y-66307379D01*
X168992619Y-66307377D01*
X168992615Y-66307372D01*
X168986871Y-66301628D01*
X168989387Y-66299111D01*
X168957797Y-66255817D01*
X168950500Y-66213908D01*
X168950500Y-63400000D01*
X171544750Y-63400000D01*
X171554420Y-63473453D01*
X171563670Y-63543708D01*
X171563671Y-63543712D01*
X171619137Y-63677622D01*
X171619138Y-63677624D01*
X171619139Y-63677625D01*
X171707379Y-63792621D01*
X171822375Y-63880861D01*
X171956291Y-63936330D01*
X172083280Y-63953048D01*
X172099999Y-63955250D01*
X172100000Y-63955250D01*
X172100001Y-63955250D01*
X172114977Y-63953278D01*
X172243709Y-63936330D01*
X172377625Y-63880861D01*
X172492621Y-63792621D01*
X172580861Y-63677625D01*
X172636330Y-63543709D01*
X172655250Y-63400000D01*
X172636330Y-63256291D01*
X172587757Y-63139023D01*
X172580862Y-63122377D01*
X172580861Y-63122376D01*
X172580861Y-63122375D01*
X172492621Y-63007379D01*
X172377625Y-62919139D01*
X172377624Y-62919138D01*
X172377622Y-62919137D01*
X172243712Y-62863671D01*
X172243710Y-62863670D01*
X172243709Y-62863670D01*
X172143675Y-62850500D01*
X172100001Y-62844750D01*
X172099999Y-62844750D01*
X171956291Y-62863670D01*
X171956287Y-62863671D01*
X171822377Y-62919137D01*
X171707379Y-63007379D01*
X171619137Y-63122377D01*
X171563671Y-63256287D01*
X171563670Y-63256291D01*
X171549391Y-63364752D01*
X171544750Y-63400000D01*
X168950500Y-63400000D01*
X168950500Y-63353858D01*
X168950500Y-63353856D01*
X168926614Y-63264712D01*
X168921752Y-63256291D01*
X168903626Y-63224895D01*
X168903624Y-63224893D01*
X168899385Y-63217551D01*
X168880470Y-63184788D01*
X167915212Y-62219530D01*
X167915211Y-62219529D01*
X167915208Y-62219527D01*
X167850013Y-62181887D01*
X167801797Y-62131320D01*
X167788574Y-62062713D01*
X167814542Y-61997848D01*
X167871457Y-61957320D01*
X167912013Y-61950500D01*
X174703456Y-61950500D01*
X174770495Y-61970185D01*
X174791137Y-61986819D01*
X175313181Y-62508863D01*
X175346666Y-62570186D01*
X175349500Y-62596544D01*
X175349500Y-64613908D01*
X175329815Y-64680947D01*
X175311913Y-64700412D01*
X175313129Y-64701628D01*
X175307384Y-64707372D01*
X175219137Y-64822377D01*
X175163671Y-64956287D01*
X175163670Y-64956291D01*
X175151841Y-65046143D01*
X175144750Y-65100000D01*
X175154969Y-65177623D01*
X175163670Y-65243708D01*
X175163671Y-65243712D01*
X175219137Y-65377622D01*
X175219138Y-65377624D01*
X175219139Y-65377625D01*
X175307379Y-65492621D01*
X175422375Y-65580861D01*
X175556291Y-65636330D01*
X175683280Y-65653048D01*
X175699999Y-65655250D01*
X175700000Y-65655250D01*
X175700001Y-65655250D01*
X175714977Y-65653278D01*
X175843709Y-65636330D01*
X175977625Y-65580861D01*
X176092621Y-65492621D01*
X176180861Y-65377625D01*
X176236330Y-65243709D01*
X176255250Y-65100000D01*
X176236330Y-64956291D01*
X176180861Y-64822375D01*
X176092621Y-64707379D01*
X176092619Y-64707377D01*
X176092615Y-64707372D01*
X176086871Y-64701628D01*
X176089387Y-64699111D01*
X176057797Y-64655817D01*
X176050500Y-64613908D01*
X176050500Y-62353858D01*
X176050500Y-62353856D01*
X176026614Y-62264712D01*
X176010565Y-62236915D01*
X175980470Y-62184788D01*
X175115212Y-61319530D01*
X175115211Y-61319529D01*
X175115208Y-61319527D01*
X175067334Y-61291887D01*
X175019118Y-61241320D01*
X175005896Y-61172713D01*
X175031864Y-61107848D01*
X175088778Y-61067320D01*
X175129334Y-61060500D01*
X182980343Y-61060500D01*
X182997575Y-61060500D01*
X183002443Y-61060596D01*
X183461158Y-61078618D01*
X183470828Y-61079379D01*
X183924310Y-61133053D01*
X183933914Y-61134574D01*
X184381773Y-61223659D01*
X184391233Y-61225930D01*
X184733208Y-61322377D01*
X184830708Y-61349875D01*
X184839967Y-61352882D01*
X185216930Y-61491952D01*
X185268378Y-61510932D01*
X185277373Y-61514658D01*
X185692061Y-61705831D01*
X185700713Y-61710239D01*
X186099152Y-61933376D01*
X186107417Y-61938442D01*
X186476098Y-62184786D01*
X186487100Y-62192137D01*
X186494974Y-62197857D01*
X186853579Y-62480559D01*
X186860970Y-62486872D01*
X187196290Y-62796838D01*
X187203161Y-62803709D01*
X187513122Y-63139023D01*
X187519442Y-63146423D01*
X187660979Y-63325961D01*
X187802139Y-63505022D01*
X187807862Y-63512899D01*
X188061552Y-63892573D01*
X188066627Y-63900854D01*
X188289755Y-64299277D01*
X188294168Y-64307938D01*
X188485341Y-64722626D01*
X188489067Y-64731621D01*
X188647116Y-65160031D01*
X188650124Y-65169291D01*
X188774068Y-65608762D01*
X188776341Y-65618230D01*
X188865424Y-66066079D01*
X188866947Y-66075695D01*
X188920618Y-66529152D01*
X188921382Y-66538859D01*
X188939404Y-66997556D01*
X188939500Y-67002424D01*
X188939500Y-74876000D01*
X188919815Y-74943039D01*
X188867011Y-74988794D01*
X188815500Y-75000000D01*
X71184500Y-75000000D01*
X71117461Y-74980315D01*
X71071706Y-74927511D01*
X71060500Y-74876000D01*
X71060500Y-73199999D01*
X82344750Y-73199999D01*
X82344750Y-73200000D01*
X82363670Y-73343708D01*
X82363671Y-73343712D01*
X82419137Y-73477622D01*
X82419138Y-73477624D01*
X82419139Y-73477625D01*
X82507379Y-73592621D01*
X82622375Y-73680861D01*
X82756291Y-73736330D01*
X82883280Y-73753048D01*
X82899999Y-73755250D01*
X82900000Y-73755250D01*
X82900001Y-73755250D01*
X82914977Y-73753278D01*
X83043709Y-73736330D01*
X83177625Y-73680861D01*
X83292621Y-73592621D01*
X83363693Y-73499999D01*
X171444750Y-73499999D01*
X171444750Y-73500000D01*
X171463670Y-73643708D01*
X171463671Y-73643712D01*
X171519137Y-73777622D01*
X171519138Y-73777624D01*
X171519139Y-73777625D01*
X171607379Y-73892621D01*
X171722375Y-73980861D01*
X171856291Y-74036330D01*
X171983280Y-74053048D01*
X171999999Y-74055250D01*
X172000000Y-74055250D01*
X172000001Y-74055250D01*
X172014977Y-74053278D01*
X172143709Y-74036330D01*
X172277625Y-73980861D01*
X172392621Y-73892621D01*
X172480861Y-73777625D01*
X172536330Y-73643709D01*
X172555250Y-73500000D01*
X172536330Y-73356291D01*
X172482617Y-73226614D01*
X172480862Y-73222377D01*
X172480861Y-73222376D01*
X172480861Y-73222375D01*
X172392621Y-73107379D01*
X172277625Y-73019139D01*
X172277624Y-73019138D01*
X172277622Y-73019137D01*
X172143712Y-72963671D01*
X172143710Y-72963670D01*
X172143709Y-72963670D01*
X172071854Y-72954210D01*
X172000001Y-72944750D01*
X171999999Y-72944750D01*
X171856291Y-72963670D01*
X171856287Y-72963671D01*
X171722377Y-73019137D01*
X171607379Y-73107379D01*
X171519137Y-73222377D01*
X171463671Y-73356287D01*
X171463670Y-73356291D01*
X171444750Y-73499999D01*
X83363693Y-73499999D01*
X83380861Y-73477625D01*
X83436330Y-73343709D01*
X83455250Y-73200000D01*
X83436330Y-73056291D01*
X83380861Y-72922375D01*
X83363692Y-72900000D01*
X101544750Y-72900000D01*
X101553132Y-72963670D01*
X101563670Y-73043708D01*
X101563671Y-73043712D01*
X101619137Y-73177622D01*
X101619138Y-73177624D01*
X101619139Y-73177625D01*
X101707379Y-73292621D01*
X101822375Y-73380861D01*
X101956291Y-73436330D01*
X102083280Y-73453048D01*
X102099999Y-73455250D01*
X102100000Y-73455250D01*
X102100001Y-73455250D01*
X102114977Y-73453278D01*
X102243709Y-73436330D01*
X102377625Y-73380861D01*
X102492621Y-73292621D01*
X102492623Y-73292617D01*
X102492627Y-73292615D01*
X102498372Y-73286871D01*
X102500888Y-73289387D01*
X102544183Y-73257797D01*
X102586092Y-73250500D01*
X113613908Y-73250500D01*
X113680947Y-73270185D01*
X113700412Y-73288086D01*
X113701628Y-73286871D01*
X113707372Y-73292615D01*
X113707377Y-73292619D01*
X113707379Y-73292621D01*
X113822375Y-73380861D01*
X113956291Y-73436330D01*
X114083280Y-73453048D01*
X114099999Y-73455250D01*
X114100000Y-73455250D01*
X114100001Y-73455250D01*
X114114977Y-73453278D01*
X114243709Y-73436330D01*
X114377625Y-73380861D01*
X114492621Y-73292621D01*
X114492623Y-73292617D01*
X114492627Y-73292615D01*
X114498372Y-73286871D01*
X114500888Y-73289387D01*
X114544183Y-73257797D01*
X114586092Y-73250500D01*
X117246142Y-73250500D01*
X117246144Y-73250500D01*
X117335288Y-73226614D01*
X117342630Y-73222375D01*
X117415212Y-73180470D01*
X118180469Y-72415213D01*
X118226614Y-72335288D01*
X118250500Y-72246144D01*
X118250500Y-71499999D01*
X149544750Y-71499999D01*
X149544750Y-71500000D01*
X149563670Y-71643708D01*
X149563671Y-71643712D01*
X149619137Y-71777622D01*
X149619138Y-71777624D01*
X149619139Y-71777625D01*
X149707379Y-71892621D01*
X149822375Y-71980861D01*
X149956291Y-72036330D01*
X150083280Y-72053048D01*
X150099999Y-72055250D01*
X150100000Y-72055250D01*
X150100001Y-72055250D01*
X150114977Y-72053278D01*
X150243709Y-72036330D01*
X150377625Y-71980861D01*
X150492621Y-71892621D01*
X150580861Y-71777625D01*
X150636330Y-71643709D01*
X150655250Y-71500000D01*
X150655250Y-71499999D01*
X165544750Y-71499999D01*
X165544750Y-71500000D01*
X165563670Y-71643708D01*
X165563671Y-71643712D01*
X165619137Y-71777622D01*
X165619138Y-71777624D01*
X165619139Y-71777625D01*
X165707379Y-71892621D01*
X165822375Y-71980861D01*
X165956291Y-72036330D01*
X166083280Y-72053048D01*
X166099999Y-72055250D01*
X166100000Y-72055250D01*
X166100001Y-72055250D01*
X166114977Y-72053278D01*
X166243709Y-72036330D01*
X166377625Y-71980861D01*
X166492621Y-71892621D01*
X166580861Y-71777625D01*
X166636330Y-71643709D01*
X166655250Y-71500000D01*
X166636330Y-71356291D01*
X166580861Y-71222375D01*
X166492621Y-71107379D01*
X166377625Y-71019139D01*
X166377624Y-71019138D01*
X166377622Y-71019137D01*
X166243712Y-70963671D01*
X166243710Y-70963670D01*
X166243709Y-70963670D01*
X166171854Y-70954210D01*
X166100001Y-70944750D01*
X166099999Y-70944750D01*
X165956291Y-70963670D01*
X165956287Y-70963671D01*
X165822377Y-71019137D01*
X165707379Y-71107379D01*
X165619137Y-71222377D01*
X165563671Y-71356287D01*
X165563670Y-71356291D01*
X165544750Y-71499999D01*
X150655250Y-71499999D01*
X150636330Y-71356291D01*
X150580861Y-71222375D01*
X150492621Y-71107379D01*
X150377625Y-71019139D01*
X150377624Y-71019138D01*
X150377622Y-71019137D01*
X150243712Y-70963671D01*
X150243710Y-70963670D01*
X150243709Y-70963670D01*
X150171854Y-70954210D01*
X150100001Y-70944750D01*
X150099999Y-70944750D01*
X149956291Y-70963670D01*
X149956287Y-70963671D01*
X149822377Y-71019137D01*
X149707379Y-71107379D01*
X149619137Y-71222377D01*
X149563671Y-71356287D01*
X149563670Y-71356291D01*
X149544750Y-71499999D01*
X118250500Y-71499999D01*
X118250500Y-65386092D01*
X118270185Y-65319053D01*
X118288114Y-65299609D01*
X118286874Y-65298369D01*
X118292619Y-65292623D01*
X118292621Y-65292621D01*
X118380861Y-65177625D01*
X118436330Y-65043709D01*
X118455250Y-64900000D01*
X118454988Y-64898013D01*
X118452037Y-64875599D01*
X118436330Y-64756291D01*
X118380861Y-64622375D01*
X118292621Y-64507379D01*
X118177625Y-64419139D01*
X118177624Y-64419138D01*
X118177622Y-64419137D01*
X118043712Y-64363671D01*
X118043710Y-64363670D01*
X118043709Y-64363670D01*
X117971854Y-64354210D01*
X117900001Y-64344750D01*
X117899999Y-64344750D01*
X117756291Y-64363670D01*
X117756287Y-64363671D01*
X117622377Y-64419137D01*
X117507379Y-64507379D01*
X117419137Y-64622377D01*
X117363671Y-64756287D01*
X117363670Y-64756291D01*
X117345012Y-64898013D01*
X117344750Y-64900000D01*
X117361974Y-65030830D01*
X117363670Y-65043708D01*
X117363671Y-65043712D01*
X117419138Y-65177623D01*
X117419139Y-65177625D01*
X117507380Y-65292623D01*
X117513126Y-65298369D01*
X117510574Y-65300920D01*
X117542091Y-65343873D01*
X117549500Y-65386092D01*
X117549500Y-72003456D01*
X117529815Y-72070495D01*
X117513181Y-72091137D01*
X117091137Y-72513181D01*
X117029814Y-72546666D01*
X117003456Y-72549500D01*
X114586092Y-72549500D01*
X114519053Y-72529815D01*
X114499587Y-72511913D01*
X114498372Y-72513129D01*
X114492627Y-72507384D01*
X114492621Y-72507379D01*
X114377625Y-72419139D01*
X114377624Y-72419138D01*
X114377622Y-72419137D01*
X114243712Y-72363671D01*
X114243710Y-72363670D01*
X114243709Y-72363670D01*
X114171854Y-72354210D01*
X114100001Y-72344750D01*
X114099999Y-72344750D01*
X113956291Y-72363670D01*
X113956287Y-72363671D01*
X113822377Y-72419137D01*
X113707372Y-72507384D01*
X113701628Y-72513129D01*
X113699111Y-72510612D01*
X113655817Y-72542203D01*
X113613908Y-72549500D01*
X102586092Y-72549500D01*
X102519053Y-72529815D01*
X102499587Y-72511913D01*
X102498372Y-72513129D01*
X102492627Y-72507384D01*
X102492621Y-72507379D01*
X102377625Y-72419139D01*
X102377624Y-72419138D01*
X102377622Y-72419137D01*
X102243712Y-72363671D01*
X102243710Y-72363670D01*
X102243709Y-72363670D01*
X102171854Y-72354210D01*
X102100001Y-72344750D01*
X102099999Y-72344750D01*
X101956291Y-72363670D01*
X101956287Y-72363671D01*
X101822377Y-72419137D01*
X101707379Y-72507379D01*
X101619137Y-72622377D01*
X101563671Y-72756287D01*
X101563670Y-72756291D01*
X101544750Y-72900000D01*
X83363692Y-72900000D01*
X83292621Y-72807379D01*
X83177625Y-72719139D01*
X83177624Y-72719138D01*
X83177622Y-72719137D01*
X83043712Y-72663671D01*
X83043710Y-72663670D01*
X83043709Y-72663670D01*
X82971854Y-72654210D01*
X82900001Y-72644750D01*
X82899999Y-72644750D01*
X82756291Y-72663670D01*
X82756287Y-72663671D01*
X82622377Y-72719137D01*
X82507379Y-72807379D01*
X82419137Y-72922377D01*
X82363671Y-73056287D01*
X82363670Y-73056291D01*
X82344750Y-73199999D01*
X71060500Y-73199999D01*
X71060500Y-67002424D01*
X71060548Y-67000000D01*
X72444639Y-67000000D01*
X72464071Y-67420316D01*
X72520747Y-67826611D01*
X72522203Y-67837044D01*
X72522204Y-67837050D01*
X72618536Y-68246631D01*
X72752256Y-68645597D01*
X72752257Y-68645601D01*
X72922199Y-69030480D01*
X72922204Y-69030490D01*
X72922208Y-69030499D01*
X72922212Y-69030507D01*
X72922213Y-69030508D01*
X73126949Y-69398081D01*
X73126952Y-69398085D01*
X73126954Y-69398089D01*
X73364743Y-69745218D01*
X73364745Y-69745220D01*
X73364752Y-69745230D01*
X73373073Y-69755250D01*
X73633548Y-70068927D01*
X73931073Y-70366452D01*
X73931084Y-70366461D01*
X74254769Y-70635247D01*
X74254775Y-70635251D01*
X74254782Y-70635257D01*
X74601911Y-70873046D01*
X74969501Y-71077792D01*
X74969518Y-71077799D01*
X74969519Y-71077800D01*
X75354398Y-71247742D01*
X75354402Y-71247743D01*
X75354404Y-71247743D01*
X75354414Y-71247748D01*
X75753366Y-71381463D01*
X76162955Y-71477797D01*
X76579684Y-71535929D01*
X77000000Y-71555361D01*
X77420316Y-71535929D01*
X77677886Y-71499999D01*
X92049750Y-71499999D01*
X92049750Y-71500000D01*
X92068670Y-71643708D01*
X92068671Y-71643712D01*
X92124137Y-71777622D01*
X92124138Y-71777624D01*
X92124139Y-71777625D01*
X92212379Y-71892621D01*
X92327375Y-71980861D01*
X92461291Y-72036330D01*
X92588280Y-72053048D01*
X92604999Y-72055250D01*
X92605000Y-72055250D01*
X92605001Y-72055250D01*
X92619977Y-72053278D01*
X92748709Y-72036330D01*
X92882625Y-71980861D01*
X92997621Y-71892621D01*
X93085861Y-71777625D01*
X93141330Y-71643709D01*
X93160250Y-71500000D01*
X93141330Y-71356291D01*
X93085861Y-71222375D01*
X92997621Y-71107379D01*
X92882625Y-71019139D01*
X92882624Y-71019138D01*
X92882622Y-71019137D01*
X92748712Y-70963671D01*
X92748710Y-70963670D01*
X92748709Y-70963670D01*
X92676854Y-70954210D01*
X92605001Y-70944750D01*
X92604999Y-70944750D01*
X92461291Y-70963670D01*
X92461287Y-70963671D01*
X92327377Y-71019137D01*
X92212379Y-71107379D01*
X92124137Y-71222377D01*
X92068671Y-71356287D01*
X92068670Y-71356291D01*
X92049750Y-71499999D01*
X77677886Y-71499999D01*
X77837045Y-71477797D01*
X78246634Y-71381463D01*
X78645586Y-71247748D01*
X78645597Y-71247742D01*
X78645601Y-71247742D01*
X78882482Y-71143147D01*
X79030499Y-71077792D01*
X79398089Y-70873046D01*
X79745218Y-70635257D01*
X80068927Y-70366452D01*
X80366452Y-70068927D01*
X80635257Y-69745218D01*
X80873046Y-69398089D01*
X80983381Y-69199999D01*
X101544750Y-69199999D01*
X101544750Y-69200000D01*
X101563670Y-69343708D01*
X101563671Y-69343712D01*
X101619137Y-69477622D01*
X101619138Y-69477624D01*
X101619139Y-69477625D01*
X101707379Y-69592621D01*
X101822375Y-69680861D01*
X101956291Y-69736330D01*
X102083280Y-69753048D01*
X102099999Y-69755250D01*
X102100000Y-69755250D01*
X102100001Y-69755250D01*
X102114977Y-69753278D01*
X102243709Y-69736330D01*
X102377625Y-69680861D01*
X102492621Y-69592621D01*
X102580861Y-69477625D01*
X102636330Y-69343709D01*
X102655250Y-69200000D01*
X102655250Y-69199999D01*
X113544750Y-69199999D01*
X113544750Y-69200000D01*
X113563670Y-69343708D01*
X113563671Y-69343712D01*
X113619137Y-69477622D01*
X113619138Y-69477624D01*
X113619139Y-69477625D01*
X113707379Y-69592621D01*
X113822375Y-69680861D01*
X113956291Y-69736330D01*
X114083280Y-69753048D01*
X114099999Y-69755250D01*
X114100000Y-69755250D01*
X114100001Y-69755250D01*
X114114977Y-69753278D01*
X114243709Y-69736330D01*
X114377625Y-69680861D01*
X114492621Y-69592621D01*
X114580861Y-69477625D01*
X114636330Y-69343709D01*
X114655250Y-69200000D01*
X114636330Y-69056291D01*
X114580861Y-68922375D01*
X114492621Y-68807379D01*
X114377625Y-68719139D01*
X114377624Y-68719138D01*
X114377622Y-68719137D01*
X114243712Y-68663671D01*
X114243710Y-68663670D01*
X114243709Y-68663670D01*
X114171854Y-68654210D01*
X114100001Y-68644750D01*
X114099999Y-68644750D01*
X113956291Y-68663670D01*
X113956287Y-68663671D01*
X113822377Y-68719137D01*
X113707379Y-68807379D01*
X113619137Y-68922377D01*
X113563671Y-69056287D01*
X113563670Y-69056291D01*
X113544750Y-69199999D01*
X102655250Y-69199999D01*
X102636330Y-69056291D01*
X102580861Y-68922375D01*
X102492621Y-68807379D01*
X102377625Y-68719139D01*
X102377624Y-68719138D01*
X102377622Y-68719137D01*
X102243712Y-68663671D01*
X102243710Y-68663670D01*
X102243709Y-68663670D01*
X102171854Y-68654210D01*
X102100001Y-68644750D01*
X102099999Y-68644750D01*
X101956291Y-68663670D01*
X101956287Y-68663671D01*
X101822377Y-68719137D01*
X101707379Y-68807379D01*
X101619137Y-68922377D01*
X101563671Y-69056287D01*
X101563670Y-69056291D01*
X101544750Y-69199999D01*
X80983381Y-69199999D01*
X81077792Y-69030499D01*
X81176309Y-68807379D01*
X81247742Y-68645601D01*
X81247743Y-68645597D01*
X81247748Y-68645586D01*
X81381463Y-68246634D01*
X81477797Y-67837045D01*
X81510864Y-67599999D01*
X97344750Y-67599999D01*
X97344750Y-67600000D01*
X97363670Y-67743708D01*
X97363671Y-67743712D01*
X97419137Y-67877622D01*
X97419138Y-67877624D01*
X97419139Y-67877625D01*
X97507379Y-67992621D01*
X97622375Y-68080861D01*
X97756291Y-68136330D01*
X97883280Y-68153048D01*
X97899999Y-68155250D01*
X97900000Y-68155250D01*
X97900001Y-68155250D01*
X97914977Y-68153278D01*
X98043709Y-68136330D01*
X98177625Y-68080861D01*
X98292621Y-67992621D01*
X98380861Y-67877625D01*
X98436330Y-67743709D01*
X98455250Y-67600000D01*
X98455250Y-67599999D01*
X104944750Y-67599999D01*
X104944750Y-67600000D01*
X104963670Y-67743708D01*
X104963671Y-67743712D01*
X105019137Y-67877622D01*
X105019138Y-67877624D01*
X105019139Y-67877625D01*
X105107379Y-67992621D01*
X105222375Y-68080861D01*
X105356291Y-68136330D01*
X105483280Y-68153048D01*
X105499999Y-68155250D01*
X105500000Y-68155250D01*
X105500001Y-68155250D01*
X105514977Y-68153278D01*
X105643709Y-68136330D01*
X105777625Y-68080861D01*
X105892621Y-67992621D01*
X105980861Y-67877625D01*
X106036330Y-67743709D01*
X106055250Y-67600000D01*
X106055250Y-67599999D01*
X109444750Y-67599999D01*
X109444750Y-67600000D01*
X109463670Y-67743708D01*
X109463671Y-67743712D01*
X109519137Y-67877622D01*
X109519138Y-67877624D01*
X109519139Y-67877625D01*
X109607379Y-67992621D01*
X109722375Y-68080861D01*
X109856291Y-68136330D01*
X109983280Y-68153048D01*
X109999999Y-68155250D01*
X110000000Y-68155250D01*
X110000001Y-68155250D01*
X110014977Y-68153278D01*
X110143709Y-68136330D01*
X110277625Y-68080861D01*
X110392621Y-67992621D01*
X110480861Y-67877625D01*
X110536330Y-67743709D01*
X110555250Y-67600000D01*
X110536330Y-67456291D01*
X110486641Y-67336329D01*
X110480862Y-67322377D01*
X110480861Y-67322376D01*
X110480861Y-67322375D01*
X110392621Y-67207379D01*
X110277625Y-67119139D01*
X110277624Y-67119138D01*
X110277622Y-67119137D01*
X110143712Y-67063671D01*
X110143710Y-67063670D01*
X110143709Y-67063670D01*
X110043675Y-67050500D01*
X110000001Y-67044750D01*
X109999999Y-67044750D01*
X109856291Y-67063670D01*
X109856287Y-67063671D01*
X109722377Y-67119137D01*
X109607379Y-67207379D01*
X109519137Y-67322377D01*
X109463671Y-67456287D01*
X109463670Y-67456291D01*
X109444750Y-67599999D01*
X106055250Y-67599999D01*
X106036330Y-67456291D01*
X105986641Y-67336329D01*
X105980862Y-67322377D01*
X105980861Y-67322376D01*
X105980861Y-67322375D01*
X105892621Y-67207379D01*
X105777625Y-67119139D01*
X105777624Y-67119138D01*
X105777622Y-67119137D01*
X105643712Y-67063671D01*
X105643710Y-67063670D01*
X105643709Y-67063670D01*
X105543675Y-67050500D01*
X105500001Y-67044750D01*
X105499999Y-67044750D01*
X105356291Y-67063670D01*
X105356287Y-67063671D01*
X105222377Y-67119137D01*
X105107379Y-67207379D01*
X105019137Y-67322377D01*
X104963671Y-67456287D01*
X104963670Y-67456291D01*
X104944750Y-67599999D01*
X98455250Y-67599999D01*
X98436330Y-67456291D01*
X98386641Y-67336329D01*
X98380862Y-67322377D01*
X98380861Y-67322376D01*
X98380861Y-67322375D01*
X98292621Y-67207379D01*
X98177625Y-67119139D01*
X98177624Y-67119138D01*
X98177622Y-67119137D01*
X98043712Y-67063671D01*
X98043710Y-67063670D01*
X98043709Y-67063670D01*
X97943675Y-67050500D01*
X97900001Y-67044750D01*
X97899999Y-67044750D01*
X97756291Y-67063670D01*
X97756287Y-67063671D01*
X97622377Y-67119137D01*
X97507379Y-67207379D01*
X97419137Y-67322377D01*
X97363671Y-67456287D01*
X97363670Y-67456291D01*
X97344750Y-67599999D01*
X81510864Y-67599999D01*
X81535929Y-67420316D01*
X81555361Y-67000000D01*
X81550738Y-66900000D01*
X85144750Y-66900000D01*
X85157915Y-67000000D01*
X85163670Y-67043708D01*
X85163671Y-67043712D01*
X85219137Y-67177622D01*
X85219138Y-67177624D01*
X85219139Y-67177625D01*
X85307379Y-67292621D01*
X85422375Y-67380861D01*
X85556291Y-67436330D01*
X85683280Y-67453048D01*
X85699999Y-67455250D01*
X85700000Y-67455250D01*
X85700001Y-67455250D01*
X85714977Y-67453278D01*
X85843709Y-67436330D01*
X85977625Y-67380861D01*
X86092621Y-67292621D01*
X86092623Y-67292617D01*
X86092627Y-67292615D01*
X86098372Y-67286871D01*
X86100888Y-67289387D01*
X86144183Y-67257797D01*
X86186092Y-67250500D01*
X87313908Y-67250500D01*
X87380947Y-67270185D01*
X87400412Y-67288086D01*
X87401628Y-67286871D01*
X87407372Y-67292615D01*
X87407377Y-67292619D01*
X87407379Y-67292621D01*
X87522375Y-67380861D01*
X87656291Y-67436330D01*
X87783280Y-67453048D01*
X87799999Y-67455250D01*
X87800000Y-67455250D01*
X87800001Y-67455250D01*
X87814977Y-67453278D01*
X87943709Y-67436330D01*
X88077625Y-67380861D01*
X88192621Y-67292621D01*
X88280861Y-67177625D01*
X88336330Y-67043709D01*
X88355250Y-66900000D01*
X88354988Y-66898013D01*
X88347839Y-66843708D01*
X88336330Y-66756291D01*
X88280861Y-66622375D01*
X88192621Y-66507379D01*
X88077625Y-66419139D01*
X88077624Y-66419138D01*
X88077622Y-66419137D01*
X87943712Y-66363671D01*
X87943710Y-66363670D01*
X87943709Y-66363670D01*
X87871854Y-66354210D01*
X87800001Y-66344750D01*
X87799999Y-66344750D01*
X87656291Y-66363670D01*
X87656287Y-66363671D01*
X87522377Y-66419137D01*
X87407372Y-66507384D01*
X87401628Y-66513129D01*
X87399111Y-66510612D01*
X87355817Y-66542203D01*
X87313908Y-66549500D01*
X86186092Y-66549500D01*
X86119053Y-66529815D01*
X86099587Y-66511913D01*
X86098372Y-66513129D01*
X86092627Y-66507384D01*
X86092621Y-66507379D01*
X85977625Y-66419139D01*
X85977624Y-66419138D01*
X85977622Y-66419137D01*
X85843712Y-66363671D01*
X85843710Y-66363670D01*
X85843709Y-66363670D01*
X85771854Y-66354210D01*
X85700001Y-66344750D01*
X85699999Y-66344750D01*
X85556291Y-66363670D01*
X85556287Y-66363671D01*
X85422377Y-66419137D01*
X85307379Y-66507379D01*
X85219137Y-66622377D01*
X85163671Y-66756287D01*
X85163670Y-66756291D01*
X85145012Y-66898013D01*
X85144750Y-66900000D01*
X81550738Y-66900000D01*
X81535929Y-66579684D01*
X81477797Y-66162955D01*
X81381463Y-65753366D01*
X81247748Y-65354414D01*
X81247743Y-65354402D01*
X81247742Y-65354398D01*
X81223723Y-65300000D01*
X93149750Y-65300000D01*
X93161084Y-65386092D01*
X93168670Y-65443708D01*
X93168671Y-65443712D01*
X93224137Y-65577622D01*
X93224138Y-65577624D01*
X93224139Y-65577625D01*
X93312379Y-65692621D01*
X93427375Y-65780861D01*
X93561291Y-65836330D01*
X93688280Y-65853048D01*
X93704999Y-65855250D01*
X93705000Y-65855250D01*
X93705001Y-65855250D01*
X93719977Y-65853278D01*
X93848709Y-65836330D01*
X93982625Y-65780861D01*
X94097621Y-65692621D01*
X94185861Y-65577625D01*
X94241330Y-65443709D01*
X94260250Y-65300000D01*
X94241330Y-65156291D01*
X94187768Y-65026979D01*
X94185862Y-65022377D01*
X94185861Y-65022376D01*
X94185861Y-65022375D01*
X94097621Y-64907379D01*
X93982625Y-64819139D01*
X93982624Y-64819138D01*
X93982622Y-64819137D01*
X93848712Y-64763671D01*
X93848710Y-64763670D01*
X93848709Y-64763670D01*
X93776854Y-64754210D01*
X93705001Y-64744750D01*
X93704999Y-64744750D01*
X93561291Y-64763670D01*
X93561287Y-64763671D01*
X93427377Y-64819137D01*
X93312379Y-64907379D01*
X93224137Y-65022377D01*
X93168671Y-65156287D01*
X93168670Y-65156291D01*
X93149750Y-65300000D01*
X81223723Y-65300000D01*
X81077800Y-64969519D01*
X81077799Y-64969518D01*
X81077792Y-64969501D01*
X80903071Y-64655817D01*
X80873050Y-64601918D01*
X80873049Y-64601917D01*
X80873046Y-64601911D01*
X80635257Y-64254782D01*
X80635251Y-64254775D01*
X80635247Y-64254769D01*
X80370817Y-63936330D01*
X80366452Y-63931073D01*
X80068927Y-63633548D01*
X79960742Y-63543712D01*
X79745230Y-63364752D01*
X79745220Y-63364745D01*
X79745218Y-63364743D01*
X79398089Y-63126954D01*
X79398085Y-63126952D01*
X79398081Y-63126949D01*
X79030508Y-62922213D01*
X79030507Y-62922212D01*
X79030499Y-62922208D01*
X79030490Y-62922204D01*
X79030480Y-62922199D01*
X78645601Y-62752257D01*
X78645597Y-62752256D01*
X78645588Y-62752253D01*
X78645586Y-62752252D01*
X78246634Y-62618537D01*
X78246633Y-62618536D01*
X78246631Y-62618536D01*
X77837050Y-62522204D01*
X77837047Y-62522203D01*
X77837045Y-62522203D01*
X77538477Y-62480554D01*
X77420324Y-62464072D01*
X77420322Y-62464071D01*
X77420316Y-62464071D01*
X77000000Y-62444639D01*
X76579684Y-62464071D01*
X76579677Y-62464071D01*
X76579675Y-62464072D01*
X76162955Y-62522203D01*
X76162949Y-62522204D01*
X75753368Y-62618536D01*
X75354402Y-62752256D01*
X75354398Y-62752257D01*
X74969519Y-62922199D01*
X74969491Y-62922213D01*
X74601918Y-63126949D01*
X74601912Y-63126953D01*
X74254779Y-63364745D01*
X74254769Y-63364752D01*
X73931084Y-63633538D01*
X73931064Y-63633556D01*
X73633556Y-63931064D01*
X73633538Y-63931084D01*
X73364752Y-64254769D01*
X73364745Y-64254779D01*
X73126953Y-64601912D01*
X73126949Y-64601918D01*
X72922213Y-64969491D01*
X72922199Y-64969519D01*
X72752257Y-65354398D01*
X72752256Y-65354402D01*
X72618536Y-65753368D01*
X72522204Y-66162949D01*
X72522203Y-66162955D01*
X72468282Y-66549500D01*
X72464071Y-66579684D01*
X72444639Y-67000000D01*
X71060548Y-67000000D01*
X71060596Y-66997556D01*
X71061840Y-66965892D01*
X71078618Y-66538839D01*
X71079379Y-66529173D01*
X71133053Y-66075685D01*
X71134575Y-66066079D01*
X71147535Y-66000928D01*
X71223660Y-65618220D01*
X71225931Y-65608762D01*
X71228544Y-65599500D01*
X71349877Y-65169283D01*
X71352883Y-65160031D01*
X71354263Y-65156291D01*
X71510935Y-64731612D01*
X71514658Y-64722626D01*
X71521687Y-64707379D01*
X71705837Y-64307924D01*
X71710233Y-64299297D01*
X71933383Y-63900835D01*
X71938434Y-63892593D01*
X72192147Y-63512883D01*
X72197848Y-63505037D01*
X72480569Y-63146407D01*
X72486861Y-63139041D01*
X72796850Y-62803696D01*
X72803696Y-62796850D01*
X73139041Y-62486861D01*
X73146407Y-62480569D01*
X73248608Y-62400000D01*
X84144750Y-62400000D01*
X84147331Y-62419608D01*
X84163670Y-62543708D01*
X84163671Y-62543712D01*
X84219137Y-62677622D01*
X84219138Y-62677624D01*
X84219139Y-62677625D01*
X84307379Y-62792621D01*
X84422375Y-62880861D01*
X84422376Y-62880861D01*
X84422377Y-62880862D01*
X84467013Y-62899350D01*
X84556291Y-62936330D01*
X84683280Y-62953048D01*
X84699999Y-62955250D01*
X84700000Y-62955250D01*
X84700001Y-62955250D01*
X84714977Y-62953278D01*
X84843709Y-62936330D01*
X84977625Y-62880861D01*
X85092621Y-62792621D01*
X85180861Y-62677625D01*
X85236330Y-62543709D01*
X85255250Y-62400000D01*
X85236330Y-62256291D01*
X85186641Y-62136329D01*
X85180862Y-62122377D01*
X85180861Y-62122376D01*
X85180861Y-62122375D01*
X85092621Y-62007379D01*
X84977625Y-61919139D01*
X84977624Y-61919138D01*
X84977622Y-61919137D01*
X84843712Y-61863671D01*
X84843710Y-61863670D01*
X84843709Y-61863670D01*
X84771854Y-61854210D01*
X84700001Y-61844750D01*
X84699999Y-61844750D01*
X84556291Y-61863670D01*
X84556287Y-61863671D01*
X84422377Y-61919137D01*
X84307379Y-62007379D01*
X84219137Y-62122377D01*
X84163671Y-62256287D01*
X84163670Y-62256291D01*
X84144750Y-62400000D01*
X73248608Y-62400000D01*
X73505037Y-62197848D01*
X73512883Y-62192147D01*
X73892593Y-61938434D01*
X73900835Y-61933383D01*
X74299297Y-61710233D01*
X74307924Y-61705837D01*
X74722634Y-61514654D01*
X74731612Y-61510935D01*
X75160039Y-61352880D01*
X75169283Y-61349877D01*
X75608772Y-61225928D01*
X75618220Y-61223660D01*
X76066089Y-61134573D01*
X76075685Y-61133053D01*
X76529173Y-61079379D01*
X76538839Y-61078618D01*
X76997557Y-61060596D01*
X77002425Y-61060500D01*
X77019657Y-61060500D01*
X86668636Y-61060500D01*
X86735675Y-61080185D01*
G37*
%TD.AperFunction*%
%TA.AperFunction,Conductor*%
G36*
X139624245Y-62870185D02*
G01*
X139670000Y-62922989D01*
X139679944Y-62992147D01*
X139650919Y-63055703D01*
X139604658Y-63089061D01*
X139573459Y-63101983D01*
X139573446Y-63101990D01*
X139425965Y-63200535D01*
X139425961Y-63200538D01*
X139300538Y-63325961D01*
X139300535Y-63325965D01*
X139201990Y-63473446D01*
X139201983Y-63473459D01*
X139134106Y-63637332D01*
X139134103Y-63637341D01*
X139099500Y-63811304D01*
X139099500Y-64188695D01*
X139134103Y-64362658D01*
X139134106Y-64362667D01*
X139201983Y-64526540D01*
X139201990Y-64526553D01*
X139300535Y-64674034D01*
X139300538Y-64674038D01*
X139425961Y-64799461D01*
X139425965Y-64799464D01*
X139571783Y-64896898D01*
X139616588Y-64950511D01*
X139625295Y-65019836D01*
X139595140Y-65082863D01*
X139571783Y-65103102D01*
X139425965Y-65200535D01*
X139425961Y-65200538D01*
X139300538Y-65325961D01*
X139300535Y-65325965D01*
X139201990Y-65473446D01*
X139201983Y-65473459D01*
X139134106Y-65637332D01*
X139134103Y-65637341D01*
X139099500Y-65811304D01*
X139099500Y-66188695D01*
X139134103Y-66362658D01*
X139134106Y-66362667D01*
X139201983Y-66526540D01*
X139201990Y-66526553D01*
X139300535Y-66674034D01*
X139300538Y-66674038D01*
X139425961Y-66799461D01*
X139425965Y-66799464D01*
X139573446Y-66898009D01*
X139573459Y-66898016D01*
X139604658Y-66910939D01*
X139659062Y-66954780D01*
X139681127Y-67021074D01*
X139663848Y-67088773D01*
X139612711Y-67136384D01*
X139557206Y-67149500D01*
X136442794Y-67149500D01*
X136375755Y-67129815D01*
X136330000Y-67077011D01*
X136320056Y-67007853D01*
X136349081Y-66944297D01*
X136395342Y-66910939D01*
X136426540Y-66898016D01*
X136426540Y-66898015D01*
X136426547Y-66898013D01*
X136574035Y-66799464D01*
X136699464Y-66674035D01*
X136798013Y-66526547D01*
X136805951Y-66507384D01*
X136816936Y-66480862D01*
X136865894Y-66362666D01*
X136867257Y-66355817D01*
X136900499Y-66188695D01*
X136900500Y-66188693D01*
X136900500Y-65811306D01*
X136900499Y-65811304D01*
X136865896Y-65637341D01*
X136865893Y-65637332D01*
X136798016Y-65473459D01*
X136798009Y-65473446D01*
X136699464Y-65325965D01*
X136699461Y-65325961D01*
X136574038Y-65200538D01*
X136574034Y-65200535D01*
X136428216Y-65103102D01*
X136383411Y-65049490D01*
X136374704Y-64980165D01*
X136404859Y-64917137D01*
X136428216Y-64896898D01*
X136491192Y-64854818D01*
X136574035Y-64799464D01*
X136699464Y-64674035D01*
X136798013Y-64526547D01*
X136865894Y-64362666D01*
X136874337Y-64320224D01*
X136900499Y-64188695D01*
X136900500Y-64188693D01*
X136900500Y-63811306D01*
X136900499Y-63811304D01*
X136865896Y-63637341D01*
X136865893Y-63637332D01*
X136798016Y-63473459D01*
X136798009Y-63473446D01*
X136699464Y-63325965D01*
X136699461Y-63325961D01*
X136574038Y-63200538D01*
X136574034Y-63200535D01*
X136426553Y-63101990D01*
X136426540Y-63101983D01*
X136395342Y-63089061D01*
X136340938Y-63045220D01*
X136318873Y-62978926D01*
X136336152Y-62911227D01*
X136387289Y-62863616D01*
X136442794Y-62850500D01*
X139557206Y-62850500D01*
X139624245Y-62870185D01*
G37*
%TD.AperFunction*%
%TD*%
%TA.AperFunction,Conductor*%
%TO.N,GND_PWR*%
G36*
X165443039Y-94319685D02*
G01*
X165488794Y-94372489D01*
X165500000Y-94424000D01*
X165500000Y-99076000D01*
X165480315Y-99143039D01*
X165427511Y-99188794D01*
X165376000Y-99200000D01*
X162924000Y-99200000D01*
X162856961Y-99180315D01*
X162811206Y-99127511D01*
X162800000Y-99076000D01*
X162800000Y-94424000D01*
X162819685Y-94356961D01*
X162872489Y-94311206D01*
X162924000Y-94300000D01*
X165376000Y-94300000D01*
X165443039Y-94319685D01*
G37*
%TD.AperFunction*%
%TD*%
%TA.AperFunction,Conductor*%
%TO.N,GND_PWR*%
G36*
X164543039Y-120919685D02*
G01*
X164588794Y-120972489D01*
X164600000Y-121024000D01*
X164600000Y-125676000D01*
X164580315Y-125743039D01*
X164527511Y-125788794D01*
X164476000Y-125800000D01*
X162024000Y-125800000D01*
X161956961Y-125780315D01*
X161911206Y-125727511D01*
X161900000Y-125676000D01*
X161900000Y-121024000D01*
X161919685Y-120956961D01*
X161972489Y-120911206D01*
X162024000Y-120900000D01*
X164476000Y-120900000D01*
X164543039Y-120919685D01*
G37*
%TD.AperFunction*%
%TD*%
%TA.AperFunction,Conductor*%
%TO.N,Net-(L1-Pad2)*%
G36*
X151643039Y-77819685D02*
G01*
X151688794Y-77872489D01*
X151700000Y-77924000D01*
X151700000Y-84876000D01*
X151680315Y-84943039D01*
X151627511Y-84988794D01*
X151576000Y-85000000D01*
X150500000Y-85000000D01*
X150500000Y-116376000D01*
X150480315Y-116443039D01*
X150427511Y-116488794D01*
X150376000Y-116500000D01*
X142124000Y-116500000D01*
X142056961Y-116480315D01*
X142011206Y-116427511D01*
X142000000Y-116376000D01*
X142000000Y-77924000D01*
X142019685Y-77856961D01*
X142072489Y-77811206D01*
X142124000Y-77800000D01*
X151576000Y-77800000D01*
X151643039Y-77819685D01*
G37*
%TD.AperFunction*%
%TD*%
%TA.AperFunction,Conductor*%
%TO.N,+VOUT*%
G36*
X167643039Y-77819685D02*
G01*
X167688794Y-77872489D01*
X167700000Y-77924000D01*
X167700000Y-93000000D01*
X169876000Y-93000000D01*
X169943039Y-93019685D01*
X169988794Y-93072489D01*
X170000000Y-93124000D01*
X170000000Y-102000000D01*
X174876000Y-102000000D01*
X174943039Y-102019685D01*
X174988794Y-102072489D01*
X175000000Y-102124000D01*
X175000000Y-128815500D01*
X174980315Y-128882539D01*
X174927511Y-128928294D01*
X174876000Y-128939500D01*
X152424000Y-128939500D01*
X152356961Y-128919815D01*
X152311206Y-128867011D01*
X152300000Y-128815500D01*
X152300000Y-118624000D01*
X152894500Y-118624000D01*
X152894500Y-125576000D01*
X152894501Y-125576009D01*
X152906052Y-125683450D01*
X152906054Y-125683462D01*
X152917260Y-125734972D01*
X152951383Y-125837497D01*
X152951386Y-125837503D01*
X153029171Y-125958537D01*
X153029179Y-125958548D01*
X153074923Y-126011340D01*
X153074926Y-126011343D01*
X153074930Y-126011347D01*
X153183664Y-126105567D01*
X153183667Y-126105568D01*
X153183668Y-126105569D01*
X153277925Y-126148616D01*
X153314541Y-126165338D01*
X153381580Y-126185023D01*
X153381584Y-126185024D01*
X153524000Y-126205500D01*
X153524003Y-126205500D01*
X155975990Y-126205500D01*
X155976000Y-126205500D01*
X156083456Y-126193947D01*
X156134967Y-126182741D01*
X156170783Y-126170820D01*
X156237497Y-126148616D01*
X156237501Y-126148613D01*
X156237504Y-126148613D01*
X156358543Y-126070825D01*
X156411347Y-126025070D01*
X156505567Y-125916336D01*
X156565338Y-125785459D01*
X156585023Y-125718420D01*
X156585024Y-125718416D01*
X156605500Y-125576000D01*
X156605500Y-121024000D01*
X161394500Y-121024000D01*
X161394500Y-125676000D01*
X161394501Y-125676009D01*
X161406052Y-125783450D01*
X161406054Y-125783462D01*
X161417260Y-125834972D01*
X161451383Y-125937497D01*
X161451386Y-125937503D01*
X161529171Y-126058537D01*
X161529179Y-126058548D01*
X161574923Y-126111340D01*
X161574926Y-126111343D01*
X161574930Y-126111347D01*
X161683664Y-126205567D01*
X161683667Y-126205568D01*
X161683668Y-126205569D01*
X161777925Y-126248616D01*
X161814541Y-126265338D01*
X161881580Y-126285023D01*
X161881584Y-126285024D01*
X162024000Y-126305500D01*
X162024003Y-126305500D01*
X164475990Y-126305500D01*
X164476000Y-126305500D01*
X164583456Y-126293947D01*
X164634967Y-126282741D01*
X164669197Y-126271347D01*
X164737497Y-126248616D01*
X164737501Y-126248613D01*
X164737504Y-126248613D01*
X164858543Y-126170825D01*
X164911347Y-126125070D01*
X165005567Y-126016336D01*
X165065338Y-125885459D01*
X165085023Y-125818420D01*
X165085024Y-125818416D01*
X165105500Y-125676000D01*
X165105500Y-121299998D01*
X167394532Y-121299998D01*
X167394532Y-121300001D01*
X167414364Y-121526686D01*
X167414366Y-121526697D01*
X167473258Y-121746488D01*
X167473261Y-121746497D01*
X167569431Y-121952732D01*
X167569432Y-121952734D01*
X167699954Y-122139141D01*
X167860858Y-122300045D01*
X167860861Y-122300047D01*
X168047266Y-122430568D01*
X168253504Y-122526739D01*
X168473308Y-122585635D01*
X168635230Y-122599801D01*
X168699998Y-122605468D01*
X168700000Y-122605468D01*
X168700002Y-122605468D01*
X168756673Y-122600509D01*
X168926692Y-122585635D01*
X169146496Y-122526739D01*
X169352734Y-122430568D01*
X169539139Y-122300047D01*
X169700047Y-122139139D01*
X169830568Y-121952734D01*
X169926739Y-121746496D01*
X169985635Y-121526692D01*
X170005468Y-121300000D01*
X169985635Y-121073308D01*
X169926739Y-120853504D01*
X169830568Y-120647266D01*
X169700047Y-120460861D01*
X169700045Y-120460858D01*
X169539141Y-120299954D01*
X169352734Y-120169432D01*
X169352732Y-120169431D01*
X169146497Y-120073261D01*
X169146488Y-120073258D01*
X168926697Y-120014366D01*
X168926693Y-120014365D01*
X168926692Y-120014365D01*
X168926691Y-120014364D01*
X168926686Y-120014364D01*
X168700002Y-119994532D01*
X168699998Y-119994532D01*
X168473313Y-120014364D01*
X168473302Y-120014366D01*
X168253511Y-120073258D01*
X168253502Y-120073261D01*
X168047267Y-120169431D01*
X168047265Y-120169432D01*
X167860858Y-120299954D01*
X167699954Y-120460858D01*
X167569432Y-120647265D01*
X167569431Y-120647267D01*
X167473261Y-120853502D01*
X167473258Y-120853511D01*
X167414366Y-121073302D01*
X167414364Y-121073313D01*
X167394532Y-121299998D01*
X165105500Y-121299998D01*
X165105500Y-121024000D01*
X165093947Y-120916544D01*
X165082741Y-120865033D01*
X165078903Y-120853502D01*
X165048616Y-120762502D01*
X165048613Y-120762496D01*
X164974558Y-120647266D01*
X164970825Y-120641457D01*
X164970820Y-120641451D01*
X164925076Y-120588659D01*
X164925072Y-120588656D01*
X164925070Y-120588653D01*
X164816336Y-120494433D01*
X164816333Y-120494431D01*
X164816331Y-120494430D01*
X164685465Y-120434664D01*
X164685460Y-120434662D01*
X164685459Y-120434662D01*
X164618420Y-120414977D01*
X164618422Y-120414977D01*
X164618417Y-120414976D01*
X164556347Y-120406052D01*
X164476000Y-120394500D01*
X162024000Y-120394500D01*
X162023991Y-120394500D01*
X162023990Y-120394501D01*
X161916549Y-120406052D01*
X161916537Y-120406054D01*
X161865027Y-120417260D01*
X161762502Y-120451383D01*
X161762496Y-120451386D01*
X161641462Y-120529171D01*
X161641451Y-120529179D01*
X161588659Y-120574923D01*
X161494433Y-120683664D01*
X161494430Y-120683668D01*
X161434664Y-120814534D01*
X161414976Y-120881582D01*
X161409949Y-120916549D01*
X161394500Y-121024000D01*
X156605500Y-121024000D01*
X156605500Y-118624000D01*
X156593947Y-118516544D01*
X156582741Y-118465033D01*
X156582637Y-118464722D01*
X156548616Y-118362502D01*
X156548613Y-118362496D01*
X156470828Y-118241462D01*
X156470825Y-118241457D01*
X156470820Y-118241451D01*
X156425076Y-118188659D01*
X156425072Y-118188656D01*
X156425070Y-118188653D01*
X156316336Y-118094433D01*
X156316333Y-118094431D01*
X156316331Y-118094430D01*
X156185465Y-118034664D01*
X156185460Y-118034662D01*
X156185459Y-118034662D01*
X156118420Y-118014977D01*
X156118422Y-118014977D01*
X156118417Y-118014976D01*
X156056347Y-118006052D01*
X155976000Y-117994500D01*
X153524000Y-117994500D01*
X153523991Y-117994500D01*
X153523990Y-117994501D01*
X153416549Y-118006052D01*
X153416537Y-118006054D01*
X153365027Y-118017260D01*
X153262502Y-118051383D01*
X153262496Y-118051386D01*
X153141462Y-118129171D01*
X153141451Y-118129179D01*
X153088659Y-118174923D01*
X152994433Y-118283664D01*
X152994430Y-118283668D01*
X152934664Y-118414534D01*
X152914976Y-118481582D01*
X152909949Y-118516549D01*
X152894500Y-118624000D01*
X152300000Y-118624000D01*
X152300000Y-115499998D01*
X157394532Y-115499998D01*
X157394532Y-115500001D01*
X157414364Y-115726686D01*
X157414366Y-115726697D01*
X157473258Y-115946488D01*
X157473261Y-115946497D01*
X157569431Y-116152732D01*
X157569432Y-116152734D01*
X157699954Y-116339141D01*
X157860858Y-116500045D01*
X157860861Y-116500047D01*
X158047266Y-116630568D01*
X158253504Y-116726739D01*
X158473308Y-116785635D01*
X158635230Y-116799801D01*
X158699998Y-116805468D01*
X158700000Y-116805468D01*
X158700002Y-116805468D01*
X158756673Y-116800509D01*
X158926692Y-116785635D01*
X159146496Y-116726739D01*
X159352734Y-116630568D01*
X159539139Y-116500047D01*
X159700047Y-116339139D01*
X159830568Y-116152734D01*
X159926739Y-115946496D01*
X159985635Y-115726692D01*
X160005468Y-115500000D01*
X159985635Y-115273308D01*
X159926739Y-115053504D01*
X159830568Y-114847266D01*
X159700047Y-114660861D01*
X159700045Y-114660858D01*
X159539141Y-114499954D01*
X159352734Y-114369432D01*
X159352732Y-114369431D01*
X159146497Y-114273261D01*
X159146488Y-114273258D01*
X158926697Y-114214366D01*
X158926693Y-114214365D01*
X158926692Y-114214365D01*
X158926691Y-114214364D01*
X158926686Y-114214364D01*
X158700002Y-114194532D01*
X158699998Y-114194532D01*
X158473313Y-114214364D01*
X158473302Y-114214366D01*
X158253511Y-114273258D01*
X158253502Y-114273261D01*
X158047267Y-114369431D01*
X158047265Y-114369432D01*
X157860858Y-114499954D01*
X157699954Y-114660858D01*
X157569432Y-114847265D01*
X157569431Y-114847267D01*
X157473261Y-115053502D01*
X157473258Y-115053511D01*
X157414366Y-115273302D01*
X157414364Y-115273313D01*
X157394532Y-115499998D01*
X152300000Y-115499998D01*
X152300000Y-109499998D01*
X167394532Y-109499998D01*
X167394532Y-109500001D01*
X167414364Y-109726686D01*
X167414366Y-109726697D01*
X167473258Y-109946488D01*
X167473261Y-109946497D01*
X167569431Y-110152732D01*
X167569432Y-110152734D01*
X167699954Y-110339141D01*
X167860858Y-110500045D01*
X167860861Y-110500047D01*
X168047266Y-110630568D01*
X168253504Y-110726739D01*
X168473308Y-110785635D01*
X168635230Y-110799801D01*
X168699998Y-110805468D01*
X168700000Y-110805468D01*
X168700002Y-110805468D01*
X168756673Y-110800509D01*
X168926692Y-110785635D01*
X169146496Y-110726739D01*
X169352734Y-110630568D01*
X169539139Y-110500047D01*
X169700047Y-110339139D01*
X169830568Y-110152734D01*
X169926739Y-109946496D01*
X169985635Y-109726692D01*
X170005468Y-109500000D01*
X169985635Y-109273308D01*
X169926739Y-109053504D01*
X169830568Y-108847266D01*
X169700047Y-108660861D01*
X169700045Y-108660858D01*
X169539141Y-108499954D01*
X169352734Y-108369432D01*
X169352732Y-108369431D01*
X169146497Y-108273261D01*
X169146488Y-108273258D01*
X168926697Y-108214366D01*
X168926693Y-108214365D01*
X168926692Y-108214365D01*
X168926691Y-108214364D01*
X168926686Y-108214364D01*
X168700002Y-108194532D01*
X168699998Y-108194532D01*
X168473313Y-108214364D01*
X168473302Y-108214366D01*
X168253511Y-108273258D01*
X168253502Y-108273261D01*
X168047267Y-108369431D01*
X168047265Y-108369432D01*
X167860858Y-108499954D01*
X167699954Y-108660858D01*
X167569432Y-108847265D01*
X167569431Y-108847267D01*
X167473261Y-109053502D01*
X167473258Y-109053511D01*
X167414366Y-109273302D01*
X167414364Y-109273313D01*
X167394532Y-109499998D01*
X152300000Y-109499998D01*
X152300000Y-103499998D01*
X157394532Y-103499998D01*
X157394532Y-103500001D01*
X157414364Y-103726686D01*
X157414366Y-103726697D01*
X157473258Y-103946488D01*
X157473261Y-103946497D01*
X157569431Y-104152732D01*
X157569432Y-104152734D01*
X157699954Y-104339141D01*
X157860858Y-104500045D01*
X157860861Y-104500047D01*
X158047266Y-104630568D01*
X158253504Y-104726739D01*
X158473308Y-104785635D01*
X158635230Y-104799801D01*
X158699998Y-104805468D01*
X158700000Y-104805468D01*
X158700002Y-104805468D01*
X158756673Y-104800509D01*
X158926692Y-104785635D01*
X159146496Y-104726739D01*
X159352734Y-104630568D01*
X159539139Y-104500047D01*
X159700047Y-104339139D01*
X159830568Y-104152734D01*
X159926739Y-103946496D01*
X159985635Y-103726692D01*
X160005468Y-103500000D01*
X159985635Y-103273308D01*
X159926739Y-103053504D01*
X159830568Y-102847266D01*
X159700047Y-102660861D01*
X159700045Y-102660858D01*
X159539141Y-102499954D01*
X159352734Y-102369432D01*
X159352732Y-102369431D01*
X159146497Y-102273261D01*
X159146488Y-102273258D01*
X158926697Y-102214366D01*
X158926693Y-102214365D01*
X158926692Y-102214365D01*
X158926691Y-102214364D01*
X158926686Y-102214364D01*
X158700002Y-102194532D01*
X158699998Y-102194532D01*
X158473313Y-102214364D01*
X158473302Y-102214366D01*
X158253511Y-102273258D01*
X158253502Y-102273261D01*
X158047267Y-102369431D01*
X158047265Y-102369432D01*
X157860858Y-102499954D01*
X157699954Y-102660858D01*
X157569432Y-102847265D01*
X157569431Y-102847267D01*
X157473261Y-103053502D01*
X157473258Y-103053511D01*
X157414366Y-103273302D01*
X157414364Y-103273313D01*
X157394532Y-103499998D01*
X152300000Y-103499998D01*
X152300000Y-94424000D01*
X162294500Y-94424000D01*
X162294500Y-99076000D01*
X162294501Y-99076009D01*
X162306052Y-99183450D01*
X162306054Y-99183462D01*
X162317260Y-99234972D01*
X162351383Y-99337497D01*
X162351386Y-99337503D01*
X162429171Y-99458537D01*
X162429179Y-99458548D01*
X162474923Y-99511340D01*
X162474926Y-99511343D01*
X162474930Y-99511347D01*
X162583664Y-99605567D01*
X162583667Y-99605568D01*
X162583668Y-99605569D01*
X162677925Y-99648616D01*
X162714541Y-99665338D01*
X162781580Y-99685023D01*
X162781584Y-99685024D01*
X162924000Y-99705500D01*
X162924003Y-99705500D01*
X165375990Y-99705500D01*
X165376000Y-99705500D01*
X165483456Y-99693947D01*
X165534967Y-99682741D01*
X165569197Y-99671347D01*
X165637497Y-99648616D01*
X165637501Y-99648613D01*
X165637504Y-99648613D01*
X165758543Y-99570825D01*
X165811347Y-99525070D01*
X165905567Y-99416336D01*
X165965338Y-99285459D01*
X165985023Y-99218420D01*
X165985024Y-99218416D01*
X166005500Y-99076000D01*
X166005500Y-94424000D01*
X165993947Y-94316544D01*
X165982741Y-94265033D01*
X165965966Y-94214632D01*
X165948616Y-94162502D01*
X165948613Y-94162496D01*
X165870828Y-94041462D01*
X165870825Y-94041457D01*
X165870820Y-94041451D01*
X165825076Y-93988659D01*
X165825072Y-93988656D01*
X165825070Y-93988653D01*
X165716336Y-93894433D01*
X165716333Y-93894431D01*
X165716331Y-93894430D01*
X165585465Y-93834664D01*
X165585460Y-93834662D01*
X165585459Y-93834662D01*
X165518420Y-93814977D01*
X165518422Y-93814977D01*
X165518417Y-93814976D01*
X165456347Y-93806052D01*
X165376000Y-93794500D01*
X162924000Y-93794500D01*
X162923991Y-93794500D01*
X162923990Y-93794501D01*
X162816549Y-93806052D01*
X162816537Y-93806054D01*
X162765027Y-93817260D01*
X162662502Y-93851383D01*
X162662496Y-93851386D01*
X162541462Y-93929171D01*
X162541451Y-93929179D01*
X162488659Y-93974923D01*
X162394433Y-94083664D01*
X162394430Y-94083668D01*
X162334664Y-94214534D01*
X162314976Y-94281582D01*
X162309949Y-94316549D01*
X162294500Y-94424000D01*
X152300000Y-94424000D01*
X152300000Y-77924000D01*
X152319685Y-77856961D01*
X152372489Y-77811206D01*
X152424000Y-77800000D01*
X167576000Y-77800000D01*
X167643039Y-77819685D01*
G37*
%TD.AperFunction*%
%TD*%
%TA.AperFunction,Conductor*%
%TO.N,+VOUT_OUT*%
G36*
X171843039Y-77819685D02*
G01*
X171888794Y-77872489D01*
X171900000Y-77924000D01*
X171900000Y-87200000D01*
X185976000Y-87200000D01*
X186043039Y-87219685D01*
X186088794Y-87272489D01*
X186100000Y-87324000D01*
X186100000Y-99876000D01*
X186080315Y-99943039D01*
X186027511Y-99988794D01*
X185976000Y-100000000D01*
X178924000Y-100000000D01*
X178856961Y-99980315D01*
X178811206Y-99927511D01*
X178800000Y-99876000D01*
X178800000Y-92400000D01*
X168424000Y-92400000D01*
X168356961Y-92380315D01*
X168311206Y-92327511D01*
X168300000Y-92276000D01*
X168300000Y-77924000D01*
X168319685Y-77856961D01*
X168372489Y-77811206D01*
X168424000Y-77800000D01*
X171776000Y-77800000D01*
X171843039Y-77819685D01*
G37*
%TD.AperFunction*%
%TD*%
%TA.AperFunction,Conductor*%
%TO.N,GND_PWR*%
G36*
X156043039Y-118519685D02*
G01*
X156088794Y-118572489D01*
X156100000Y-118624000D01*
X156100000Y-125576000D01*
X156080315Y-125643039D01*
X156027511Y-125688794D01*
X155976000Y-125700000D01*
X153524000Y-125700000D01*
X153456961Y-125680315D01*
X153411206Y-125627511D01*
X153400000Y-125576000D01*
X153400000Y-118624000D01*
X153419685Y-118556961D01*
X153472489Y-118511206D01*
X153524000Y-118500000D01*
X155976000Y-118500000D01*
X156043039Y-118519685D01*
G37*
%TD.AperFunction*%
%TD*%
%TA.AperFunction,Conductor*%
%TO.N,+24V*%
G36*
X112243039Y-101619685D02*
G01*
X112288794Y-101672489D01*
X112300000Y-101724000D01*
X112300000Y-109876000D01*
X112280315Y-109943039D01*
X112227511Y-109988794D01*
X112176000Y-110000000D01*
X106824000Y-110000000D01*
X106756961Y-109980315D01*
X106711206Y-109927511D01*
X106700000Y-109876000D01*
X106700000Y-101724000D01*
X106719685Y-101656961D01*
X106772489Y-101611206D01*
X106824000Y-101600000D01*
X112176000Y-101600000D01*
X112243039Y-101619685D01*
G37*
%TD.AperFunction*%
%TD*%
%TA.AperFunction,Conductor*%
%TO.N,+12V*%
G36*
X125943039Y-77019685D02*
G01*
X125988794Y-77072489D01*
X126000000Y-77124000D01*
X126000000Y-87376000D01*
X125980315Y-87443039D01*
X125927511Y-87488794D01*
X125876000Y-87500000D01*
X106600000Y-87500000D01*
X106600000Y-94776000D01*
X106580315Y-94843039D01*
X106527511Y-94888794D01*
X106476000Y-94900000D01*
X104323123Y-94900000D01*
X104305477Y-94898738D01*
X104276001Y-94894500D01*
X104276000Y-94894500D01*
X101929500Y-94894500D01*
X101862461Y-94874815D01*
X101816706Y-94822011D01*
X101805500Y-94770500D01*
X101805500Y-91468270D01*
X101805517Y-91466221D01*
X101989629Y-80327451D01*
X102010419Y-80260746D01*
X102063972Y-80215870D01*
X102113612Y-80205500D01*
X104875990Y-80205500D01*
X104876000Y-80205500D01*
X104983456Y-80193947D01*
X105034967Y-80182741D01*
X105069197Y-80171347D01*
X105137497Y-80148616D01*
X105137501Y-80148613D01*
X105137504Y-80148613D01*
X105258543Y-80070825D01*
X105311347Y-80025070D01*
X105405567Y-79916336D01*
X105465338Y-79785459D01*
X105485023Y-79718420D01*
X105485024Y-79718416D01*
X105505500Y-79576000D01*
X105505500Y-77124000D01*
X105525185Y-77056961D01*
X105577989Y-77011206D01*
X105629500Y-77000000D01*
X125876000Y-77000000D01*
X125943039Y-77019685D01*
G37*
%TD.AperFunction*%
%TD*%
%TA.AperFunction,Conductor*%
%TO.N,+24V*%
G36*
X96843039Y-77019685D02*
G01*
X96888794Y-77072489D01*
X96900000Y-77124000D01*
X96900000Y-80200000D01*
X97576877Y-80200000D01*
X97594523Y-80201262D01*
X97597650Y-80201711D01*
X97624000Y-80205500D01*
X97624003Y-80205500D01*
X101176000Y-80205500D01*
X101243039Y-80225185D01*
X101288794Y-80277989D01*
X101300000Y-80329500D01*
X101300000Y-95400000D01*
X104276000Y-95400000D01*
X104343039Y-95419685D01*
X104388794Y-95472489D01*
X104400000Y-95524000D01*
X104400000Y-98813868D01*
X104380315Y-98880907D01*
X104327511Y-98926662D01*
X104258353Y-98936606D01*
X104203115Y-98914187D01*
X104107815Y-98844948D01*
X103918414Y-98748444D01*
X103918413Y-98748443D01*
X103918412Y-98748443D01*
X103716243Y-98682754D01*
X103716241Y-98682753D01*
X103716240Y-98682753D01*
X103554957Y-98657208D01*
X103506287Y-98649500D01*
X102493713Y-98649500D01*
X102445042Y-98657208D01*
X102283760Y-98682753D01*
X102081585Y-98748444D01*
X101892179Y-98844951D01*
X101720213Y-98969890D01*
X101569890Y-99120213D01*
X101444951Y-99292179D01*
X101348444Y-99481585D01*
X101282753Y-99683760D01*
X101249500Y-99893713D01*
X101249500Y-100106286D01*
X101272186Y-100249523D01*
X101282754Y-100316243D01*
X101310703Y-100402262D01*
X101348444Y-100518414D01*
X101444951Y-100707820D01*
X101569890Y-100879786D01*
X101720213Y-101030109D01*
X101892179Y-101155048D01*
X101892181Y-101155049D01*
X101892184Y-101155051D01*
X102081588Y-101251557D01*
X102283757Y-101317246D01*
X102493713Y-101350500D01*
X102493714Y-101350500D01*
X103506286Y-101350500D01*
X103506287Y-101350500D01*
X103716243Y-101317246D01*
X103918412Y-101251557D01*
X104107816Y-101155051D01*
X104203115Y-101085813D01*
X104268921Y-101062333D01*
X104336975Y-101078159D01*
X104385670Y-101128264D01*
X104400000Y-101186131D01*
X104400000Y-109876000D01*
X104380315Y-109943039D01*
X104327511Y-109988794D01*
X104276000Y-110000000D01*
X93478303Y-110000000D01*
X93411264Y-109980315D01*
X93407180Y-109977575D01*
X93252734Y-109869432D01*
X93252732Y-109869431D01*
X93046497Y-109773261D01*
X93046488Y-109773258D01*
X92826697Y-109714366D01*
X92826693Y-109714365D01*
X92826692Y-109714365D01*
X92826691Y-109714364D01*
X92826686Y-109714364D01*
X92600002Y-109694532D01*
X92599998Y-109694532D01*
X92373313Y-109714364D01*
X92373302Y-109714366D01*
X92153511Y-109773258D01*
X92153502Y-109773261D01*
X91947267Y-109869431D01*
X91947265Y-109869432D01*
X91792820Y-109977575D01*
X91726613Y-109999902D01*
X91721697Y-110000000D01*
X89524000Y-110000000D01*
X89456961Y-109980315D01*
X89411206Y-109927511D01*
X89400000Y-109876000D01*
X89400000Y-103699998D01*
X96694532Y-103699998D01*
X96694532Y-103700001D01*
X96714364Y-103926686D01*
X96714366Y-103926697D01*
X96773258Y-104146488D01*
X96773261Y-104146497D01*
X96869431Y-104352732D01*
X96869432Y-104352734D01*
X96999954Y-104539141D01*
X97160858Y-104700045D01*
X97160861Y-104700047D01*
X97347266Y-104830568D01*
X97553504Y-104926739D01*
X97773308Y-104985635D01*
X97935230Y-104999801D01*
X97999998Y-105005468D01*
X98000000Y-105005468D01*
X98000002Y-105005468D01*
X98056673Y-105000509D01*
X98226692Y-104985635D01*
X98446496Y-104926739D01*
X98652734Y-104830568D01*
X98839139Y-104700047D01*
X99000047Y-104539139D01*
X99130568Y-104352734D01*
X99226739Y-104146496D01*
X99285635Y-103926692D01*
X99305468Y-103700000D01*
X99285635Y-103473308D01*
X99226739Y-103253504D01*
X99130568Y-103047266D01*
X99000047Y-102860861D01*
X99000045Y-102860858D01*
X98839141Y-102699954D01*
X98652734Y-102569432D01*
X98652732Y-102569431D01*
X98446497Y-102473261D01*
X98446488Y-102473258D01*
X98226697Y-102414366D01*
X98226693Y-102414365D01*
X98226692Y-102414365D01*
X98226691Y-102414364D01*
X98226686Y-102414364D01*
X98000002Y-102394532D01*
X97999998Y-102394532D01*
X97773313Y-102414364D01*
X97773302Y-102414366D01*
X97553511Y-102473258D01*
X97553502Y-102473261D01*
X97347267Y-102569431D01*
X97347265Y-102569432D01*
X97160858Y-102699954D01*
X96999954Y-102860858D01*
X96869432Y-103047265D01*
X96869431Y-103047267D01*
X96773261Y-103253502D01*
X96773258Y-103253511D01*
X96714366Y-103473302D01*
X96714364Y-103473313D01*
X96694532Y-103699998D01*
X89400000Y-103699998D01*
X89400000Y-101999996D01*
X90594435Y-101999996D01*
X90594435Y-102000003D01*
X90614630Y-102179249D01*
X90614631Y-102179254D01*
X90674211Y-102349523D01*
X90751961Y-102473261D01*
X90770184Y-102502262D01*
X90897738Y-102629816D01*
X91050478Y-102725789D01*
X91220745Y-102785368D01*
X91220750Y-102785369D01*
X91399996Y-102805565D01*
X91400000Y-102805565D01*
X91400004Y-102805565D01*
X91579249Y-102785369D01*
X91579252Y-102785368D01*
X91579255Y-102785368D01*
X91749522Y-102725789D01*
X91902262Y-102629816D01*
X92029816Y-102502262D01*
X92125789Y-102349522D01*
X92185368Y-102179255D01*
X92205565Y-102000000D01*
X92205565Y-101999996D01*
X92994435Y-101999996D01*
X92994435Y-102000003D01*
X93014630Y-102179249D01*
X93014631Y-102179254D01*
X93074211Y-102349523D01*
X93151961Y-102473261D01*
X93170184Y-102502262D01*
X93297738Y-102629816D01*
X93450478Y-102725789D01*
X93620745Y-102785368D01*
X93620750Y-102785369D01*
X93799996Y-102805565D01*
X93800000Y-102805565D01*
X93800004Y-102805565D01*
X93979249Y-102785369D01*
X93979252Y-102785368D01*
X93979255Y-102785368D01*
X94149522Y-102725789D01*
X94302262Y-102629816D01*
X94429816Y-102502262D01*
X94525789Y-102349522D01*
X94585368Y-102179255D01*
X94605565Y-102000000D01*
X94585368Y-101820745D01*
X94525789Y-101650478D01*
X94429816Y-101497738D01*
X94302262Y-101370184D01*
X94218012Y-101317246D01*
X94149523Y-101274211D01*
X93979254Y-101214631D01*
X93979249Y-101214630D01*
X93800004Y-101194435D01*
X93799996Y-101194435D01*
X93620750Y-101214630D01*
X93620745Y-101214631D01*
X93450476Y-101274211D01*
X93297737Y-101370184D01*
X93170184Y-101497737D01*
X93074211Y-101650476D01*
X93014631Y-101820745D01*
X93014630Y-101820750D01*
X92994435Y-101999996D01*
X92205565Y-101999996D01*
X92185368Y-101820745D01*
X92125789Y-101650478D01*
X92029816Y-101497738D01*
X91902262Y-101370184D01*
X91818012Y-101317246D01*
X91749523Y-101274211D01*
X91579254Y-101214631D01*
X91579249Y-101214630D01*
X91400004Y-101194435D01*
X91399996Y-101194435D01*
X91220750Y-101214630D01*
X91220745Y-101214631D01*
X91050476Y-101274211D01*
X90897737Y-101370184D01*
X90770184Y-101497737D01*
X90674211Y-101650476D01*
X90614631Y-101820745D01*
X90614630Y-101820750D01*
X90594435Y-101999996D01*
X89400000Y-101999996D01*
X89400000Y-99899996D01*
X90594435Y-99899996D01*
X90594435Y-99900003D01*
X90614630Y-100079249D01*
X90614631Y-100079254D01*
X90674211Y-100249523D01*
X90770184Y-100402262D01*
X90897738Y-100529816D01*
X91050478Y-100625789D01*
X91220745Y-100685368D01*
X91220750Y-100685369D01*
X91399996Y-100705565D01*
X91400000Y-100705565D01*
X91400004Y-100705565D01*
X91579249Y-100685369D01*
X91579252Y-100685368D01*
X91579255Y-100685368D01*
X91749522Y-100625789D01*
X91902262Y-100529816D01*
X92029816Y-100402262D01*
X92125789Y-100249522D01*
X92185368Y-100079255D01*
X92205565Y-99900000D01*
X92205565Y-99899996D01*
X92994435Y-99899996D01*
X92994435Y-99900003D01*
X93014630Y-100079249D01*
X93014631Y-100079254D01*
X93074211Y-100249523D01*
X93170184Y-100402262D01*
X93297738Y-100529816D01*
X93450478Y-100625789D01*
X93620745Y-100685368D01*
X93620750Y-100685369D01*
X93799996Y-100705565D01*
X93800000Y-100705565D01*
X93800004Y-100705565D01*
X93979249Y-100685369D01*
X93979252Y-100685368D01*
X93979255Y-100685368D01*
X94149522Y-100625789D01*
X94302262Y-100529816D01*
X94429816Y-100402262D01*
X94525789Y-100249522D01*
X94585368Y-100079255D01*
X94605565Y-99900000D01*
X94585368Y-99720745D01*
X94525789Y-99550478D01*
X94429816Y-99397738D01*
X94302262Y-99270184D01*
X94149523Y-99174211D01*
X93979254Y-99114631D01*
X93979249Y-99114630D01*
X93800004Y-99094435D01*
X93799996Y-99094435D01*
X93620750Y-99114630D01*
X93620745Y-99114631D01*
X93450476Y-99174211D01*
X93297737Y-99270184D01*
X93170184Y-99397737D01*
X93074211Y-99550476D01*
X93014631Y-99720745D01*
X93014630Y-99720750D01*
X92994435Y-99899996D01*
X92205565Y-99899996D01*
X92185368Y-99720745D01*
X92125789Y-99550478D01*
X92029816Y-99397738D01*
X91902262Y-99270184D01*
X91749523Y-99174211D01*
X91579254Y-99114631D01*
X91579249Y-99114630D01*
X91400004Y-99094435D01*
X91399996Y-99094435D01*
X91220750Y-99114630D01*
X91220745Y-99114631D01*
X91050476Y-99174211D01*
X90897737Y-99270184D01*
X90770184Y-99397737D01*
X90674211Y-99550476D01*
X90614631Y-99720745D01*
X90614630Y-99720750D01*
X90594435Y-99899996D01*
X89400000Y-99899996D01*
X89400000Y-98099996D01*
X97594435Y-98099996D01*
X97594435Y-98100003D01*
X97614630Y-98279249D01*
X97614631Y-98279254D01*
X97674211Y-98449523D01*
X97770184Y-98602262D01*
X97897738Y-98729816D01*
X98050478Y-98825789D01*
X98105240Y-98844951D01*
X98220745Y-98885368D01*
X98220750Y-98885369D01*
X98399996Y-98905565D01*
X98400000Y-98905565D01*
X98400004Y-98905565D01*
X98579249Y-98885369D01*
X98579252Y-98885368D01*
X98579255Y-98885368D01*
X98749522Y-98825789D01*
X98902262Y-98729816D01*
X99029816Y-98602262D01*
X99125789Y-98449522D01*
X99185368Y-98279255D01*
X99205565Y-98100000D01*
X99185368Y-97920745D01*
X99125789Y-97750478D01*
X99029816Y-97597738D01*
X98902262Y-97470184D01*
X98749523Y-97374211D01*
X98579254Y-97314631D01*
X98579249Y-97314630D01*
X98400004Y-97294435D01*
X98399996Y-97294435D01*
X98220750Y-97314630D01*
X98220745Y-97314631D01*
X98050476Y-97374211D01*
X97897737Y-97470184D01*
X97770184Y-97597737D01*
X97674211Y-97750476D01*
X97614631Y-97920745D01*
X97614630Y-97920750D01*
X97594435Y-98099996D01*
X89400000Y-98099996D01*
X89400000Y-97051362D01*
X89419685Y-96984323D01*
X89436319Y-96963681D01*
X91000000Y-95400000D01*
X94800000Y-91600000D01*
X94800000Y-77124000D01*
X94819685Y-77056961D01*
X94872489Y-77011206D01*
X94924000Y-77000000D01*
X96776000Y-77000000D01*
X96843039Y-77019685D01*
G37*
%TD.AperFunction*%
%TD*%
%TA.AperFunction,Conductor*%
%TO.N,+24V_IN*%
G36*
X94143039Y-77019685D02*
G01*
X94188794Y-77072489D01*
X94200000Y-77124000D01*
X94200000Y-91248354D01*
X94180315Y-91315393D01*
X94163339Y-91336376D01*
X81336259Y-104064022D01*
X81274806Y-104097268D01*
X81248920Y-104100000D01*
X71184500Y-104100000D01*
X71117461Y-104080315D01*
X71071706Y-104027511D01*
X71060500Y-103976000D01*
X71060500Y-93073920D01*
X76689499Y-93073920D01*
X76718340Y-93218907D01*
X76718343Y-93218917D01*
X76774912Y-93355488D01*
X76774919Y-93355501D01*
X76857048Y-93478415D01*
X76857051Y-93478419D01*
X76961580Y-93582948D01*
X76961584Y-93582951D01*
X77084498Y-93665080D01*
X77084511Y-93665087D01*
X77221082Y-93721656D01*
X77221087Y-93721658D01*
X77221091Y-93721658D01*
X77221092Y-93721659D01*
X77366079Y-93750500D01*
X77366082Y-93750500D01*
X77513920Y-93750500D01*
X77611462Y-93731096D01*
X77658913Y-93721658D01*
X77795495Y-93665084D01*
X77918416Y-93582951D01*
X78022951Y-93478416D01*
X78105084Y-93355495D01*
X78161658Y-93218913D01*
X78171096Y-93171462D01*
X78185313Y-93099996D01*
X84694435Y-93099996D01*
X84694435Y-93100003D01*
X84714630Y-93279249D01*
X84714633Y-93279262D01*
X84774209Y-93449520D01*
X84827309Y-93534029D01*
X84846309Y-93601266D01*
X84827309Y-93665971D01*
X84774209Y-93750479D01*
X84714633Y-93920737D01*
X84714630Y-93920750D01*
X84694435Y-94099996D01*
X84694435Y-94100003D01*
X84714630Y-94279249D01*
X84714631Y-94279254D01*
X84774211Y-94449523D01*
X84870184Y-94602262D01*
X84997738Y-94729816D01*
X85150478Y-94825789D01*
X85320745Y-94885368D01*
X85320750Y-94885369D01*
X85499996Y-94905565D01*
X85500000Y-94905565D01*
X85500004Y-94905565D01*
X85679249Y-94885369D01*
X85679252Y-94885368D01*
X85679255Y-94885368D01*
X85849522Y-94825789D01*
X86002262Y-94729816D01*
X86129816Y-94602262D01*
X86225789Y-94449522D01*
X86285368Y-94279255D01*
X86305565Y-94100000D01*
X86285368Y-93920745D01*
X86225789Y-93750478D01*
X86225788Y-93750475D01*
X86172691Y-93665973D01*
X86153690Y-93598736D01*
X86172691Y-93534027D01*
X86225788Y-93449524D01*
X86225789Y-93449522D01*
X86285368Y-93279255D01*
X86285369Y-93279249D01*
X86305565Y-93100003D01*
X86305565Y-93099996D01*
X86285369Y-92920750D01*
X86285368Y-92920745D01*
X86236501Y-92781092D01*
X86225789Y-92750478D01*
X86129816Y-92597738D01*
X86002262Y-92470184D01*
X85931608Y-92425789D01*
X85849523Y-92374211D01*
X85679254Y-92314631D01*
X85679249Y-92314630D01*
X85500004Y-92294435D01*
X85499996Y-92294435D01*
X85320750Y-92314630D01*
X85320745Y-92314631D01*
X85150476Y-92374211D01*
X84997737Y-92470184D01*
X84870184Y-92597737D01*
X84774211Y-92750476D01*
X84714631Y-92920745D01*
X84714630Y-92920750D01*
X84694435Y-93099996D01*
X78185313Y-93099996D01*
X78190500Y-93073920D01*
X78190500Y-92926079D01*
X78161659Y-92781092D01*
X78161658Y-92781091D01*
X78161658Y-92781087D01*
X78161656Y-92781082D01*
X78105087Y-92644511D01*
X78105080Y-92644498D01*
X78022951Y-92521584D01*
X78022948Y-92521580D01*
X77918419Y-92417051D01*
X77918415Y-92417048D01*
X77795501Y-92334919D01*
X77795488Y-92334912D01*
X77658917Y-92278343D01*
X77658907Y-92278340D01*
X77513920Y-92249500D01*
X77513918Y-92249500D01*
X77366082Y-92249500D01*
X77366080Y-92249500D01*
X77221092Y-92278340D01*
X77221082Y-92278343D01*
X77084511Y-92334912D01*
X77084498Y-92334919D01*
X76961584Y-92417048D01*
X76961580Y-92417051D01*
X76857051Y-92521580D01*
X76857048Y-92521584D01*
X76774919Y-92644498D01*
X76774912Y-92644511D01*
X76718343Y-92781082D01*
X76718340Y-92781092D01*
X76689500Y-92926079D01*
X76689500Y-92926082D01*
X76689500Y-93073918D01*
X76689500Y-93073920D01*
X76689499Y-93073920D01*
X71060500Y-93073920D01*
X71060500Y-91699996D01*
X80294435Y-91699996D01*
X80294435Y-91700003D01*
X80314630Y-91879249D01*
X80314631Y-91879254D01*
X80374211Y-92049523D01*
X80470184Y-92202262D01*
X80597738Y-92329816D01*
X80668392Y-92374211D01*
X80736571Y-92417051D01*
X80750478Y-92425789D01*
X80877352Y-92470184D01*
X80920745Y-92485368D01*
X80920750Y-92485369D01*
X81099996Y-92505565D01*
X81100000Y-92505565D01*
X81100004Y-92505565D01*
X81279249Y-92485369D01*
X81279252Y-92485368D01*
X81279255Y-92485368D01*
X81449522Y-92425789D01*
X81602262Y-92329816D01*
X81729816Y-92202262D01*
X81825789Y-92049522D01*
X81885368Y-91879255D01*
X81905565Y-91700000D01*
X81885368Y-91520745D01*
X81825789Y-91350478D01*
X81729816Y-91197738D01*
X81602262Y-91070184D01*
X81449523Y-90974211D01*
X81279254Y-90914631D01*
X81279249Y-90914630D01*
X81100004Y-90894435D01*
X81099996Y-90894435D01*
X80920750Y-90914630D01*
X80920745Y-90914631D01*
X80750476Y-90974211D01*
X80597737Y-91070184D01*
X80470184Y-91197737D01*
X80374211Y-91350476D01*
X80314631Y-91520745D01*
X80314630Y-91520750D01*
X80294435Y-91699996D01*
X71060500Y-91699996D01*
X71060500Y-89143386D01*
X71999500Y-89143386D01*
X71999500Y-90856613D01*
X72005913Y-90927192D01*
X72005913Y-90927194D01*
X72005914Y-90927196D01*
X72056522Y-91089606D01*
X72121890Y-91197738D01*
X72144530Y-91235188D01*
X72264811Y-91355469D01*
X72264813Y-91355470D01*
X72264815Y-91355472D01*
X72410394Y-91443478D01*
X72572804Y-91494086D01*
X72643384Y-91500500D01*
X72643387Y-91500500D01*
X74356613Y-91500500D01*
X74356616Y-91500500D01*
X74427196Y-91494086D01*
X74589606Y-91443478D01*
X74735185Y-91355472D01*
X74855472Y-91235185D01*
X74943478Y-91089606D01*
X74994086Y-90927196D01*
X75000500Y-90856616D01*
X75000500Y-90856612D01*
X75000754Y-90853818D01*
X75002094Y-90853939D01*
X75023042Y-90792799D01*
X75077829Y-90749437D01*
X75147361Y-90742579D01*
X75209563Y-90774402D01*
X75228082Y-90796590D01*
X75311833Y-90924782D01*
X75311836Y-90924785D01*
X75480256Y-91107738D01*
X75676491Y-91260474D01*
X75895190Y-91378828D01*
X76130386Y-91459571D01*
X76375665Y-91500500D01*
X76624335Y-91500500D01*
X76869614Y-91459571D01*
X77104810Y-91378828D01*
X77323509Y-91260474D01*
X77519744Y-91107738D01*
X77688164Y-90924785D01*
X77824173Y-90716607D01*
X77924063Y-90488881D01*
X77985108Y-90247821D01*
X78005643Y-90000000D01*
X77985108Y-89752179D01*
X77924063Y-89511119D01*
X77824173Y-89283393D01*
X77771918Y-89203410D01*
X77688166Y-89075217D01*
X77666557Y-89051744D01*
X77519744Y-88892262D01*
X77323509Y-88739526D01*
X77323507Y-88739525D01*
X77323506Y-88739524D01*
X77104811Y-88621172D01*
X77104802Y-88621169D01*
X76869616Y-88540429D01*
X76624335Y-88499500D01*
X76375665Y-88499500D01*
X76130383Y-88540429D01*
X75895197Y-88621169D01*
X75895188Y-88621172D01*
X75676493Y-88739524D01*
X75480257Y-88892261D01*
X75311836Y-89075215D01*
X75228082Y-89203410D01*
X75174935Y-89248766D01*
X75105704Y-89258190D01*
X75042368Y-89228688D01*
X75005037Y-89169627D01*
X75001214Y-89146140D01*
X75000754Y-89146182D01*
X74994086Y-89072807D01*
X74994086Y-89072804D01*
X74943478Y-88910394D01*
X74855472Y-88764815D01*
X74855470Y-88764813D01*
X74855469Y-88764811D01*
X74735188Y-88644530D01*
X74696549Y-88621172D01*
X74589606Y-88556522D01*
X74427196Y-88505914D01*
X74427194Y-88505913D01*
X74427192Y-88505913D01*
X74377778Y-88501423D01*
X74356616Y-88499500D01*
X72643384Y-88499500D01*
X72624145Y-88501248D01*
X72572807Y-88505913D01*
X72410393Y-88556522D01*
X72264811Y-88644530D01*
X72144530Y-88764811D01*
X72056522Y-88910393D01*
X72005913Y-89072807D01*
X71999500Y-89143386D01*
X71060500Y-89143386D01*
X71060500Y-88199996D01*
X88294435Y-88199996D01*
X88294435Y-88200003D01*
X88314630Y-88379249D01*
X88314631Y-88379254D01*
X88374211Y-88549523D01*
X88470184Y-88702262D01*
X88597738Y-88829816D01*
X88688080Y-88886582D01*
X88697118Y-88892261D01*
X88750478Y-88925789D01*
X88920745Y-88985368D01*
X88920750Y-88985369D01*
X89099996Y-89005565D01*
X89100000Y-89005565D01*
X89100004Y-89005565D01*
X89279249Y-88985369D01*
X89279252Y-88985368D01*
X89279255Y-88985368D01*
X89449522Y-88925789D01*
X89602262Y-88829816D01*
X89729816Y-88702262D01*
X89825789Y-88549522D01*
X89885368Y-88379255D01*
X89905565Y-88200000D01*
X89885368Y-88020745D01*
X89825789Y-87850478D01*
X89729816Y-87697738D01*
X89602262Y-87570184D01*
X89449523Y-87474211D01*
X89279254Y-87414631D01*
X89279249Y-87414630D01*
X89100004Y-87394435D01*
X89099996Y-87394435D01*
X88920750Y-87414630D01*
X88920745Y-87414631D01*
X88750476Y-87474211D01*
X88597737Y-87570184D01*
X88470184Y-87697737D01*
X88374211Y-87850476D01*
X88314631Y-88020745D01*
X88314630Y-88020750D01*
X88294435Y-88199996D01*
X71060500Y-88199996D01*
X71060500Y-87073920D01*
X76689499Y-87073920D01*
X76718340Y-87218907D01*
X76718343Y-87218917D01*
X76774912Y-87355488D01*
X76774919Y-87355501D01*
X76857048Y-87478415D01*
X76857051Y-87478419D01*
X76961580Y-87582948D01*
X76961584Y-87582951D01*
X77084498Y-87665080D01*
X77084511Y-87665087D01*
X77221082Y-87721656D01*
X77221087Y-87721658D01*
X77221091Y-87721658D01*
X77221092Y-87721659D01*
X77366079Y-87750500D01*
X77366082Y-87750500D01*
X77513920Y-87750500D01*
X77611462Y-87731096D01*
X77658913Y-87721658D01*
X77795495Y-87665084D01*
X77918416Y-87582951D01*
X78022951Y-87478416D01*
X78105084Y-87355495D01*
X78161658Y-87218913D01*
X78190500Y-87073918D01*
X78190500Y-86926082D01*
X78190500Y-86926079D01*
X78161659Y-86781092D01*
X78161658Y-86781091D01*
X78161658Y-86781087D01*
X78138753Y-86725789D01*
X78105087Y-86644511D01*
X78105080Y-86644498D01*
X78022951Y-86521584D01*
X78022948Y-86521580D01*
X77918419Y-86417051D01*
X77918415Y-86417048D01*
X77795501Y-86334919D01*
X77795488Y-86334912D01*
X77658917Y-86278343D01*
X77658907Y-86278340D01*
X77513920Y-86249500D01*
X77513918Y-86249500D01*
X77366082Y-86249500D01*
X77366080Y-86249500D01*
X77221092Y-86278340D01*
X77221082Y-86278343D01*
X77084511Y-86334912D01*
X77084498Y-86334919D01*
X76961584Y-86417048D01*
X76961580Y-86417051D01*
X76857051Y-86521580D01*
X76857048Y-86521584D01*
X76774919Y-86644498D01*
X76774912Y-86644511D01*
X76718343Y-86781082D01*
X76718340Y-86781092D01*
X76689500Y-86926079D01*
X76689500Y-86926082D01*
X76689500Y-87073918D01*
X76689500Y-87073920D01*
X76689499Y-87073920D01*
X71060500Y-87073920D01*
X71060500Y-85999996D01*
X86494435Y-85999996D01*
X86494435Y-86000003D01*
X86514630Y-86179249D01*
X86514631Y-86179254D01*
X86574211Y-86349523D01*
X86616640Y-86417048D01*
X86670184Y-86502262D01*
X86797738Y-86629816D01*
X86950478Y-86725789D01*
X87108496Y-86781082D01*
X87120745Y-86785368D01*
X87120750Y-86785369D01*
X87299996Y-86805565D01*
X87300000Y-86805565D01*
X87300004Y-86805565D01*
X87479249Y-86785369D01*
X87479252Y-86785368D01*
X87479255Y-86785368D01*
X87649522Y-86725789D01*
X87802262Y-86629816D01*
X87929816Y-86502262D01*
X88025789Y-86349522D01*
X88085368Y-86179255D01*
X88105565Y-86000000D01*
X88085368Y-85820745D01*
X88025789Y-85650478D01*
X87929816Y-85497738D01*
X87802262Y-85370184D01*
X87649523Y-85274211D01*
X87479254Y-85214631D01*
X87479249Y-85214630D01*
X87300004Y-85194435D01*
X87299996Y-85194435D01*
X87120750Y-85214630D01*
X87120745Y-85214631D01*
X86950476Y-85274211D01*
X86797737Y-85370184D01*
X86670184Y-85497737D01*
X86574211Y-85650476D01*
X86514631Y-85820745D01*
X86514630Y-85820750D01*
X86494435Y-85999996D01*
X71060500Y-85999996D01*
X71060500Y-83199996D01*
X79794435Y-83199996D01*
X79794435Y-83200003D01*
X79814630Y-83379249D01*
X79814631Y-83379254D01*
X79874211Y-83549523D01*
X79970184Y-83702262D01*
X80097738Y-83829816D01*
X80250478Y-83925789D01*
X80420745Y-83985368D01*
X80420750Y-83985369D01*
X80599996Y-84005565D01*
X80600000Y-84005565D01*
X80600004Y-84005565D01*
X80779249Y-83985369D01*
X80779252Y-83985368D01*
X80779255Y-83985368D01*
X80949522Y-83925789D01*
X81102262Y-83829816D01*
X81229816Y-83702262D01*
X81325789Y-83549522D01*
X81385368Y-83379255D01*
X81405565Y-83200000D01*
X81385368Y-83020745D01*
X81325789Y-82850478D01*
X81229816Y-82697738D01*
X81102262Y-82570184D01*
X80949523Y-82474211D01*
X80779254Y-82414631D01*
X80779249Y-82414630D01*
X80600004Y-82394435D01*
X80599996Y-82394435D01*
X80420750Y-82414630D01*
X80420745Y-82414631D01*
X80250476Y-82474211D01*
X80097737Y-82570184D01*
X79970184Y-82697737D01*
X79874211Y-82850476D01*
X79814631Y-83020745D01*
X79814630Y-83020750D01*
X79794435Y-83199996D01*
X71060500Y-83199996D01*
X71060500Y-79999996D01*
X74194435Y-79999996D01*
X74194435Y-80000003D01*
X74214630Y-80179249D01*
X74214631Y-80179254D01*
X74274211Y-80349523D01*
X74370184Y-80502262D01*
X74497738Y-80629816D01*
X74650478Y-80725789D01*
X74820745Y-80785368D01*
X74820750Y-80785369D01*
X74999996Y-80805565D01*
X75000000Y-80805565D01*
X75000004Y-80805565D01*
X75179249Y-80785369D01*
X75179252Y-80785368D01*
X75179255Y-80785368D01*
X75349522Y-80725789D01*
X75502262Y-80629816D01*
X75629816Y-80502262D01*
X75725789Y-80349522D01*
X75785368Y-80179255D01*
X75805565Y-80000000D01*
X75805565Y-79999996D01*
X79194435Y-79999996D01*
X79194435Y-80000003D01*
X79214630Y-80179249D01*
X79214631Y-80179254D01*
X79274211Y-80349523D01*
X79370184Y-80502262D01*
X79497738Y-80629816D01*
X79650478Y-80725789D01*
X79820745Y-80785368D01*
X79820750Y-80785369D01*
X79999996Y-80805565D01*
X80000000Y-80805565D01*
X80000004Y-80805565D01*
X80179249Y-80785369D01*
X80179252Y-80785368D01*
X80179255Y-80785368D01*
X80349522Y-80725789D01*
X80502262Y-80629816D01*
X80629816Y-80502262D01*
X80725789Y-80349522D01*
X80785368Y-80179255D01*
X80805565Y-80000000D01*
X80785368Y-79820745D01*
X80725789Y-79650478D01*
X80629816Y-79497738D01*
X80502262Y-79370184D01*
X80349523Y-79274211D01*
X80179254Y-79214631D01*
X80179249Y-79214630D01*
X80000004Y-79194435D01*
X79999996Y-79194435D01*
X79820750Y-79214630D01*
X79820745Y-79214631D01*
X79650476Y-79274211D01*
X79497737Y-79370184D01*
X79370184Y-79497737D01*
X79274211Y-79650476D01*
X79214631Y-79820745D01*
X79214630Y-79820750D01*
X79194435Y-79999996D01*
X75805565Y-79999996D01*
X75785368Y-79820745D01*
X75725789Y-79650478D01*
X75629816Y-79497738D01*
X75502262Y-79370184D01*
X75349523Y-79274211D01*
X75179254Y-79214631D01*
X75179249Y-79214630D01*
X75000004Y-79194435D01*
X74999996Y-79194435D01*
X74820750Y-79214630D01*
X74820745Y-79214631D01*
X74650476Y-79274211D01*
X74497737Y-79370184D01*
X74370184Y-79497737D01*
X74274211Y-79650476D01*
X74214631Y-79820745D01*
X74214630Y-79820750D01*
X74194435Y-79999996D01*
X71060500Y-79999996D01*
X71060500Y-77124000D01*
X71080185Y-77056961D01*
X71132989Y-77011206D01*
X71184500Y-77000000D01*
X94076000Y-77000000D01*
X94143039Y-77019685D01*
G37*
%TD.AperFunction*%
%TD*%
%TA.AperFunction,Conductor*%
%TO.N,/Gate Drivers/VBOOT*%
G36*
X104943039Y-77019685D02*
G01*
X104988794Y-77072489D01*
X105000000Y-77124000D01*
X105000000Y-79576000D01*
X104980315Y-79643039D01*
X104927511Y-79688794D01*
X104876000Y-79700000D01*
X97624000Y-79700000D01*
X97556961Y-79680315D01*
X97511206Y-79627511D01*
X97500000Y-79576000D01*
X97500000Y-77124000D01*
X97519685Y-77056961D01*
X97572489Y-77011206D01*
X97624000Y-77000000D01*
X104876000Y-77000000D01*
X104943039Y-77019685D01*
G37*
%TD.AperFunction*%
%TD*%
M02*
