%TF.GenerationSoftware,KiCad,Pcbnew,8.0.4*%
%TF.CreationDate,2024-08-07T19:09:05+02:00*%
%TF.ProjectId,ELE0124CL_power_buck,454c4530-3132-4344-934c-5f706f776572,1.0*%
%TF.SameCoordinates,Original*%
%TF.FileFunction,Copper,L2,Inr*%
%TF.FilePolarity,Positive*%
%FSLAX46Y46*%
G04 Gerber Fmt 4.6, Leading zero omitted, Abs format (unit mm)*
G04 Created by KiCad (PCBNEW 8.0.4) date 2024-08-07 19:09:05*
%MOMM*%
%LPD*%
G01*
G04 APERTURE LIST*
G04 Aperture macros list*
%AMRoundRect*
0 Rectangle with rounded corners*
0 $1 Rounding radius*
0 $2 $3 $4 $5 $6 $7 $8 $9 X,Y pos of 4 corners*
0 Add a 4 corners polygon primitive as box body*
4,1,4,$2,$3,$4,$5,$6,$7,$8,$9,$2,$3,0*
0 Add four circle primitives for the rounded corners*
1,1,$1+$1,$2,$3*
1,1,$1+$1,$4,$5*
1,1,$1+$1,$6,$7*
1,1,$1+$1,$8,$9*
0 Add four rect primitives between the rounded corners*
20,1,$1+$1,$2,$3,$4,$5,0*
20,1,$1+$1,$4,$5,$6,$7,0*
20,1,$1+$1,$6,$7,$8,$9,0*
20,1,$1+$1,$8,$9,$2,$3,0*%
G04 Aperture macros list end*
%TA.AperFunction,ComponentPad*%
%ADD10C,1.600000*%
%TD*%
%TA.AperFunction,ComponentPad*%
%ADD11C,1.200000*%
%TD*%
%TA.AperFunction,ComponentPad*%
%ADD12C,8.600000*%
%TD*%
%TA.AperFunction,ComponentPad*%
%ADD13RoundRect,0.050000X-1.250000X1.250000X-1.250000X-1.250000X1.250000X-1.250000X1.250000X1.250000X0*%
%TD*%
%TA.AperFunction,ComponentPad*%
%ADD14C,2.600000*%
%TD*%
%TA.AperFunction,ComponentPad*%
%ADD15O,2.500000X1.700000*%
%TD*%
%TA.AperFunction,ComponentPad*%
%ADD16RoundRect,0.200000X0.800000X-0.800000X0.800000X0.800000X-0.800000X0.800000X-0.800000X-0.800000X0*%
%TD*%
%TA.AperFunction,ComponentPad*%
%ADD17C,2.000000*%
%TD*%
%TA.AperFunction,ComponentPad*%
%ADD18RoundRect,0.043333X-0.606667X0.706667X-0.606667X-0.706667X0.606667X-0.706667X0.606667X0.706667X0*%
%TD*%
%TA.AperFunction,ComponentPad*%
%ADD19O,1.300000X1.500000*%
%TD*%
%TA.AperFunction,ComponentPad*%
%ADD20RoundRect,0.050000X1.250000X-1.250000X1.250000X1.250000X-1.250000X1.250000X-1.250000X-1.250000X0*%
%TD*%
%TA.AperFunction,ViaPad*%
%ADD21C,0.600000*%
%TD*%
%TA.AperFunction,ViaPad*%
%ADD22C,0.800000*%
%TD*%
G04 APERTURE END LIST*
D10*
%TO.N,+24V*%
%TO.C,C2*%
X92600000Y-109000000D03*
%TO.N,GND_PWR*%
X92600000Y-111000000D03*
%TD*%
D11*
%TO.N,N/C*%
%TO.C,REF\u002A\u002A*%
X179775000Y-123000000D03*
X180719581Y-120719581D03*
X180719581Y-125280419D03*
X183000000Y-119775000D03*
D12*
X183000000Y-123000000D03*
D11*
X183000000Y-126225000D03*
X185280419Y-120719581D03*
X185280419Y-125280419D03*
X186225000Y-123000000D03*
%TD*%
D13*
%TO.N,+VOUT_OUT*%
%TO.C,J3*%
X183400000Y-97500000D03*
D14*
%TO.N,GND_PWR*%
X183400000Y-102500000D03*
%TD*%
D15*
%TO.N,/Gate Drivers/G_SENSE_L*%
%TO.C,TP6*%
X102800000Y-125300000D03*
%TD*%
D16*
%TO.N,GND_PWR*%
%TO.C,J1*%
X73500000Y-90000000D03*
D17*
%TO.N,+12V*%
X76500000Y-90000000D03*
%TD*%
D15*
%TO.N,/Gate Drivers/G_SENSE_H*%
%TO.C,TP5*%
X103000000Y-100000000D03*
%TD*%
D10*
%TO.N,+24V*%
%TO.C,C1*%
X98000000Y-105700000D03*
%TO.N,GND_PWR*%
X98000000Y-103700000D03*
%TD*%
D11*
%TO.N,N/C*%
%TO.C,REF\u002A\u002A*%
X73775000Y-67000000D03*
X74719581Y-64719581D03*
X74719581Y-69280419D03*
X77000000Y-63775000D03*
D12*
X77000000Y-67000000D03*
D11*
X77000000Y-70225000D03*
X79280419Y-64719581D03*
X79280419Y-69280419D03*
X80225000Y-67000000D03*
%TD*%
D15*
%TO.N,/Gate Drivers/SWITCHING_NODE*%
%TO.C,TP7*%
X118000000Y-112000000D03*
%TD*%
%TO.N,GND_PWR*%
%TO.C,TP8*%
X95000000Y-120000000D03*
%TD*%
D10*
%TO.N,+VOUT*%
%TO.C,C8*%
X168700000Y-116300000D03*
%TO.N,GND_PWR*%
X168700000Y-121300000D03*
%TD*%
D18*
%TO.N,/PWM_H1*%
%TO.C,J4*%
X142000000Y-64000000D03*
D19*
%TO.N,/PWM_L1*%
X142000000Y-66000000D03*
%TO.N,unconnected-(J4-Pin_3-Pad3)*%
X140000000Y-64000000D03*
%TO.N,unconnected-(J4-Pin_4-Pad4)*%
X140000000Y-66000000D03*
%TO.N,GND*%
X138000000Y-64000000D03*
X138000000Y-66000000D03*
%TO.N,+5V*%
X136000000Y-64000000D03*
%TO.N,/RESET*%
X136000000Y-66000000D03*
%TO.N,+3V3*%
X134000000Y-64000000D03*
%TO.N,unconnected-(J4-Pin_10-Pad10)*%
X134000000Y-66000000D03*
%TO.N,unconnected-(J4-Pin_11-Pad11)*%
X132000000Y-64000000D03*
%TO.N,/ADC_6*%
X132000000Y-66000000D03*
%TO.N,/ADC_0*%
X130000000Y-64000000D03*
%TO.N,/ADC_1*%
X130000000Y-66000000D03*
%TO.N,/ADC_2*%
X128000000Y-64000000D03*
%TO.N,/ADC_3*%
X128000000Y-66000000D03*
%TD*%
D10*
%TO.N,+VOUT*%
%TO.C,C11*%
X158700000Y-110500000D03*
%TO.N,GND_PWR*%
X158700000Y-115500000D03*
%TD*%
%TO.N,+VOUT*%
%TO.C,C7*%
X158700000Y-98500000D03*
%TO.N,GND_PWR*%
X158700000Y-103500000D03*
%TD*%
D15*
%TO.N,/ADC_1*%
%TO.C,TP1*%
X159500000Y-66700000D03*
%TD*%
D20*
%TO.N,GND_PWR*%
%TO.C,J2*%
X76600000Y-107500000D03*
D14*
%TO.N,+24V_IN*%
X76600000Y-102500000D03*
%TD*%
D11*
%TO.N,N/C*%
%TO.C,REF\u002A\u002A*%
X73775000Y-123000000D03*
X74719581Y-120719581D03*
X74719581Y-125280419D03*
X77000000Y-119775000D03*
D12*
X77000000Y-123000000D03*
D11*
X77000000Y-126225000D03*
X79280419Y-120719581D03*
X79280419Y-125280419D03*
X80225000Y-123000000D03*
%TD*%
%TO.N,N/C*%
%TO.C,REF\u002A\u002A*%
X179775000Y-67000000D03*
X180719581Y-64719581D03*
X180719581Y-69280419D03*
X183000000Y-63775000D03*
D12*
X183000000Y-67000000D03*
D11*
X183000000Y-70225000D03*
X185280419Y-64719581D03*
X185280419Y-69280419D03*
X186225000Y-67000000D03*
%TD*%
D15*
%TO.N,GND*%
%TO.C,TP13*%
X159500000Y-72200000D03*
%TD*%
D10*
%TO.N,+VOUT*%
%TO.C,C9*%
X168700000Y-104500000D03*
%TO.N,GND_PWR*%
X168700000Y-109500000D03*
%TD*%
D21*
%TO.N,GND_PWR*%
X89100000Y-88200000D03*
X173300000Y-99800000D03*
X134000000Y-90000000D03*
X176300000Y-82400000D03*
X163400000Y-98400000D03*
D22*
X106300000Y-119300000D03*
D21*
X103600000Y-121000000D03*
X173400000Y-95000000D03*
X163900000Y-124000000D03*
X126600000Y-88800000D03*
X103600000Y-119000000D03*
D22*
X121350000Y-92250000D03*
D21*
X163900000Y-122600000D03*
X91400000Y-99900000D03*
X128200000Y-83000000D03*
X75000000Y-80000000D03*
X183000000Y-115000000D03*
X96800000Y-112800000D03*
X99200000Y-112800000D03*
X80000000Y-115000000D03*
X153900000Y-125000000D03*
X134000000Y-83000000D03*
X85500000Y-93100000D03*
X163900000Y-121600000D03*
X153900000Y-124000000D03*
X140000000Y-90000000D03*
X154000000Y-119200000D03*
X124200000Y-88800000D03*
X103600000Y-116900000D03*
X93000000Y-115000000D03*
X173300000Y-100800000D03*
X140000000Y-83000000D03*
X86000000Y-125000000D03*
X107000000Y-117000000D03*
X102000000Y-118000000D03*
X163900000Y-125000000D03*
X86000000Y-115000000D03*
X94000000Y-125000000D03*
X173400000Y-98400000D03*
X98400000Y-98100000D03*
X154000000Y-120200000D03*
X163400000Y-96000000D03*
X173400000Y-97400000D03*
X80600000Y-83200000D03*
X163400000Y-95000000D03*
X183000000Y-110000000D03*
X81100000Y-91700000D03*
X176300000Y-86300000D03*
X86000000Y-120000000D03*
X91400000Y-102000000D03*
X80000000Y-80000000D03*
X102000000Y-120000000D03*
X173400000Y-96000000D03*
X182100000Y-79900000D03*
X93800000Y-102000000D03*
X85500000Y-94100000D03*
X163400000Y-97400000D03*
X182100000Y-78300000D03*
X93800000Y-99900000D03*
X87300000Y-86000000D03*
X154000000Y-121600000D03*
X154000000Y-122600000D03*
X75000000Y-115000000D03*
%TO.N,+24V*%
X109100000Y-107900000D03*
X95200000Y-80200000D03*
X95200000Y-81600000D03*
X109100000Y-102700000D03*
X95800000Y-80900000D03*
X96400000Y-80200000D03*
X100300000Y-93100000D03*
X103000000Y-105000000D03*
X111500000Y-107900000D03*
X111500000Y-105300000D03*
X101000000Y-107000000D03*
X110300000Y-104000000D03*
X103000000Y-109000000D03*
X109100000Y-105300000D03*
X111500000Y-102700000D03*
X110300000Y-106600000D03*
%TO.N,+VOUT*%
X155400000Y-79000000D03*
X160000000Y-81600000D03*
X156500000Y-82900000D03*
X165700000Y-80300000D03*
X160000000Y-79000000D03*
X161100000Y-80300000D03*
X162300000Y-79000000D03*
X153100000Y-81600000D03*
X155400000Y-81600000D03*
X163400000Y-82900000D03*
X157700000Y-81600000D03*
X162300000Y-81600000D03*
X156500000Y-80300000D03*
X154200000Y-80300000D03*
X158800000Y-80300000D03*
X161100000Y-82900000D03*
X165700000Y-82900000D03*
X164600000Y-81600000D03*
X166900000Y-81600000D03*
X163400000Y-80300000D03*
X157700000Y-79000000D03*
X154200000Y-82900000D03*
X158800000Y-82900000D03*
%TO.N,GND*%
X98100000Y-71200000D03*
X84700000Y-66300000D03*
X178000000Y-68100000D03*
X178100000Y-73500000D03*
X171600000Y-65000000D03*
X162900000Y-74400000D03*
X109700000Y-69900000D03*
X89400000Y-74500000D03*
X171000000Y-69800000D03*
X97900000Y-73300000D03*
X105400000Y-66000000D03*
X147100000Y-66700000D03*
X97700000Y-69200000D03*
X120500000Y-73100000D03*
X89200000Y-73500000D03*
X154500000Y-63500000D03*
X170600000Y-63500000D03*
X83100000Y-74500000D03*
X146900000Y-74400000D03*
X89800000Y-66700000D03*
X110000000Y-71200000D03*
X130000000Y-72000000D03*
X89800000Y-68300000D03*
X163100000Y-66700000D03*
X81900000Y-71400000D03*
X147100000Y-68300000D03*
X163100000Y-68300000D03*
X97100000Y-63500000D03*
X140000000Y-72000000D03*
X171600000Y-66900000D03*
%TO.N,+5V*%
X166100000Y-71500000D03*
X97900000Y-66000000D03*
X110000000Y-66000000D03*
X92605000Y-71500000D03*
X114100000Y-69200000D03*
X150100000Y-71500000D03*
X105500000Y-67600000D03*
X151000000Y-65300000D03*
X93705000Y-65300000D03*
X97900000Y-67600000D03*
X102100000Y-69200000D03*
X167000000Y-65300000D03*
X110000000Y-67600000D03*
%TO.N,/Gate Drivers/VBOOT*%
X97900000Y-79300000D03*
X104600000Y-79300000D03*
%TO.N,/Gate Drivers/SWITCHING_NODE*%
X126300000Y-113300000D03*
X116200000Y-122500000D03*
X115100000Y-121300000D03*
X128600000Y-113300000D03*
X117400000Y-118700000D03*
X127400000Y-112000000D03*
X132000000Y-112000000D03*
X116200000Y-117400000D03*
X117400000Y-121300000D03*
X111600000Y-122500000D03*
X111600000Y-120000000D03*
X112800000Y-118700000D03*
X115100000Y-104000000D03*
X117000000Y-115000000D03*
X126300000Y-110700000D03*
X133200000Y-110700000D03*
X130900000Y-113300000D03*
X115100000Y-105900000D03*
X120000000Y-109000000D03*
X120000000Y-117000000D03*
X123000000Y-112000000D03*
X130900000Y-110700000D03*
X116200000Y-120000000D03*
X133200000Y-113300000D03*
X115100000Y-118700000D03*
X112800000Y-121300000D03*
X117000000Y-105000000D03*
X132000000Y-114500000D03*
X132000000Y-109400000D03*
X127400000Y-109400000D03*
X127400000Y-114500000D03*
X123000000Y-109000000D03*
X111600000Y-117400000D03*
X110500000Y-121300000D03*
X120000000Y-115000000D03*
X117000000Y-109000000D03*
X128600000Y-110700000D03*
X120000000Y-107000000D03*
X113900000Y-107400000D03*
X117000000Y-107000000D03*
X110500000Y-118700000D03*
X123000000Y-115000000D03*
X120000000Y-105000000D03*
%TO.N,+12V*%
X111600000Y-87100000D03*
X105800000Y-94000000D03*
X125400000Y-81700000D03*
X104300000Y-92600000D03*
X102800000Y-92600000D03*
X102800000Y-94000000D03*
X105800000Y-92600000D03*
X116600000Y-79100000D03*
X104300000Y-94000000D03*
X124200000Y-83000000D03*
%TO.N,+3V3*%
X172000000Y-73500000D03*
X84700000Y-62400000D03*
X172100000Y-63400000D03*
X82900000Y-73200000D03*
%TO.N,+24V_IN*%
X88400000Y-80200000D03*
X90800000Y-81400000D03*
X86800000Y-80200000D03*
X91600000Y-80200000D03*
X86000000Y-79000000D03*
X89100000Y-93800000D03*
X89200000Y-79000000D03*
X87600000Y-81400000D03*
X92400000Y-81400000D03*
X90000000Y-80200000D03*
X93200000Y-80200000D03*
X89200000Y-81400000D03*
X87600000Y-79000000D03*
X90800000Y-79000000D03*
X86000000Y-81400000D03*
%TO.N,+VOUT_OUT*%
X185300000Y-93300000D03*
X170200000Y-80300000D03*
X170200000Y-82900000D03*
X179600000Y-94600000D03*
X171300000Y-81600000D03*
X184200000Y-94600000D03*
X181900000Y-94600000D03*
X183000000Y-93300000D03*
X179600000Y-92000000D03*
X169000000Y-81600000D03*
X181900000Y-92000000D03*
X183000000Y-90700000D03*
X180700000Y-90700000D03*
X180700000Y-93300000D03*
X185300000Y-90700000D03*
X184200000Y-92000000D03*
X171300000Y-79000000D03*
%TO.N,/ADC_3*%
X95105000Y-66800000D03*
%TO.N,/ADC_2*%
X87200000Y-61600000D03*
%TO.N,/ADC_0*%
X175700000Y-65100000D03*
%TO.N,/RESET*%
X114100000Y-72900000D03*
X117900000Y-64900000D03*
X102100000Y-72900000D03*
%TO.N,/ADC_1*%
X152500000Y-66700000D03*
%TO.N,/ADC_6*%
X168600000Y-66700000D03*
X162400000Y-62500000D03*
%TO.N,Net-(L1-Pad2)*%
X145000000Y-113300000D03*
X149600000Y-113300000D03*
X148400000Y-109400000D03*
X143800000Y-114500000D03*
X147300000Y-110700000D03*
X149800000Y-80300000D03*
X144000000Y-81600000D03*
X145200000Y-82900000D03*
X148600000Y-81600000D03*
X146300000Y-81600000D03*
X142900000Y-80300000D03*
X142700000Y-113300000D03*
X149800000Y-82900000D03*
X145200000Y-80300000D03*
X147500000Y-80300000D03*
X149600000Y-110700000D03*
X147500000Y-82900000D03*
X147300000Y-113300000D03*
X142700000Y-110700000D03*
X146300000Y-79000000D03*
X148400000Y-114500000D03*
X150900000Y-81600000D03*
X143800000Y-109400000D03*
X142900000Y-82900000D03*
X144000000Y-79000000D03*
X148400000Y-112000000D03*
X145000000Y-110700000D03*
X143800000Y-112000000D03*
D22*
%TO.N,/Gate Drivers/G_SENSE_L*%
X119900000Y-92200000D03*
X105200000Y-122100000D03*
D21*
%TO.N,Net-(U8A-IN1+)*%
X87800000Y-66900000D03*
X85700000Y-66900000D03*
%TO.N,Net-(U12A-IN1+)*%
X173300000Y-66900000D03*
X176300000Y-66900000D03*
%TD*%
%TA.AperFunction,Conductor*%
%TO.N,+24V*%
G36*
X96843039Y-77819685D02*
G01*
X96888794Y-77872489D01*
X96900000Y-77924000D01*
X96900000Y-82076000D01*
X96880315Y-82143039D01*
X96827511Y-82188794D01*
X96776000Y-82200000D01*
X94924000Y-82200000D01*
X94856961Y-82180315D01*
X94811206Y-82127511D01*
X94800000Y-82076000D01*
X94800000Y-77924000D01*
X94819685Y-77856961D01*
X94872489Y-77811206D01*
X94924000Y-77800000D01*
X96776000Y-77800000D01*
X96843039Y-77819685D01*
G37*
%TD.AperFunction*%
%TD*%
%TA.AperFunction,Conductor*%
%TO.N,+24V_IN*%
G36*
X94143039Y-77819685D02*
G01*
X94188794Y-77872489D01*
X94200000Y-77924000D01*
X94200000Y-82076000D01*
X94180315Y-82143039D01*
X94127511Y-82188794D01*
X94076000Y-82200000D01*
X85524000Y-82200000D01*
X85456961Y-82180315D01*
X85411206Y-82127511D01*
X85400000Y-82076000D01*
X85400000Y-77924000D01*
X85419685Y-77856961D01*
X85472489Y-77811206D01*
X85524000Y-77800000D01*
X94076000Y-77800000D01*
X94143039Y-77819685D01*
G37*
%TD.AperFunction*%
%TD*%
%TA.AperFunction,Conductor*%
%TO.N,/Gate Drivers/SWITCHING_NODE*%
G36*
X121015677Y-103019685D02*
G01*
X121036319Y-103036319D01*
X125500000Y-107500000D01*
X133676000Y-107500000D01*
X133743039Y-107519685D01*
X133788794Y-107572489D01*
X133800000Y-107624000D01*
X133800000Y-116376000D01*
X133780315Y-116443039D01*
X133727511Y-116488794D01*
X133676000Y-116500000D01*
X125399999Y-116500000D01*
X117936319Y-123963681D01*
X117874996Y-123997166D01*
X117848638Y-124000000D01*
X109824000Y-124000000D01*
X109756961Y-123980315D01*
X109711206Y-123927511D01*
X109700000Y-123876000D01*
X109700000Y-117652418D01*
X109719685Y-117585379D01*
X109737599Y-117563475D01*
X113200000Y-114200000D01*
X113200000Y-103124000D01*
X113219685Y-103056961D01*
X113272489Y-103011206D01*
X113324000Y-103000000D01*
X120948638Y-103000000D01*
X121015677Y-103019685D01*
G37*
%TD.AperFunction*%
%TD*%
%TA.AperFunction,Conductor*%
%TO.N,GND_PWR*%
G36*
X188882539Y-77019685D02*
G01*
X188928294Y-77072489D01*
X188939500Y-77124000D01*
X188939500Y-122997575D01*
X188939404Y-123002443D01*
X188921382Y-123461140D01*
X188920618Y-123470847D01*
X188866947Y-123924304D01*
X188865424Y-123933920D01*
X188776341Y-124381769D01*
X188774068Y-124391237D01*
X188650124Y-124830708D01*
X188647116Y-124839968D01*
X188489067Y-125268378D01*
X188485341Y-125277373D01*
X188294168Y-125692061D01*
X188289749Y-125700732D01*
X188066633Y-126099133D01*
X188061552Y-126107426D01*
X187807862Y-126487100D01*
X187802139Y-126494977D01*
X187519445Y-126853573D01*
X187513122Y-126860976D01*
X187203168Y-127196283D01*
X187196283Y-127203168D01*
X186860976Y-127513122D01*
X186853573Y-127519445D01*
X186494977Y-127802139D01*
X186487100Y-127807862D01*
X186107426Y-128061552D01*
X186099133Y-128066633D01*
X185714014Y-128282312D01*
X185700736Y-128289748D01*
X185692061Y-128294168D01*
X185277373Y-128485341D01*
X185268378Y-128489067D01*
X184839968Y-128647116D01*
X184830708Y-128650124D01*
X184391237Y-128774068D01*
X184381769Y-128776341D01*
X183933920Y-128865424D01*
X183924304Y-128866947D01*
X183470847Y-128920618D01*
X183461140Y-128921382D01*
X183002443Y-128939404D01*
X182997575Y-128939500D01*
X152424000Y-128939500D01*
X152356961Y-128919815D01*
X152311206Y-128867011D01*
X152300000Y-128815500D01*
X152300000Y-122999996D01*
X178194661Y-122999996D01*
X178194661Y-123000003D01*
X178214005Y-123430737D01*
X178214005Y-123430745D01*
X178214006Y-123430747D01*
X178219438Y-123470847D01*
X178271885Y-123858027D01*
X178367830Y-124278391D01*
X178501073Y-124688472D01*
X178501076Y-124688480D01*
X178670533Y-125084947D01*
X178670537Y-125084955D01*
X178729063Y-125193713D01*
X178874863Y-125464655D01*
X178874867Y-125464661D01*
X178874867Y-125464662D01*
X179112394Y-125824501D01*
X179112404Y-125824514D01*
X179381225Y-126161607D01*
X179381235Y-126161618D01*
X179381236Y-126161619D01*
X179679210Y-126473274D01*
X180003920Y-126756965D01*
X180003930Y-126756972D01*
X180003931Y-126756973D01*
X180339524Y-127000796D01*
X180352753Y-127010407D01*
X180722900Y-127231560D01*
X180722903Y-127231561D01*
X180722904Y-127231562D01*
X180722906Y-127231563D01*
X181111372Y-127418639D01*
X181111386Y-127418645D01*
X181515055Y-127570144D01*
X181515059Y-127570145D01*
X181515069Y-127570149D01*
X181930711Y-127684859D01*
X182354964Y-127761850D01*
X182784409Y-127800500D01*
X182784416Y-127800500D01*
X183215584Y-127800500D01*
X183215591Y-127800500D01*
X183645036Y-127761850D01*
X184069289Y-127684859D01*
X184484931Y-127570149D01*
X184888619Y-127418643D01*
X185277100Y-127231560D01*
X185647247Y-127010407D01*
X185996080Y-126756965D01*
X186320790Y-126473274D01*
X186618764Y-126161619D01*
X186661982Y-126107426D01*
X186887595Y-125824514D01*
X186887601Y-125824507D01*
X187125137Y-125464655D01*
X187329461Y-125084958D01*
X187498926Y-124688475D01*
X187632168Y-124278397D01*
X187728115Y-123858026D01*
X187785994Y-123430747D01*
X187805339Y-123000000D01*
X187785994Y-122569253D01*
X187728115Y-122141974D01*
X187632168Y-121721603D01*
X187498926Y-121311525D01*
X187435376Y-121162843D01*
X187329466Y-120915052D01*
X187329462Y-120915044D01*
X187329461Y-120915042D01*
X187125137Y-120535345D01*
X187125132Y-120535337D01*
X186887605Y-120175498D01*
X186887595Y-120175485D01*
X186618774Y-119838392D01*
X186618762Y-119838379D01*
X186320794Y-119526730D01*
X186320793Y-119526729D01*
X186320790Y-119526726D01*
X185996080Y-119243035D01*
X185996068Y-119243026D01*
X185647256Y-118989599D01*
X185647251Y-118989596D01*
X185647247Y-118989593D01*
X185277100Y-118768440D01*
X185277095Y-118768437D01*
X185277093Y-118768436D01*
X184888627Y-118581360D01*
X184888613Y-118581354D01*
X184484944Y-118429855D01*
X184484919Y-118429847D01*
X184069295Y-118315142D01*
X183645043Y-118238151D01*
X183645040Y-118238150D01*
X183645036Y-118238150D01*
X183215591Y-118199500D01*
X182784409Y-118199500D01*
X182354964Y-118238150D01*
X182354960Y-118238150D01*
X182354956Y-118238151D01*
X181930704Y-118315142D01*
X181515080Y-118429847D01*
X181515055Y-118429855D01*
X181111386Y-118581354D01*
X181111372Y-118581360D01*
X180722906Y-118768436D01*
X180722904Y-118768437D01*
X180352743Y-118989599D01*
X180003931Y-119243026D01*
X180003914Y-119243039D01*
X179679210Y-119526726D01*
X179679205Y-119526730D01*
X179381237Y-119838379D01*
X179381225Y-119838392D01*
X179112404Y-120175485D01*
X179112394Y-120175498D01*
X178874867Y-120535337D01*
X178874867Y-120535338D01*
X178670537Y-120915044D01*
X178670533Y-120915052D01*
X178501076Y-121311519D01*
X178501073Y-121311527D01*
X178367830Y-121721608D01*
X178271885Y-122141972D01*
X178214006Y-122569253D01*
X178214005Y-122569262D01*
X178194661Y-122999996D01*
X152300000Y-122999996D01*
X152300000Y-116299998D01*
X167394532Y-116299998D01*
X167394532Y-116300001D01*
X167414364Y-116526686D01*
X167414366Y-116526697D01*
X167473258Y-116746488D01*
X167473261Y-116746497D01*
X167569431Y-116952732D01*
X167569432Y-116952734D01*
X167699954Y-117139141D01*
X167860858Y-117300045D01*
X167860861Y-117300047D01*
X168047266Y-117430568D01*
X168253504Y-117526739D01*
X168473308Y-117585635D01*
X168635230Y-117599801D01*
X168699998Y-117605468D01*
X168700000Y-117605468D01*
X168700002Y-117605468D01*
X168756673Y-117600509D01*
X168926692Y-117585635D01*
X169146496Y-117526739D01*
X169352734Y-117430568D01*
X169539139Y-117300047D01*
X169700047Y-117139139D01*
X169830568Y-116952734D01*
X169926739Y-116746496D01*
X169985635Y-116526692D01*
X170005468Y-116300000D01*
X169985635Y-116073308D01*
X169926739Y-115853504D01*
X169830568Y-115647266D01*
X169700047Y-115460861D01*
X169700045Y-115460858D01*
X169539141Y-115299954D01*
X169352734Y-115169432D01*
X169352732Y-115169431D01*
X169146497Y-115073261D01*
X169146488Y-115073258D01*
X168926697Y-115014366D01*
X168926693Y-115014365D01*
X168926692Y-115014365D01*
X168926691Y-115014364D01*
X168926686Y-115014364D01*
X168700002Y-114994532D01*
X168699998Y-114994532D01*
X168473313Y-115014364D01*
X168473302Y-115014366D01*
X168253511Y-115073258D01*
X168253502Y-115073261D01*
X168047267Y-115169431D01*
X168047265Y-115169432D01*
X167860858Y-115299954D01*
X167699954Y-115460858D01*
X167569432Y-115647265D01*
X167569431Y-115647267D01*
X167473261Y-115853502D01*
X167473258Y-115853511D01*
X167414366Y-116073302D01*
X167414364Y-116073313D01*
X167394532Y-116299998D01*
X152300000Y-116299998D01*
X152300000Y-110499998D01*
X157394532Y-110499998D01*
X157394532Y-110500001D01*
X157414364Y-110726686D01*
X157414366Y-110726697D01*
X157473258Y-110946488D01*
X157473261Y-110946497D01*
X157569431Y-111152732D01*
X157569432Y-111152734D01*
X157699954Y-111339141D01*
X157860858Y-111500045D01*
X157907693Y-111532839D01*
X158047266Y-111630568D01*
X158253504Y-111726739D01*
X158473308Y-111785635D01*
X158635230Y-111799801D01*
X158699998Y-111805468D01*
X158700000Y-111805468D01*
X158700002Y-111805468D01*
X158756673Y-111800509D01*
X158926692Y-111785635D01*
X159146496Y-111726739D01*
X159352734Y-111630568D01*
X159539139Y-111500047D01*
X159700047Y-111339139D01*
X159830568Y-111152734D01*
X159926739Y-110946496D01*
X159985635Y-110726692D01*
X160005468Y-110500000D01*
X160004938Y-110493947D01*
X159997206Y-110405567D01*
X159985635Y-110273308D01*
X159926739Y-110053504D01*
X159830568Y-109847266D01*
X159700047Y-109660861D01*
X159700045Y-109660858D01*
X159539141Y-109499954D01*
X159352734Y-109369432D01*
X159352732Y-109369431D01*
X159146497Y-109273261D01*
X159146488Y-109273258D01*
X158926697Y-109214366D01*
X158926693Y-109214365D01*
X158926692Y-109214365D01*
X158926691Y-109214364D01*
X158926686Y-109214364D01*
X158700002Y-109194532D01*
X158699998Y-109194532D01*
X158473313Y-109214364D01*
X158473302Y-109214366D01*
X158253511Y-109273258D01*
X158253502Y-109273261D01*
X158047267Y-109369431D01*
X158047265Y-109369432D01*
X157860858Y-109499954D01*
X157699954Y-109660858D01*
X157569432Y-109847265D01*
X157569431Y-109847267D01*
X157473261Y-110053502D01*
X157473258Y-110053511D01*
X157414366Y-110273302D01*
X157414364Y-110273313D01*
X157394532Y-110499998D01*
X152300000Y-110499998D01*
X152300000Y-104499998D01*
X167394532Y-104499998D01*
X167394532Y-104500001D01*
X167414364Y-104726686D01*
X167414366Y-104726697D01*
X167473258Y-104946488D01*
X167473261Y-104946497D01*
X167569431Y-105152732D01*
X167569432Y-105152734D01*
X167699954Y-105339141D01*
X167860858Y-105500045D01*
X167860861Y-105500047D01*
X168047266Y-105630568D01*
X168253504Y-105726739D01*
X168473308Y-105785635D01*
X168635230Y-105799801D01*
X168699998Y-105805468D01*
X168700000Y-105805468D01*
X168700002Y-105805468D01*
X168756673Y-105800509D01*
X168926692Y-105785635D01*
X169146496Y-105726739D01*
X169352734Y-105630568D01*
X169539139Y-105500047D01*
X169700047Y-105339139D01*
X169830568Y-105152734D01*
X169926739Y-104946496D01*
X169985635Y-104726692D01*
X170005468Y-104500000D01*
X169985635Y-104273308D01*
X169929459Y-104063654D01*
X169926741Y-104053511D01*
X169926738Y-104053502D01*
X169830568Y-103847267D01*
X169830567Y-103847265D01*
X169700045Y-103660858D01*
X169539141Y-103499954D01*
X169352734Y-103369432D01*
X169352732Y-103369431D01*
X169146497Y-103273261D01*
X169146488Y-103273258D01*
X168926697Y-103214366D01*
X168926693Y-103214365D01*
X168926692Y-103214365D01*
X168926691Y-103214364D01*
X168926686Y-103214364D01*
X168700002Y-103194532D01*
X168699998Y-103194532D01*
X168473313Y-103214364D01*
X168473302Y-103214366D01*
X168253511Y-103273258D01*
X168253502Y-103273261D01*
X168047267Y-103369431D01*
X168047265Y-103369432D01*
X167860858Y-103499954D01*
X167699954Y-103660858D01*
X167569432Y-103847265D01*
X167569431Y-103847267D01*
X167473261Y-104053502D01*
X167473258Y-104053511D01*
X167414366Y-104273302D01*
X167414364Y-104273313D01*
X167394532Y-104499998D01*
X152300000Y-104499998D01*
X152300000Y-98499998D01*
X157394532Y-98499998D01*
X157394532Y-98500001D01*
X157414364Y-98726686D01*
X157414366Y-98726697D01*
X157473258Y-98946488D01*
X157473261Y-98946497D01*
X157569431Y-99152732D01*
X157569432Y-99152734D01*
X157699954Y-99339141D01*
X157860858Y-99500045D01*
X157860861Y-99500047D01*
X158047266Y-99630568D01*
X158253504Y-99726739D01*
X158473308Y-99785635D01*
X158635230Y-99799801D01*
X158699998Y-99805468D01*
X158700000Y-99805468D01*
X158700002Y-99805468D01*
X158756673Y-99800509D01*
X158926692Y-99785635D01*
X159146496Y-99726739D01*
X159352734Y-99630568D01*
X159539139Y-99500047D01*
X159700047Y-99339139D01*
X159830568Y-99152734D01*
X159926739Y-98946496D01*
X159985635Y-98726692D01*
X160005468Y-98500000D01*
X159985635Y-98273308D01*
X159926739Y-98053504D01*
X159830568Y-97847266D01*
X159700047Y-97660861D01*
X159700045Y-97660858D01*
X159539141Y-97499954D01*
X159352734Y-97369432D01*
X159352732Y-97369431D01*
X159146497Y-97273261D01*
X159146488Y-97273258D01*
X158926697Y-97214366D01*
X158926693Y-97214365D01*
X158926692Y-97214365D01*
X158926691Y-97214364D01*
X158926686Y-97214364D01*
X158700002Y-97194532D01*
X158699998Y-97194532D01*
X158473313Y-97214364D01*
X158473302Y-97214366D01*
X158253511Y-97273258D01*
X158253502Y-97273261D01*
X158047267Y-97369431D01*
X158047265Y-97369432D01*
X157860858Y-97499954D01*
X157699954Y-97660858D01*
X157569432Y-97847265D01*
X157569431Y-97847267D01*
X157473261Y-98053502D01*
X157473258Y-98053511D01*
X157414366Y-98273302D01*
X157414364Y-98273313D01*
X157394532Y-98499998D01*
X152300000Y-98499998D01*
X152300000Y-96200000D01*
X130051362Y-96200000D01*
X129984323Y-96180315D01*
X129963681Y-96163681D01*
X123824000Y-90024000D01*
X178294500Y-90024000D01*
X178294500Y-99876000D01*
X178294501Y-99876009D01*
X178306052Y-99983450D01*
X178306054Y-99983462D01*
X178317260Y-100034972D01*
X178351383Y-100137497D01*
X178351386Y-100137503D01*
X178429171Y-100258537D01*
X178429179Y-100258548D01*
X178474923Y-100311340D01*
X178474926Y-100311343D01*
X178474930Y-100311347D01*
X178583664Y-100405567D01*
X178583667Y-100405568D01*
X178583668Y-100405569D01*
X178677925Y-100448616D01*
X178714541Y-100465338D01*
X178781580Y-100485023D01*
X178781584Y-100485024D01*
X178924000Y-100505500D01*
X178924003Y-100505500D01*
X185975990Y-100505500D01*
X185976000Y-100505500D01*
X186083456Y-100493947D01*
X186134967Y-100482741D01*
X186169197Y-100471347D01*
X186237497Y-100448616D01*
X186237501Y-100448613D01*
X186237504Y-100448613D01*
X186358543Y-100370825D01*
X186411347Y-100325070D01*
X186505567Y-100216336D01*
X186565338Y-100085459D01*
X186585023Y-100018420D01*
X186585024Y-100018416D01*
X186605500Y-99876000D01*
X186605500Y-90024000D01*
X186593947Y-89916544D01*
X186582741Y-89865033D01*
X186582637Y-89864722D01*
X186548616Y-89762502D01*
X186548613Y-89762496D01*
X186470828Y-89641462D01*
X186470825Y-89641457D01*
X186470820Y-89641451D01*
X186425076Y-89588659D01*
X186425072Y-89588656D01*
X186425070Y-89588653D01*
X186316336Y-89494433D01*
X186316333Y-89494431D01*
X186316331Y-89494430D01*
X186185465Y-89434664D01*
X186185460Y-89434662D01*
X186185459Y-89434662D01*
X186118420Y-89414977D01*
X186118422Y-89414977D01*
X186118417Y-89414976D01*
X186056347Y-89406052D01*
X185976000Y-89394500D01*
X178924000Y-89394500D01*
X178923991Y-89394500D01*
X178923990Y-89394501D01*
X178816549Y-89406052D01*
X178816537Y-89406054D01*
X178765027Y-89417260D01*
X178662502Y-89451383D01*
X178662496Y-89451386D01*
X178541462Y-89529171D01*
X178541451Y-89529179D01*
X178488659Y-89574923D01*
X178394433Y-89683664D01*
X178394430Y-89683668D01*
X178334664Y-89814534D01*
X178314976Y-89881582D01*
X178309949Y-89916549D01*
X178294500Y-90024000D01*
X123824000Y-90024000D01*
X123300000Y-89500000D01*
X106600000Y-89500000D01*
X106600000Y-91170500D01*
X106580315Y-91237539D01*
X106527511Y-91283294D01*
X106476000Y-91294500D01*
X101924000Y-91294500D01*
X101923991Y-91294500D01*
X101923990Y-91294501D01*
X101816549Y-91306052D01*
X101816537Y-91306054D01*
X101765027Y-91317260D01*
X101662502Y-91351383D01*
X101662496Y-91351386D01*
X101541462Y-91429171D01*
X101541451Y-91429179D01*
X101488659Y-91474923D01*
X101394433Y-91583664D01*
X101394430Y-91583668D01*
X101334664Y-91714534D01*
X101314976Y-91781582D01*
X101294500Y-91924001D01*
X101294500Y-92788596D01*
X101274815Y-92855635D01*
X101222011Y-92901390D01*
X101152853Y-92911334D01*
X101089297Y-92882309D01*
X101053459Y-92829551D01*
X101025790Y-92750480D01*
X101025789Y-92750478D01*
X100929816Y-92597738D01*
X100802262Y-92470184D01*
X100649523Y-92374211D01*
X100479254Y-92314631D01*
X100479249Y-92314630D01*
X100300004Y-92294435D01*
X100299996Y-92294435D01*
X100120750Y-92314630D01*
X100120745Y-92314631D01*
X99950476Y-92374211D01*
X99797737Y-92470184D01*
X99670184Y-92597737D01*
X99574211Y-92750476D01*
X99514631Y-92920745D01*
X99514630Y-92920750D01*
X99494435Y-93099996D01*
X99494435Y-93100003D01*
X99514630Y-93279249D01*
X99514631Y-93279254D01*
X99574211Y-93449523D01*
X99592366Y-93478416D01*
X99670184Y-93602262D01*
X99797738Y-93729816D01*
X99950478Y-93825789D01*
X100120745Y-93885368D01*
X100120750Y-93885369D01*
X100299996Y-93905565D01*
X100300000Y-93905565D01*
X100300004Y-93905565D01*
X100479249Y-93885369D01*
X100479252Y-93885368D01*
X100479255Y-93885368D01*
X100649522Y-93825789D01*
X100802262Y-93729816D01*
X100929816Y-93602262D01*
X101025789Y-93449522D01*
X101053458Y-93370449D01*
X101094180Y-93313673D01*
X101159133Y-93287925D01*
X101227694Y-93301381D01*
X101278097Y-93349768D01*
X101294500Y-93411403D01*
X101294500Y-94776000D01*
X101294501Y-94776009D01*
X101306052Y-94883450D01*
X101306054Y-94883462D01*
X101317260Y-94934972D01*
X101351383Y-95037497D01*
X101351386Y-95037503D01*
X101429171Y-95158537D01*
X101429179Y-95158548D01*
X101474923Y-95211340D01*
X101474926Y-95211343D01*
X101474930Y-95211347D01*
X101583664Y-95305567D01*
X101714541Y-95365338D01*
X101781580Y-95385023D01*
X101781584Y-95385024D01*
X101924000Y-95405500D01*
X101924003Y-95405500D01*
X105795138Y-95405500D01*
X105862177Y-95425185D01*
X105907932Y-95477989D01*
X105917876Y-95547147D01*
X105888851Y-95610703D01*
X105882819Y-95617181D01*
X104400000Y-97099999D01*
X104400000Y-98813868D01*
X104380315Y-98880907D01*
X104327511Y-98926662D01*
X104258353Y-98936606D01*
X104203115Y-98914187D01*
X104107815Y-98844948D01*
X103918414Y-98748444D01*
X103918413Y-98748443D01*
X103918412Y-98748443D01*
X103716243Y-98682754D01*
X103716241Y-98682753D01*
X103716240Y-98682753D01*
X103554957Y-98657208D01*
X103506287Y-98649500D01*
X102493713Y-98649500D01*
X102445042Y-98657208D01*
X102283760Y-98682753D01*
X102081585Y-98748444D01*
X101892179Y-98844951D01*
X101720213Y-98969890D01*
X101569890Y-99120213D01*
X101444951Y-99292179D01*
X101348444Y-99481585D01*
X101282753Y-99683760D01*
X101249500Y-99893713D01*
X101249500Y-100106286D01*
X101281978Y-100311347D01*
X101282754Y-100316243D01*
X101344247Y-100505499D01*
X101348444Y-100518414D01*
X101444951Y-100707820D01*
X101569890Y-100879786D01*
X101720213Y-101030109D01*
X101892179Y-101155048D01*
X101892181Y-101155049D01*
X101892184Y-101155051D01*
X102081588Y-101251557D01*
X102283757Y-101317246D01*
X102493713Y-101350500D01*
X102493714Y-101350500D01*
X103506286Y-101350500D01*
X103506287Y-101350500D01*
X103716243Y-101317246D01*
X103918412Y-101251557D01*
X104107816Y-101155051D01*
X104203115Y-101085813D01*
X104268921Y-101062333D01*
X104336975Y-101078159D01*
X104385670Y-101128264D01*
X104400000Y-101186131D01*
X104400000Y-113200000D01*
X108863681Y-117663681D01*
X108897166Y-117725004D01*
X108900000Y-117751362D01*
X108900000Y-128815500D01*
X108880315Y-128882539D01*
X108827511Y-128928294D01*
X108776000Y-128939500D01*
X77002425Y-128939500D01*
X76997557Y-128939404D01*
X76538859Y-128921382D01*
X76529152Y-128920618D01*
X76075695Y-128866947D01*
X76066079Y-128865424D01*
X75618230Y-128776341D01*
X75608762Y-128774068D01*
X75169291Y-128650124D01*
X75160031Y-128647116D01*
X74731621Y-128489067D01*
X74722626Y-128485341D01*
X74307938Y-128294168D01*
X74299277Y-128289755D01*
X73900854Y-128066627D01*
X73892573Y-128061552D01*
X73864830Y-128043015D01*
X73512899Y-127807862D01*
X73505022Y-127802139D01*
X73219623Y-127577149D01*
X73146423Y-127519442D01*
X73139023Y-127513122D01*
X73074849Y-127453800D01*
X72803709Y-127203161D01*
X72796838Y-127196290D01*
X72486872Y-126860970D01*
X72480554Y-126853573D01*
X72404394Y-126756965D01*
X72197857Y-126494974D01*
X72192137Y-126487100D01*
X72182898Y-126473273D01*
X71938442Y-126107417D01*
X71933376Y-126099152D01*
X71710239Y-125700713D01*
X71705831Y-125692061D01*
X71702351Y-125684513D01*
X71514658Y-125277373D01*
X71510932Y-125268378D01*
X71352883Y-124839968D01*
X71349875Y-124830708D01*
X71322840Y-124734848D01*
X71225930Y-124391233D01*
X71223658Y-124381769D01*
X71196558Y-124245530D01*
X71134574Y-123933914D01*
X71133052Y-123924304D01*
X71127335Y-123876000D01*
X71079379Y-123470828D01*
X71078618Y-123461158D01*
X71060596Y-123002443D01*
X71060548Y-122999996D01*
X72194661Y-122999996D01*
X72194661Y-123000003D01*
X72214005Y-123430737D01*
X72214005Y-123430745D01*
X72214006Y-123430747D01*
X72219438Y-123470847D01*
X72271885Y-123858027D01*
X72367830Y-124278391D01*
X72501073Y-124688472D01*
X72501076Y-124688480D01*
X72670533Y-125084947D01*
X72670537Y-125084955D01*
X72729063Y-125193713D01*
X72874863Y-125464655D01*
X72874867Y-125464661D01*
X72874867Y-125464662D01*
X73112394Y-125824501D01*
X73112404Y-125824514D01*
X73381225Y-126161607D01*
X73381235Y-126161618D01*
X73381236Y-126161619D01*
X73679210Y-126473274D01*
X74003920Y-126756965D01*
X74003930Y-126756972D01*
X74003931Y-126756973D01*
X74339524Y-127000796D01*
X74352753Y-127010407D01*
X74722900Y-127231560D01*
X74722903Y-127231561D01*
X74722904Y-127231562D01*
X74722906Y-127231563D01*
X75111372Y-127418639D01*
X75111386Y-127418645D01*
X75515055Y-127570144D01*
X75515059Y-127570145D01*
X75515069Y-127570149D01*
X75930711Y-127684859D01*
X76354964Y-127761850D01*
X76784409Y-127800500D01*
X76784416Y-127800500D01*
X77215584Y-127800500D01*
X77215591Y-127800500D01*
X77645036Y-127761850D01*
X78069289Y-127684859D01*
X78484931Y-127570149D01*
X78888619Y-127418643D01*
X79277100Y-127231560D01*
X79647247Y-127010407D01*
X79996080Y-126756965D01*
X80320790Y-126473274D01*
X80618764Y-126161619D01*
X80661982Y-126107426D01*
X80887595Y-125824514D01*
X80887601Y-125824507D01*
X81125137Y-125464655D01*
X81270937Y-125193713D01*
X101049500Y-125193713D01*
X101049500Y-125406286D01*
X101070558Y-125539245D01*
X101082754Y-125616243D01*
X101104936Y-125684513D01*
X101148444Y-125818414D01*
X101244951Y-126007820D01*
X101369890Y-126179786D01*
X101520213Y-126330109D01*
X101692179Y-126455048D01*
X101692181Y-126455049D01*
X101692184Y-126455051D01*
X101881588Y-126551557D01*
X102083757Y-126617246D01*
X102293713Y-126650500D01*
X102293714Y-126650500D01*
X103306286Y-126650500D01*
X103306287Y-126650500D01*
X103516243Y-126617246D01*
X103718412Y-126551557D01*
X103907816Y-126455051D01*
X103929789Y-126439086D01*
X104079786Y-126330109D01*
X104079788Y-126330106D01*
X104079792Y-126330104D01*
X104230104Y-126179792D01*
X104230106Y-126179788D01*
X104230109Y-126179786D01*
X104355048Y-126007820D01*
X104355047Y-126007820D01*
X104355051Y-126007816D01*
X104451557Y-125818412D01*
X104517246Y-125616243D01*
X104550500Y-125406287D01*
X104550500Y-125193713D01*
X104517246Y-124983757D01*
X104451557Y-124781588D01*
X104355051Y-124592184D01*
X104355049Y-124592181D01*
X104355048Y-124592179D01*
X104230109Y-124420213D01*
X104079786Y-124269890D01*
X103907820Y-124144951D01*
X103718414Y-124048444D01*
X103718413Y-124048443D01*
X103718412Y-124048443D01*
X103516243Y-123982754D01*
X103516241Y-123982753D01*
X103516240Y-123982753D01*
X103354957Y-123957208D01*
X103306287Y-123949500D01*
X102293713Y-123949500D01*
X102245042Y-123957208D01*
X102083760Y-123982753D01*
X101881585Y-124048444D01*
X101692179Y-124144951D01*
X101520213Y-124269890D01*
X101369890Y-124420213D01*
X101244951Y-124592179D01*
X101148444Y-124781585D01*
X101148443Y-124781587D01*
X101148443Y-124781588D01*
X101130956Y-124835406D01*
X101082753Y-124983760D01*
X101049500Y-125193713D01*
X81270937Y-125193713D01*
X81329461Y-125084958D01*
X81498926Y-124688475D01*
X81632168Y-124278397D01*
X81728115Y-123858026D01*
X81785994Y-123430747D01*
X81805339Y-123000000D01*
X81785994Y-122569253D01*
X81728115Y-122141974D01*
X81718535Y-122100000D01*
X104294540Y-122100000D01*
X104314326Y-122288256D01*
X104314327Y-122288259D01*
X104372818Y-122468277D01*
X104372821Y-122468284D01*
X104467467Y-122632216D01*
X104594129Y-122772888D01*
X104747265Y-122884148D01*
X104747270Y-122884151D01*
X104920192Y-122961142D01*
X104920197Y-122961144D01*
X105105354Y-123000500D01*
X105105355Y-123000500D01*
X105294644Y-123000500D01*
X105294646Y-123000500D01*
X105479803Y-122961144D01*
X105652730Y-122884151D01*
X105805871Y-122772888D01*
X105932533Y-122632216D01*
X106027179Y-122468284D01*
X106085674Y-122288256D01*
X106105460Y-122100000D01*
X106085674Y-121911744D01*
X106027179Y-121731716D01*
X105932533Y-121567784D01*
X105805871Y-121427112D01*
X105805870Y-121427111D01*
X105652734Y-121315851D01*
X105652729Y-121315848D01*
X105479807Y-121238857D01*
X105479802Y-121238855D01*
X105334001Y-121207865D01*
X105294646Y-121199500D01*
X105105354Y-121199500D01*
X105072897Y-121206398D01*
X104920197Y-121238855D01*
X104920192Y-121238857D01*
X104747270Y-121315848D01*
X104747265Y-121315851D01*
X104594129Y-121427111D01*
X104467466Y-121567785D01*
X104372821Y-121731715D01*
X104372818Y-121731722D01*
X104314327Y-121911740D01*
X104314326Y-121911744D01*
X104294540Y-122100000D01*
X81718535Y-122100000D01*
X81632168Y-121721603D01*
X81498926Y-121311525D01*
X81435376Y-121162843D01*
X81329466Y-120915052D01*
X81329462Y-120915044D01*
X81329461Y-120915042D01*
X81125137Y-120535345D01*
X81125132Y-120535337D01*
X80887605Y-120175498D01*
X80887595Y-120175485D01*
X80618774Y-119838392D01*
X80618762Y-119838379D01*
X80320794Y-119526730D01*
X80320793Y-119526729D01*
X80320790Y-119526726D01*
X79996080Y-119243035D01*
X79996068Y-119243026D01*
X79647256Y-118989599D01*
X79647251Y-118989596D01*
X79647247Y-118989593D01*
X79277100Y-118768440D01*
X79277095Y-118768437D01*
X79277093Y-118768436D01*
X78888627Y-118581360D01*
X78888613Y-118581354D01*
X78484944Y-118429855D01*
X78484919Y-118429847D01*
X78069295Y-118315142D01*
X77645043Y-118238151D01*
X77645040Y-118238150D01*
X77645036Y-118238150D01*
X77215591Y-118199500D01*
X76784409Y-118199500D01*
X76354964Y-118238150D01*
X76354960Y-118238150D01*
X76354956Y-118238151D01*
X75930704Y-118315142D01*
X75515080Y-118429847D01*
X75515055Y-118429855D01*
X75111386Y-118581354D01*
X75111372Y-118581360D01*
X74722906Y-118768436D01*
X74722904Y-118768437D01*
X74352743Y-118989599D01*
X74003931Y-119243026D01*
X74003914Y-119243039D01*
X73679210Y-119526726D01*
X73679205Y-119526730D01*
X73381237Y-119838379D01*
X73381225Y-119838392D01*
X73112404Y-120175485D01*
X73112394Y-120175498D01*
X72874867Y-120535337D01*
X72874867Y-120535338D01*
X72670537Y-120915044D01*
X72670533Y-120915052D01*
X72501076Y-121311519D01*
X72501073Y-121311527D01*
X72367830Y-121721608D01*
X72271885Y-122141972D01*
X72214006Y-122569253D01*
X72214005Y-122569262D01*
X72194661Y-122999996D01*
X71060548Y-122999996D01*
X71060500Y-122997575D01*
X71060500Y-108999998D01*
X91294532Y-108999998D01*
X91294532Y-109000001D01*
X91314364Y-109226686D01*
X91314366Y-109226697D01*
X91373258Y-109446488D01*
X91373261Y-109446497D01*
X91469431Y-109652732D01*
X91469432Y-109652734D01*
X91599954Y-109839141D01*
X91760858Y-110000045D01*
X91760861Y-110000047D01*
X91947266Y-110130568D01*
X92153504Y-110226739D01*
X92153509Y-110226740D01*
X92153511Y-110226741D01*
X92206415Y-110240916D01*
X92373308Y-110285635D01*
X92535230Y-110299801D01*
X92599998Y-110305468D01*
X92600000Y-110305468D01*
X92600002Y-110305468D01*
X92656673Y-110300509D01*
X92826692Y-110285635D01*
X93046496Y-110226739D01*
X93252734Y-110130568D01*
X93439139Y-110000047D01*
X93600047Y-109839139D01*
X93730568Y-109652734D01*
X93826739Y-109446496D01*
X93885635Y-109226692D01*
X93905468Y-109000000D01*
X93905468Y-108999996D01*
X102194435Y-108999996D01*
X102194435Y-109000003D01*
X102214630Y-109179249D01*
X102214631Y-109179254D01*
X102274211Y-109349523D01*
X102286721Y-109369432D01*
X102370184Y-109502262D01*
X102497738Y-109629816D01*
X102650478Y-109725789D01*
X102820745Y-109785368D01*
X102820750Y-109785369D01*
X102999996Y-109805565D01*
X103000000Y-109805565D01*
X103000004Y-109805565D01*
X103179249Y-109785369D01*
X103179252Y-109785368D01*
X103179255Y-109785368D01*
X103349522Y-109725789D01*
X103502262Y-109629816D01*
X103629816Y-109502262D01*
X103725789Y-109349522D01*
X103785368Y-109179255D01*
X103805565Y-109000000D01*
X103785368Y-108820745D01*
X103725789Y-108650478D01*
X103703265Y-108614632D01*
X103686582Y-108588080D01*
X103629816Y-108497738D01*
X103502262Y-108370184D01*
X103465787Y-108347265D01*
X103349523Y-108274211D01*
X103179254Y-108214631D01*
X103179249Y-108214630D01*
X103000004Y-108194435D01*
X102999996Y-108194435D01*
X102820750Y-108214630D01*
X102820745Y-108214631D01*
X102650476Y-108274211D01*
X102497737Y-108370184D01*
X102370184Y-108497737D01*
X102274211Y-108650476D01*
X102214631Y-108820745D01*
X102214630Y-108820750D01*
X102194435Y-108999996D01*
X93905468Y-108999996D01*
X93885635Y-108773308D01*
X93826739Y-108553504D01*
X93730568Y-108347266D01*
X93600047Y-108160861D01*
X93600045Y-108160858D01*
X93439141Y-107999954D01*
X93252734Y-107869432D01*
X93252732Y-107869431D01*
X93046497Y-107773261D01*
X93046488Y-107773258D01*
X92826697Y-107714366D01*
X92826693Y-107714365D01*
X92826692Y-107714365D01*
X92826691Y-107714364D01*
X92826686Y-107714364D01*
X92600002Y-107694532D01*
X92599998Y-107694532D01*
X92373313Y-107714364D01*
X92373302Y-107714366D01*
X92153511Y-107773258D01*
X92153502Y-107773261D01*
X91947267Y-107869431D01*
X91947265Y-107869432D01*
X91760858Y-107999954D01*
X91599954Y-108160858D01*
X91469432Y-108347265D01*
X91469431Y-108347267D01*
X91373261Y-108553502D01*
X91373258Y-108553511D01*
X91314366Y-108773302D01*
X91314364Y-108773313D01*
X91294532Y-108999998D01*
X71060500Y-108999998D01*
X71060500Y-105699998D01*
X96694532Y-105699998D01*
X96694532Y-105700001D01*
X96714364Y-105926686D01*
X96714366Y-105926697D01*
X96773258Y-106146488D01*
X96773261Y-106146497D01*
X96869431Y-106352732D01*
X96869432Y-106352734D01*
X96999954Y-106539141D01*
X97160858Y-106700045D01*
X97160861Y-106700047D01*
X97347266Y-106830568D01*
X97553504Y-106926739D01*
X97773308Y-106985635D01*
X97935230Y-106999801D01*
X97999998Y-107005468D01*
X98000000Y-107005468D01*
X98000002Y-107005468D01*
X98062545Y-106999996D01*
X100194435Y-106999996D01*
X100194435Y-107000003D01*
X100214630Y-107179249D01*
X100214631Y-107179254D01*
X100274211Y-107349523D01*
X100282363Y-107362496D01*
X100370184Y-107502262D01*
X100497738Y-107629816D01*
X100650478Y-107725789D01*
X100786137Y-107773258D01*
X100820745Y-107785368D01*
X100820750Y-107785369D01*
X100999996Y-107805565D01*
X101000000Y-107805565D01*
X101000004Y-107805565D01*
X101179249Y-107785369D01*
X101179252Y-107785368D01*
X101179255Y-107785368D01*
X101349522Y-107725789D01*
X101502262Y-107629816D01*
X101629816Y-107502262D01*
X101725789Y-107349522D01*
X101785368Y-107179255D01*
X101805565Y-107000000D01*
X101804945Y-106994500D01*
X101785369Y-106820750D01*
X101785368Y-106820745D01*
X101725788Y-106650476D01*
X101629815Y-106497737D01*
X101502262Y-106370184D01*
X101349523Y-106274211D01*
X101179254Y-106214631D01*
X101179249Y-106214630D01*
X101000004Y-106194435D01*
X100999996Y-106194435D01*
X100820750Y-106214630D01*
X100820745Y-106214631D01*
X100650476Y-106274211D01*
X100497737Y-106370184D01*
X100370184Y-106497737D01*
X100274211Y-106650476D01*
X100214631Y-106820745D01*
X100214630Y-106820750D01*
X100194435Y-106999996D01*
X98062545Y-106999996D01*
X98226692Y-106985635D01*
X98446496Y-106926739D01*
X98652734Y-106830568D01*
X98839139Y-106700047D01*
X99000047Y-106539139D01*
X99130568Y-106352734D01*
X99226739Y-106146496D01*
X99285635Y-105926692D01*
X99305468Y-105700000D01*
X99285635Y-105473308D01*
X99226739Y-105253504D01*
X99130568Y-105047266D01*
X99097469Y-104999996D01*
X102194435Y-104999996D01*
X102194435Y-105000003D01*
X102214630Y-105179249D01*
X102214631Y-105179254D01*
X102274211Y-105349523D01*
X102351987Y-105473302D01*
X102370184Y-105502262D01*
X102497738Y-105629816D01*
X102650478Y-105725789D01*
X102820745Y-105785368D01*
X102820750Y-105785369D01*
X102999996Y-105805565D01*
X103000000Y-105805565D01*
X103000004Y-105805565D01*
X103179249Y-105785369D01*
X103179252Y-105785368D01*
X103179255Y-105785368D01*
X103349522Y-105725789D01*
X103502262Y-105629816D01*
X103629816Y-105502262D01*
X103725789Y-105349522D01*
X103785368Y-105179255D01*
X103788356Y-105152734D01*
X103805565Y-105000003D01*
X103805565Y-104999996D01*
X103785369Y-104820750D01*
X103785368Y-104820745D01*
X103725788Y-104650476D01*
X103629815Y-104497737D01*
X103502262Y-104370184D01*
X103349523Y-104274211D01*
X103179254Y-104214631D01*
X103179249Y-104214630D01*
X103000004Y-104194435D01*
X102999996Y-104194435D01*
X102820750Y-104214630D01*
X102820745Y-104214631D01*
X102650476Y-104274211D01*
X102497737Y-104370184D01*
X102370184Y-104497737D01*
X102274211Y-104650476D01*
X102214631Y-104820745D01*
X102214630Y-104820750D01*
X102194435Y-104999996D01*
X99097469Y-104999996D01*
X99000047Y-104860861D01*
X99000045Y-104860858D01*
X98839141Y-104699954D01*
X98652734Y-104569432D01*
X98652732Y-104569431D01*
X98446497Y-104473261D01*
X98446488Y-104473258D01*
X98226697Y-104414366D01*
X98226693Y-104414365D01*
X98226692Y-104414365D01*
X98226691Y-104414364D01*
X98226686Y-104414364D01*
X98000002Y-104394532D01*
X97999998Y-104394532D01*
X97773313Y-104414364D01*
X97773302Y-104414366D01*
X97553511Y-104473258D01*
X97553502Y-104473261D01*
X97347267Y-104569431D01*
X97347265Y-104569432D01*
X97160858Y-104699954D01*
X96999954Y-104860858D01*
X96869432Y-105047265D01*
X96869431Y-105047267D01*
X96773261Y-105253502D01*
X96773258Y-105253511D01*
X96714366Y-105473302D01*
X96714364Y-105473313D01*
X96694532Y-105699998D01*
X71060500Y-105699998D01*
X71060500Y-102499995D01*
X74794451Y-102499995D01*
X74794451Y-102500004D01*
X74814616Y-102769101D01*
X74874664Y-103032188D01*
X74874666Y-103032195D01*
X74946163Y-103214366D01*
X74973257Y-103283398D01*
X75108185Y-103517102D01*
X75244080Y-103687509D01*
X75276442Y-103728089D01*
X75463183Y-103901358D01*
X75474259Y-103911635D01*
X75697226Y-104063651D01*
X75940359Y-104180738D01*
X76198228Y-104260280D01*
X76198229Y-104260280D01*
X76198232Y-104260281D01*
X76465063Y-104300499D01*
X76465068Y-104300499D01*
X76465071Y-104300500D01*
X76465072Y-104300500D01*
X76734928Y-104300500D01*
X76734929Y-104300500D01*
X76734936Y-104300499D01*
X77001767Y-104260281D01*
X77001768Y-104260280D01*
X77001772Y-104260280D01*
X77259641Y-104180738D01*
X77502775Y-104063651D01*
X77725741Y-103911635D01*
X77923561Y-103728085D01*
X78091815Y-103517102D01*
X78226743Y-103283398D01*
X78325334Y-103032195D01*
X78385383Y-102769103D01*
X78392440Y-102674930D01*
X78405549Y-102500004D01*
X78405549Y-102499995D01*
X78385383Y-102230898D01*
X78325335Y-101967811D01*
X78325334Y-101967805D01*
X78226743Y-101716602D01*
X78091815Y-101482898D01*
X77923561Y-101271915D01*
X77923560Y-101271914D01*
X77923557Y-101271910D01*
X77725741Y-101088365D01*
X77640288Y-101030104D01*
X77502775Y-100936349D01*
X77502769Y-100936346D01*
X77502768Y-100936345D01*
X77502767Y-100936344D01*
X77259643Y-100819263D01*
X77259645Y-100819263D01*
X77001773Y-100739720D01*
X77001767Y-100739718D01*
X76734936Y-100699500D01*
X76734929Y-100699500D01*
X76465071Y-100699500D01*
X76465063Y-100699500D01*
X76198232Y-100739718D01*
X76198226Y-100739720D01*
X75940358Y-100819262D01*
X75697230Y-100936346D01*
X75474258Y-101088365D01*
X75276442Y-101271910D01*
X75108185Y-101482898D01*
X74973258Y-101716599D01*
X74973256Y-101716603D01*
X74874666Y-101967804D01*
X74874664Y-101967811D01*
X74814616Y-102230898D01*
X74794451Y-102499995D01*
X71060500Y-102499995D01*
X71060500Y-93799996D01*
X88294435Y-93799996D01*
X88294435Y-93800003D01*
X88314630Y-93979249D01*
X88314631Y-93979254D01*
X88374211Y-94149523D01*
X88470184Y-94302262D01*
X88597738Y-94429816D01*
X88750478Y-94525789D01*
X88920745Y-94585368D01*
X88920750Y-94585369D01*
X89099996Y-94605565D01*
X89100000Y-94605565D01*
X89100004Y-94605565D01*
X89279249Y-94585369D01*
X89279252Y-94585368D01*
X89279255Y-94585368D01*
X89449522Y-94525789D01*
X89602262Y-94429816D01*
X89729816Y-94302262D01*
X89825789Y-94149522D01*
X89885368Y-93979255D01*
X89893671Y-93905565D01*
X89905565Y-93800003D01*
X89905565Y-93799996D01*
X89885369Y-93620750D01*
X89885368Y-93620745D01*
X89825789Y-93450478D01*
X89825188Y-93449522D01*
X89766103Y-93355488D01*
X89729816Y-93297738D01*
X89602262Y-93170184D01*
X89490570Y-93100003D01*
X89449523Y-93074211D01*
X89279254Y-93014631D01*
X89279249Y-93014630D01*
X89100004Y-92994435D01*
X89099996Y-92994435D01*
X88920750Y-93014630D01*
X88920745Y-93014631D01*
X88750476Y-93074211D01*
X88597737Y-93170184D01*
X88470184Y-93297737D01*
X88374211Y-93450476D01*
X88314631Y-93620745D01*
X88314630Y-93620750D01*
X88294435Y-93799996D01*
X71060500Y-93799996D01*
X71060500Y-93073920D01*
X76689499Y-93073920D01*
X76718340Y-93218907D01*
X76718343Y-93218917D01*
X76774912Y-93355488D01*
X76774919Y-93355501D01*
X76857048Y-93478415D01*
X76857051Y-93478419D01*
X76961580Y-93582948D01*
X76961584Y-93582951D01*
X77084498Y-93665080D01*
X77084511Y-93665087D01*
X77221082Y-93721656D01*
X77221087Y-93721658D01*
X77221091Y-93721658D01*
X77221092Y-93721659D01*
X77366079Y-93750500D01*
X77366082Y-93750500D01*
X77513920Y-93750500D01*
X77617906Y-93729815D01*
X77658913Y-93721658D01*
X77795495Y-93665084D01*
X77918416Y-93582951D01*
X78022951Y-93478416D01*
X78105084Y-93355495D01*
X78161658Y-93218913D01*
X78171351Y-93170184D01*
X78190500Y-93073920D01*
X78190500Y-92926079D01*
X78161659Y-92781092D01*
X78161658Y-92781091D01*
X78161658Y-92781087D01*
X78148980Y-92750480D01*
X78105087Y-92644511D01*
X78105080Y-92644498D01*
X78022951Y-92521584D01*
X78022948Y-92521580D01*
X77918419Y-92417051D01*
X77918415Y-92417048D01*
X77795501Y-92334919D01*
X77795488Y-92334912D01*
X77658917Y-92278343D01*
X77658907Y-92278340D01*
X77513920Y-92249500D01*
X77513918Y-92249500D01*
X77366082Y-92249500D01*
X77366080Y-92249500D01*
X77221092Y-92278340D01*
X77221082Y-92278343D01*
X77084511Y-92334912D01*
X77084498Y-92334919D01*
X76961584Y-92417048D01*
X76961580Y-92417051D01*
X76857051Y-92521580D01*
X76857048Y-92521584D01*
X76774919Y-92644498D01*
X76774912Y-92644511D01*
X76718343Y-92781082D01*
X76718340Y-92781092D01*
X76689500Y-92926079D01*
X76689500Y-92926082D01*
X76689500Y-93073918D01*
X76689500Y-93073920D01*
X76689499Y-93073920D01*
X71060500Y-93073920D01*
X71060500Y-89999994D01*
X74994357Y-89999994D01*
X74994357Y-90000005D01*
X75014890Y-90247812D01*
X75014892Y-90247824D01*
X75075936Y-90488881D01*
X75175826Y-90716606D01*
X75311833Y-90924782D01*
X75311836Y-90924785D01*
X75480256Y-91107738D01*
X75676491Y-91260474D01*
X75895190Y-91378828D01*
X76130386Y-91459571D01*
X76375665Y-91500500D01*
X76624335Y-91500500D01*
X76869614Y-91459571D01*
X77104810Y-91378828D01*
X77323509Y-91260474D01*
X77519744Y-91107738D01*
X77688164Y-90924785D01*
X77824173Y-90716607D01*
X77924063Y-90488881D01*
X77985108Y-90247821D01*
X77985109Y-90247812D01*
X78005643Y-90000005D01*
X78005643Y-89999994D01*
X77985109Y-89752187D01*
X77985107Y-89752175D01*
X77924063Y-89511118D01*
X77824173Y-89283393D01*
X77688166Y-89075217D01*
X77666557Y-89051744D01*
X77519744Y-88892262D01*
X77323509Y-88739526D01*
X77323507Y-88739525D01*
X77323506Y-88739524D01*
X77104811Y-88621172D01*
X77104802Y-88621169D01*
X76869616Y-88540429D01*
X76624335Y-88499500D01*
X76375665Y-88499500D01*
X76130383Y-88540429D01*
X75895197Y-88621169D01*
X75895188Y-88621172D01*
X75676493Y-88739524D01*
X75480257Y-88892261D01*
X75311833Y-89075217D01*
X75175826Y-89283393D01*
X75075936Y-89511118D01*
X75014892Y-89752175D01*
X75014890Y-89752187D01*
X74994357Y-89999994D01*
X71060500Y-89999994D01*
X71060500Y-87073920D01*
X76689499Y-87073920D01*
X76718340Y-87218907D01*
X76718343Y-87218917D01*
X76774912Y-87355488D01*
X76774919Y-87355501D01*
X76857048Y-87478415D01*
X76857051Y-87478419D01*
X76961580Y-87582948D01*
X76961584Y-87582951D01*
X77084498Y-87665080D01*
X77084511Y-87665087D01*
X77221082Y-87721656D01*
X77221087Y-87721658D01*
X77221091Y-87721658D01*
X77221092Y-87721659D01*
X77366079Y-87750500D01*
X77366082Y-87750500D01*
X77513920Y-87750500D01*
X77617906Y-87729815D01*
X77658913Y-87721658D01*
X77795495Y-87665084D01*
X77918416Y-87582951D01*
X78022951Y-87478416D01*
X78105084Y-87355495D01*
X78161658Y-87218913D01*
X78171096Y-87171462D01*
X78185313Y-87099996D01*
X110794435Y-87099996D01*
X110794435Y-87100003D01*
X110814630Y-87279249D01*
X110814631Y-87279254D01*
X110874211Y-87449523D01*
X110892366Y-87478416D01*
X110970184Y-87602262D01*
X111097738Y-87729816D01*
X111250478Y-87825789D01*
X111420745Y-87885368D01*
X111420750Y-87885369D01*
X111599996Y-87905565D01*
X111600000Y-87905565D01*
X111600004Y-87905565D01*
X111779249Y-87885369D01*
X111779252Y-87885368D01*
X111779255Y-87885368D01*
X111949522Y-87825789D01*
X112102262Y-87729816D01*
X112229816Y-87602262D01*
X112325789Y-87449522D01*
X112385368Y-87279255D01*
X112385369Y-87279249D01*
X112405565Y-87100003D01*
X112405565Y-87099996D01*
X112385369Y-86920750D01*
X112385368Y-86920745D01*
X112336501Y-86781092D01*
X112325789Y-86750478D01*
X112229816Y-86597738D01*
X112102262Y-86470184D01*
X111949523Y-86374211D01*
X111779254Y-86314631D01*
X111779249Y-86314630D01*
X111600004Y-86294435D01*
X111599996Y-86294435D01*
X111420750Y-86314630D01*
X111420745Y-86314631D01*
X111250476Y-86374211D01*
X111097737Y-86470184D01*
X110970184Y-86597737D01*
X110874211Y-86750476D01*
X110814631Y-86920745D01*
X110814630Y-86920750D01*
X110794435Y-87099996D01*
X78185313Y-87099996D01*
X78190500Y-87073920D01*
X78190500Y-86926079D01*
X78161659Y-86781092D01*
X78161658Y-86781091D01*
X78161658Y-86781087D01*
X78161656Y-86781082D01*
X78105087Y-86644511D01*
X78105080Y-86644498D01*
X78022951Y-86521584D01*
X78022948Y-86521580D01*
X77918419Y-86417051D01*
X77918415Y-86417048D01*
X77795501Y-86334919D01*
X77795488Y-86334912D01*
X77658917Y-86278343D01*
X77658907Y-86278340D01*
X77513920Y-86249500D01*
X77513918Y-86249500D01*
X77366082Y-86249500D01*
X77366080Y-86249500D01*
X77221092Y-86278340D01*
X77221082Y-86278343D01*
X77084511Y-86334912D01*
X77084498Y-86334919D01*
X76961584Y-86417048D01*
X76961580Y-86417051D01*
X76857051Y-86521580D01*
X76857048Y-86521584D01*
X76774919Y-86644498D01*
X76774912Y-86644511D01*
X76718343Y-86781082D01*
X76718340Y-86781092D01*
X76689500Y-86926079D01*
X76689500Y-86926082D01*
X76689500Y-87073918D01*
X76689500Y-87073920D01*
X76689499Y-87073920D01*
X71060500Y-87073920D01*
X71060500Y-82999996D01*
X123394435Y-82999996D01*
X123394435Y-83000003D01*
X123414630Y-83179249D01*
X123414631Y-83179254D01*
X123474211Y-83349523D01*
X123570184Y-83502262D01*
X123697738Y-83629816D01*
X123850478Y-83725789D01*
X124020745Y-83785368D01*
X124020750Y-83785369D01*
X124199996Y-83805565D01*
X124200000Y-83805565D01*
X124200004Y-83805565D01*
X124379249Y-83785369D01*
X124379252Y-83785368D01*
X124379255Y-83785368D01*
X124549522Y-83725789D01*
X124702262Y-83629816D01*
X124829816Y-83502262D01*
X124925789Y-83349522D01*
X124985368Y-83179255D01*
X125005565Y-83000000D01*
X124985368Y-82820745D01*
X124925789Y-82650478D01*
X124925788Y-82650476D01*
X124925788Y-82650475D01*
X124898215Y-82606594D01*
X124879214Y-82539357D01*
X124899581Y-82472522D01*
X124952849Y-82427307D01*
X125022105Y-82418069D01*
X125044163Y-82423580D01*
X125220737Y-82485366D01*
X125220743Y-82485367D01*
X125220745Y-82485368D01*
X125220746Y-82485368D01*
X125220750Y-82485369D01*
X125399996Y-82505565D01*
X125400000Y-82505565D01*
X125400004Y-82505565D01*
X125579249Y-82485369D01*
X125579252Y-82485368D01*
X125579255Y-82485368D01*
X125749522Y-82425789D01*
X125902262Y-82329816D01*
X126029816Y-82202262D01*
X126125789Y-82049522D01*
X126185368Y-81879255D01*
X126205565Y-81700000D01*
X126185368Y-81520745D01*
X126125789Y-81350478D01*
X126029816Y-81197738D01*
X125902262Y-81070184D01*
X125749523Y-80974211D01*
X125579254Y-80914631D01*
X125579249Y-80914630D01*
X125400004Y-80894435D01*
X125399996Y-80894435D01*
X125220750Y-80914630D01*
X125220745Y-80914631D01*
X125050476Y-80974211D01*
X124897737Y-81070184D01*
X124770184Y-81197737D01*
X124674211Y-81350476D01*
X124614631Y-81520745D01*
X124614630Y-81520750D01*
X124594435Y-81699996D01*
X124594435Y-81700003D01*
X124614630Y-81879249D01*
X124614631Y-81879254D01*
X124674211Y-82049523D01*
X124701785Y-82093406D01*
X124720785Y-82160643D01*
X124700417Y-82227478D01*
X124647150Y-82272692D01*
X124577893Y-82281930D01*
X124555837Y-82276420D01*
X124379257Y-82214632D01*
X124379249Y-82214630D01*
X124200004Y-82194435D01*
X124199996Y-82194435D01*
X124020750Y-82214630D01*
X124020745Y-82214631D01*
X123850476Y-82274211D01*
X123697737Y-82370184D01*
X123570184Y-82497737D01*
X123474211Y-82650476D01*
X123414631Y-82820745D01*
X123414630Y-82820750D01*
X123394435Y-82999996D01*
X71060500Y-82999996D01*
X71060500Y-77924000D01*
X84894500Y-77924000D01*
X84894500Y-82076000D01*
X84894501Y-82076009D01*
X84906052Y-82183450D01*
X84906054Y-82183462D01*
X84917260Y-82234972D01*
X84951383Y-82337497D01*
X84951386Y-82337503D01*
X85029171Y-82458537D01*
X85029179Y-82458548D01*
X85074923Y-82511340D01*
X85074926Y-82511343D01*
X85074930Y-82511347D01*
X85183664Y-82605567D01*
X85183667Y-82605568D01*
X85183668Y-82605569D01*
X85281998Y-82650476D01*
X85314541Y-82665338D01*
X85381580Y-82685023D01*
X85381584Y-82685024D01*
X85524000Y-82705500D01*
X85524003Y-82705500D01*
X94075990Y-82705500D01*
X94076000Y-82705500D01*
X94183456Y-82693947D01*
X94234967Y-82682741D01*
X94269197Y-82671347D01*
X94337497Y-82648616D01*
X94337499Y-82648614D01*
X94337504Y-82648613D01*
X94429273Y-82589635D01*
X94496311Y-82569951D01*
X94563350Y-82589635D01*
X94577512Y-82600236D01*
X94583664Y-82605567D01*
X94583667Y-82605568D01*
X94583668Y-82605569D01*
X94681998Y-82650476D01*
X94714541Y-82665338D01*
X94781580Y-82685023D01*
X94781584Y-82685024D01*
X94924000Y-82705500D01*
X94924003Y-82705500D01*
X96775990Y-82705500D01*
X96776000Y-82705500D01*
X96883456Y-82693947D01*
X96934967Y-82682741D01*
X96969197Y-82671347D01*
X97037497Y-82648616D01*
X97037501Y-82648613D01*
X97037504Y-82648613D01*
X97158543Y-82570825D01*
X97211347Y-82525070D01*
X97305567Y-82416336D01*
X97365338Y-82285459D01*
X97385023Y-82218420D01*
X97385024Y-82218416D01*
X97405500Y-82076000D01*
X97405500Y-80149821D01*
X97425185Y-80082782D01*
X97477989Y-80037027D01*
X97547147Y-80027083D01*
X97570455Y-80032780D01*
X97720737Y-80085366D01*
X97720743Y-80085367D01*
X97720745Y-80085368D01*
X97720746Y-80085368D01*
X97720750Y-80085369D01*
X97899996Y-80105565D01*
X97900000Y-80105565D01*
X97900004Y-80105565D01*
X98079249Y-80085369D01*
X98079252Y-80085368D01*
X98079255Y-80085368D01*
X98249522Y-80025789D01*
X98402262Y-79929816D01*
X98529816Y-79802262D01*
X98625789Y-79649522D01*
X98685368Y-79479255D01*
X98705565Y-79300000D01*
X98705565Y-79299996D01*
X103794435Y-79299996D01*
X103794435Y-79300003D01*
X103814630Y-79479249D01*
X103814631Y-79479254D01*
X103874211Y-79649523D01*
X103924662Y-79729815D01*
X103970184Y-79802262D01*
X104097738Y-79929816D01*
X104250478Y-80025789D01*
X104413355Y-80082782D01*
X104420745Y-80085368D01*
X104420750Y-80085369D01*
X104599996Y-80105565D01*
X104600000Y-80105565D01*
X104600004Y-80105565D01*
X104779249Y-80085369D01*
X104779252Y-80085368D01*
X104779255Y-80085368D01*
X104949522Y-80025789D01*
X105102262Y-79929816D01*
X105229816Y-79802262D01*
X105325789Y-79649522D01*
X105385368Y-79479255D01*
X105405565Y-79300000D01*
X105385368Y-79120745D01*
X105378108Y-79099996D01*
X115794435Y-79099996D01*
X115794435Y-79100003D01*
X115814630Y-79279249D01*
X115814631Y-79279254D01*
X115874211Y-79449523D01*
X115970184Y-79602262D01*
X116097738Y-79729816D01*
X116250478Y-79825789D01*
X116420745Y-79885368D01*
X116420750Y-79885369D01*
X116599996Y-79905565D01*
X116600000Y-79905565D01*
X116600004Y-79905565D01*
X116779249Y-79885369D01*
X116779252Y-79885368D01*
X116779255Y-79885368D01*
X116949522Y-79825789D01*
X117102262Y-79729816D01*
X117229816Y-79602262D01*
X117325789Y-79449522D01*
X117385368Y-79279255D01*
X117405565Y-79100000D01*
X117388718Y-78950478D01*
X117385369Y-78920750D01*
X117385368Y-78920745D01*
X117342326Y-78797738D01*
X117325789Y-78750478D01*
X117229816Y-78597738D01*
X117102262Y-78470184D01*
X117070424Y-78450179D01*
X116949523Y-78374211D01*
X116779254Y-78314631D01*
X116779249Y-78314630D01*
X116600004Y-78294435D01*
X116599996Y-78294435D01*
X116420750Y-78314630D01*
X116420745Y-78314631D01*
X116250476Y-78374211D01*
X116097737Y-78470184D01*
X115970184Y-78597737D01*
X115874211Y-78750476D01*
X115814631Y-78920745D01*
X115814630Y-78920750D01*
X115794435Y-79099996D01*
X105378108Y-79099996D01*
X105325789Y-78950478D01*
X105307106Y-78920745D01*
X105229815Y-78797737D01*
X105102262Y-78670184D01*
X104949523Y-78574211D01*
X104779254Y-78514631D01*
X104779249Y-78514630D01*
X104600004Y-78494435D01*
X104599996Y-78494435D01*
X104420750Y-78514630D01*
X104420745Y-78514631D01*
X104250476Y-78574211D01*
X104097737Y-78670184D01*
X103970184Y-78797737D01*
X103874211Y-78950476D01*
X103814631Y-79120745D01*
X103814630Y-79120750D01*
X103794435Y-79299996D01*
X98705565Y-79299996D01*
X98685368Y-79120745D01*
X98625789Y-78950478D01*
X98607106Y-78920745D01*
X98529815Y-78797737D01*
X98402262Y-78670184D01*
X98249523Y-78574211D01*
X98079254Y-78514631D01*
X98079249Y-78514630D01*
X97900004Y-78494435D01*
X97899996Y-78494435D01*
X97720750Y-78514630D01*
X97720737Y-78514633D01*
X97570455Y-78567220D01*
X97500676Y-78570782D01*
X97440049Y-78536054D01*
X97407821Y-78474060D01*
X97405500Y-78450179D01*
X97405500Y-77924010D01*
X97405500Y-77924000D01*
X141494500Y-77924000D01*
X141494500Y-84876000D01*
X141494501Y-84876009D01*
X141506052Y-84983450D01*
X141506054Y-84983462D01*
X141517260Y-85034972D01*
X141551383Y-85137497D01*
X141551386Y-85137503D01*
X141629171Y-85258537D01*
X141629179Y-85258548D01*
X141674923Y-85311340D01*
X141674926Y-85311343D01*
X141674930Y-85311347D01*
X141783664Y-85405567D01*
X141783667Y-85405568D01*
X141783668Y-85405569D01*
X141877925Y-85448616D01*
X141914541Y-85465338D01*
X141981580Y-85485023D01*
X141981584Y-85485024D01*
X142124000Y-85505500D01*
X142124003Y-85505500D01*
X151575990Y-85505500D01*
X151576000Y-85505500D01*
X151683456Y-85493947D01*
X151734967Y-85482741D01*
X151769197Y-85471347D01*
X151837497Y-85448616D01*
X151837499Y-85448614D01*
X151837504Y-85448613D01*
X151929273Y-85389635D01*
X151996311Y-85369951D01*
X152063350Y-85389635D01*
X152077512Y-85400236D01*
X152083664Y-85405567D01*
X152083667Y-85405568D01*
X152083668Y-85405569D01*
X152177925Y-85448616D01*
X152214541Y-85465338D01*
X152281580Y-85485023D01*
X152281584Y-85485024D01*
X152424000Y-85505500D01*
X152424003Y-85505500D01*
X167575990Y-85505500D01*
X167576000Y-85505500D01*
X167683456Y-85493947D01*
X167734967Y-85482741D01*
X167769197Y-85471347D01*
X167837497Y-85448616D01*
X167837499Y-85448614D01*
X167837504Y-85448613D01*
X167929273Y-85389635D01*
X167996311Y-85369951D01*
X168063350Y-85389635D01*
X168077512Y-85400236D01*
X168083664Y-85405567D01*
X168083667Y-85405568D01*
X168083668Y-85405569D01*
X168177925Y-85448616D01*
X168214541Y-85465338D01*
X168281580Y-85485023D01*
X168281584Y-85485024D01*
X168424000Y-85505500D01*
X168424003Y-85505500D01*
X171775990Y-85505500D01*
X171776000Y-85505500D01*
X171883456Y-85493947D01*
X171934967Y-85482741D01*
X171969197Y-85471347D01*
X172037497Y-85448616D01*
X172037501Y-85448613D01*
X172037504Y-85448613D01*
X172158543Y-85370825D01*
X172211347Y-85325070D01*
X172305567Y-85216336D01*
X172365338Y-85085459D01*
X172385023Y-85018420D01*
X172385024Y-85018416D01*
X172405500Y-84876000D01*
X172405500Y-77924000D01*
X172393947Y-77816544D01*
X172382741Y-77765033D01*
X172382637Y-77764722D01*
X172348616Y-77662502D01*
X172348613Y-77662496D01*
X172270828Y-77541462D01*
X172270825Y-77541457D01*
X172270820Y-77541451D01*
X172225076Y-77488659D01*
X172225072Y-77488656D01*
X172225070Y-77488653D01*
X172116336Y-77394433D01*
X172116333Y-77394431D01*
X172116331Y-77394430D01*
X171985465Y-77334664D01*
X171985460Y-77334662D01*
X171985459Y-77334662D01*
X171918420Y-77314977D01*
X171918422Y-77314977D01*
X171918417Y-77314976D01*
X171856347Y-77306052D01*
X171776000Y-77294500D01*
X168424000Y-77294500D01*
X168423991Y-77294500D01*
X168423990Y-77294501D01*
X168316549Y-77306052D01*
X168316537Y-77306054D01*
X168265027Y-77317260D01*
X168162502Y-77351383D01*
X168162498Y-77351385D01*
X168070726Y-77410364D01*
X168003687Y-77430048D01*
X167936647Y-77410363D01*
X167922483Y-77399759D01*
X167916339Y-77394435D01*
X167916331Y-77394430D01*
X167785465Y-77334664D01*
X167785460Y-77334662D01*
X167785459Y-77334662D01*
X167718420Y-77314977D01*
X167718422Y-77314977D01*
X167718417Y-77314976D01*
X167656347Y-77306052D01*
X167576000Y-77294500D01*
X152424000Y-77294500D01*
X152423991Y-77294500D01*
X152423990Y-77294501D01*
X152316549Y-77306052D01*
X152316537Y-77306054D01*
X152265027Y-77317260D01*
X152162502Y-77351383D01*
X152162498Y-77351385D01*
X152070726Y-77410364D01*
X152003687Y-77430048D01*
X151936647Y-77410363D01*
X151922483Y-77399759D01*
X151916339Y-77394435D01*
X151916331Y-77394430D01*
X151785465Y-77334664D01*
X151785460Y-77334662D01*
X151785459Y-77334662D01*
X151718420Y-77314977D01*
X151718422Y-77314977D01*
X151718417Y-77314976D01*
X151656347Y-77306052D01*
X151576000Y-77294500D01*
X142124000Y-77294500D01*
X142123991Y-77294500D01*
X142123990Y-77294501D01*
X142016549Y-77306052D01*
X142016537Y-77306054D01*
X141965027Y-77317260D01*
X141862502Y-77351383D01*
X141862496Y-77351386D01*
X141741462Y-77429171D01*
X141741451Y-77429179D01*
X141688659Y-77474923D01*
X141594433Y-77583664D01*
X141594430Y-77583668D01*
X141534664Y-77714534D01*
X141514976Y-77781582D01*
X141509949Y-77816549D01*
X141494500Y-77924000D01*
X97405500Y-77924000D01*
X97393947Y-77816544D01*
X97382741Y-77765033D01*
X97382637Y-77764722D01*
X97348616Y-77662502D01*
X97348613Y-77662496D01*
X97270828Y-77541462D01*
X97270825Y-77541457D01*
X97270820Y-77541451D01*
X97225076Y-77488659D01*
X97225072Y-77488656D01*
X97225070Y-77488653D01*
X97116336Y-77394433D01*
X97116333Y-77394431D01*
X97116331Y-77394430D01*
X96985465Y-77334664D01*
X96985460Y-77334662D01*
X96985459Y-77334662D01*
X96918420Y-77314977D01*
X96918422Y-77314977D01*
X96918417Y-77314976D01*
X96856347Y-77306052D01*
X96776000Y-77294500D01*
X94924000Y-77294500D01*
X94923991Y-77294500D01*
X94923990Y-77294501D01*
X94816549Y-77306052D01*
X94816537Y-77306054D01*
X94765027Y-77317260D01*
X94662502Y-77351383D01*
X94662498Y-77351385D01*
X94570726Y-77410364D01*
X94503687Y-77430048D01*
X94436647Y-77410363D01*
X94422483Y-77399759D01*
X94416339Y-77394435D01*
X94416331Y-77394430D01*
X94285465Y-77334664D01*
X94285460Y-77334662D01*
X94285459Y-77334662D01*
X94218420Y-77314977D01*
X94218422Y-77314977D01*
X94218417Y-77314976D01*
X94156347Y-77306052D01*
X94076000Y-77294500D01*
X85524000Y-77294500D01*
X85523991Y-77294500D01*
X85523990Y-77294501D01*
X85416549Y-77306052D01*
X85416537Y-77306054D01*
X85365027Y-77317260D01*
X85262502Y-77351383D01*
X85262496Y-77351386D01*
X85141462Y-77429171D01*
X85141451Y-77429179D01*
X85088659Y-77474923D01*
X84994433Y-77583664D01*
X84994430Y-77583668D01*
X84934664Y-77714534D01*
X84914976Y-77781582D01*
X84909949Y-77816549D01*
X84894500Y-77924000D01*
X71060500Y-77924000D01*
X71060500Y-77124000D01*
X71080185Y-77056961D01*
X71132989Y-77011206D01*
X71184500Y-77000000D01*
X188815500Y-77000000D01*
X188882539Y-77019685D01*
G37*
%TD.AperFunction*%
%TD*%
%TA.AperFunction,Conductor*%
%TO.N,GND*%
G36*
X86735675Y-61080185D02*
G01*
X86781430Y-61132989D01*
X86791374Y-61202147D01*
X86767012Y-61259984D01*
X86737449Y-61298512D01*
X86719137Y-61322377D01*
X86663671Y-61456287D01*
X86663670Y-61456291D01*
X86644750Y-61600000D01*
X86658990Y-61708165D01*
X86663670Y-61743708D01*
X86663671Y-61743712D01*
X86719137Y-61877622D01*
X86719138Y-61877624D01*
X86719139Y-61877625D01*
X86807379Y-61992621D01*
X86922375Y-62080861D01*
X87056291Y-62136330D01*
X87183280Y-62153048D01*
X87199999Y-62155250D01*
X87200000Y-62155250D01*
X87200001Y-62155250D01*
X87214977Y-62153278D01*
X87343709Y-62136330D01*
X87477625Y-62080861D01*
X87592621Y-61992621D01*
X87680861Y-61877625D01*
X87736330Y-61743709D01*
X87755250Y-61600000D01*
X87736330Y-61456291D01*
X87680861Y-61322375D01*
X87632987Y-61259985D01*
X87607794Y-61194818D01*
X87621832Y-61126373D01*
X87670646Y-61076383D01*
X87731364Y-61060500D01*
X182980343Y-61060500D01*
X182997575Y-61060500D01*
X183002443Y-61060596D01*
X183461158Y-61078618D01*
X183470828Y-61079379D01*
X183924310Y-61133053D01*
X183933914Y-61134574D01*
X184381773Y-61223659D01*
X184391233Y-61225930D01*
X184733208Y-61322377D01*
X184830708Y-61349875D01*
X184839967Y-61352882D01*
X185216930Y-61491952D01*
X185268378Y-61510932D01*
X185277373Y-61514658D01*
X185692061Y-61705831D01*
X185700713Y-61710239D01*
X186099152Y-61933376D01*
X186107417Y-61938442D01*
X186487100Y-62192137D01*
X186494974Y-62197857D01*
X186853579Y-62480559D01*
X186860970Y-62486872D01*
X187196290Y-62796838D01*
X187203161Y-62803709D01*
X187513122Y-63139023D01*
X187519445Y-63146426D01*
X187802139Y-63505022D01*
X187807862Y-63512899D01*
X188061552Y-63892573D01*
X188066627Y-63900854D01*
X188289755Y-64299277D01*
X188294168Y-64307938D01*
X188485341Y-64722626D01*
X188489067Y-64731621D01*
X188647116Y-65160031D01*
X188650124Y-65169291D01*
X188774068Y-65608762D01*
X188776341Y-65618230D01*
X188865424Y-66066079D01*
X188866947Y-66075695D01*
X188920618Y-66529152D01*
X188921382Y-66538859D01*
X188939404Y-66997556D01*
X188939500Y-67002424D01*
X188939500Y-74876000D01*
X188919815Y-74943039D01*
X188867011Y-74988794D01*
X188815500Y-75000000D01*
X71184500Y-75000000D01*
X71117461Y-74980315D01*
X71071706Y-74927511D01*
X71060500Y-74876000D01*
X71060500Y-73199999D01*
X82344750Y-73199999D01*
X82344750Y-73200000D01*
X82363670Y-73343708D01*
X82363671Y-73343712D01*
X82419137Y-73477622D01*
X82419138Y-73477624D01*
X82419139Y-73477625D01*
X82507379Y-73592621D01*
X82622375Y-73680861D01*
X82756291Y-73736330D01*
X82883280Y-73753048D01*
X82899999Y-73755250D01*
X82900000Y-73755250D01*
X82900001Y-73755250D01*
X82914977Y-73753278D01*
X83043709Y-73736330D01*
X83177625Y-73680861D01*
X83292621Y-73592621D01*
X83363693Y-73499999D01*
X171444750Y-73499999D01*
X171444750Y-73500000D01*
X171463670Y-73643708D01*
X171463671Y-73643712D01*
X171519137Y-73777622D01*
X171519138Y-73777624D01*
X171519139Y-73777625D01*
X171607379Y-73892621D01*
X171722375Y-73980861D01*
X171856291Y-74036330D01*
X171983280Y-74053048D01*
X171999999Y-74055250D01*
X172000000Y-74055250D01*
X172000001Y-74055250D01*
X172014977Y-74053278D01*
X172143709Y-74036330D01*
X172277625Y-73980861D01*
X172392621Y-73892621D01*
X172480861Y-73777625D01*
X172536330Y-73643709D01*
X172555250Y-73500000D01*
X172536330Y-73356291D01*
X172480861Y-73222375D01*
X172392621Y-73107379D01*
X172277625Y-73019139D01*
X172277624Y-73019138D01*
X172277622Y-73019137D01*
X172143712Y-72963671D01*
X172143710Y-72963670D01*
X172143709Y-72963670D01*
X172071854Y-72954210D01*
X172000001Y-72944750D01*
X171999999Y-72944750D01*
X171856291Y-72963670D01*
X171856287Y-72963671D01*
X171722377Y-73019137D01*
X171607379Y-73107379D01*
X171519137Y-73222377D01*
X171463671Y-73356287D01*
X171463670Y-73356291D01*
X171444750Y-73499999D01*
X83363693Y-73499999D01*
X83380861Y-73477625D01*
X83436330Y-73343709D01*
X83455250Y-73200000D01*
X83436330Y-73056291D01*
X83380861Y-72922375D01*
X83363692Y-72900000D01*
X101544750Y-72900000D01*
X101553132Y-72963670D01*
X101563670Y-73043708D01*
X101563671Y-73043712D01*
X101619137Y-73177622D01*
X101619138Y-73177624D01*
X101619139Y-73177625D01*
X101707379Y-73292621D01*
X101822375Y-73380861D01*
X101956291Y-73436330D01*
X102083280Y-73453048D01*
X102099999Y-73455250D01*
X102100000Y-73455250D01*
X102100001Y-73455250D01*
X102114977Y-73453278D01*
X102243709Y-73436330D01*
X102377625Y-73380861D01*
X102492621Y-73292621D01*
X102580861Y-73177625D01*
X102636330Y-73043709D01*
X102655250Y-72900000D01*
X113544750Y-72900000D01*
X113553132Y-72963670D01*
X113563670Y-73043708D01*
X113563671Y-73043712D01*
X113619137Y-73177622D01*
X113619138Y-73177624D01*
X113619139Y-73177625D01*
X113707379Y-73292621D01*
X113822375Y-73380861D01*
X113956291Y-73436330D01*
X114083280Y-73453048D01*
X114099999Y-73455250D01*
X114100000Y-73455250D01*
X114100001Y-73455250D01*
X114114977Y-73453278D01*
X114243709Y-73436330D01*
X114377625Y-73380861D01*
X114492621Y-73292621D01*
X114580861Y-73177625D01*
X114636330Y-73043709D01*
X114655250Y-72900000D01*
X114636330Y-72756291D01*
X114580861Y-72622375D01*
X114492621Y-72507379D01*
X114377625Y-72419139D01*
X114377624Y-72419138D01*
X114377622Y-72419137D01*
X114243712Y-72363671D01*
X114243710Y-72363670D01*
X114243709Y-72363670D01*
X114171854Y-72354210D01*
X114100001Y-72344750D01*
X114099999Y-72344750D01*
X113956291Y-72363670D01*
X113956287Y-72363671D01*
X113822377Y-72419137D01*
X113707379Y-72507379D01*
X113619137Y-72622377D01*
X113563671Y-72756287D01*
X113563670Y-72756291D01*
X113544750Y-72900000D01*
X102655250Y-72900000D01*
X102636330Y-72756291D01*
X102580861Y-72622375D01*
X102492621Y-72507379D01*
X102377625Y-72419139D01*
X102377624Y-72419138D01*
X102377622Y-72419137D01*
X102243712Y-72363671D01*
X102243710Y-72363670D01*
X102243709Y-72363670D01*
X102171854Y-72354210D01*
X102100001Y-72344750D01*
X102099999Y-72344750D01*
X101956291Y-72363670D01*
X101956287Y-72363671D01*
X101822377Y-72419137D01*
X101707379Y-72507379D01*
X101619137Y-72622377D01*
X101563671Y-72756287D01*
X101563670Y-72756291D01*
X101544750Y-72900000D01*
X83363692Y-72900000D01*
X83292621Y-72807379D01*
X83177625Y-72719139D01*
X83177624Y-72719138D01*
X83177622Y-72719137D01*
X83043712Y-72663671D01*
X83043710Y-72663670D01*
X83043709Y-72663670D01*
X82971854Y-72654210D01*
X82900001Y-72644750D01*
X82899999Y-72644750D01*
X82756291Y-72663670D01*
X82756287Y-72663671D01*
X82622377Y-72719137D01*
X82507379Y-72807379D01*
X82419137Y-72922377D01*
X82363671Y-73056287D01*
X82363670Y-73056291D01*
X82344750Y-73199999D01*
X71060500Y-73199999D01*
X71060500Y-67002424D01*
X71060548Y-67000000D01*
X72444639Y-67000000D01*
X72464071Y-67420316D01*
X72509183Y-67743712D01*
X72522203Y-67837044D01*
X72522204Y-67837050D01*
X72618536Y-68246631D01*
X72752256Y-68645597D01*
X72752257Y-68645601D01*
X72922199Y-69030480D01*
X72922204Y-69030490D01*
X72922208Y-69030499D01*
X72922212Y-69030507D01*
X72922213Y-69030508D01*
X73126949Y-69398081D01*
X73126952Y-69398085D01*
X73126954Y-69398089D01*
X73364743Y-69745218D01*
X73364745Y-69745220D01*
X73364752Y-69745230D01*
X73373073Y-69755250D01*
X73633548Y-70068927D01*
X73931073Y-70366452D01*
X73931084Y-70366461D01*
X74254769Y-70635247D01*
X74254775Y-70635251D01*
X74254782Y-70635257D01*
X74601911Y-70873046D01*
X74969501Y-71077792D01*
X74969518Y-71077799D01*
X74969519Y-71077800D01*
X75354398Y-71247742D01*
X75354402Y-71247743D01*
X75354404Y-71247743D01*
X75354414Y-71247748D01*
X75753366Y-71381463D01*
X76162955Y-71477797D01*
X76579684Y-71535929D01*
X77000000Y-71555361D01*
X77420316Y-71535929D01*
X77677886Y-71499999D01*
X92049750Y-71499999D01*
X92049750Y-71500000D01*
X92068670Y-71643708D01*
X92068671Y-71643712D01*
X92124137Y-71777622D01*
X92124138Y-71777624D01*
X92124139Y-71777625D01*
X92212379Y-71892621D01*
X92327375Y-71980861D01*
X92461291Y-72036330D01*
X92588280Y-72053048D01*
X92604999Y-72055250D01*
X92605000Y-72055250D01*
X92605001Y-72055250D01*
X92619977Y-72053278D01*
X92748709Y-72036330D01*
X92882625Y-71980861D01*
X92997621Y-71892621D01*
X93085861Y-71777625D01*
X93141330Y-71643709D01*
X93160250Y-71500000D01*
X93160250Y-71499999D01*
X149544750Y-71499999D01*
X149544750Y-71500000D01*
X149563670Y-71643708D01*
X149563671Y-71643712D01*
X149619137Y-71777622D01*
X149619138Y-71777624D01*
X149619139Y-71777625D01*
X149707379Y-71892621D01*
X149822375Y-71980861D01*
X149956291Y-72036330D01*
X150083280Y-72053048D01*
X150099999Y-72055250D01*
X150100000Y-72055250D01*
X150100001Y-72055250D01*
X150114977Y-72053278D01*
X150243709Y-72036330D01*
X150377625Y-71980861D01*
X150492621Y-71892621D01*
X150580861Y-71777625D01*
X150636330Y-71643709D01*
X150655250Y-71500000D01*
X150655250Y-71499999D01*
X165544750Y-71499999D01*
X165544750Y-71500000D01*
X165563670Y-71643708D01*
X165563671Y-71643712D01*
X165619137Y-71777622D01*
X165619138Y-71777624D01*
X165619139Y-71777625D01*
X165707379Y-71892621D01*
X165822375Y-71980861D01*
X165956291Y-72036330D01*
X166083280Y-72053048D01*
X166099999Y-72055250D01*
X166100000Y-72055250D01*
X166100001Y-72055250D01*
X166114977Y-72053278D01*
X166243709Y-72036330D01*
X166377625Y-71980861D01*
X166492621Y-71892621D01*
X166580861Y-71777625D01*
X166636330Y-71643709D01*
X166655250Y-71500000D01*
X166636330Y-71356291D01*
X166580861Y-71222375D01*
X166492621Y-71107379D01*
X166377625Y-71019139D01*
X166377624Y-71019138D01*
X166377622Y-71019137D01*
X166243712Y-70963671D01*
X166243710Y-70963670D01*
X166243709Y-70963670D01*
X166171854Y-70954210D01*
X166100001Y-70944750D01*
X166099999Y-70944750D01*
X165956291Y-70963670D01*
X165956287Y-70963671D01*
X165822377Y-71019137D01*
X165707379Y-71107379D01*
X165619137Y-71222377D01*
X165563671Y-71356287D01*
X165563670Y-71356291D01*
X165544750Y-71499999D01*
X150655250Y-71499999D01*
X150636330Y-71356291D01*
X150580861Y-71222375D01*
X150492621Y-71107379D01*
X150377625Y-71019139D01*
X150377624Y-71019138D01*
X150377622Y-71019137D01*
X150243712Y-70963671D01*
X150243710Y-70963670D01*
X150243709Y-70963670D01*
X150171854Y-70954210D01*
X150100001Y-70944750D01*
X150099999Y-70944750D01*
X149956291Y-70963670D01*
X149956287Y-70963671D01*
X149822377Y-71019137D01*
X149707379Y-71107379D01*
X149619137Y-71222377D01*
X149563671Y-71356287D01*
X149563670Y-71356291D01*
X149544750Y-71499999D01*
X93160250Y-71499999D01*
X93141330Y-71356291D01*
X93085861Y-71222375D01*
X92997621Y-71107379D01*
X92882625Y-71019139D01*
X92882624Y-71019138D01*
X92882622Y-71019137D01*
X92748712Y-70963671D01*
X92748710Y-70963670D01*
X92748709Y-70963670D01*
X92676854Y-70954210D01*
X92605001Y-70944750D01*
X92604999Y-70944750D01*
X92461291Y-70963670D01*
X92461287Y-70963671D01*
X92327377Y-71019137D01*
X92212379Y-71107379D01*
X92124137Y-71222377D01*
X92068671Y-71356287D01*
X92068670Y-71356291D01*
X92049750Y-71499999D01*
X77677886Y-71499999D01*
X77837045Y-71477797D01*
X78246634Y-71381463D01*
X78645586Y-71247748D01*
X78645597Y-71247742D01*
X78645601Y-71247742D01*
X78882482Y-71143147D01*
X79030499Y-71077792D01*
X79398089Y-70873046D01*
X79745218Y-70635257D01*
X80068927Y-70366452D01*
X80366452Y-70068927D01*
X80635257Y-69745218D01*
X80873046Y-69398089D01*
X80983381Y-69199999D01*
X101544750Y-69199999D01*
X101544750Y-69200000D01*
X101563670Y-69343708D01*
X101563671Y-69343712D01*
X101619137Y-69477622D01*
X101619138Y-69477624D01*
X101619139Y-69477625D01*
X101707379Y-69592621D01*
X101822375Y-69680861D01*
X101956291Y-69736330D01*
X102083280Y-69753048D01*
X102099999Y-69755250D01*
X102100000Y-69755250D01*
X102100001Y-69755250D01*
X102114977Y-69753278D01*
X102243709Y-69736330D01*
X102377625Y-69680861D01*
X102492621Y-69592621D01*
X102580861Y-69477625D01*
X102636330Y-69343709D01*
X102655250Y-69200000D01*
X102655250Y-69199999D01*
X113544750Y-69199999D01*
X113544750Y-69200000D01*
X113563670Y-69343708D01*
X113563671Y-69343712D01*
X113619137Y-69477622D01*
X113619138Y-69477624D01*
X113619139Y-69477625D01*
X113707379Y-69592621D01*
X113822375Y-69680861D01*
X113956291Y-69736330D01*
X114083280Y-69753048D01*
X114099999Y-69755250D01*
X114100000Y-69755250D01*
X114100001Y-69755250D01*
X114114977Y-69753278D01*
X114243709Y-69736330D01*
X114377625Y-69680861D01*
X114492621Y-69592621D01*
X114580861Y-69477625D01*
X114636330Y-69343709D01*
X114655250Y-69200000D01*
X114636330Y-69056291D01*
X114580861Y-68922375D01*
X114492621Y-68807379D01*
X114377625Y-68719139D01*
X114377624Y-68719138D01*
X114377622Y-68719137D01*
X114243712Y-68663671D01*
X114243710Y-68663670D01*
X114243709Y-68663670D01*
X114171854Y-68654210D01*
X114100001Y-68644750D01*
X114099999Y-68644750D01*
X113956291Y-68663670D01*
X113956287Y-68663671D01*
X113822377Y-68719137D01*
X113707379Y-68807379D01*
X113619137Y-68922377D01*
X113563671Y-69056287D01*
X113563670Y-69056291D01*
X113544750Y-69199999D01*
X102655250Y-69199999D01*
X102636330Y-69056291D01*
X102580861Y-68922375D01*
X102492621Y-68807379D01*
X102377625Y-68719139D01*
X102377624Y-68719138D01*
X102377622Y-68719137D01*
X102243712Y-68663671D01*
X102243710Y-68663670D01*
X102243709Y-68663670D01*
X102171854Y-68654210D01*
X102100001Y-68644750D01*
X102099999Y-68644750D01*
X101956291Y-68663670D01*
X101956287Y-68663671D01*
X101822377Y-68719137D01*
X101707379Y-68807379D01*
X101619137Y-68922377D01*
X101563671Y-69056287D01*
X101563670Y-69056291D01*
X101544750Y-69199999D01*
X80983381Y-69199999D01*
X81077792Y-69030499D01*
X81176309Y-68807379D01*
X81247742Y-68645601D01*
X81247743Y-68645597D01*
X81247748Y-68645586D01*
X81381463Y-68246634D01*
X81477797Y-67837045D01*
X81510864Y-67599999D01*
X97344750Y-67599999D01*
X97344750Y-67600000D01*
X97363670Y-67743708D01*
X97363671Y-67743712D01*
X97419137Y-67877622D01*
X97419138Y-67877624D01*
X97419139Y-67877625D01*
X97507379Y-67992621D01*
X97622375Y-68080861D01*
X97756291Y-68136330D01*
X97883280Y-68153048D01*
X97899999Y-68155250D01*
X97900000Y-68155250D01*
X97900001Y-68155250D01*
X97914977Y-68153278D01*
X98043709Y-68136330D01*
X98177625Y-68080861D01*
X98292621Y-67992621D01*
X98380861Y-67877625D01*
X98436330Y-67743709D01*
X98455250Y-67600000D01*
X98455250Y-67599999D01*
X104944750Y-67599999D01*
X104944750Y-67600000D01*
X104963670Y-67743708D01*
X104963671Y-67743712D01*
X105019137Y-67877622D01*
X105019138Y-67877624D01*
X105019139Y-67877625D01*
X105107379Y-67992621D01*
X105222375Y-68080861D01*
X105356291Y-68136330D01*
X105483280Y-68153048D01*
X105499999Y-68155250D01*
X105500000Y-68155250D01*
X105500001Y-68155250D01*
X105514977Y-68153278D01*
X105643709Y-68136330D01*
X105777625Y-68080861D01*
X105892621Y-67992621D01*
X105980861Y-67877625D01*
X106036330Y-67743709D01*
X106055250Y-67600000D01*
X106055250Y-67599999D01*
X109444750Y-67599999D01*
X109444750Y-67600000D01*
X109463670Y-67743708D01*
X109463671Y-67743712D01*
X109519137Y-67877622D01*
X109519138Y-67877624D01*
X109519139Y-67877625D01*
X109607379Y-67992621D01*
X109722375Y-68080861D01*
X109856291Y-68136330D01*
X109983280Y-68153048D01*
X109999999Y-68155250D01*
X110000000Y-68155250D01*
X110000001Y-68155250D01*
X110014977Y-68153278D01*
X110143709Y-68136330D01*
X110277625Y-68080861D01*
X110392621Y-67992621D01*
X110480861Y-67877625D01*
X110536330Y-67743709D01*
X110555250Y-67600000D01*
X110536330Y-67456291D01*
X110486641Y-67336329D01*
X110480862Y-67322377D01*
X110480861Y-67322376D01*
X110480861Y-67322375D01*
X110392621Y-67207379D01*
X110277625Y-67119139D01*
X110277624Y-67119138D01*
X110277622Y-67119137D01*
X110143712Y-67063671D01*
X110143710Y-67063670D01*
X110143709Y-67063670D01*
X110071854Y-67054210D01*
X110000001Y-67044750D01*
X109999999Y-67044750D01*
X109856291Y-67063670D01*
X109856287Y-67063671D01*
X109722377Y-67119137D01*
X109607379Y-67207379D01*
X109519137Y-67322377D01*
X109463671Y-67456287D01*
X109463670Y-67456291D01*
X109444750Y-67599999D01*
X106055250Y-67599999D01*
X106036330Y-67456291D01*
X105986641Y-67336329D01*
X105980862Y-67322377D01*
X105980861Y-67322376D01*
X105980861Y-67322375D01*
X105892621Y-67207379D01*
X105777625Y-67119139D01*
X105777624Y-67119138D01*
X105777622Y-67119137D01*
X105643712Y-67063671D01*
X105643710Y-67063670D01*
X105643709Y-67063670D01*
X105571854Y-67054210D01*
X105500001Y-67044750D01*
X105499999Y-67044750D01*
X105356291Y-67063670D01*
X105356287Y-67063671D01*
X105222377Y-67119137D01*
X105107379Y-67207379D01*
X105019137Y-67322377D01*
X104963671Y-67456287D01*
X104963670Y-67456291D01*
X104944750Y-67599999D01*
X98455250Y-67599999D01*
X98436330Y-67456291D01*
X98386641Y-67336329D01*
X98380862Y-67322377D01*
X98380861Y-67322376D01*
X98380861Y-67322375D01*
X98292621Y-67207379D01*
X98177625Y-67119139D01*
X98177624Y-67119138D01*
X98177622Y-67119137D01*
X98043712Y-67063671D01*
X98043710Y-67063670D01*
X98043709Y-67063670D01*
X97971854Y-67054210D01*
X97900001Y-67044750D01*
X97899999Y-67044750D01*
X97756291Y-67063670D01*
X97756287Y-67063671D01*
X97622377Y-67119137D01*
X97507379Y-67207379D01*
X97419137Y-67322377D01*
X97363671Y-67456287D01*
X97363670Y-67456291D01*
X97344750Y-67599999D01*
X81510864Y-67599999D01*
X81535929Y-67420316D01*
X81555361Y-67000000D01*
X81550738Y-66900000D01*
X85144750Y-66900000D01*
X85157915Y-67000000D01*
X85163670Y-67043708D01*
X85163671Y-67043712D01*
X85219137Y-67177622D01*
X85219138Y-67177624D01*
X85219139Y-67177625D01*
X85307379Y-67292621D01*
X85422375Y-67380861D01*
X85556291Y-67436330D01*
X85683280Y-67453048D01*
X85699999Y-67455250D01*
X85700000Y-67455250D01*
X85700001Y-67455250D01*
X85714977Y-67453278D01*
X85843709Y-67436330D01*
X85977625Y-67380861D01*
X86092621Y-67292621D01*
X86180861Y-67177625D01*
X86236330Y-67043709D01*
X86255250Y-66900000D01*
X87244750Y-66900000D01*
X87257915Y-67000000D01*
X87263670Y-67043708D01*
X87263671Y-67043712D01*
X87319137Y-67177622D01*
X87319138Y-67177624D01*
X87319139Y-67177625D01*
X87407379Y-67292621D01*
X87522375Y-67380861D01*
X87656291Y-67436330D01*
X87783280Y-67453048D01*
X87799999Y-67455250D01*
X87800000Y-67455250D01*
X87800001Y-67455250D01*
X87814977Y-67453278D01*
X87943709Y-67436330D01*
X88077625Y-67380861D01*
X88192621Y-67292621D01*
X88280861Y-67177625D01*
X88336330Y-67043709D01*
X88355250Y-66900000D01*
X88354988Y-66898013D01*
X88347839Y-66843708D01*
X88342085Y-66800000D01*
X94549750Y-66800000D01*
X94562915Y-66900000D01*
X94568670Y-66943708D01*
X94568671Y-66943712D01*
X94624137Y-67077622D01*
X94624138Y-67077624D01*
X94624139Y-67077625D01*
X94712379Y-67192621D01*
X94827375Y-67280861D01*
X94827376Y-67280861D01*
X94827377Y-67280862D01*
X94872013Y-67299350D01*
X94961291Y-67336330D01*
X95088280Y-67353048D01*
X95104999Y-67355250D01*
X95105000Y-67355250D01*
X95105001Y-67355250D01*
X95119977Y-67353278D01*
X95248709Y-67336330D01*
X95382625Y-67280861D01*
X95497621Y-67192621D01*
X95585861Y-67077625D01*
X95641330Y-66943709D01*
X95660250Y-66800000D01*
X95660179Y-66799464D01*
X95655232Y-66761889D01*
X95641330Y-66656291D01*
X95591641Y-66536329D01*
X95585862Y-66522377D01*
X95585861Y-66522376D01*
X95585861Y-66522375D01*
X95497621Y-66407379D01*
X95382625Y-66319139D01*
X95382624Y-66319138D01*
X95382622Y-66319137D01*
X95248712Y-66263671D01*
X95248710Y-66263670D01*
X95248709Y-66263670D01*
X95129709Y-66248003D01*
X95105001Y-66244750D01*
X95104999Y-66244750D01*
X94961291Y-66263670D01*
X94961287Y-66263671D01*
X94827377Y-66319137D01*
X94712379Y-66407379D01*
X94624137Y-66522377D01*
X94568671Y-66656287D01*
X94568670Y-66656291D01*
X94549821Y-66799464D01*
X94549750Y-66800000D01*
X88342085Y-66800000D01*
X88336330Y-66756291D01*
X88280861Y-66622375D01*
X88192621Y-66507379D01*
X88077625Y-66419139D01*
X88077624Y-66419138D01*
X88077622Y-66419137D01*
X87943712Y-66363671D01*
X87943710Y-66363670D01*
X87943709Y-66363670D01*
X87871854Y-66354210D01*
X87800001Y-66344750D01*
X87799999Y-66344750D01*
X87656291Y-66363670D01*
X87656287Y-66363671D01*
X87522377Y-66419137D01*
X87407379Y-66507379D01*
X87319137Y-66622377D01*
X87263671Y-66756287D01*
X87263670Y-66756291D01*
X87245012Y-66898013D01*
X87244750Y-66900000D01*
X86255250Y-66900000D01*
X86254988Y-66898013D01*
X86247839Y-66843708D01*
X86236330Y-66756291D01*
X86180861Y-66622375D01*
X86092621Y-66507379D01*
X85977625Y-66419139D01*
X85977624Y-66419138D01*
X85977622Y-66419137D01*
X85843712Y-66363671D01*
X85843710Y-66363670D01*
X85843709Y-66363670D01*
X85771854Y-66354210D01*
X85700001Y-66344750D01*
X85699999Y-66344750D01*
X85556291Y-66363670D01*
X85556287Y-66363671D01*
X85422377Y-66419137D01*
X85307379Y-66507379D01*
X85219137Y-66622377D01*
X85163671Y-66756287D01*
X85163670Y-66756291D01*
X85145012Y-66898013D01*
X85144750Y-66900000D01*
X81550738Y-66900000D01*
X81535929Y-66579684D01*
X81477797Y-66162955D01*
X81439471Y-66000000D01*
X97344750Y-66000000D01*
X97360971Y-66123212D01*
X97363670Y-66143708D01*
X97363671Y-66143712D01*
X97419137Y-66277622D01*
X97419138Y-66277624D01*
X97419139Y-66277625D01*
X97507379Y-66392621D01*
X97622375Y-66480861D01*
X97756291Y-66536330D01*
X97883280Y-66553048D01*
X97899999Y-66555250D01*
X97900000Y-66555250D01*
X97900001Y-66555250D01*
X97914977Y-66553278D01*
X98043709Y-66536330D01*
X98177625Y-66480861D01*
X98292621Y-66392621D01*
X98380861Y-66277625D01*
X98436330Y-66143709D01*
X98455250Y-66000000D01*
X109444750Y-66000000D01*
X109460971Y-66123212D01*
X109463670Y-66143708D01*
X109463671Y-66143712D01*
X109519137Y-66277622D01*
X109519138Y-66277624D01*
X109519139Y-66277625D01*
X109607379Y-66392621D01*
X109722375Y-66480861D01*
X109856291Y-66536330D01*
X109983280Y-66553048D01*
X109999999Y-66555250D01*
X110000000Y-66555250D01*
X110000001Y-66555250D01*
X110014977Y-66553278D01*
X110143709Y-66536330D01*
X110277625Y-66480861D01*
X110392621Y-66392621D01*
X110480861Y-66277625D01*
X110536330Y-66143709D01*
X110555250Y-66000000D01*
X110536330Y-65856291D01*
X110480861Y-65722375D01*
X110392621Y-65607379D01*
X110277625Y-65519139D01*
X110277624Y-65519138D01*
X110277622Y-65519137D01*
X110143712Y-65463671D01*
X110143710Y-65463670D01*
X110143709Y-65463670D01*
X110071854Y-65454210D01*
X110000001Y-65444750D01*
X109999999Y-65444750D01*
X109856291Y-65463670D01*
X109856287Y-65463671D01*
X109722377Y-65519137D01*
X109607379Y-65607379D01*
X109519137Y-65722377D01*
X109463671Y-65856287D01*
X109463670Y-65856291D01*
X109444750Y-66000000D01*
X98455250Y-66000000D01*
X98436330Y-65856291D01*
X98380861Y-65722375D01*
X98292621Y-65607379D01*
X98177625Y-65519139D01*
X98177624Y-65519138D01*
X98177622Y-65519137D01*
X98043712Y-65463671D01*
X98043710Y-65463670D01*
X98043709Y-65463670D01*
X97971854Y-65454210D01*
X97900001Y-65444750D01*
X97899999Y-65444750D01*
X97756291Y-65463670D01*
X97756287Y-65463671D01*
X97622377Y-65519137D01*
X97507379Y-65607379D01*
X97419137Y-65722377D01*
X97363671Y-65856287D01*
X97363670Y-65856291D01*
X97344750Y-66000000D01*
X81439471Y-66000000D01*
X81381463Y-65753366D01*
X81247748Y-65354414D01*
X81247743Y-65354402D01*
X81247742Y-65354398D01*
X81223723Y-65300000D01*
X93149750Y-65300000D01*
X93167698Y-65436329D01*
X93168670Y-65443708D01*
X93168671Y-65443712D01*
X93224137Y-65577622D01*
X93224138Y-65577624D01*
X93224139Y-65577625D01*
X93312379Y-65692621D01*
X93427375Y-65780861D01*
X93561291Y-65836330D01*
X93688280Y-65853048D01*
X93704999Y-65855250D01*
X93705000Y-65855250D01*
X93705001Y-65855250D01*
X93719977Y-65853278D01*
X93848709Y-65836330D01*
X93982625Y-65780861D01*
X94097621Y-65692621D01*
X94185861Y-65577625D01*
X94241330Y-65443709D01*
X94260250Y-65300000D01*
X94241330Y-65156291D01*
X94187768Y-65026979D01*
X94185862Y-65022377D01*
X94185861Y-65022376D01*
X94185861Y-65022375D01*
X94097621Y-64907379D01*
X94088005Y-64900000D01*
X117344750Y-64900000D01*
X117361974Y-65030830D01*
X117363670Y-65043708D01*
X117363671Y-65043712D01*
X117419137Y-65177622D01*
X117419138Y-65177624D01*
X117419139Y-65177625D01*
X117507379Y-65292621D01*
X117622375Y-65380861D01*
X117756291Y-65436330D01*
X117883280Y-65453048D01*
X117899999Y-65455250D01*
X117900000Y-65455250D01*
X117900001Y-65455250D01*
X117914977Y-65453278D01*
X118043709Y-65436330D01*
X118177625Y-65380861D01*
X118292621Y-65292621D01*
X118380861Y-65177625D01*
X118436330Y-65043709D01*
X118455250Y-64900000D01*
X118454988Y-64898013D01*
X118452037Y-64875599D01*
X118436330Y-64756291D01*
X118380861Y-64622375D01*
X118292621Y-64507379D01*
X118177625Y-64419139D01*
X118177624Y-64419138D01*
X118177622Y-64419137D01*
X118043712Y-64363671D01*
X118043710Y-64363670D01*
X118043709Y-64363670D01*
X117971854Y-64354210D01*
X117900001Y-64344750D01*
X117899999Y-64344750D01*
X117756291Y-64363670D01*
X117756287Y-64363671D01*
X117622377Y-64419137D01*
X117507379Y-64507379D01*
X117419137Y-64622377D01*
X117363671Y-64756287D01*
X117363670Y-64756291D01*
X117345012Y-64898013D01*
X117344750Y-64900000D01*
X94088005Y-64900000D01*
X93982625Y-64819139D01*
X93982624Y-64819138D01*
X93982622Y-64819137D01*
X93848712Y-64763671D01*
X93848710Y-64763670D01*
X93848709Y-64763670D01*
X93776854Y-64754210D01*
X93705001Y-64744750D01*
X93704999Y-64744750D01*
X93561291Y-64763670D01*
X93561287Y-64763671D01*
X93427377Y-64819137D01*
X93312379Y-64907379D01*
X93224137Y-65022377D01*
X93168671Y-65156287D01*
X93168670Y-65156291D01*
X93150722Y-65292620D01*
X93149750Y-65300000D01*
X81223723Y-65300000D01*
X81077800Y-64969519D01*
X81077799Y-64969518D01*
X81077792Y-64969501D01*
X80911998Y-64671844D01*
X80873050Y-64601918D01*
X80873049Y-64601917D01*
X80873046Y-64601911D01*
X80635257Y-64254782D01*
X80635251Y-64254775D01*
X80635247Y-64254769D01*
X80370817Y-63936330D01*
X80366452Y-63931073D01*
X80246683Y-63811304D01*
X127099500Y-63811304D01*
X127099500Y-64188695D01*
X127134103Y-64362658D01*
X127134106Y-64362667D01*
X127201983Y-64526540D01*
X127201990Y-64526553D01*
X127300535Y-64674034D01*
X127300538Y-64674038D01*
X127425961Y-64799461D01*
X127425965Y-64799464D01*
X127571783Y-64896898D01*
X127616588Y-64950511D01*
X127625295Y-65019836D01*
X127595140Y-65082863D01*
X127571783Y-65103102D01*
X127425965Y-65200535D01*
X127425961Y-65200538D01*
X127300538Y-65325961D01*
X127300535Y-65325965D01*
X127201990Y-65473446D01*
X127201983Y-65473459D01*
X127134106Y-65637332D01*
X127134103Y-65637341D01*
X127099500Y-65811304D01*
X127099500Y-66188695D01*
X127134103Y-66362658D01*
X127134106Y-66362667D01*
X127201983Y-66526540D01*
X127201990Y-66526553D01*
X127300535Y-66674034D01*
X127300538Y-66674038D01*
X127425961Y-66799461D01*
X127425965Y-66799464D01*
X127573446Y-66898009D01*
X127573459Y-66898016D01*
X127683772Y-66943708D01*
X127737334Y-66965894D01*
X127737336Y-66965894D01*
X127737341Y-66965896D01*
X127911304Y-67000499D01*
X127911307Y-67000500D01*
X127911309Y-67000500D01*
X128088693Y-67000500D01*
X128088694Y-67000499D01*
X128146682Y-66988964D01*
X128262658Y-66965896D01*
X128262661Y-66965894D01*
X128262666Y-66965894D01*
X128421750Y-66900000D01*
X128426540Y-66898016D01*
X128426540Y-66898015D01*
X128426547Y-66898013D01*
X128574035Y-66799464D01*
X128699464Y-66674035D01*
X128798013Y-66526547D01*
X128865894Y-66362666D01*
X128874553Y-66319139D01*
X128878383Y-66299882D01*
X128910768Y-66237971D01*
X128971483Y-66203397D01*
X129041253Y-66207136D01*
X129097925Y-66248003D01*
X129121617Y-66299882D01*
X129134103Y-66362658D01*
X129134106Y-66362667D01*
X129201983Y-66526540D01*
X129201990Y-66526553D01*
X129300535Y-66674034D01*
X129300538Y-66674038D01*
X129425961Y-66799461D01*
X129425965Y-66799464D01*
X129573446Y-66898009D01*
X129573459Y-66898016D01*
X129683772Y-66943708D01*
X129737334Y-66965894D01*
X129737336Y-66965894D01*
X129737341Y-66965896D01*
X129911304Y-67000499D01*
X129911307Y-67000500D01*
X129911309Y-67000500D01*
X130088693Y-67000500D01*
X130088694Y-67000499D01*
X130146682Y-66988964D01*
X130262658Y-66965896D01*
X130262661Y-66965894D01*
X130262666Y-66965894D01*
X130421750Y-66900000D01*
X130426540Y-66898016D01*
X130426540Y-66898015D01*
X130426547Y-66898013D01*
X130574035Y-66799464D01*
X130699464Y-66674035D01*
X130798013Y-66526547D01*
X130865894Y-66362666D01*
X130874553Y-66319139D01*
X130878383Y-66299882D01*
X130910768Y-66237971D01*
X130971483Y-66203397D01*
X131041253Y-66207136D01*
X131097925Y-66248003D01*
X131121617Y-66299882D01*
X131134103Y-66362658D01*
X131134106Y-66362667D01*
X131201983Y-66526540D01*
X131201990Y-66526553D01*
X131300535Y-66674034D01*
X131300538Y-66674038D01*
X131425961Y-66799461D01*
X131425965Y-66799464D01*
X131573446Y-66898009D01*
X131573459Y-66898016D01*
X131683772Y-66943708D01*
X131737334Y-66965894D01*
X131737336Y-66965894D01*
X131737341Y-66965896D01*
X131911304Y-67000499D01*
X131911307Y-67000500D01*
X131911309Y-67000500D01*
X132088693Y-67000500D01*
X132088694Y-67000499D01*
X132146682Y-66988964D01*
X132262658Y-66965896D01*
X132262661Y-66965894D01*
X132262666Y-66965894D01*
X132421750Y-66900000D01*
X132426540Y-66898016D01*
X132426540Y-66898015D01*
X132426547Y-66898013D01*
X132574035Y-66799464D01*
X132699464Y-66674035D01*
X132798013Y-66526547D01*
X132865894Y-66362666D01*
X132874553Y-66319139D01*
X132878383Y-66299882D01*
X132910768Y-66237971D01*
X132971483Y-66203397D01*
X133041253Y-66207136D01*
X133097925Y-66248003D01*
X133121617Y-66299882D01*
X133134103Y-66362658D01*
X133134106Y-66362667D01*
X133201983Y-66526540D01*
X133201990Y-66526553D01*
X133300535Y-66674034D01*
X133300538Y-66674038D01*
X133425961Y-66799461D01*
X133425965Y-66799464D01*
X133573446Y-66898009D01*
X133573459Y-66898016D01*
X133683772Y-66943708D01*
X133737334Y-66965894D01*
X133737336Y-66965894D01*
X133737341Y-66965896D01*
X133911304Y-67000499D01*
X133911307Y-67000500D01*
X133911309Y-67000500D01*
X134088693Y-67000500D01*
X134088694Y-67000499D01*
X134146682Y-66988964D01*
X134262658Y-66965896D01*
X134262661Y-66965894D01*
X134262666Y-66965894D01*
X134421750Y-66900000D01*
X134426540Y-66898016D01*
X134426540Y-66898015D01*
X134426547Y-66898013D01*
X134574035Y-66799464D01*
X134699464Y-66674035D01*
X134798013Y-66526547D01*
X134865894Y-66362666D01*
X134874553Y-66319139D01*
X134878383Y-66299882D01*
X134910768Y-66237971D01*
X134971483Y-66203397D01*
X135041253Y-66207136D01*
X135097925Y-66248003D01*
X135121617Y-66299882D01*
X135134103Y-66362658D01*
X135134106Y-66362667D01*
X135201983Y-66526540D01*
X135201990Y-66526553D01*
X135300535Y-66674034D01*
X135300538Y-66674038D01*
X135425961Y-66799461D01*
X135425965Y-66799464D01*
X135573446Y-66898009D01*
X135573459Y-66898016D01*
X135683772Y-66943708D01*
X135737334Y-66965894D01*
X135737336Y-66965894D01*
X135737341Y-66965896D01*
X135911304Y-67000499D01*
X135911307Y-67000500D01*
X135911309Y-67000500D01*
X136088693Y-67000500D01*
X136088694Y-67000499D01*
X136146682Y-66988964D01*
X136262658Y-66965896D01*
X136262661Y-66965894D01*
X136262666Y-66965894D01*
X136421750Y-66900000D01*
X136426540Y-66898016D01*
X136426540Y-66898015D01*
X136426547Y-66898013D01*
X136574035Y-66799464D01*
X136699464Y-66674035D01*
X136798013Y-66526547D01*
X136865894Y-66362666D01*
X136876892Y-66307379D01*
X136900499Y-66188695D01*
X136900500Y-66188693D01*
X136900500Y-65811306D01*
X136900499Y-65811304D01*
X136865896Y-65637341D01*
X136865893Y-65637332D01*
X136798016Y-65473459D01*
X136798009Y-65473446D01*
X136699464Y-65325965D01*
X136699461Y-65325961D01*
X136574038Y-65200538D01*
X136574034Y-65200535D01*
X136428216Y-65103102D01*
X136383411Y-65049490D01*
X136374704Y-64980165D01*
X136404859Y-64917137D01*
X136428216Y-64896898D01*
X136461511Y-64874650D01*
X136574035Y-64799464D01*
X136699464Y-64674035D01*
X136798013Y-64526547D01*
X136865894Y-64362666D01*
X136874337Y-64320224D01*
X136900499Y-64188695D01*
X136900500Y-64188693D01*
X136900500Y-63811306D01*
X136900499Y-63811304D01*
X139099500Y-63811304D01*
X139099500Y-64188695D01*
X139134103Y-64362658D01*
X139134106Y-64362667D01*
X139201983Y-64526540D01*
X139201990Y-64526553D01*
X139300535Y-64674034D01*
X139300538Y-64674038D01*
X139425961Y-64799461D01*
X139425965Y-64799464D01*
X139571783Y-64896898D01*
X139616588Y-64950511D01*
X139625295Y-65019836D01*
X139595140Y-65082863D01*
X139571783Y-65103102D01*
X139425965Y-65200535D01*
X139425961Y-65200538D01*
X139300538Y-65325961D01*
X139300535Y-65325965D01*
X139201990Y-65473446D01*
X139201983Y-65473459D01*
X139134106Y-65637332D01*
X139134103Y-65637341D01*
X139099500Y-65811304D01*
X139099500Y-66188695D01*
X139134103Y-66362658D01*
X139134106Y-66362667D01*
X139201983Y-66526540D01*
X139201990Y-66526553D01*
X139300535Y-66674034D01*
X139300538Y-66674038D01*
X139425961Y-66799461D01*
X139425965Y-66799464D01*
X139573446Y-66898009D01*
X139573459Y-66898016D01*
X139683772Y-66943708D01*
X139737334Y-66965894D01*
X139737336Y-66965894D01*
X139737341Y-66965896D01*
X139911304Y-67000499D01*
X139911307Y-67000500D01*
X139911309Y-67000500D01*
X140088693Y-67000500D01*
X140088694Y-67000499D01*
X140146682Y-66988964D01*
X140262658Y-66965896D01*
X140262661Y-66965894D01*
X140262666Y-66965894D01*
X140421750Y-66900000D01*
X140426540Y-66898016D01*
X140426540Y-66898015D01*
X140426547Y-66898013D01*
X140574035Y-66799464D01*
X140699464Y-66674035D01*
X140798013Y-66526547D01*
X140865894Y-66362666D01*
X140874553Y-66319139D01*
X140878383Y-66299882D01*
X140910768Y-66237971D01*
X140971483Y-66203397D01*
X141041253Y-66207136D01*
X141097925Y-66248003D01*
X141121617Y-66299882D01*
X141134103Y-66362658D01*
X141134106Y-66362667D01*
X141201983Y-66526540D01*
X141201990Y-66526553D01*
X141300535Y-66674034D01*
X141300538Y-66674038D01*
X141425961Y-66799461D01*
X141425965Y-66799464D01*
X141573446Y-66898009D01*
X141573459Y-66898016D01*
X141683772Y-66943708D01*
X141737334Y-66965894D01*
X141737336Y-66965894D01*
X141737341Y-66965896D01*
X141911304Y-67000499D01*
X141911307Y-67000500D01*
X141911309Y-67000500D01*
X142088693Y-67000500D01*
X142088694Y-67000499D01*
X142146682Y-66988964D01*
X142262658Y-66965896D01*
X142262661Y-66965894D01*
X142262666Y-66965894D01*
X142421750Y-66900000D01*
X142426540Y-66898016D01*
X142426540Y-66898015D01*
X142426547Y-66898013D01*
X142574035Y-66799464D01*
X142673499Y-66700000D01*
X151944750Y-66700000D01*
X151957915Y-66800000D01*
X151963670Y-66843708D01*
X151963671Y-66843712D01*
X152019137Y-66977622D01*
X152019138Y-66977624D01*
X152019139Y-66977625D01*
X152107379Y-67092621D01*
X152222375Y-67180861D01*
X152222376Y-67180861D01*
X152222377Y-67180862D01*
X152267013Y-67199350D01*
X152356291Y-67236330D01*
X152483280Y-67253048D01*
X152499999Y-67255250D01*
X152500000Y-67255250D01*
X152500001Y-67255250D01*
X152514977Y-67253278D01*
X152643709Y-67236330D01*
X152777625Y-67180861D01*
X152892621Y-67092621D01*
X152980861Y-66977625D01*
X153036330Y-66843709D01*
X153055250Y-66700000D01*
X153043847Y-66613389D01*
X157999500Y-66613389D01*
X157999500Y-66786611D01*
X158001621Y-66800000D01*
X158024381Y-66943708D01*
X158026598Y-66957701D01*
X158080127Y-67122445D01*
X158158768Y-67276788D01*
X158260586Y-67416928D01*
X158383072Y-67539414D01*
X158523212Y-67641232D01*
X158677555Y-67719873D01*
X158842299Y-67773402D01*
X159013389Y-67800500D01*
X159013390Y-67800500D01*
X159986610Y-67800500D01*
X159986611Y-67800500D01*
X160157701Y-67773402D01*
X160322445Y-67719873D01*
X160476788Y-67641232D01*
X160616928Y-67539414D01*
X160739414Y-67416928D01*
X160841232Y-67276788D01*
X160919873Y-67122445D01*
X160973402Y-66957701D01*
X161000500Y-66786611D01*
X161000500Y-66700000D01*
X168044750Y-66700000D01*
X168057915Y-66800000D01*
X168063670Y-66843708D01*
X168063671Y-66843712D01*
X168119137Y-66977622D01*
X168119138Y-66977624D01*
X168119139Y-66977625D01*
X168207379Y-67092621D01*
X168322375Y-67180861D01*
X168322376Y-67180861D01*
X168322377Y-67180862D01*
X168367013Y-67199350D01*
X168456291Y-67236330D01*
X168583280Y-67253048D01*
X168599999Y-67255250D01*
X168600000Y-67255250D01*
X168600001Y-67255250D01*
X168614977Y-67253278D01*
X168743709Y-67236330D01*
X168877625Y-67180861D01*
X168992621Y-67092621D01*
X169080861Y-66977625D01*
X169113014Y-66900000D01*
X172744750Y-66900000D01*
X172757915Y-67000000D01*
X172763670Y-67043708D01*
X172763671Y-67043712D01*
X172819137Y-67177622D01*
X172819138Y-67177624D01*
X172819139Y-67177625D01*
X172907379Y-67292621D01*
X173022375Y-67380861D01*
X173156291Y-67436330D01*
X173283280Y-67453048D01*
X173299999Y-67455250D01*
X173300000Y-67455250D01*
X173300001Y-67455250D01*
X173314977Y-67453278D01*
X173443709Y-67436330D01*
X173577625Y-67380861D01*
X173692621Y-67292621D01*
X173780861Y-67177625D01*
X173836330Y-67043709D01*
X173855250Y-66900000D01*
X175744750Y-66900000D01*
X175757915Y-67000000D01*
X175763670Y-67043708D01*
X175763671Y-67043712D01*
X175819137Y-67177622D01*
X175819138Y-67177624D01*
X175819139Y-67177625D01*
X175907379Y-67292621D01*
X176022375Y-67380861D01*
X176156291Y-67436330D01*
X176283280Y-67453048D01*
X176299999Y-67455250D01*
X176300000Y-67455250D01*
X176300001Y-67455250D01*
X176314977Y-67453278D01*
X176443709Y-67436330D01*
X176577625Y-67380861D01*
X176692621Y-67292621D01*
X176780861Y-67177625D01*
X176836330Y-67043709D01*
X176842085Y-67000000D01*
X178444639Y-67000000D01*
X178464071Y-67420316D01*
X178509183Y-67743712D01*
X178522203Y-67837044D01*
X178522204Y-67837050D01*
X178618536Y-68246631D01*
X178752256Y-68645597D01*
X178752257Y-68645601D01*
X178922199Y-69030480D01*
X178922204Y-69030490D01*
X178922208Y-69030499D01*
X178922212Y-69030507D01*
X178922213Y-69030508D01*
X179126949Y-69398081D01*
X179126952Y-69398085D01*
X179126954Y-69398089D01*
X179364743Y-69745218D01*
X179364745Y-69745220D01*
X179364752Y-69745230D01*
X179373073Y-69755250D01*
X179633548Y-70068927D01*
X179931073Y-70366452D01*
X179931084Y-70366461D01*
X180254769Y-70635247D01*
X180254775Y-70635251D01*
X180254782Y-70635257D01*
X180601911Y-70873046D01*
X180969501Y-71077792D01*
X180969518Y-71077799D01*
X180969519Y-71077800D01*
X181354398Y-71247742D01*
X181354402Y-71247743D01*
X181354404Y-71247743D01*
X181354414Y-71247748D01*
X181753366Y-71381463D01*
X182162955Y-71477797D01*
X182579684Y-71535929D01*
X183000000Y-71555361D01*
X183420316Y-71535929D01*
X183837045Y-71477797D01*
X184246634Y-71381463D01*
X184645586Y-71247748D01*
X184645597Y-71247742D01*
X184645601Y-71247742D01*
X184882482Y-71143147D01*
X185030499Y-71077792D01*
X185398089Y-70873046D01*
X185745218Y-70635257D01*
X186068927Y-70366452D01*
X186366452Y-70068927D01*
X186635257Y-69745218D01*
X186873046Y-69398089D01*
X187077792Y-69030499D01*
X187176309Y-68807379D01*
X187247742Y-68645601D01*
X187247743Y-68645597D01*
X187247748Y-68645586D01*
X187381463Y-68246634D01*
X187477797Y-67837045D01*
X187535929Y-67420316D01*
X187555361Y-67000000D01*
X187535929Y-66579684D01*
X187477797Y-66162955D01*
X187381463Y-65753366D01*
X187247748Y-65354414D01*
X187247743Y-65354402D01*
X187247742Y-65354398D01*
X187077800Y-64969519D01*
X187077799Y-64969518D01*
X187077792Y-64969501D01*
X186911998Y-64671844D01*
X186873050Y-64601918D01*
X186873049Y-64601917D01*
X186873046Y-64601911D01*
X186635257Y-64254782D01*
X186635251Y-64254775D01*
X186635247Y-64254769D01*
X186370817Y-63936330D01*
X186366452Y-63931073D01*
X186068927Y-63633548D01*
X185960742Y-63543712D01*
X185745230Y-63364752D01*
X185745220Y-63364745D01*
X185745218Y-63364743D01*
X185398089Y-63126954D01*
X185398085Y-63126952D01*
X185398081Y-63126949D01*
X185030508Y-62922213D01*
X185030507Y-62922212D01*
X185030499Y-62922208D01*
X185030490Y-62922204D01*
X185030480Y-62922199D01*
X184645601Y-62752257D01*
X184645597Y-62752256D01*
X184645588Y-62752253D01*
X184645586Y-62752252D01*
X184246634Y-62618537D01*
X184246633Y-62618536D01*
X184246631Y-62618536D01*
X183837050Y-62522204D01*
X183837047Y-62522203D01*
X183837045Y-62522203D01*
X183538477Y-62480554D01*
X183420324Y-62464072D01*
X183420322Y-62464071D01*
X183420316Y-62464071D01*
X183000000Y-62444639D01*
X182579684Y-62464071D01*
X182579677Y-62464071D01*
X182579675Y-62464072D01*
X182162955Y-62522203D01*
X182162949Y-62522204D01*
X181753368Y-62618536D01*
X181354402Y-62752256D01*
X181354398Y-62752257D01*
X180969519Y-62922199D01*
X180969491Y-62922213D01*
X180601918Y-63126949D01*
X180601912Y-63126953D01*
X180254779Y-63364745D01*
X180254769Y-63364752D01*
X179931084Y-63633538D01*
X179931064Y-63633556D01*
X179633556Y-63931064D01*
X179633538Y-63931084D01*
X179364752Y-64254769D01*
X179364745Y-64254779D01*
X179126953Y-64601912D01*
X179126949Y-64601918D01*
X178922213Y-64969491D01*
X178922199Y-64969519D01*
X178752257Y-65354398D01*
X178752256Y-65354402D01*
X178618536Y-65753368D01*
X178522204Y-66162949D01*
X178522203Y-66162955D01*
X178470119Y-66536330D01*
X178464071Y-66579684D01*
X178444639Y-67000000D01*
X176842085Y-67000000D01*
X176855250Y-66900000D01*
X176854988Y-66898013D01*
X176847839Y-66843708D01*
X176836330Y-66756291D01*
X176780861Y-66622375D01*
X176692621Y-66507379D01*
X176577625Y-66419139D01*
X176577624Y-66419138D01*
X176577622Y-66419137D01*
X176443712Y-66363671D01*
X176443710Y-66363670D01*
X176443709Y-66363670D01*
X176371854Y-66354210D01*
X176300001Y-66344750D01*
X176299999Y-66344750D01*
X176156291Y-66363670D01*
X176156287Y-66363671D01*
X176022377Y-66419137D01*
X175907379Y-66507379D01*
X175819137Y-66622377D01*
X175763671Y-66756287D01*
X175763670Y-66756291D01*
X175745012Y-66898013D01*
X175744750Y-66900000D01*
X173855250Y-66900000D01*
X173854988Y-66898013D01*
X173847839Y-66843708D01*
X173836330Y-66756291D01*
X173780861Y-66622375D01*
X173692621Y-66507379D01*
X173577625Y-66419139D01*
X173577624Y-66419138D01*
X173577622Y-66419137D01*
X173443712Y-66363671D01*
X173443710Y-66363670D01*
X173443709Y-66363670D01*
X173371854Y-66354210D01*
X173300001Y-66344750D01*
X173299999Y-66344750D01*
X173156291Y-66363670D01*
X173156287Y-66363671D01*
X173022377Y-66419137D01*
X172907379Y-66507379D01*
X172819137Y-66622377D01*
X172763671Y-66756287D01*
X172763670Y-66756291D01*
X172745012Y-66898013D01*
X172744750Y-66900000D01*
X169113014Y-66900000D01*
X169136330Y-66843709D01*
X169155250Y-66700000D01*
X169136330Y-66556291D01*
X169080861Y-66422375D01*
X168992621Y-66307379D01*
X168877625Y-66219139D01*
X168877624Y-66219138D01*
X168877622Y-66219137D01*
X168743712Y-66163671D01*
X168743710Y-66163670D01*
X168743709Y-66163670D01*
X168671854Y-66154210D01*
X168600001Y-66144750D01*
X168599999Y-66144750D01*
X168456291Y-66163670D01*
X168456287Y-66163671D01*
X168322377Y-66219137D01*
X168207379Y-66307379D01*
X168119137Y-66422377D01*
X168063671Y-66556287D01*
X168063670Y-66556291D01*
X168048169Y-66674034D01*
X168044750Y-66700000D01*
X161000500Y-66700000D01*
X161000500Y-66613389D01*
X160973402Y-66442299D01*
X160919873Y-66277555D01*
X160841232Y-66123212D01*
X160739414Y-65983072D01*
X160616928Y-65860586D01*
X160476788Y-65758768D01*
X160322445Y-65680127D01*
X160157701Y-65626598D01*
X160157699Y-65626597D01*
X160157698Y-65626597D01*
X160026271Y-65605781D01*
X159986611Y-65599500D01*
X159013389Y-65599500D01*
X158973728Y-65605781D01*
X158842302Y-65626597D01*
X158677552Y-65680128D01*
X158523211Y-65758768D01*
X158450903Y-65811304D01*
X158383072Y-65860586D01*
X158383070Y-65860588D01*
X158383069Y-65860588D01*
X158260588Y-65983069D01*
X158260588Y-65983070D01*
X158260586Y-65983072D01*
X158248288Y-65999999D01*
X158158768Y-66123211D01*
X158080128Y-66277552D01*
X158026597Y-66442302D01*
X158013254Y-66526547D01*
X157999500Y-66613389D01*
X153043847Y-66613389D01*
X153036330Y-66556291D01*
X152980861Y-66422375D01*
X152892621Y-66307379D01*
X152777625Y-66219139D01*
X152777624Y-66219138D01*
X152777622Y-66219137D01*
X152643712Y-66163671D01*
X152643710Y-66163670D01*
X152643709Y-66163670D01*
X152571854Y-66154210D01*
X152500001Y-66144750D01*
X152499999Y-66144750D01*
X152356291Y-66163670D01*
X152356287Y-66163671D01*
X152222377Y-66219137D01*
X152107379Y-66307379D01*
X152019137Y-66422377D01*
X151963671Y-66556287D01*
X151963670Y-66556291D01*
X151948169Y-66674034D01*
X151944750Y-66700000D01*
X142673499Y-66700000D01*
X142699464Y-66674035D01*
X142798013Y-66526547D01*
X142865894Y-66362666D01*
X142876892Y-66307379D01*
X142900499Y-66188695D01*
X142900500Y-66188693D01*
X142900500Y-65811306D01*
X142900499Y-65811304D01*
X142865896Y-65637341D01*
X142865893Y-65637332D01*
X142798016Y-65473459D01*
X142798009Y-65473446D01*
X142699464Y-65325965D01*
X142699461Y-65325961D01*
X142673500Y-65300000D01*
X150444750Y-65300000D01*
X150462698Y-65436329D01*
X150463670Y-65443708D01*
X150463671Y-65443712D01*
X150519137Y-65577622D01*
X150519138Y-65577624D01*
X150519139Y-65577625D01*
X150607379Y-65692621D01*
X150722375Y-65780861D01*
X150856291Y-65836330D01*
X150983280Y-65853048D01*
X150999999Y-65855250D01*
X151000000Y-65855250D01*
X151000001Y-65855250D01*
X151014977Y-65853278D01*
X151143709Y-65836330D01*
X151277625Y-65780861D01*
X151392621Y-65692621D01*
X151480861Y-65577625D01*
X151536330Y-65443709D01*
X151555250Y-65300000D01*
X166444750Y-65300000D01*
X166462698Y-65436329D01*
X166463670Y-65443708D01*
X166463671Y-65443712D01*
X166519137Y-65577622D01*
X166519138Y-65577624D01*
X166519139Y-65577625D01*
X166607379Y-65692621D01*
X166722375Y-65780861D01*
X166856291Y-65836330D01*
X166983280Y-65853048D01*
X166999999Y-65855250D01*
X167000000Y-65855250D01*
X167000001Y-65855250D01*
X167014977Y-65853278D01*
X167143709Y-65836330D01*
X167277625Y-65780861D01*
X167392621Y-65692621D01*
X167480861Y-65577625D01*
X167536330Y-65443709D01*
X167555250Y-65300000D01*
X167536330Y-65156291D01*
X167513014Y-65100000D01*
X175144750Y-65100000D01*
X175152160Y-65156287D01*
X175163670Y-65243708D01*
X175163671Y-65243712D01*
X175219137Y-65377622D01*
X175219138Y-65377624D01*
X175219139Y-65377625D01*
X175307379Y-65492621D01*
X175422375Y-65580861D01*
X175556291Y-65636330D01*
X175683280Y-65653048D01*
X175699999Y-65655250D01*
X175700000Y-65655250D01*
X175700001Y-65655250D01*
X175714977Y-65653278D01*
X175843709Y-65636330D01*
X175977625Y-65580861D01*
X176092621Y-65492621D01*
X176180861Y-65377625D01*
X176236330Y-65243709D01*
X176255250Y-65100000D01*
X176236330Y-64956291D01*
X176180861Y-64822375D01*
X176092621Y-64707379D01*
X175977625Y-64619139D01*
X175977624Y-64619138D01*
X175977622Y-64619137D01*
X175843712Y-64563671D01*
X175843710Y-64563670D01*
X175843709Y-64563670D01*
X175765201Y-64553334D01*
X175700001Y-64544750D01*
X175699999Y-64544750D01*
X175556291Y-64563670D01*
X175556287Y-64563671D01*
X175422377Y-64619137D01*
X175307379Y-64707379D01*
X175219137Y-64822377D01*
X175163671Y-64956287D01*
X175163670Y-64956291D01*
X175144750Y-65100000D01*
X167513014Y-65100000D01*
X167482768Y-65026979D01*
X167480862Y-65022377D01*
X167480861Y-65022376D01*
X167480861Y-65022375D01*
X167392621Y-64907379D01*
X167277625Y-64819139D01*
X167277624Y-64819138D01*
X167277622Y-64819137D01*
X167143712Y-64763671D01*
X167143710Y-64763670D01*
X167143709Y-64763670D01*
X167071854Y-64754210D01*
X167000001Y-64744750D01*
X166999999Y-64744750D01*
X166856291Y-64763670D01*
X166856287Y-64763671D01*
X166722377Y-64819137D01*
X166607379Y-64907379D01*
X166519137Y-65022377D01*
X166463671Y-65156287D01*
X166463670Y-65156291D01*
X166445722Y-65292620D01*
X166444750Y-65300000D01*
X151555250Y-65300000D01*
X151536330Y-65156291D01*
X151482768Y-65026979D01*
X151480862Y-65022377D01*
X151480861Y-65022376D01*
X151480861Y-65022375D01*
X151392621Y-64907379D01*
X151277625Y-64819139D01*
X151277624Y-64819138D01*
X151277622Y-64819137D01*
X151143712Y-64763671D01*
X151143710Y-64763670D01*
X151143709Y-64763670D01*
X151071854Y-64754210D01*
X151000001Y-64744750D01*
X150999999Y-64744750D01*
X150856291Y-64763670D01*
X150856287Y-64763671D01*
X150722377Y-64819137D01*
X150607379Y-64907379D01*
X150519137Y-65022377D01*
X150463671Y-65156287D01*
X150463670Y-65156291D01*
X150445722Y-65292620D01*
X150444750Y-65300000D01*
X142673500Y-65300000D01*
X142584054Y-65210554D01*
X142550569Y-65149231D01*
X142555553Y-65079539D01*
X142597425Y-65023606D01*
X142657444Y-64999699D01*
X142675106Y-64997650D01*
X142775599Y-64953278D01*
X142853278Y-64875599D01*
X142897650Y-64775106D01*
X142900500Y-64750540D01*
X142900500Y-63400000D01*
X171544750Y-63400000D01*
X171554420Y-63473453D01*
X171563670Y-63543708D01*
X171563671Y-63543712D01*
X171619137Y-63677622D01*
X171619138Y-63677624D01*
X171619139Y-63677625D01*
X171707379Y-63792621D01*
X171822375Y-63880861D01*
X171956291Y-63936330D01*
X172083280Y-63953048D01*
X172099999Y-63955250D01*
X172100000Y-63955250D01*
X172100001Y-63955250D01*
X172114977Y-63953278D01*
X172243709Y-63936330D01*
X172377625Y-63880861D01*
X172492621Y-63792621D01*
X172580861Y-63677625D01*
X172636330Y-63543709D01*
X172655250Y-63400000D01*
X172636330Y-63256291D01*
X172580861Y-63122375D01*
X172492621Y-63007379D01*
X172377625Y-62919139D01*
X172377624Y-62919138D01*
X172377622Y-62919137D01*
X172243712Y-62863671D01*
X172243710Y-62863670D01*
X172243709Y-62863670D01*
X172171854Y-62854210D01*
X172100001Y-62844750D01*
X172099999Y-62844750D01*
X171956291Y-62863670D01*
X171956287Y-62863671D01*
X171822377Y-62919137D01*
X171707379Y-63007379D01*
X171619137Y-63122377D01*
X171563671Y-63256287D01*
X171563670Y-63256291D01*
X171549391Y-63364752D01*
X171544750Y-63400000D01*
X142900500Y-63400000D01*
X142900500Y-63249460D01*
X142897650Y-63224894D01*
X142886894Y-63200535D01*
X142854405Y-63126954D01*
X142853278Y-63124401D01*
X142775599Y-63046722D01*
X142675107Y-63002350D01*
X142650543Y-62999500D01*
X142650540Y-62999500D01*
X141349460Y-62999500D01*
X141349456Y-62999500D01*
X141324893Y-63002350D01*
X141324891Y-63002350D01*
X141224400Y-63046722D01*
X141146722Y-63124400D01*
X141102350Y-63224891D01*
X141102350Y-63224893D01*
X141099500Y-63249456D01*
X141099500Y-63577919D01*
X141079815Y-63644958D01*
X141027011Y-63690713D01*
X140957853Y-63700657D01*
X140894297Y-63671632D01*
X140860939Y-63625371D01*
X140798016Y-63473459D01*
X140798009Y-63473446D01*
X140699464Y-63325965D01*
X140699461Y-63325961D01*
X140574038Y-63200538D01*
X140574034Y-63200535D01*
X140426553Y-63101990D01*
X140426540Y-63101983D01*
X140262667Y-63034106D01*
X140262658Y-63034103D01*
X140088694Y-62999500D01*
X140088691Y-62999500D01*
X139911309Y-62999500D01*
X139911306Y-62999500D01*
X139737341Y-63034103D01*
X139737332Y-63034106D01*
X139573459Y-63101983D01*
X139573446Y-63101990D01*
X139425965Y-63200535D01*
X139425961Y-63200538D01*
X139300538Y-63325961D01*
X139300535Y-63325965D01*
X139201990Y-63473446D01*
X139201983Y-63473459D01*
X139134106Y-63637332D01*
X139134103Y-63637341D01*
X139099500Y-63811304D01*
X136900499Y-63811304D01*
X136865896Y-63637341D01*
X136865893Y-63637332D01*
X136798016Y-63473459D01*
X136798009Y-63473446D01*
X136699464Y-63325965D01*
X136699461Y-63325961D01*
X136574038Y-63200538D01*
X136574034Y-63200535D01*
X136426553Y-63101990D01*
X136426540Y-63101983D01*
X136262667Y-63034106D01*
X136262658Y-63034103D01*
X136088694Y-62999500D01*
X136088691Y-62999500D01*
X135911309Y-62999500D01*
X135911306Y-62999500D01*
X135737341Y-63034103D01*
X135737332Y-63034106D01*
X135573459Y-63101983D01*
X135573446Y-63101990D01*
X135425965Y-63200535D01*
X135425961Y-63200538D01*
X135300538Y-63325961D01*
X135300535Y-63325965D01*
X135201990Y-63473446D01*
X135201983Y-63473459D01*
X135134106Y-63637332D01*
X135134104Y-63637340D01*
X135121617Y-63700118D01*
X135089232Y-63762028D01*
X135028516Y-63796603D01*
X134958747Y-63792863D01*
X134902075Y-63751996D01*
X134878383Y-63700118D01*
X134867712Y-63646476D01*
X134865894Y-63637334D01*
X134814352Y-63512899D01*
X134798016Y-63473459D01*
X134798009Y-63473446D01*
X134699464Y-63325965D01*
X134699461Y-63325961D01*
X134574038Y-63200538D01*
X134574034Y-63200535D01*
X134426553Y-63101990D01*
X134426540Y-63101983D01*
X134262667Y-63034106D01*
X134262658Y-63034103D01*
X134088694Y-62999500D01*
X134088691Y-62999500D01*
X133911309Y-62999500D01*
X133911306Y-62999500D01*
X133737341Y-63034103D01*
X133737332Y-63034106D01*
X133573459Y-63101983D01*
X133573446Y-63101990D01*
X133425965Y-63200535D01*
X133425961Y-63200538D01*
X133300538Y-63325961D01*
X133300535Y-63325965D01*
X133201990Y-63473446D01*
X133201983Y-63473459D01*
X133134106Y-63637332D01*
X133134104Y-63637340D01*
X133121617Y-63700118D01*
X133089232Y-63762028D01*
X133028516Y-63796603D01*
X132958747Y-63792863D01*
X132902075Y-63751996D01*
X132878383Y-63700118D01*
X132867712Y-63646476D01*
X132865894Y-63637334D01*
X132814352Y-63512899D01*
X132798016Y-63473459D01*
X132798009Y-63473446D01*
X132699464Y-63325965D01*
X132699461Y-63325961D01*
X132574038Y-63200538D01*
X132574034Y-63200535D01*
X132426553Y-63101990D01*
X132426540Y-63101983D01*
X132262667Y-63034106D01*
X132262658Y-63034103D01*
X132088694Y-62999500D01*
X132088691Y-62999500D01*
X131911309Y-62999500D01*
X131911306Y-62999500D01*
X131737341Y-63034103D01*
X131737332Y-63034106D01*
X131573459Y-63101983D01*
X131573446Y-63101990D01*
X131425965Y-63200535D01*
X131425961Y-63200538D01*
X131300538Y-63325961D01*
X131300535Y-63325965D01*
X131201990Y-63473446D01*
X131201983Y-63473459D01*
X131134106Y-63637332D01*
X131134104Y-63637340D01*
X131121617Y-63700118D01*
X131089232Y-63762028D01*
X131028516Y-63796603D01*
X130958747Y-63792863D01*
X130902075Y-63751996D01*
X130878383Y-63700118D01*
X130867712Y-63646476D01*
X130865894Y-63637334D01*
X130814352Y-63512899D01*
X130798016Y-63473459D01*
X130798009Y-63473446D01*
X130699464Y-63325965D01*
X130699461Y-63325961D01*
X130574038Y-63200538D01*
X130574034Y-63200535D01*
X130426553Y-63101990D01*
X130426540Y-63101983D01*
X130262667Y-63034106D01*
X130262658Y-63034103D01*
X130088694Y-62999500D01*
X130088691Y-62999500D01*
X129911309Y-62999500D01*
X129911306Y-62999500D01*
X129737341Y-63034103D01*
X129737332Y-63034106D01*
X129573459Y-63101983D01*
X129573446Y-63101990D01*
X129425965Y-63200535D01*
X129425961Y-63200538D01*
X129300538Y-63325961D01*
X129300535Y-63325965D01*
X129201990Y-63473446D01*
X129201983Y-63473459D01*
X129134106Y-63637332D01*
X129134104Y-63637340D01*
X129121617Y-63700118D01*
X129089232Y-63762028D01*
X129028516Y-63796603D01*
X128958747Y-63792863D01*
X128902075Y-63751996D01*
X128878383Y-63700118D01*
X128867712Y-63646476D01*
X128865894Y-63637334D01*
X128814352Y-63512899D01*
X128798016Y-63473459D01*
X128798009Y-63473446D01*
X128699464Y-63325965D01*
X128699461Y-63325961D01*
X128574038Y-63200538D01*
X128574034Y-63200535D01*
X128426553Y-63101990D01*
X128426540Y-63101983D01*
X128262667Y-63034106D01*
X128262658Y-63034103D01*
X128088694Y-62999500D01*
X128088691Y-62999500D01*
X127911309Y-62999500D01*
X127911306Y-62999500D01*
X127737341Y-63034103D01*
X127737332Y-63034106D01*
X127573459Y-63101983D01*
X127573446Y-63101990D01*
X127425965Y-63200535D01*
X127425961Y-63200538D01*
X127300538Y-63325961D01*
X127300535Y-63325965D01*
X127201990Y-63473446D01*
X127201983Y-63473459D01*
X127134106Y-63637332D01*
X127134103Y-63637341D01*
X127099500Y-63811304D01*
X80246683Y-63811304D01*
X80068927Y-63633548D01*
X79960742Y-63543712D01*
X79745230Y-63364752D01*
X79745220Y-63364745D01*
X79745218Y-63364743D01*
X79398089Y-63126954D01*
X79398085Y-63126952D01*
X79398081Y-63126949D01*
X79030508Y-62922213D01*
X79030507Y-62922212D01*
X79030499Y-62922208D01*
X79030490Y-62922204D01*
X79030480Y-62922199D01*
X78645601Y-62752257D01*
X78645597Y-62752256D01*
X78645588Y-62752253D01*
X78645586Y-62752252D01*
X78246634Y-62618537D01*
X78246633Y-62618536D01*
X78246631Y-62618536D01*
X77837050Y-62522204D01*
X77837047Y-62522203D01*
X77837045Y-62522203D01*
X77538477Y-62480554D01*
X77420324Y-62464072D01*
X77420322Y-62464071D01*
X77420316Y-62464071D01*
X77000000Y-62444639D01*
X76579684Y-62464071D01*
X76579677Y-62464071D01*
X76579675Y-62464072D01*
X76162955Y-62522203D01*
X76162949Y-62522204D01*
X75753368Y-62618536D01*
X75354402Y-62752256D01*
X75354398Y-62752257D01*
X74969519Y-62922199D01*
X74969491Y-62922213D01*
X74601918Y-63126949D01*
X74601912Y-63126953D01*
X74254779Y-63364745D01*
X74254769Y-63364752D01*
X73931084Y-63633538D01*
X73931064Y-63633556D01*
X73633556Y-63931064D01*
X73633538Y-63931084D01*
X73364752Y-64254769D01*
X73364745Y-64254779D01*
X73126953Y-64601912D01*
X73126949Y-64601918D01*
X72922213Y-64969491D01*
X72922199Y-64969519D01*
X72752257Y-65354398D01*
X72752256Y-65354402D01*
X72618536Y-65753368D01*
X72522204Y-66162949D01*
X72522203Y-66162955D01*
X72470119Y-66536330D01*
X72464071Y-66579684D01*
X72444639Y-67000000D01*
X71060548Y-67000000D01*
X71060596Y-66997556D01*
X71062162Y-66957697D01*
X71078618Y-66538839D01*
X71079379Y-66529173D01*
X71133053Y-66075685D01*
X71134575Y-66066079D01*
X71147535Y-66000928D01*
X71223660Y-65618220D01*
X71225931Y-65608762D01*
X71228544Y-65599500D01*
X71349877Y-65169283D01*
X71352883Y-65160031D01*
X71354263Y-65156291D01*
X71510935Y-64731612D01*
X71514658Y-64722626D01*
X71521687Y-64707379D01*
X71705837Y-64307924D01*
X71710233Y-64299297D01*
X71933383Y-63900835D01*
X71938434Y-63892593D01*
X72192147Y-63512883D01*
X72197848Y-63505037D01*
X72480569Y-63146407D01*
X72486861Y-63139041D01*
X72796850Y-62803696D01*
X72803696Y-62796850D01*
X73139041Y-62486861D01*
X73146407Y-62480569D01*
X73248608Y-62400000D01*
X84144750Y-62400000D01*
X84157915Y-62500000D01*
X84163670Y-62543708D01*
X84163671Y-62543712D01*
X84219137Y-62677622D01*
X84219138Y-62677624D01*
X84219139Y-62677625D01*
X84307379Y-62792621D01*
X84422375Y-62880861D01*
X84422376Y-62880861D01*
X84422377Y-62880862D01*
X84467013Y-62899350D01*
X84556291Y-62936330D01*
X84683280Y-62953048D01*
X84699999Y-62955250D01*
X84700000Y-62955250D01*
X84700001Y-62955250D01*
X84714977Y-62953278D01*
X84843709Y-62936330D01*
X84977625Y-62880861D01*
X85092621Y-62792621D01*
X85180861Y-62677625D01*
X85236330Y-62543709D01*
X85242085Y-62499999D01*
X161844750Y-62499999D01*
X161844750Y-62500000D01*
X161863670Y-62643708D01*
X161863671Y-62643712D01*
X161919137Y-62777622D01*
X161919138Y-62777624D01*
X161919139Y-62777625D01*
X162007379Y-62892621D01*
X162122375Y-62980861D01*
X162256291Y-63036330D01*
X162383280Y-63053048D01*
X162399999Y-63055250D01*
X162400000Y-63055250D01*
X162400001Y-63055250D01*
X162414977Y-63053278D01*
X162543709Y-63036330D01*
X162677625Y-62980861D01*
X162792621Y-62892621D01*
X162880861Y-62777625D01*
X162936330Y-62643709D01*
X162955250Y-62500000D01*
X162936330Y-62356291D01*
X162880861Y-62222375D01*
X162792621Y-62107379D01*
X162677625Y-62019139D01*
X162677624Y-62019138D01*
X162677622Y-62019137D01*
X162543712Y-61963671D01*
X162543710Y-61963670D01*
X162543709Y-61963670D01*
X162471854Y-61954210D01*
X162400001Y-61944750D01*
X162399999Y-61944750D01*
X162256291Y-61963670D01*
X162256287Y-61963671D01*
X162122377Y-62019137D01*
X162007379Y-62107379D01*
X161919137Y-62222377D01*
X161863671Y-62356287D01*
X161863670Y-62356291D01*
X161844750Y-62499999D01*
X85242085Y-62499999D01*
X85255250Y-62400000D01*
X85236330Y-62256291D01*
X85186641Y-62136329D01*
X85180862Y-62122377D01*
X85180861Y-62122376D01*
X85180861Y-62122375D01*
X85092621Y-62007379D01*
X84977625Y-61919139D01*
X84977624Y-61919138D01*
X84977622Y-61919137D01*
X84843712Y-61863671D01*
X84843710Y-61863670D01*
X84843709Y-61863670D01*
X84771854Y-61854210D01*
X84700001Y-61844750D01*
X84699999Y-61844750D01*
X84556291Y-61863670D01*
X84556287Y-61863671D01*
X84422377Y-61919137D01*
X84307379Y-62007379D01*
X84219137Y-62122377D01*
X84163671Y-62256287D01*
X84163670Y-62256291D01*
X84150505Y-62356291D01*
X84144750Y-62400000D01*
X73248608Y-62400000D01*
X73505037Y-62197848D01*
X73512883Y-62192147D01*
X73892593Y-61938434D01*
X73900835Y-61933383D01*
X74299297Y-61710233D01*
X74307924Y-61705837D01*
X74722634Y-61514654D01*
X74731612Y-61510935D01*
X75160039Y-61352880D01*
X75169283Y-61349877D01*
X75608772Y-61225928D01*
X75618220Y-61223660D01*
X76066089Y-61134573D01*
X76075685Y-61133053D01*
X76529173Y-61079379D01*
X76538839Y-61078618D01*
X76997557Y-61060596D01*
X77002425Y-61060500D01*
X77019657Y-61060500D01*
X86668636Y-61060500D01*
X86735675Y-61080185D01*
G37*
%TD.AperFunction*%
%TD*%
%TA.AperFunction,Conductor*%
%TO.N,+VOUT*%
G36*
X167643039Y-77819685D02*
G01*
X167688794Y-77872489D01*
X167700000Y-77924000D01*
X167700000Y-84876000D01*
X167680315Y-84943039D01*
X167627511Y-84988794D01*
X167576000Y-85000000D01*
X152424000Y-85000000D01*
X152356961Y-84980315D01*
X152311206Y-84927511D01*
X152300000Y-84876000D01*
X152300000Y-77924000D01*
X152319685Y-77856961D01*
X152372489Y-77811206D01*
X152424000Y-77800000D01*
X167576000Y-77800000D01*
X167643039Y-77819685D01*
G37*
%TD.AperFunction*%
%TD*%
%TA.AperFunction,Conductor*%
%TO.N,Net-(L1-Pad2)*%
G36*
X151643039Y-77819685D02*
G01*
X151688794Y-77872489D01*
X151700000Y-77924000D01*
X151700000Y-84876000D01*
X151680315Y-84943039D01*
X151627511Y-84988794D01*
X151576000Y-85000000D01*
X142124000Y-85000000D01*
X142056961Y-84980315D01*
X142011206Y-84927511D01*
X142000000Y-84876000D01*
X142000000Y-77924000D01*
X142019685Y-77856961D01*
X142072489Y-77811206D01*
X142124000Y-77800000D01*
X151576000Y-77800000D01*
X151643039Y-77819685D01*
G37*
%TD.AperFunction*%
%TD*%
%TA.AperFunction,Conductor*%
%TO.N,+VOUT_OUT*%
G36*
X171843039Y-77819685D02*
G01*
X171888794Y-77872489D01*
X171900000Y-77924000D01*
X171900000Y-84876000D01*
X171880315Y-84943039D01*
X171827511Y-84988794D01*
X171776000Y-85000000D01*
X168424000Y-85000000D01*
X168356961Y-84980315D01*
X168311206Y-84927511D01*
X168300000Y-84876000D01*
X168300000Y-77924000D01*
X168319685Y-77856961D01*
X168372489Y-77811206D01*
X168424000Y-77800000D01*
X171776000Y-77800000D01*
X171843039Y-77819685D01*
G37*
%TD.AperFunction*%
%TD*%
%TA.AperFunction,Conductor*%
%TO.N,+VOUT_OUT*%
G36*
X186043039Y-89919685D02*
G01*
X186088794Y-89972489D01*
X186100000Y-90024000D01*
X186100000Y-99876000D01*
X186080315Y-99943039D01*
X186027511Y-99988794D01*
X185976000Y-100000000D01*
X178924000Y-100000000D01*
X178856961Y-99980315D01*
X178811206Y-99927511D01*
X178800000Y-99876000D01*
X178800000Y-90024000D01*
X178819685Y-89956961D01*
X178872489Y-89911206D01*
X178924000Y-89900000D01*
X185976000Y-89900000D01*
X186043039Y-89919685D01*
G37*
%TD.AperFunction*%
%TD*%
%TA.AperFunction,Conductor*%
%TO.N,+12V*%
G36*
X106543039Y-91819685D02*
G01*
X106588794Y-91872489D01*
X106600000Y-91924000D01*
X106600000Y-94776000D01*
X106580315Y-94843039D01*
X106527511Y-94888794D01*
X106476000Y-94900000D01*
X101924000Y-94900000D01*
X101856961Y-94880315D01*
X101811206Y-94827511D01*
X101800000Y-94776000D01*
X101800000Y-91924000D01*
X101819685Y-91856961D01*
X101872489Y-91811206D01*
X101924000Y-91800000D01*
X106476000Y-91800000D01*
X106543039Y-91819685D01*
G37*
%TD.AperFunction*%
%TD*%
%TA.AperFunction,Conductor*%
%TO.N,+24V*%
G36*
X112243039Y-101619685D02*
G01*
X112288794Y-101672489D01*
X112300000Y-101724000D01*
X112300000Y-109876000D01*
X112280315Y-109943039D01*
X112227511Y-109988794D01*
X112176000Y-110000000D01*
X106824000Y-110000000D01*
X106756961Y-109980315D01*
X106711206Y-109927511D01*
X106700000Y-109876000D01*
X106700000Y-101724000D01*
X106719685Y-101656961D01*
X106772489Y-101611206D01*
X106824000Y-101600000D01*
X112176000Y-101600000D01*
X112243039Y-101619685D01*
G37*
%TD.AperFunction*%
%TD*%
M02*
